# Mesh2Param deterministic OBJ
o Mesh2Param_result
v 0 0 0
v 0 0 12
v 0 30 0
v 0 30 12
v 16 15 0
v 16 15 12
v 16.019877000000001 14.601728999999999 0
v 16.019877000000001 14.601728999999999 12
v 16.019877000000001 15.398270999999999 0
v 16.019877000000001 15.398270999999999 12
v 16.07931 14.207414999999999 0
v 16.07931 14.207414999999999 12
v 16.07931 15.792584999999999 0
v 16.07931 15.792584999999999 12
v 16.177709 13.820978999999999 0
v 16.177709 13.820978999999999 12
v 16.177709 16.179020999999999 0
v 16.177709 16.179020999999999 12
v 16.314094999999998 13.446261 0
v 16.314094999999998 13.446261 12
v 16.314094999999998 16.553739 0
v 16.314094999999998 16.553739 12
v 16.487113999999998 13.086983999999999 0
v 16.487113999999998 13.086983999999999 12
v 16.487113999999998 16.913015999999999 0
v 16.487113999999998 16.913015999999999 12
v 16.695045 12.74672 0
v 16.695045 12.74672 12
v 16.695045 17.25328 0
v 16.695045 17.25328 12
v 16.935821999999998 12.428849999999999 0
v 16.935821999999998 12.428849999999999 12
v 16.935821999999998 17.571149999999999 0
v 16.935821999999998 17.571149999999999 12
v 17.207052999999998 12.136533 0
v 17.207052999999998 12.136533 12
v 17.207052999999998 17.863467 0
v 17.207052999999998 17.863467 12
v 17.506041 11.872674 0
v 17.506041 11.872674 12
v 17.506041 18.127326 0
v 17.506041 18.127326 12
v 17.829815 11.639896 0
v 17.829815 11.639896 12
v 17.829815 18.360104 0
v 17.829815 18.360104 12
v 18.175156999999999 11.440512999999999 0
v 18.175156999999999 11.440512999999999 12
v 18.175156999999999 18.559487000000001 0
v 18.175156999999999 18.559487000000001 12
v 18.538636 11.276505 0
v 18.538636 11.276505 12
v 18.538636 18.723495 0
v 18.538636 18.723495 12
v 18.916637999999999 11.149502999999999 0
v 18.916637999999999 11.149502999999999 12
v 18.916637999999999 18.850497000000001 0
v 18.916637999999999 18.850497000000001 12
v 19.305406999999999 11.060768999999999 0
v 19.305406999999999 11.060768999999999 12
v 19.305406999999999 18.939230999999999 0
v 19.305406999999999 18.939230999999999 12
v 19.701079999999997 11.011184999999999 0
v 19.701079999999997 11.011184999999999 12
v 19.701079999999997 18.988814999999999 0
v 19.701079999999997 18.988814999999999 12
v 20.099722999999997 11.001242999999999 0
v 20.099722999999997 11.001242999999999 12
v 20.099722999999997 18.998756999999998 0
v 20.099722999999997 18.998756999999998 12
v 20.497374999999998 11.031043 0
v 20.497374999999998 11.031043 12
v 20.497374999999998 18.968957 0
v 20.497374999999998 18.968957 12
v 20.890083999999998 11.100287999999999 0
v 20.890083999999998 11.100287999999999 12
v 20.890083999999998 18.899711999999997 0
v 20.890083999999998 18.899711999999997 12
v 21.273947 11.208290999999999 0
v 21.273947 11.208290999999999 12
v 21.273947 18.791709000000001 0
v 21.273947 18.791709000000001 12
v 21.645147999999999 11.353976999999999 0
v 21.645147999999999 11.353976999999999 12
v 21.645147999999999 18.646023 0
v 21.645147999999999 18.646023 12
v 22 11.535898 0
v 22 11.535898 12
v 22 18.464102 0
v 22 18.464102 12
v 22.334975 11.752248 0
v 22.334975 11.752248 12
v 22.334975 18.247751999999998 0
v 22.334975 18.247751999999998 12
v 22.646743000000001 12.000874999999999 0
v 22.646743000000001 12.000874999999999 12
v 22.646743000000001 17.999124999999999 0
v 22.646743000000001 17.999124999999999 12
v 22.932206999999998 12.279309 0
v 22.932206999999998 12.279309 12
v 22.932206999999998 17.720690999999999 0
v 22.932206999999998 17.720690999999999 12
v 23.18853 12.584781999999999 0
v 23.18853 12.584781999999999 12
v 23.18853 17.415217999999999 0
v 23.18853 17.415217999999999 12
v 23.413163999999998 12.914258999999999 0
v 23.413163999999998 12.914258999999999 12
v 23.413163999999998 17.085740999999999 0
v 23.413163999999998 17.085740999999999 12
v 23.603874999999999 13.264465 0
v 23.603874999999999 13.264465 12
v 23.603874999999999 16.735534999999999 0
v 23.603874999999999 16.735534999999999 12
v 23.758769999999998 13.631919 0
v 23.758769999999998 13.631919 12
v 23.758769999999998 16.368081 0
v 23.758769999999998 16.368081 12
v 23.876308999999999 14.012969999999999 0
v 23.876308999999999 14.012969999999999 12
v 23.876308999999999 15.987029999999999 0
v 23.876308999999999 15.987029999999999 12
v 23.955323 14.403830999999998 0
v 23.955323 14.403830999999998 12
v 23.955323 15.596169 0
v 23.955323 15.596169 12
v 23.995027999999998 14.800616 0
v 23.995027999999998 14.800616 12
v 23.995027999999998 15.199383999999998 0
v 23.995027999999998 15.199383999999998 12
v 40 0 0
v 40 0 12
v 40 30 0
v 40 30 12
vn -0.24698347996146011 -0.65862261323056037 -0.71078506875670566
vn -0.53338295276843128 -0.35558863517895417 0.76750201838666077
vn -0.53338295276843128 0.35558863517895417 -0.76750201838666077
vn -0.24698347996146011 0.65862261323056037 0.71078506875670566
vn 0.02905029910793885 0.00048328298685110531 -0.999577834167652
vn 0.029050299107938805 -0.00048328298685110531 0.999577834167652
vn 0.71429006653916283 0.083497202964904052 -0.69485100413003376
vn 0.71667179776397871 0.059691957385961072 0.69485135425728239
vn 0.71667179776397838 -0.059691957385961225 -0.69485135425728262
vn 0.71429006653916294 -0.083497202964904191 0.69485100413003342
vn 0.53186957154265679 0.1075197415507143 -0.83997277577544038
vn 0.7751238450789637 0.15669464837208119 0.61207010379657689
vn 0.7751238450789637 -0.15669464837208119 -0.61207010379657689
vn 0.53186957154265679 -0.1075197415507143 0.83997277577544038
vn 0.6508395729180958 0.18896063251086406 -0.73532423439247874
vn 0.64419400559060735 0.21050446991304428 0.73532438508984366
vn 0.64419400559060791 -0.21050446991304383 -0.73532438508984332
vn 0.65083957291809569 -0.18896063251086373 0.73532423439247885
vn 0.70418890629085495 0.2968406713273532 -0.64498341071907861
vn 0.46966693039320989 0.19798131676416081 0.86035828159398153
vn 0.60776389824708021 -0.26818567643546037 -0.74746203043523696
vn 0.61634798109076583 -0.24782101665483394 0.74746231337071534
vn 0.43984643022998299 0.23952777263393132 -0.86554119714255573
vn 0.66450791339867632 0.36187198407130844 0.65381794115398195
vn 0.57041516372149814 -0.32304773686170152 -0.75516004972794304
vn 0.5808451262750377 -0.30389565889270681 0.75515982930019721
vn 0.54415567582708868 0.35788717407228859 -0.75882235806525622
vn 0.53195029820046491 0.37578918872744965 0.75882235462590431
vn 0.53195029820046424 -0.37578918872744987 -0.75882235462590475
vn 0.54415567582708935 -0.35788717407228837 0.75882235806525578
vn 0.57695116488432696 0.48411980594488807 -0.65784144505382325
vn 0.38057381073974339 0.31933953966445344 0.86786279617571171
vn 0.38057381073974339 -0.31933953966445344 -0.86786279617571171
vn 0.57695116488432696 -0.48411980594488807 0.65784144505382325
vn 0.45029301498158375 0.47729406753748227 -0.75460358715839693
vn 0.46591969365213454 0.46205228118981595 0.75460355718376271
vn 0.52870898503490371 -0.54205846483418596 -0.65317641556088624
vn 0.35015235349768203 -0.35899342089391678 0.86516880034760701
vn 0.40614898418405171 0.52704514562167848 -0.74650279110187301
vn 0.42345530290637551 0.5132438901111287 0.74650272317257171
vn 0.31847043508509409 -0.39934858879717772 -0.85970767508637103
vn 0.47704460984095615 -0.59819396322419482 0.64388851720140239
vn 0.35898022749148267 0.57663498286826054 -0.73391095699865672
vn 0.37796241119948931 0.5643752260821826 0.73391077107844205
vn 0.37796241119948931 -0.5643752260821826 -0.73391077107844205
vn 0.35898022749148267 -0.57663498286826054 0.73391095699865672
vn 0.30803334383154363 0.62628892847837303 -0.71615475782359306
vn 0.32869466859525998 0.61569610168626143 0.71615509856831505
vn 0.32869466859525998 -0.61569610168626143 -0.71615509856831505
vn 0.30803334383154363 -0.62628892847837303 0.71615475782359306
vn 0.25243344352545133 0.67604506248194296 -0.69227193362411332
vn 0.2747809242133924 0.66727454742192882 0.69227171114475994
vn 0.29654591647913581 -0.75558627778037246 -0.58408038509228433
vn 0.20847104471476174 -0.53117528162656369 0.82121412780375169
vn 0.19120145402510211 0.72565746439440582 -0.66095631349384087
vn 0.21523304570875657 0.71889600638139928 0.66095632839379592
vn 0.16344310459003053 -0.58091107997553604 -0.79738865600385167
vn 0.22597605010998267 -0.8031662861964689 0.55123383558528272
vn 0.12330850713417967 0.77443677500320685 -0.62051808482184645
vn 0.1490003017427281 0.76990642235209195 0.62051834050379062
vn 0.14900030174272597 -0.76990642235209306 -0.62051834050378984
vn 0.12330850713417864 -0.77443677500320784 0.62051808482184567
vn 0.047809822182619074 0.82102777769843027 -0.56888277276644916
vn 0.075092523653705806 0.81898338493401168 0.56888252574090026
vn 0.075092523653704654 -0.81898338493401246 -0.56888252574089915
vn 0.047809822182616681 -0.82102777769843116 0.56888277276644805
vn -0.00052989473743476044 0.021248490781830536 -0.99977408490671615
vn -0.0010590720179039098 0.042468211929537231 0.99909725719870168
vn -0.00026452575552655559 -0.031876954140517964 -0.99949176575940235
vn -0.0013247095569764798 -0.031850517568639179 0.99949176568654108
vn -0.086559882000065438 0.79812383169344847 -0.59624301766234789
vn -0.1130595816384406 0.79480301413625798 0.59624298714505641
vn -0.086559882000063065 -0.79812383169344869 -0.596243017662348
vn -0.11305958163844297 -0.79480301413625776 0.5962429871450563
vn -0.1581512022753046 0.75021682541764934 -0.64199915270905161
vn -0.18301851336177066 0.74454108330196156 0.64199906467407641
vn -0.1581512022753068 -0.75021682541764889 -0.64199915270905139
vn -0.18301851336176847 -0.74454108330196178 0.64199906467407686
vn -0.26199461167886795 0.77978430074892202 -0.56859059766826403
vn -0.18666884242570206 0.55558941395693417 0.81023153873842702
vn -0.22258643358573463 -0.70089938136454355 -0.67763953307520641
vn -0.24577679415408341 -0.69310748311223624 0.67763986328223225
vn -0.22903559981473023 0.50759594377496264 -0.83059560068706817
vn -0.32969843608112276 0.73068810682313623 0.59782424824766245
vn -0.28087401005130358 -0.65116139690388786 -0.70505221484644509
vn -0.30237744335242428 -0.64145893926703312 0.70505199169002009
vn -0.39209885565007518 0.67913651080928317 -0.62050953826971422
vn -0.26709283513501236 0.46261929485872666 0.8453666692293681
vn -0.33403035849891904 -0.60144659162189895 -0.725731160298002
vn -0.35385188710463883 -0.59000281735997728 0.72573102283130719
vn -0.4011308675018273 0.53879791724828541 -0.74080417892054407
vn -0.38298716612956329 0.55184279319384555 0.74080386215250049
vn -0.44978785377547564 -0.62561620448820499 -0.63741293623350925
vn -0.3019536283124617 -0.41999151664638507 0.85582190454206586
vn -0.44502428214545958 0.48767671276999414 -0.75108242698306493
vn -0.42855644918328895 0.5022094093341779 0.75108260467116883
vn -0.33450786068918287 -0.37904303041796217 -0.86280407522722913
vn -0.50333138500315566 -0.57034310967459922 0.64912730193507762
vn -0.48621649886984497 0.43631996437182408 -0.75711188401538132
vn -0.47143451682608101 0.45225111119486439 0.75711189976645454
vn -0.5532325296210111 -0.51332522563657978 -0.65607238998016959
vn -0.36548318391403917 -0.3391191367173802 0.86684499963264228
vn -0.52527706232089744 0.38430152585946181 -0.75920770874749244
vn -0.51220330338767162 0.40156105446343171 0.75920780787408515
vn -0.39549218887213405 -0.2995743549623987 -0.86824025153755169
vn -0.5999063815122101 -0.45441243173945683 0.65849956363050077
vn -0.56266498239545015 0.33110994347027306 -0.75747892572733699
vn -0.55133984460325114 0.34964319078178063 0.75747872240268133
vn -0.55133984460325114 -0.34964319078178063 -0.75747872240268133
vn -0.56266498239545015 -0.33110994347027306 0.75747892572733699
vn -0.5987311211337113 0.27616040790050017 -0.75183540332588639
vn -0.58921422095263853 0.29592252524067286 0.75183539480551098
vn -0.68468390980048666 -0.32972559057284434 -0.64999152193063869
vn -0.45469443670700965 -0.21896876723317882 0.863310864175864
vn -0.48481889938794098 0.17645994620724592 -0.85662857889566202
vn -0.72301411845931851 0.26315606221514404 0.63874836315086847
vn -0.48481889938794098 -0.17645994620724592 -0.85662857889566202
vn -0.72301411845931851 -0.26315606221514404 0.63874836315086847
vn -0.75852408546898276 0.19314401715634219 -0.6223637203437824
vn -0.51587032515666587 0.13135676090087875 0.84653600572473298
vn -0.66208704065215873 -0.18036679648221068 -0.72739849417441838
vn -0.66772033309602963 -0.15824386103760169 0.7273984033623111
vn -0.5482461076161016 0.082635130058522743 -0.83222451343613102
vn -0.79087066441182874 0.11920504186945252 0.60026140152911267
vn -0.79087066441182874 -0.11920504186945252 -0.60026140152911267
vn -0.5482461076161016 -0.082635130058522743 0.83222451343613102
vn -0.038662887744286077 0.0019296136874435731 -0.99925044793699735
vn -0.019342316407658041 0.00096534947761622619 0.99981245386140905
vn -0.58228519519977728 -0.029061085402739887 -0.81246501756467748
vn -0.81944935758233084 -0.040897635660734996 0.57169059267690159
vn 0.53499698435386989 -0.35666465623591326 -0.76587763364938588
vn 0.24762406617606192 -0.66033084313616508 0.7089749639116425
vn 0.24685457472918937 0.65827886594450491 -0.7111481938288865
vn 0.53305841307553603 0.35537227538369065 0.76782763309092328
f 1//1 2//2 3//3
f 1//1 3//3 5//5
f 1//1 5//5 7//7
f 1//1 7//7 11//11
f 1//1 11//11 15//15
f 1//1 15//15 19//19
f 1//1 19//19 23//23
f 1//1 23//23 27//27
f 1//1 27//27 31//31
f 1//1 31//31 35//35
f 1//1 35//35 39//39
f 1//1 39//39 43//43
f 1//1 43//43 47//47
f 1//1 47//47 51//51
f 1//1 51//51 55//55
f 1//1 55//55 59//59
f 1//1 59//59 63//63
f 1//1 63//63 67//67
f 1//1 67//67 131//131
f 1//1 131//131 132//132
f 1//1 132//132 2//2
f 2//2 4//4 3//3
f 2//2 6//6 4//4
f 2//2 8//8 6//6
f 2//2 12//12 8//8
f 2//2 16//16 12//12
f 2//2 20//20 16//16
f 2//2 24//24 20//20
f 2//2 28//28 24//24
f 2//2 32//32 28//28
f 2//2 36//36 32//32
f 2//2 40//40 36//36
f 2//2 44//44 40//40
f 2//2 48//48 44//44
f 2//2 52//52 48//48
f 2//2 56//56 52//52
f 2//2 60//60 56//56
f 2//2 64//64 60//60
f 2//2 68//68 64//64
f 2//2 132//132 68//68
f 3//3 4//4 133//133
f 3//3 9//9 5//5
f 3//3 13//13 9//9
f 3//3 17//17 13//13
f 3//3 21//21 17//17
f 3//3 25//25 21//21
f 3//3 29//29 25//25
f 3//3 33//33 29//29
f 3//3 37//37 33//33
f 3//3 41//41 37//37
f 3//3 45//45 41//41
f 3//3 49//49 45//45
f 3//3 53//53 49//49
f 3//3 57//57 53//53
f 3//3 61//61 57//57
f 3//3 65//65 61//61
f 3//3 69//69 65//65
f 3//3 133//133 69//69
f 4//4 6//6 10//10
f 4//4 10//10 14//14
f 4//4 14//14 18//18
f 4//4 18//18 22//22
f 4//4 22//22 26//26
f 4//4 26//26 30//30
f 4//4 30//30 34//34
f 4//4 34//34 38//38
f 4//4 38//38 42//42
f 4//4 42//42 46//46
f 4//4 46//46 50//50
f 4//4 50//50 54//54
f 4//4 54//54 58//58
f 4//4 58//58 62//62
f 4//4 62//62 66//66
f 4//4 66//66 70//70
f 4//4 70//70 134//134
f 4//4 134//134 133//133
f 5//5 6//6 8//8
f 5//5 8//8 7//7
f 5//5 9//9 6//6
f 6//6 9//9 10//10
f 7//7 8//8 12//12
f 7//7 12//12 11//11
f 9//9 13//13 10//10
f 10//10 13//13 14//14
f 11//11 12//12 15//15
f 12//12 16//16 15//15
f 13//13 17//17 18//18
f 13//13 18//18 14//14
f 15//15 16//16 19//19
f 16//16 20//20 19//19
f 17//17 21//21 22//22
f 17//17 22//22 18//18
f 19//19 20//20 24//24
f 19//19 24//24 23//23
f 21//21 25//25 26//26
f 21//21 26//26 22//22
f 23//23 24//24 27//27
f 24//24 28//28 27//27
f 25//25 29//29 30//30
f 25//25 30//30 26//26
f 27//27 28//28 31//31
f 28//28 32//32 31//31
f 29//29 33//33 34//34
f 29//29 34//34 30//30
f 31//31 32//32 36//36
f 31//31 36//36 35//35
f 33//33 37//37 34//34
f 34//34 37//37 38//38
f 35//35 36//36 40//40
f 35//35 40//40 39//39
f 37//37 41//41 42//42
f 37//37 42//42 38//38
f 39//39 40//40 44//44
f 39//39 44//44 43//43
f 41//41 45//45 42//42
f 42//42 45//45 46//46
f 43//43 44//44 48//48
f 43//43 48//48 47//47
f 45//45 49//49 46//46
f 46//46 49//49 50//50
f 47//47 48//48 52//52
f 47//47 52//52 51//51
f 49//49 53//53 50//50
f 50//50 53//53 54//54
f 51//51 52//52 56//56
f 51//51 56//56 55//55
f 53//53 57//57 58//58
f 53//53 58//58 54//54
f 55//55 56//56 60//60
f 55//55 60//60 59//59
f 57//57 61//61 58//58
f 58//58 61//61 62//62
f 59//59 60//60 64//64
f 59//59 64//64 63//63
f 61//61 65//65 62//62
f 62//62 65//65 66//66
f 63//63 64//64 68//68
f 63//63 68//68 67//67
f 65//65 69//69 66//66
f 66//66 69//69 70//70
f 67//67 68//68 71//71
f 67//67 71//71 131//131
f 68//68 72//72 71//71
f 68//68 132//132 72//72
f 69//69 73//73 70//70
f 69//69 133//133 73//73
f 70//70 73//73 74//74
f 70//70 74//74 134//134
f 71//71 72//72 75//75
f 71//71 75//75 131//131
f 72//72 76//76 75//75
f 72//72 132//132 76//76
f 73//73 77//77 74//74
f 73//73 133//133 77//77
f 74//74 77//77 78//78
f 74//74 78//78 134//134
f 75//75 76//76 79//79
f 75//75 79//79 131//131
f 76//76 80//80 79//79
f 76//76 132//132 80//80
f 77//77 81//81 78//78
f 77//77 133//133 81//81
f 78//78 81//81 82//82
f 78//78 82//82 134//134
f 79//79 80//80 84//84
f 79//79 83//83 131//131
f 79//79 84//84 83//83
f 80//80 132//132 84//84
f 81//81 85//85 82//82
f 81//81 133//133 85//85
f 82//82 85//85 86//86
f 82//82 86//86 134//134
f 83//83 84//84 87//87
f 83//83 87//87 131//131
f 84//84 88//88 87//87
f 84//84 132//132 88//88
f 85//85 89//89 86//86
f 85//85 133//133 89//89
f 86//86 89//89 90//90
f 86//86 90//90 134//134
f 87//87 88//88 92//92
f 87//87 91//91 131//131
f 87//87 92//92 91//91
f 88//88 132//132 92//92
f 89//89 93//93 90//90
f 89//89 133//133 93//93
f 90//90 93//93 94//94
f 90//90 94//94 134//134
f 91//91 92//92 96//96
f 91//91 95//95 131//131
f 91//91 96//96 95//95
f 92//92 132//132 96//96
f 93//93 97//97 98//98
f 93//93 98//98 94//94
f 93//93 133//133 97//97
f 94//94 98//98 134//134
f 95//95 96//96 100//100
f 95//95 99//99 131//131
f 95//95 100//100 99//99
f 96//96 132//132 100//100
f 97//97 101//101 98//98
f 97//97 133//133 101//101
f 98//98 101//101 102//102
f 98//98 102//102 134//134
f 99//99 100//100 104//104
f 99//99 103//103 131//131
f 99//99 104//104 103//103
f 100//100 132//132 104//104
f 101//101 105//105 106//106
f 101//101 106//106 102//102
f 101//101 133//133 105//105
f 102//102 106//106 134//134
f 103//103 104//104 108//108
f 103//103 107//107 131//131
f 103//103 108//108 107//107
f 104//104 132//132 108//108
f 105//105 109//109 106//106
f 105//105 133//133 109//109
f 106//106 109//109 110//110
f 106//106 110//110 134//134
f 107//107 108//108 112//112
f 107//107 111//111 131//131
f 107//107 112//112 111//111
f 108//108 132//132 112//112
f 109//109 113//113 110//110
f 109//109 133//133 113//113
f 110//110 113//113 114//114
f 110//110 114//114 134//134
f 111//111 112//112 116//116
f 111//111 115//115 131//131
f 111//111 116//116 115//115
f 112//112 132//132 116//116
f 113//113 117//117 118//118
f 113//113 118//118 114//114
f 113//113 133//133 117//117
f 114//114 118//118 134//134
f 115//115 116//116 119//119
f 115//115 119//119 131//131
f 116//116 120//120 119//119
f 116//116 132//132 120//120
f 117//117 121//121 118//118
f 117//117 133//133 121//121
f 118//118 121//121 122//122
f 118//118 122//122 134//134
f 119//119 120//120 124//124
f 119//119 123//123 131//131
f 119//119 124//124 123//123
f 120//120 132//132 124//124
f 121//121 125//125 122//122
f 121//121 133//133 125//125
f 122//122 125//125 126//126
f 122//122 126//126 134//134
f 123//123 124//124 127//127
f 123//123 127//127 131//131
f 124//124 128//128 127//127
f 124//124 132//132 128//128
f 125//125 129//129 130//130
f 125//125 130//130 126//126
f 125//125 133//133 129//129
f 126//126 130//130 134//134
f 127//127 128//128 130//130
f 127//127 129//129 133//133
f 127//127 130//130 129//129
f 127//127 133//133 131//131
f 128//128 132//132 134//134
f 128//128 134//134 130//130
f 131//131 133//133 134//134
f 131//131 134//134 132//132
