ISO-10303-21;
HEADER;
FILE_DESCRIPTION(('Open CASCADE Model'),'2;1');
FILE_NAME('model','1970-01-01T00:00:00',('Author'),(
    'Open CASCADE'),'Open CASCADE STEP processor 7.9','Open CASCADE 7.9'
  ,'Unknown');
FILE_SCHEMA(('AUTOMOTIVE_DESIGN { 1 0 10303 214 1 1 1 1 }'));
ENDSEC;
DATA;
#1 = APPLICATION_PROTOCOL_DEFINITION('international standard',
  'automotive_design',2000,#2);
#2 = APPLICATION_CONTEXT(
  'core data for automotive mechanical design processes');
#3 = SHAPE_DEFINITION_REPRESENTATION(#4,#10);
#4 = PRODUCT_DEFINITION_SHAPE('','',#5);
#5 = PRODUCT_DEFINITION('design','',#6,#9);
#6 = PRODUCT_DEFINITION_FORMATION('','',#7);
#7 = PRODUCT('Open CASCADE STEP translator 7.9 1',
  'Open CASCADE STEP translator 7.9 1','',(#8));
#8 = PRODUCT_CONTEXT('',#2,'mechanical');
#9 = PRODUCT_DEFINITION_CONTEXT('part definition',#2,'design');
#10 = ADVANCED_BREP_SHAPE_REPRESENTATION('',(#11,#15),#1015);
#11 = AXIS2_PLACEMENT_3D('',#12,#13,#14);
#12 = CARTESIAN_POINT('',(0.,0.,0.));
#13 = DIRECTION('',(0.,0.,1.));
#14 = DIRECTION('',(1.,0.,-0.));
#15 = MANIFOLD_SOLID_BREP('',#16);
#16 = CLOSED_SHELL('',(#17,#487,#526,#717,#751,#961));
#17 = ADVANCED_FACE('',(#18,#316),#31,.T.);
#18 = FACE_BOUND('',#19,.F.);
#19 = EDGE_LOOP('',(#20,#54,#77,#174,#197,#224,#225,#315));
#20 = ORIENTED_EDGE('',*,*,#21,.F.);
#21 = EDGE_CURVE('',#22,#22,#24,.T.);
#22 = VERTEX_POINT('',#23);
#23 = CARTESIAN_POINT('',(18.,0.,0.));
#24 = SURFACE_CURVE('',#25,(#30,#42),.PCURVE_S1.);
#25 = CIRCLE('',#26,18.);
#26 = AXIS2_PLACEMENT_3D('',#27,#28,#29);
#27 = CARTESIAN_POINT('',(0.,0.,0.));
#28 = DIRECTION('',(0.,0.,1.));
#29 = DIRECTION('',(1.,0.,0.));
#30 = PCURVE('',#31,#36);
#31 = CYLINDRICAL_SURFACE('',#32,18.);
#32 = AXIS2_PLACEMENT_3D('',#33,#34,#35);
#33 = CARTESIAN_POINT('',(0.,0.,0.));
#34 = DIRECTION('',(-0.,-0.,-1.));
#35 = DIRECTION('',(1.,0.,0.));
#36 = DEFINITIONAL_REPRESENTATION('',(#37),#41);
#37 = LINE('',#38,#39);
#38 = CARTESIAN_POINT('',(-0.,0.));
#39 = VECTOR('',#40,1.);
#40 = DIRECTION('',(-1.,0.));
#41 = ( GEOMETRIC_REPRESENTATION_CONTEXT(2)
PARAMETRIC_REPRESENTATION_CONTEXT() REPRESENTATION_CONTEXT('2D SPACE',''
  ) );
#42 = PCURVE('',#43,#48);
#43 = PLANE('',#44);
#44 = AXIS2_PLACEMENT_3D('',#45,#46,#47);
#45 = CARTESIAN_POINT('',(-6.077511700175E-16,4.807142605466E-16,0.));
#46 = DIRECTION('',(0.,0.,1.));
#47 = DIRECTION('',(1.,0.,-0.));
#48 = DEFINITIONAL_REPRESENTATION('',(#49),#53);
#49 = CIRCLE('',#50,18.);
#50 = AXIS2_PLACEMENT_2D('',#51,#52);
#51 = CARTESIAN_POINT('',(6.077511700175E-16,-4.807142605466E-16));
#52 = DIRECTION('',(1.,0.));
#53 = ( GEOMETRIC_REPRESENTATION_CONTEXT(2)
PARAMETRIC_REPRESENTATION_CONTEXT() REPRESENTATION_CONTEXT('2D SPACE',''
  ) );
#54 = ORIENTED_EDGE('',*,*,#55,.T.);
#55 = EDGE_CURVE('',#22,#56,#58,.T.);
#56 = VERTEX_POINT('',#57);
#57 = CARTESIAN_POINT('',(18.,3.061616997868E-16,5.5));
#58 = SEAM_CURVE('',#59,(#63,#70),.PCURVE_S1.);
#59 = LINE('',#60,#61);
#60 = CARTESIAN_POINT('',(18.,0.,0.));
#61 = VECTOR('',#62,1.);
#62 = DIRECTION('',(0.,0.,1.));
#63 = PCURVE('',#31,#64);
#64 = DEFINITIONAL_REPRESENTATION('',(#65),#69);
#65 = LINE('',#66,#67);
#66 = CARTESIAN_POINT('',(-6.28318530718,0.));
#67 = VECTOR('',#68,1.);
#68 = DIRECTION('',(-0.,-1.));
#69 = ( GEOMETRIC_REPRESENTATION_CONTEXT(2)
PARAMETRIC_REPRESENTATION_CONTEXT() REPRESENTATION_CONTEXT('2D SPACE',''
  ) );
#70 = PCURVE('',#31,#71);
#71 = DEFINITIONAL_REPRESENTATION('',(#72),#76);
#72 = LINE('',#73,#74);
#73 = CARTESIAN_POINT('',(-0.,0.));
#74 = VECTOR('',#75,1.);
#75 = DIRECTION('',(-0.,-1.));
#76 = ( GEOMETRIC_REPRESENTATION_CONTEXT(2)
PARAMETRIC_REPRESENTATION_CONTEXT() REPRESENTATION_CONTEXT('2D SPACE',''
  ) );
#77 = ORIENTED_EDGE('',*,*,#78,.F.);
#78 = EDGE_CURVE('',#79,#56,#81,.T.);
#79 = VERTEX_POINT('',#80);
#80 = CARTESIAN_POINT('',(18.,0.,10.5));
#81 = SURFACE_CURVE('',#82,(#109,#139),.PCURVE_S1.);
#82 = B_SPLINE_CURVE_WITH_KNOTS('',7,(#83,#84,#85,#86,#87,#88,#89,#90,
    #91,#92,#93,#94,#95,#96,#97,#98,#99,#100,#101,#102,#103,#104,#105,
    #106,#107,#108),.UNSPECIFIED.,.F.,.F.,(8,6,6,6,8),(0.,0.23431460394,
    0.500045171702,0.765775739465,1.),.UNSPECIFIED.);
#83 = CARTESIAN_POINT('',(18.,9.571421747317E-16,10.5));
#84 = CARTESIAN_POINT('',(18.,0.319653624214,10.5));
#85 = CARTESIAN_POINT('',(17.993377208958,0.630927004563,10.452317211879
    ));
#86 = CARTESIAN_POINT('',(17.980757541457,0.925423054355,10.36144852579)
  );
#87 = CARTESIAN_POINT('',(17.963766659753,1.196105645877,10.233515059371
    ));
#88 = CARTESIAN_POINT('',(17.944635716666,1.437573992555,10.076196103525
    ));
#89 = CARTESIAN_POINT('',(17.925403721167,1.646557039872,9.898644466417)
  );
#90 = CARTESIAN_POINT('',(17.88720912972,2.02186530902,9.498981752995));
#91 = CARTESIAN_POINT('',(17.868041381497,2.184482574921,9.267945677806)
  );
#92 = CARTESIAN_POINT('',(17.851551547276,2.31204212767,9.02466790429));
#93 = CARTESIAN_POINT('',(17.838680346132,2.406332701131,8.773449428187)
  );
#94 = CARTESIAN_POINT('',(17.829927981327,2.468737127627,8.517369259165)
  );
#95 = CARTESIAN_POINT('',(17.825543469976,2.5,8.258831617667));
#96 = CARTESIAN_POINT('',(17.825543469976,2.5,7.741168382333));
#97 = CARTESIAN_POINT('',(17.829927981327,2.468737127627,7.482630740835)
  );
#98 = CARTESIAN_POINT('',(17.838680346132,2.406332701131,7.226550571812)
  );
#99 = CARTESIAN_POINT('',(17.851551547276,2.31204212767,6.97533209571));
#100 = CARTESIAN_POINT('',(17.868041381497,2.184482574921,6.732054322194
    ));
#101 = CARTESIAN_POINT('',(17.88720912972,2.02186530902,6.501018247005)
  );
#102 = CARTESIAN_POINT('',(17.925396820532,1.646624847,6.10142774084));
#103 = CARTESIAN_POINT('',(17.94463111154,1.437634649228,5.923833745673)
  );
#104 = CARTESIAN_POINT('',(17.963769728287,1.196096274264,5.766452341138
    ));
#105 = CARTESIAN_POINT('',(17.980766136196,0.925319810327,5.638489759724
    ));
#106 = CARTESIAN_POINT('',(17.993383161024,0.63076031081,5.547639897474)
  );
#107 = CARTESIAN_POINT('',(18.,0.319509870172,5.5));
#108 = CARTESIAN_POINT('',(18.,1.416384724412E-15,5.5));
#109 = PCURVE('',#31,#110);
#110 = DEFINITIONAL_REPRESENTATION('',(#111),#138);
#111 = B_SPLINE_CURVE_WITH_KNOTS('',7,(#112,#113,#114,#115,#116,#117,
    #118,#119,#120,#121,#122,#123,#124,#125,#126,#127,#128,#129,#130,
    #131,#132,#133,#134,#135,#136,#137),.UNSPECIFIED.,.F.,.F.,(8,6,6,6,8
    ),(0.,0.23431460394,0.500045171702,0.765775739465,1.),
  .UNSPECIFIED.);
#112 = CARTESIAN_POINT('',(0.,-10.5));
#113 = CARTESIAN_POINT('',(-1.775853467856E-02,-10.5));
#114 = CARTESIAN_POINT('',(-3.505150943034E-02,-10.45231721188));
#115 = CARTESIAN_POINT('',(-5.14214972245E-02,-10.36144852578));
#116 = CARTESIAN_POINT('',(-6.648485520108E-02,-10.23351505937));
#117 = CARTESIAN_POINT('',(-7.994002511965E-02,-10.07619610352));
#118 = CARTESIAN_POINT('',(-9.159870251587E-02,-9.898644466417));
#119 = CARTESIAN_POINT('',(-0.112556856275,-9.498981752995));
#120 = CARTESIAN_POINT('',(-0.121652540187,-9.267945677806));
#121 = CARTESIAN_POINT('',(-0.128797772391,-9.02466790429));
#122 = CARTESIAN_POINT('',(-0.134084668465,-8.773449428187));
#123 = CARTESIAN_POINT('',(-0.137585517497,-8.517369259165));
#124 = CARTESIAN_POINT('',(-0.139339340758,-8.258831617667));
#125 = CARTESIAN_POINT('',(-0.139339340758,-7.741168382333));
#126 = CARTESIAN_POINT('',(-0.137585517497,-7.482630740835));
#127 = CARTESIAN_POINT('',(-0.134084668465,-7.226550571812));
#128 = CARTESIAN_POINT('',(-0.128797772391,-6.975332095711));
#129 = CARTESIAN_POINT('',(-0.121652540187,-6.732054322194));
#130 = CARTESIAN_POINT('',(-0.112556856275,-6.501018247005));
#131 = CARTESIAN_POINT('',(-9.160248903572E-02,-6.10142774084));
#132 = CARTESIAN_POINT('',(-7.994340374853E-02,-5.923833745672));
#133 = CARTESIAN_POINT('',(-6.648432078666E-02,-5.766452341139));
#134 = CARTESIAN_POINT('',(-5.14157480972E-02,-5.638489759724));
#135 = CARTESIAN_POINT('',(-3.504224888313E-02,-5.547639897474));
#136 = CARTESIAN_POINT('',(-1.775054834288E-02,-5.5));
#137 = CARTESIAN_POINT('',(0.,-5.5));
#138 = ( GEOMETRIC_REPRESENTATION_CONTEXT(2)
PARAMETRIC_REPRESENTATION_CONTEXT() REPRESENTATION_CONTEXT('2D SPACE',''
  ) );
#139 = PCURVE('',#140,#145);
#140 = CYLINDRICAL_SURFACE('',#141,2.5);
#141 = AXIS2_PLACEMENT_3D('',#142,#143,#144);
#142 = CARTESIAN_POINT('',(20.669962312909,0.,8.));
#143 = DIRECTION('',(-1.,0.,0.));
#144 = DIRECTION('',(0.,0.,-1.));
#145 = DEFINITIONAL_REPRESENTATION('',(#146),#173);
#146 = B_SPLINE_CURVE_WITH_KNOTS('',7,(#147,#148,#149,#150,#151,#152,
    #153,#154,#155,#156,#157,#158,#159,#160,#161,#162,#163,#164,#165,
    #166,#167,#168,#169,#170,#171,#172),.UNSPECIFIED.,.F.,.F.,(8,6,6,6,8
    ),(0.,0.23431460394,0.500045171702,0.765775739465,1.),
  .UNSPECIFIED.);
#147 = CARTESIAN_POINT('',(3.14159265359,2.669962312909));
#148 = CARTESIAN_POINT('',(3.269454103275,2.669962312909));
#149 = CARTESIAN_POINT('',(3.393963338256,2.676585103951));
#150 = CARTESIAN_POINT('',(3.515176469625,2.689204771452));
#151 = CARTESIAN_POINT('',(3.632886137682,2.706195653156));
#152 = CARTESIAN_POINT('',(3.746648773213,2.725326596243));
#153 = CARTESIAN_POINT('',(3.855644185821,2.744558591742));
#154 = CARTESIAN_POINT('',(4.074947293466,2.782753183189));
#155 = CARTESIAN_POINT('',(4.186842375853,2.801920931413));
#156 = CARTESIAN_POINT('',(4.295291299232,2.818410765634));
#157 = CARTESIAN_POINT('',(4.401195611063,2.831281966777));
#158 = CARTESIAN_POINT('',(4.505441549341,2.840034331583));
#159 = CARTESIAN_POINT('',(4.608856333318,2.844418842933));
#160 = CARTESIAN_POINT('',(4.815921627452,2.844418842933));
#161 = CARTESIAN_POINT('',(4.919336411429,2.840034331583));
#162 = CARTESIAN_POINT('',(5.023582349706,2.831281966777));
#163 = CARTESIAN_POINT('',(5.129486661537,2.818410765634));
#164 = CARTESIAN_POINT('',(5.237935584917,2.801920931413));
#165 = CARTESIAN_POINT('',(5.349830667304,2.782753183189));
#166 = CARTESIAN_POINT('',(5.569094153349,2.744565492377));
#167 = CARTESIAN_POINT('',(5.678103885875,2.72533120137));
#168 = CARTESIAN_POINT('',(5.791901792489,2.706192584622));
#169 = CARTESIAN_POINT('',(5.909647338793,2.689196176713));
#170 = CARTESIAN_POINT('',(6.03088131139,2.676579151885));
#171 = CARTESIAN_POINT('',(6.155381359111,2.669962312909));
#172 = CARTESIAN_POINT('',(6.28318530718,2.669962312909));
#173 = ( GEOMETRIC_REPRESENTATION_CONTEXT(2)
PARAMETRIC_REPRESENTATION_CONTEXT() REPRESENTATION_CONTEXT('2D SPACE',''
  ) );
#174 = ORIENTED_EDGE('',*,*,#175,.T.);
#175 = EDGE_CURVE('',#79,#176,#178,.T.);
#176 = VERTEX_POINT('',#177);
#177 = CARTESIAN_POINT('',(18.,0.,16.));
#178 = SEAM_CURVE('',#179,(#183,#190),.PCURVE_S1.);
#179 = LINE('',#180,#181);
#180 = CARTESIAN_POINT('',(18.,0.,0.));
#181 = VECTOR('',#182,1.);
#182 = DIRECTION('',(0.,0.,1.));
#183 = PCURVE('',#31,#184);
#184 = DEFINITIONAL_REPRESENTATION('',(#185),#189);
#185 = LINE('',#186,#187);
#186 = CARTESIAN_POINT('',(-6.28318530718,0.));
#187 = VECTOR('',#188,1.);
#188 = DIRECTION('',(-0.,-1.));
#189 = ( GEOMETRIC_REPRESENTATION_CONTEXT(2)
PARAMETRIC_REPRESENTATION_CONTEXT() REPRESENTATION_CONTEXT('2D SPACE',''
  ) );
#190 = PCURVE('',#31,#191);
#191 = DEFINITIONAL_REPRESENTATION('',(#192),#196);
#192 = LINE('',#193,#194);
#193 = CARTESIAN_POINT('',(-0.,0.));
#194 = VECTOR('',#195,1.);
#195 = DIRECTION('',(-0.,-1.));
#196 = ( GEOMETRIC_REPRESENTATION_CONTEXT(2)
PARAMETRIC_REPRESENTATION_CONTEXT() REPRESENTATION_CONTEXT('2D SPACE',''
  ) );
#197 = ORIENTED_EDGE('',*,*,#198,.T.);
#198 = EDGE_CURVE('',#176,#176,#199,.T.);
#199 = SURFACE_CURVE('',#200,(#205,#212),.PCURVE_S1.);
#200 = CIRCLE('',#201,18.);
#201 = AXIS2_PLACEMENT_3D('',#202,#203,#204);
#202 = CARTESIAN_POINT('',(0.,0.,16.));
#203 = DIRECTION('',(0.,0.,1.));
#204 = DIRECTION('',(1.,0.,0.));
#205 = PCURVE('',#31,#206);
#206 = DEFINITIONAL_REPRESENTATION('',(#207),#211);
#207 = LINE('',#208,#209);
#208 = CARTESIAN_POINT('',(-0.,-16.));
#209 = VECTOR('',#210,1.);
#210 = DIRECTION('',(-1.,0.));
#211 = ( GEOMETRIC_REPRESENTATION_CONTEXT(2)
PARAMETRIC_REPRESENTATION_CONTEXT() REPRESENTATION_CONTEXT('2D SPACE',''
  ) );
#212 = PCURVE('',#213,#218);
#213 = PLANE('',#214);
#214 = AXIS2_PLACEMENT_3D('',#215,#216,#217);
#215 = CARTESIAN_POINT('',(-6.077511700175E-16,4.807142605466E-16,16.));
#216 = DIRECTION('',(0.,0.,1.));
#217 = DIRECTION('',(1.,0.,-0.));
#218 = DEFINITIONAL_REPRESENTATION('',(#219),#223);
#219 = CIRCLE('',#220,18.);
#220 = AXIS2_PLACEMENT_2D('',#221,#222);
#221 = CARTESIAN_POINT('',(6.077511700175E-16,-4.807142605466E-16));
#222 = DIRECTION('',(1.,0.));
#223 = ( GEOMETRIC_REPRESENTATION_CONTEXT(2)
PARAMETRIC_REPRESENTATION_CONTEXT() REPRESENTATION_CONTEXT('2D SPACE',''
  ) );
#224 = ORIENTED_EDGE('',*,*,#175,.F.);
#225 = ORIENTED_EDGE('',*,*,#226,.F.);
#226 = EDGE_CURVE('',#56,#79,#227,.T.);
#227 = SURFACE_CURVE('',#228,(#255,#285),.PCURVE_S1.);
#228 = B_SPLINE_CURVE_WITH_KNOTS('',7,(#229,#230,#231,#232,#233,#234,
    #235,#236,#237,#238,#239,#240,#241,#242,#243,#244,#245,#246,#247,
    #248,#249,#250,#251,#252,#253,#254),.UNSPECIFIED.,.F.,.F.,(8,6,6,6,8
    ),(0.,0.234310342196,0.500033185045,0.765775664416,1.),
  .UNSPECIFIED.);
#229 = CARTESIAN_POINT('',(18.,-8.881784197001E-16,5.5));
#230 = CARTESIAN_POINT('',(18.,-0.319653624218,5.5));
#231 = CARTESIAN_POINT('',(17.993377208958,-0.630927004559,
    5.547682788121));
#232 = CARTESIAN_POINT('',(17.980757541458,-0.925423054354,
    5.638551474209));
#233 = CARTESIAN_POINT('',(17.963766659753,-1.196105645879,
    5.766484940627));
#234 = CARTESIAN_POINT('',(17.944635716666,-1.437573992558,
    5.923803896479));
#235 = CARTESIAN_POINT('',(17.925403721168,-1.64655703987,6.10135553358)
  );
#236 = CARTESIAN_POINT('',(17.887209350604,-2.021863138567,
    6.501015935707));
#237 = CARTESIAN_POINT('',(17.86804178702,-2.184479133402,6.732049317569
    ));
#238 = CARTESIAN_POINT('',(17.851551621693,-2.312042495059,
    6.975329290575));
#239 = CARTESIAN_POINT('',(17.83867966979,-2.406337402478,7.226556735356
    ));
#240 = CARTESIAN_POINT('',(17.829927351896,-2.468741660204,
    7.482647519693));
#241 = CARTESIAN_POINT('',(17.825543469976,-2.5,7.741187508191));
#242 = CARTESIAN_POINT('',(17.825543469976,-2.5,8.258831617667));
#243 = CARTESIAN_POINT('',(17.829927981327,-2.468737127627,
    8.517369259166));
#244 = CARTESIAN_POINT('',(17.838680346132,-2.406332701131,
    8.773449428187));
#245 = CARTESIAN_POINT('',(17.851551547276,-2.31204212767,9.02466790429)
  );
#246 = CARTESIAN_POINT('',(17.868041381497,-2.184482574922,
    9.267945677806));
#247 = CARTESIAN_POINT('',(17.88720912972,-2.02186530902,9.498981752995)
  );
#248 = CARTESIAN_POINT('',(17.925396024339,-1.646632670566,
    9.898563927909));
#249 = CARTESIAN_POINT('',(17.944629852261,-1.437648772103,
    10.076155197407));
#250 = CARTESIAN_POINT('',(17.963768860433,-1.196110182482,
    10.233542167943));
#251 = CARTESIAN_POINT('',(17.980766431194,-0.925323689205,
    10.361512632818));
#252 = CARTESIAN_POINT('',(17.993383858104,-0.630750239005,
    10.452365014734));
#253 = CARTESIAN_POINT('',(18.,-0.319493191613,10.5));
#254 = CARTESIAN_POINT('',(18.,-1.33226762955E-15,10.5));
#255 = PCURVE('',#31,#256);
#256 = DEFINITIONAL_REPRESENTATION('',(#257),#284);
#257 = B_SPLINE_CURVE_WITH_KNOTS('',7,(#258,#259,#260,#261,#262,#263,
    #264,#265,#266,#267,#268,#269,#270,#271,#272,#273,#274,#275,#276,
    #277,#278,#279,#280,#281,#282,#283),.UNSPECIFIED.,.F.,.F.,(8,6,6,6,8
    ),(0.,0.234310342196,0.500033185045,0.765775664416,1.),
  .UNSPECIFIED.);
#258 = CARTESIAN_POINT('',(-6.28318530718,-5.5));
#259 = CARTESIAN_POINT('',(-6.265426772501,-5.5));
#260 = CARTESIAN_POINT('',(-6.248133797749,-5.547682788121));
#261 = CARTESIAN_POINT('',(-6.231763809955,-5.638551474209));
#262 = CARTESIAN_POINT('',(-6.216700451978,-5.766484940627));
#263 = CARTESIAN_POINT('',(-6.20324528206,-5.923803896479));
#264 = CARTESIAN_POINT('',(-6.191586604664,-6.10135553358));
#265 = CARTESIAN_POINT('',(-6.170628572109,-6.501015935707));
#266 = CARTESIAN_POINT('',(-6.161532959428,-6.732049317569));
#267 = CARTESIAN_POINT('',(-6.154387515186,-6.975329290575));
#268 = CARTESIAN_POINT('',(-6.149100374765,-7.226556735356));
#269 = CARTESIAN_POINT('',(-6.145599535498,-7.482647519693));
#270 = CARTESIAN_POINT('',(-6.143845966422,-7.741187508191));
#271 = CARTESIAN_POINT('',(-6.143845966422,-8.258831617667));
#272 = CARTESIAN_POINT('',(-6.145599789683,-8.517369259166));
#273 = CARTESIAN_POINT('',(-6.149100638714,-8.773449428187));
#274 = CARTESIAN_POINT('',(-6.154387534789,-9.02466790429));
#275 = CARTESIAN_POINT('',(-6.161532766993,-9.267945677806));
#276 = CARTESIAN_POINT('',(-6.170628450905,-9.498981752995));
#277 = CARTESIAN_POINT('',(-6.191582381256,-9.898563927909));
#278 = CARTESIAN_POINT('',(-6.203241115479,-10.0761551974));
#279 = CARTESIAN_POINT('',(-6.216700213529,-10.23354216794));
#280 = CARTESIAN_POINT('',(-6.231769344147,-10.36151263281));
#281 = CARTESIAN_POINT('',(-6.248143618365,-10.45236501473));
#282 = CARTESIAN_POINT('',(-6.265435685423,-10.5));
#283 = CARTESIAN_POINT('',(-6.28318530718,-10.5));
#284 = ( GEOMETRIC_REPRESENTATION_CONTEXT(2)
PARAMETRIC_REPRESENTATION_CONTEXT() REPRESENTATION_CONTEXT('2D SPACE',''
  ) );
#285 = PCURVE('',#140,#286);
#286 = DEFINITIONAL_REPRESENTATION('',(#287),#314);
#287 = B_SPLINE_CURVE_WITH_KNOTS('',7,(#288,#289,#290,#291,#292,#293,
    #294,#295,#296,#297,#298,#299,#300,#301,#302,#303,#304,#305,#306,
    #307,#308,#309,#310,#311,#312,#313),.UNSPECIFIED.,.F.,.F.,(8,6,6,6,8
    ),(0.,0.234310342196,0.500033185045,0.765775664416,1.),
  .UNSPECIFIED.);
#288 = CARTESIAN_POINT('',(-8.881784197001E-16,2.669962312909));
#289 = CARTESIAN_POINT('',(0.127861449687,2.669962312909));
#290 = CARTESIAN_POINT('',(0.252370684665,2.676585103951));
#291 = CARTESIAN_POINT('',(0.373583816034,2.689204771452));
#292 = CARTESIAN_POINT('',(0.491293484093,2.706195653156));
#293 = CARTESIAN_POINT('',(0.605056119625,2.725326596243));
#294 = CARTESIAN_POINT('',(0.71405153223,2.744558591742));
#295 = CARTESIAN_POINT('',(0.93335337162,2.782752962305));
#296 = CARTESIAN_POINT('',(1.045247331902,2.80192052589));
#297 = CARTESIAN_POINT('',(1.153697797367,2.818410691216));
#298 = CARTESIAN_POINT('',(1.259605861714,2.831282643119));
#299 = CARTESIAN_POINT('',(1.363855580895,2.840034961013));
#300 = CARTESIAN_POINT('',(1.467271330071,2.844418842933));
#301 = CARTESIAN_POINT('',(1.674328973862,2.844418842933));
#302 = CARTESIAN_POINT('',(1.777743757839,2.840034331583));
#303 = CARTESIAN_POINT('',(1.881989696116,2.831281966777));
#304 = CARTESIAN_POINT('',(1.987894007947,2.818410765634));
#305 = CARTESIAN_POINT('',(2.096342931327,2.801920931413));
#306 = CARTESIAN_POINT('',(2.208238013714,2.782753183189));
#307 = CARTESIAN_POINT('',(2.427496928231,2.744566288571));
#308 = CARTESIAN_POINT('',(2.53650414983,2.725332460649));
#309 = CARTESIAN_POINT('',(2.650303460449,2.706193452476));
#310 = CARTESIAN_POINT('',(2.768053664132,2.689195881715));
#311 = CARTESIAN_POINT('',(2.889292680913,2.676578454806));
#312 = CARTESIAN_POINT('',(3.013795376945,2.669962312909));
#313 = CARTESIAN_POINT('',(3.14159265359,2.669962312909));
#314 = ( GEOMETRIC_REPRESENTATION_CONTEXT(2)
PARAMETRIC_REPRESENTATION_CONTEXT() REPRESENTATION_CONTEXT('2D SPACE',''
  ) );
#315 = ORIENTED_EDGE('',*,*,#55,.F.);
#316 = FACE_BOUND('',#317,.F.);
#317 = EDGE_LOOP('',(#318));
#318 = ORIENTED_EDGE('',*,*,#319,.T.);
#319 = EDGE_CURVE('',#320,#320,#322,.T.);
#320 = VERTEX_POINT('',#321);
#321 = CARTESIAN_POINT('',(-18.,6.123233995737E-16,5.5));
#322 = SURFACE_CURVE('',#323,(#374,#428),.PCURVE_S1.);
#323 = B_SPLINE_CURVE_WITH_KNOTS('',7,(#324,#325,#326,#327,#328,#329,
    #330,#331,#332,#333,#334,#335,#336,#337,#338,#339,#340,#341,#342,
    #343,#344,#345,#346,#347,#348,#349,#350,#351,#352,#353,#354,#355,
    #356,#357,#358,#359,#360,#361,#362,#363,#364,#365,#366,#367,#368,
    #369,#370,#371,#372,#373),.UNSPECIFIED.,.T.,.F.,(8,6,6,6,6,6,6,6,8),
  (0.,0.117148334956,0.250002003746,0.382865490224,0.499970824365,
    0.617134962622,0.750007999373,0.882881036123,1.),.UNSPECIFIED.);
#324 = CARTESIAN_POINT('',(-18.,2.6645352591E-15,5.5));
#325 = CARTESIAN_POINT('',(-18.,-0.319653624244,5.5));
#326 = CARTESIAN_POINT('',(-17.99337720895,-0.630927004533,
    5.547682788129));
#327 = CARTESIAN_POINT('',(-17.98075754146,-0.925423054335,
    5.638551474192));
#328 = CARTESIAN_POINT('',(-17.96376665975,-1.1961056459,5.766484940627)
  );
#329 = CARTESIAN_POINT('',(-17.94463571666,-1.437573992575,
    5.923803896506));
#330 = CARTESIAN_POINT('',(-17.92540372116,-1.646557039852,
    6.101355533561));
#331 = CARTESIAN_POINT('',(-17.8872093506,-2.021863138567,6.501015935708
    ));
#332 = CARTESIAN_POINT('',(-17.86804178702,-2.184479133402,
    6.732049317568));
#333 = CARTESIAN_POINT('',(-17.85155162169,-2.31204249506,6.975329290575
    ));
#334 = CARTESIAN_POINT('',(-17.83867966979,-2.406337402478,
    7.226556735356));
#335 = CARTESIAN_POINT('',(-17.82992735189,-2.468741660204,
    7.482647519693));
#336 = CARTESIAN_POINT('',(-17.82554346997,-2.5,7.741187508191));
#337 = CARTESIAN_POINT('',(-17.82554346997,-2.5,8.258831617667));
#338 = CARTESIAN_POINT('',(-17.82992798132,-2.468737127627,
    8.517369259165));
#339 = CARTESIAN_POINT('',(-17.83868034613,-2.406332701131,
    8.773449428187));
#340 = CARTESIAN_POINT('',(-17.85155154727,-2.31204212767,9.02466790429)
  );
#341 = CARTESIAN_POINT('',(-17.86804138149,-2.184482574921,
    9.267945677806));
#342 = CARTESIAN_POINT('',(-17.88720912972,-2.02186530902,9.498981752995
    ));
#343 = CARTESIAN_POINT('',(-17.92539602433,-1.646632670576,
    9.898563927898));
#344 = CARTESIAN_POINT('',(-17.94462985226,-1.437648772094,
    10.076155197422));
#345 = CARTESIAN_POINT('',(-17.96376886043,-1.196110182471,
    10.233542167943));
#346 = CARTESIAN_POINT('',(-17.98076643119,-0.925323689215,
    10.361512632808));
#347 = CARTESIAN_POINT('',(-17.9933838581,-0.630750239019,
    10.452365014738));
#348 = CARTESIAN_POINT('',(-18.,-0.319493191599,10.5));
#349 = CARTESIAN_POINT('',(-18.,0.319653624214,10.5));
#350 = CARTESIAN_POINT('',(-17.99337720895,0.630927004563,10.45231721188
    ));
#351 = CARTESIAN_POINT('',(-17.98075754145,0.925423054356,
    10.361448525789));
#352 = CARTESIAN_POINT('',(-17.96376665975,1.196105645877,
    10.233515059372));
#353 = CARTESIAN_POINT('',(-17.94463571666,1.437573992556,
    10.076196103524));
#354 = CARTESIAN_POINT('',(-17.92540372116,1.646557039872,9.898644466417
    ));
#355 = CARTESIAN_POINT('',(-17.88720912972,2.02186530902,9.498981752995)
  );
#356 = CARTESIAN_POINT('',(-17.86804138149,2.184482574921,9.267945677806
    ));
#357 = CARTESIAN_POINT('',(-17.85155154727,2.31204212767,9.024667904289)
  );
#358 = CARTESIAN_POINT('',(-17.83868034613,2.406332701131,8.773449428188
    ));
#359 = CARTESIAN_POINT('',(-17.82992798132,2.468737127627,8.517369259165
    ));
#360 = CARTESIAN_POINT('',(-17.82554346997,2.5,8.258831617667));
#361 = CARTESIAN_POINT('',(-17.82554346997,2.5,7.741168382333));
#362 = CARTESIAN_POINT('',(-17.82992798132,2.468737127627,7.482630740835
    ));
#363 = CARTESIAN_POINT('',(-17.83868034613,2.406332701132,7.226550571813
    ));
#364 = CARTESIAN_POINT('',(-17.85155154727,2.31204212767,6.97533209571)
  );
#365 = CARTESIAN_POINT('',(-17.86804138149,2.184482574922,6.732054322194
    ));
#366 = CARTESIAN_POINT('',(-17.88720912972,2.02186530902,6.501018247005)
  );
#367 = CARTESIAN_POINT('',(-17.92539682052,1.646624847063,6.101427740907
    ));
#368 = CARTESIAN_POINT('',(-17.94463111154,1.437634649183,5.923833745594
    ));
#369 = CARTESIAN_POINT('',(-17.96376972829,1.196096274192,5.76645234113)
  );
#370 = CARTESIAN_POINT('',(-17.98076613618,0.925319810366,5.63848975977)
  );
#371 = CARTESIAN_POINT('',(-17.99338316102,0.630760310885,5.547639897459
    ));
#372 = CARTESIAN_POINT('',(-18.,0.319509870116,5.5));
#373 = CARTESIAN_POINT('',(-18.,2.6645352591E-15,5.5));
#374 = PCURVE('',#31,#375);
#375 = DEFINITIONAL_REPRESENTATION('',(#376),#427);
#376 = B_SPLINE_CURVE_WITH_KNOTS('',7,(#377,#378,#379,#380,#381,#382,
    #383,#384,#385,#386,#387,#388,#389,#390,#391,#392,#393,#394,#395,
    #396,#397,#398,#399,#400,#401,#402,#403,#404,#405,#406,#407,#408,
    #409,#410,#411,#412,#413,#414,#415,#416,#417,#418,#419,#420,#421,
    #422,#423,#424,#425,#426),.UNSPECIFIED.,.T.,.F.,(8,6,6,6,6,6,6,6,8),
  (0.,0.117148334956,0.250002003746,0.382865490224,0.499970824365,
    0.617134962622,0.750007999373,0.882881036123,1.),.UNSPECIFIED.);
#377 = CARTESIAN_POINT('',(-3.14159265359,-5.5));
#378 = CARTESIAN_POINT('',(-3.15935118827,-5.5));
#379 = CARTESIAN_POINT('',(-3.176644163018,-5.547682788128));
#380 = CARTESIAN_POINT('',(-3.193014150813,-5.638551474192));
#381 = CARTESIAN_POINT('',(-3.208077508792,-5.766484940627));
#382 = CARTESIAN_POINT('',(-3.221532678711,-5.923803896506));
#383 = CARTESIAN_POINT('',(-3.233191356105,-6.101355533561));
#384 = CARTESIAN_POINT('',(-3.254149388661,-6.501015935708));
#385 = CARTESIAN_POINT('',(-3.263245001342,-6.732049317568));
#386 = CARTESIAN_POINT('',(-3.270390445583,-6.975329290575));
#387 = CARTESIAN_POINT('',(-3.275677586004,-7.226556735356));
#388 = CARTESIAN_POINT('',(-3.279178425271,-7.482647519693));
#389 = CARTESIAN_POINT('',(-3.280931994348,-7.741187508191));
#390 = CARTESIAN_POINT('',(-3.280931994348,-8.258831617667));
#391 = CARTESIAN_POINT('',(-3.279178171087,-8.517369259165));
#392 = CARTESIAN_POINT('',(-3.275677322055,-8.773449428188));
#393 = CARTESIAN_POINT('',(-3.27039042598,-9.02466790429));
#394 = CARTESIAN_POINT('',(-3.263245193776,-9.267945677806));
#395 = CARTESIAN_POINT('',(-3.254149509864,-9.498981752995));
#396 = CARTESIAN_POINT('',(-3.233195579514,-9.898563927898));
#397 = CARTESIAN_POINT('',(-3.22153684529,-10.07615519742));
#398 = CARTESIAN_POINT('',(-3.20807774724,-10.23354216794));
#399 = CARTESIAN_POINT('',(-3.193008616623,-10.3615126328));
#400 = CARTESIAN_POINT('',(-3.176634342405,-10.45236501473));
#401 = CARTESIAN_POINT('',(-3.159342275345,-10.5));
#402 = CARTESIAN_POINT('',(-3.123834118911,-10.5));
#403 = CARTESIAN_POINT('',(-3.106541144159,-10.45231721188));
#404 = CARTESIAN_POINT('',(-3.090171156365,-10.36144852578));
#405 = CARTESIAN_POINT('',(-3.075107798389,-10.23351505937));
#406 = CARTESIAN_POINT('',(-3.06165262847,-10.07619610352));
#407 = CARTESIAN_POINT('',(-3.049993951074,-9.898644466417));
#408 = CARTESIAN_POINT('',(-3.029035797315,-9.498981752995));
#409 = CARTESIAN_POINT('',(-3.019940113403,-9.267945677806));
#410 = CARTESIAN_POINT('',(-3.012794881199,-9.024667904289));
#411 = CARTESIAN_POINT('',(-3.007507985125,-8.773449428188));
#412 = CARTESIAN_POINT('',(-3.004007136093,-8.517369259165));
#413 = CARTESIAN_POINT('',(-3.002253312832,-8.258831617667));
#414 = CARTESIAN_POINT('',(-3.002253312832,-7.741168382333));
#415 = CARTESIAN_POINT('',(-3.004007136093,-7.482630740835));
#416 = CARTESIAN_POINT('',(-3.007507985125,-7.226550571812));
#417 = CARTESIAN_POINT('',(-3.012794881199,-6.97533209571));
#418 = CARTESIAN_POINT('',(-3.019940113403,-6.732054322194));
#419 = CARTESIAN_POINT('',(-3.029035797315,-6.501018247005));
#420 = CARTESIAN_POINT('',(-3.049990164551,-6.101427740907));
#421 = CARTESIAN_POINT('',(-3.061649249844,-5.923833745594));
#422 = CARTESIAN_POINT('',(-3.075108332807,-5.766452341129));
#423 = CARTESIAN_POINT('',(-3.09017690549,-5.638489759771));
#424 = CARTESIAN_POINT('',(-3.106550404703,-5.547639897459));
#425 = CARTESIAN_POINT('',(-3.12384210525,-5.5));
#426 = CARTESIAN_POINT('',(-3.14159265359,-5.5));
#427 = ( GEOMETRIC_REPRESENTATION_CONTEXT(2)
PARAMETRIC_REPRESENTATION_CONTEXT() REPRESENTATION_CONTEXT('2D SPACE',''
  ) );
#428 = PCURVE('',#429,#434);
#429 = CYLINDRICAL_SURFACE('',#430,2.5);
#430 = AXIS2_PLACEMENT_3D('',#431,#432,#433);
#431 = CARTESIAN_POINT('',(20.669962312909,0.,8.));
#432 = DIRECTION('',(-1.,0.,0.));
#433 = DIRECTION('',(0.,0.,-1.));
#434 = DEFINITIONAL_REPRESENTATION('',(#435),#486);
#435 = B_SPLINE_CURVE_WITH_KNOTS('',7,(#436,#437,#438,#439,#440,#441,
    #442,#443,#444,#445,#446,#447,#448,#449,#450,#451,#452,#453,#454,
    #455,#456,#457,#458,#459,#460,#461,#462,#463,#464,#465,#466,#467,
    #468,#469,#470,#471,#472,#473,#474,#475,#476,#477,#478,#479,#480,
    #481,#482,#483,#484,#485),.UNSPECIFIED.,.F.,.F.,(8,6,6,6,6,6,6,6,8),
  (0.,0.117148334956,0.250002003746,0.382865490224,0.499970824365,
    0.617134962622,0.750007999373,0.882881036123,1.),.UNSPECIFIED.);
#436 = CARTESIAN_POINT('',(-8.881784197001E-16,38.669962312909));
#437 = CARTESIAN_POINT('',(0.127861449697,38.669962312909));
#438 = CARTESIAN_POINT('',(0.252370684655,38.663339521866));
#439 = CARTESIAN_POINT('',(0.373583816028,38.65071985437));
#440 = CARTESIAN_POINT('',(0.491293484098,38.633728972661));
#441 = CARTESIAN_POINT('',(0.605056119638,38.614598029573));
#442 = CARTESIAN_POINT('',(0.71405153222,38.595366034079));
#443 = CARTESIAN_POINT('',(0.93335337162,38.557171663514));
#444 = CARTESIAN_POINT('',(1.045247331901,38.538004099929));
#445 = CARTESIAN_POINT('',(1.153697797368,38.521513934603));
#446 = CARTESIAN_POINT('',(1.259605861713,38.508641982699));
#447 = CARTESIAN_POINT('',(1.363855580896,38.499889664805));
#448 = CARTESIAN_POINT('',(1.467271330071,38.495505782885));
#449 = CARTESIAN_POINT('',(1.674328973862,38.495505782885));
#450 = CARTESIAN_POINT('',(1.777743757839,38.499890294236));
#451 = CARTESIAN_POINT('',(1.881989696116,38.508642659042));
#452 = CARTESIAN_POINT('',(1.987894007947,38.521513860185));
#453 = CARTESIAN_POINT('',(2.096342931327,38.538003694406));
#454 = CARTESIAN_POINT('',(2.208238013714,38.55717144263));
#455 = CARTESIAN_POINT('',(2.427496928225,38.595358337247));
#456 = CARTESIAN_POINT('',(2.536504149837,38.614592165171));
#457 = CARTESIAN_POINT('',(2.650303460451,38.633731173343));
#458 = CARTESIAN_POINT('',(2.768053664129,38.650728744102));
#459 = CARTESIAN_POINT('',(2.889292680907,38.663346171014));
#460 = CARTESIAN_POINT('',(3.01379537695,38.669962312909));
#461 = CARTESIAN_POINT('',(3.269454103275,38.669962312909));
#462 = CARTESIAN_POINT('',(3.393963338256,38.663339521868));
#463 = CARTESIAN_POINT('',(3.515176469625,38.650719854366));
#464 = CARTESIAN_POINT('',(3.632886137682,38.633728972663));
#465 = CARTESIAN_POINT('',(3.746648773213,38.614598029576));
#466 = CARTESIAN_POINT('',(3.855644185821,38.595366034077));
#467 = CARTESIAN_POINT('',(4.074947293466,38.55717144263));
#468 = CARTESIAN_POINT('',(4.186842375853,38.538003694406));
#469 = CARTESIAN_POINT('',(4.295291299232,38.521513860185));
#470 = CARTESIAN_POINT('',(4.401195611064,38.508642659042));
#471 = CARTESIAN_POINT('',(4.505441549341,38.499890294236));
#472 = CARTESIAN_POINT('',(4.608856333318,38.495505782885));
#473 = CARTESIAN_POINT('',(4.815921627452,38.495505782885));
#474 = CARTESIAN_POINT('',(4.919336411429,38.499890294236));
#475 = CARTESIAN_POINT('',(5.023582349706,38.508642659042));
#476 = CARTESIAN_POINT('',(5.129486661537,38.521513860185));
#477 = CARTESIAN_POINT('',(5.237935584917,38.538003694406));
#478 = CARTESIAN_POINT('',(5.349830667304,38.55717144263));
#479 = CARTESIAN_POINT('',(5.569094153312,38.595359133435));
#480 = CARTESIAN_POINT('',(5.67810388591,38.614593424455));
#481 = CARTESIAN_POINT('',(5.791901792508,38.633732041201));
#482 = CARTESIAN_POINT('',(5.909647338779,38.650728449098));
#483 = CARTESIAN_POINT('',(6.03088131136,38.663345473936));
#484 = CARTESIAN_POINT('',(6.155381359133,38.669962312909));
#485 = CARTESIAN_POINT('',(6.28318530718,38.669962312909));
#486 = ( GEOMETRIC_REPRESENTATION_CONTEXT(2)
PARAMETRIC_REPRESENTATION_CONTEXT() REPRESENTATION_CONTEXT('2D SPACE',''
  ) );
#487 = ADVANCED_FACE('',(#488,#491),#43,.F.);
#488 = FACE_BOUND('',#489,.F.);
#489 = EDGE_LOOP('',(#490));
#490 = ORIENTED_EDGE('',*,*,#21,.T.);
#491 = FACE_BOUND('',#492,.F.);
#492 = EDGE_LOOP('',(#493));
#493 = ORIENTED_EDGE('',*,*,#494,.T.);
#494 = EDGE_CURVE('',#495,#495,#497,.T.);
#495 = VERTEX_POINT('',#496);
#496 = CARTESIAN_POINT('',(-9.,-2.204364238465E-15,0.));
#497 = SURFACE_CURVE('',#498,(#503,#514),.PCURVE_S1.);
#498 = CIRCLE('',#499,9.);
#499 = AXIS2_PLACEMENT_3D('',#500,#501,#502);
#500 = CARTESIAN_POINT('',(0.,0.,0.));
#501 = DIRECTION('',(0.,0.,-1.));
#502 = DIRECTION('',(-1.,0.,-0.));
#503 = PCURVE('',#43,#504);
#504 = DEFINITIONAL_REPRESENTATION('',(#505),#513);
#505 = ( BOUNDED_CURVE() B_SPLINE_CURVE(2,(#506,#507,#508,#509,#510,#511
,#512),.UNSPECIFIED.,.T.,.F.) B_SPLINE_CURVE_WITH_KNOTS((1,2,2,2,2,1),(
    -2.094395102393,0.,2.094395102393,4.188790204786,6.28318530718,
8.377580409573),.UNSPECIFIED.) CURVE() GEOMETRIC_REPRESENTATION_ITEM()
RATIONAL_B_SPLINE_CURVE((1.,0.5,1.,0.5,1.,0.5,1.)) REPRESENTATION_ITEM(
  '') );
#506 = CARTESIAN_POINT('',(-9.,-4.807142605466E-16));
#507 = CARTESIAN_POINT('',(-9.,15.58845726812));
#508 = CARTESIAN_POINT('',(4.5,7.79422863406));
#509 = CARTESIAN_POINT('',(18.,1.723649977919E-15));
#510 = CARTESIAN_POINT('',(4.5,-7.79422863406));
#511 = CARTESIAN_POINT('',(-9.,-15.58845726812));
#512 = CARTESIAN_POINT('',(-9.,-4.807142605466E-16));
#513 = ( GEOMETRIC_REPRESENTATION_CONTEXT(2)
PARAMETRIC_REPRESENTATION_CONTEXT() REPRESENTATION_CONTEXT('2D SPACE',''
  ) );
#514 = PCURVE('',#515,#520);
#515 = CYLINDRICAL_SURFACE('',#516,9.);
#516 = AXIS2_PLACEMENT_3D('',#517,#518,#519);
#517 = CARTESIAN_POINT('',(0.,0.,18.669962312909));
#518 = DIRECTION('',(0.,0.,-1.));
#519 = DIRECTION('',(-1.,0.,-0.));
#520 = DEFINITIONAL_REPRESENTATION('',(#521),#525);
#521 = LINE('',#522,#523);
#522 = CARTESIAN_POINT('',(0.,18.669962312909));
#523 = VECTOR('',#524,1.);
#524 = DIRECTION('',(1.,0.));
#525 = ( GEOMETRIC_REPRESENTATION_CONTEXT(2)
PARAMETRIC_REPRESENTATION_CONTEXT() REPRESENTATION_CONTEXT('2D SPACE',''
  ) );
#526 = ADVANCED_FACE('',(#527),#140,.F.);
#527 = FACE_BOUND('',#528,.F.);
#528 = EDGE_LOOP('',(#529,#693,#714,#715,#716));
#529 = ORIENTED_EDGE('',*,*,#530,.F.);
#530 = EDGE_CURVE('',#531,#531,#533,.T.);
#531 = VERTEX_POINT('',#532);
#532 = CARTESIAN_POINT('',(9.,6.123233995737E-16,5.5));
#533 = SURFACE_CURVE('',#534,(#585,#639),.PCURVE_S1.);
#534 = B_SPLINE_CURVE_WITH_KNOTS('',7,(#535,#536,#537,#538,#539,#540,
    #541,#542,#543,#544,#545,#546,#547,#548,#549,#550,#551,#552,#553,
    #554,#555,#556,#557,#558,#559,#560,#561,#562,#563,#564,#565,#566,
    #567,#568,#569,#570,#571,#572,#573,#574,#575,#576,#577,#578,#579,
    #580,#581,#582,#583,#584),.UNSPECIFIED.,.T.,.F.,(8,6,6,6,6,6,6,6,8),
  (0.,0.112360595846,0.249993423596,0.387644499614,0.499962587996,
    0.612340939,0.750002702397,0.887664465794,1.),.UNSPECIFIED.);
#535 = CARTESIAN_POINT('',(9.,8.881784197001E-16,5.5));
#536 = CARTESIAN_POINT('',(9.,-0.307337187763,5.5));
#537 = CARTESIAN_POINT('',(8.987755197858,-0.606398561524,5.544079020936
    ));
#538 = CARTESIAN_POINT('',(8.964456099563,-0.889895952704,5.627967751139
    ));
#539 = CARTESIAN_POINT('',(8.932866314321,-1.151705541268,5.746177361297
    ));
#540 = CARTESIAN_POINT('',(8.896739739416,-1.387000215074,5.891938712563
    ));
#541 = CARTESIAN_POINT('',(8.859759339384,-1.59265759205,6.057123686117)
  );
#542 = CARTESIAN_POINT('',(8.781713475064,-1.982262046439,6.446728140506
    ));
#543 = CARTESIAN_POINT('',(8.740234251636,-2.157743336221,6.682935108316
    ));
#544 = CARTESIAN_POINT('',(8.703938399661,-2.295803817682,6.933644911981
    ));
#545 = CARTESIAN_POINT('',(8.67526683247,-2.39812319977,7.193993783972)
  );
#546 = CARTESIAN_POINT('',(8.655648049443,-2.465970605841,7.460399718259
    ));
#547 = CARTESIAN_POINT('',(8.645808232895,-2.5,7.729958842429));
#548 = CARTESIAN_POINT('',(8.645808232895,-2.5,8.270076961408));
#549 = CARTESIAN_POINT('',(8.655650616717,-2.465961692471,8.539636569241
    ));
#550 = CARTESIAN_POINT('',(8.675270119169,-2.39811195354,8.806024071457)
  );
#551 = CARTESIAN_POINT('',(8.703938860403,-2.295800334801,9.066351723799
    ));
#552 = CARTESIAN_POINT('',(8.740231992472,-2.157751305359,9.317050489215
    ));
#553 = CARTESIAN_POINT('',(8.781711231702,-1.982273245287,9.553260660645
    ));
#554 = CARTESIAN_POINT('',(8.859743250904,-1.592737905637,9.942796000296
    ));
#555 = CARTESIAN_POINT('',(8.896728210987,-1.387076956207,
    10.108021702621));
#556 = CARTESIAN_POINT('',(8.932871454892,-1.151707466804,
    10.253850613245));
#557 = CARTESIAN_POINT('',(8.964473736573,-0.88979124594,10.372095979624
    ));
#558 = CARTESIAN_POINT('',(8.987768351466,-0.606216037345,
    10.455968193857));
#559 = CARTESIAN_POINT('',(9.,-0.307172378928,10.5));
#560 = CARTESIAN_POINT('',(9.,0.307337187763,10.5));
#561 = CARTESIAN_POINT('',(8.987755197858,0.606398561525,10.455920979064
    ));
#562 = CARTESIAN_POINT('',(8.964456099563,0.889895952702,10.37203224886)
  );
#563 = CARTESIAN_POINT('',(8.932866314321,1.151705541269,10.253822638703
    ));
#564 = CARTESIAN_POINT('',(8.896739739416,1.387000215073,10.108061287437
    ));
#565 = CARTESIAN_POINT('',(8.859759339384,1.59265759205,9.942876313883)
  );
#566 = CARTESIAN_POINT('',(8.781711231702,1.982273245287,9.553260660645)
  );
#567 = CARTESIAN_POINT('',(8.740231992472,2.157751305359,9.317050489215)
  );
#568 = CARTESIAN_POINT('',(8.703938860403,2.295800334801,9.066351723799)
  );
#569 = CARTESIAN_POINT('',(8.675270119169,2.39811195354,8.806024071457)
  );
#570 = CARTESIAN_POINT('',(8.655650616717,2.465961692471,8.539636569242)
  );
#571 = CARTESIAN_POINT('',(8.645808232895,2.5,8.270076961408));
#572 = CARTESIAN_POINT('',(8.645808232895,2.5,7.729923038592));
#573 = CARTESIAN_POINT('',(8.655650616717,2.465961692471,7.460363430759)
  );
#574 = CARTESIAN_POINT('',(8.675270119169,2.39811195354,7.193975928542)
  );
#575 = CARTESIAN_POINT('',(8.703938860403,2.295800334802,6.933648276202)
  );
#576 = CARTESIAN_POINT('',(8.740231992472,2.157751305359,6.682949510784)
  );
#577 = CARTESIAN_POINT('',(8.781711231702,1.982273245288,6.446739339355)
  );
#578 = CARTESIAN_POINT('',(8.859745974448,1.592724309724,6.057190403791)
  );
#579 = CARTESIAN_POINT('',(8.896731513192,1.387057291032,5.891964910074)
  );
#580 = CARTESIAN_POINT('',(8.932872733706,1.151693325947,5.746145938573)
  );
#581 = CARTESIAN_POINT('',(8.964472075411,0.88979409381,5.627910359882)
  );
#582 = CARTESIAN_POINT('',(8.987766194403,0.606237580974,5.54403939817)
  );
#583 = CARTESIAN_POINT('',(9.,0.307199068119,5.5));
#584 = CARTESIAN_POINT('',(9.,8.881784197001E-16,5.5));
#585 = PCURVE('',#140,#586);
#586 = DEFINITIONAL_REPRESENTATION('',(#587),#638);
#587 = B_SPLINE_CURVE_WITH_KNOTS('',7,(#588,#589,#590,#591,#592,#593,
    #594,#595,#596,#597,#598,#599,#600,#601,#602,#603,#604,#605,#606,
    #607,#608,#609,#610,#611,#612,#613,#614,#615,#616,#617,#618,#619,
    #620,#621,#622,#623,#624,#625,#626,#627,#628,#629,#630,#631,#632,
    #633,#634,#635,#636,#637),.UNSPECIFIED.,.F.,.F.,(8,6,6,6,6,6,6,6,8),
  (0.,0.112360595846,0.249993423596,0.387644499614,0.499962587996,
    0.612340939,0.750002702397,0.887664465794,1.),.UNSPECIFIED.);
#588 = CARTESIAN_POINT('',(0.,11.669962312909));
#589 = CARTESIAN_POINT('',(0.122934875105,11.669962312909));
#590 = CARTESIAN_POINT('',(0.242559331298,11.682207115051));
#591 = CARTESIAN_POINT('',(0.358993230875,11.705506213346));
#592 = CARTESIAN_POINT('',(0.472085236773,11.737095998588));
#593 = CARTESIAN_POINT('',(0.581451237569,11.773222573494));
#594 = CARTESIAN_POINT('',(0.686341350155,11.810202973525));
#595 = CARTESIAN_POINT('',(0.906734911498,11.888248837845));
#596 = CARTESIAN_POINT('',(1.023178180859,11.929728061273));
#597 = CARTESIAN_POINT('',(1.136055123025,11.966023913248));
#598 = CARTESIAN_POINT('',(1.246334251102,11.994695480439));
#599 = CARTESIAN_POINT('',(1.354956508763,12.014314263466));
#600 = CARTESIAN_POINT('',(1.462779863766,12.024154080014));
#601 = CARTESIAN_POINT('',(1.678827111358,12.024154080014));
#602 = CARTESIAN_POINT('',(1.78665062512,12.014311696192));
#603 = CARTESIAN_POINT('',(1.895266410822,11.99469219374));
#604 = CARTESIAN_POINT('',(2.005537055131,11.966023452506));
#605 = CARTESIAN_POINT('',(2.118408157661,11.929730320437));
#606 = CARTESIAN_POINT('',(2.234851407066,11.888251081207));
#607 = CARTESIAN_POINT('',(2.455205871209,11.810219062005));
#608 = CARTESIAN_POINT('',(2.560108532422,11.773234101922));
#609 = CARTESIAN_POINT('',(2.669512519852,11.737090858018));
#610 = CARTESIAN_POINT('',(2.782646123167,11.705488576336));
#611 = CARTESIAN_POINT('',(2.899106339468,11.682193961443));
#612 = CARTESIAN_POINT('',(3.018723702019,11.669962312909));
#613 = CARTESIAN_POINT('',(3.264527528695,11.669962312909));
#614 = CARTESIAN_POINT('',(3.384151984888,11.682207115051));
#615 = CARTESIAN_POINT('',(3.500585884465,11.705506213346));
#616 = CARTESIAN_POINT('',(3.613677890363,11.737095998588));
#617 = CARTESIAN_POINT('',(3.723043891158,11.773222573494));
#618 = CARTESIAN_POINT('',(3.827934003745,11.810202973525));
#619 = CARTESIAN_POINT('',(4.048333900113,11.888251081207));
#620 = CARTESIAN_POINT('',(4.164777149519,11.929730320437));
#621 = CARTESIAN_POINT('',(4.277648252049,11.966023452506));
#622 = CARTESIAN_POINT('',(4.387918896358,11.99469219374));
#623 = CARTESIAN_POINT('',(4.496534682059,12.014311696192));
#624 = CARTESIAN_POINT('',(4.604358195822,12.024154080014));
#625 = CARTESIAN_POINT('',(4.820419764948,12.024154080014));
#626 = CARTESIAN_POINT('',(4.92824327871,12.014311696192));
#627 = CARTESIAN_POINT('',(5.036859064411,11.99469219374));
#628 = CARTESIAN_POINT('',(5.14712970872,11.966023452506));
#629 = CARTESIAN_POINT('',(5.260000811251,11.929730320437));
#630 = CARTESIAN_POINT('',(5.376444060656,11.888251081207));
#631 = CARTESIAN_POINT('',(5.596806215809,11.810216338461));
#632 = CARTESIAN_POINT('',(5.701710526947,11.773230799717));
#633 = CARTESIAN_POINT('',(5.811110548549,11.737089579204));
#634 = CARTESIAN_POINT('',(5.924236856582,11.705490237498));
#635 = CARTESIAN_POINT('',(6.040690379774,11.682196118507));
#636 = CARTESIAN_POINT('',(6.160305679932,11.669962312909));
#637 = CARTESIAN_POINT('',(6.28318530718,11.669962312909));
#638 = ( GEOMETRIC_REPRESENTATION_CONTEXT(2)
PARAMETRIC_REPRESENTATION_CONTEXT() REPRESENTATION_CONTEXT('2D SPACE',''
  ) );
#639 = PCURVE('',#515,#640);
#640 = DEFINITIONAL_REPRESENTATION('',(#641),#692);
#641 = B_SPLINE_CURVE_WITH_KNOTS('',7,(#642,#643,#644,#645,#646,#647,
    #648,#649,#650,#651,#652,#653,#654,#655,#656,#657,#658,#659,#660,
    #661,#662,#663,#664,#665,#666,#667,#668,#669,#670,#671,#672,#673,
    #674,#675,#676,#677,#678,#679,#680,#681,#682,#683,#684,#685,#686,
    #687,#688,#689,#690,#691),.UNSPECIFIED.,.T.,.F.,(8,6,6,6,6,6,6,6,8),
  (0.,0.112360595846,0.249993423596,0.387644499614,0.499962587996,
    0.612340939,0.750002702397,0.887664465794,1.),.UNSPECIFIED.);
#642 = CARTESIAN_POINT('',(3.14159265359,13.169962312909));
#643 = CARTESIAN_POINT('',(3.175741230008,13.169962312909));
#644 = CARTESIAN_POINT('',(3.208970314564,13.125883291973));
#645 = CARTESIAN_POINT('',(3.240534833765,13.04199456177));
#646 = CARTESIAN_POINT('',(3.269804805113,12.923784951611));
#647 = CARTESIAN_POINT('',(3.296240765254,12.778023600346));
#648 = CARTESIAN_POINT('',(3.319453490041,12.612838626792));
#649 = CARTESIAN_POINT('',(3.363602897964,12.223234172403));
#650 = CARTESIAN_POINT('',(3.383626258197,11.987027204594));
#651 = CARTESIAN_POINT('',(3.399483070086,11.736317400928));
#652 = CARTESIAN_POINT('',(3.411289330867,11.475968528937));
#653 = CARTESIAN_POINT('',(3.419136789562,11.20956259465));
#654 = CARTESIAN_POINT('',(3.423072726821,10.94000347048));
#655 = CARTESIAN_POINT('',(3.423072726821,10.399885351502));
#656 = CARTESIAN_POINT('',(3.419135759124,10.130325743668));
#657 = CARTESIAN_POINT('',(3.411288028506,9.863938241452));
#658 = CARTESIAN_POINT('',(3.39948268509,9.60361058911));
#659 = CARTESIAN_POINT('',(3.383627175498,9.352911823694));
#660 = CARTESIAN_POINT('',(3.363604167001,9.116701652264));
#661 = CARTESIAN_POINT('',(3.319462591059,8.727166312613));
#662 = CARTESIAN_POINT('',(3.296249380078,8.561940610289));
#663 = CARTESIAN_POINT('',(3.269804910635,8.416111699664));
#664 = CARTESIAN_POINT('',(3.240523093507,8.297866333286));
#665 = CARTESIAN_POINT('',(3.208950032772,8.213994119052));
#666 = CARTESIAN_POINT('',(3.175722917915,8.169962312909));
#667 = CARTESIAN_POINT('',(3.107444077172,8.169962312909));
#668 = CARTESIAN_POINT('',(3.074214992616,8.214041333846));
#669 = CARTESIAN_POINT('',(3.042650473415,8.297930064048));
#670 = CARTESIAN_POINT('',(3.013380502066,8.416139674207));
#671 = CARTESIAN_POINT('',(2.986944541925,8.561901025472));
#672 = CARTESIAN_POINT('',(2.963731817139,8.727085999026));
#673 = CARTESIAN_POINT('',(2.919581140178,9.116701652264));
#674 = CARTESIAN_POINT('',(2.899558131682,9.352911823694));
#675 = CARTESIAN_POINT('',(2.883702622089,9.60361058911));
#676 = CARTESIAN_POINT('',(2.871897278674,9.863938241452));
#677 = CARTESIAN_POINT('',(2.864049548055,10.130325743668));
#678 = CARTESIAN_POINT('',(2.860112580359,10.399885351502));
#679 = CARTESIAN_POINT('',(2.860112580359,10.940039274317));
#680 = CARTESIAN_POINT('',(2.864049548055,11.20959888215));
#681 = CARTESIAN_POINT('',(2.871897278674,11.475986384367));
#682 = CARTESIAN_POINT('',(2.883702622089,11.736314036708));
#683 = CARTESIAN_POINT('',(2.899558131682,11.987012802125));
#684 = CARTESIAN_POINT('',(2.919581140178,12.223222973555));
#685 = CARTESIAN_POINT('',(2.963724256789,12.612771909118));
#686 = CARTESIAN_POINT('',(2.986938143019,12.777997402836));
#687 = CARTESIAN_POINT('',(3.013381963389,12.923816374337));
#688 = CARTESIAN_POINT('',(3.042661884224,13.042051953027));
#689 = CARTESIAN_POINT('',(3.074232877996,13.125922914739));
#690 = CARTESIAN_POINT('',(3.107459423799,13.169962312909));
#691 = CARTESIAN_POINT('',(3.14159265359,13.169962312909));
#692 = ( GEOMETRIC_REPRESENTATION_CONTEXT(2)
PARAMETRIC_REPRESENTATION_CONTEXT() REPRESENTATION_CONTEXT('2D SPACE',''
  ) );
#693 = ORIENTED_EDGE('',*,*,#694,.F.);
#694 = EDGE_CURVE('',#56,#531,#695,.T.);
#695 = SEAM_CURVE('',#696,(#700,#707),.PCURVE_S1.);
#696 = LINE('',#697,#698);
#697 = CARTESIAN_POINT('',(20.669962312909,6.123233995737E-16,5.5));
#698 = VECTOR('',#699,1.);
#699 = DIRECTION('',(-1.,0.,0.));
#700 = PCURVE('',#140,#701);
#701 = DEFINITIONAL_REPRESENTATION('',(#702),#706);
#702 = LINE('',#703,#704);
#703 = CARTESIAN_POINT('',(6.28318530718,-0.));
#704 = VECTOR('',#705,1.);
#705 = DIRECTION('',(0.,1.));
#706 = ( GEOMETRIC_REPRESENTATION_CONTEXT(2)
PARAMETRIC_REPRESENTATION_CONTEXT() REPRESENTATION_CONTEXT('2D SPACE',''
  ) );
#707 = PCURVE('',#140,#708);
#708 = DEFINITIONAL_REPRESENTATION('',(#709),#713);
#709 = LINE('',#710,#711);
#710 = CARTESIAN_POINT('',(0.,-0.));
#711 = VECTOR('',#712,1.);
#712 = DIRECTION('',(0.,1.));
#713 = ( GEOMETRIC_REPRESENTATION_CONTEXT(2)
PARAMETRIC_REPRESENTATION_CONTEXT() REPRESENTATION_CONTEXT('2D SPACE',''
  ) );
#714 = ORIENTED_EDGE('',*,*,#226,.T.);
#715 = ORIENTED_EDGE('',*,*,#78,.T.);
#716 = ORIENTED_EDGE('',*,*,#694,.T.);
#717 = ADVANCED_FACE('',(#718,#721),#213,.T.);
#718 = FACE_BOUND('',#719,.T.);
#719 = EDGE_LOOP('',(#720));
#720 = ORIENTED_EDGE('',*,*,#198,.T.);
#721 = FACE_BOUND('',#722,.T.);
#722 = EDGE_LOOP('',(#723));
#723 = ORIENTED_EDGE('',*,*,#724,.T.);
#724 = EDGE_CURVE('',#725,#725,#727,.T.);
#725 = VERTEX_POINT('',#726);
#726 = CARTESIAN_POINT('',(-9.,-2.204364238465E-15,16.));
#727 = SURFACE_CURVE('',#728,(#733,#744),.PCURVE_S1.);
#728 = CIRCLE('',#729,9.);
#729 = AXIS2_PLACEMENT_3D('',#730,#731,#732);
#730 = CARTESIAN_POINT('',(0.,0.,16.));
#731 = DIRECTION('',(0.,0.,-1.));
#732 = DIRECTION('',(-1.,0.,-0.));
#733 = PCURVE('',#213,#734);
#734 = DEFINITIONAL_REPRESENTATION('',(#735),#743);
#735 = ( BOUNDED_CURVE() B_SPLINE_CURVE(2,(#736,#737,#738,#739,#740,#741
,#742),.UNSPECIFIED.,.T.,.F.) B_SPLINE_CURVE_WITH_KNOTS((1,2,2,2,2,1),(
    -2.094395102393,0.,2.094395102393,4.188790204786,6.28318530718,
8.377580409573),.UNSPECIFIED.) CURVE() GEOMETRIC_REPRESENTATION_ITEM()
RATIONAL_B_SPLINE_CURVE((1.,0.5,1.,0.5,1.,0.5,1.)) REPRESENTATION_ITEM(
  '') );
#736 = CARTESIAN_POINT('',(-9.,-4.807142605466E-16));
#737 = CARTESIAN_POINT('',(-9.,15.58845726812));
#738 = CARTESIAN_POINT('',(4.5,7.79422863406));
#739 = CARTESIAN_POINT('',(18.,1.723649977919E-15));
#740 = CARTESIAN_POINT('',(4.5,-7.79422863406));
#741 = CARTESIAN_POINT('',(-9.,-15.58845726812));
#742 = CARTESIAN_POINT('',(-9.,-4.807142605466E-16));
#743 = ( GEOMETRIC_REPRESENTATION_CONTEXT(2)
PARAMETRIC_REPRESENTATION_CONTEXT() REPRESENTATION_CONTEXT('2D SPACE',''
  ) );
#744 = PCURVE('',#515,#745);
#745 = DEFINITIONAL_REPRESENTATION('',(#746),#750);
#746 = LINE('',#747,#748);
#747 = CARTESIAN_POINT('',(0.,2.669962312909));
#748 = VECTOR('',#749,1.);
#749 = DIRECTION('',(1.,0.));
#750 = ( GEOMETRIC_REPRESENTATION_CONTEXT(2)
PARAMETRIC_REPRESENTATION_CONTEXT() REPRESENTATION_CONTEXT('2D SPACE',''
  ) );
#751 = ADVANCED_FACE('',(#752),#429,.F.);
#752 = FACE_BOUND('',#753,.F.);
#753 = EDGE_LOOP('',(#754,#755,#778,#870,#960));
#754 = ORIENTED_EDGE('',*,*,#319,.F.);
#755 = ORIENTED_EDGE('',*,*,#756,.F.);
#756 = EDGE_CURVE('',#757,#320,#759,.T.);
#757 = VERTEX_POINT('',#758);
#758 = CARTESIAN_POINT('',(-9.,-7.960204194458E-16,5.5));
#759 = SEAM_CURVE('',#760,(#764,#771),.PCURVE_S1.);
#760 = LINE('',#761,#762);
#761 = CARTESIAN_POINT('',(20.669962312909,6.123233995737E-16,5.5));
#762 = VECTOR('',#763,1.);
#763 = DIRECTION('',(-1.,0.,0.));
#764 = PCURVE('',#429,#765);
#765 = DEFINITIONAL_REPRESENTATION('',(#766),#770);
#766 = LINE('',#767,#768);
#767 = CARTESIAN_POINT('',(6.28318530718,-0.));
#768 = VECTOR('',#769,1.);
#769 = DIRECTION('',(0.,1.));
#770 = ( GEOMETRIC_REPRESENTATION_CONTEXT(2)
PARAMETRIC_REPRESENTATION_CONTEXT() REPRESENTATION_CONTEXT('2D SPACE',''
  ) );
#771 = PCURVE('',#429,#772);
#772 = DEFINITIONAL_REPRESENTATION('',(#773),#777);
#773 = LINE('',#774,#775);
#774 = CARTESIAN_POINT('',(0.,-0.));
#775 = VECTOR('',#776,1.);
#776 = DIRECTION('',(0.,1.));
#777 = ( GEOMETRIC_REPRESENTATION_CONTEXT(2)
PARAMETRIC_REPRESENTATION_CONTEXT() REPRESENTATION_CONTEXT('2D SPACE',''
  ) );
#778 = ORIENTED_EDGE('',*,*,#779,.T.);
#779 = EDGE_CURVE('',#757,#780,#782,.T.);
#780 = VERTEX_POINT('',#781);
#781 = CARTESIAN_POINT('',(-9.,-2.204364238465E-15,10.5));
#782 = SURFACE_CURVE('',#783,(#810,#840),.PCURVE_S1.);
#783 = B_SPLINE_CURVE_WITH_KNOTS('',7,(#784,#785,#786,#787,#788,#789,
    #790,#791,#792,#793,#794,#795,#796,#797,#798,#799,#800,#801,#802,
    #803,#804,#805,#806,#807,#808,#809),.UNSPECIFIED.,.F.,.F.,(8,6,6,6,8
    ),(0.,0.22473800749,0.500024261012,0.7753470138,1.),.UNSPECIFIED.);
#784 = CARTESIAN_POINT('',(-9.,-8.881784197001E-16,5.5));
#785 = CARTESIAN_POINT('',(-9.,-0.307337187763,5.5));
#786 = CARTESIAN_POINT('',(-8.987755197858,-0.606398561524,
    5.544079020937));
#787 = CARTESIAN_POINT('',(-8.964456099563,-0.889895952703,
    5.627967751139));
#788 = CARTESIAN_POINT('',(-8.932866314321,-1.151705541268,
    5.746177361298));
#789 = CARTESIAN_POINT('',(-8.896739739416,-1.387000215074,
    5.891938712563));
#790 = CARTESIAN_POINT('',(-8.859759339384,-1.59265759205,6.057123686117
    ));
#791 = CARTESIAN_POINT('',(-8.781713475064,-1.982262046439,
    6.446728140506));
#792 = CARTESIAN_POINT('',(-8.740234251636,-2.157743336221,
    6.682935108316));
#793 = CARTESIAN_POINT('',(-8.703938399661,-2.295803817682,
    6.933644911981));
#794 = CARTESIAN_POINT('',(-8.67526683247,-2.39812319977,7.193993783972)
  );
#795 = CARTESIAN_POINT('',(-8.655648049443,-2.465970605841,
    7.460399718259));
#796 = CARTESIAN_POINT('',(-8.645808232895,-2.5,7.729958842429));
#797 = CARTESIAN_POINT('',(-8.645808232895,-2.5,8.270076961408));
#798 = CARTESIAN_POINT('',(-8.655650616717,-2.465961692471,
    8.539636569241));
#799 = CARTESIAN_POINT('',(-8.675270119169,-2.39811195354,8.806024071458
    ));
#800 = CARTESIAN_POINT('',(-8.703938860403,-2.295800334801,
    9.066351723799));
#801 = CARTESIAN_POINT('',(-8.740231992472,-2.157751305359,
    9.317050489216));
#802 = CARTESIAN_POINT('',(-8.781711231702,-1.982273245287,
    9.553260660645));
#803 = CARTESIAN_POINT('',(-8.859743250904,-1.592737905637,
    9.942796000296));
#804 = CARTESIAN_POINT('',(-8.896728210987,-1.387076956207,
    10.108021702621));
#805 = CARTESIAN_POINT('',(-8.932871454892,-1.151707466804,
    10.253850613245));
#806 = CARTESIAN_POINT('',(-8.964473736573,-0.88979124594,
    10.372095979623));
#807 = CARTESIAN_POINT('',(-8.987768351466,-0.606216037346,
    10.455968193858));
#808 = CARTESIAN_POINT('',(-9.,-0.307172378928,10.5));
#809 = CARTESIAN_POINT('',(-9.,0.,10.5));
#810 = PCURVE('',#429,#811);
#811 = DEFINITIONAL_REPRESENTATION('',(#812),#839);
#812 = B_SPLINE_CURVE_WITH_KNOTS('',7,(#813,#814,#815,#816,#817,#818,
    #819,#820,#821,#822,#823,#824,#825,#826,#827,#828,#829,#830,#831,
    #832,#833,#834,#835,#836,#837,#838),.UNSPECIFIED.,.F.,.F.,(8,6,6,6,8
    ),(0.,0.22473800749,0.500024261012,0.7753470138,1.),.UNSPECIFIED.);
#813 = CARTESIAN_POINT('',(0.,29.669962312909));
#814 = CARTESIAN_POINT('',(0.122934875105,29.669962312909));
#815 = CARTESIAN_POINT('',(0.242559331298,29.657717510768));
#816 = CARTESIAN_POINT('',(0.358993230875,29.634418412472));
#817 = CARTESIAN_POINT('',(0.472085236773,29.60282862723));
#818 = CARTESIAN_POINT('',(0.581451237569,29.566702052325));
#819 = CARTESIAN_POINT('',(0.686341350155,29.529721652293));
#820 = CARTESIAN_POINT('',(0.906734911498,29.451675787974));
#821 = CARTESIAN_POINT('',(1.023178180859,29.410196564545));
#822 = CARTESIAN_POINT('',(1.136055123025,29.373900712571));
#823 = CARTESIAN_POINT('',(1.246334251102,29.34522914538));
#824 = CARTESIAN_POINT('',(1.354956508763,29.325610362352));
#825 = CARTESIAN_POINT('',(1.462779863766,29.315770545805));
#826 = CARTESIAN_POINT('',(1.678827111358,29.315770545805));
#827 = CARTESIAN_POINT('',(1.78665062512,29.325612929626));
#828 = CARTESIAN_POINT('',(1.895266410822,29.345232432078));
#829 = CARTESIAN_POINT('',(2.00553705513,29.373901173313));
#830 = CARTESIAN_POINT('',(2.118408157661,29.410194305381));
#831 = CARTESIAN_POINT('',(2.234851407066,29.451673544612));
#832 = CARTESIAN_POINT('',(2.455205871209,29.529705563813));
#833 = CARTESIAN_POINT('',(2.560108532423,29.566690523897));
#834 = CARTESIAN_POINT('',(2.669512519851,29.602833767801));
#835 = CARTESIAN_POINT('',(2.782646123167,29.634436049483));
#836 = CARTESIAN_POINT('',(2.899106339468,29.657730664375));
#837 = CARTESIAN_POINT('',(3.018723702019,29.669962312909));
#838 = CARTESIAN_POINT('',(3.14159265359,29.669962312909));
#839 = ( GEOMETRIC_REPRESENTATION_CONTEXT(2)
PARAMETRIC_REPRESENTATION_CONTEXT() REPRESENTATION_CONTEXT('2D SPACE',''
  ) );
#840 = PCURVE('',#515,#841);
#841 = DEFINITIONAL_REPRESENTATION('',(#842),#869);
#842 = B_SPLINE_CURVE_WITH_KNOTS('',7,(#843,#844,#845,#846,#847,#848,
    #849,#850,#851,#852,#853,#854,#855,#856,#857,#858,#859,#860,#861,
    #862,#863,#864,#865,#866,#867,#868),.UNSPECIFIED.,.F.,.F.,(8,6,6,6,8
    ),(0.,0.22473800749,0.500024261012,0.7753470138,1.),.UNSPECIFIED.);
#843 = CARTESIAN_POINT('',(6.28318530718,13.169962312909));
#844 = CARTESIAN_POINT('',(6.249036730761,13.169962312909));
#845 = CARTESIAN_POINT('',(6.215807646205,13.125883291973));
#846 = CARTESIAN_POINT('',(6.184243127005,13.041994561771));
#847 = CARTESIAN_POINT('',(6.154973155656,12.923784951611));
#848 = CARTESIAN_POINT('',(6.128537195515,12.778023600346));
#849 = CARTESIAN_POINT('',(6.105324470728,12.612838626792));
#850 = CARTESIAN_POINT('',(6.061175062805,12.223234172403));
#851 = CARTESIAN_POINT('',(6.041151702573,11.987027204594));
#852 = CARTESIAN_POINT('',(6.025294890683,11.736317400928));
#853 = CARTESIAN_POINT('',(6.013488629903,11.475968528937));
#854 = CARTESIAN_POINT('',(6.005641171208,11.209562594651));
#855 = CARTESIAN_POINT('',(6.001705233949,10.94000347048));
#856 = CARTESIAN_POINT('',(6.001705233949,10.399885351502));
#857 = CARTESIAN_POINT('',(6.005642201645,10.130325743668));
#858 = CARTESIAN_POINT('',(6.013489932263,9.863938241451));
#859 = CARTESIAN_POINT('',(6.025295275679,9.603610589111));
#860 = CARTESIAN_POINT('',(6.041150785272,9.352911823694));
#861 = CARTESIAN_POINT('',(6.061173793768,9.116701652264));
#862 = CARTESIAN_POINT('',(6.10531536971,8.727166312613));
#863 = CARTESIAN_POINT('',(6.128528580691,8.561940610289));
#864 = CARTESIAN_POINT('',(6.154973050134,8.416111699665));
#865 = CARTESIAN_POINT('',(6.184254867263,8.297866333286));
#866 = CARTESIAN_POINT('',(6.215827927997,8.213994119052));
#867 = CARTESIAN_POINT('',(6.249055042854,8.169962312909));
#868 = CARTESIAN_POINT('',(6.28318530718,8.169962312909));
#869 = ( GEOMETRIC_REPRESENTATION_CONTEXT(2)
PARAMETRIC_REPRESENTATION_CONTEXT() REPRESENTATION_CONTEXT('2D SPACE',''
  ) );
#870 = ORIENTED_EDGE('',*,*,#871,.T.);
#871 = EDGE_CURVE('',#780,#757,#872,.T.);
#872 = SURFACE_CURVE('',#873,(#900,#930),.PCURVE_S1.);
#873 = B_SPLINE_CURVE_WITH_KNOTS('',7,(#874,#875,#876,#877,#878,#879,
    #880,#881,#882,#883,#884,#885,#886,#887,#888,#889,#890,#891,#892,
    #893,#894,#895,#896,#897,#898,#899),.UNSPECIFIED.,.F.,.F.,(8,6,6,6,8
    ),(0.,0.22473988607,0.500042813595,0.775345741121,1.),
  .UNSPECIFIED.);
#874 = CARTESIAN_POINT('',(-9.,9.571421747317E-16,10.5));
#875 = CARTESIAN_POINT('',(-9.,0.307337187763,10.5));
#876 = CARTESIAN_POINT('',(-8.987755197858,0.606398561524,
    10.455920979063));
#877 = CARTESIAN_POINT('',(-8.964456099563,0.889895952703,
    10.372032248861));
#878 = CARTESIAN_POINT('',(-8.932866314321,1.151705541269,
    10.253822638702));
#879 = CARTESIAN_POINT('',(-8.896739739416,1.387000215073,
    10.108061287437));
#880 = CARTESIAN_POINT('',(-8.859759339384,1.59265759205,9.942876313883)
  );
#881 = CARTESIAN_POINT('',(-8.781711231702,1.982273245287,9.553260660645
    ));
#882 = CARTESIAN_POINT('',(-8.740231992472,2.157751305359,9.317050489215
    ));
#883 = CARTESIAN_POINT('',(-8.703938860403,2.295800334801,9.0663517238)
  );
#884 = CARTESIAN_POINT('',(-8.675270119169,2.39811195354,8.806024071457)
  );
#885 = CARTESIAN_POINT('',(-8.655650616717,2.465961692471,8.539636569242
    ));
#886 = CARTESIAN_POINT('',(-8.645808232895,2.5,8.270076961407));
#887 = CARTESIAN_POINT('',(-8.645808232895,2.5,7.729923038593));
#888 = CARTESIAN_POINT('',(-8.655650616717,2.465961692471,7.460363430758
    ));
#889 = CARTESIAN_POINT('',(-8.675270119169,2.39811195354,7.193975928543)
  );
#890 = CARTESIAN_POINT('',(-8.703938860403,2.295800334801,6.9336482762)
  );
#891 = CARTESIAN_POINT('',(-8.740231992472,2.157751305359,6.682949510785
    ));
#892 = CARTESIAN_POINT('',(-8.781711231702,1.982273245287,6.446739339355
    ));
#893 = CARTESIAN_POINT('',(-8.859745974448,1.592724309724,6.057190403792
    ));
#894 = CARTESIAN_POINT('',(-8.896731513192,1.387057291032,5.891964910073
    ));
#895 = CARTESIAN_POINT('',(-8.932872733706,1.151693325947,5.746145938573
    ));
#896 = CARTESIAN_POINT('',(-8.964472075411,0.889794093809,5.627910359882
    ));
#897 = CARTESIAN_POINT('',(-8.987766194403,0.606237580974,5.54403939817)
  );
#898 = CARTESIAN_POINT('',(-9.,0.307199068119,5.5));
#899 = CARTESIAN_POINT('',(-9.,3.061616997868E-16,5.5));
#900 = PCURVE('',#429,#901);
#901 = DEFINITIONAL_REPRESENTATION('',(#902),#929);
#902 = B_SPLINE_CURVE_WITH_KNOTS('',7,(#903,#904,#905,#906,#907,#908,
    #909,#910,#911,#912,#913,#914,#915,#916,#917,#918,#919,#920,#921,
    #922,#923,#924,#925,#926,#927,#928),.UNSPECIFIED.,.F.,.F.,(8,6,6,6,8
    ),(0.,0.22473988607,0.500042813595,0.775345741121,1.),
  .UNSPECIFIED.);
#903 = CARTESIAN_POINT('',(3.14159265359,29.669962312909));
#904 = CARTESIAN_POINT('',(3.264527528695,29.669962312909));
#905 = CARTESIAN_POINT('',(3.384151984888,29.657717510768));
#906 = CARTESIAN_POINT('',(3.500585884464,29.634418412472));
#907 = CARTESIAN_POINT('',(3.613677890363,29.60282862723));
#908 = CARTESIAN_POINT('',(3.723043891158,29.566702052325));
#909 = CARTESIAN_POINT('',(3.827934003745,29.529721652293));
#910 = CARTESIAN_POINT('',(4.048333900113,29.451673544612));
#911 = CARTESIAN_POINT('',(4.164777149519,29.410194305381));
#912 = CARTESIAN_POINT('',(4.277648252049,29.373901173313));
#913 = CARTESIAN_POINT('',(4.387918896358,29.345232432078));
#914 = CARTESIAN_POINT('',(4.496534682059,29.325612929627));
#915 = CARTESIAN_POINT('',(4.604358195822,29.315770545805));
#916 = CARTESIAN_POINT('',(4.820419764948,29.315770545805));
#917 = CARTESIAN_POINT('',(4.92824327871,29.325612929626));
#918 = CARTESIAN_POINT('',(5.036859064411,29.345232432078));
#919 = CARTESIAN_POINT('',(5.147129708721,29.373901173313));
#920 = CARTESIAN_POINT('',(5.260000811251,29.410194305381));
#921 = CARTESIAN_POINT('',(5.376444060656,29.451673544612));
#922 = CARTESIAN_POINT('',(5.596806215809,29.529708287357));
#923 = CARTESIAN_POINT('',(5.701710526948,29.566693826101));
#924 = CARTESIAN_POINT('',(5.811110548549,29.602835046615));
#925 = CARTESIAN_POINT('',(5.924236856582,29.634434388321));
#926 = CARTESIAN_POINT('',(6.040690379774,29.657728507312));
#927 = CARTESIAN_POINT('',(6.160305679932,29.669962312909));
#928 = CARTESIAN_POINT('',(6.28318530718,29.669962312909));
#929 = ( GEOMETRIC_REPRESENTATION_CONTEXT(2)
PARAMETRIC_REPRESENTATION_CONTEXT() REPRESENTATION_CONTEXT('2D SPACE',''
  ) );
#930 = PCURVE('',#515,#931);
#931 = DEFINITIONAL_REPRESENTATION('',(#932),#959);
#932 = B_SPLINE_CURVE_WITH_KNOTS('',7,(#933,#934,#935,#936,#937,#938,
    #939,#940,#941,#942,#943,#944,#945,#946,#947,#948,#949,#950,#951,
    #952,#953,#954,#955,#956,#957,#958),.UNSPECIFIED.,.F.,.F.,(8,6,6,6,8
    ),(0.,0.22473988607,0.500042813595,0.775345741121,1.),
  .UNSPECIFIED.);
#933 = CARTESIAN_POINT('',(0.,8.169962312909));
#934 = CARTESIAN_POINT('',(3.41485764181E-02,8.169962312909));
#935 = CARTESIAN_POINT('',(6.737766097415E-02,8.214041333846));
#936 = CARTESIAN_POINT('',(9.894218017484E-02,8.297930064048));
#937 = CARTESIAN_POINT('',(0.128212151523,8.416139674207));
#938 = CARTESIAN_POINT('',(0.154648111665,8.561901025472));
#939 = CARTESIAN_POINT('',(0.177860836451,8.727085999026));
#940 = CARTESIAN_POINT('',(0.222011513412,9.116701652264));
#941 = CARTESIAN_POINT('',(0.242034521908,9.352911823694));
#942 = CARTESIAN_POINT('',(0.257890031501,9.60361058911));
#943 = CARTESIAN_POINT('',(0.269695374916,9.863938241452));
#944 = CARTESIAN_POINT('',(0.277543105534,10.130325743668));
#945 = CARTESIAN_POINT('',(0.281480073231,10.399885351502));
#946 = CARTESIAN_POINT('',(0.281480073231,10.940039274317));
#947 = CARTESIAN_POINT('',(0.277543105534,11.209598882151));
#948 = CARTESIAN_POINT('',(0.269695374916,11.475986384366));
#949 = CARTESIAN_POINT('',(0.257890031501,11.736314036709));
#950 = CARTESIAN_POINT('',(0.242034521908,11.987012802124));
#951 = CARTESIAN_POINT('',(0.222011513412,12.223222973555));
#952 = CARTESIAN_POINT('',(0.177868396801,12.612771909118));
#953 = CARTESIAN_POINT('',(0.154654510571,12.777997402836));
#954 = CARTESIAN_POINT('',(0.1282106902,12.923816374336));
#955 = CARTESIAN_POINT('',(9.893076936624E-02,13.042051953028));
#956 = CARTESIAN_POINT('',(6.735977559406E-02,13.125922914739));
#957 = CARTESIAN_POINT('',(3.4133229791E-02,13.169962312909));
#958 = CARTESIAN_POINT('',(0.,13.169962312909));
#959 = ( GEOMETRIC_REPRESENTATION_CONTEXT(2)
PARAMETRIC_REPRESENTATION_CONTEXT() REPRESENTATION_CONTEXT('2D SPACE',''
  ) );
#960 = ORIENTED_EDGE('',*,*,#756,.T.);
#961 = ADVANCED_FACE('',(#962,#1012),#515,.F.);
#962 = FACE_BOUND('',#963,.F.);
#963 = EDGE_LOOP('',(#964,#985,#986,#987,#988,#1009,#1010,#1011));
#964 = ORIENTED_EDGE('',*,*,#965,.T.);
#965 = EDGE_CURVE('',#757,#495,#966,.T.);
#966 = SEAM_CURVE('',#967,(#971,#978),.PCURVE_S1.);
#967 = LINE('',#968,#969);
#968 = CARTESIAN_POINT('',(-9.,-2.204364238465E-15,18.669962312909));
#969 = VECTOR('',#970,1.);
#970 = DIRECTION('',(0.,0.,-1.));
#971 = PCURVE('',#515,#972);
#972 = DEFINITIONAL_REPRESENTATION('',(#973),#977);
#973 = LINE('',#974,#975);
#974 = CARTESIAN_POINT('',(6.28318530718,-0.));
#975 = VECTOR('',#976,1.);
#976 = DIRECTION('',(0.,1.));
#977 = ( GEOMETRIC_REPRESENTATION_CONTEXT(2)
PARAMETRIC_REPRESENTATION_CONTEXT() REPRESENTATION_CONTEXT('2D SPACE',''
  ) );
#978 = PCURVE('',#515,#979);
#979 = DEFINITIONAL_REPRESENTATION('',(#980),#984);
#980 = LINE('',#981,#982);
#981 = CARTESIAN_POINT('',(0.,-0.));
#982 = VECTOR('',#983,1.);
#983 = DIRECTION('',(0.,1.));
#984 = ( GEOMETRIC_REPRESENTATION_CONTEXT(2)
PARAMETRIC_REPRESENTATION_CONTEXT() REPRESENTATION_CONTEXT('2D SPACE',''
  ) );
#985 = ORIENTED_EDGE('',*,*,#494,.F.);
#986 = ORIENTED_EDGE('',*,*,#965,.F.);
#987 = ORIENTED_EDGE('',*,*,#871,.F.);
#988 = ORIENTED_EDGE('',*,*,#989,.F.);
#989 = EDGE_CURVE('',#725,#780,#990,.T.);
#990 = SEAM_CURVE('',#991,(#995,#1002),.PCURVE_S1.);
#991 = LINE('',#992,#993);
#992 = CARTESIAN_POINT('',(-9.,-2.204364238465E-15,18.669962312909));
#993 = VECTOR('',#994,1.);
#994 = DIRECTION('',(0.,0.,-1.));
#995 = PCURVE('',#515,#996);
#996 = DEFINITIONAL_REPRESENTATION('',(#997),#1001);
#997 = LINE('',#998,#999);
#998 = CARTESIAN_POINT('',(6.28318530718,-0.));
#999 = VECTOR('',#1000,1.);
#1000 = DIRECTION('',(0.,1.));
#1001 = ( GEOMETRIC_REPRESENTATION_CONTEXT(2)
PARAMETRIC_REPRESENTATION_CONTEXT() REPRESENTATION_CONTEXT('2D SPACE',''
  ) );
#1002 = PCURVE('',#515,#1003);
#1003 = DEFINITIONAL_REPRESENTATION('',(#1004),#1008);
#1004 = LINE('',#1005,#1006);
#1005 = CARTESIAN_POINT('',(0.,-0.));
#1006 = VECTOR('',#1007,1.);
#1007 = DIRECTION('',(0.,1.));
#1008 = ( GEOMETRIC_REPRESENTATION_CONTEXT(2)
PARAMETRIC_REPRESENTATION_CONTEXT() REPRESENTATION_CONTEXT('2D SPACE',''
  ) );
#1009 = ORIENTED_EDGE('',*,*,#724,.T.);
#1010 = ORIENTED_EDGE('',*,*,#989,.T.);
#1011 = ORIENTED_EDGE('',*,*,#779,.F.);
#1012 = FACE_BOUND('',#1013,.F.);
#1013 = EDGE_LOOP('',(#1014));
#1014 = ORIENTED_EDGE('',*,*,#530,.T.);
#1015 = ( GEOMETRIC_REPRESENTATION_CONTEXT(3)
GLOBAL_UNCERTAINTY_ASSIGNED_CONTEXT((#1019))
GLOBAL_UNIT_ASSIGNED_CONTEXT((#1016,#1017,#1018)) REPRESENTATION_CONTEXT
('Context #1','3D Context with UNIT and UNCERTAINTY') );
#1016 = ( LENGTH_UNIT() NAMED_UNIT(*) SI_UNIT(.MILLI.,.METRE.) );
#1017 = ( NAMED_UNIT(*) PLANE_ANGLE_UNIT() SI_UNIT($,.RADIAN.) );
#1018 = ( NAMED_UNIT(*) SI_UNIT($,.STERADIAN.) SOLID_ANGLE_UNIT() );
#1019 = UNCERTAINTY_MEASURE_WITH_UNIT(LENGTH_MEASURE(1.E-07),#1016,
  'distance_accuracy_value','confusion accuracy');
#1020 = PRODUCT_RELATED_PRODUCT_CATEGORY('part',$,(#7));
ENDSEC;
END-ISO-10303-21;
