# Mesh2Param deterministic OBJ
o Mesh2Param_result
v 0 0 0
v 0 0 10
v 0 60 0
v 0 60 10
v 7 10 0
v 7 10 10
v 7 50 0
v 7 50 10
v 7.0149079999999993 9.7012959999999993 0
v 7.0149079999999993 9.7012959999999993 10
v 7.0149079999999993 10.298703999999999 0
v 7.0149079999999993 10.298703999999999 10
v 7.0149079999999993 49.701295999999999 0
v 7.0149079999999993 49.701295999999999 10
v 7.0149079999999993 50.298704000000001 0
v 7.0149079999999993 50.298704000000001 10
v 7.0594829999999993 9.4055619999999998 0
v 7.0594829999999993 9.4055619999999998 10
v 7.0594829999999993 10.594438 0
v 7.0594829999999993 10.594438 10
v 7.0594829999999993 49.405561999999996 0
v 7.0594829999999993 49.405561999999996 10
v 7.0594829999999993 50.594437999999997 0
v 7.0594829999999993 50.594437999999997 10
v 7.1332819999999995 9.1157339999999998 0
v 7.1332819999999995 9.1157339999999998 10
v 7.1332819999999995 10.884266 0
v 7.1332819999999995 10.884266 10
v 7.1332819999999995 49.115733999999996 0
v 7.1332819999999995 49.115733999999996 10
v 7.1332819999999995 50.884265999999997 0
v 7.1332819999999995 50.884265999999997 10
v 7.2355709999999993 8.8346959999999992 0
v 7.2355709999999993 8.8346959999999992 10
v 7.2355709999999993 11.165303999999999 0
v 7.2355709999999993 11.165303999999999 10
v 7.2355709999999993 48.834696000000001 0
v 7.2355709999999993 48.834696000000001 10
v 7.2355709999999993 51.165303999999999 0
v 7.2355709999999993 51.165303999999999 10
v 7.365335 8.565237999999999 0
v 7.365335 8.565237999999999 10
v 7.365335 11.434761999999999 0
v 7.365335 11.434761999999999 10
v 7.365335 48.565238000000001 0
v 7.365335 48.565238000000001 10
v 7.365335 51.434761999999999 0
v 7.365335 51.434761999999999 10
v 7.5212839999999996 8.310039999999999 0
v 7.5212839999999996 8.310039999999999 10
v 7.5212839999999996 11.689959999999999 0
v 7.5212839999999996 11.689959999999999 10
v 7.5212839999999996 48.310040000000001 0
v 7.5212839999999996 48.310040000000001 10
v 7.5212839999999996 51.689959999999999 0
v 7.5212839999999996 51.689959999999999 10
v 7.701867 8.0716369999999991 0
v 7.701867 8.0716369999999991 10
v 7.701867 11.928362999999999 0
v 7.701867 11.928362999999999 10
v 7.701867 48.071636999999996 0
v 7.701867 48.071636999999996 10
v 7.701867 51.928362999999997 0
v 7.701867 51.928362999999997 10
v 7.9052899999999999 7.8523989999999992 0
v 7.9052899999999999 7.8523989999999992 10
v 7.9052899999999999 12.147601 0
v 7.9052899999999999 12.147601 10
v 7.9052899999999999 47.852398999999998 0
v 7.9052899999999999 47.852398999999998 10
v 7.9052899999999999 52.147600999999995 0
v 7.9052899999999999 52.147600999999995 10
v 8.1295310000000001 7.6545059999999996 0
v 8.1295310000000001 7.6545059999999996 10
v 8.1295310000000001 12.345493999999999 0
v 8.1295310000000001 12.345493999999999 10
v 8.1295310000000001 47.654505999999998 0
v 8.1295310000000001 47.654505999999998 10
v 8.1295310000000001 52.345493999999995 0
v 8.1295310000000001 52.345493999999995 10
v 8.3723609999999997 7.4799219999999993 0
v 8.3723609999999997 7.4799219999999993 10
v 8.3723609999999997 12.520078 0
v 8.3723609999999997 12.520078 10
v 8.3723609999999997 47.479921999999995 0
v 8.3723609999999997 47.479921999999995 10
v 8.3723609999999997 52.520077999999998 0
v 8.3723609999999997 52.520077999999998 10
v 8.6313680000000002 7.3303849999999997 0
v 8.6313680000000002 7.3303849999999997 10
v 8.6313680000000002 12.669615 0
v 8.6313680000000002 12.669615 10
v 8.6313680000000002 47.330385 0
v 8.6313680000000002 47.330385 10
v 8.6313680000000002 52.669615 0
v 8.6313680000000002 52.669615 10
v 8.9039769999999994 7.2073789999999995 0
v 8.9039769999999994 7.2073789999999995 10
v 8.9039769999999994 12.792620999999999 0
v 8.9039769999999994 12.792620999999999 10
v 8.9039769999999994 47.207378999999996 0
v 8.9039769999999994 47.207378999999996 10
v 8.9039769999999994 52.792620999999997 0
v 8.9039769999999994 52.792620999999997 10
v 9.1874789999999997 7.1121270000000001 0
v 9.1874789999999997 7.1121270000000001 10
v 9.1874789999999997 12.887872999999999 0
v 9.1874789999999997 12.887872999999999 10
v 9.1874789999999997 47.112127000000001 0
v 9.1874789999999997 47.112127000000001 10
v 9.1874789999999997 52.887872999999999 0
v 9.1874789999999997 52.887872999999999 10
v 9.4790549999999989 7.0455769999999998 0
v 9.4790549999999989 7.0455769999999998 10
v 9.4790549999999989 12.954423 0
v 9.4790549999999989 12.954423 10
v 9.4790549999999989 47.045576999999994 0
v 9.4790549999999989 47.045576999999994 10
v 9.4790549999999989 52.954422999999998 0
v 9.4790549999999989 52.954422999999998 10
v 9.7758099999999999 7.0083889999999993 0
v 9.7758099999999999 7.0083889999999993 10
v 9.7758099999999999 12.991610999999999 0
v 9.7758099999999999 12.991610999999999 10
v 9.7758099999999999 47.008389000000001 0
v 9.7758099999999999 47.008389000000001 10
v 9.7758099999999999 52.991610999999999 0
v 9.7758099999999999 52.991610999999999 10
v 10.074792 7.0009319999999997 0
v 10.074792 7.0009319999999997 10
v 10.074792 12.999067999999999 0
v 10.074792 12.999067999999999 10
v 10.074792 47.000931999999999 0
v 10.074792 47.000931999999999 10
v 10.074792 52.999067999999994 0
v 10.074792 52.999067999999994 10
v 10.373030999999999 7.023282 0
v 10.373030999999999 7.023282 10
v 10.373030999999999 12.976718 0
v 10.373030999999999 12.976718 10
v 10.373030999999999 47.023281999999995 0
v 10.373030999999999 47.023281999999995 10
v 10.373030999999999 52.976717999999998 0
v 10.373030999999999 52.976717999999998 10
v 10.667562999999999 7.0752159999999993 0
v 10.667562999999999 7.0752159999999993 10
v 10.667562999999999 12.924783999999999 0
v 10.667562999999999 12.924783999999999 10
v 10.667562999999999 47.075215999999998 0
v 10.667562999999999 47.075215999999998 10
v 10.667562999999999 52.924783999999995 0
v 10.667562999999999 52.924783999999995 10
v 10.955459999999999 7.156218 0
v 10.955459999999999 7.156218 10
v 10.955459999999999 12.843781999999999 0
v 10.955459999999999 12.843781999999999 10
v 10.955459999999999 47.156217999999996 0
v 10.955459999999999 47.156217999999996 10
v 10.955459999999999 52.843781999999997 0
v 10.955459999999999 52.843781999999997 10
v 11.233860999999999 7.2654819999999996 0
v 11.233860999999999 7.2654819999999996 10
v 11.233860999999999 12.734518 0
v 11.233860999999999 12.734518 10
v 11.233860999999999 47.265481999999999 0
v 11.233860999999999 47.265481999999999 10
v 11.233860999999999 52.734517999999994 0
v 11.233860999999999 52.734517999999994 10
v 11.5 7.4019239999999993 0
v 11.5 7.4019239999999993 10
v 11.5 12.598075999999999 0
v 11.5 12.598075999999999 10
v 11.5 47.401924000000001 0
v 11.5 47.401924000000001 10
v 11.5 52.598075999999999 0
v 11.5 52.598075999999999 10
v 11.751230999999999 7.5641859999999994 0
v 11.751230999999999 7.5641859999999994 10
v 11.751230999999999 12.435813999999999 0
v 11.751230999999999 12.435813999999999 10
v 11.751230999999999 47.564185999999999 0
v 11.751230999999999 47.564185999999999 10
v 11.751230999999999 52.435814000000001 0
v 11.751230999999999 52.435814000000001 10
v 11.985057999999999 7.7506559999999993 0
v 11.985057999999999 7.7506559999999993 10
v 11.985057999999999 12.249343999999999 0
v 11.985057999999999 12.249343999999999 10
v 11.985057999999999 47.750655999999999 0
v 11.985057999999999 47.750655999999999 10
v 11.985057999999999 52.249344000000001 0
v 11.985057999999999 52.249344000000001 10
v 12.199156 7.9594819999999995 0
v 12.199156 7.9594819999999995 10
v 12.199156 12.040517999999999 0
v 12.199156 12.040517999999999 10
v 12.199156 47.959482000000001 0
v 12.199156 47.959482000000001 10
v 12.199156 52.040517999999999 0
v 12.199156 52.040517999999999 10
v 12.391397999999999 8.1885870000000001 0
v 12.391397999999999 8.1885870000000001 10
v 12.391397999999999 11.811413 0
v 12.391397999999999 11.811413 10
v 12.391397999999999 48.188586999999998 0
v 12.391397999999999 48.188586999999998 10
v 12.391397999999999 51.811412999999995 0
v 12.391397999999999 51.811412999999995 10
v 12.559873 8.4356939999999998 0
v 12.559873 8.4356939999999998 10
v 12.559873 11.564306 0
v 12.559873 11.564306 10
v 12.559873 48.435693999999998 0
v 12.559873 48.435693999999998 10
v 12.559873 51.564305999999995 0
v 12.559873 51.564305999999995 10
v 12.702907 8.6983490000000003 0
v 12.702907 8.6983490000000003 10
v 12.702907 11.301651 0
v 12.702907 11.301651 10
v 12.702907 48.698349 0
v 12.702907 48.698349 10
v 12.702907 51.301651 0
v 12.702907 51.301651 10
v 12.819077999999999 8.9739399999999989 0
v 12.819077999999999 8.9739399999999989 10
v 12.819077999999999 11.026059999999999 0
v 12.819077999999999 11.026059999999999 10
v 12.819077999999999 48.973939999999999 0
v 12.819077999999999 48.973939999999999 10
v 12.819077999999999 51.026060000000001 0
v 12.819077999999999 51.026060000000001 10
v 12.907231999999999 9.2597279999999991 0
v 12.907231999999999 9.2597279999999991 10
v 12.907231999999999 10.740271999999999 0
v 12.907231999999999 10.740271999999999 10
v 12.907231999999999 49.259727999999996 0
v 12.907231999999999 49.259727999999996 10
v 12.907231999999999 50.740271999999997 0
v 12.907231999999999 50.740271999999997 10
v 12.966491999999999 9.5528729999999999 0
v 12.966491999999999 9.5528729999999999 10
v 12.966491999999999 10.447127 0
v 12.966491999999999 10.447127 10
v 12.966491999999999 49.552872999999998 0
v 12.966491999999999 49.552872999999998 10
v 12.966491999999999 50.447126999999995 0
v 12.966491999999999 50.447126999999995 10
v 12.996271 9.8504620000000003 0
v 12.996271 9.8504620000000003 10
v 12.996271 10.149538 0
v 12.996271 10.149538 10
v 12.996271 49.850462 0
v 12.996271 49.850462 10
v 12.996271 50.149538 0
v 12.996271 50.149538 10
v 18 15 5
v 18 15 10
v 18 45 5
v 18 45 10
v 72 15 5
v 72 15 10
v 72 45 5
v 72 45 10
v 77 10 0
v 77 10 10
v 77 50 0
v 77 50 10
v 77.014907999999991 9.7012959999999993 0
v 77.014907999999991 9.7012959999999993 10
v 77.014907999999991 10.298703999999999 0
v 77.014907999999991 10.298703999999999 10
v 77.014907999999991 49.701295999999999 0
v 77.014907999999991 49.701295999999999 10
v 77.014907999999991 50.298704000000001 0
v 77.014907999999991 50.298704000000001 10
v 77.059483 9.4055619999999998 0
v 77.059483 9.4055619999999998 10
v 77.059483 10.594438 0
v 77.059483 10.594438 10
v 77.059483 49.405561999999996 0
v 77.059483 49.405561999999996 10
v 77.059483 50.594437999999997 0
v 77.059483 50.594437999999997 10
v 77.133281999999994 9.1157339999999998 0
v 77.133281999999994 9.1157339999999998 10
v 77.133281999999994 10.884266 0
v 77.133281999999994 10.884266 10
v 77.133281999999994 49.115733999999996 0
v 77.133281999999994 49.115733999999996 10
v 77.133281999999994 50.884265999999997 0
v 77.133281999999994 50.884265999999997 10
v 77.235570999999993 8.8346959999999992 0
v 77.235570999999993 8.8346959999999992 10
v 77.235570999999993 11.165303999999999 0
v 77.235570999999993 11.165303999999999 10
v 77.235570999999993 48.834696000000001 0
v 77.235570999999993 48.834696000000001 10
v 77.235570999999993 51.165303999999999 0
v 77.235570999999993 51.165303999999999 10
v 77.365335000000002 8.565237999999999 0
v 77.365335000000002 8.565237999999999 10
v 77.365335000000002 11.434761999999999 0
v 77.365335000000002 11.434761999999999 10
v 77.365335000000002 48.565238000000001 0
v 77.365335000000002 48.565238000000001 10
v 77.365335000000002 51.434761999999999 0
v 77.365335000000002 51.434761999999999 10
v 77.521283999999994 8.310039999999999 0
v 77.521283999999994 8.310039999999999 10
v 77.521283999999994 11.689959999999999 0
v 77.521283999999994 11.689959999999999 10
v 77.521283999999994 48.310040000000001 0
v 77.521283999999994 48.310040000000001 10
v 77.521283999999994 51.689959999999999 0
v 77.521283999999994 51.689959999999999 10
v 77.701866999999993 8.0716369999999991 0
v 77.701866999999993 8.0716369999999991 10
v 77.701866999999993 11.928362999999999 0
v 77.701866999999993 11.928362999999999 10
v 77.701866999999993 48.071636999999996 0
v 77.701866999999993 48.071636999999996 10
v 77.701866999999993 51.928362999999997 0
v 77.701866999999993 51.928362999999997 10
v 77.905289999999994 7.8523989999999992 0
v 77.905289999999994 7.8523989999999992 10
v 77.905289999999994 12.147601 0
v 77.905289999999994 12.147601 10
v 77.905289999999994 47.852398999999998 0
v 77.905289999999994 47.852398999999998 10
v 77.905289999999994 52.147600999999995 0
v 77.905289999999994 52.147600999999995 10
v 78.129531 7.6545059999999996 0
v 78.129531 7.6545059999999996 10
v 78.129531 12.345493999999999 0
v 78.129531 12.345493999999999 10
v 78.129531 47.654505999999998 0
v 78.129531 47.654505999999998 10
v 78.129531 52.345493999999995 0
v 78.129531 52.345493999999995 10
v 78.372360999999998 7.4799219999999993 0
v 78.372360999999998 7.4799219999999993 10
v 78.372360999999998 12.520078 0
v 78.372360999999998 12.520078 10
v 78.372360999999998 47.479921999999995 0
v 78.372360999999998 47.479921999999995 10
v 78.372360999999998 52.520077999999998 0
v 78.372360999999998 52.520077999999998 10
v 78.631367999999995 7.3303849999999997 0
v 78.631367999999995 7.3303849999999997 10
v 78.631367999999995 12.669615 0
v 78.631367999999995 12.669615 10
v 78.631367999999995 47.330385 0
v 78.631367999999995 47.330385 10
v 78.631367999999995 52.669615 0
v 78.631367999999995 52.669615 10
v 78.903976999999998 7.2073789999999995 0
v 78.903976999999998 7.2073789999999995 10
v 78.903976999999998 12.792620999999999 0
v 78.903976999999998 12.792620999999999 10
v 78.903976999999998 47.207378999999996 0
v 78.903976999999998 47.207378999999996 10
v 78.903976999999998 52.792620999999997 0
v 78.903976999999998 52.792620999999997 10
v 79.187478999999996 7.1121270000000001 0
v 79.187478999999996 7.1121270000000001 10
v 79.187478999999996 12.887872999999999 0
v 79.187478999999996 12.887872999999999 10
v 79.187478999999996 47.112127000000001 0
v 79.187478999999996 47.112127000000001 10
v 79.187478999999996 52.887872999999999 0
v 79.187478999999996 52.887872999999999 10
v 79.479055000000002 7.0455769999999998 0
v 79.479055000000002 7.0455769999999998 10
v 79.479055000000002 12.954423 0
v 79.479055000000002 12.954423 10
v 79.479055000000002 47.045576999999994 0
v 79.479055000000002 47.045576999999994 10
v 79.479055000000002 52.954422999999998 0
v 79.479055000000002 52.954422999999998 10
v 79.775809999999993 7.0083889999999993 0
v 79.775809999999993 7.0083889999999993 10
v 79.775809999999993 12.991610999999999 0
v 79.775809999999993 12.991610999999999 10
v 79.775809999999993 47.008389000000001 0
v 79.775809999999993 47.008389000000001 10
v 79.775809999999993 52.991610999999999 0
v 79.775809999999993 52.991610999999999 10
v 80.074792000000002 7.0009319999999997 0
v 80.074792000000002 7.0009319999999997 10
v 80.074792000000002 12.999067999999999 0
v 80.074792000000002 12.999067999999999 10
v 80.074792000000002 47.000931999999999 0
v 80.074792000000002 47.000931999999999 10
v 80.074792000000002 52.999067999999994 0
v 80.074792000000002 52.999067999999994 10
v 80.373030999999997 7.023282 0
v 80.373030999999997 7.023282 10
v 80.373030999999997 12.976718 0
v 80.373030999999997 12.976718 10
v 80.373030999999997 47.023281999999995 0
v 80.373030999999997 47.023281999999995 10
v 80.373030999999997 52.976717999999998 0
v 80.373030999999997 52.976717999999998 10
v 80.667563000000001 7.0752159999999993 0
v 80.667563000000001 7.0752159999999993 10
v 80.667563000000001 12.924783999999999 0
v 80.667563000000001 12.924783999999999 10
v 80.667563000000001 47.075215999999998 0
v 80.667563000000001 47.075215999999998 10
v 80.667563000000001 52.924783999999995 0
v 80.667563000000001 52.924783999999995 10
v 80.955460000000002 7.156218 0
v 80.955460000000002 7.156218 10
v 80.955460000000002 12.843781999999999 0
v 80.955460000000002 12.843781999999999 10
v 80.955460000000002 47.156217999999996 0
v 80.955460000000002 47.156217999999996 10
v 80.955460000000002 52.843781999999997 0
v 80.955460000000002 52.843781999999997 10
v 81.23386099999999 7.2654819999999996 0
v 81.23386099999999 7.2654819999999996 10
v 81.23386099999999 12.734518 0
v 81.23386099999999 12.734518 10
v 81.23386099999999 47.265481999999999 0
v 81.23386099999999 47.265481999999999 10
v 81.23386099999999 52.734517999999994 0
v 81.23386099999999 52.734517999999994 10
v 81.5 7.4019239999999993 0
v 81.5 7.4019239999999993 10
v 81.5 12.598075999999999 0
v 81.5 12.598075999999999 10
v 81.5 47.401924000000001 0
v 81.5 47.401924000000001 10
v 81.5 52.598075999999999 0
v 81.5 52.598075999999999 10
v 81.75123099999999 7.5641859999999994 0
v 81.75123099999999 7.5641859999999994 10
v 81.75123099999999 12.435813999999999 0
v 81.75123099999999 12.435813999999999 10
v 81.75123099999999 47.564185999999999 0
v 81.75123099999999 47.564185999999999 10
v 81.75123099999999 52.435814000000001 0
v 81.75123099999999 52.435814000000001 10
v 81.985057999999995 7.7506559999999993 0
v 81.985057999999995 7.7506559999999993 10
v 81.985057999999995 12.249343999999999 0
v 81.985057999999995 12.249343999999999 10
v 81.985057999999995 47.750655999999999 0
v 81.985057999999995 47.750655999999999 10
v 81.985057999999995 52.249344000000001 0
v 81.985057999999995 52.249344000000001 10
v 82.199156000000002 7.9594819999999995 0
v 82.199156000000002 7.9594819999999995 10
v 82.199156000000002 12.040517999999999 0
v 82.199156000000002 12.040517999999999 10
v 82.199156000000002 47.959482000000001 0
v 82.199156000000002 47.959482000000001 10
v 82.199156000000002 52.040517999999999 0
v 82.199156000000002 52.040517999999999 10
v 82.391397999999995 8.1885870000000001 0
v 82.391397999999995 8.1885870000000001 10
v 82.391397999999995 11.811413 0
v 82.391397999999995 11.811413 10
v 82.391397999999995 48.188586999999998 0
v 82.391397999999995 48.188586999999998 10
v 82.391397999999995 51.811412999999995 0
v 82.391397999999995 51.811412999999995 10
v 82.559872999999996 8.4356939999999998 0
v 82.559872999999996 8.4356939999999998 10
v 82.559872999999996 11.564306 0
v 82.559872999999996 11.564306 10
v 82.559872999999996 48.435693999999998 0
v 82.559872999999996 48.435693999999998 10
v 82.559872999999996 51.564305999999995 0
v 82.559872999999996 51.564305999999995 10
v 82.702906999999996 8.6983490000000003 0
v 82.702906999999996 8.6983490000000003 10
v 82.702906999999996 11.301651 0
v 82.702906999999996 11.301651 10
v 82.702906999999996 48.698349 0
v 82.702906999999996 48.698349 10
v 82.702906999999996 51.301651 0
v 82.702906999999996 51.301651 10
v 82.81907799999999 8.9739399999999989 0
v 82.81907799999999 8.9739399999999989 10
v 82.81907799999999 11.026059999999999 0
v 82.81907799999999 11.026059999999999 10
v 82.81907799999999 48.973939999999999 0
v 82.81907799999999 48.973939999999999 10
v 82.81907799999999 51.026060000000001 0
v 82.81907799999999 51.026060000000001 10
v 82.907231999999993 9.2597279999999991 0
v 82.907231999999993 9.2597279999999991 10
v 82.907231999999993 10.740271999999999 0
v 82.907231999999993 10.740271999999999 10
v 82.907231999999993 49.259727999999996 0
v 82.907231999999993 49.259727999999996 10
v 82.907231999999993 50.740271999999997 0
v 82.907231999999993 50.740271999999997 10
v 82.966492000000002 9.5528729999999999 0
v 82.966492000000002 9.5528729999999999 10
v 82.966492000000002 10.447127 0
v 82.966492000000002 10.447127 10
v 82.966492000000002 49.552872999999998 0
v 82.966492000000002 49.552872999999998 10
v 82.966492000000002 50.447126999999995 0
v 82.966492000000002 50.447126999999995 10
v 82.996270999999993 9.8504620000000003 0
v 82.996270999999993 9.8504620000000003 10
v 82.996270999999993 10.149538 0
v 82.996270999999993 10.149538 10
v 82.996270999999993 49.850462 0
v 82.996270999999993 49.850462 10
v 82.996270999999993 50.149538 0
v 82.996270999999993 50.149538 10
v 90 0 0
v 90 0 10
v 90 60 0
v 90 60 10
vn -0.53823320387978013 -0.4036749029098351 -0.73983213704329054
vn -0.23865311179951734 -0.71595933539855194 0.65608453897654895
vn -0.25329990604601715 0.75989971813805146 -0.59865814616589741
vn -0.58134056887520302 0.4360054266564023 0.68698064813066162
vn 0.94385835636601745 0 -0.330350424728106
vn 0.81923192051904059 0 0.5734623443633281
vn 0.94385835636601745 0 -0.33035042472810611
vn 0.81923192051904037 0 0.57346234436332832
vn 0.77903651837312593 0.077955025120177504 -0.62211342784060752
vn 0.9247213381178796 0.092533114227665705 0.3692263121729113
vn 0.85493863473601461 -0.085550242094216258 -0.51162592478620583
vn 0.95366003526230925 -0.095428892294078166 0.28535217479286229
vn 0.85493863473601417 0.085550242094215703 -0.51162592478620661
vn 0.95366003526230914 0.095428892294077583 0.28535217479286284
vn 0.77903651837312593 -0.077955025120177962 -0.62211342784060752
vn 0.92472133811787938 -0.092533114227666247 0.36922631217291124
vn 0.84859351056424326 0.15690240731029442 -0.50524319729065925
vn 0.84290545562126851 0.1850417186889346 0.5052424717188243
vn 0.95288774246397445 -0.19263055598968248 -0.23430411682472915
vn 0.88294893462451052 -0.17849211046352353 0.43421393960548899
vn 0.93619405908188913 0.17309948727026325 -0.30590399024293302
vn 0.9299185346687594 0.20414356408332199 0.30590345555888365
vn 0.89744445756893254 -0.1814224458217332 -0.40209369770100184
vn 0.73644241367338614 -0.14887515630483905 0.65991572126910791
vn 0.86309305939731307 0.26622767977625911 -0.42917734486006615
vn 0.69267687549018253 0.21366149963619335 0.68887408844749798
vn 0.89885185188653871 -0.27725775382488571 -0.33940165925363286
vn 0.94039196762437038 -0.29007112141034941 0.17754349256254776
vn 0.94039196762437005 0.29007112141035107 -0.17754349256254645
vn 0.89885185188653893 0.27725775382488749 0.33940165925363058
vn 0.69267687549018242 -0.21366149963619266 -0.68887408844749842
vn 0.86309305939731307 -0.26622767977625827 0.42917734486006642
vn 0.75894354902219296 0.33489522348395562 -0.5584352054493249
vn 0.76966281660572278 0.30946492317763369 0.55843586028943992
vn 0.015450925162853619 -0.0065130964381497512 -0.99985941436103865
vn 0.007726277219824048 -0.0032568916171813 0.99996484803082775
vn 0.028943052679279054 0.012771556076632102 -0.9994994682624827
vn 0.029351808037592436 0.011801732945261229 0.99949946996704964
vn 0.82255681010870163 -0.34673598982763559 -0.45074876317306428
vn 0.64836156601692085 -0.27330670246273214 0.71058477756073113
vn 0.60371445883758501 0.32876602798378946 -0.7262518509678334
vn 0.77653786222544086 0.42288082520740744 0.46707682045060261
vn 0.23812253429421365 -0.12967487961788812 -0.96253939361326257
vn 0.43107420654774459 -0.23475096973135892 0.87124451829519067
vn 0.43092514579692165 0.23466979541085198 -0.87134012064275501
vn 0.65671590588940221 0.35762913531795865 0.66394700129121087
vn 0.60371445883758468 -0.32876602798378929 -0.72625185096783373
vn 0.77653786222544063 -0.42288082520740733 0.467076820450603
vn 0.7255567836612189 0.49467702763786414 -0.47839522573971716
vn 0.5586851971685235 0.38090572501578729 0.73673718456106541
vn 0.49139833147290413 -0.32318999048089964 -0.80874959652453726
vn 0.48037660424252016 -0.3393559976487438 0.80874954402228316
vn 0.36048852250302471 0.24577730485754007 -0.89980083438533787
vn 0.19467602618886798 0.13272807884382615 0.97184592498694888
vn 0.67601561024326862 -0.44461176330125413 -0.58764213143848942
vn 0.66085300589851037 -0.4668512769673529 0.58764205924087443
vn 0.60735478854738156 0.52709245829993279 -0.59438514553435728
vn 0.62455130112454649 0.50659842560327673 0.59438515075657572
vn 0.38585211782082363 -0.32376803729539771 -0.86388216858497047
vn 0.21439944011330264 -0.17990230639332763 0.96003543696754423
vn 0.29476214935142658 0.25580913964144159 -0.92069373810493171
vn 0.30310797928099575 0.24586294963289165 0.92069374001021953
vn 0.66996746564773724 -0.5621688760699497 -0.48488117075402859
vn 0.51303806971657695 -0.43048961303638883 0.7426106867594009
vn 0.55092736846342094 0.58396470078915141 -0.59620823787516286
vn 0.57004745438698101 0.56531593752479625 0.59620784171913033
vn 0.17827971686736499 -0.18278146873371887 -0.96685432058880338
vn 0.32609410159079411 -0.33432832338695889 0.88424386290714962
vn 0.24740328212303836 0.26223925673212722 -0.9327497993692252
vn 0.25598961690129396 0.25386484784989244 0.93274967438476208
vn 0.46640098407697494 -0.47817810341186945 -0.74418802964671305
vn 0.60998041195276353 -0.6253830640670871 0.48664146988516965
vn 0.49142079887013718 0.63769875121551134 -0.59316599796011027
vn 0.51235929522189594 0.62100062958858204 0.59316622514292439
vn 0.2123299055191406 -0.26625306072785832 -0.94022620622660824
vn 0.11110696018850441 -0.13932360656417692 0.98399399187780645
vn 0.29145887093258327 0.37821548955949919 -0.87863801989896395
vn 0.30387729816297443 0.36831183748731644 0.87863813827302506
vn 0.54569771771092379 -0.68428273076983637 -0.48370563905671438
vn 0.41829570372252672 -0.52452578986993115 0.74155336962932128
vn 0.36813819257072428 0.5699888811435071 -0.73456582179103125
vn 0.47713289961357686 0.73874553929976361 0.47602439461758878
vn 0.17488492325144334 -0.27077457255078857 -0.94662368155422494
vn 0.30539598034138693 -0.47284502573600551 0.82652941679533676
vn 0.091044092975177862 0.14096369715749552 -0.98581956220092171
vn 0.17485220820638775 0.27072391980053606 0.94664421222187944
vn 0.368138192570728 -0.56998888114350355 -0.73456582179103225
vn 0.47713289961358207 -0.73874553929975961 0.47602439461758983
vn 0.40425267463029302 0.78852581015200496 -0.4634725685284713
vn 0.31524373577668469 0.61490705627610343 0.72284901549038338
vn 0.14066434058512955 -0.27437657208038541 -0.95127863425032722
vn 0.072982157588707394 -0.14235728926693553 0.9871210700143459
vn 0.24820683871828655 0.48414645311771382 -0.83904444289144298
vn 0.14070025188298704 0.27444661981788671 0.95125311667852119
vn 0.40425267463029191 -0.7885258101520054 -0.46347256852847152
vn 0.3152437357766838 -0.61490705627610365 0.72284901549038372
vn 0.25882497407956712 0.65947371991112491 -0.70576486561693808
vn 0.32701877709718147 0.83322828556245754 0.44585798587051423
vn 0.074103070169010216 -0.18881109720953482 -0.97921351326565054
vn 0.13982814700027169 -0.35627546599193838 0.9238592325883298
vn 0.074733566801097939 0.1904175726311319 -0.97885445395444437
vn 0.14088566517661671 0.35896997199201813 0.92265475046508694
vn 0.25882497407956595 -0.65947371991112458 -0.70576486561693863
vn 0.32701877709718019 -0.83322828556245776 0.44585798587051484
vn 0.24542507584515896 0.87229182437103625 -0.42293439831946411
vn 0.19798651913620777 0.70368531570569059 0.68236963201809508
vn 0.11886267423914174 -0.39701041356384864 -0.91008482912011102
vn 0.10559079759561922 -0.40074397027147796 0.91008508050301185
vn 0.078637865041331301 0.27949534710472212 -0.95692133277953018
vn 0.040624155342272622 0.14438670724665464 0.98868708739074562
vn 0.24352251255211929 -0.81338379806186856 -0.5283025486695595
vn 0.21633165506254889 -0.82103372944654363 0.52830316119534837
vn 0.13647771172749809 0.85714851739241504 -0.49665909166510852
vn 0.16491314329629039 0.85213420310537413 0.4966597981174905
vn 0.049550751954989904 -0.28101798230572406 -0.95842246248797558
vn 0.025568402648930046 -0.14500649616194339 0.98910028452974286
vn 0.064149967406899683 0.40289398728627807 -0.9129957374984059
vn 0.077515668384727524 0.40053661574155436 0.91299602441914895
vn 0.15956898895383537 -0.90496619213980445 -0.39442861058527867
vn 0.13175728034667833 -0.74723719855445181 0.65136517267362526
vn 0.051692535825714946 0.88768749686093185 -0.45753556108425109
vn 0.081189806976925363 0.88547716946036248 0.45753513264831819
vn 0.016423877415216719 -0.28203821690271813 -0.95926258159952482
vn 0.025795843412407708 -0.2813361831880446 0.95926249092301408
vn 0.016448358920523078 0.28245862433327174 -0.95913845560929178
vn 0.025834294804958111 0.28175554408453624 0.95913836467402214
vn 0.051692535825706314 -0.88768749686093495 -0.45753556108424565
vn 0.081189806976921242 -0.88547716946036559 0.45753513264831275
vn -0.037898042459795035 0.91120965284877842 -0.41019593724575593
vn -0.0075667889997030622 0.91196597658685741 0.41019605221432043
vn -0.0047978569547668165 -0.19239783310165812 -0.98130528093271163
vn -0.0005746802120985973 -0.023045127976214365 0.99973426060089277
vn -0.011723622942019188 0.28187942431231228 -0.95937820843214516
vn -0.00025577852998047689 0.030826988421780572 0.99952470272734473
vn -0.02066501633965178 -0.82868338973897626 -0.55933603197934778
vn -0.023621289890609583 -0.94723228159263118 0.31967646046076342
vn -0.10812498297181439 0.86281506490207382 -0.49382097144144765
vn -0.11961535926457204 0.95450589799445273 0.27314951312753738
vn -0.043760776850479098 -0.40349452347564352 -0.91393498889943259
vn -0.13817468268043948 -0.9713575755153816 0.19331895291212345
vn -0.018197758403935879 0.1452143590390885 -0.98923284999940175
vn -0.12300772594372297 0.98157628446755396 0.14620908702616736
vn -0.10083906029070053 -0.92978259318275058 -0.35402798382903006
vn -0.13171037136313435 -0.9259139555500937 0.35402785906332923
vn -0.21703812317929763 0.95090342003065431 -0.22062896197193402
vn -0.20273921640956769 0.88825599592441495 0.4121869670840651
vn -0.059193316440685768 -0.280793151831772 -0.95794120757650492
vn -0.23192427569147051 -0.94349637355427196 0.2366975357601436
vn -0.082885687009009848 0.36314488023537828 -0.92803866236697119
vn -0.20900017780290694 0.91568698138629423 0.34327289114931514
vn -0.19748951702865961 -0.93682373745316638 -0.28871989125806247
vn -0.22854183549830939 -0.92973619236368654 0.28872000629699646
vn -0.32643169783968001 0.92056397934590894 -0.21448614541813293
vn -0.29563126068397932 0.93091239925074287 0.21448604296696402
vn -0.088636461913113279 -0.27910709182016286 -0.95616045144903183
vn -0.32134375449479929 -0.90621556464462161 0.27479363501183185
vn -0.098543066395921766 0.27789947464884174 -0.95554233085467588
vn -0.29102339413251888 0.91640270194430384 0.27479350781408224
vn -0.29563126068397766 -0.93091239925074376 -0.21448604296696269
vn -0.32643169783968451 -0.92056397934590795 0.21448614541813113
vn -0.42264514298181016 0.89658860406793339 -0.13228740744832762
vn -0.39258749182660713 0.91015112012643784 0.13228756477418552
vn -0.091790792446280745 -0.21280222702350887 -0.97277420946277093
vn -0.40573466428245791 -0.86071514676470595 0.30748791574533757
vn -0.18345909719775799 0.38918543982221171 -0.90270562925339903
vn -0.37687961635676104 0.87373493073849173 0.30748825275477343
vn -0.0053184647053610744 -0.012330007220594807 -0.99990983836299863
vn -0.0057256687882938657 -0.012146287426927188 0.99990983814475465
vn -0.0088808946320850998 0.01480773960577402 -0.9998509191666034
vn -0.00838345078526633 0.01509495466191404 0.99985091893576106
vn -0.1538214380797514 -0.27696561873124798 -0.94848774964566307
vn -0.48465518719735234 -0.8080996462538903 0.33478995093496555
vn -0.16097891163872549 0.26841145000810485 -0.94975843429377238
vn -0.45750797472610677 0.82377320662415565 0.33478972073552737
vn -0.15155332134013966 -0.27288172532872779 -0.95003534395957567
vn -0.16054596295487081 -0.267689564247859 0.95003541564074589
vn -0.14894103818866491 0.20005806824013767 -0.96839730300910432
vn -0.142204211189457 0.2049014204716175 0.96839732042622761
vn -0.1901113664059137 -0.27393062904778387 -0.94277233669256644
vn -0.55786510577739534 -0.74932615454871609 0.35678682411940188
vn -0.19607072166037004 0.26336280645590876 -0.94456143489094935
vn -0.5326321534477767 0.76746731983137051 0.35678691414405428
vn -0.0095302930205711407 -0.013732157163926246 -0.99986029092797124
vn -0.0099817842964569012 -0.013407563880475835 0.99986029084720141
vn -0.1503510383887528 0.16476116659753778 -0.97480681329012175
vn -0.14478718407128405 0.16967122917971522 0.97480682461570445
vn -0.23052016873599948 -0.27013882914454507 -0.93481841273818556
vn -0.62525570586281709 -0.6851822283618566 0.37360489320011714
vn -0.23481645622296715 0.25732202236981461 -0.93736151440647275
vn -0.60211775778029408 0.70560154014196519 0.37360496826851464
vn -0.14478718407128383 -0.16967122917971447 -0.97480682461570456
vn -0.15035103838875302 -0.16476116659753706 0.97480681329012187
vn -0.10061608205207589 0.093357946299851946 -0.99053556114617314
vn -0.19577578170048809 0.18165311689781319 0.96367732588292865
vn -0.27668801731093184 -0.26542853047490889 -0.92357535495836829
vn -0.68677885062453203 -0.61629875743518203 0.3853707979578852
vn -0.19052093569893194 0.17677733937972928 -0.96563530659469343
vn -0.69953147962896356 0.64906942288267755 0.29893911300942344
vn -0.14687436886536703 -0.14089749267513105 -0.97906885167911539
vn -0.15147960169831329 -0.13593413690382256 0.97906886412219918
vn -0.14860671094449593 0.11650565387925867 -0.98200940834414874
vn -0.15239964493005126 0.11149807056060146 0.982009434010925
vn -0.33097854383221131 -0.25948270723506689 -0.90726067266727128
vn -0.74240680285904481 -0.54315694848135421 0.39218958219850114
vn -0.32146181651097966 0.2520217215749736 -0.91276905752761339
vn -0.74240680285904437 0.54315694848135521 0.39218958219850081
vn -0.14860671094449704 -0.11650565387925838 -0.98200940834414885
vn -0.15239964493005162 -0.11149807056060118 0.982009434010925
vn -0.19969994088065959 0.12203406468860671 -0.97222817315064369
vn -0.011488528492858965 0.007020491959545851 0.99990935909497058
vn -0.0021156538568806813 -0.0012928488535886272 -0.9999969262705759
vn -0.71760896289428566 -0.43852160502790832 0.54105099417479563
vn -0.0042149288698144069 0.0025756888063586825 -0.99998780002647791
vn -0.71760896289428644 0.43852160502790721 0.54105099417479563
vn -0.19969994088065887 -0.12203406468860757 -0.9722281731506438
vn -0.011488528492858856 -0.0070204919595458579 0.99990935909497058
vn -0.15372128020046111 0.070902747450077033 -0.98556713034554988
vn -0.88549148460135718 0.44472314215435527 0.13463341907134932
vn -0.10248566465435759 -0.049354378307934814 -0.99350935268984342
vn -0.85838887348414616 -0.41337731808774697 0.3037889641991629
vn -0.15372128020046114 0.070902747450076881 -0.98556713034554977
vn -0.8224076994624574 0.41304037655600118 0.39120739154487533
vn -0.10248566465435714 -0.049354378307935251 -0.99350935268984353
vn -0.89632619370270394 -0.43164692545548278 0.10139174634678845
vn -0.15413854179202952 0.053215347817833811 -0.98661514112183257
vn -0.91793887369958771 0.35150093463950044 0.18394378787741189
vn -0.20220226725685084 -0.073595517925066314 -0.97657459666813484
vn -0.79765839707766628 -0.29032356390761538 0.52863343614594471
vn -0.15413854179202982 0.053215347817834359 -0.98661514112183246
vn -0.86251064556759705 0.33027612920634358 0.38339674589000056
vn -0.20220226725685023 -0.073595517925065856 -0.97657459666813495
vn -0.90471525313778511 -0.32928902594749049 0.2702943731015986
vn -0.15439262565524145 0.036589549919469631 -0.98733181959256799
vn -0.93934492060944685 0.25589710930823334 0.22835890517543248
vn -0.10321879871113707 -0.026282654457775816 -0.99431137058130981
vn -0.92838140412582826 -0.2363942223155435 0.28675030972814158
vn -0.15439262565524178 0.036589549919469708 -0.98733181959256788
vn -0.89612725232809198 0.2441237168710185 0.37062050468907293
vn -0.1032187987111375 -0.026282654457775605 -0.99431137058130992
vn -0.95441780295975465 -0.24302388360226007 0.17328026255852166
vn -0.15448133901611288 0.020662713606668853 -0.98777961517850621
vn -0.95026531579146956 0.15943742985924572 0.26753604535392356
vn -0.15370851939901337 -0.025789525170701592 -0.98777962696931187
vn -0.92745140869936993 -0.12405163603649159 0.35276773675922268
vn -0.15448133901611258 0.020662713606668687 -0.98777961517850621
vn -0.92281205863598814 0.15483126704408484 0.35276788853512858
vn -0.15370851939901484 -0.02578952517070179 -0.98777962696931154
vn -0.9550426596884144 -0.12774211490512075 0.26753592329787507
vn -0.1035363529724508 0.0051674039120222426 -0.99461224683289218
vn -0.97182725665745961 0.048503002314537969 0.23064960867972864
vn -0.20381335375645165 -0.010172136561577514 -0.97895691655369599
vn -0.88468688276973972 -0.04415390660085855 0.46409002573535607
vn -0.10353635297245091 0.005167403912022233 -0.99461224683289229
vn -0.96615550271206241 0.048219930304716579 0.25341346235078005
vn -0.20381335375645068 -0.010172136561577557 -0.97895691655369621
vn -0.90247545275852403 -0.045041717727196236 0.42837985577344861
vn 0.045618842940895903 0.16422783458722526 0.98536700752335149
vn 0.26531646604800807 0.23878481944320726 0.93412471482520532
vn 0.17969227094577367 -0.16172304385119629 0.97033826310717786
vn 0.10421675156075121 -0.3751803056187043 0.9210747021658886
vn -0.17969227094577367 0.16172304385119629 0.97033826310717786
vn -0.14050640808092532 0.50582306909133112 0.8511174842894621
vn -0.045618842940895903 -0.16422783458722526 0.98536700752335149
vn -0.39913494774015124 -0.35922145296613611 0.84359423968005176
vn 0.20384657453807281 0 -0.97900284680336558
vn 0.89442719099991574 0 0.44721359549995815
vn 0.20384657453807298 0 -0.97900284680336547
vn 0.89442719099991597 0 0.44721359549995798
vn 0.10349656370394905 0.010356481414044891 -0.99457589182233608
vn 0.97115107253832933 0.097179149461840572 0.21776548674554935
vn 0.10349656370394905 -0.010356481414044891 -0.99457589182233608
vn 0.95992642264078831 -0.0960559442665882 0.26327650614347015
vn 0.10349656370394904 0.010356481414044829 -0.99457589182233597
vn 0.95992642264078842 0.096055944266587645 0.2632765061434697
vn 0.10349656370394945 -0.010356481414044993 -0.99457589182233597
vn 0.97115107253832922 -0.097179149461841155 0.21776548674554919
vn 0.15445795174426485 0.02855881426759915 -0.98758652039737516
vn 0.94607363530805788 0.20769006810456198 0.24861518896824897
vn 0.20331355909574719 -0.041100753198466615 -0.97825064516939564
vn 0.84669730687878897 -0.17116368036940918 0.50379228363146333
vn 0.15445795174426516 0.028558814267598976 -0.98758652039737516
vn 0.91036889109261399 0.19985186135086921 0.36233646745172848
vn 0.2033135590957458 -0.041100753198466712 -0.97825064516939597
vn 0.91470183048199527 -0.18491110161089533 0.35934446679186838
vn 0.2026420572797574 0.062506498166428642 -0.9772559205798641
vn 0.91087942944997702 0.2809677524550086 0.30225119864984062
vn 0.10307418896458875 -0.03179402484365125 -0.99416540452458591
vn 0.91377138667385427 -0.28185979886106288 0.29253530843667852
vn 0.20264205727975759 0.062506498166429281 -0.97725592057986399
vn 0.81511040881379493 0.25142706286098482 0.52189985007135842
vn 0.10307418896458855 -0.031794024843650986 -0.99416540452458602
vn 0.94378569534948498 -0.29111794277937864 0.15658513545541736
vn 0.15180594355409383 0.066986649347297506 -0.98613779174660654
vn 0.91587665519693628 0.3682543740266298 0.15987078681087163
vn 0.20169050283671958 -0.085019484709736151 -0.97575233962576902
vn 0.77916174355389134 -0.32844347656825373 0.53388375146825628
vn 0.1518059435540938 0.066986649347297922 -0.98613779174660643
vn 0.85515723862854098 0.34384039796033894 0.38791735969363927
vn 0.20169050283672044 -0.085019484709735957 -0.97575233962576891
vn 0.89542624299372531 -0.37745296235654541 0.23609554118282375
vn 0.10223857278062583 0.055676270441720022 -0.99320059763649005
vn 0.87530298912609328 0.47666555406244177 0.081453218458644519
vn 0.0021445474321113919 -0.0011678606181399708 -0.99999701850449951
vn 0.83623195616509327 -0.45538856106057723 0.3055116592594766
vn 0.0010836329346876322 0.00059011622218826932 -0.99999923875096386
vn 0.83623195616509327 0.45538856106057723 0.3055116592594766
vn 0.10223857278062654 -0.055676270441720403 -0.99320059763649005
vn 0.87530298912609328 -0.47666555406244177 0.081453218458645116
vn 0.19887034885021329 0.1355877241724758 -0.97060112991997027
vn 0.0060167496746110398 0.0041021570083856181 0.99997348516409756
vn 0.28557864985525944 -0.1878235134653804 -0.93976973910440809
vn 0.7507690474815375 -0.53037133128836411 0.39376654033967035
vn 0.57512708729351014 0.39211563376300373 -0.717965293882595
vn 0.69507907230623667 0.47389764275468199 0.54063491140829723
vn 0.15279248563661202 -0.10049078072860942 -0.98313582953808576
vn 0.0089224673200390438 -0.006303164584075936 0.9999403280662047
vn 0.14777914655056335 0.12825003623845763 -0.98066979766362816
vn 0.15196333219843333 0.12326350886234348 0.98066979817372346
vn 0.49978002960583062 -0.41936480789268449 -0.75786085788113289
vn 0.64690706436082912 -0.54281892172454793 0.53559207266151099
vn 0.23207413622032938 0.20140538820937273 -0.95161833993351552
vn 0.7153325097312756 0.58023467817647345 0.38939327005355218
vn 0.19691966091258636 -0.16523504517383561 -0.96639537819283483
vn 0.10099426808347546 -0.084744166081411887 0.99127119605557446
vn 0.14588141117101314 0.1546294475491061 -0.97714295158150333
vn 0.15094435895259181 0.14969148820623823 0.97714290605775411
vn 0.17827971686736277 -0.18278146873371962 -0.96685432058880372
vn 0.66725271136534836 -0.68410154976099957 0.29458256701677016
vn 0.24740328212303361 0.26223925673212756 -0.93274979936922631
vn 0.65675165419546144 0.65130047376798639 0.3801117698534488
vn 0.10020813946197477 -0.10273850122591448 -0.98964798244194996
vn 0.19449728965792396 -0.1994085524314142 0.96042023798591913
vn 0.14357074653947019 0.1863064933144872 -0.97194512771398678
vn 0.14968796785131064 0.18142800012487842 0.97194515948752591
vn 0.21232990551913861 -0.26625306072785837 -0.94022620622660857
vn 0.53706154440493559 -0.67345332089433707 0.50796212663718765
vn 0.29145887093258094 0.37821548955949758 -0.87863801989896528
vn 0.59229183005428909 0.71788216354032308 0.36583546482210544
vn 0.19143317338069585 -0.24004940902148311 -0.95169828273346857
vn 0.099291000068519486 -0.12450687342575099 0.98723823658483645
vn 0.098197654963955092 0.15203956724231332 -0.98348420961007299
vn 0.1874024571692389 0.29015548791481693 0.93845091074591969
vn 0.17488492325144511 -0.27077457255078846 -0.94662368155422461
vn 0.52285474909181406 -0.80953674312983304 0.26697035954367437
vn 0.091044092975178806 0.14096369715749549 -0.9858195622009216
vn 0.52285474909181029 0.80953674312983603 0.2669703595436731
vn 0.14493161370070193 -0.22439782126032323 -0.96365992194535643
vn 0.26306902176496372 -0.40731013626226192 0.8745816958327236
vn 0.0046662738681480416 0.0091019246456133154 -0.99994768905974929
vn 0.002333228473506881 0.0045511408774829452 0.99998692149527824
vn 0.14066434058512955 -0.27437657208038541 -0.95127863425032722
vn 0.40642368294669223 -0.79276052818597242 0.45425822490115092
vn 0.24820683871828655 0.48414645311771382 -0.83904444289144298
vn 0.40642368294669223 0.79276052818597242 0.45425822490115092
vn 0.010939288928479941 -0.021337921073015312 -0.99971247120460638
vn 0.0054708241864448916 -0.010671261675042462 0.99992809454329457
vn 0.35310556169049284 0.89969617158254211 -0.2566383859498782
vn 0.36216382612595815 0.92277619840158687 0.13161098247988984
vn 0.10886140329489655 -0.27737367632677251 -0.95457479463562045
vn 0.35613457809198434 -0.90741396126287754 0.22308757292251266
vn 0.056320066814945162 0.14350085072036867 -0.98804633287943056
vn 0.35613457809198434 0.90741396126287754 0.22308757292251252
vn 0.3531055616904914 -0.89969617158254211 -0.2566383859498802
vn 0.36216382612595682 -0.92277619840158731 0.13161098247989092
vn 0.26578905149312287 0.94466963421072436 -0.19223803553553712
vn 0.25217740674593192 0.89629101442898407 0.36478620174118348
vn 0.063650153942257565 -0.21259637730493713 -0.97506483797742582
vn 0.24627223702964529 -0.93466586371343519 0.25641705964547745
vn 0.14054817757328447 0.49953748941600967 -0.85481489601479133
vn 0.2516437630168214 0.89439433349518216 0.36977586825865594
vn 0.27750847602615258 -0.92689951273480142 -0.25267833113591287
vn 0.24652295209667285 -0.93561739124856247 0.25267871157415667
vn 0.14883966862915773 0.93478781025718194 -0.32251899608696755
vn 0.17985078956470177 0.9293195568302377 0.32251954171151209
vn 0.063971457581398994 -0.36280236374637909 -0.92966773498651201
vn 0.16483536305366783 -0.93483346488969321 0.31450865808320161
vn 0.044960392586518669 0.28237382763175556 -0.95825027240646155
vn 0.18553324287337011 0.95868175759285945 0.21565412921517832
vn 0.16823926541148446 -0.95413807147625362 -0.24762085964914102
vn 0.15461833764231489 -0.87688948315410298 0.45514613477262122
vn 0.053695604500288527 0.92208509390991644 -0.3832438670696367
vn 0.084335878918455995 0.91978904901066005 0.38324347984945162
vn 0.016423877415216587 -0.28203821690271813 -0.95926258159952493
vn 0.089982551772511632 -0.9813731330460046 0.16973483470394704
vn 0.016448358920523275 0.28245862433327734 -0.95913845560929001
vn 0.089982551772501987 0.98137313304600593 0.16973483470394413
vn 0.053695604500279305 -0.92208509390991522 -0.38324386706964098
vn 0.084335878918451304 -0.91978904901065872 0.38324347984945578
vn -0.037418698267379154 0.89968443870006209 -0.43493419247160714
vn -0.0074710822528211256 0.90043118991718096 0.43493431130953675
vn -0.0070358996417033155 -0.28214510306305174 -0.95934594226158676
vn -0.0010429010721593438 -0.041821152300820848 0.99912456859872345
vn -0.0089509753834518431 0.2152146824065744 -0.97652573981248547
vn -0.00013825941184446571 0.016663327013635286 0.99986114756858702
vn -0.020186774799547884 -0.80950552827236322 -0.58676510957935679
vn -0.023438475987273034 -0.93990130044951525 0.34064084202676609
vn -0.096312336582417085 0.76855258290205419 -0.63249574001459996
vn -0.11511839679315283 0.91862106490595929 0.3779988013616119
vn -0.023362135704471865 -0.21540965430429629 -0.97624427857367213
vn -0.030514332311293645 -0.21451344976792178 0.97624426010720344
vn -0.035293582883845133 0.28163551262236952 -0.95887215051703123
vn -0.063345927362000565 0.5054874361679641 0.86050551733442504
vn -0.094702004963091072 -0.87319611567531086 -0.47807956850875738
vn -0.12369449621343884 -0.86956295911575188 0.47807941990882702
vn -0.20301895805064413 0.88948162061803893 -0.40939681148579782
vn -0.1656088376906984 0.7255776443352937 0.66791526028350467
vn -0.084740020643547034 -0.40197811025902325 -0.91171965415576939
vn -0.098064109192315535 -0.39893681298746142 0.91171972103916055
vn -0.063986348145773836 0.28034170400941044 -0.95776525111535971
vn -0.033033851992916564 0.14473034680133626 0.98891955756637506
vn -0.1770176020571588 -0.83971186951720944 -0.51336998817017587
vn -0.20485099730677805 -0.83335895952108108 0.51337015251021334
vn -0.2809599640486834 0.79232998588439407 -0.54154842079928389
vn -0.25445004025823392 0.80123697648959269 0.54154822917114143
vn -0.088636461913114209 -0.27910709182016286 -0.95616045144903172
vn -0.097871037412477019 -0.27600429817140182 0.95616049250464086
vn -0.098543066395924445 0.27789947464884168 -0.95554233085467555
vn -0.089245081866497683 0.28102357338481626 0.95554228926022478
vn -0.25445004025823226 -0.80123697648959269 -0.5415482291711422
vn -0.28095996404868717 -0.79232998588439285 0.541548420799284
vn -0.35230551548046007 0.7473719160748904 -0.56330812423095245
vn -0.32725015484248843 0.75867698587550636 0.56330858972540443
vn -0.11936284177675402 -0.27672360023270165 -0.95350750446822885
vn -0.12850175013259962 -0.27260032839566467 0.95350739964167808
vn -0.12970704236430608 0.27515720453031828 -0.95260936167778909
vn -0.12048241515127149 0.27931915149730513 0.95260946837943095
vn -0.3272501548424907 -0.75867698587550603 -0.56330858972540376
vn -0.35230551548045591 -0.74737191607489206 0.56330812423095311
vn -0.41926495429787297 0.69906991651942907 -0.57923928554192605
vn -0.39578054330305112 0.71262890547732083 0.57923898748352332
vn -0.11722673273409659 -0.21107444429630537 -0.97041510298299394
vn -0.12418255142160775 -0.20705829324765312 0.97041514679017071
vn -0.22918134733264334 0.38213016305153741 -0.89523876620765253
vn -0.21634422328974978 0.38954200669552141 0.89523862856155922
vn -0.39578054330304402 -0.7126289054773256 -0.57923898748352243
vn -0.41926495429786814 -0.69906991651943307 0.57923928554192461
vn -0.48224305011039148 0.64775037290333171 -0.58979750340589043
vn -0.46043055072885769 0.66343234904048376 0.58979761461211977
vn -0.19011136640591353 -0.27393062904777898 -0.94277233669256799
vn -0.19911775921534039 -0.2674555968279641 0.94277230638710385
vn -0.19607072166037293 0.26336280645591331 -0.94456143489094757
vn -0.18720215071496196 0.2697387529946863 0.94456146433176302
vn -0.46043055072885553 -0.6634323490404852 -0.58979761461211977
vn -0.48224305011039059 -0.64775037290333259 0.58979750340588999
vn -0.5416158914476743 0.59352610450186205 -0.59529739576633944
vn -0.521573056783742 0.61121391523127622 0.59529748551872608
vn -0.31871251487989483 -0.37348847207365771 -0.87116513594554357
vn -0.33095992387817408 -0.36268018990469914 0.8711650869021581
vn -0.18281985449094659 0.20034189870533214 -0.96251754499699982
vn -0.17605446796312266 0.20631230708359971 0.96251756153125034
vn -0.52157305678374277 -0.61121391523127522 -0.5952974855187263
vn -0.54161589144767608 -0.5935261045018605 0.59529739576633922
vn -0.4898711587310613 0.45453335488645286 -0.74392585459785787
vn -0.64051550538241553 0.59431068012333077 0.48634833489593954
vn -0.27018911363757397 -0.2591940918877898 -0.92726278130970285
vn -0.2786608778191369 -0.25006354314719637 0.92726282119026981
vn -0.19550601888915359 0.18140281394881588 -0.96377923596099813
vn -0.35496876969959051 0.32936241069879046 0.87493861210752399
vn -0.57951467039990312 -0.5559320163114968 -0.59590464004832633
vn -0.59768541224597416 -0.53634845710427959 0.59590475795232478
vn -0.63446512390642373 0.49741208626782507 -0.5916377464133743
vn -0.65065906195398426 0.47603280200513115 0.59163802828444412
vn -0.32146181651098671 -0.25202172157497299 -0.91276905752761106
vn -0.32966661528755581 -0.24118948275553515 0.91276916916215134
vn -0.33097854383221292 0.2594827072350645 -0.9072606726672714
vn -0.33942624434858937 0.24832978685658447 0.9072607902952573
vn -0.63446512390642662 -0.49741208626782224 -0.59163774641337352
vn -0.65065906195398526 -0.47603280200512943 0.59163802828444467
vn -0.75164241315512093 0.45931900863449832 -0.47334948088422796
vn -0.58125924113632821 0.35520004423071339 0.73210014558946723
vn -0.3938540309388523 -0.24067913128819179 -0.88710346525959349
vn -0.21483757124135847 -0.13128447585309319 0.96778572234926719
vn -0.61515304600071308 0.37591211233209998 -0.69302006738482214
vn -0.39374438472235967 0.24061212789591499 0.88717031251559042
vn -0.75164241315511859 -0.4593190086345017 -0.47334948088422862
vn -0.58125924113632599 -0.35520004423071572 0.73210014558946779
vn -0.74747525429620199 0.34476715983259965 -0.56781717983501612
vn -0.73559382449193 0.36943957414187956 0.56781698321484064
vn -0.019292093084120152 -0.0092905604275168724 -0.99977072403195355
vn -0.038557677274811825 -0.018568354874940761 0.99908384118671945
vn -0.01127058607236856 0.0051984703540159704 -0.99992297193112023
vn -0.011091439262696907 0.0055704880348355938 0.99992297185239998
vn -0.62607797294401901 -0.30150254897751733 -0.71911235892200331
vn -0.80019648239905927 -0.38535340572943605 0.45955232808560181
vn -0.79095184529078877 0.2730710766104027 -0.54756494185615245
vn -0.7814312879029609 0.29922888759183902 0.54756480449063771
vn -0.9294543675391862 -0.33829331636459764 -0.1472148456011601
vn -0.9006371923264137 -0.32780473498668777 0.28530107521476655
vn -0.92717600290095759 0.32010159762180534 -0.19462689137056954
vn -0.91601565174166066 0.35076448656533643 0.1946268242788147
vn -0.84354937437762145 -0.30702649354483236 -0.44063497960181097
vn -0.67056630674329565 -0.24406588174000357 0.70055169233335746
vn -0.83052032361346373 0.19682523508505659 -0.52105260665186193
vn -0.82351372082120144 0.22434227940158821 0.52105248612027555
vn -0.89273066162730197 -0.22731645588200691 -0.38904909031602064
vn -0.94816917518551036 -0.24143279237978887 0.20660450622318641
vn -0.93664244248831452 0.22197514460730469 -0.27097595853892809
vn -0.9287404924963365 0.25300824235376712 0.27097587881344681
vn -0.71465575692983307 -0.18197315363273778 -0.67539093897090674
vn -0.88109310381316741 -0.22435317870206628 0.41634191912316226
vn -0.86535543046710839 0.11574596350340172 -0.48760932199226348
vn -0.86102665248435972 0.1444647870769474 0.48760950463089814
vn -0.92797367746300896 -0.15569729385367792 -0.33856049182150694
vn -0.93263897257393413 -0.12474550072809183 0.33856034452418415
vn -0.9326389725739338 0.12474550072809078 -0.33856034452418526
vn -0.92797367746300918 0.15569729385367639 0.33856049182150755
vn -0.86102665248436028 -0.14446478707694776 -0.48760950463089703
vn -0.86535543046710717 -0.11574596350340272 0.48760932199226531
vn -0.79954097698346482 0.039904352951125252 -0.59928446395670787
vn -0.93537968773581992 0.046683937755819881 0.35055020999401909
vn -0.95000390973495719 -0.047413819191654348 -0.30861707865566423
vn -0.8378184350137402 -0.041814745588003931 0.54434529207345761
vn -0.83781843501374009 0.041814745588003799 -0.54434529207345761
vn -0.95000390973495719 0.047413819191654209 0.30861707865566429
vn -0.9353796877358197 -0.04668393775582029 -0.3505502099940192
vn -0.79954097698346471 -0.039904352951125606 0.59928446395670798
vn 0.25263361130940493 -0.75790083392821472 -0.60146702683329623
vn 0.57932938784545784 -0.43449704088409341 0.68963017758909995
vn 0.53553480827606736 0.40165110620705058 -0.74288549454634556
vn 0.23771067436886117 0.71313202310658352 0.6594970454149226
f 1//1 2//2 4//4
f 1//1 3//3 35//35
f 1//1 4//4 3//3
f 1//1 5//5 9//9
f 1//1 9//9 17//17
f 1//1 11//11 5//5
f 1//1 17//17 25//25
f 1//1 19//19 11//11
f 1//1 25//25 33//33
f 1//1 27//27 19//19
f 1//1 33//33 41//41
f 1//1 35//35 27//27
f 1//1 41//41 49//49
f 1//1 49//49 57//57
f 1//1 57//57 65//65
f 1//1 65//65 73//73
f 1//1 73//73 81//81
f 1//1 81//81 89//89
f 1//1 89//89 97//97
f 1//1 97//97 105//105
f 1//1 105//105 113//113
f 1//1 113//113 121//121
f 1//1 121//121 129//129
f 1//1 129//129 137//137
f 1//1 137//137 145//145
f 1//1 145//145 153//153
f 1//1 153//153 161//161
f 1//1 161//161 169//169
f 1//1 169//169 349//349
f 1//1 349//349 517//517
f 1//1 517//517 2//2
f 2//2 6//6 12//12
f 2//2 10//10 6//6
f 2//2 12//12 20//20
f 2//2 18//18 10//10
f 2//2 20//20 28//28
f 2//2 26//26 18//18
f 2//2 28//28 36//36
f 2//2 34//34 26//26
f 2//2 36//36 4//4
f 2//2 42//42 34//34
f 2//2 50//50 42//42
f 2//2 58//58 50//50
f 2//2 66//66 58//58
f 2//2 74//74 66//66
f 2//2 82//82 74//74
f 2//2 90//90 82//82
f 2//2 98//98 90//90
f 2//2 106//106 98//98
f 2//2 114//114 106//106
f 2//2 122//122 114//114
f 2//2 130//130 122//122
f 2//2 138//138 130//130
f 2//2 146//146 138//138
f 2//2 154//154 146//146
f 2//2 162//162 154//154
f 2//2 170//170 162//162
f 2//2 350//350 170//170
f 2//2 517//517 518//518
f 2//2 518//518 350//350
f 3//3 4//4 520//520
f 3//3 7//7 13//13
f 3//3 13//13 21//21
f 3//3 15//15 7//7
f 3//3 21//21 29//29
f 3//3 23//23 15//15
f 3//3 29//29 37//37
f 3//3 31//31 23//23
f 3//3 37//37 35//35
f 3//3 39//39 31//31
f 3//3 47//47 39//39
f 3//3 55//55 47//47
f 3//3 63//63 55//55
f 3//3 71//71 63//63
f 3//3 79//79 71//71
f 3//3 87//87 79//79
f 3//3 95//95 87//87
f 3//3 103//103 95//95
f 3//3 111//111 103//103
f 3//3 119//119 111//111
f 3//3 127//127 119//119
f 3//3 135//135 127//127
f 3//3 143//143 135//135
f 3//3 151//151 143//143
f 3//3 159//159 151//151
f 3//3 167//167 159//159
f 3//3 519//519 167//167
f 3//3 520//520 519//519
f 4//4 8//8 16//16
f 4//4 14//14 8//8
f 4//4 16//16 24//24
f 4//4 22//22 14//14
f 4//4 24//24 32//32
f 4//4 30//30 22//22
f 4//4 32//32 40//40
f 4//4 36//36 38//38
f 4//4 38//38 30//30
f 4//4 40//40 48//48
f 4//4 48//48 56//56
f 4//4 56//56 64//64
f 4//4 64//64 72//72
f 4//4 72//72 80//80
f 4//4 80//80 88//88
f 4//4 88//88 96//96
f 4//4 96//96 104//104
f 4//4 104//104 112//112
f 4//4 112//112 120//120
f 4//4 120//120 128//128
f 4//4 128//128 136//136
f 4//4 136//136 144//144
f 4//4 144//144 152//152
f 4//4 152//152 160//160
f 4//4 160//160 168//168
f 4//4 168//168 520//520
f 5//5 6//6 10//10
f 5//5 10//10 9//9
f 5//5 11//11 12//12
f 5//5 12//12 6//6
f 7//7 8//8 14//14
f 7//7 14//14 13//13
f 7//7 15//15 16//16
f 7//7 16//16 8//8
f 9//9 10//10 17//17
f 10//10 18//18 17//17
f 11//11 19//19 12//12
f 12//12 19//19 20//20
f 13//13 14//14 21//21
f 14//14 22//22 21//21
f 15//15 23//23 16//16
f 16//16 23//23 24//24
f 17//17 18//18 25//25
f 18//18 26//26 25//25
f 19//19 27//27 28//28
f 19//19 28//28 20//20
f 21//21 22//22 29//29
f 22//22 30//30 29//29
f 23//23 31//31 32//32
f 23//23 32//32 24//24
f 25//25 26//26 34//34
f 25//25 34//34 33//33
f 27//27 35//35 28//28
f 28//28 35//35 36//36
f 29//29 30//30 38//38
f 29//29 38//38 37//37
f 31//31 39//39 32//32
f 32//32 39//39 40//40
f 33//33 34//34 42//42
f 33//33 42//42 41//41
f 35//35 37//37 43//43
f 35//35 43//43 44//44
f 35//35 44//44 36//36
f 36//36 44//44 38//38
f 37//37 38//38 46//46
f 37//37 45//45 43//43
f 37//37 46//46 45//45
f 38//38 44//44 46//46
f 39//39 47//47 48//48
f 39//39 48//48 40//40
f 41//41 42//42 49//49
f 42//42 50//50 49//49
f 43//43 45//45 53//53
f 43//43 51//51 44//44
f 43//43 53//53 51//51
f 44//44 51//51 52//52
f 44//44 52//52 54//54
f 44//44 54//54 46//46
f 45//45 46//46 53//53
f 46//46 54//54 53//53
f 47//47 55//55 48//48
f 48//48 55//55 56//56
f 49//49 50//50 58//58
f 49//49 58//58 57//57
f 51//51 53//53 59//59
f 51//51 59//59 52//52
f 52//52 59//59 60//60
f 52//52 60//60 54//54
f 53//53 54//54 62//62
f 53//53 61//61 59//59
f 53//53 62//62 61//61
f 54//54 60//60 62//62
f 55//55 63//63 56//56
f 56//56 63//63 64//64
f 57//57 58//58 66//66
f 57//57 66//66 65//65
f 59//59 61//61 67//67
f 59//59 67//67 68//68
f 59//59 68//68 60//60
f 60//60 68//68 62//62
f 61//61 62//62 70//70
f 61//61 69//69 67//67
f 61//61 70//70 69//69
f 62//62 68//68 70//70
f 63//63 71//71 72//72
f 63//63 72//72 64//64
f 65//65 66//66 74//74
f 65//65 74//74 73//73
f 67//67 69//69 75//75
f 67//67 75//75 68//68
f 68//68 75//75 76//76
f 68//68 76//76 70//70
f 69//69 70//70 78//78
f 69//69 77//77 75//75
f 69//69 78//78 77//77
f 70//70 76//76 78//78
f 71//71 79//79 72//72
f 72//72 79//79 80//80
f 73//73 74//74 82//82
f 73//73 82//82 81//81
f 75//75 77//77 85//85
f 75//75 83//83 84//84
f 75//75 84//84 76//76
f 75//75 85//85 83//83
f 76//76 84//84 86//86
f 76//76 86//86 78//78
f 77//77 78//78 86//86
f 77//77 86//86 85//85
f 79//79 87//87 88//88
f 79//79 88//88 80//80
f 81//81 82//82 89//89
f 82//82 90//90 89//89
f 83//83 85//85 91//91
f 83//83 91//91 84//84
f 84//84 91//91 92//92
f 84//84 92//92 86//86
f 85//85 86//86 93//93
f 85//85 93//93 91//91
f 86//86 92//92 94//94
f 86//86 94//94 93//93
f 87//87 95//95 88//88
f 88//88 95//95 96//96
f 89//89 90//90 98//98
f 89//89 98//98 97//97
f 91//91 93//93 101//101
f 91//91 99//99 100//100
f 91//91 100//100 92//92
f 91//91 101//101 99//99
f 92//92 100//100 102//102
f 92//92 102//102 94//94
f 93//93 94//94 102//102
f 93//93 102//102 101//101
f 95//95 103//103 104//104
f 95//95 104//104 96//96
f 97//97 98//98 105//105
f 98//98 106//106 105//105
f 99//99 101//101 109//109
f 99//99 107//107 100//100
f 99//99 109//109 107//107
f 100//100 107//107 108//108
f 100//100 108//108 110//110
f 100//100 110//110 102//102
f 101//101 102//102 109//109
f 102//102 110//110 109//109
f 103//103 111//111 104//104
f 104//104 111//111 112//112
f 105//105 106//106 114//114
f 105//105 114//114 113//113
f 107//107 109//109 115//115
f 107//107 115//115 108//108
f 108//108 115//115 116//116
f 108//108 116//116 110//110
f 109//109 110//110 118//118
f 109//109 117//117 115//115
f 109//109 118//118 117//117
f 110//110 116//116 118//118
f 111//111 119//119 112//112
f 112//112 119//119 120//120
f 113//113 114//114 122//122
f 113//113 122//122 121//121
f 115//115 117//117 125//125
f 115//115 123//123 124//124
f 115//115 124//124 116//116
f 115//115 125//125 123//123
f 116//116 124//124 126//126
f 116//116 126//126 118//118
f 117//117 118//118 126//126
f 117//117 126//126 125//125
f 119//119 127//127 128//128
f 119//119 128//128 120//120
f 121//121 122//122 130//130
f 121//121 130//130 129//129
f 123//123 125//125 133//133
f 123//123 131//131 132//132
f 123//123 132//132 124//124
f 123//123 133//133 131//131
f 124//124 132//132 134//134
f 124//124 134//134 126//126
f 125//125 126//126 134//134
f 125//125 134//134 133//133
f 127//127 135//135 136//136
f 127//127 136//136 128//128
f 129//129 130//130 138//138
f 129//129 138//138 137//137
f 131//131 133//133 141//141
f 131//131 139//139 132//132
f 131//131 141//141 139//139
f 132//132 139//139 140//140
f 132//132 140//140 258//258
f 132//132 258//258 260//260
f 132//132 260//260 134//134
f 133//133 134//134 142//142
f 133//133 142//142 141//141
f 134//134 260//260 142//142
f 135//135 143//143 136//136
f 136//136 143//143 144//144
f 137//137 138//138 145//145
f 138//138 146//146 145//145
f 139//139 141//141 147//147
f 139//139 147//147 140//140
f 140//140 147//147 148//148
f 140//140 148//148 258//258
f 141//141 142//142 149//149
f 141//141 149//149 147//147
f 142//142 150//150 149//149
f 142//142 260//260 150//150
f 143//143 151//151 144//144
f 144//144 151//151 152//152
f 145//145 146//146 154//154
f 145//145 154//154 153//153
f 147//147 149//149 155//155
f 147//147 155//155 148//148
f 148//148 155//155 156//156
f 148//148 156//156 258//258
f 149//149 150//150 158//158
f 149//149 157//157 155//155
f 149//149 158//158 157//157
f 150//150 260//260 158//158
f 151//151 159//159 152//152
f 152//152 159//159 160//160
f 153//153 154//154 162//162
f 153//153 162//162 161//161
f 155//155 157//157 163//163
f 155//155 163//163 156//156
f 156//156 163//163 164//164
f 156//156 164//164 258//258
f 157//157 158//158 166//166
f 157//157 165//165 163//163
f 157//157 166//166 165//165
f 158//158 260//260 166//166
f 159//159 167//167 160//160
f 160//160 167//167 168//168
f 161//161 162//162 170//170
f 161//161 170//170 169//169
f 163//163 165//165 173//173
f 163//163 171//171 164//164
f 163//163 173//173 171//171
f 164//164 171//171 172//172
f 164//164 172//172 258//258
f 165//165 166//166 174//174
f 165//165 174//174 173//173
f 166//166 260//260 174//174
f 167//167 175//175 168//168
f 167//167 519//519 175//175
f 168//168 175//175 176//176
f 168//168 176//176 520//520
f 169//169 170//170 178//178
f 169//169 177//177 341//341
f 169//169 178//178 177//177
f 169//169 341//341 349//349
f 170//170 342//342 178//178
f 170//170 350//350 342//342
f 171//171 173//173 181//181
f 171//171 179//179 172//172
f 171//171 181//181 179//179
f 172//172 179//179 180//180
f 172//172 180//180 258//258
f 173//173 174//174 182//182
f 173//173 182//182 181//181
f 174//174 260//260 182//182
f 175//175 183//183 176//176
f 175//175 519//519 183//183
f 176//176 183//183 184//184
f 176//176 184//184 520//520
f 177//177 178//178 186//186
f 177//177 185//185 333//333
f 177//177 186//186 185//185
f 177//177 333//333 341//341
f 178//178 334//334 186//186
f 178//178 342//342 334//334
f 179//179 181//181 189//189
f 179//179 187//187 180//180
f 179//179 189//189 187//187
f 180//180 187//187 188//188
f 180//180 188//188 258//258
f 181//181 182//182 190//190
f 181//181 190//190 189//189
f 182//182 260//260 190//190
f 183//183 191//191 184//184
f 183//183 339//339 191//191
f 183//183 347//347 339//339
f 183//183 355//355 347//347
f 183//183 519//519 355//355
f 184//184 191//191 192//192
f 184//184 192//192 340//340
f 184//184 340//340 348//348
f 184//184 348//348 356//356
f 184//184 356//356 520//520
f 185//185 186//186 194//194
f 185//185 193//193 325//325
f 185//185 194//194 193//193
f 185//185 325//325 333//333
f 186//186 326//326 194//194
f 186//186 334//334 326//326
f 187//187 189//189 197//197
f 187//187 195//195 188//188
f 187//187 197//197 195//195
f 188//188 195//195 196//196
f 188//188 196//196 258//258
f 189//189 190//190 198//198
f 189//189 198//198 197//197
f 190//190 260//260 198//198
f 191//191 199//199 192//192
f 191//191 331//331 199//199
f 191//191 339//339 331//331
f 192//192 199//199 200//200
f 192//192 200//200 332//332
f 192//192 332//332 340//340
f 193//193 194//194 201//201
f 193//193 201//201 317//317
f 193//193 317//317 325//325
f 194//194 202//202 201//201
f 194//194 318//318 202//202
f 194//194 326//326 318//318
f 195//195 197//197 205//205
f 195//195 203//203 196//196
f 195//195 205//205 203//203
f 196//196 203//203 204//204
f 196//196 204//204 258//258
f 197//197 198//198 205//205
f 198//198 206//206 205//205
f 198//198 260//260 206//206
f 199//199 207//207 200//200
f 199//199 323//323 207//207
f 199//199 331//331 323//323
f 200//200 207//207 208//208
f 200//200 208//208 324//324
f 200//200 324//324 332//332
f 201//201 202//202 209//209
f 201//201 209//209 309//309
f 201//201 309//309 317//317
f 202//202 210//210 209//209
f 202//202 310//310 210//210
f 202//202 318//318 310//310
f 203//203 205//205 213//213
f 203//203 211//211 204//204
f 203//203 213//213 211//211
f 204//204 211//211 212//212
f 204//204 212//212 258//258
f 205//205 206//206 213//213
f 206//206 214//214 213//213
f 206//206 260//260 214//214
f 207//207 215//215 208//208
f 207//207 315//315 215//215
f 207//207 323//323 315//315
f 208//208 215//215 216//216
f 208//208 216//216 316//316
f 208//208 316//316 324//324
f 209//209 210//210 218//218
f 209//209 217//217 301//301
f 209//209 218//218 217//217
f 209//209 301//301 309//309
f 210//210 258//258 218//218
f 210//210 310//310 258//258
f 211//211 213//213 305//305
f 211//211 219//219 220//220
f 211//211 220//220 212//212
f 211//211 303//303 219//219
f 211//211 305//305 303//303
f 212//212 220//220 258//258
f 213//213 214//214 222//222
f 213//213 221//221 305//305
f 213//213 222//222 221//221
f 214//214 260//260 222//222
f 215//215 223//223 224//224
f 215//215 224//224 216//216
f 215//215 307//307 223//223
f 215//215 315//315 307//307
f 216//216 224//224 260//260
f 216//216 260//260 316//316
f 217//217 218//218 226//226
f 217//217 225//225 293//293
f 217//217 226//226 225//225
f 217//217 293//293 301//301
f 218//218 258//258 226//226
f 219//219 227//227 220//220
f 219//219 295//295 227//227
f 219//219 303//303 295//295
f 220//220 227//227 228//228
f 220//220 228//228 258//258
f 221//221 222//222 230//230
f 221//221 229//229 297//297
f 221//221 230//230 229//229
f 221//221 297//297 305//305
f 222//222 260//260 230//230
f 223//223 231//231 224//224
f 223//223 299//299 231//231
f 223//223 307//307 299//299
f 224//224 231//231 232//232
f 224//224 232//232 260//260
f 225//225 226//226 234//234
f 225//225 233//233 285//285
f 225//225 234//234 233//233
f 225//225 285//285 293//293
f 226//226 258//258 234//234
f 227//227 235//235 236//236
f 227//227 236//236 228//228
f 227//227 287//287 235//235
f 227//227 295//295 287//287
f 228//228 236//236 258//258
f 229//229 230//230 238//238
f 229//229 237//237 289//289
f 229//229 238//238 237//237
f 229//229 289//289 297//297
f 230//230 260//260 238//238
f 231//231 239//239 240//240
f 231//231 240//240 232//232
f 231//231 291//291 239//239
f 231//231 299//299 291//291
f 232//232 240//240 260//260
f 233//233 234//234 242//242
f 233//233 241//241 277//277
f 233//233 242//242 241//241
f 233//233 277//277 285//285
f 234//234 258//258 242//242
f 235//235 243//243 236//236
f 235//235 279//279 243//243
f 235//235 287//287 279//279
f 236//236 243//243 244//244
f 236//236 244//244 258//258
f 237//237 238//238 246//246
f 237//237 245//245 281//281
f 237//237 246//246 245//245
f 237//237 281//281 289//289
f 238//238 260//260 246//246
f 239//239 247//247 240//240
f 239//239 283//283 247//247
f 239//239 291//291 283//283
f 240//240 247//247 248//248
f 240//240 248//248 260//260
f 241//241 242//242 250//250
f 241//241 249//249 269//269
f 241//241 250//250 249//249
f 241//241 269//269 277//277
f 242//242 258//258 250//250
f 243//243 251//251 244//244
f 243//243 271//271 251//251
f 243//243 279//279 271//271
f 244//244 251//251 252//252
f 244//244 252//252 258//258
f 245//245 246//246 254//254
f 245//245 253//253 273//273
f 245//245 254//254 253//253
f 245//245 273//273 281//281
f 246//246 260//260 254//254
f 247//247 255//255 248//248
f 247//247 275//275 255//255
f 247//247 283//283 275//275
f 248//248 255//255 256//256
f 248//248 256//256 260//260
f 249//249 250//250 251//251
f 249//249 251//251 265//265
f 249//249 265//265 269//269
f 250//250 252//252 251//251
f 250//250 258//258 252//252
f 251//251 271//271 265//265
f 253//253 254//254 255//255
f 253//253 255//255 267//267
f 253//253 267//267 273//273
f 254//254 256//256 255//255
f 254//254 260//260 256//256
f 255//255 275//275 267//267
f 257//257 258//258 262//262
f 257//257 259//259 258//258
f 257//257 261//261 263//263
f 257//257 262//262 261//261
f 257//257 263//263 259//259
f 258//258 259//259 260//260
f 258//258 310//310 262//262
f 259//259 263//263 260//260
f 260//260 263//263 264//264
f 260//260 264//264 316//316
f 261//261 262//262 264//264
f 261//261 264//264 263//263
f 262//262 266//266 272//272
f 262//262 270//270 266//266
f 262//262 272//272 280//280
f 262//262 278//278 270//270
f 262//262 280//280 288//288
f 262//262 286//286 278//278
f 262//262 288//288 296//296
f 262//262 294//294 286//286
f 262//262 296//296 304//304
f 262//262 302//302 294//294
f 262//262 304//304 312//312
f 262//262 310//310 302//302
f 262//262 312//312 320//320
f 262//262 320//320 328//328
f 262//262 328//328 336//336
f 262//262 336//336 344//344
f 262//262 344//344 352//352
f 262//262 352//352 360//360
f 262//262 360//360 368//368
f 262//262 368//368 376//376
f 262//262 376//376 384//384
f 262//262 384//384 392//392
f 262//262 392//392 394//394
f 262//262 394//394 264//264
f 264//264 268//268 276//276
f 264//264 274//274 268//268
f 264//264 276//276 284//284
f 264//264 282//282 274//274
f 264//264 284//284 292//292
f 264//264 290//290 282//282
f 264//264 292//292 300//300
f 264//264 298//298 290//290
f 264//264 300//300 308//308
f 264//264 306//306 298//298
f 264//264 308//308 316//316
f 264//264 314//314 306//306
f 264//264 322//322 314//314
f 264//264 330//330 322//322
f 264//264 338//338 330//330
f 264//264 346//346 338//338
f 264//264 354//354 346//346
f 264//264 362//362 354//354
f 264//264 370//370 362//362
f 264//264 378//378 370//370
f 264//264 386//386 378//378
f 264//264 394//394 386//386
f 265//265 266//266 270//270
f 265//265 270//270 269//269
f 265//265 271//271 272//272
f 265//265 272//272 266//266
f 267//267 268//268 274//274
f 267//267 274//274 273//273
f 267//267 275//275 276//276
f 267//267 276//276 268//268
f 269//269 270//270 277//277
f 270//270 278//278 277//277
f 271//271 279//279 272//272
f 272//272 279//279 280//280
f 273//273 274//274 281//281
f 274//274 282//282 281//281
f 275//275 283//283 276//276
f 276//276 283//283 284//284
f 277//277 278//278 285//285
f 278//278 286//286 285//285
f 279//279 287//287 288//288
f 279//279 288//288 280//280
f 281//281 282//282 289//289
f 282//282 290//290 289//289
f 283//283 291//291 292//292
f 283//283 292//292 284//284
f 285//285 286//286 294//294
f 285//285 294//294 293//293
f 287//287 295//295 288//288
f 288//288 295//295 296//296
f 289//289 290//290 298//298
f 289//289 298//298 297//297
f 291//291 299//299 292//292
f 292//292 299//299 300//300
f 293//293 294//294 302//302
f 293//293 302//302 301//301
f 295//295 303//303 304//304
f 295//295 304//304 296//296
f 297//297 298//298 306//306
f 297//297 306//306 305//305
f 299//299 307//307 308//308
f 299//299 308//308 300//300
f 301//301 302//302 309//309
f 302//302 310//310 309//309
f 303//303 305//305 311//311
f 303//303 311//311 304//304
f 304//304 311//311 312//312
f 305//305 306//306 313//313
f 305//305 313//313 311//311
f 306//306 314//314 313//313
f 307//307 315//315 308//308
f 308//308 315//315 316//316
f 309//309 310//310 318//318
f 309//309 318//318 317//317
f 311//311 313//313 321//321
f 311//311 319//319 312//312
f 311//311 321//321 319//319
f 312//312 319//319 320//320
f 313//313 314//314 322//322
f 313//313 322//322 321//321
f 315//315 323//323 316//316
f 316//316 323//323 324//324
f 317//317 318//318 326//326
f 317//317 326//326 325//325
f 319//319 321//321 327//327
f 319//319 327//327 328//328
f 319//319 328//328 320//320
f 321//321 322//322 330//330
f 321//321 329//329 327//327
f 321//321 330//330 329//329
f 323//323 331//331 332//332
f 323//323 332//332 324//324
f 325//325 326//326 334//334
f 325//325 334//334 333//333
f 327//327 329//329 335//335
f 327//327 335//335 328//328
f 328//328 335//335 336//336
f 329//329 330//330 338//338
f 329//329 337//337 335//335
f 329//329 338//338 337//337
f 331//331 339//339 332//332
f 332//332 339//339 340//340
f 333//333 334//334 342//342
f 333//333 342//342 341//341
f 335//335 337//337 345//345
f 335//335 343//343 344//344
f 335//335 344//344 336//336
f 335//335 345//345 343//343
f 337//337 338//338 346//346
f 337//337 346//346 345//345
f 339//339 347//347 348//348
f 339//339 348//348 340//340
f 341//341 342//342 349//349
f 342//342 350//350 349//349
f 343//343 345//345 351//351
f 343//343 351//351 344//344
f 344//344 351//351 352//352
f 345//345 346//346 353//353
f 345//345 353//353 351//351
f 346//346 354//354 353//353
f 347//347 355//355 348//348
f 348//348 355//355 356//356
f 349//349 350//350 358//358
f 349//349 357//357 517//517
f 349//349 358//358 357//357
f 350//350 518//518 358//358
f 351//351 353//353 361//361
f 351//351 359//359 360//360
f 351//351 360//360 352//352
f 351//351 361//361 359//359
f 353//353 354//354 362//362
f 353//353 362//362 361//361
f 355//355 363//363 364//364
f 355//355 364//364 356//356
f 355//355 519//519 363//363
f 356//356 364//364 520//520
f 357//357 358//358 365//365
f 357//357 365//365 517//517
f 358//358 366//366 365//365
f 358//358 518//518 366//366
f 359//359 361//361 367//367
f 359//359 367//367 360//360
f 360//360 367//367 368//368
f 361//361 362//362 369//369
f 361//361 369//369 367//367
f 362//362 370//370 369//369
f 363//363 371//371 364//364
f 363//363 519//519 371//371
f 364//364 371//371 372//372
f 364//364 372//372 520//520
f 365//365 366//366 374//374
f 365//365 373//373 517//517
f 365//365 374//374 373//373
f 366//366 518//518 374//374
f 367//367 369//369 377//377
f 367//367 375//375 368//368
f 367//367 377//377 375//375
f 368//368 375//375 376//376
f 369//369 370//370 378//378
f 369//369 378//378 377//377
f 371//371 379//379 372//372
f 371//371 519//519 379//379
f 372//372 379//379 380//380
f 372//372 380//380 520//520
f 373//373 374//374 382//382
f 373//373 381//381 517//517
f 373//373 382//382 381//381
f 374//374 518//518 382//382
f 375//375 377//377 385//385
f 375//375 383//383 384//384
f 375//375 384//384 376//376
f 375//375 385//385 383//383
f 377//377 378//378 386//386
f 377//377 386//386 385//385
f 379//379 387//387 388//388
f 379//379 388//388 380//380
f 379//379 519//519 387//387
f 380//380 388//388 520//520
f 381//381 382//382 390//390
f 381//381 389//389 517//517
f 381//381 390//390 389//389
f 382//382 518//518 390//390
f 383//383 385//385 393//393
f 383//383 391//391 392//392
f 383//383 392//392 384//384
f 383//383 393//393 391//391
f 385//385 386//386 394//394
f 385//385 394//394 393//393
f 387//387 395//395 396//396
f 387//387 396//396 388//388
f 387//387 519//519 395//395
f 388//388 396//396 520//520
f 389//389 390//390 398//398
f 389//389 397//397 517//517
f 389//389 398//398 397//397
f 390//390 518//518 398//398
f 391//391 393//393 399//399
f 391//391 399//399 392//392
f 392//392 399//399 400//400
f 392//392 400//400 394//394
f 393//393 394//394 402//402
f 393//393 401//401 399//399
f 393//393 402//402 401//401
f 394//394 400//400 402//402
f 395//395 403//403 396//396
f 395//395 519//519 403//403
f 396//396 403//403 404//404
f 396//396 404//404 520//520
f 397//397 398//398 405//405
f 397//397 405//405 517//517
f 398//398 406//406 405//405
f 398//398 518//518 406//406
f 399//399 401//401 409//409
f 399//399 407//407 400//400
f 399//399 409//409 407//407
f 400//400 407//407 408//408
f 400//400 408//408 410//410
f 400//400 410//410 402//402
f 401//401 402//402 409//409
f 402//402 410//410 409//409
f 403//403 411//411 404//404
f 403//403 519//519 411//411
f 404//404 411//411 412//412
f 404//404 412//412 520//520
f 405//405 406//406 414//414
f 405//405 413//413 517//517
f 405//405 414//414 413//413
f 406//406 518//518 414//414
f 407//407 409//409 415//415
f 407//407 415//415 408//408
f 408//408 415//415 416//416
f 408//408 416//416 410//410
f 409//409 410//410 418//418
f 409//409 417//417 415//415
f 409//409 418//418 417//417
f 410//410 416//416 418//418
f 411//411 419//419 412//412
f 411//411 519//519 419//419
f 412//412 419//419 420//420
f 412//412 420//420 520//520
f 413//413 414//414 422//422
f 413//413 421//421 517//517
f 413//413 422//422 421//421
f 414//414 518//518 422//422
f 415//415 417//417 423//423
f 415//415 423//423 416//416
f 416//416 423//423 424//424
f 416//416 424//424 418//418
f 417//417 418//418 426//426
f 417//417 425//425 423//423
f 417//417 426//426 425//425
f 418//418 424//424 426//426
f 419//419 427//427 420//420
f 419//419 519//519 427//427
f 420//420 427//427 428//428
f 420//420 428//428 520//520
f 421//421 422//422 430//430
f 421//421 429//429 517//517
f 421//421 430//430 429//429
f 422//422 518//518 430//430
f 423//423 425//425 431//431
f 423//423 431//431 424//424
f 424//424 431//431 432//432
f 424//424 432//432 426//426
f 425//425 426//426 434//434
f 425//425 433//433 431//431
f 425//425 434//434 433//433
f 426//426 432//432 434//434
f 427//427 435//435 428//428
f 427//427 519//519 435//435
f 428//428 435//435 436//436
f 428//428 436//436 520//520
f 429//429 430//430 438//438
f 429//429 437//437 517//517
f 429//429 438//438 437//437
f 430//430 518//518 438//438
f 431//431 433//433 441//441
f 431//431 439//439 432//432
f 431//431 441//441 439//439
f 432//432 439//439 440//440
f 432//432 440//440 442//442
f 432//432 442//442 434//434
f 433//433 434//434 442//442
f 433//433 442//442 441//441
f 435//435 443//443 436//436
f 435//435 519//519 443//443
f 436//436 443//443 444//444
f 436//436 444//444 520//520
f 437//437 438//438 446//446
f 437//437 445//445 517//517
f 437//437 446//446 445//445
f 438//438 518//518 446//446
f 439//439 441//441 449//449
f 439//439 447//447 440//440
f 439//439 449//449 447//447
f 440//440 447//447 448//448
f 440//440 448//448 450//450
f 440//440 450//450 442//442
f 441//441 442//442 450//450
f 441//441 450//450 449//449
f 443//443 451//451 444//444
f 443//443 519//519 451//451
f 444//444 451//451 452//452
f 444//444 452//452 520//520
f 445//445 446//446 454//454
f 445//445 453//453 517//517
f 445//445 454//454 453//453
f 446//446 518//518 454//454
f 447//447 449//449 455//455
f 447//447 455//455 448//448
f 448//448 455//455 456//456
f 448//448 456//456 450//450
f 449//449 450//450 458//458
f 449//449 457//457 455//455
f 449//449 458//458 457//457
f 450//450 456//456 458//458
f 451//451 459//459 452//452
f 451//451 519//519 459//459
f 452//452 459//459 460//460
f 452//452 460//460 520//520
f 453//453 454//454 461//461
f 453//453 461//461 517//517
f 454//454 462//462 461//461
f 454//454 518//518 462//462
f 455//455 457//457 463//463
f 455//455 463//463 456//456
f 456//456 463//463 464//464
f 456//456 464//464 458//458
f 457//457 458//458 465//465
f 457//457 465//465 463//463
f 458//458 464//464 466//466
f 458//458 466//466 465//465
f 459//459 467//467 460//460
f 459//459 519//519 467//467
f 460//460 467//467 468//468
f 460//460 468//468 520//520
f 461//461 462//462 469//469
f 461//461 469//469 517//517
f 462//462 470//470 469//469
f 462//462 518//518 470//470
f 463//463 465//465 471//471
f 463//463 471//471 464//464
f 464//464 471//471 472//472
f 464//464 472//472 466//466
f 465//465 466//466 473//473
f 465//465 473//473 471//471
f 466//466 472//472 474//474
f 466//466 474//474 473//473
f 467//467 475//475 468//468
f 467//467 519//519 475//475
f 468//468 475//475 476//476
f 468//468 476//476 520//520
f 469//469 470//470 478//478
f 469//469 477//477 517//517
f 469//469 478//478 477//477
f 470//470 518//518 478//478
f 471//471 473//473 481//481
f 471//471 479//479 480//480
f 471//471 480//480 472//472
f 471//471 481//481 479//479
f 472//472 480//480 482//482
f 472//472 482//482 474//474
f 473//473 474//474 482//482
f 473//473 482//482 481//481
f 475//475 483//483 484//484
f 475//475 484//484 476//476
f 475//475 519//519 483//483
f 476//476 484//484 520//520
f 477//477 478//478 486//486
f 477//477 485//485 517//517
f 477//477 486//486 485//485
f 478//478 518//518 486//486
f 479//479 481//481 517//517
f 479//479 487//487 480//480
f 479//479 517//517 487//487
f 480//480 487//487 488//488
f 480//480 488//488 518//518
f 480//480 518//518 482//482
f 481//481 482//482 490//490
f 481//481 489//489 519//519
f 481//481 490//490 489//489
f 481//481 519//519 517//517
f 482//482 518//518 520//520
f 482//482 520//520 490//490
f 483//483 491//491 484//484
f 483//483 519//519 491//491
f 484//484 491//491 492//492
f 484//484 492//492 520//520
f 485//485 486//486 494//494
f 485//485 493//493 517//517
f 485//485 494//494 493//493
f 486//486 518//518 494//494
f 487//487 495//495 496//496
f 487//487 496//496 488//488
f 487//487 517//517 495//495
f 488//488 496//496 518//518
f 489//489 490//490 498//498
f 489//489 497//497 519//519
f 489//489 498//498 497//497
f 490//490 520//520 498//498
f 491//491 499//499 500//500
f 491//491 500//500 492//492
f 491//491 519//519 499//499
f 492//492 500//500 520//520
f 493//493 494//494 502//502
f 493//493 501//501 517//517
f 493//493 502//502 501//501
f 494//494 518//518 502//502
f 495//495 503//503 496//496
f 495//495 517//517 503//503
f 496//496 503//503 504//504
f 496//496 504//504 518//518
f 497//497 498//498 506//506
f 497//497 505//505 519//519
f 497//497 506//506 505//505
f 498//498 520//520 506//506
f 499//499 507//507 500//500
f 499//499 519//519 507//507
f 500//500 507//507 508//508
f 500//500 508//508 520//520
f 501//501 502//502 510//510
f 501//501 509//509 517//517
f 501//501 510//510 509//509
f 502//502 518//518 510//510
f 503//503 511//511 504//504
f 503//503 517//517 511//511
f 504//504 511//511 512//512
f 504//504 512//512 518//518
f 505//505 506//506 514//514
f 505//505 513//513 519//519
f 505//505 514//514 513//513
f 506//506 520//520 514//514
f 507//507 515//515 508//508
f 507//507 519//519 515//515
f 508//508 515//515 516//516
f 508//508 516//516 520//520
f 509//509 510//510 511//511
f 509//509 511//511 517//517
f 510//510 512//512 511//511
f 510//510 518//518 512//512
f 513//513 514//514 515//515
f 513//513 515//515 519//519
f 514//514 516//516 515//515
f 514//514 520//520 516//516
f 517//517 519//519 518//518
f 518//518 519//519 520//520
