# Mesh2Param deterministic OBJ
o Mesh2Param_result
v -17.977625 -0.89722599999999997 25
v -17.977625 -0.89722599999999997 37
v -17.977625 0.89722599999999997 25
v -17.977625 0.89722599999999997 37
v -17.798954999999999 -2.6827609999999997 25
v -17.798954999999999 -2.6827609999999997 37
v -17.798954999999999 2.6827609999999997 25
v -17.798954999999999 2.6827609999999997 37
v -17.443390999999998 -4.4416329999999995 25
v -17.443390999999998 -4.4416329999999995 37
v -17.443390999999998 4.4416329999999995 25
v -17.443390999999998 4.4416329999999995 37
v -16.914466999999998 -6.1563629999999998 25
v -16.914466999999998 -6.1563629999999998 37
v -16.914466999999998 6.1563629999999998 25
v -16.914466999999998 6.1563629999999998 37
v -16.21744 -7.8099069999999999 25
v -16.21744 -7.8099069999999999 37
v -16.21744 7.8099069999999999 25
v -16.21744 7.8099069999999999 37
v -15.359235999999999 -9.3858339999999991 25
v -15.359235999999999 -9.3858339999999991 37
v -15.359235999999999 9.3858339999999991 25
v -15.359235999999999 9.3858339999999991 37
v -14.348384999999999 -10.868478999999999 25
v -14.348384999999999 -10.868478999999999 37
v -14.348384999999999 10.868478999999999 25
v -14.348384999999999 10.868478999999999 37
v -13.194934 -12.243108999999999 25
v -13.194934 -12.243108999999999 37
v -13.194934 12.243108999999999 25
v -13.194934 12.243108999999999 37
v -11.910345 -13.496062 25
v -11.910345 -13.496062 37
v -11.910345 13.496062 25
v -11.910345 13.496062 37
v -10.507386 -14.614884 25
v -10.507386 -14.614884 37
v -10.507386 14.614884 25
v -10.507386 14.614884 37
v -9.9875689999999988 -0.49845899999999999 0
v -9.9875689999999988 -0.49845899999999999 25
v -9.9875689999999988 0.49845899999999999 0
v -9.9875689999999988 0.49845899999999999 25
v -9.8883080000000003 -1.4904229999999998 0
v -9.8883080000000003 -1.4904229999999998 25
v -9.8883080000000003 1.4904229999999998 0
v -9.8883080000000003 1.4904229999999998 25
v -9.6907730000000001 -2.4675739999999999 0
v -9.6907730000000001 -2.4675739999999999 25
v -9.6907730000000001 2.4675739999999999 0
v -9.6907730000000001 2.4675739999999999 25
v -9.3969259999999988 -3.420201 0
v -9.3969259999999988 -3.420201 25
v -9.3969259999999988 3.420201 0
v -9.3969259999999988 3.420201 25
v -9.0096889999999998 -4.3388369999999998 0
v -9.0096889999999998 -4.3388369999999998 25
v -9.0096889999999998 4.3388369999999998 0
v -9.0096889999999998 4.3388369999999998 25
v -9 -15.588457 25
v -9 -15.588457 37
v -9 15.588457 25
v -9 15.588457 37
v -8.5329090000000001 -5.2143519999999999 0
v -8.5329090000000001 -5.2143519999999999 25
v -8.5329090000000001 5.2143519999999999 0
v -8.5329090000000001 5.2143519999999999 25
v -7.9713249999999993 -6.0380439999999993 0
v -7.9713249999999993 -6.0380439999999993 25
v -7.9713249999999993 6.0380439999999993 0
v -7.9713249999999993 6.0380439999999993 25
v -7.403168 -16.407104999999998 25
v -7.403168 -16.407104999999998 37
v -7.403168 16.407104999999998 25
v -7.403168 16.407104999999998 37
v -7.3305189999999998 -6.8017269999999996 0
v -7.3305189999999998 -6.8017269999999996 25
v -7.3305189999999998 6.8017269999999996 0
v -7.3305189999999998 6.8017269999999996 25
v -6.9912979999999996 -0.34892099999999998 37
v -6.9912979999999996 -0.34892099999999998 55
v -6.9912979999999996 0.34892099999999998 37
v -6.9912979999999996 0.34892099999999998 55
v -6.9218159999999997 -1.043296 37
v -6.9218159999999997 -1.043296 55
v -6.9218159999999997 1.043296 37
v -6.9218159999999997 1.043296 55
v -6.7835409999999996 -1.7273019999999999 37
v -6.7835409999999996 -1.7273019999999999 55
v -6.7835409999999996 1.7273019999999999 37
v -6.7835409999999996 1.7273019999999999 55
v -6.6168579999999997 -7.4978119999999997 0
v -6.6168579999999997 -7.4978119999999997 25
v -6.6168579999999997 7.4978119999999997 0
v -6.6168579999999997 7.4978119999999997 25
v -6.5778479999999995 -2.3941409999999999 37
v -6.5778479999999995 -2.3941409999999999 55
v -6.5778479999999995 2.3941409999999999 37
v -6.5778479999999995 2.3941409999999999 55
v -6.3067820000000001 -3.0371859999999997 37
v -6.3067820000000001 -3.0371859999999997 55
v -6.3067820000000001 3.0371859999999997 37
v -6.3067820000000001 3.0371859999999997 55
v -5.9730359999999996 -3.6500459999999997 37
v -5.9730359999999996 -3.6500459999999997 55
v -5.9730359999999996 3.6500459999999997 37
v -5.9730359999999996 3.6500459999999997 55
v -5.8374369999999995 -8.1193799999999996 0
v -5.8374369999999995 -8.1193799999999996 25
v -5.8374369999999995 8.1193799999999996 0
v -5.8374369999999995 8.1193799999999996 25
v -5.7327599999999999 -17.062691999999998 25
v -5.7327599999999999 -17.062691999999998 37
v -5.7327599999999999 17.062691999999998 25
v -5.7327599999999999 17.062691999999998 37
v -5.5799279999999998 -4.2266310000000002 37
v -5.5799279999999998 -4.2266310000000002 55
v -5.5799279999999998 4.2266310000000002 37
v -5.5799279999999998 4.2266310000000002 55
v -5.1313629999999995 -4.761209 37
v -5.1313629999999995 -4.761209 55
v -5.1313629999999995 4.761209 37
v -5.1313629999999995 4.761209 55
v -5 -8.6602540000000001 0
v -5 -8.6602540000000001 25
v -5 8.6602540000000001 0
v -5 8.6602540000000001 25
v -4.6318009999999994 -5.2484679999999999 37
v -4.6318009999999994 -5.2484679999999999 55
v -4.6318009999999994 5.2484679999999999 37
v -4.6318009999999994 5.2484679999999999 55
v -4.1128710000000002 -9.1150590000000005 0
v -4.1128710000000002 -9.1150590000000005 25
v -4.1128710000000002 9.1150590000000005 0
v -4.1128710000000002 9.1150590000000005 25
v -4.0862059999999998 -5.6835659999999999 37
v -4.0862059999999998 -5.6835659999999999 55
v -4.0862059999999998 5.6835659999999999 37
v -4.0862059999999998 5.6835659999999999 55
v -4.0053770000000002 -17.548701999999999 25
v -4.0053770000000002 -17.548701999999999 37
v -4.0053770000000002 17.548701999999999 25
v -4.0053770000000002 17.548701999999999 37
v -3.5 -6.0621779999999994 37
v -3.5 -6.0621779999999994 55
v -3.5 6.0621779999999994 37
v -3.5 6.0621779999999994 55
v -3.1848669999999997 -9.4792729999999992 0
v -3.1848669999999997 -9.4792729999999992 25
v -3.1848669999999997 9.4792729999999992 0
v -3.1848669999999997 9.4792729999999992 25
v -2.8790100000000001 -6.380541 37
v -2.8790100000000001 -6.380541 55
v -2.8790100000000001 6.380541 37
v -2.8790100000000001 6.380541 55
v -2.2381869999999999 -17.860305999999998 25
v -2.2381869999999999 -17.860305999999998 37
v -2.2381869999999999 17.860305999999998 25
v -2.2381869999999999 17.860305999999998 37
v -2.2294069999999997 -6.635491 37
v -2.2294069999999997 -6.635491 55
v -2.2294069999999997 6.635491 37
v -2.2294069999999997 6.635491 55
v -2.225209 -9.7492789999999996 0
v -2.225209 -9.7492789999999996 25
v -2.225209 9.7492789999999996 0
v -2.225209 9.7492789999999996 25
v -1.557647 -6.8244949999999998 37
v -1.557647 -6.8244949999999998 55
v -1.557647 6.8244949999999998 37
v -1.557647 6.8244949999999998 55
v -1.2434369999999999 -9.9223920000000003 0
v -1.2434369999999999 -9.9223920000000003 25
v -1.2434369999999999 9.9223920000000003 0
v -1.2434369999999999 9.9223920000000003 25
v -0.87040600000000001 -6.9456739999999995 37
v -0.87040600000000001 -6.9456739999999995 55
v -0.87040600000000001 6.9456739999999995 37
v -0.87040600000000001 6.9456739999999995 55
v -0.44875199999999998 -17.994405 25
v -0.44875199999999998 -17.994405 37
v -0.44875199999999998 17.994405 25
v -0.44875199999999998 17.994405 37
v -0.249307 -9.996891999999999 0
v -0.249307 -9.996891999999999 25
v -0.249307 9.996891999999999 0
v -0.249307 9.996891999999999 25
v -0.174515 -6.9978239999999996 37
v -0.174515 -6.9978239999999996 55
v -0.174515 6.9978239999999996 37
v -0.174515 6.9978239999999996 55
v 0.52311099999999999 -6.9804269999999997 37
v 0.52311099999999999 -6.9804269999999997 55
v 0.52311099999999999 6.9804269999999997 37
v 0.52311099999999999 6.9804269999999997 55
v 0.74730099999999999 -9.9720379999999995 0
v 0.74730099999999999 -9.9720379999999995 25
v 0.74730099999999999 9.9720379999999995 0
v 0.74730099999999999 9.9720379999999995 25
v 1.2155369999999999 -6.8936539999999997 37
v 1.2155369999999999 -6.8936539999999997 55
v 1.2155369999999999 6.8936539999999997 37
v 1.2155369999999999 6.8936539999999997 55
v 1.3451419999999998 -17.949667999999999 25
v 1.3451419999999998 -17.949667999999999 37
v 1.3451419999999998 17.949667999999999 25
v 1.3451419999999998 17.949667999999999 37
v 1.7364819999999999 -9.8480779999999992 0
v 1.7364819999999999 -9.8480779999999992 25
v 1.7364819999999999 9.8480779999999992 0
v 1.7364819999999999 9.8480779999999992 25
v 1.895883 -6.7383699999999997 37
v 1.895883 -6.7383699999999997 55
v 1.895883 6.7383699999999997 37
v 1.895883 6.7383699999999997 55
v 2.5573869999999999 -6.5161159999999994 37
v 2.5573869999999999 -6.5161159999999994 55
v 2.5573869999999999 6.5161159999999994 37
v 2.5573869999999999 6.5161159999999994 55
v 2.708405 -9.6262419999999995 0
v 2.708405 -9.6262419999999995 25
v 2.708405 9.6262419999999995 0
v 2.708405 9.6262419999999995 25
v 3.125667 -17.72654 25
v 3.125667 -17.72654 37
v 3.125667 17.72654 25
v 3.125667 17.72654 37
v 3.1934749999999998 -6.2291029999999994 37
v 3.1934749999999998 -6.2291029999999994 55
v 3.1934749999999998 6.2291029999999994 37
v 3.1934749999999998 6.2291029999999994 55
v 3.65341 -9.3087369999999989 0
v 3.65341 -9.3087369999999989 25
v 3.65341 9.3087369999999989 0
v 3.65341 9.3087369999999989 25
v 3.7978239999999999 -5.8801809999999994 37
v 3.7978239999999999 -5.8801809999999994 55
v 3.7978239999999999 5.8801809999999994 37
v 3.7978239999999999 5.8801809999999994 55
v 4.3644289999999994 -5.4728199999999996 37
v 4.3644289999999994 -5.4728199999999996 55
v 4.3644289999999994 5.4728199999999996 37
v 4.3644289999999994 5.4728199999999996 55
v 4.5621070000000001 -8.8987179999999988 0
v 4.5621070000000001 -8.8987179999999988 25
v 4.5621070000000001 8.8987179999999988 0
v 4.5621070000000001 8.8987179999999988 25
v 4.8751280000000001 -17.327235999999999 25
v 4.8751280000000001 -17.327235999999999 37
v 4.8751280000000001 17.327235999999999 25
v 4.8751280000000001 17.327235999999999 37
v 4.8876580000000001 -5.0110679999999999 37
v 4.8876580000000001 -5.0110679999999999 55
v 4.8876580000000001 5.0110679999999999 37
v 4.8876580000000001 5.0110679999999999 55
v 5.362311 -4.4995129999999994 37
v 5.362311 -4.4995129999999994 55
v 5.362311 4.4995129999999994 37
v 5.362311 4.4995129999999994 55
v 5.4254629999999997 -8.4002590000000001 0
v 5.4254629999999997 -8.4002590000000001 25
v 5.4254629999999997 8.4002590000000001 0
v 5.4254629999999997 8.4002590000000001 25
v 5.783671 -3.9432399999999999 37
v 5.783671 -3.9432399999999999 55
v 5.783671 3.9432399999999999 37
v 5.783671 3.9432399999999999 55
v 6.147551 -3.3477779999999999 37
v 6.147551 -3.3477779999999999 55
v 6.147551 3.3477779999999999 37
v 6.147551 3.3477779999999999 55
v 6.2348979999999994 -7.8183149999999992 0
v 6.2348979999999994 -7.8183149999999992 25
v 6.2348979999999994 7.8183149999999992 0
v 6.2348979999999994 7.8183149999999992 25
v 6.4503329999999997 -2.7190439999999998 37
v 6.4503329999999997 -2.7190439999999998 55
v 6.4503329999999997 2.7190439999999998 37
v 6.4503329999999997 2.7190439999999998 55
v 6.5761379999999994 -16.755727 25
v 6.5761379999999994 -16.755727 37
v 6.5761379999999994 16.755727 25
v 6.5761379999999994 16.755727 37
v 6.6890099999999997 -2.0632859999999997 37
v 6.6890099999999997 -2.0632859999999997 55
v 6.6890099999999997 2.0632859999999997 37
v 6.6890099999999997 2.0632859999999997 55
v 6.8612069999999994 -1.3870229999999999 37
v 6.8612069999999994 -1.3870229999999999 55
v 6.8612069999999994 1.3870229999999999 37
v 6.8612069999999994 1.3870229999999999 55
v 6.9652149999999997 -0.69697500000000001 37
v 6.9652149999999997 -0.69697500000000001 55
v 6.9652149999999997 0.69697500000000001 37
v 6.9652149999999997 0.69697500000000001 55
v 6.9823679999999992 -7.1586679999999996 0
v 6.9823679999999992 -7.1586679999999996 25
v 6.9823679999999992 7.1586679999999996 0
v 6.9823679999999992 7.1586679999999996 25
v 7 0 37
v 7 0 55
v 7.660444 -6.4278759999999995 0
v 7.660444 -6.4278759999999995 25
v 7.660444 6.4278759999999995 0
v 7.660444 6.4278759999999995 25
v 8.2117919999999991 -16.017692999999998 25
v 8.2117919999999991 -16.017692999999998 37
v 8.2117919999999991 16.017692999999998 25
v 8.2117919999999991 16.017692999999998 37
v 8.2623879999999996 -5.6332009999999997 0
v 8.2623879999999996 -5.6332009999999997 25
v 8.2623879999999996 5.6332009999999997 0
v 8.2623879999999996 5.6332009999999997 25
v 8.782216 -4.78254 0
v 8.782216 -4.78254 25
v 8.782216 4.78254 0
v 8.782216 4.78254 25
v 9.2147620000000003 -3.8843479999999997 0
v 9.2147620000000003 -3.8843479999999997 25
v 9.2147620000000003 3.8843479999999997 0
v 9.2147620000000003 3.8843479999999997 25
v 9.5557280000000002 -2.9475519999999999 0
v 9.5557280000000002 -2.9475519999999999 25
v 9.5557280000000002 2.9475519999999999 0
v 9.5557280000000002 2.9475519999999999 25
v 9.7658329999999989 -15.120467 25
v 9.7658329999999989 -15.120467 37
v 9.7658329999999989 15.120467 25
v 9.7658329999999989 15.120467 37
v 9.8017249999999994 -1.9814609999999999 0
v 9.8017249999999994 -1.9814609999999999 25
v 9.8017249999999994 1.9814609999999999 0
v 9.8017249999999994 1.9814609999999999 25
v 9.9503079999999997 -0.99567799999999995 0
v 9.9503079999999997 -0.99567799999999995 25
v 9.9503079999999997 0.99567799999999995 0
v 9.9503079999999997 0.99567799999999995 25
v 10 0 0
v 10 0 25
v 11.222816 -14.072967 25
v 11.222816 -14.072967 37
v 11.222816 14.072967 25
v 11.222816 14.072967 37
v 12.568263 -12.885603 25
v 12.568263 -12.885603 37
v 12.568263 12.885603 25
v 12.568263 12.885603 37
v 13.7888 -11.570176999999999 25
v 13.7888 -11.570176999999999 37
v 13.7888 11.570176999999999 25
v 13.7888 11.570176999999999 37
v 14.872297999999999 -10.139761 25
v 14.872297999999999 -10.139761 37
v 14.872297999999999 10.139761 25
v 14.872297999999999 10.139761 37
v 15.807988 -8.6085719999999988 25
v 15.807988 -8.6085719999999988 37
v 15.807988 8.6085719999999988 25
v 15.807988 8.6085719999999988 37
v 16.586572 -6.9918259999999997 25
v 16.586572 -6.9918259999999997 37
v 16.586572 6.9918259999999997 25
v 16.586572 6.9918259999999997 37
v 17.200310999999999 -5.305593 25
v 17.200310999999999 -5.305593 37
v 17.200310999999999 5.305593 25
v 17.200310999999999 5.305593 37
v 17.643104999999998 -3.5666309999999997 25
v 17.643104999999998 -3.5666309999999997 37
v 17.643104999999998 3.5666309999999997 25
v 17.643104999999998 3.5666309999999997 37
v 17.910553999999998 -1.7922209999999998 25
v 17.910553999999998 -1.7922209999999998 37
v 17.910553999999998 1.7922209999999998 25
v 17.910553999999998 1.7922209999999998 37
v 18 0 25
v 18 0 37
vn -0.69327265530695881 -0.034599853385974461 -0.71984434119419727
vn -0.87606698662607241 -0.043722753322981513 0.48020303600224234
vn -0.9475039989208105 0.047288031908267129 -0.31622778825921577
vn -0.6735420512695478 0.033615138351153317 0.73838413285040372
vn -0.9097480559260579 -0.137122611175749 -0.39186204746454173
vn -0.66684808216623082 -0.10051128956917058 0.73838412495147954
vn -0.75274072091397526 0.1134575364219622 -0.64846649451376281
vn -0.86736021019483422 0.13073366420200286 0.48020305581606937
vn -0.80632103756056361 -0.20531462207526041 -0.55470018059249726
vn -0.85003326101621135 -0.21644512496529758 0.48020304356064036
vn -0.89157434203408847 0.22702278690450078 -0.39186202527496322
vn -0.65352673482561452 0.16640840102937493 0.73838408090574226
vn -0.83421642838401266 -0.30362983076608591 -0.46031714771793958
vn -0.63371031413143064 -0.23065160177578795 0.73838409812353534
vn -0.8120877598876779 0.3109684373932477 -0.49377332976358201
vn -0.76352670551804647 0.26360276862776033 0.58952569946740885
vn -0.77708985302509703 -0.39028106505134968 -0.49377327852752156
vn -0.69234929989940586 -0.31934148256616757 0.64704981604297263
vn -0.68585647359114987 0.33029101338257483 -0.64846645565659289
vn -0.7902914980654081 0.38058426188925754 0.48020304839488703
vn -0.77173084336253051 -0.48940895935710926 -0.40609158561086806
vn -0.73542536075104836 -0.43277502788036976 0.52139746260155073
vn -0.74945339954005852 0.44103009386262093 -0.49377328626139466
vn -0.68214394879500106 0.43259559078511728 0.58952581619097755
vn -0.64736433258679515 -0.50752437886314472 -0.56862854813492492
vn -0.65190690120586714 -0.47694523242007059 0.58952577333983347
vn -0.73338098090233717 0.55551458075575155 -0.39186207703538667
vn -0.53757051074974038 0.40719389332727318 0.73838410005175525
vn -0.65945507423846039 -0.63262048942652338 -0.4060915185261727
vn -0.56746268019214918 -0.50922754704609186 0.64704977545669773
vn -0.50883744618917026 0.47213201155093626 -0.71984430054321447
vn -0.66639176037710002 0.61832100735534656 0.41665471743948751
vn -0.50370380528534098 -0.57076584182184509 -0.64846652215088763
vn -0.5804025734081576 -0.65767611824812477 0.48020305732811275
vn -0.62773027177200125 0.71130492413500324 -0.31622778309684746
vn -0.44622795722294417 0.50563778350754529 0.73838407491102831
vn -0.53705808940825983 -0.74700251397029804 -0.3918620327656207
vn -0.39366520606873745 -0.54755510510975203 0.73838412252641694
vn -0.40519717948080586 0.56359510767138421 -0.71984428896093944
vn -0.51203496418867278 0.71219745691023095 0.48020305894371845
vn -0.99778874687544106 -0.06645194606068322 -0.0013249428232584837
vn -0.97745873487023072 -0.032494986764670275 -0.20861087570175196
vn -0.20240450953357605 0.0067288076967017179 -0.97927888656268569
vn -0.85663483206500579 0.057051206312304127 -0.51275912897896836
vn -0.98612941370218077 -0.16545496543924129 -0.013169428343433051
vn -0.91860006107272607 -0.12286669298194278 -0.37560311973260441
vn -0.99115930585954337 0.13257180277892297 -0.0052865410217397546
vn -0.91400487850774825 0.15335375203651427 -0.37560312671802892
vn -0.96907535477831042 -0.24675697721793763 -0.0019877010735740476
vn -0.88438304207630869 -0.22519165830553675 -0.40884636713251632
vn -0.97304685791492029 0.23060367907650134 -0.0013249521814023327
vn -0.89419374598161905 0.24359757250053454 -0.37560320461786056
vn -0.93407724245359169 -0.33997629654370459 -0.10915962128333448
vn -0.89498594461245717 -0.32574822838929163 -0.30477573828535909
vn -0.93964677234568394 0.34200343954659929 -0.0098787933794599915
vn -0.80293208079839851 0.29224336360976333 -0.5195131278907259
vn -0.90096720269174102 -0.43388264397372839 -0.0019876951944283669
vn -0.86201698425025863 -0.41512522005168712 -0.29085695890098223
vn -0.89343142897831052 0.44871162897524652 -0.020932169886442285
vn -0.84157371438834638 0.38816998032771244 -0.37560318106079099
vn -0.4222085519282377 -0.7602156649920947 -0.49377330970728645
vn -0.41545468544163411 -0.69271698803359305 0.58952572364084332
vn -0.47434163076990699 0.82158384952821173 -0.31622775892218885
vn -0.33719017452725769 0.58403054600445825 0.73838411923335123
vn -0.86157917072432544 -0.50701260603977361 -0.024890759143526852
vn -0.72503017138096448 -0.45979271173385566 -0.51275911773825811
vn -0.32440730964140446 0.19824122173960415 -0.92491097704287994
vn -0.816400123894098 0.49889183498371403 -0.29085696603706107
vn -0.79712620048304583 -0.60379971474844296 -0.0039654726278152766
vn -0.75920821290337848 -0.57507795140587037 -0.30477571961507333
vn -0.80706492823651887 0.59046121477382674 -0.0013249371304281938
vn -0.72935662449864613 0.57180520976062965 -0.37560313682202306
vn -0.32580379914223245 -0.75532343887284792 -0.56862851419339078
vn -0.34441790194864036 -0.73064062717859124 0.58952572694783356
vn -0.31308955232762098 0.6938776443015513 -0.64846645785408186
vn -0.34695406188240835 0.76892909824056621 0.53700178847211277
vn -0.72163595697781502 -0.6922714714002367 -0.0013249460609244339
vn -0.63897497835668959 -0.57340122268972249 -0.51275921722773499
vn -0.63354784238394868 0.56853103761537693 -0.52477575275409427
vn -0.70575967156910968 0.67704121665200712 -0.20861082651922025
vn -0.73147021844259097 -0.024317023451408779 0.68143965389608196
vn -0.99778883883941472 -0.066451289087890719 0.0012881250133242176
vn -0.58138824376106779 0.02901560457386055 0.81310872871199369
vn -0.99823578296149185 0.04981940219931965 0.032300909890585733
vn -0.81068596348725463 -0.12219094990153052 0.57258854369163159
vn -0.98880148572806381 -0.14903747967391118 0.0077104782226564694
vn -0.81068591072493945 0.12219094194891053 0.5725886200909982
vn -0.98880148533533285 0.14903747961471664 0.0077105297309823413
vn -0.56411129488541423 -0.14364063521658393 0.81310873497784886
vn -0.96795859315212762 -0.2464729716357919 0.048033698545667664
vn -0.70614070412041596 0.19236808418341642 0.68143952495575499
vn -0.97304680448319048 0.23060411309446621 0.0012881416717433404
vn -0.63725232399832543 -0.74677296607409205 -0.19036704730503193
vn -0.62471125614599154 -0.68458617333604166 -0.37560300547467962
vn -0.48378041899844332 0.53014794037848112 -0.69634737560081672
vn -0.55729302725969554 0.65307155622115276 -0.51275922636516835
vn -0.69180547963919348 -0.23884177661246753 0.68143949407543547
vn -0.19984890098051356 -0.076527105888515315 0.97683366999771704
vn -0.54700611463932247 0.19909403291385228 0.81310877292358019
vn -0.5203890464368488 0.18940620802314201 0.83265871082385334
vn -0.84096521628686227 -0.38788958725132511 0.37725213464947782
vn -0.89362634820379616 -0.44880986005059986 0.0012881449098341169
vn -0.73865286672085551 0.35571648940578637 0.5725886146701531
vn -0.90037534734258107 0.43359793501655075 0.03629138530160532
vn -0.57648619751432717 -0.35228303839864705 0.73726543722874294
vn -0.85326574316275683 -0.52141933295009235 0.0077104325941629087
vn -0.4967108212155929 0.30353336828843591 0.81310875928304194
vn -0.85329070963569453 0.52143458962923306 0.00096622337283602247
vn -0.22061377437748489 -0.31788070057804241 -0.92210705601623777
vn -0.55344425452186818 -0.74338532002702196 -0.37560314576033027
vn -0.58374347072284771 0.81193754233415649 -0.00099384949238568257
vn -0.55597165352691558 0.77330930556382271 -0.30477571819773602
vn -0.27659424542885919 -0.87096801329903761 -0.40609154535100495
vn -0.26995807999314941 -0.76130283324534309 0.58952576800257483
vn -0.27491937256306304 0.77529406510671273 -0.56862857050964299
vn -0.25827681664121521 0.81328823570574627 0.52139747951856696
vn -0.57596955371794412 -0.45155210026968579 0.68143948662517928
vn -0.74276724212857803 -0.54341932445055019 0.39114225268361652
vn -0.65352348490112322 0.49502464724543827 0.57258855498710493
vn -0.79698556291964084 0.60369291427023997 0.019206190605320764
vn -0.66831518035067972 -0.64112060142409488 0.37725216254177429
vn -0.74425401078546494 -0.66787689840561393 0.0051396503622576075
vn -0.30534589611442448 0.28331983324667354 0.90911701986881555
vn -0.73305123578229126 0.68017273697131442 0.00096622927238798335
vn -0.30931855810794412 -0.55694908156017331 -0.77079812542539428
vn -0.4766767034054335 -0.79479662865832112 -0.37560303447109594
vn -0.29572140976045319 0.51220432362733881 -0.80634705844738497
vn -0.45630177919539133 0.79033758283530975 -0.40884617090191766
vn -0.47507642058933525 -0.55672472841112663 0.68143963149759812
vn -0.674065467601765 -0.73867048547145531 0.0012881304974590412
vn -0.49333164302722682 0.54061443846081114 0.68143959300568857
vn -0.50804929960922673 0.59536444261649657 0.62243641412960615
vn -0.39606790399050024 -0.91822026764702425 -0.0013249569045603348
vn -0.41701081585885064 -0.88463750195032465 -0.20861080892375947
vn -0.41128681683109358 0.91150543967243081 -0.00099385537923337959
vn -0.35142930461745331 0.77884753342497903 -0.51951319861377865
vn -0.41728378987704901 -0.6012607936407276 0.68143942998359652
vn -0.58060522945546789 -0.77986759331112843 0.23388908574807815
vn -0.47857829376603189 0.66566146595554765 0.57258853418305977
vn -0.58374281677368878 0.81193632100782553 0.0019324837377901322
vn -0.17937370952709755 -0.85088949869406272 -0.49377336232593116
vn -0.20369186794134464 -0.82864606142259145 0.5213974758506148
vn -0.20757723989435897 0.84445227989643967 -0.49377326421703399
vn -0.15727294412071394 0.74605078377329026 0.6470498041718753
vn -0.35534380175470887 -0.63982098922204589 0.68143956761068158
vn -0.51432925124255158 -0.85757740455852915 0.0051396991091738177
vn -0.29105599085746359 0.50412371740617157 0.81310865678245148
vn -0.48305617976851184 0.83667776891829437 0.25812213811557611
vn -0.30264863653930169 -0.95301121156777702 -0.013169412554069174
vn -0.28692984761837226 -0.8091657699199285 -0.51275922159975551
vn -0.30257086885459833 0.95276632866902211 -0.026214352464371635
vn -0.32685662505913488 0.92176256623247654 -0.20861092528310091
vn -0.28987214933555205 -0.67202246347540529 0.68143961260263919
vn -0.42639138473415489 -0.90453785310985835 0.0012881443624195288
vn -0.39488591017201657 0.83770279184469787 0.37725210467698755
vn -0.39604193101980711 0.91816021212647358 0.011515804008896862
vn -0.0937608472991176 -0.86452119053041709 -0.49377324212397522
vn -0.11375635563045479 -0.79969918731868184 0.58952582755594107
vn -0.12246551897154717 0.8609239936822275 -0.49377330199725605
vn -0.092005856728717153 0.84833931311572208 0.52139747999962527
vn -0.2215200377860026 -0.69754499077687815 0.68143954882393853
vn -0.33279780074563331 -0.93851680652052116 0.091824984058764311
vn -0.18931472627502643 0.53388289205296291 0.82409282971554632
vn -0.3026709379163609 0.9530812594084781 0.0051396794821998168
vn -0.20627346252249909 -0.9784934865321705 -0.0013249426765437858
vn -0.22122894373723795 -0.8999889695758454 -0.37560299399061503
vn -0.22252062397220979 0.97492595668063453 -0.0019876864359835594
vn -0.21290070809324499 0.93277837717061907 -0.29085698818550193
vn -0.11684459052744367 -0.55427299718115597 0.82409270489447506
vn -0.23865731019889849 -0.97089058392311089 0.02035097879875912
vn -0.21280817324438331 0.93237385752053026 0.29221853331483738
vn -0.22252044349320885 0.97492610887029529 0.0019324778422179513
vn -0.10664422303383368 -0.98330944428081135 -0.14740945180575102
vn -0.13051965322226744 -0.91754392365700366 -0.37560320590065505
vn -0.14082926754809463 0.99001978262822632 -0.0052865306796146859
vn -0.099927449330155668 0.92137765997939436 -0.37560313172451637
vn -0.078912183588013579 -0.72760764709663772 0.68143963721511402
vn -0.1408195177590123 -0.98995248835780358 0.012803679639539324
vn -0.051794256629776839 0.41330818132485947 0.90911699039788385
vn -0.12202861237351034 0.97376479809725014 0.19207065301294005
vn -0.006826388164070417 -0.82256608275108767 -0.56862856060187839
vn -0.033566450792094929 -0.80705187224408703 0.58952571520548258
vn -0.036136289163153583 0.86883954474999336 -0.4937732415635151
vn -0.0067031966324060457 0.80772175025874293 0.58952577663225236
vn -0.0249299547433025 -0.99965774172689315 -0.0079307478830837434
vn -0.024617624498025893 -0.98713371788163939 -0.1579904920722951
vn -0.041101886699705922 0.98822117788394248 -0.14740942470343577
vn -0.0076910921584736709 0.92674868486802031 -0.37560314455127308
vn -0.0060741790322079081 -0.7318493295660331 0.68143940534931835
vn -0.041556200725866438 -0.99913533763196605 0.0012881289876768471
vn -0.02043975330892427 0.81958805604673013 0.57258853889177019
vn -0.024927584966851192 0.99953999425233264 0.017274703984941294
vn 0.084560630917238172 -0.92224199657106276 0.37725216958885543
vn 0.058131480977681414 -0.9982957047926182 0.0051397190537403065
vn 0.043501282885612391 0.58048425916973556 0.81310864172229114
vn 0.074729540712983031 0.99719638597641935 0.0038553262371291931
vn 0.074729900471973323 -0.9972033164106846 -0.00099383850847003467
vn 0.063853927648401546 -0.8520732399572073 -0.5195131082780301
vn 0.058132486509936153 0.99830799784516866 -0.0013249341654900451
vn 0.078389741301733151 0.85494632435795559 -0.51275903787789912
vn 0.13905979891578965 -0.71854194817647377 0.68143953586232264
vn 0.028617932024002604 -0.17973328461547344 0.9832990187974372
vn 0.14562502075560216 0.91458961048088105 0.37725216729710181
vn 0.19000484338135379 0.98178230797586563 0.0012881138186996524
vn 0.079399415829131112 -0.86595822221031893 -0.49377331859096707
vn 0.044322980133841672 -0.7611583753502621 0.64704976707066697
vn 0.053123345181742117 0.91228701205568719 -0.40609151410883731
vn 0.073752910032104865 0.80437542502430814 0.58952581273321703
vn 0.17351417785317158 -0.98404651368022233 -0.039310164051269289
vn 0.16614097885050391 -0.94223107898193892 -0.29085695616080343
vn 0.15722954353551 0.98747427142955435 -0.013169430674333951
vn 0.18582520188252699 0.96018253798570674 -0.20861085324748765
vn 0.15765944396052189 -0.56035505003052966 0.81310867516915697
vn 0.27083032882820307 -0.96258834008265115 0.0086383171818152568
vn 0.22204658866894417 0.78920059704035739 0.57258862204171335
vn 0.27064254571369101 0.9619209191284479 0.038219861233325665
vn 0.29952207600012359 -0.76317030092496085 0.5725885239634837
vn 0.3653299576996713 -0.93084615824593286 0.0077104919391677825
vn 0.27867867715205125 0.67674107655018101 0.68143943987010691
vn 0.34922517098743389 0.93526451814889378 0.057637323328855745
vn 0.27084084053542307 -0.96262362914350519 -0.00099383733722063425
vn 0.23142344058129208 -0.8225261441400058 -0.51951316956906057
vn 0.25479142058295456 0.96699512747033733 -0.0013249324307895011
vn 0.26581491811487495 0.88784272324928604 -0.37560315238410091
vn 0.16522686456076208 -0.85374937794569361 -0.49377331123174406
vn 0.12701303767261984 -0.79770109005140144 0.58952579179538833
vn 0.12934728031963094 0.81236122209835449 -0.56862863619833892
vn 0.14486914943459989 0.74855833246068415 0.64704972949980843
vn 0.34467607631319286 -0.64563038097663905 0.68143951571456585
vn 0.4413450311184956 -0.8973365612359907 0.001288167761337572
vn 0.19003041837614701 0.37066801179248304 0.90911696999098757
vn 0.45621047601972897 0.88987137717295739 0.00096625988038598343
vn 0.25712017993865738 -0.62438828944696312 -0.73758286115514371
vn 0.30032029830889623 -0.80429205421016559 -0.51275921245556144
vn 0.33259468836767242 0.89072655638974851 -0.30981764799906258
vn 0.35289398405854883 0.85696451797369477 -0.37560304970726455
vn 0.40724719340463261 -0.60810353177171006 0.68143951904099509
vn 0.45310179734122163 -0.72782242219792959 0.51475555654319405
vn 0.38679498769962772 0.62131306142128573 0.68143944499695241
vn 0.096107549704830264 0.14350827053426574 0.98497142860998643
vn 0.46577070767483775 -0.56453321338685558 0.6814395782864332
vn 0.61039048802809204 -0.79208398259483925 0.0051397122026357739
vn 0.44673502379915081 0.57971358295338693 0.68143963800950014
vn 0.63640747237615614 0.77135197530440769 0.001288137329825359
vn 0.46666244073146207 -0.87413039550858607 -0.13461878791074344
vn 0.40903032855512678 -0.83163484882723049 -0.37560307312134
vn 0.4413449714019626 0.89733653704620653 -0.0013249528757960239
vn 0.43646665464985429 0.81756905239120115 -0.37560312026248943
vn 0.24941178717889886 -0.8330556672524555 -0.49377324317422627
vn 0.20580761013140994 -0.7810906497516944 0.58952576235689091
vn 0.22156419393397045 0.84089077216869668 -0.49377324476719353
vn 0.23167481608470594 0.77381274029603264 0.58952576071590146
vn 0.51966584707578867 -0.51535169471893449 0.68143968048046999
vn 0.68623215955186845 -0.72738144316582332 0.0012881516925255575
vn 0.6677600083503441 0.68462026128719755 0.29221852967085765
vn 0.34873667726849927 0.35754191944170211 0.86634087157981288
vn 0.43992624299188982 -0.35684169550351552 0.82409277698400984
vn 0.75518504839517164 -0.6553866095453833 0.012803699035427647
vn 0.44592383475169961 0.37417407386524293 0.81310866189423103
vn 0.76601624347045427 0.642763171934705 0.0086382604643944934
vn 0.55644340436241579 -0.83088445783997034 -0.0013249383169252999
vn 0.48980220150132209 -0.78677578150020366 -0.37560307912635921
vn 0.5284911486388153 0.84892235112814585 -0.0052865457045803534
vn 0.4777251437006314 0.71334190307284984 -0.51275921873391583
vn 0.70501441965711753 -0.48067092073398415 0.52145003023902647
vn 0.82614235753269927 -0.56325458966600572 0.015266705947693781
vn 0.55820946703493723 0.38058095125572661 0.73726544097350555
vn 0.82621408899306481 0.56330349537082269 0.0077104638234825199
vn 0.59332908749189417 -0.32310998902587579 0.7372655755748635
vn 0.82560709384552111 -0.44960192354593753 0.3409267325038412
vn 0.74937041699457552 0.40808561777234809 0.52145000402793829
vn 0.8782210457408427 0.47825397141934911 0.00096625021652415265
vn 0.61555529252630803 -0.77188149133705941 -0.15903032784386859
vn 0.61565937442275342 -0.77201200583417262 -0.15799049823733424
vn 0.54372213766331468 0.70556991954539217 -0.4544637781468886
vn 0.62240677798859756 0.75438141833240979 -0.20861082998884412
vn 0.85925442268736008 -0.34548914227425637 0.37725202406721431
vn 0.91488689422589031 -0.40370820094863819 0.0012881228662367835
vn 0.66958272933860052 0.29546388821788383 0.68143969603380194
vn 0.60927667893661208 0.24497805499234246 0.75416687879814859
vn 0.34796358758853058 -0.84499171943766871 -0.40609153622587518
vn 0.28255601190640195 -0.75671755736926494 0.58952577424964403
vn 0.30418842221144393 0.81465164475815266 -0.49377333006689295
vn 0.30757000802931633 0.74690030567070775 0.58952576156589587
vn 0.70285082733438686 -0.20406074775514216 0.68143959801363185
vn 0.94965666606855115 -0.31032143769578668 0.04304441773313044
vn 0.64558818129971784 0.19913754993602961 0.73726530935043855
vn 0.95557103438306856 0.29475458208324695 0.0019325084742056562
vn 0.55701358917448185 -0.10298970548469286 0.82409282367894576
vn 0.97674031836766317 -0.21442176011086833 0.0012881249913388943
vn 0.71967601976431117 0.13306537355716991 0.68143967666719374
vn 0.97672822750500621 0.21441910582906648 0.005139713065169812
vn 0.57921926639091592 -0.057959802858492428 0.81310866598147513
vn 0.99498485177476947 -0.099563549077683791 0.0096043965867548178
vn 0.92291483068826807 0.076870376306123631 0.37725211800889885
vn 0.69473167963967108 0.081211256884426403 0.71466959153184439
vn 0.69781573713192946 -0.71543478916045522 -0.034731246305839333
vn 0.59661724019019158 -0.61168114551171782 -0.51951327695575977
vn 0.69823664686868414 0.71586632638833192 -0.0009938374366370295
vn 0.52002847011797326 0.53315859628706963 -0.66731724200110532
vn 0.73177318687022663 -0.012173908822784673 0.68143950496120131
vn 0.99986081795609871 0.016633862310988283 0.0012881540204667844
vn 0.77599843567447535 -0.6294447150198903 -0.040320944486659016
vn 0.69994763892194112 -0.60745006312772509 -0.3756031463842161
vn 0.77661915436667595 0.62994820585486877 -0.0052864932631193177
vn 0.69994763178039876 0.60745005692993237 -0.37560316971616886
vn 0.40953302021663329 -0.76711836953506229 -0.49377334119422678
vn 0.35649650837922059 -0.72482383986609378 0.58952577609057555
vn 0.38378978974925027 0.78031616739297882 -0.49377330445191014
vn 0.40186751561395173 0.75275969977660906 0.52139748204848435
vn 0.8354936941996246 -0.54949843625537398 -0.0013249549286011874
vn 0.75695183985231396 -0.53473939157769013 -0.37560310866567476
vn 0.43149910290903853 0.29419134551755882 -0.85279538953447875
vn 0.7905174164986789 0.53896608555368408 -0.29085696284461399
vn 0.88578081692962085 -0.46343585733607517 -0.024890771275127666
vn 0.80643359735583164 -0.45671350679182771 -0.37560301618816067
vn 0.870132892786179 0.49278880014710419 -0.0052865244852975798
vn 0.86656099198550218 0.45338014617075356 -0.20861085836381751
vn 0.92779687738742544 -0.37304826361541271 -0.0052865228334187135
vn 0.78546081817898261 -0.34659674937300416 -0.51275919926381652
vn 0.92147581186740579 0.38843447378902801 -0.00099383879276968858
vn 0.68629117508395687 0.28929587518912481 -0.6673172555842084
vn 0.96034261403151167 -0.27881949034941583 -0.0013249439290899398
vn 0.88093994370908091 -0.28786654039412957 -0.37560307573202356
vn 0.17302725550955131 0.053371848657147065 -0.98346988495924514
vn 0.91426008215788712 0.28201193271257785 -0.29085696137512307
vn 0.4838785430934372 -0.72252988834776588 -0.4937733447422385
vn 0.42689447604688002 -0.68572623017382195 0.58952577854768851
vn 0.48295910292050942 0.775783580149777 -0.4060915434679862
vn 0.44946742420339908 0.67114703154533095 0.58952582354622274
vn 0.20238896576897364 -0.037421046028849859 -0.97858999169676353
vn 0.95525142873654578 -0.20970508366816223 -0.20861084770576344
vn 0.97640530895094302 0.21434896703417178 -0.026214365981215088
vn 0.96169818309682531 0.17781479261378058 -0.20861089174820957
vn 0.99647939109802053 -0.082997134219263469 -0.011844780635699416
vn 0.92051271197688511 -0.10760395783119936 -0.37560316205807154
vn 0.99323606095795802 0.11610500303707966 -0.001324946217456605
vn 0.85556990431423663 0.071260731347474585 -0.5127592485753435
vn 0.99984768027171322 0.016633366385539056 -0.0052865279681566556
vn 0.92665237739605888 -0.015415696619979965 -0.37560315196221744
vn 0.52350597987999481 -0.63451015341663197 -0.56862848525297127
vn 0.49304949650231888 -0.63981369374189856 0.58952576813838931
vn 0.55350600359796087 0.69407437305493047 -0.46031713920884942
vn 0.42046937104506915 0.52725176095629689 0.73838410639818619
vn 0.61745084162754293 -0.61232538397261049 -0.49377331065604779
vn 0.55430420581965822 -0.58754259417720534 0.58952569701257118
vn 0.58096812103665862 0.59563723008727421 -0.55470021856232754
vn 0.58901936556571033 0.60389176388421051 0.53700179189774111
vn 0.67535053730350625 -0.54780433385182559 -0.49377329168052703
vn 0.64446238325723826 -0.55929676915725091 0.52139750725973122
vn 0.65675534298344995 0.56996521596946159 -0.49377330025789778
vn 0.62732286760809897 0.50884713436695372 0.58952575314611211
vn 0.72653826528910426 -0.477838943040998 -0.49377332206606805
vn 0.62273257425371564 -0.43992131182454802 0.64704975107476037
vn 0.76015949541409078 0.51826794296544831 -0.39186206862384371
vn 0.60906532759403542 0.4152536886904043 0.67572464861937886
vn 0.7705053579784279 -0.40312466788005102 -0.49377322271781143
vn 0.74250679852909085 -0.42050954107165034 0.521397525891512
vn 0.72886407881130211 0.3813381524969639 -0.56862849741175836
vn 0.66344008896711415 0.37573108810958 0.64704976453074992
vn 0.8478626064936009 -0.34090853547769967 -0.40609157950926206
vn 0.69755399930026718 -0.30780681033166402 0.64704975509897988
vn 0.76671449978239548 0.32319740224825044 -0.55470020281537091
vn 0.80827955356733883 0.34071854918288541 0.48020311694916484
vn 0.83510569165266602 -0.24245903278086134 -0.4937733297701401
vn 0.76779645215523862 -0.25089444979646247 0.58952572727503494
vn 0.87914986918096527 0.27118188854514014 -0.39186208140643447
vn 0.7044044301639536 0.21728004560745043 0.6757246336683459
vn 0.80888405297312738 -0.1495597714730677 -0.56862858141557615
vn 0.83346666993172125 -0.18296968713300793 0.52139754861657761
vn 0.68037254969729655 0.13754018669661391 -0.71984435169129468
vn 0.8597655438588877 0.17380523871852074 0.48020302850672331
vn 0.8665899850418789 -0.072178638356420494 -0.49377326982141234
vn 0.8022867436275507 -0.093783761379738539 0.58952573065216485
vn 0.90765211888688546 0.10610050634591914 -0.40609150894014873
vn 0.75981675420140671 0.063285451788370528 0.64704980614074914
vn 0.86947038150181988 0.014464482476177851 -0.49377326217382012
vn 0.80763781041124272 -0.01343583772872615 0.58952578014762069
f 1//1 2//2 3//3
f 1//1 3//3 44//44
f 1//1 5//5 2//2
f 1//1 42//42 46//46
f 1//1 44//44 42//42
f 1//1 46//46 5//5
f 2//2 4//4 3//3
f 2//2 5//5 6//6
f 2//2 6//6 81//81
f 2//2 81//81 83//83
f 2//2 83//83 4//4
f 3//3 4//4 8//8
f 3//3 7//7 44//44
f 3//3 8//8 7//7
f 4//4 83//83 87//87
f 4//4 87//87 8//8
f 5//5 9//9 10//10
f 5//5 10//10 6//6
f 5//5 46//46 50//50
f 5//5 50//50 9//9
f 6//6 10//10 85//85
f 6//6 85//85 81//81
f 7//7 8//8 11//11
f 7//7 11//11 48//48
f 7//7 48//48 44//44
f 8//8 12//12 11//11
f 8//8 87//87 91//91
f 8//8 91//91 12//12
f 9//9 13//13 10//10
f 9//9 50//50 13//13
f 10//10 13//13 14//14
f 10//10 14//14 89//89
f 10//10 89//89 85//85
f 11//11 12//12 16//16
f 11//11 15//15 52//52
f 11//11 16//16 15//15
f 11//11 52//52 48//48
f 12//12 91//91 99//99
f 12//12 99//99 16//16
f 13//13 17//17 18//18
f 13//13 18//18 14//14
f 13//13 50//50 54//54
f 13//13 54//54 58//58
f 13//13 58//58 17//17
f 14//14 18//18 97//97
f 14//14 97//97 89//89
f 15//15 16//16 20//20
f 15//15 19//19 56//56
f 15//15 20//20 19//19
f 15//15 56//56 52//52
f 16//16 99//99 103//103
f 16//16 103//103 20//20
f 17//17 21//21 22//22
f 17//17 22//22 18//18
f 17//17 58//58 66//66
f 17//17 66//66 21//21
f 18//18 22//22 105//105
f 18//18 101//101 97//97
f 18//18 105//105 101//101
f 19//19 20//20 23//23
f 19//19 23//23 60//60
f 19//19 60//60 56//56
f 20//20 24//24 23//23
f 20//20 103//103 107//107
f 20//20 107//107 24//24
f 21//21 25//25 26//26
f 21//21 26//26 22//22
f 21//21 66//66 25//25
f 22//22 26//26 105//105
f 23//23 24//24 27//27
f 23//23 27//27 68//68
f 23//23 68//68 60//60
f 24//24 28//28 27//27
f 24//24 107//107 119//119
f 24//24 119//119 28//28
f 25//25 29//29 30//30
f 25//25 30//30 26//26
f 25//25 66//66 70//70
f 25//25 70//70 78//78
f 25//25 78//78 29//29
f 26//26 30//30 117//117
f 26//26 117//117 105//105
f 27//27 28//28 32//32
f 27//27 31//31 72//72
f 27//27 32//32 31//31
f 27//27 72//72 68//68
f 28//28 119//119 123//123
f 28//28 123//123 32//32
f 29//29 33//33 34//34
f 29//29 34//34 30//30
f 29//29 78//78 33//33
f 30//30 34//34 129//129
f 30//30 121//121 117//117
f 30//30 129//129 121//121
f 31//31 32//32 35//35
f 31//31 35//35 96//96
f 31//31 80//80 72//72
f 31//31 96//96 80//80
f 32//32 36//36 35//35
f 32//32 123//123 36//36
f 33//33 37//37 34//34
f 33//33 78//78 94//94
f 33//33 94//94 37//37
f 34//34 37//37 38//38
f 34//34 38//38 137//137
f 34//34 137//137 129//129
f 35//35 36//36 40//40
f 35//35 39//39 96//96
f 35//35 40//40 39//39
f 36//36 123//123 131//131
f 36//36 131//131 40//40
f 37//37 61//61 62//62
f 37//37 62//62 38//38
f 37//37 94//94 110//110
f 37//37 110//110 61//61
f 38//38 62//62 145//145
f 38//38 145//145 137//137
f 39//39 40//40 63//63
f 39//39 63//63 128//128
f 39//39 112//112 96//96
f 39//39 128//128 112//112
f 40//40 64//64 63//63
f 40//40 131//131 139//139
f 40//40 139//139 64//64
f 41//41 42//42 43//43
f 41//41 43//43 45//45
f 41//41 45//45 46//46
f 41//41 46//46 42//42
f 42//42 44//44 43//43
f 43//43 44//44 47//47
f 43//43 47//47 55//55
f 43//43 53//53 45//45
f 43//43 55//55 59//59
f 43//43 59//59 67//67
f 43//43 67//67 325//325
f 43//43 93//93 53//53
f 43//43 109//109 93//93
f 43//43 325//325 331//331
f 43//43 331//331 109//109
f 44//44 48//48 47//47
f 45//45 49//49 50//50
f 45//45 50//50 46//46
f 45//45 53//53 49//49
f 47//47 48//48 51//51
f 47//47 51//51 55//55
f 48//48 52//52 51//51
f 49//49 53//53 50//50
f 50//50 53//53 54//54
f 51//51 52//52 55//55
f 52//52 56//56 55//55
f 53//53 57//57 58//58
f 53//53 58//58 54//54
f 53//53 65//65 57//57
f 53//53 93//93 65//65
f 55//55 56//56 60//60
f 55//55 60//60 59//59
f 57//57 65//65 58//58
f 58//58 65//65 66//66
f 59//59 60//60 68//68
f 59//59 68//68 67//67
f 61//61 73//73 74//74
f 61//61 74//74 62//62
f 61//61 110//110 126//126
f 61//61 126//126 73//73
f 62//62 74//74 153//153
f 62//62 153//153 145//145
f 63//63 64//64 76//76
f 63//63 75//75 128//128
f 63//63 76//76 75//75
f 64//64 139//139 147//147
f 64//64 147//147 76//76
f 65//65 69//69 66//66
f 65//65 93//93 69//69
f 66//66 69//69 70//70
f 67//67 68//68 71//71
f 67//67 71//71 79//79
f 67//67 79//79 325//325
f 68//68 72//72 71//71
f 69//69 77//77 78//78
f 69//69 78//78 70//70
f 69//69 93//93 77//77
f 71//71 72//72 79//79
f 72//72 80//80 79//79
f 73//73 113//113 114//114
f 73//73 114//114 74//74
f 73//73 126//126 134//134
f 73//73 134//134 150//150
f 73//73 150//150 113//113
f 74//74 114//114 161//161
f 74//74 161//161 153//153
f 75//75 76//76 115//115
f 75//75 115//115 136//136
f 75//75 136//136 128//128
f 76//76 116//116 115//115
f 76//76 147//147 155//155
f 76//76 155//155 163//163
f 76//76 163//163 116//116
f 77//77 93//93 94//94
f 77//77 94//94 78//78
f 79//79 80//80 95//95
f 79//79 95//95 325//325
f 80//80 96//96 95//95
f 81//81 82//82 84//84
f 81//81 84//84 83//83
f 81//81 85//85 82//82
f 82//82 85//85 86//86
f 82//82 86//86 84//84
f 83//83 84//84 87//87
f 84//84 86//86 90//90
f 84//84 88//88 87//87
f 84//84 90//90 100//100
f 84//84 100//100 88//88
f 85//85 89//89 90//90
f 85//85 90//90 86//86
f 87//87 88//88 92//92
f 87//87 92//92 91//91
f 88//88 100//100 92//92
f 89//89 97//97 90//90
f 90//90 97//97 98//98
f 90//90 98//98 100//100
f 91//91 92//92 100//100
f 91//91 100//100 99//99
f 93//93 109//109 110//110
f 93//93 110//110 94//94
f 95//95 96//96 111//111
f 95//95 111//111 127//127
f 95//95 127//127 313//313
f 95//95 313//313 325//325
f 96//96 112//112 111//111
f 97//97 101//101 98//98
f 98//98 101//101 102//102
f 98//98 102//102 106//106
f 98//98 106//106 118//118
f 98//98 118//118 202//202
f 98//98 202//202 240//240
f 98//98 240//240 100//100
f 99//99 100//100 103//103
f 100//100 104//104 103//103
f 100//100 132//132 104//104
f 100//100 240//240 132//132
f 101//101 105//105 102//102
f 102//102 105//105 106//106
f 103//103 104//104 108//108
f 103//103 108//108 107//107
f 104//104 120//120 108//108
f 104//104 132//132 120//120
f 105//105 117//117 118//118
f 105//105 118//118 106//106
f 107//107 108//108 119//119
f 108//108 120//120 119//119
f 109//109 125//125 126//126
f 109//109 126//126 110//110
f 109//109 331//331 125//125
f 111//111 112//112 128//128
f 111//111 128//128 127//127
f 113//113 141//141 142//142
f 113//113 142//142 114//114
f 113//113 150//150 141//141
f 114//114 142//142 169//169
f 114//114 169//169 161//161
f 115//115 116//116 143//143
f 115//115 143//143 168//168
f 115//115 152//152 136//136
f 115//115 168//168 152//152
f 116//116 144//144 143//143
f 116//116 163//163 144//144
f 117//117 121//121 122//122
f 117//117 122//122 118//118
f 118//118 122//122 138//138
f 118//118 138//138 202//202
f 119//119 120//120 124//124
f 119//119 124//124 123//123
f 120//120 132//132 124//124
f 121//121 129//129 130//130
f 121//121 130//130 122//122
f 122//122 130//130 138//138
f 123//123 124//124 131//131
f 124//124 132//132 131//131
f 125//125 133//133 134//134
f 125//125 134//134 126//126
f 125//125 149//149 133//133
f 125//125 173//173 149//149
f 125//125 233//233 173//173
f 125//125 331//331 233//233
f 127//127 128//128 135//135
f 127//127 135//135 151//151
f 127//127 151//151 187//187
f 127//127 187//187 235//235
f 127//127 235//235 275//275
f 127//127 275//275 313//313
f 128//128 136//136 135//135
f 129//129 137//137 138//138
f 129//129 138//138 130//130
f 131//131 132//132 139//139
f 132//132 140//140 139//139
f 132//132 148//148 140//140
f 132//132 240//240 148//148
f 133//133 149//149 150//150
f 133//133 150//150 134//134
f 135//135 136//136 152//152
f 135//135 152//152 151//151
f 137//137 145//145 146//146
f 137//137 146//146 138//138
f 138//138 146//146 162//162
f 138//138 162//162 202//202
f 139//139 140//140 148//148
f 139//139 148//148 147//147
f 141//141 150//150 166//166
f 141//141 157//157 158//158
f 141//141 158//158 142//142
f 141//141 166//166 157//157
f 142//142 158//158 169//169
f 143//143 144//144 159//159
f 143//143 159//159 176//176
f 143//143 176//176 168//168
f 144//144 160//160 159//159
f 144//144 163//163 171//171
f 144//144 171//171 179//179
f 144//144 179//179 160//160
f 145//145 153//153 154//154
f 145//145 154//154 146//146
f 146//146 154//154 162//162
f 147//147 148//148 155//155
f 148//148 156//156 155//155
f 148//148 180//180 156//156
f 148//148 240//240 180//180
f 149//149 165//165 166//166
f 149//149 166//166 150//150
f 149//149 173//173 165//165
f 151//151 152//152 168//168
f 151//151 167//167 175//175
f 151//151 168//168 167//167
f 151//151 175//175 187//187
f 153//153 161//161 162//162
f 153//153 162//162 154//154
f 155//155 156//156 163//163
f 156//156 164//164 163//163
f 156//156 180//180 164//164
f 157//157 166//166 174//174
f 157//157 174//174 181//181
f 157//157 181//181 182//182
f 157//157 182//182 158//158
f 158//158 177//177 169//169
f 158//158 182//182 177//177
f 159//159 160//160 183//183
f 159//159 183//183 188//188
f 159//159 188//188 176//176
f 160//160 179//179 184//184
f 160//160 184//184 183//183
f 161//161 169//169 170//170
f 161//161 170//170 162//162
f 162//162 170//170 202//202
f 163//163 164//164 171//171
f 164//164 172//172 171//171
f 164//164 180//180 172//172
f 165//165 173//173 174//174
f 165//165 174//174 166//166
f 167//167 168//168 175//175
f 168//168 176//176 175//175
f 169//169 177//177 178//178
f 169//169 178//178 170//170
f 170//170 178//178 202//202
f 171//171 172//172 180//180
f 171//171 180//180 179//179
f 173//173 185//185 186//186
f 173//173 186//186 174//174
f 173//173 209//209 185//185
f 173//173 233//233 209//209
f 174//174 186//186 181//181
f 175//175 176//176 187//187
f 176//176 188//188 187//187
f 177//177 182//182 189//189
f 177//177 189//189 190//190
f 177//177 190//190 178//178
f 178//178 190//190 194//194
f 178//178 194//194 202//202
f 179//179 180//180 191//191
f 179//179 191//191 184//184
f 180//180 192//192 191//191
f 180//180 216//216 192//192
f 180//180 220//220 216//216
f 180//180 240//240 220//220
f 181//181 186//186 198//198
f 181//181 198//198 205//205
f 181//181 205//205 206//206
f 181//181 206//206 182//182
f 182//182 206//206 189//189
f 183//183 184//184 207//207
f 183//183 200//200 188//188
f 183//183 207//207 200//200
f 184//184 191//191 208//208
f 184//184 208//208 207//207
f 185//185 197//197 186//186
f 185//185 209//209 197//197
f 186//186 197//197 198//198
f 187//187 188//188 199//199
f 187//187 199//199 211//211
f 187//187 211//211 235//235
f 188//188 200//200 199//199
f 189//189 193//193 194//194
f 189//189 194//194 190//190
f 189//189 206//206 193//193
f 191//191 192//192 196//196
f 191//191 195//195 208//208
f 191//191 196//196 195//195
f 192//192 216//216 196//196
f 193//193 201//201 202//202
f 193//193 202//202 194//194
f 193//193 206//206 201//201
f 195//195 196//196 203//203
f 195//195 203//203 228//228
f 195//195 228//228 208//208
f 196//196 204//204 203//203
f 196//196 216//216 204//204
f 197//197 209//209 210//210
f 197//197 210//210 198//198
f 198//198 210//210 205//205
f 199//199 200//200 211//211
f 200//200 207//207 227//227
f 200//200 212//212 211//211
f 200//200 227//227 212//212
f 201//201 206//206 226//226
f 201//201 213//213 214//214
f 201//201 214//214 202//202
f 201//201 226//226 213//213
f 202//202 214//214 238//238
f 202//202 238//238 296//296
f 202//202 256//256 240//240
f 202//202 280//280 256//256
f 202//202 296//296 280//280
f 203//203 204//204 215//215
f 203//203 215//215 228//228
f 204//204 216//216 215//215
f 205//205 210//210 225//225
f 205//205 225//225 226//226
f 205//205 226//226 206//206
f 207//207 208//208 227//227
f 208//208 228//228 227//227
f 209//209 221//221 210//210
f 209//209 233//233 221//221
f 210//210 221//221 222//222
f 210//210 222//222 225//225
f 211//211 212//212 223//223
f 211//211 223//223 235//235
f 212//212 224//224 223//223
f 212//212 227//227 224//224
f 213//213 217//217 214//214
f 213//213 226//226 250//250
f 213//213 250//250 217//217
f 214//214 217//217 218//218
f 214//214 218//218 238//238
f 215//215 216//216 220//220
f 215//215 219//219 252//252
f 215//215 220//220 219//219
f 215//215 252//252 228//228
f 217//217 229//229 230//230
f 217//217 230//230 218//218
f 217//217 250//250 282//282
f 217//217 282//282 229//229
f 218//218 230//230 238//238
f 219//219 220//220 232//232
f 219//219 231//231 284//284
f 219//219 232//232 231//231
f 219//219 284//284 252//252
f 220//220 240//240 232//232
f 221//221 233//233 234//234
f 221//221 234//234 222//222
f 222//222 234//234 249//249
f 222//222 249//249 225//225
f 223//223 224//224 235//235
f 224//224 227//227 251//251
f 224//224 236//236 235//235
f 224//224 251//251 236//236
f 225//225 249//249 250//250
f 225//225 250//250 226//226
f 227//227 228//228 251//251
f 228//228 252//252 251//251
f 229//229 237//237 238//238
f 229//229 238//238 230//230
f 229//229 282//282 308//308
f 229//229 308//308 237//237
f 231//231 232//232 239//239
f 231//231 239//239 330//330
f 231//231 310//310 284//284
f 231//231 330//330 310//310
f 232//232 240//240 239//239
f 233//233 245//245 246//246
f 233//233 246//246 234//234
f 233//233 331//331 245//245
f 234//234 246//246 307//307
f 234//234 281//281 249//249
f 234//234 307//307 281//281
f 235//235 236//236 247//247
f 235//235 247//247 263//263
f 235//235 263//263 275//275
f 236//236 248//248 247//247
f 236//236 251//251 283//283
f 236//236 283//283 248//248
f 237//237 241//241 242//242
f 237//237 242//242 238//238
f 237//237 308//308 328//328
f 237//237 328//328 241//241
f 238//238 242//242 258//258
f 238//238 258//258 266//266
f 238//238 266//266 270//270
f 238//238 270//270 296//296
f 239//239 240//240 243//243
f 239//239 243//243 344//344
f 239//239 344//344 330//330
f 240//240 244//244 243//243
f 240//240 256//256 244//244
f 241//241 253//253 254//254
f 241//241 254//254 242//242
f 241//241 328//328 342//342
f 241//241 342//342 253//253
f 242//242 254//254 258//258
f 243//243 244//244 255//255
f 243//243 255//255 348//348
f 243//243 348//348 344//344
f 244//244 256//256 255//255
f 245//245 261//261 262//262
f 245//245 262//262 246//246
f 245//245 273//273 261//261
f 245//245 331//331 273//273
f 246//246 262//262 327//327
f 246//246 327//327 307//307
f 247//247 248//248 263//263
f 248//248 264//264 263//263
f 248//248 283//283 309//309
f 248//248 309//309 264//264
f 249//249 281//281 282//282
f 249//249 282//282 250//250
f 251//251 252//252 283//283
f 252//252 284//284 283//283
f 253//253 257//257 258//258
f 253//253 258//258 254//254
f 253//253 342//342 346//346
f 253//253 346//346 257//257
f 255//255 256//256 260//260
f 255//255 259//259 348//348
f 255//255 260//260 259//259
f 256//256 280//280 260//260
f 257//257 265//265 266//266
f 257//257 266//266 258//258
f 257//257 346//346 350//350
f 257//257 350//350 354//354
f 257//257 354//354 265//265
f 259//259 260//260 267//267
f 259//259 267//267 352//352
f 259//259 352//352 348//348
f 260//260 268//268 267//267
f 260//260 280//280 268//268
f 261//261 273//273 274//274
f 261//261 274//274 262//262
f 262//262 274//274 341//341
f 262//262 341//341 327//327
f 263//263 264//264 275//275
f 264//264 276//276 275//275
f 264//264 309//309 329//329
f 264//264 329//329 343//343
f 264//264 343//343 276//276
f 265//265 269//269 266//266
f 265//265 354//354 269//269
f 266//266 269//269 270//270
f 267//267 268//268 272//272
f 267//267 271//271 360//360
f 267//267 272//272 271//271
f 267//267 356//356 352//352
f 267//267 360//360 356//356
f 268//268 280//280 272//272
f 269//269 277//277 278//278
f 269//269 278//278 270//270
f 269//269 354//354 358//358
f 269//269 358//358 362//362
f 269//269 362//362 277//277
f 270//270 278//278 286//286
f 270//270 286//286 296//296
f 271//271 272//272 279//279
f 271//271 279//279 360//360
f 272//272 280//280 279//279
f 273//273 297//297 274//274
f 273//273 331//331 297//297
f 274//274 297//297 298//298
f 274//274 298//298 341//341
f 275//275 276//276 299//299
f 275//275 299//299 305//305
f 275//275 305//305 313//313
f 276//276 300//300 299//299
f 276//276 343//343 300//300
f 277//277 285//285 286//286
f 277//277 286//286 278//278
f 277//277 362//362 285//285
f 279//279 280//280 287//287
f 279//279 287//287 364//364
f 279//279 364//364 360//360
f 280//280 288//288 287//287
f 280//280 292//292 288//288
f 280//280 296//296 292//292
f 281//281 307//307 308//308
f 281//281 308//308 282//282
f 283//283 284//284 309//309
f 284//284 310//310 309//309
f 285//285 289//289 290//290
f 285//285 290//290 286//286
f 285//285 362//362 366//366
f 285//285 366//366 289//289
f 286//286 290//290 294//294
f 286//286 294//294 296//296
f 287//287 288//288 292//292
f 287//287 291//291 372//372
f 287//287 292//292 291//291
f 287//287 368//368 364//364
f 287//287 372//372 368//368
f 289//289 293//293 294//294
f 289//289 294//294 290//290
f 289//289 366//366 370//370
f 289//289 370//370 374//374
f 289//289 374//374 293//293
f 291//291 292//292 296//296
f 291//291 295//295 376//376
f 291//291 296//296 295//295
f 291//291 376//376 372//372
f 293//293 301//301 294//294
f 293//293 374//374 378//378
f 293//293 378//378 301//301
f 294//294 301//301 302//302
f 294//294 302//302 296//296
f 295//295 296//296 302//302
f 295//295 301//301 376//376
f 295//295 302//302 301//301
f 297//297 303//303 304//304
f 297//297 304//304 298//298
f 297//297 331//331 303//303
f 298//298 304//304 345//345
f 298//298 345//345 341//341
f 299//299 300//300 306//306
f 299//299 306//306 305//305
f 300//300 343//343 347//347
f 300//300 347//347 351//351
f 300//300 351//351 306//306
f 301//301 378//378 376//376
f 303//303 311//311 312//312
f 303//303 312//312 304//304
f 303//303 315//315 311//311
f 303//303 331//331 315//315
f 304//304 312//312 349//349
f 304//304 349//349 345//345
f 305//305 306//306 314//314
f 305//305 314//314 313//313
f 306//306 351//351 355//355
f 306//306 355//355 314//314
f 307//307 327//327 328//328
f 307//307 328//328 308//308
f 309//309 310//310 329//329
f 310//310 330//330 329//329
f 311//311 315//315 316//316
f 311//311 316//316 312//312
f 312//312 316//316 353//353
f 312//312 353//353 349//349
f 313//313 314//314 317//317
f 313//313 317//317 325//325
f 314//314 318//318 317//317
f 314//314 355//355 359//359
f 314//314 359//359 318//318
f 315//315 319//319 320//320
f 315//315 320//320 316//316
f 315//315 331//331 319//319
f 316//316 320//320 357//357
f 316//316 357//357 353//353
f 317//317 318//318 321//321
f 317//317 321//321 325//325
f 318//318 322//322 321//321
f 318//318 359//359 322//322
f 319//319 323//323 324//324
f 319//319 324//324 320//320
f 319//319 331//331 323//323
f 320//320 324//324 365//365
f 320//320 361//361 357//357
f 320//320 365//365 361//361
f 321//321 322//322 326//326
f 321//321 326//326 325//325
f 322//322 359//359 363//363
f 322//322 363//363 367//367
f 322//322 367//367 326//326
f 323//323 331//331 332//332
f 323//323 332//332 324//324
f 324//324 332//332 369//369
f 324//324 369//369 365//365
f 325//325 326//326 333//333
f 325//325 333//333 331//331
f 326//326 334//334 333//333
f 326//326 367//367 371//371
f 326//326 371//371 334//334
f 327//327 341//341 342//342
f 327//327 342//342 328//328
f 329//329 330//330 343//343
f 330//330 344//344 343//343
f 331//331 333//333 335//335
f 331//331 335//335 336//336
f 331//331 336//336 332//332
f 332//332 336//336 369//369
f 333//333 334//334 337//337
f 333//333 337//337 339//339
f 333//333 339//339 335//335
f 334//334 338//338 337//337
f 334//334 371//371 338//338
f 335//335 339//339 340//340
f 335//335 340//340 336//336
f 336//336 340//340 373//373
f 336//336 373//373 369//369
f 337//337 338//338 339//339
f 338//338 340//340 339//339
f 338//338 371//371 375//375
f 338//338 375//375 377//377
f 338//338 377//377 340//340
f 340//340 377//377 373//373
f 341//341 345//345 346//346
f 341//341 346//346 342//342
f 343//343 344//344 348//348
f 343//343 348//348 347//347
f 345//345 349//349 350//350
f 345//345 350//350 346//346
f 347//347 348//348 351//351
f 348//348 352//352 351//351
f 349//349 353//353 354//354
f 349//349 354//354 350//350
f 351//351 352//352 355//355
f 352//352 356//356 355//355
f 353//353 357//357 358//358
f 353//353 358//358 354//354
f 355//355 356//356 360//360
f 355//355 360//360 359//359
f 357//357 361//361 362//362
f 357//357 362//362 358//358
f 359//359 360//360 364//364
f 359//359 364//364 363//363
f 361//361 365//365 366//366
f 361//361 366//366 362//362
f 363//363 364//364 367//367
f 364//364 368//368 367//367
f 365//365 369//369 370//370
f 365//365 370//370 366//366
f 367//367 368//368 372//372
f 367//367 372//372 371//371
f 369//369 373//373 374//374
f 369//369 374//374 370//370
f 371//371 372//372 375//375
f 372//372 376//376 375//375
f 373//373 377//377 378//378
f 373//373 378//378 374//374
f 375//375 376//376 377//377
f 376//376 378//378 377//377
