# Mesh2Param deterministic OBJ
o Mesh2Param_result
v 0 0 0
v 0 0 16
v 0 30 0
v 0 30 16
v 15 15 7
v 15 15 16
v 15.024846 14.502160999999999 7
v 15.024846 14.502160999999999 16
v 15.024846 15.497838999999999 7
v 15.024846 15.497838999999999 16
v 15.099138 14.009269 7
v 15.099138 14.009269 16
v 15.099138 15.990730999999998 7
v 15.099138 15.990730999999998 16
v 15.222135999999999 13.526223999999999 7
v 15.222135999999999 13.526223999999999 16
v 15.222135999999999 16.473776000000001 7
v 15.222135999999999 16.473776000000001 16
v 15.392619 13.057825999999999 7
v 15.392619 13.057825999999999 16
v 15.392619 16.942173999999998 7
v 15.392619 16.942173999999998 16
v 15.608891999999999 12.60873 7
v 15.608891999999999 12.60873 16
v 15.608891999999999 17.391269999999999 7
v 15.608891999999999 17.391269999999999 16
v 15.868805999999999 12.183399999999999 7
v 15.868805999999999 12.183399999999999 16
v 15.868805999999999 17.816599999999998 7
v 15.868805999999999 17.816599999999998 16
v 16.169778000000001 11.786061999999999 7
v 16.169778000000001 11.786061999999999 16
v 16.169778000000001 18.213937999999999 7
v 16.169778000000001 18.213937999999999 16
v 16.508815999999999 11.420665999999999 7
v 16.508815999999999 11.420665999999999 16
v 16.508815999999999 18.579333999999999 7
v 16.508815999999999 18.579333999999999 16
v 16.882550999999999 11.090843 7
v 16.882550999999999 11.090843 16
v 16.882550999999999 18.909157 7
v 16.882550999999999 18.909157 16
v 17.287268999999998 10.79987 7
v 17.287268999999998 10.79987 16
v 17.287268999999998 19.200129999999998 7
v 17.287268999999998 19.200129999999998 16
v 17.718947 10.550640999999999 7
v 17.718947 10.550640999999999 16
v 17.718947 19.449358999999998 7
v 17.718947 19.449358999999998 16
v 18.173295 10.345630999999999 7
v 18.173295 10.345630999999999 16
v 18.173295 19.654368999999999 7
v 18.173295 19.654368999999999 16
v 18.645797999999999 10.186878999999999 7
v 18.645797999999999 10.186878999999999 16
v 18.645797999999999 19.813120999999999 7
v 18.645797999999999 19.813120999999999 16
v 19.131758999999999 10.075961 7
v 19.131758999999999 10.075961 16
v 19.131758999999999 19.924039 7
v 19.131758999999999 19.924039 16
v 19.626349999999999 10.013980999999999 7
v 19.626349999999999 10.013980999999999 16
v 19.626349999999999 19.986018999999999 7
v 19.626349999999999 19.986018999999999 16
v 20.124652999999999 10.001553999999999 7
v 20.124652999999999 10.001553999999999 16
v 20.124652999999999 19.998445999999998 7
v 20.124652999999999 19.998445999999998 16
v 20.621718999999999 10.038803999999999 7
v 20.621718999999999 10.038803999999999 16
v 20.621718999999999 19.961195999999997 7
v 20.621718999999999 19.961195999999997 16
v 21.112604999999999 10.125359999999999 7
v 21.112604999999999 10.125359999999999 16
v 21.112604999999999 19.874639999999999 7
v 21.112604999999999 19.874639999999999 16
v 21.592433 10.260363 7
v 21.592433 10.260363 16
v 21.592433 19.739636999999998 7
v 21.592433 19.739636999999998 16
v 22.056435999999998 10.442470999999999 7
v 22.056435999999998 10.442470999999999 16
v 22.056435999999998 19.557528999999999 7
v 22.056435999999998 19.557528999999999 16
v 22.5 10.669872999999999 7
v 22.5 10.669872999999999 16
v 22.5 19.330126999999997 7
v 22.5 19.330126999999997 16
v 22.918717999999998 10.94031 7
v 22.918717999999998 10.94031 16
v 22.918717999999998 19.05969 7
v 22.918717999999998 19.05969 16
v 23.308429 11.251094 7
v 23.308429 11.251094 16
v 23.308429 18.748905999999998 7
v 23.308429 18.748905999999998 16
v 23.665258999999999 11.599136 7
v 23.665258999999999 11.599136 16
v 23.665258999999999 18.400863999999999 7
v 23.665258999999999 18.400863999999999 16
v 23.985662999999999 11.980977999999999 7
v 23.985662999999999 11.980977999999999 16
v 23.985662999999999 18.019022 7
v 23.985662999999999 18.019022 16
v 24.266454 12.392823999999999 7
v 24.266454 12.392823999999999 16
v 24.266454 17.607175999999999 7
v 24.266454 17.607175999999999 16
v 24.504843999999999 12.830580999999999 7
v 24.504843999999999 12.830580999999999 16
v 24.504843999999999 17.169418999999998 7
v 24.504843999999999 17.169418999999998 16
v 24.698463 13.289899 7
v 24.698463 13.289899 16
v 24.698463 16.710100999999998 7
v 24.698463 16.710100999999998 16
v 24.845385999999998 13.766212999999999 7
v 24.845385999999998 13.766212999999999 16
v 24.845385999999998 16.233787 7
v 24.845385999999998 16.233787 16
v 24.944153999999997 14.254788999999999 7
v 24.944153999999997 14.254788999999999 16
v 24.944153999999997 15.745210999999999 7
v 24.944153999999997 15.745210999999999 16
v 24.993784999999999 14.750770999999999 7
v 24.993784999999999 14.750770999999999 16
v 24.993784999999999 15.249229 7
v 24.993784999999999 15.249229 16
v 40 0 0
v 40 0 16
v 40 30 0
v 40 30 16
vn -0.33282011773513748 -0.44376015698018328 -0.83205029433784372
vn -0.37778712624671057 -0.50371616832894739 0.77688281549166449
vn -0.33282011773513748 0.44376015698018328 -0.83205029433784372
vn -0.51064446950739928 0.68085929267653233 0.52504556882000142
vn 0.99993933673627167 0 0.011014665107262272
vn 0.038457577320521984 0 0.99926023374626294
vn 0.99502978652982854 0.099568160254392024 0.0013803557364870046
vn 0.47883855114491575 0.047915222480577085 0.87659441784218251
vn 0.99595394287245753 -0.082953676114055158 0.034560545365634222
vn 0.63143063501897301 -0.07381188821644076 0.77191136687929407
vn 0.93914454193187713 0.20616890890105222 0.27477610951848491
vn 0.59905075465037516 0.110762656544402 0.793013131838334
vn 0.98017153866296636 -0.19814603080200377 0.0013803160813173458
vn 0.44675209100229502 -0.090312919823556354 0.89008771797953767
vn 0.9505121647579764 0.31060057147932052 0.0073423186954164055
vn 0.56548994164311561 0.16418031060948732 0.80824869409646316
vn 0.58038684113727756 -0.17902544926370725 0.79441865735304862
vn 0.66576721874391942 -0.20536178113053991 0.71734270003735201
vn 0.91488617485699608 0.40370769223969111 0.0018401853267522785
vn 0.53266317500946747 0.21417303439164173 0.81877949005108208
vn 0.9276546521184369 -0.37299107772599049 0.018289405124989843
vn 0.52524450255401234 -0.23177227049125448 0.81877947407596685
vn 0.8778910774625136 0.47807398053539313 0.027432193619020301
vn 0.59176564881374805 0.32225838322702205 0.73889305811054262
vn 0.87822074494122404 -0.47825350786839177 0.0013803501221661646
vn 0.36435229123766433 -0.19841567440536939 0.90987835891405111
vn 0.82604208106299204 0.56318641138235437 0.02180702518426101
vn 0.33941787966274484 0.23141137962400246 0.91172598753450151
vn 0.82618843954727061 -0.56328619698822824 0.011014655736103626
vn 0.55311279676906222 -0.37710622526780319 0.74287086960963478
vn 0.21434775437502757 0.18602177074039486 0.95888004515945102
vn 0.4351021313666199 0.35292919213430346 0.8283279064595449
vn 0.76578676454235084 -0.64257157432964696 0.025930736882648523
vn 0.31484573301321794 -0.26418701354048618 0.91163445869489179
vn 0.686231468654939 0.7273809078509369 0.001840196085292725
vn 0.40137853017448827 0.39804674948153423 0.82489639394420444
vn 0.070310450480410375 -0.072085761062734649 0.99491712398834919
vn 0.47095005078996466 -0.48284135006625833 0.7382887513210008
vn 0.6103827847963389 0.79207256429015416 0.0073422696140710885
vn 0.36611595939367209 0.4437470900769675 0.81795331427012052
vn 0.61265471019589812 -0.74256185204713032 0.27065864471528656
vn 0.35115342368812003 -0.45567961562467879 0.81795315326506124
vn 0.52842687209103345 0.84881943754421152 0.016450024292227527
vn 0.32860032942006034 0.49066739164177059 0.80701135945195301
vn 0.55644333433705173 -0.83088352326814441 0.001840226447741922
vn 0.31209714537034183 -0.50132598734829648 0.80701154035177192
vn 0.44115941505775164 0.89695791696099392 0.02906657370411931
vn 0.28796805114924645 0.53940854860713772 0.7912729106994919
vn 0.45620371725423209 -0.88985832300594558 0.0055075711948824654
vn 0.20890858376776297 -0.40749129167996517 0.88899271697418358
vn 0.33841085007499111 0.86225728581560412 0.37681622790085573
vn 0.27103156016190683 0.69057755501570717 0.67055539212262738
vn 0.33777045394518473 -0.90458903648516353 0.26005729275009232
vn 0.24316584661376475 -0.59050098137229567 0.76953165109627997
vn 0.27084025094867986 0.96262331844578808 0.0013803081086611968
vn 0.14033442652773401 0.49877812061956511 0.85529330356454125
vn 0.27083947692422455 -0.96262056739977908 0.0027606083278580822
vn 0.20888395603245521 -0.74241759200018531 0.63654034593329412
vn 0.15723888930958207 0.98753330193889832 0.0073422919000465702
vn 0.1356378686007319 0.70085794174840432 0.70028602305746535
vn 0.19000050686535142 -0.98175653706847155 0.0073422962506484489
vn 0.11224998478168453 -0.70498207282423009 0.70028581158907077
vn 0.058124729853002807 0.99817378886849395 0.016450015058678106
vn 0.069631013826651308 0.75942053569574586 0.64686317863753784
vn 0.074525066631633233 -0.99446949222723113 0.074002996377604158
vn 0.046174496656010193 -0.61615682237926916 0.7862688383078944
vn -0.041538275226299097 0.9987140268290865 0.029066549606982239
vn -0.00027129499151302467 0.032690039735662833 0.99946550100596687
vn -0.024930643783947055 -0.99968537133232194 0.0027606782998908655
vn -0.0010860858680260689 -0.043550586326035555 0.99905063277500894
vn -0.020491999087904181 0.14405808533460437 0.98935703667741148
vn -0.079499538597471983 0.73302606428161909 0.67553875717577361
vn -0.12434137584112119 -0.99222421324482679 0.0055075316269012934
vn -0.073152762020570083 -0.58374729450710983 0.80863327260532103
vn -0.23870649648539902 0.97109001751426738 0.0018402227598759292
vn -0.14279846186690037 0.67739068810236813 0.72163041438166087
vn -0.22245305624383066 -0.97463111874794006 0.024674280859183134
vn -0.17529588799486551 -0.76802193826045728 0.61596562728998261
vn -0.13911877701146921 0.39232510043721164 0.90924528123590787
vn -0.19816194879365051 0.62399094444679615 0.75588831403766144
vn -0.059864993099375458 -0.18850850938228741 0.98024523691353882
vn -0.21880802263418778 -0.61705458673884317 0.75588801168921338
vn -0.42639125577622156 0.90453695927880784 0.0018401891818660367
vn -0.2472346528126293 0.5731732853939846 0.78124734326542478
vn -0.14476767949622096 -0.3356202924296276 0.93080682114106283
vn -0.26616292202069841 -0.56463212342167757 0.7812476330471223
vn -0.51432239158661308 0.85756548899412333 0.0073423156358681657
vn -0.29144087894229626 0.52475922624794002 0.79980620687076764
vn -0.46969624893320999 -0.8135373502731349 0.34284459081140389
vn -0.22370249150403007 -0.38746388245814112 0.89433155769286887
vn -0.59708761744455985 0.80200734072681812 0.016450000446091673
vn -0.33196305791398123 0.47832283690162813 0.81302385689398882
vn -0.4772254832398235 -0.6637800770964708 0.57589221855857742
vn -0.403096679417279 -0.56067321284783578 0.72329704509119142
vn -0.29427626851985367 0.32248110047495754 0.89967072733444609
vn -0.36977234691750221 0.4333232626826321 0.82188768178699512
vn -0.61147159421044117 -0.71656214546549801 0.33562059108407533
vn -0.38398116976741864 -0.4207837445101501 0.82188776704612265
vn -0.74416314714630294 0.66779533247647715 0.016450056289908806
vn -0.40567236391472411 0.38916510717722269 0.82703110734214857
vn -0.73305086414180298 -0.68017242318808169 0.0013803316300273641
vn -0.3025329541053699 -0.28070981503991876 0.91086541893988526
vn -0.80704431769304008 0.59044522144113287 0.0073423263824715949
vn -0.44033948205988072 0.34521996574047858 0.82880897424761202
vn -0.79375603825146479 -0.6012465369472515 0.091945383507148995
vn -0.53325781368198744 -0.40392689734069676 0.74328942260187247
vn -0.85328789194407018 0.52143278805208315 0.0027606169376410503
vn -0.57260137517522824 0.34990902170172417 0.74141172210801998
vn -0.85329033054653902 -0.52143427824934874 0.0013803124135895685
vn -0.35180769915001353 -0.21498496715807577 0.91105038648519032
vn -0.55898787839713371 0.2807431307382201 0.78020243933762068
vn -0.5164310152498558 0.23820065660080636 0.82253234202853576
vn -0.90062963018200548 -0.43372082145338825 0.027432066564921427
vn -0.61064171996329186 -0.29406985904146465 0.73528199205720102
vn -0.82136293037699248 0.31452026542392564 0.4758570575710559
vn -0.54900216069584595 0.18953935792416921 0.81404634963187839
vn -0.93969178953387955 -0.3420196416875933 0.0013803559342833347
vn -0.40358496504632346 -0.14689282876900858 0.90307345927382698
vn -0.96907640713711152 0.24675698944534785 0.0013803224608406844
vn -0.43179280706951378 0.10994787650583471 0.89524657844355215
vn -0.96849383610465123 -0.22952474862898023 0.096633737349335461
vn -0.57725170261136471 -0.15725539199797928 0.80128098287669502
vn -0.78286819887596715 0.11799899837794794 0.61089575180262967
vn -0.71864855504317693 0.10831939501771694 0.68688511630210014
vn -0.93644102307175137 -0.14114649556737749 0.3211788864439562
vn -0.71864855504317693 -0.10831939501771694 0.68688511630210014
vn -0.99776267924480744 0.066450924011589405 0.0073423840971205577
vn -0.65113090061555645 0.021646674942595968 0.75865668897565519
vn -0.99875594157059355 -0.049846402131945237 0.0013803521063269564
vn -0.019208910946978058 -0.00095868776317273709 0.9998150322224626
vn 0.33282011773513748 -0.44376015698018328 -0.83205029433784372
vn 0.51045359909240939 -0.68060479878987923 0.52556087281854791
vn 0.33282011773513748 0.44376015698018328 -0.83205029433784372
vn 0.37920943908330901 0.50561258544441201 0.77495555662911353
f 1//1 2//2 4//4
f 1//1 3//3 133//133
f 1//1 4//4 3//3
f 1//1 131//131 132//132
f 1//1 132//132 2//2
f 1//1 133//133 131//131
f 2//2 6//6 4//4
f 2//2 8//8 6//6
f 2//2 12//12 8//8
f 2//2 16//16 12//12
f 2//2 20//20 16//16
f 2//2 24//24 20//20
f 2//2 28//28 24//24
f 2//2 32//32 28//28
f 2//2 36//36 32//32
f 2//2 40//40 36//36
f 2//2 44//44 40//40
f 2//2 48//48 44//44
f 2//2 52//52 48//48
f 2//2 56//56 52//52
f 2//2 60//60 56//56
f 2//2 64//64 60//60
f 2//2 68//68 64//64
f 2//2 132//132 68//68
f 3//3 4//4 133//133
f 4//4 6//6 10//10
f 4//4 10//10 14//14
f 4//4 14//14 18//18
f 4//4 18//18 22//22
f 4//4 22//22 26//26
f 4//4 26//26 30//30
f 4//4 30//30 34//34
f 4//4 34//34 38//38
f 4//4 38//38 42//42
f 4//4 42//42 46//46
f 4//4 46//46 50//50
f 4//4 50//50 54//54
f 4//4 54//54 58//58
f 4//4 58//58 62//62
f 4//4 62//62 66//66
f 4//4 66//66 70//70
f 4//4 70//70 134//134
f 4//4 134//134 133//133
f 5//5 6//6 7//7
f 5//5 7//7 11//11
f 5//5 9//9 6//6
f 5//5 11//11 9//9
f 6//6 8//8 7//7
f 6//6 9//9 10//10
f 7//7 8//8 12//12
f 7//7 12//12 11//11
f 9//9 11//11 17//17
f 9//9 13//13 10//10
f 9//9 17//17 13//13
f 10//10 13//13 14//14
f 11//11 12//12 16//16
f 11//11 15//15 23//23
f 11//11 16//16 15//15
f 11//11 23//23 27//27
f 11//11 27//27 31//31
f 11//11 31//31 17//17
f 13//13 17//17 18//18
f 13//13 18//18 14//14
f 15//15 16//16 20//20
f 15//15 19//19 23//23
f 15//15 20//20 19//19
f 17//17 21//21 18//18
f 17//17 31//31 37//37
f 17//17 33//33 21//21
f 17//17 37//37 33//33
f 18//18 21//21 22//22
f 19//19 20//20 24//24
f 19//19 24//24 23//23
f 21//21 25//25 22//22
f 21//21 29//29 25//25
f 21//21 33//33 29//29
f 22//22 25//25 26//26
f 23//23 24//24 27//27
f 24//24 28//28 27//27
f 25//25 29//29 30//30
f 25//25 30//30 26//26
f 27//27 28//28 32//32
f 27//27 32//32 31//31
f 29//29 33//33 30//30
f 30//30 33//33 34//34
f 31//31 32//32 36//36
f 31//31 35//35 39//39
f 31//31 36//36 35//35
f 31//31 39//39 43//43
f 31//31 43//43 47//47
f 31//31 47//47 51//51
f 31//31 51//51 71//71
f 31//31 71//71 37//37
f 33//33 37//37 38//38
f 33//33 38//38 34//34
f 35//35 36//36 40//40
f 35//35 40//40 39//39
f 37//37 41//41 38//38
f 37//37 71//71 81//81
f 37//37 81//81 41//41
f 38//38 41//41 42//42
f 39//39 40//40 44//44
f 39//39 44//44 43//43
f 41//41 45//45 42//42
f 41//41 49//49 45//45
f 41//41 53//53 49//49
f 41//41 81//81 53//53
f 42//42 45//45 46//46
f 43//43 44//44 48//48
f 43//43 48//48 47//47
f 45//45 49//49 46//46
f 46//46 49//49 50//50
f 47//47 48//48 52//52
f 47//47 52//52 51//51
f 49//49 53//53 54//54
f 49//49 54//54 50//50
f 51//51 52//52 55//55
f 51//51 55//55 59//59
f 51//51 59//59 63//63
f 51//51 63//63 67//67
f 51//51 67//67 71//71
f 52//52 56//56 55//55
f 53//53 57//57 58//58
f 53//53 58//58 54//54
f 53//53 61//61 57//57
f 53//53 65//65 61//61
f 53//53 81//81 65//65
f 55//55 56//56 60//60
f 55//55 60//60 59//59
f 57//57 61//61 58//58
f 58//58 61//61 62//62
f 59//59 60//60 64//64
f 59//59 64//64 63//63
f 61//61 65//65 62//62
f 62//62 65//65 66//66
f 63//63 64//64 68//68
f 63//63 68//68 67//67
f 65//65 69//69 70//70
f 65//65 70//70 66//66
f 65//65 73//73 69//69
f 65//65 77//77 73//73
f 65//65 81//81 77//77
f 67//67 68//68 72//72
f 67//67 72//72 71//71
f 68//68 132//132 72//72
f 69//69 73//73 70//70
f 70//70 73//73 74//74
f 70//70 74//74 134//134
f 71//71 72//72 76//76
f 71//71 75//75 79//79
f 71//71 76//76 75//75
f 71//71 79//79 81//81
f 72//72 132//132 76//76
f 73//73 77//77 78//78
f 73//73 78//78 74//74
f 74//74 78//78 134//134
f 75//75 76//76 80//80
f 75//75 80//80 79//79
f 76//76 132//132 80//80
f 77//77 81//81 78//78
f 78//78 81//81 82//82
f 78//78 82//82 134//134
f 79//79 80//80 84//84
f 79//79 83//83 87//87
f 79//79 84//84 83//83
f 79//79 85//85 81//81
f 79//79 87//87 91//91
f 79//79 91//91 95//95
f 79//79 95//95 85//85
f 80//80 132//132 84//84
f 81//81 85//85 82//82
f 82//82 85//85 86//86
f 82//82 86//86 134//134
f 83//83 84//84 88//88
f 83//83 88//88 87//87
f 84//84 132//132 88//88
f 85//85 89//89 86//86
f 85//85 95//95 111//111
f 85//85 111//111 89//89
f 86//86 89//89 90//90
f 86//86 90//90 134//134
f 87//87 88//88 92//92
f 87//87 92//92 91//91
f 88//88 132//132 92//92
f 89//89 93//93 94//94
f 89//89 94//94 90//90
f 89//89 111//111 115//115
f 89//89 115//115 93//93
f 90//90 94//94 134//134
f 91//91 92//92 96//96
f 91//91 96//96 95//95
f 92//92 132//132 96//96
f 93//93 97//97 94//94
f 93//93 115//115 123//123
f 93//93 123//123 97//97
f 94//94 97//97 98//98
f 94//94 98//98 134//134
f 95//95 96//96 100//100
f 95//95 99//99 111//111
f 95//95 100//100 99//99
f 96//96 132//132 100//100
f 97//97 101//101 98//98
f 97//97 105//105 101//101
f 97//97 121//121 105//105
f 97//97 123//123 125//125
f 97//97 125//125 121//121
f 98//98 101//101 102//102
f 98//98 102//102 134//134
f 99//99 100//100 104//104
f 99//99 103//103 111//111
f 99//99 104//104 103//103
f 100//100 132//132 104//104
f 101//101 105//105 106//106
f 101//101 106//106 102//102
f 102//102 106//106 134//134
f 103//103 104//104 108//108
f 103//103 107//107 111//111
f 103//103 108//108 107//107
f 104//104 132//132 108//108
f 105//105 109//109 106//106
f 105//105 113//113 109//109
f 105//105 121//121 113//113
f 106//106 109//109 110//110
f 106//106 110//110 134//134
f 107//107 108//108 111//111
f 108//108 112//112 111//111
f 108//108 132//132 112//112
f 109//109 113//113 114//114
f 109//109 114//114 110//110
f 110//110 114//114 134//134
f 111//111 112//112 115//115
f 112//112 116//116 115//115
f 112//112 132//132 116//116
f 113//113 117//117 114//114
f 113//113 121//121 117//117
f 114//114 117//117 118//118
f 114//114 118//118 134//134
f 115//115 116//116 119//119
f 115//115 119//119 123//123
f 116//116 120//120 119//119
f 116//116 132//132 120//120
f 117//117 121//121 122//122
f 117//117 122//122 118//118
f 118//118 122//122 134//134
f 119//119 120//120 124//124
f 119//119 124//124 123//123
f 120//120 132//132 124//124
f 121//121 125//125 126//126
f 121//121 126//126 122//122
f 122//122 126//126 134//134
f 123//123 124//124 127//127
f 123//123 127//127 125//125
f 124//124 128//128 127//127
f 124//124 132//132 128//128
f 125//125 127//127 129//129
f 125//125 129//129 126//126
f 126//126 129//129 130//130
f 126//126 130//130 134//134
f 127//127 128//128 129//129
f 128//128 130//130 129//129
f 128//128 132//132 130//130
f 130//130 132//132 134//134
f 131//131 133//133 132//132
f 132//132 133//133 134//134
