<svg xmlns="http://www.w3.org/2000/svg" viewBox="0 0 220 160" role="img" aria-labelledby="title">
  <title id="title">Block with blind hole</title>
  <rect width="220" height="160" fill="#0b0f14"/>
  <path d="M35.114,59.059L35.114,98.588 M35.114,59.059L94.881,64.909 M35.114,59.059L94.966,66.213 M35.114,59.059L95.135,63.611 M35.114,59.059L95.386,67.496 M35.114,59.059L95.720,62.350 M35.114,59.059L96.133,68.728 M35.114,59.059L96.624,61.154 M35.114,59.059L97.190,69.883 M35.114,59.059L97.827,60.048 M35.114,59.059L98.532,70.933 M35.114,59.059L99.302,22.000 M35.114,59.059L99.302,59.059 M35.114,59.059L99.302,61.529 M35.114,59.059L100.131,71.856 M35.114,59.059L120.698,108.471 M35.114,59.059L120.698,148.000 M35.114,98.588L99.302,61.529 M35.114,98.588L120.698,148.000 M94.881,64.909L94.881,87.144 M94.881,64.909L94.966,66.213 M94.881,64.909L94.966,88.449 M94.881,64.909L95.135,63.611 M94.881,87.144L94.966,88.449 M94.881,87.144L95.135,63.611 M94.881,87.144L95.135,85.847 M94.881,87.144L101.016,80.443 M94.966,66.213L94.966,88.449 M94.966,66.213L95.386,67.496 M94.966,66.213L95.386,89.731 M94.966,88.449L95.386,89.731 M94.966,88.449L96.133,90.964 M94.966,88.449L98.532,93.168 M94.966,88.449L100.131,94.091 M94.966,88.449L101.016,80.443 M94.966,88.449L103.950,95.477 M94.966,88.449L111.694,78.791 M94.966,88.449L124.614,85.210 M95.135,63.611L95.135,85.847 M95.135,63.611L95.720,62.350 M95.135,85.847L95.720,62.350 M95.135,85.847L95.720,84.586 M95.135,85.847L96.624,83.389 M95.135,85.847L101.016,80.443 M95.386,67.496L95.386,89.731 M95.386,67.496L96.133,68.728 M95.386,89.731L96.133,68.728 M95.386,89.731L96.133,90.964 M95.720,62.350L95.720,84.586 M95.720,62.350L96.624,61.154 M95.720,84.586L96.624,61.154 M95.720,84.586L96.624,83.389 M96.133,68.728L96.133,90.964 M96.133,68.728L97.190,69.883 M96.133,90.964L97.190,69.883 M96.133,90.964L97.190,92.118 M96.133,90.964L98.532,93.168 M96.624,61.154L96.624,83.389 M96.624,61.154L97.827,60.048 M96.624,83.389L97.827,60.048 M96.624,83.389L97.827,82.284 M96.624,83.389L99.302,81.294 M96.624,83.389L101.016,80.443 M97.190,69.883L97.190,92.118 M97.190,69.883L98.532,70.933 M97.190,69.883L98.532,93.168 M97.190,92.118L98.532,93.168 M97.827,60.048L97.827,82.284 M97.827,60.048L99.302,59.059 M97.827,82.284L99.302,59.059 M97.827,82.284L99.302,81.294 M98.532,70.933L98.532,93.168 M98.532,70.933L100.131,71.856 M98.532,70.933L100.131,94.091 M98.532,93.168L100.131,94.091 M99.302,22.000L99.302,59.059 M99.302,22.000L99.302,61.529 M99.302,22.000L101.016,58.207 M99.302,22.000L102.931,57.513 M99.302,22.000L105.003,56.991 M99.302,22.000L107.187,56.653 M99.302,22.000L109.434,56.507 M99.302,22.000L111.694,56.555 M99.302,22.000L113.916,56.798 M99.302,22.000L116.050,57.229 M99.302,22.000L118.049,57.839 M99.302,22.000L119.869,58.615 M99.302,22.000L184.886,71.412 M99.302,59.059L99.302,81.294 M99.302,59.059L101.016,58.207 M99.302,61.529L120.698,148.000 M99.302,61.529L184.886,71.412 M99.302,61.529L184.886,110.941 M99.302,81.294L101.016,58.207 M99.302,81.294L101.016,80.443 M100.131,71.856L100.131,94.091 M100.131,71.856L101.951,72.631 M100.131,71.856L120.698,108.471 M100.131,94.091L101.951,72.631 M100.131,94.091L101.951,94.867 M100.131,94.091L103.950,95.477 M101.016,58.207L101.016,80.443 M101.016,58.207L102.931,57.513 M101.016,80.443L102.931,57.513 M101.016,80.443L102.931,79.748 M101.016,80.443L105.003,79.226 M101.016,80.443L109.434,78.742 M101.016,80.443L111.694,78.791 M101.951,72.631L101.951,94.867 M101.951,72.631L103.950,73.241 M101.951,72.631L120.698,108.471 M101.951,94.867L103.950,73.241 M101.951,94.867L103.950,95.477 M102.931,57.513L102.931,79.748 M102.931,57.513L105.003,56.991 M102.931,57.513L105.003,79.226 M102.931,79.748L105.003,79.226 M103.950,73.241L103.950,95.477 M103.950,73.241L106.084,73.673 M103.950,73.241L106.084,95.908 M103.950,73.241L120.698,108.471 M103.950,95.477L106.084,95.908 M103.950,95.477L108.306,96.151 M103.950,95.477L110.566,96.199 M103.950,95.477L117.069,95.193 M103.950,95.477L124.614,85.210 M105.003,56.991L105.003,79.226 M105.003,56.991L107.187,56.653 M105.003,79.226L107.187,56.653 M105.003,79.226L107.187,78.888 M105.003,79.226L109.434,78.742 M106.084,73.673L106.084,95.908 M106.084,73.673L108.306,73.915 M106.084,73.673L120.698,108.471 M106.084,95.908L108.306,73.915 M106.084,95.908L108.306,96.151 M107.187,56.653L107.187,78.888 M107.187,56.653L109.434,56.507 M107.187,78.888L109.434,56.507 M107.187,78.888L109.434,78.742 M108.306,73.915L108.306,96.151 M108.306,73.915L110.566,73.964 M108.306,73.915L110.566,96.199 M108.306,73.915L120.698,108.471 M108.306,96.151L110.566,96.199 M109.434,56.507L109.434,78.742 M109.434,56.507L111.694,56.555 M109.434,78.742L111.694,56.555 M109.434,78.742L111.694,78.791 M110.566,73.964L110.566,96.199 M110.566,73.964L112.813,73.818 M110.566,73.964L112.813,96.053 M110.566,73.964L120.698,108.471 M110.566,96.199L112.813,96.053 M110.566,96.199L117.069,95.193 M111.694,56.555L111.694,78.791 M111.694,56.555L113.916,56.798 M111.694,56.555L113.916,79.033 M111.694,78.791L113.916,79.033 M111.694,78.791L121.468,81.773 M111.694,78.791L122.810,82.823 M111.694,78.791L124.614,85.210 M112.813,73.818L112.813,96.053 M112.813,73.818L114.997,73.480 M112.813,73.818L114.997,95.715 M112.813,73.818L120.698,108.471 M112.813,96.053L114.997,95.715 M112.813,96.053L117.069,95.193 M113.916,56.798L113.916,79.033 M113.916,56.798L116.050,57.229 M113.916,56.798L116.050,79.465 M113.916,79.033L116.050,79.465 M113.916,79.033L118.049,80.075 M113.916,79.033L119.869,80.850 M113.916,79.033L121.468,81.773 M114.997,73.480L114.997,95.715 M114.997,73.480L117.069,72.958 M114.997,73.480L120.698,108.471 M114.997,95.715L117.069,72.958 M114.997,95.715L117.069,95.193 M116.050,57.229L116.050,79.465 M116.050,57.229L118.049,57.839 M116.050,79.465L118.049,57.839 M116.050,79.465L118.049,80.075 M117.069,72.958L117.069,95.193 M117.069,72.958L118.984,72.263 M117.069,72.958L120.698,108.471 M117.069,95.193L118.984,72.263 M117.069,95.193L118.984,94.499 M117.069,95.193L120.698,93.647 M117.069,95.193L122.173,92.658 M117.069,95.193L123.376,91.552 M117.069,95.193L124.614,85.210 M118.049,57.839L118.049,80.075 M118.049,57.839L119.869,58.615 M118.049,57.839L119.869,80.850 M118.049,80.075L119.869,80.850 M118.984,72.263L118.984,94.499 M118.984,72.263L120.698,71.412 M118.984,72.263L120.698,93.647 M118.984,72.263L120.698,108.471 M118.984,94.499L120.698,93.647 M119.869,58.615L119.869,80.850 M119.869,58.615L121.468,59.538 M119.869,58.615L184.886,71.412 M119.869,80.850L121.468,59.538 M119.869,80.850L121.468,81.773 M120.698,71.412L120.698,93.647 M120.698,71.412L120.698,108.471 M120.698,71.412L122.173,70.422 M120.698,71.412L122.173,92.658 M120.698,71.412L184.886,71.412 M120.698,93.647L122.173,92.658 M120.698,108.471L120.698,148.000 M120.698,108.471L184.886,71.412 M120.698,148.000L184.886,71.412 M120.698,148.000L184.886,110.941 M121.468,59.538L121.468,81.773 M121.468,59.538L122.810,60.588 M121.468,59.538L184.886,71.412 M121.468,81.773L122.810,60.588 M121.468,81.773L122.810,82.823 M122.173,70.422L122.173,92.658 M122.173,70.422L123.376,69.317 M122.173,70.422L123.376,91.552 M122.173,70.422L184.886,71.412 M122.173,92.658L123.376,91.552 M122.810,60.588L122.810,82.823 M122.810,60.588L123.867,61.742 M122.810,60.588L184.886,71.412 M122.810,82.823L123.867,61.742 M122.810,82.823L123.867,83.978 M122.810,82.823L124.614,85.210 M123.376,69.317L123.376,91.552 M123.376,69.317L124.280,68.120 M123.376,69.317L184.886,71.412 M123.376,91.552L124.280,68.120 M123.376,91.552L124.280,90.356 M123.376,91.552L124.614,85.210 M123.376,91.552L124.865,89.094 M123.376,91.552L125.034,86.493 M123.376,91.552L125.119,87.797 M123.867,61.742L123.867,83.978 M123.867,61.742L124.614,62.975 M123.867,61.742L184.886,71.412 M123.867,83.978L124.614,62.975 M123.867,83.978L124.614,85.210 M124.280,68.120L124.280,90.356 M124.280,68.120L124.865,66.859 M124.280,68.120L124.865,89.094 M124.280,68.120L184.886,71.412 M124.280,90.356L124.865,89.094 M124.614,62.975L124.614,85.210 M124.614,62.975L125.034,64.257 M124.614,62.975L184.886,71.412 M124.614,85.210L125.034,64.257 M124.614,85.210L125.034,86.493 M124.865,66.859L124.865,89.094 M124.865,66.859L125.119,65.562 M124.865,66.859L125.119,87.797 M124.865,66.859L184.886,71.412 M124.865,89.094L125.119,87.797 M125.034,64.257L125.034,86.493 M125.034,64.257L125.119,65.562 M125.034,64.257L184.886,71.412 M125.034,86.493L125.119,65.562 M125.034,86.493L125.119,87.797 M125.119,65.562L125.119,87.797 M125.119,65.562L184.886,71.412 M184.886,71.412L184.886,110.941" fill="none" stroke="#4da3ff" stroke-width="0.65" stroke-linecap="round" stroke-linejoin="round"/>
  <rect x="0.5" y="0.5" width="219" height="159" fill="none" stroke="#2a3441"/>
</svg>
