# Mesh2Param deterministic OBJ
o Mesh2Param_result
v 0 0 0
v 0 0 8
v 0 50 0
v 0 50 8
v 9 12 0
v 9 12 8
v 9 38 0
v 9 38 8
v 9.0149080000000001 11.701295999999999 0
v 9.0149080000000001 11.701295999999999 8
v 9.0149080000000001 12.298703999999999 0
v 9.0149080000000001 12.298703999999999 8
v 9.0149080000000001 37.701295999999999 0
v 9.0149080000000001 37.701295999999999 8
v 9.0149080000000001 38.298704000000001 0
v 9.0149080000000001 38.298704000000001 8
v 9.0594830000000002 11.405562 0
v 9.0594830000000002 11.405562 8
v 9.0594830000000002 12.594438 0
v 9.0594830000000002 12.594438 8
v 9.0594830000000002 37.405561999999996 0
v 9.0594830000000002 37.405561999999996 8
v 9.0594830000000002 38.594437999999997 0
v 9.0594830000000002 38.594437999999997 8
v 9.1332819999999995 11.115734 0
v 9.1332819999999995 11.115734 8
v 9.1332819999999995 12.884266 0
v 9.1332819999999995 12.884266 8
v 9.1332819999999995 37.115733999999996 0
v 9.1332819999999995 37.115733999999996 8
v 9.1332819999999995 38.884265999999997 0
v 9.1332819999999995 38.884265999999997 8
v 9.2355710000000002 10.834695999999999 0
v 9.2355710000000002 10.834695999999999 8
v 9.2355710000000002 13.165303999999999 0
v 9.2355710000000002 13.165303999999999 8
v 9.2355710000000002 36.834696000000001 0
v 9.2355710000000002 36.834696000000001 8
v 9.2355710000000002 39.165303999999999 0
v 9.2355710000000002 39.165303999999999 8
v 9.365335 10.565237999999999 0
v 9.365335 10.565237999999999 8
v 9.365335 13.434761999999999 0
v 9.365335 13.434761999999999 8
v 9.365335 36.565238000000001 0
v 9.365335 36.565238000000001 8
v 9.365335 39.434761999999999 0
v 9.365335 39.434761999999999 8
v 9.5212839999999996 10.310039999999999 0
v 9.5212839999999996 10.310039999999999 8
v 9.5212839999999996 13.689959999999999 0
v 9.5212839999999996 13.689959999999999 8
v 9.5212839999999996 36.310040000000001 0
v 9.5212839999999996 36.310040000000001 8
v 9.5212839999999996 39.689959999999999 0
v 9.5212839999999996 39.689959999999999 8
v 9.701867 10.071636999999999 0
v 9.701867 10.071636999999999 8
v 9.701867 13.928362999999999 0
v 9.701867 13.928362999999999 8
v 9.701867 36.071636999999996 0
v 9.701867 36.071636999999996 8
v 9.701867 39.928362999999997 0
v 9.701867 39.928362999999997 8
v 9.905289999999999 9.8523990000000001 0
v 9.905289999999999 9.8523990000000001 8
v 9.905289999999999 14.147601 0
v 9.905289999999999 14.147601 8
v 9.905289999999999 35.852398999999998 0
v 9.905289999999999 35.852398999999998 8
v 9.905289999999999 40.147601000000002 0
v 9.905289999999999 40.147601000000002 8
v 10.129531 9.6545059999999996 0
v 10.129531 9.6545059999999996 8
v 10.129531 14.345493999999999 0
v 10.129531 14.345493999999999 8
v 10.129531 35.654505999999998 0
v 10.129531 35.654505999999998 8
v 10.129531 40.345493999999995 0
v 10.129531 40.345493999999995 8
v 10.372361 9.4799220000000002 0
v 10.372361 9.4799220000000002 8
v 10.372361 14.520078 0
v 10.372361 14.520078 8
v 10.372361 35.479921999999995 0
v 10.372361 35.479921999999995 8
v 10.372361 40.520077999999998 0
v 10.372361 40.520077999999998 8
v 10.631368 9.3303849999999997 0
v 10.631368 9.3303849999999997 8
v 10.631368 14.669614999999999 0
v 10.631368 14.669614999999999 8
v 10.631368 35.330385 0
v 10.631368 35.330385 8
v 10.631368 40.669615 0
v 10.631368 40.669615 8
v 10.903976999999999 9.2073789999999995 0
v 10.903976999999999 9.2073789999999995 8
v 10.903976999999999 14.792620999999999 0
v 10.903976999999999 14.792620999999999 8
v 10.903976999999999 35.207378999999996 0
v 10.903976999999999 35.207378999999996 8
v 10.903976999999999 40.792620999999997 0
v 10.903976999999999 40.792620999999997 8
v 11.187479 9.1121269999999992 0
v 11.187479 9.1121269999999992 8
v 11.187479 14.887872999999999 0
v 11.187479 14.887872999999999 8
v 11.187479 35.112127000000001 0
v 11.187479 35.112127000000001 8
v 11.187479 40.887872999999999 0
v 11.187479 40.887872999999999 8
v 11.479054999999999 9.0455769999999998 0
v 11.479054999999999 9.0455769999999998 8
v 11.479054999999999 14.954422999999998 0
v 11.479054999999999 14.954422999999998 8
v 11.479054999999999 35.045577000000002 0
v 11.479054999999999 35.045577000000002 8
v 11.479054999999999 40.954422999999998 0
v 11.479054999999999 40.954422999999998 8
v 11.77581 9.0083889999999993 0
v 11.77581 9.0083889999999993 8
v 11.77581 14.991610999999999 0
v 11.77581 14.991610999999999 8
v 11.77581 35.008389000000001 0
v 11.77581 35.008389000000001 8
v 11.77581 40.991610999999999 0
v 11.77581 40.991610999999999 8
v 12.074791999999999 9.0009319999999988 0
v 12.074791999999999 9.0009319999999988 8
v 12.074791999999999 14.999067999999999 0
v 12.074791999999999 14.999067999999999 8
v 12.074791999999999 35.000931999999999 0
v 12.074791999999999 35.000931999999999 8
v 12.074791999999999 40.999068000000001 0
v 12.074791999999999 40.999068000000001 8
v 12.373030999999999 9.023282 0
v 12.373030999999999 9.023282 8
v 12.373030999999999 14.976718 0
v 12.373030999999999 14.976718 8
v 12.373030999999999 35.023282000000002 0
v 12.373030999999999 35.023282000000002 8
v 12.373030999999999 40.976717999999998 0
v 12.373030999999999 40.976717999999998 8
v 12.667562999999999 9.0752159999999993 0
v 12.667562999999999 9.0752159999999993 8
v 12.667562999999999 14.924783999999999 0
v 12.667562999999999 14.924783999999999 8
v 12.667562999999999 35.075215999999998 0
v 12.667562999999999 35.075215999999998 8
v 12.667562999999999 40.924783999999995 0
v 12.667562999999999 40.924783999999995 8
v 12.955459999999999 9.1562179999999991 0
v 12.955459999999999 9.1562179999999991 8
v 12.955459999999999 14.843781999999999 0
v 12.955459999999999 14.843781999999999 8
v 12.955459999999999 35.156217999999996 0
v 12.955459999999999 35.156217999999996 8
v 12.955459999999999 40.843781999999997 0
v 12.955459999999999 40.843781999999997 8
v 13.233860999999999 9.2654820000000004 0
v 13.233860999999999 9.2654820000000004 8
v 13.233860999999999 14.734518 0
v 13.233860999999999 14.734518 8
v 13.233860999999999 35.265481999999999 0
v 13.233860999999999 35.265481999999999 8
v 13.233860999999999 40.734518000000001 0
v 13.233860999999999 40.734518000000001 8
v 13.5 9.4019239999999993 0
v 13.5 9.4019239999999993 8
v 13.5 14.598075999999999 0
v 13.5 14.598075999999999 8
v 13.5 35.401924000000001 0
v 13.5 35.401924000000001 8
v 13.5 40.598075999999999 0
v 13.5 40.598075999999999 8
v 13.751230999999999 9.5641859999999994 0
v 13.751230999999999 9.5641859999999994 8
v 13.751230999999999 14.435813999999999 0
v 13.751230999999999 14.435813999999999 8
v 13.751230999999999 35.564185999999999 0
v 13.751230999999999 35.564185999999999 8
v 13.751230999999999 40.435814000000001 0
v 13.751230999999999 40.435814000000001 8
v 13.985057999999999 9.7506559999999993 0
v 13.985057999999999 9.7506559999999993 8
v 13.985057999999999 14.249343999999999 0
v 13.985057999999999 14.249343999999999 8
v 13.985057999999999 35.750655999999999 0
v 13.985057999999999 35.750655999999999 8
v 13.985057999999999 40.249344000000001 0
v 13.985057999999999 40.249344000000001 8
v 14.199155999999999 9.9594819999999995 0
v 14.199155999999999 9.9594819999999995 8
v 14.199155999999999 14.040517999999999 0
v 14.199155999999999 14.040517999999999 8
v 14.199155999999999 35.959482000000001 0
v 14.199155999999999 35.959482000000001 8
v 14.199155999999999 40.040517999999999 0
v 14.199155999999999 40.040517999999999 8
v 14.391397999999999 10.188587 0
v 14.391397999999999 10.188587 8
v 14.391397999999999 13.811413 0
v 14.391397999999999 13.811413 8
v 14.391397999999999 36.188586999999998 0
v 14.391397999999999 36.188586999999998 8
v 14.391397999999999 39.811413000000002 0
v 14.391397999999999 39.811413000000002 8
v 14.559873 10.435694 0
v 14.559873 10.435694 8
v 14.559873 13.564306 0
v 14.559873 13.564306 8
v 14.559873 36.435693999999998 0
v 14.559873 36.435693999999998 8
v 14.559873 39.564305999999995 0
v 14.559873 39.564305999999995 8
v 14.702907 10.698349 0
v 14.702907 10.698349 8
v 14.702907 13.301651 0
v 14.702907 13.301651 8
v 14.702907 36.698349 0
v 14.702907 36.698349 8
v 14.702907 39.301651 0
v 14.702907 39.301651 8
v 14.819077999999999 10.973939999999999 0
v 14.819077999999999 10.973939999999999 8
v 14.819077999999999 13.026059999999999 0
v 14.819077999999999 13.026059999999999 8
v 14.819077999999999 36.973939999999999 0
v 14.819077999999999 36.973939999999999 8
v 14.819077999999999 39.026060000000001 0
v 14.819077999999999 39.026060000000001 8
v 14.907231999999999 11.259727999999999 0
v 14.907231999999999 11.259727999999999 8
v 14.907231999999999 12.740271999999999 0
v 14.907231999999999 12.740271999999999 8
v 14.907231999999999 37.259727999999996 0
v 14.907231999999999 37.259727999999996 8
v 14.907231999999999 38.740271999999997 0
v 14.907231999999999 38.740271999999997 8
v 14.966491999999999 11.552873 0
v 14.966491999999999 11.552873 8
v 14.966491999999999 12.447127 0
v 14.966491999999999 12.447127 8
v 14.966491999999999 37.552872999999998 0
v 14.966491999999999 37.552872999999998 8
v 14.966491999999999 38.447126999999995 0
v 14.966491999999999 38.447126999999995 8
v 14.996271 11.850462 0
v 14.996271 11.850462 8
v 14.996271 12.149538 0
v 14.996271 12.149538 8
v 14.996271 37.850462 0
v 14.996271 37.850462 8
v 14.996271 38.149538 0
v 14.996271 38.149538 8
v 65 12 0
v 65 12 8
v 65 38 0
v 65 38 8
v 65.014907999999991 11.701295999999999 0
v 65.014907999999991 11.701295999999999 8
v 65.014907999999991 12.298703999999999 0
v 65.014907999999991 12.298703999999999 8
v 65.014907999999991 37.701295999999999 0
v 65.014907999999991 37.701295999999999 8
v 65.014907999999991 38.298704000000001 0
v 65.014907999999991 38.298704000000001 8
v 65.059483 11.405562 0
v 65.059483 11.405562 8
v 65.059483 12.594438 0
v 65.059483 12.594438 8
v 65.059483 37.405561999999996 0
v 65.059483 37.405561999999996 8
v 65.059483 38.594437999999997 0
v 65.059483 38.594437999999997 8
v 65.133281999999994 11.115734 0
v 65.133281999999994 11.115734 8
v 65.133281999999994 12.884266 0
v 65.133281999999994 12.884266 8
v 65.133281999999994 37.115733999999996 0
v 65.133281999999994 37.115733999999996 8
v 65.133281999999994 38.884265999999997 0
v 65.133281999999994 38.884265999999997 8
v 65.235570999999993 10.834695999999999 0
v 65.235570999999993 10.834695999999999 8
v 65.235570999999993 13.165303999999999 0
v 65.235570999999993 13.165303999999999 8
v 65.235570999999993 36.834696000000001 0
v 65.235570999999993 36.834696000000001 8
v 65.235570999999993 39.165303999999999 0
v 65.235570999999993 39.165303999999999 8
v 65.365335000000002 10.565237999999999 0
v 65.365335000000002 10.565237999999999 8
v 65.365335000000002 13.434761999999999 0
v 65.365335000000002 13.434761999999999 8
v 65.365335000000002 36.565238000000001 0
v 65.365335000000002 36.565238000000001 8
v 65.365335000000002 39.434761999999999 0
v 65.365335000000002 39.434761999999999 8
v 65.521283999999994 10.310039999999999 0
v 65.521283999999994 10.310039999999999 8
v 65.521283999999994 13.689959999999999 0
v 65.521283999999994 13.689959999999999 8
v 65.521283999999994 36.310040000000001 0
v 65.521283999999994 36.310040000000001 8
v 65.521283999999994 39.689959999999999 0
v 65.521283999999994 39.689959999999999 8
v 65.701866999999993 10.071636999999999 0
v 65.701866999999993 10.071636999999999 8
v 65.701866999999993 13.928362999999999 0
v 65.701866999999993 13.928362999999999 8
v 65.701866999999993 36.071636999999996 0
v 65.701866999999993 36.071636999999996 8
v 65.701866999999993 39.928362999999997 0
v 65.701866999999993 39.928362999999997 8
v 65.905289999999994 9.8523990000000001 0
v 65.905289999999994 9.8523990000000001 8
v 65.905289999999994 14.147601 0
v 65.905289999999994 14.147601 8
v 65.905289999999994 35.852398999999998 0
v 65.905289999999994 35.852398999999998 8
v 65.905289999999994 40.147601000000002 0
v 65.905289999999994 40.147601000000002 8
v 66.129531 9.6545059999999996 0
v 66.129531 9.6545059999999996 8
v 66.129531 14.345493999999999 0
v 66.129531 14.345493999999999 8
v 66.129531 35.654505999999998 0
v 66.129531 35.654505999999998 8
v 66.129531 40.345493999999995 0
v 66.129531 40.345493999999995 8
v 66.372360999999998 9.4799220000000002 0
v 66.372360999999998 9.4799220000000002 8
v 66.372360999999998 14.520078 0
v 66.372360999999998 14.520078 8
v 66.372360999999998 35.479921999999995 0
v 66.372360999999998 35.479921999999995 8
v 66.372360999999998 40.520077999999998 0
v 66.372360999999998 40.520077999999998 8
v 66.631367999999995 9.3303849999999997 0
v 66.631367999999995 9.3303849999999997 8
v 66.631367999999995 14.669614999999999 0
v 66.631367999999995 14.669614999999999 8
v 66.631367999999995 35.330385 0
v 66.631367999999995 35.330385 8
v 66.631367999999995 40.669615 0
v 66.631367999999995 40.669615 8
v 66.903976999999998 9.2073789999999995 0
v 66.903976999999998 9.2073789999999995 8
v 66.903976999999998 14.792620999999999 0
v 66.903976999999998 14.792620999999999 8
v 66.903976999999998 35.207378999999996 0
v 66.903976999999998 35.207378999999996 8
v 66.903976999999998 40.792620999999997 0
v 66.903976999999998 40.792620999999997 8
v 67.187478999999996 9.1121269999999992 0
v 67.187478999999996 9.1121269999999992 8
v 67.187478999999996 14.887872999999999 0
v 67.187478999999996 14.887872999999999 8
v 67.187478999999996 35.112127000000001 0
v 67.187478999999996 35.112127000000001 8
v 67.187478999999996 40.887872999999999 0
v 67.187478999999996 40.887872999999999 8
v 67.479055000000002 9.0455769999999998 0
v 67.479055000000002 9.0455769999999998 8
v 67.479055000000002 14.954422999999998 0
v 67.479055000000002 14.954422999999998 8
v 67.479055000000002 35.045577000000002 0
v 67.479055000000002 35.045577000000002 8
v 67.479055000000002 40.954422999999998 0
v 67.479055000000002 40.954422999999998 8
v 67.775809999999993 9.0083889999999993 0
v 67.775809999999993 9.0083889999999993 8
v 67.775809999999993 14.991610999999999 0
v 67.775809999999993 14.991610999999999 8
v 67.775809999999993 35.008389000000001 0
v 67.775809999999993 35.008389000000001 8
v 67.775809999999993 40.991610999999999 0
v 67.775809999999993 40.991610999999999 8
v 68.074792000000002 9.0009319999999988 0
v 68.074792000000002 9.0009319999999988 8
v 68.074792000000002 14.999067999999999 0
v 68.074792000000002 14.999067999999999 8
v 68.074792000000002 35.000931999999999 0
v 68.074792000000002 35.000931999999999 8
v 68.074792000000002 40.999068000000001 0
v 68.074792000000002 40.999068000000001 8
v 68.373030999999997 9.023282 0
v 68.373030999999997 9.023282 8
v 68.373030999999997 14.976718 0
v 68.373030999999997 14.976718 8
v 68.373030999999997 35.023282000000002 0
v 68.373030999999997 35.023282000000002 8
v 68.373030999999997 40.976717999999998 0
v 68.373030999999997 40.976717999999998 8
v 68.667563000000001 9.0752159999999993 0
v 68.667563000000001 9.0752159999999993 8
v 68.667563000000001 14.924783999999999 0
v 68.667563000000001 14.924783999999999 8
v 68.667563000000001 35.075215999999998 0
v 68.667563000000001 35.075215999999998 8
v 68.667563000000001 40.924783999999995 0
v 68.667563000000001 40.924783999999995 8
v 68.955460000000002 9.1562179999999991 0
v 68.955460000000002 9.1562179999999991 8
v 68.955460000000002 14.843781999999999 0
v 68.955460000000002 14.843781999999999 8
v 68.955460000000002 35.156217999999996 0
v 68.955460000000002 35.156217999999996 8
v 68.955460000000002 40.843781999999997 0
v 68.955460000000002 40.843781999999997 8
v 69.23386099999999 9.2654820000000004 0
v 69.23386099999999 9.2654820000000004 8
v 69.23386099999999 14.734518 0
v 69.23386099999999 14.734518 8
v 69.23386099999999 35.265481999999999 0
v 69.23386099999999 35.265481999999999 8
v 69.23386099999999 40.734518000000001 0
v 69.23386099999999 40.734518000000001 8
v 69.5 9.4019239999999993 0
v 69.5 9.4019239999999993 8
v 69.5 14.598075999999999 0
v 69.5 14.598075999999999 8
v 69.5 35.401924000000001 0
v 69.5 35.401924000000001 8
v 69.5 40.598075999999999 0
v 69.5 40.598075999999999 8
v 69.75123099999999 9.5641859999999994 0
v 69.75123099999999 9.5641859999999994 8
v 69.75123099999999 14.435813999999999 0
v 69.75123099999999 14.435813999999999 8
v 69.75123099999999 35.564185999999999 0
v 69.75123099999999 35.564185999999999 8
v 69.75123099999999 40.435814000000001 0
v 69.75123099999999 40.435814000000001 8
v 69.985057999999995 9.7506559999999993 0
v 69.985057999999995 9.7506559999999993 8
v 69.985057999999995 14.249343999999999 0
v 69.985057999999995 14.249343999999999 8
v 69.985057999999995 35.750655999999999 0
v 69.985057999999995 35.750655999999999 8
v 69.985057999999995 40.249344000000001 0
v 69.985057999999995 40.249344000000001 8
v 70.199156000000002 9.9594819999999995 0
v 70.199156000000002 9.9594819999999995 8
v 70.199156000000002 14.040517999999999 0
v 70.199156000000002 14.040517999999999 8
v 70.199156000000002 35.959482000000001 0
v 70.199156000000002 35.959482000000001 8
v 70.199156000000002 40.040517999999999 0
v 70.199156000000002 40.040517999999999 8
v 70.391397999999995 10.188587 0
v 70.391397999999995 10.188587 8
v 70.391397999999995 13.811413 0
v 70.391397999999995 13.811413 8
v 70.391397999999995 36.188586999999998 0
v 70.391397999999995 36.188586999999998 8
v 70.391397999999995 39.811413000000002 0
v 70.391397999999995 39.811413000000002 8
v 70.559872999999996 10.435694 0
v 70.559872999999996 10.435694 8
v 70.559872999999996 13.564306 0
v 70.559872999999996 13.564306 8
v 70.559872999999996 36.435693999999998 0
v 70.559872999999996 36.435693999999998 8
v 70.559872999999996 39.564305999999995 0
v 70.559872999999996 39.564305999999995 8
v 70.702906999999996 10.698349 0
v 70.702906999999996 10.698349 8
v 70.702906999999996 13.301651 0
v 70.702906999999996 13.301651 8
v 70.702906999999996 36.698349 0
v 70.702906999999996 36.698349 8
v 70.702906999999996 39.301651 0
v 70.702906999999996 39.301651 8
v 70.81907799999999 10.973939999999999 0
v 70.81907799999999 10.973939999999999 8
v 70.81907799999999 13.026059999999999 0
v 70.81907799999999 13.026059999999999 8
v 70.81907799999999 36.973939999999999 0
v 70.81907799999999 36.973939999999999 8
v 70.81907799999999 39.026060000000001 0
v 70.81907799999999 39.026060000000001 8
v 70.907231999999993 11.259727999999999 0
v 70.907231999999993 11.259727999999999 8
v 70.907231999999993 12.740271999999999 0
v 70.907231999999993 12.740271999999999 8
v 70.907231999999993 37.259727999999996 0
v 70.907231999999993 37.259727999999996 8
v 70.907231999999993 38.740271999999997 0
v 70.907231999999993 38.740271999999997 8
v 70.966492000000002 11.552873 0
v 70.966492000000002 11.552873 8
v 70.966492000000002 12.447127 0
v 70.966492000000002 12.447127 8
v 70.966492000000002 37.552872999999998 0
v 70.966492000000002 37.552872999999998 8
v 70.966492000000002 38.447126999999995 0
v 70.966492000000002 38.447126999999995 8
v 70.996270999999993 11.850462 0
v 70.996270999999993 11.850462 8
v 70.996270999999993 12.149538 0
v 70.996270999999993 12.149538 8
v 70.996270999999993 37.850462 0
v 70.996270999999993 37.850462 8
v 70.996270999999993 38.149538 0
v 70.996270999999993 38.149538 8
v 80 0 0
v 80 0 8
v 80 50 0
v 80 50 8
vn -0.31988903656783235 -0.5118224585085317 -0.79731347364131921
vn -0.18761493358985706 -0.3001838937437713 0.93524877258989325
vn -0.26977128066374689 0.43163404906199504 -0.8607644880101577
vn -0.40471660342838012 0.64754656548540823 0.64566858095887492
vn 0.87157553712454916 0 -0.49026123963255908
vn 0.66436383882991956 0 0.74740931868365978
vn 0.87157553712454927 0 -0.49026123963255896
vn 0.66436383882991978 0 0.74740931868365978
vn 0.61649539130532316 0.061690193697264695 -0.78493805647381532
vn 0.84057674813535777 0.08411310634470813 0.53512215038739608
vn 0.71487001165557307 -0.07153414301122836 -0.69558876703064287
vn 0.89560686543148516 -0.089619747015603254 0.43572542218333865
vn 0.71487001165557196 0.071534143011227819 -0.69558876703064398
vn 0.89560686543148471 0.089619747015602672 0.43572542218333982
vn 0.6164953913053226 -0.061690193697265014 -0.78493805647381565
vn 0.84057674813535754 -0.084113106344708616 0.53512215038739663
vn 0.80440728210851087 0.1626145610751934 -0.57138903473651037
vn 0.57174586943628469 0.11558100687655694 0.81224854055390483
vn 0.86814352911560988 -0.16051714738959275 -0.46963928524837212
vn 0.86232437423335317 -0.18930472357411524 0.46963857937310022
vn 0.91037470537712251 0.18403635374957789 -0.37060560749680754
vn 0.76611828770661727 0.15487426812016852 0.62376015447904576
vn 0.72071641216689541 -0.13325831349079545 -0.68030145900098338
vn 0.71588579376465411 -0.15715729063061551 0.68030075429003856
vn 0.6720682100196248 0.2196119892624443 -0.70717387908010965
vn 0.67900191434432389 0.19713597558453932 0.70717310995757987
vn 0.91320836912925629 -0.28168613177739232 -0.29445440685541358
vn 0.81351510403887373 -0.25093497885668004 0.52461873001906634
vn 0.87925162134976342 0.28731339281948026 -0.37995736689840753
vn 0.88832214222188455 0.25790833345346975 0.3799566595989281
vn 0.76436853958735607 -0.23577534377394666 -0.6001255893205768
vn 0.52993662558702448 -0.16346302026459378 0.83213401196406755
vn 0.62788902650745571 0.27706544989578441 -0.7273170607551882
vn 0.63675705322954512 0.25602636415453012 0.72731764451320602
vn 0.029020308933142707 -0.012805646557322622 -0.99949679193365792
vn 0.029430155362112971 -0.011833234725314465 0.99949679364733213
vn 0.0095797866167120389 0.0042272245202766507 -0.9999451776278705
vn 0.0097150794874215889 0.0039062252487373425 0.99994517781469361
vn 0.62788902650745604 -0.27706544989578397 -0.72731706075518832
vn 0.63675705322954612 -0.2560263641545294 0.72731764451320535
vn 0.58348370387755988 0.33044977601188202 -0.74185558759304426
vn 0.59415288033427893 0.31085820960547805 0.74185546322134532
vn 0.3745378330546173 -0.20396284021441402 -0.90450017767959623
vn 0.60252040003927476 -0.32811577692129867 0.72753639391568925
vn 0.51790719721458778 0.29331122047997282 -0.80357990456075912
vn 0.5273773061187127 0.2759215188427403 0.80357979842109317
vn 0.45323055425576131 -0.24681669769920866 -0.85654164080088535
vn 0.675822236197545 -0.36803390901983146 0.638604217706501
vn 0.53875850937765857 0.38059915871611111 -0.75158735284579647
vn 0.5511197561834702 0.36246844432884051 0.75158741421746977
vn 0.64631801190725813 -0.4406528616902588 -0.62297518647891192
vn 0.43932721417113685 -0.29952870038642759 0.84692039562962806
vn 0.34810344493278572 0.24591329135689838 -0.90462735132204808
vn 0.35609029506382195 0.23419863622056755 0.90462738216007288
vn 0.62809396411221152 -0.42822789648037907 -0.64970673455167272
vn 0.41721556750403216 -0.28445321091988773 0.86314398626744437
vn 0.49345466283211792 0.42824430826308446 -0.7570398326174872
vn 0.50742623028381606 0.41159361754387624 0.75703983700800126
vn 0.20728703863431369 -0.17393429906369409 -0.9626935874012239
vn 0.37538955796289802 -0.31498891619216851 0.8717021638429624
vn 0.48685230494444559 0.42251445626354217 -0.76449746070121372
vn 0.50063693460104863 0.40608654951334722 0.76449746501712423
vn 0.38199685181390447 -0.32053308833266508 -0.86679694536159368
vn 0.57818791105896472 -0.485156764743778 0.65598906479347741
vn 0.44719524306372982 0.47401209534824862 -0.75850441530997992
vn 0.46271538191038336 0.45887474440722031 0.75850408323801155
vn 0.50091022623517589 -0.51355874052189965 -0.69666804526014037
vn 0.31962611802845148 -0.32769701638219134 0.88907469322226917
vn 0.24722634866044943 0.26205171314207415 -0.9328494155903867
vn 0.25580654286609389 0.25368329336868334 0.93284929077129908
vn 0.52597705629997449 -0.53925853462215356 -0.65768409520314608
vn 0.34699668499701308 -0.3557587191854919 0.86777245538480996
vn 0.39950939313747058 0.51842869021495586 -0.75605815778743846
vn 0.41653166693369614 0.50485358579740836 0.75605834916951709
vn 0.1455329647162967 -0.18249241527129334 -0.97237681715954905
vn 0.26984695063319963 -0.33837709463725113 0.90148963668963855
vn 0.35678531952325432 0.46298722649736479 -0.81138589085155233
vn 0.37198718932657737 0.45086383896020765 0.81138605465892555
vn 0.31161938572907938 -0.39075802831280448 -0.86614174460472737
vn 0.47120562738375249 -0.59087268096488932 0.65485474084811224
vn 0.27521934688718042 0.42612250173182864 -0.86178531237008305
vn 0.41350404764004128 0.64022889832974572 0.64739582971222687
vn 0.22910253868593283 -0.34209622958590175 -0.91130795918326679
vn 0.21759607723170088 -0.34952786564415006 0.91130797116650997
vn 0.15806427921774552 0.24473114574432459 -0.95662027468481192
vn 0.28223143657603911 0.43697933005578343 0.8540459480099557
vn 0.36832372908577687 -0.54998150483174146 -0.74957186108828833
vn 0.34982502040406727 -0.56192921437895726 0.74957188656375173
vn 0.35241587557634391 0.68741416257395382 -0.63503135334761918
vn 0.23707159633724947 0.46242630982422167 0.85437636097475289
vn 0.29949005691540992 -0.58417829882676531 -0.75434834194069189
vn 0.18202385703815527 -0.3550514773198955 0.91695461388332233
vn 0.1819514454081714 0.35491023288842782 -0.91702366278355052
vn 0.096941936089364356 0.18909267270149555 0.97716233152831411
vn 0.35241587557634219 -0.68741416257395482 -0.63503135334761895
vn 0.23707159633724836 -0.46242630982422245 0.85437636097475278
vn 0.24172051648598092 0.64735315622577694 -0.72284513073982559
vn 0.26311927503395033 0.63895460876662802 0.72284524971911779
vn 0.075209332634107978 -0.19162980133826155 -0.97858140975791608
vn 0.14168168398444375 -0.3609981900423937 0.92174107384310922
vn 0.18678826883150043 0.50023877630195424 -0.84550062644024959
vn 0.20332403444790784 0.49374880980023889 0.84550070954238321
vn 0.1963302592452143 -0.50024015980681535 -0.84333517169697059
vn 0.28742188501953186 -0.73233728843890122 0.61730928712743083
vn 0.18167225302403059 0.68949247115106727 -0.70113859165443704
vn 0.2045068190511157 0.68306840080647191 0.7011380183539353
vn 0.10879846056875389 -0.36339517095676654 -0.92526041993763664
vn 0.096650321789869653 -0.36681258749858925 0.92526063406507486
vn 0.09698480656533047 0.36808204241290654 -0.92472134037699627
vn 0.1091749871136062 0.36465279838479014 0.92472112489057245
vn 0.2045068190511182 -0.6830684008064708 -0.70113801835393552
vn 0.18167225302403178 -0.68949247115106638 0.70113859165443759
vn 0.11639397704827589 0.73101258511382006 -0.6723637724566186
vn 0.14064486375388199 0.72673588350962748 0.67236446806708439
vn 0.07112756106767168 -0.36752818094270867 -0.92728846982452462
vn 0.058863337514946192 -0.36969129860887001 0.92728822446394144
vn 0.058986607878726116 0.37046549835339204 -0.92697135587931434
vn 0.071276514989625825 0.36829785114028524 0.92697160218443697
vn 0.14064486375388199 -0.72673588350962748 -0.67236446806708439
vn 0.11639397704827589 -0.73101258511382006 0.6723637724566186
vn 0.044913255066081105 0.7712706356659601 -0.63492078724735035
vn 0.07054208674738642 0.76935036092221221 0.63492033842536966
vn 0.047049867022302377 -0.51313809732587123 -0.85701552091310951
vn 0.029956043924547635 -0.51441867229907789 0.85701579041604858
vn 0.016725646623963825 0.28722033360993504 -0.95771850389663449
vn 0.026269811254849968 0.28650539985656975 0.95771841000873614
vn 0.070542086747387808 -0.76935036092221065 -0.63492033842537143
vn 0.044913255066084075 -0.77127063566595844 0.63492078724735201
vn -0.033648798952515054 0.80904206186444638 -0.5867867589364798
vn -0.0067183772600287722 0.8097135362519331 0.58678688858680317
vn -0.0023832589720833765 -0.28723558910146324 -0.95785700207818458
vn -0.011936486206218695 -0.28699744752627504 0.95785697544594395
vn -0.021385464748720624 0.5141859749184402 -0.85741206260155589
vn -0.0042698582301004618 0.51461266210214052 0.85741213912262926
vn -0.0067183772600271597 -0.80971353625193221 -0.58678688858680417
vn -0.033648798952516622 -0.80904206186444561 0.5867867589364808
vn -0.0911970150759705 0.72773337224163814 -0.6797699929881037
vn -0.11281830516402534 0.90026680806612658 0.42046605607866233
vn -0.05570276161554711 -0.51360512477046139 -0.85621666542874564
vn -0.072755866563934096 -0.51146824280037495 0.8562165733546786
vn -0.024497223701850361 0.19548279294289239 -0.98040112387438016
vn -0.046369134845373527 0.37001613310305637 0.92786742834154534
vn -0.091728221143547964 -0.8457764588147586 -0.5255931079843108
vn -0.11981030734606456 -0.84225740495870638 0.52559295471483203
vn -0.1843244592440163 0.87437313843832531 -0.44888317912560965
vn -0.21330675528218207 0.86775801913508166 0.448883334929853
vn -0.077668477042482698 -0.36843308971521588 -0.9264041591426504
vn -0.089880671096011583 -0.36564558401175584 0.92640421623394642
vn -0.077882376708527726 0.36944775767128823 -0.92598201372914801
vn -0.090128203282079891 0.36665257527733436 0.92598207110917796
vn -0.18432445924402174 -0.87437313843832587 -0.44888317912560644
vn -0.2133067552821824 -0.86775801913508299 0.44888333492985016
vn -0.30632409793286536 0.91172739223605193 -0.27371282262996821
vn -0.27679379666636816 0.82383491251495244 0.49465263675482218
vn -0.1158600684654183 -0.36483142568536708 -0.92383682291169311
vn -0.12793093491841193 -0.36077565784611904 0.92383689068828667
vn -0.15457861131303233 0.46007987990154314 -0.87431799537371757
vn -0.085179292123235578 0.25352329249999339 0.96357170379445412
vn -0.28299345902633855 -0.89111726312358996 -0.35471781109979578
vn -0.31247721029848119 -0.88121118773386842 0.35471796635741976
vn -0.0060857913570706934 0.012910242240071224 -0.99989813920661985
vn -0.0056529757019586277 0.01310551730328063 0.99989813945317774
vn -0.15519388327669692 -0.35979212186271692 -0.92003504696235516
vn -0.16707615033475132 -0.35443107507359956 0.9200348759756295
vn -0.16807523640642669 0.35655051073071981 -0.91903343149451677
vn -0.15612191582371635 0.36194361644612816 0.9190336043439491
vn -0.0037663508704297455 -0.0087316802875239616 -0.99995478515804759
vn -0.0040547185741766001 -0.0086015763499872142 0.99995478504859392
vn -0.098620609088201333 0.17081573907267014 -0.98035501668942848
vn -0.18664959870256548 0.32328627296837864 0.9277111150645907
vn -0.25376671446301713 -0.43953641418170075 -0.86163228539727887
vn -0.14126014849053803 -0.24466951572308851 0.95926138175382647
vn -0.14252030931784163 0.24685217617364177 -0.95851550042254607
vn -0.25558845575593842 0.44269175958289625 0.85947573978658276
vn -0.0091394150021406224 -0.015829915701354783 -0.99983292847470595
vn -0.0045702801618673966 -0.007915949727306389 0.99995822426697234
vn -0.19182716125132182 0.26681606271361213 -0.94446361967217418
vn -0.10005074008714389 0.13916248547649684 0.98520234066105361
vn -0.13252018723031772 -0.18432485971337093 -0.97389052057615166
vn -0.24665734236423512 -0.34308040894586911 0.9063420923996347
vn -0.39814818765316679 0.55379191931532001 -0.73129510511800411
vn -0.24671341688716356 0.3431584040709027 0.90629730201704328
vn -0.10005074008714304 -0.1391624854764964 -0.98520234066105372
vn -0.19182716125132029 -0.26681606271361136 0.94446361967217463
vn -0.15252860140345362 0.16714743427141945 -0.97406199031190399
vn -0.14688416476327718 0.17212861029295914 0.9740620019590176
vn -0.29055522331531569 -0.34049188953232562 -0.89422756352446087
vn -0.3017206134543316 -0.3306384897104836 0.89422752168489661
vn -0.29760035868397017 0.32612333644038222 -0.89726116373114329
vn -0.28658744119743174 0.33584217917724779 0.89726120457388903
vn -0.14688416476327887 -0.17212861029296059 -0.97406200195901704
vn -0.15252860140345581 -0.16714743427142087 0.97406199031190344
vn -0.15395079764866845 0.13815172847962501 -0.97837275709283245
vn -0.14927043627001552 0.14319605499205385 0.97837274424958898
vn -0.45251921805396889 -0.43410449150294278 -0.77896062015277512
vn -0.4667079684473272 -0.41881246164995461 0.77896071412778822
vn -0.27792170301672986 0.24940022552779958 -0.92766322256461331
vn -0.26947241106655939 0.25850655466784861 0.92766318287821137
vn -0.14927043627001474 -0.1431960549920531 -0.97837274424958931
vn -0.15395079764866645 -0.13815172847962431 0.978372757092833
vn -0.15513912786895642 0.11350232104400558 -0.98135063770381437
vn -0.15127801327966761 0.11859991882389311 0.98135061112383415
vn -0.4894894399702957 -0.37077428186976857 -0.78925694172526839
vn -0.28899793395862078 -0.21890768763439908 0.93196545990836421
vn -0.41586345729445479 0.3042525008918181 -0.85702275383339588
vn -0.40551334753166129 0.31791698645823424 0.85702258703897705
vn -0.20140622921409052 -0.15255947095709205 -0.96755420450487073
vn -0.1032040793858381 -0.078174144926673766 0.99158344130138898
vn -0.10398577747186337 0.063544370813208448 -0.99254676011839638
vn -0.20348797167857963 0.12434888157536814 0.97114880478384602
vn -0.47379366109319387 -0.27881260005189412 -0.83533412522188399
vn -0.46425683525657818 -0.29441799414931014 0.8353344453801983
vn -0.35430023330431809 0.21650831442201404 -0.90972275692468196
vn -0.57527841929297996 0.35154524094682754 0.73855987154963088
vn -0.15612132883493648 -0.091872469369031165 -0.98345593701743961
vn -0.15297876529302926 -0.097014621658977646 0.98345597794399819
vn -0.20517664903482494 0.098807633151146171 -0.97372459880702855
vn -0.10464357959773393 0.050393572919502673 0.99323220299050885
vn -0.0017949699775130677 -0.00086440994084725819 -0.99999801543714772
vn -0.0035899185818537875 -0.0017288095889415032 0.99999206181948308
vn -0.0071790506669732468 0.0034572404219126479 -0.99996825385618437
vn -0.0035896108003729919 0.0017286613695423258 0.99999206318058909
vn -0.10464357959773361 -0.05039357291950302 -0.99323220299050896
vn -0.20517664903482433 -0.098807633151146851 0.97372459880702866
vn -0.15749010748829934 0.05437245448426356 -0.98602256679889455
vn -0.15559446243002134 0.059580872469708661 0.98602255699190833
vn -0.15559446243002198 -0.059580872469708654 -0.98602255699190822
vn -0.15749010748829967 -0.05437245448426356 0.98602256679889455
vn -0.15749010748829964 0.054372454484264122 -0.98602256679889444
vn -0.15559446243002228 0.059580872469709271 0.98602255699190799
vn -0.15559446243002101 -0.059580872469708279 -0.98602255699190822
vn -0.15749010748829964 -0.054372454484263207 0.98602256679889455
vn -0.10557885107430118 0.026883595774065312 -0.99404747295292051
vn -0.20749567446851264 0.052834727604232544 0.97680808587759127
vn -0.15653984392540279 -0.042644711940405214 -0.98675057932961485
vn -0.15787167786122336 -0.03741405143839252 0.98675058757735101
vn -0.10557885107430108 0.026883595774065367 -0.99404747295292051
vn -0.20749567446851244 0.052834727604232662 0.97680808587759138
vn -0.1565398439254034 -0.042644711940404853 -0.98675057932961463
vn -0.15787167786122397 -0.037414051438392208 0.98675058757735101
vn -0.20815260827612864 0.031374019589694303 -0.97759304547579007
vn -0.10585007010285639 0.015954362525076198 0.99425410282062132
vn -0.1572541933629322 -0.026384425494360379 -0.98720564258978283
vn -0.15804483992204821 -0.021139351102986596 0.98720563025590502
vn -0.20815260827612822 0.031374019589694054 -0.97759304547579007
vn -0.10585007010285619 0.015954362525076069 0.99425410282062132
vn -0.15725419336293375 -0.026384425494360587 -0.98720564258978272
vn -0.15804483992204821 -0.021139351102986769 0.98720563025590513
vn -0.1580026082694575 0.0052528126675639381 -0.98742472307468976
vn -0.15774031493053151 0.010505625556757939 0.98742474390572055
vn -0.15774031493053187 -0.010505625556757964 -0.98742474390572066
vn -0.15800260826945783 -0.0052528126675639494 0.98742472307468987
vn -0.15800260826945747 0.0052528126675639268 -0.98742472307468976
vn -0.15774031493053181 0.010505625556757919 0.98742474390572055
vn -0.15774031493053059 -0.010505625556758004 -0.98742474390572077
vn -0.1580026082694575 -0.0052528126675639693 0.98742472307468976
vn 0.20852094825274184 0 -0.97801790072563455
vn 0.1060032216785801 0 0.99436578631495653
vn 0.20852094825274206 0 -0.97801790072563466
vn 0.10600322167858023 0 0.99436578631495653
vn 0.10593505325548853 0.010600491174514819 -0.99431654621584964
vn 0.2083572485668006 0.020849464900458976 0.97783053582051582
vn 0.10593505325548852 -0.010600491174514818 -0.99431654621584964
vn 0.20835724856680057 -0.020849464900458973 0.97783053582051582
vn 0.10593505325548853 0.010600491174514757 -0.99431654621584964
vn 0.2083572485668006 0.020849464900458848 0.97783053582051582
vn 0.10593505325548896 -0.010600491174514925 -0.99431654621584964
vn 0.20835724856680141 -0.020849464900459178 0.9778305358205156
vn 0.20786556958038979 0.042020962653843114 -0.97725439046374429
vn 0.10573125911280677 0.02137405102486108 0.99416500179256317
vn 0.15798473781964723 -0.029210906486555575 -0.98700939486830153
vn 0.15692599621028361 -0.034449718947804173 0.98700934573986043
vn 0.20786556958038985 0.042020962653842864 -0.9772543904637444
vn 0.10573125911280679 0.021374051024860952 0.99416500179256329
vn 0.15798473781964573 -0.029210906486555652 -0.98700939486830197
vn 0.15692599621028303 -0.034449718947804249 0.98700934573986054
vn 0.15609631141953176 0.051007652134552335 -0.98642392559433445
vn 0.15770691389911701 0.045787361819074557 0.98642386771917956
vn 0.20704340665781332 -0.063864128169412171 -0.97624505166105102
vn 0.10539374391807943 -0.032509509375310608 0.99389903438081018
vn 0.15609631141953145 0.051007652134552862 -0.98642392559433456
vn 0.15770691389911765 0.045787361819075029 0.98642386771917945
vn 0.20704340665781287 -0.06386412816941163 -0.97624505166105124
vn 0.10539374391807919 -0.03250950937531033 0.99389903438081018
vn 0.15503280731799876 0.068410551378953952 -0.98553783545591378
vn 0.15722230357848541 0.063215718687436612 0.98553788367992512
vn 0.005332009015507613 -0.0023528289464579801 -0.99998301679368895
vn 0.0054073116113315172 -0.0021741641096525732 0.99998301685156743
vn 0.0027223787023653175 0.0012012904320898021 -0.99999557276794915
vn 0.0027608261584513086 0.0011100690284088876 0.99999557278303719
vn 0.15503280731799873 -0.068410551378953799 -0.98553783545591389
vn 0.15722230357848571 -0.063215718687436473 0.98553788367992512
vn 0.15372668808507561 0.087061471138225474 -0.98427049412935352
vn 0.15653765161348107 0.081899820276957441 0.98427048267533579
vn 0.51463784229343812 -0.28025739119572757 -0.81031085760942345
vn 0.72237629199359099 -0.39338594720038583 0.5687002631534871
vn 0.41513842671028633 0.23510922277466786 -0.87885365109032787
vn 0.42272939372147889 0.22117018503038979 0.87885357650606055
vn 0.10433013485368986 -0.056815276713603591 -0.99291855018091368
vn 0.20437860248290207 -0.11129887707602243 0.97254405905786723
vn 0.1521640869578722 0.10749440143389727 -0.98249226170013437
vn 0.15565532004215174 0.10237365123307643 0.98249226809974632
vn 0.53582427815003797 -0.36531938949553155 -0.76120567956604401
vn 0.32380361661608859 -0.2207659196538149 0.92000740572331619
vn 0.42912633136997036 0.30315088830986531 -0.85085259043026373
vn 0.43897217016563356 0.28870959140614866 0.85085263450856685
vn 0.20249952251316528 -0.13806205682403197 -0.96950132122006816
vn 0.10361050256045888 -0.070640557145701818 0.99210623193552927
vn 0.15031608511033423 0.1304517167178755 -0.97999358373535372
vn 0.15457210107100933 0.12537958515780601 0.97999358426274918
vn 0.27190585493254826 -0.22815586830993687 -0.93488614590715735
vn 0.46326519098979058 -0.38872525173930006 0.796415746628236
vn 0.3665065108519916 0.31807243711693639 -0.87435856617842522
vn 0.3768836951000733 0.30570536996634151 0.87435856897582775
vn 0.10276673227283611 -0.086231438601791444 -0.99096071452637735
vn 0.20020004779355638 -0.16798761376933424 0.96524613569987572
vn 0.1481306405854248 0.15701355597642264 -0.97642411715370425
vn 0.15327164970883334 0.15199946194707784 0.97642407024987432
vn 0.3978309601213384 -0.40787661365215033 -0.82180727375984475
vn 0.22869508251322759 -0.23446987581344642 0.94483989996734108
vn 0.3117351980658512 0.33042894959403779 -0.8908635560830992
vn 0.3225541995997947 0.31987693015033702 0.89086336655972798
vn 0.19739204137679964 -0.20237639970026089 -0.95920809777934013
vn 0.10179391686890467 -0.10436432119363992 0.98931596921826614
vn 0.14551057407059864 0.18882373637179853 -0.97117056659282996
vn 0.15171044713408069 0.18387932855717712 0.97117059920476334
vn 0.14553296471629559 -0.18249241527129334 -0.97237681715954927
vn 0.26984695063319769 -0.33837709463725124 0.90148963668963911
vn 0.35678531952325238 0.4629872264973634 -0.81138589085155388
vn 0.37198718932657454 0.45086383896021009 0.81138605465892555
vn 0.10067599447356929 -0.12624360004715823 -0.98687734677815508
vn 0.19391096684000922 -0.24315646118533935 0.95040700351112495
vn 0.099370622890027599 0.15385567513139314 -0.98308387767082783
vn 0.18943739080765301 0.29330617852820151 0.9370618766128368
vn 0.22910253868593536 -0.34209622958590225 -0.91130795918326601
vn 0.21759607723170327 -0.34952786564414984 0.91130797116650941
vn 0.15806427921774699 0.24473114574432428 -0.95662027468481159
vn 0.28223143657604166 0.43697933005578277 0.85404594800995515
vn 0.14978571389401932 -0.22366023642898056 -0.96308895671884409
vn 0.14226286496102125 -0.22851898886622912 0.96308896213207562
vn 0.0034706253912409847 0.0067697206972476337 -0.9999710624018453
vn 0.0017353503581377474 0.0033849338122489071 0.99999276536494075
vn 0.29949005691540992 -0.58417829882676531 -0.75434834194069178
vn 0.1820238570381553 -0.35505147731989556 0.91695461388332233
vn 0.18195144540817149 0.35491023288842799 -0.91702366278355063
vn 0.096941936089364369 0.18909267270149557 0.97716233152831389
vn 0.0086573781567001133 -0.016886879304008187 -0.99981992534197073
vn 0.0043292737595560246 -0.0084445801174865744 0.99995497221392637
vn 0.33359925110459104 0.89341414314592271 -0.30086991954878567
vn 0.36313179968888448 0.8818234124846841 0.30087001387406248
vn 0.075209332634107715 -0.19162980133826152 -0.97858140975791619
vn 0.14168168398444331 -0.3609981900423937 0.92174107384310933
vn 0.18678826883149999 0.50023877630195313 -0.84550062644025037
vn 0.20332403444790706 0.49374880980024016 0.84550070954238277
vn 0.33022256503705427 -0.84139138480753428 -0.42780088255169407
vn 0.35552228526350854 -0.90585386826680636 0.23028824118281827
vn 0.23306564728603021 0.88454349199056947 -0.40405842997303393
vn 0.2623597615709865 0.8763016490294584 0.40405788622011446
vn 0.1087984605687525 -0.36339517095676338 -0.92526041993763808
vn 0.096650321789868279 -0.3668125874985893 0.92526063406507497
vn 0.096984806565329956 0.36808204241290987 -0.92472134037699516
vn 0.10917498711360575 0.36465279838479014 0.92472112489057234
vn 0.26235976157099017 -0.87630164902945851 -0.40405788622011179
vn 0.23306564728603218 -0.88454349199057003 0.40405842997303149
vn 0.1371314478778089 0.86125430847662099 -0.48932196162996128
vn 0.16570308907553491 0.85621598702896118 0.48932266432983396
vn 0.098540546777491606 -0.50917573107525449 -0.85500282778758874
vn 0.081549598577429258 -0.51217240258363483 0.85500239356598717
vn 0.045607360511170182 0.28643711086235951 -0.95701293104535878
vn 0.055109684801724922 0.2847610954666901 0.95701308306086652
vn 0.16570308907553485 -0.85621598702896096 -0.48932266432983407
vn 0.13713144787780887 -0.86125430847662077 0.48932196162996139
vn 0.048243093641962102 0.82845212276384694 -0.5579782112268622
vn 0.075772021460311118 0.82638939030897196 0.55797775614139278
vn 0.033972534167182704 -0.37051330103914526 -0.92820566722862419
vn 0.021629871389020606 -0.37143788912734244 0.92820581940877678
vn 0.021611084137803063 0.37111526599150452 -0.92833529524113423
vn 0.033943026348414874 0.37019148108645639 0.92833514330403699
vn 0.075772021460312866 -0.82638939030897296 -0.55797775614139111
vn 0.048243093641965447 -0.82845212276384783 0.55797821122686042
vn -0.032853461055626282 0.7899191858032274 -0.61233024586135909
vn -0.0065595786554717905 0.79057478076515642 0.61233037483533981
vn -0.0023832589720833536 -0.28723558910146563 -0.95785700207818381
vn -0.011936486206218596 -0.28699744752627265 0.95785697544594461
vn -0.021385464748720485 0.51418597491843687 -0.85741206260155789
vn -0.0042698582301004132 0.51461266210214385 0.85741213912262726
vn -0.0065595786554702232 -0.79057478076515642 -0.6123303748353397
vn -0.03285346105562785 -0.7899191858032274 0.61233024586135909
vn -0.075818444315737643 0.60501554918264733 -0.79259557704340056
vn -0.10425838685734201 0.83196042533806736 0.5449514101653532
vn -0.040250674627670145 -0.37112976385123447 -0.92770824162327259
vn -0.052573207824318992 -0.36958567733715719 0.92770818953283785
vn -0.03216253036649 0.25665035926814594 -0.96596902886581004
vn -0.058703077380741708 0.46843845083813751 0.8815437405383787
vn -0.081488243736435276 -0.75135914948769733 -0.65484280145228402
vn -0.10643542418694615 -0.74823298727078358 0.65484265074747883
vn -0.14974891949851188 0.7103584258794664 -0.68772535789446843
vn -0.17329470265075886 0.70498408594651796 0.68772551544590621
vn -0.10753712604555075 -0.51011989827463733 -0.85335423823060541
vn -0.12444572072209098 -0.50626044149788696 0.85335433904581737
vn -0.060222214196929573 0.28567389616680416 -0.95643280473125614
vn -0.069691245406036842 0.28351252628919199 0.95643284016750274
vn -0.14974891949851588 -0.71035842587946496 -0.68772535789446931
vn -0.17329470265075858 -0.70498408594651685 0.68772551544590743
vn -0.25328482517386292 0.7538640110492919 -0.60624735065921631
vn -0.17467472220762309 0.51989291747726885 0.83618185568610814
vn -0.090007447369638283 -0.28342418385473961 -0.95476143168033167
vn -0.099384858900867443 -0.2802733980860076 0.95476147395387556
vn -0.20354765595296115 0.60582884209920362 -0.76911622388088607
vn -0.12219808617548869 0.36370413949420882 0.9234646320513985
vn -0.21228955722760043 -0.66847795661866982 -0.71279054806235842
vn -0.23440695820457944 -0.6610467171517086 0.71279072362666573
vn -0.29075908315749416 0.61680888759076835 -0.73144101043792464
vn -0.27008072746955625 0.62613883974566664 0.73144142213267194
vn -0.15612191582371204 -0.36194361644612022 -0.91903360434395298
vn -0.16807523640642252 -0.35655051073071992 0.91903343149451755
vn -0.16707615033475692 0.35443107507360716 -0.92003487597562561
vn -0.15519388327670361 0.35979212186271642 0.92003504696235416
vn -0.27008072746955158 -0.62613883974566853 -0.73144142213267216
vn -0.29075908315749577 -0.61680888759076902 0.73144101043792353
vn -0.25641366614342764 0.44412106450742384 -0.85849199872548587
vn -0.38341499441438992 0.66409360323321232 0.64185093923974446
vn -0.25558845575594064 -0.44269175958290014 -0.85947573978658021
vn -0.14252030931784315 -0.24685217617364441 0.95851550042254519
vn -0.14126014849053659 0.24466951572308598 -0.95926138175382725
vn -0.25376671446301502 0.4395364141816972 0.86163228539728154
vn -0.38341499441439153 -0.6640936032332112 -0.64185093923974479
vn -0.25641366614342864 -0.44412106450742289 0.85849199872548598
vn -0.44274671695915829 0.61582486561248528 -0.65171702411035082
vn -0.29358950162317171 0.40835924571972454 0.86431934548052047
vn -0.17429802744490278 -0.24243445567475536 -0.95438238265933084
vn -0.30963842982482115 -0.43068200650920069 0.84772463220365868
vn -0.30676165804410821 0.42668064968961344 -0.85078840397273814
vn -0.17225314605193412 0.23959019108558616 0.9554712941845942
vn -0.29358950162317082 -0.40835924571972537 -0.86431934548052047
vn -0.44274671695915691 -0.61582486561248651 0.6517170241103506
vn -0.43984037144783378 0.4819960905694835 -0.75777319583128966
vn -0.42356378178314452 0.49636014369734505 0.75777327117701354
vn -0.29055522331530798 -0.34049188953232545 -0.89422756352446342
vn -0.30172061345432355 -0.33063848971048454 0.89422752168489905
vn -0.29760035868396301 0.32612333644038399 -0.89726116373114506
vn -0.28658744119742485 0.33584217917724846 0.8972612045738908
vn -0.42356378178314508 -0.49636014369734416 -0.75777327117701376
vn -0.43984037144783528 -0.48199609056948234 0.75777319583128944
vn -0.48522416068426671 0.43542844546727 -0.75826089360206728
vn -0.4704724805977224 0.45132716757158042 0.75826079472173713
vn -0.452519218053968 -0.43410449150294683 -0.77896062015277345
vn -0.46670796844732831 -0.41881246164995062 0.77896071412778989
vn -0.27792170301673019 0.24940022552779689 -0.92766322256461398
vn -0.26947241106655928 0.25850655466785144 0.9276631828782107
vn -0.4704724805977229 -0.45132716757158092 -0.75826079472173646
vn -0.48522416068426433 -0.43542844546727133 0.75826089360206816
vn -0.52937506716355032 0.38729944954081219 -0.75482526100480407
vn -0.51619979082009737 0.40469366275317797 0.75482502295876808
vn -0.48948943997030481 -0.37077428186976813 -0.78925694172526295
vn -0.28899793395862755 -0.21890768763439986 0.9319654599083621
vn -0.41586345729445939 0.30425250089181738 -0.85702275383339388
vn -0.40551334753166635 0.31791698645823008 0.85702258703897627
vn -0.6034173723182199 -0.45707143938100248 -0.65343184349001016
vn -0.39954235778288244 -0.30264193399654865 0.86531714655617675
vn -0.43508818151327905 0.26587679021782784 -0.8602370642624817
vn -0.6522290499407476 0.3985687813489292 0.64477918154002101
vn -0.38755985589013386 -0.22806673024528118 -0.89318694832473045
vn -0.37975875180486607 -0.24083180144292804 0.89318717738297404
vn -0.47534960448415303 0.29048002782328591 -0.83046017782464576
vn -0.68414968623715766 0.41807507152367285 0.59762232337160448
vn -0.57270194571004218 -0.33701700054359396 -0.74728309409790006
vn -0.56117432899960018 -0.35588021061840547 0.74728351257206793
vn -0.69886508375997458 0.33655489132478567 -0.63112471020118166
vn -0.47171589753229842 0.22716586694533161 0.85198578680062165
vn -0.42824046017586676 -0.20622924922783067 -0.87981793857097901
vn -0.66123010971686236 -0.318430885857313 0.67924701908506979
vn -0.64454223726236437 0.31039444902440005 -0.69872783714380882
vn -0.41055629715233111 0.19771302527722917 0.89014217207381674
vn -0.47171589753229698 -0.22716586694533317 -0.85198578680062198
vn -0.6988650837599728 -0.33655489132478811 0.63112471020118222
vn -0.65792782828305874 0.22714538371820561 -0.71800831988650882
vn -0.65000850936561416 0.2489039358849624 0.71800819525494752
vn -0.02986034939711487 -0.011434247990223618 -0.99948867802831076
vn -0.030224144983657806 -0.010434693160469246 0.99948867839443467
vn -0.0098806110856558237 0.0034112179177441513 -0.99994536706606718
vn -0.0097616822421525244 0.0037379835739403508 0.99994536702692116
vn -0.65000850936561427 -0.2489039358849614 -0.71800819525494775
vn -0.65792782828306029 -0.22714538371820425 0.7180083198865076
vn -0.55049846330746488 0.14017369966820523 -0.82298406777862188
vn -0.78480804224526346 0.19983606520884528 0.58663607446951538
vn -0.87244305284528945 -0.23767164793346324 -0.42703080370224267
vn -0.87986598009570915 -0.20851967549957612 0.42703091457149617
vn -0.79073579603245969 0.20134545212716945 -0.57809766456942047
vn -0.91345755479917656 0.23259415508042705 0.33390905139383636
vn -0.69404295983133524 -0.18907174910931548 -0.69466268331997194
vn -0.69994795520275122 -0.16588085434283004 0.69466279745642068
vn -0.82304615032378303 0.12405449183334441 -0.55426123578432884
vn -0.59373250029479363 0.089490952093070342 0.79967061193166822
vn -0.84950561485289455 -0.14253176416350763 -0.50796152072557987
vn -0.8537764797680617 -0.11419721629753291 0.50796133552146572
vn -0.90430948431212033 0.13630299284223679 -0.40453164366387495
vn -0.74060622652082109 0.11162864809404334 0.66260203905759785
vn -0.73752291049959073 -0.12374308033586624 -0.66388824854579542
vn -0.74123085216095086 -0.099143630629909857 0.66388806610020545
vn -0.78101143459953015 0.025964804012468052 -0.62397673672772291
vn -0.77971529654659899 0.051929634792472604 0.62397705836157902
vn -0.8178766993499238 -0.054471213391125456 -0.57280938502452361
vn -0.81923623160343473 -0.027235591248933634 0.57280906015663247
vn -0.81923623160343439 0.027235591248933568 -0.57280906015663291
vn -0.81787669934992391 0.054471213391125248 0.57280938502452317
vn -0.77971529654659799 -0.051929634792473152 -0.62397705836158035
vn -0.78101143459953082 -0.025964804012468225 0.6239767367277218
vn 0.23841196688689259 -0.38145914701902811 -0.8931117809102278
vn 0.37613418472975535 -0.60181469556760858 0.70451554083394707
vn 0.34281279954858479 0.54850047927773571 -0.76264448381782435
vn 0.20691661310527407 0.3310665809684385 0.92064131679330496
f 1//1 2//2 4//4
f 1//1 3//3 37//37
f 1//1 4//4 3//3
f 1//1 5//5 9//9
f 1//1 9//9 17//17
f 1//1 11//11 5//5
f 1//1 17//17 25//25
f 1//1 19//19 11//11
f 1//1 25//25 33//33
f 1//1 27//27 19//19
f 1//1 33//33 41//41
f 1//1 35//35 27//27
f 1//1 37//37 35//35
f 1//1 41//41 49//49
f 1//1 49//49 57//57
f 1//1 57//57 65//65
f 1//1 65//65 73//73
f 1//1 73//73 81//81
f 1//1 81//81 89//89
f 1//1 89//89 97//97
f 1//1 97//97 105//105
f 1//1 105//105 113//113
f 1//1 113//113 121//121
f 1//1 121//121 129//129
f 1//1 129//129 137//137
f 1//1 137//137 145//145
f 1//1 145//145 153//153
f 1//1 153//153 161//161
f 1//1 161//161 341//341
f 1//1 341//341 509//509
f 1//1 509//509 510//510
f 1//1 510//510 2//2
f 2//2 6//6 12//12
f 2//2 10//10 6//6
f 2//2 12//12 20//20
f 2//2 18//18 10//10
f 2//2 20//20 28//28
f 2//2 26//26 18//18
f 2//2 28//28 36//36
f 2//2 34//34 26//26
f 2//2 36//36 38//38
f 2//2 38//38 4//4
f 2//2 42//42 34//34
f 2//2 50//50 42//42
f 2//2 58//58 50//50
f 2//2 66//66 58//58
f 2//2 74//74 66//66
f 2//2 82//82 74//74
f 2//2 90//90 82//82
f 2//2 98//98 90//90
f 2//2 106//106 98//98
f 2//2 114//114 106//106
f 2//2 122//122 114//114
f 2//2 130//130 122//122
f 2//2 138//138 130//130
f 2//2 146//146 138//138
f 2//2 154//154 146//146
f 2//2 162//162 154//154
f 2//2 342//342 162//162
f 2//2 510//510 342//342
f 3//3 4//4 511//511
f 3//3 7//7 13//13
f 3//3 13//13 21//21
f 3//3 15//15 7//7
f 3//3 21//21 29//29
f 3//3 23//23 15//15
f 3//3 29//29 37//37
f 3//3 31//31 23//23
f 3//3 39//39 31//31
f 3//3 47//47 39//39
f 3//3 55//55 47//47
f 3//3 63//63 55//55
f 3//3 71//71 63//63
f 3//3 79//79 71//71
f 3//3 87//87 79//79
f 3//3 95//95 87//87
f 3//3 103//103 95//95
f 3//3 111//111 103//103
f 3//3 119//119 111//111
f 3//3 127//127 119//119
f 3//3 135//135 127//127
f 3//3 143//143 135//135
f 3//3 151//151 143//143
f 3//3 159//159 151//151
f 3//3 167//167 159//159
f 3//3 511//511 167//167
f 4//4 8//8 16//16
f 4//4 14//14 8//8
f 4//4 16//16 24//24
f 4//4 22//22 14//14
f 4//4 24//24 32//32
f 4//4 30//30 22//22
f 4//4 32//32 40//40
f 4//4 38//38 30//30
f 4//4 40//40 48//48
f 4//4 48//48 56//56
f 4//4 56//56 64//64
f 4//4 64//64 72//72
f 4//4 72//72 80//80
f 4//4 80//80 88//88
f 4//4 88//88 96//96
f 4//4 96//96 104//104
f 4//4 104//104 112//112
f 4//4 112//112 120//120
f 4//4 120//120 128//128
f 4//4 128//128 136//136
f 4//4 136//136 144//144
f 4//4 144//144 152//152
f 4//4 152//152 160//160
f 4//4 160//160 168//168
f 4//4 168//168 512//512
f 4//4 512//512 511//511
f 5//5 6//6 10//10
f 5//5 10//10 9//9
f 5//5 11//11 12//12
f 5//5 12//12 6//6
f 7//7 8//8 14//14
f 7//7 14//14 13//13
f 7//7 15//15 16//16
f 7//7 16//16 8//8
f 9//9 10//10 17//17
f 10//10 18//18 17//17
f 11//11 19//19 12//12
f 12//12 19//19 20//20
f 13//13 14//14 21//21
f 14//14 22//22 21//21
f 15//15 23//23 16//16
f 16//16 23//23 24//24
f 17//17 18//18 26//26
f 17//17 26//26 25//25
f 19//19 27//27 20//20
f 20//20 27//27 28//28
f 21//21 22//22 30//30
f 21//21 30//30 29//29
f 23//23 31//31 24//24
f 24//24 31//31 32//32
f 25//25 26//26 34//34
f 25//25 34//34 33//33
f 27//27 35//35 36//36
f 27//27 36//36 28//28
f 29//29 30//30 38//38
f 29//29 38//38 37//37
f 31//31 39//39 40//40
f 31//31 40//40 32//32
f 33//33 34//34 42//42
f 33//33 42//42 41//41
f 35//35 37//37 45//45
f 35//35 43//43 44//44
f 35//35 44//44 36//36
f 35//35 45//45 43//43
f 36//36 44//44 46//46
f 36//36 46//46 38//38
f 37//37 38//38 46//46
f 37//37 46//46 45//45
f 39//39 47//47 48//48
f 39//39 48//48 40//40
f 41//41 42//42 50//50
f 41//41 50//50 49//49
f 43//43 45//45 53//53
f 43//43 51//51 44//44
f 43//43 53//53 51//51
f 44//44 51//51 52//52
f 44//44 52//52 54//54
f 44//44 54//54 46//46
f 45//45 46//46 54//54
f 45//45 54//54 53//53
f 47//47 55//55 48//48
f 48//48 55//55 56//56
f 49//49 50//50 58//58
f 49//49 58//58 57//57
f 51//51 53//53 59//59
f 51//51 59//59 60//60
f 51//51 60//60 52//52
f 52//52 60//60 54//54
f 53//53 54//54 62//62
f 53//53 61//61 59//59
f 53//53 62//62 61//61
f 54//54 60//60 62//62
f 55//55 63//63 64//64
f 55//55 64//64 56//56
f 57//57 58//58 66//66
f 57//57 66//66 65//65
f 59//59 61//61 69//69
f 59//59 67//67 60//60
f 59//59 69//69 67//67
f 60//60 67//67 68//68
f 60//60 68//68 70//70
f 60//60 70//70 62//62
f 61//61 62//62 70//70
f 61//61 70//70 69//69
f 63//63 71//71 64//64
f 64//64 71//71 72//72
f 65//65 66//66 74//74
f 65//65 74//74 73//73
f 67//67 69//69 75//75
f 67//67 75//75 76//76
f 67//67 76//76 68//68
f 68//68 76//76 70//70
f 69//69 70//70 78//78
f 69//69 77//77 75//75
f 69//69 78//78 77//77
f 70//70 76//76 78//78
f 71//71 79//79 80//80
f 71//71 80//80 72//72
f 73//73 74//74 82//82
f 73//73 82//82 81//81
f 75//75 77//77 85//85
f 75//75 83//83 76//76
f 75//75 85//85 83//83
f 76//76 83//83 84//84
f 76//76 84//84 86//86
f 76//76 86//86 78//78
f 77//77 78//78 86//86
f 77//77 86//86 85//85
f 79//79 87//87 80//80
f 80//80 87//87 88//88
f 81//81 82//82 89//89
f 82//82 90//90 89//89
f 83//83 85//85 93//93
f 83//83 91//91 84//84
f 83//83 93//93 91//91
f 84//84 91//91 92//92
f 84//84 92//92 94//94
f 84//84 94//94 86//86
f 85//85 86//86 93//93
f 86//86 94//94 93//93
f 87//87 95//95 88//88
f 88//88 95//95 96//96
f 89//89 90//90 98//98
f 89//89 98//98 97//97
f 91//91 93//93 99//99
f 91//91 99//99 100//100
f 91//91 100//100 92//92
f 92//92 100//100 94//94
f 93//93 94//94 102//102
f 93//93 101//101 99//99
f 93//93 102//102 101//101
f 94//94 100//100 102//102
f 95//95 103//103 104//104
f 95//95 104//104 96//96
f 97//97 98//98 106//106
f 97//97 106//106 105//105
f 99//99 101//101 109//109
f 99//99 107//107 100//100
f 99//99 109//109 107//107
f 100//100 107//107 108//108
f 100//100 108//108 110//110
f 100//100 110//110 102//102
f 101//101 102//102 110//110
f 101//101 110//110 109//109
f 103//103 111//111 104//104
f 104//104 111//111 112//112
f 105//105 106//106 114//114
f 105//105 114//114 113//113
f 107//107 109//109 117//117
f 107//107 115//115 108//108
f 107//107 117//117 115//115
f 108//108 115//115 116//116
f 108//108 116//116 118//118
f 108//108 118//118 110//110
f 109//109 110//110 118//118
f 109//109 118//118 117//117
f 111//111 119//119 112//112
f 112//112 119//119 120//120
f 113//113 114//114 122//122
f 113//113 122//122 121//121
f 115//115 117//117 125//125
f 115//115 123//123 116//116
f 115//115 125//125 123//123
f 116//116 123//123 124//124
f 116//116 124//124 126//126
f 116//116 126//126 118//118
f 117//117 118//118 126//126
f 117//117 126//126 125//125
f 119//119 127//127 120//120
f 120//120 127//127 128//128
f 121//121 122//122 130//130
f 121//121 130//130 129//129
f 123//123 125//125 131//131
f 123//123 131//131 124//124
f 124//124 131//131 132//132
f 124//124 132//132 126//126
f 125//125 126//126 134//134
f 125//125 133//133 131//131
f 125//125 134//134 133//133
f 126//126 132//132 134//134
f 127//127 135//135 128//128
f 128//128 135//135 136//136
f 129//129 130//130 138//138
f 129//129 138//138 137//137
f 131//131 133//133 141//141
f 131//131 139//139 132//132
f 131//131 141//141 139//139
f 132//132 139//139 140//140
f 132//132 140//140 142//142
f 132//132 142//142 134//134
f 133//133 134//134 142//142
f 133//133 142//142 141//141
f 135//135 143//143 136//136
f 136//136 143//143 144//144
f 137//137 138//138 145//145
f 138//138 146//146 145//145
f 139//139 141//141 147//147
f 139//139 147//147 140//140
f 140//140 147//147 148//148
f 140//140 148//148 142//142
f 141//141 142//142 149//149
f 141//141 149//149 147//147
f 142//142 148//148 150//150
f 142//142 150//150 149//149
f 143//143 151//151 144//144
f 144//144 151//151 152//152
f 145//145 146//146 153//153
f 146//146 154//154 153//153
f 147//147 149//149 155//155
f 147//147 155//155 148//148
f 148//148 155//155 156//156
f 148//148 156//156 150//150
f 149//149 150//150 157//157
f 149//149 157//157 155//155
f 150//150 156//156 158//158
f 150//150 158//158 157//157
f 151//151 159//159 152//152
f 152//152 159//159 160//160
f 153//153 154//154 162//162
f 153//153 162//162 161//161
f 155//155 157//157 163//163
f 155//155 163//163 156//156
f 156//156 163//163 164//164
f 156//156 164//164 158//158
f 157//157 158//158 166//166
f 157//157 165//165 163//163
f 157//157 166//166 165//165
f 158//158 164//164 166//166
f 159//159 167//167 160//160
f 160//160 167//167 168//168
f 161//161 162//162 170//170
f 161//161 169//169 341//341
f 161//161 170//170 169//169
f 162//162 342//342 170//170
f 163//163 165//165 171//171
f 163//163 171//171 164//164
f 164//164 171//171 172//172
f 164//164 172//172 166//166
f 165//165 166//166 174//174
f 165//165 173//173 171//171
f 165//165 174//174 173//173
f 166//166 172//172 174//174
f 167//167 175//175 168//168
f 167//167 511//511 175//175
f 168//168 175//175 176//176
f 168//168 176//176 512//512
f 169//169 170//170 177//177
f 169//169 177//177 333//333
f 169//169 333//333 341//341
f 170//170 178//178 177//177
f 170//170 334//334 178//178
f 170//170 342//342 334//334
f 171//171 173//173 179//179
f 171//171 179//179 180//180
f 171//171 180//180 172//172
f 172//172 180//180 174//174
f 173//173 174//174 181//181
f 173//173 181//181 179//179
f 174//174 180//180 182//182
f 174//174 182//182 181//181
f 175//175 183//183 184//184
f 175//175 184//184 176//176
f 175//175 339//339 183//183
f 175//175 347//347 339//339
f 175//175 511//511 347//347
f 176//176 184//184 340//340
f 176//176 340//340 348//348
f 176//176 348//348 512//512
f 177//177 178//178 186//186
f 177//177 185//185 325//325
f 177//177 186//186 185//185
f 177//177 325//325 333//333
f 178//178 326//326 186//186
f 178//178 334//334 326//326
f 179//179 181//181 189//189
f 179//179 187//187 180//180
f 179//179 189//189 187//187
f 180//180 187//187 188//188
f 180//180 188//188 190//190
f 180//180 190//190 182//182
f 181//181 182//182 190//190
f 181//181 190//190 189//189
f 183//183 191//191 184//184
f 183//183 331//331 191//191
f 183//183 339//339 331//331
f 184//184 191//191 192//192
f 184//184 192//192 332//332
f 184//184 332//332 340//340
f 185//185 186//186 194//194
f 185//185 193//193 317//317
f 185//185 194//194 193//193
f 185//185 317//317 325//325
f 186//186 318//318 194//194
f 186//186 326//326 318//318
f 187//187 189//189 197//197
f 187//187 195//195 188//188
f 187//187 197//197 195//195
f 188//188 195//195 196//196
f 188//188 196//196 198//198
f 188//188 198//198 190//190
f 189//189 190//190 198//198
f 189//189 198//198 197//197
f 191//191 199//199 192//192
f 191//191 323//323 199//199
f 191//191 331//331 323//323
f 192//192 199//199 200//200
f 192//192 200//200 324//324
f 192//192 324//324 332//332
f 193//193 194//194 202//202
f 193//193 201//201 309//309
f 193//193 202//202 201//201
f 193//193 309//309 317//317
f 194//194 310//310 202//202
f 194//194 318//318 310//310
f 195//195 197//197 203//203
f 195//195 203//203 196//196
f 196//196 203//203 204//204
f 196//196 204//204 198//198
f 197//197 198//198 206//206
f 197//197 205//205 203//203
f 197//197 206//206 205//205
f 198//198 204//204 206//206
f 199//199 207//207 200//200
f 199//199 315//315 207//207
f 199//199 323//323 315//315
f 200//200 207//207 208//208
f 200//200 208//208 316//316
f 200//200 316//316 324//324
f 201//201 202//202 210//210
f 201//201 209//209 301//301
f 201//201 210//210 209//209
f 201//201 301//301 309//309
f 202//202 302//302 210//210
f 202//202 310//310 302//302
f 203//203 205//205 211//211
f 203//203 211//211 212//212
f 203//203 212//212 204//204
f 204//204 212//212 206//206
f 205//205 206//206 214//214
f 205//205 213//213 211//211
f 205//205 214//214 213//213
f 206//206 212//212 214//214
f 207//207 215//215 216//216
f 207//207 216//216 208//208
f 207//207 307//307 215//215
f 207//207 315//315 307//307
f 208//208 216//216 308//308
f 208//208 308//308 316//316
f 209//209 210//210 217//217
f 209//209 217//217 293//293
f 209//209 293//293 301//301
f 210//210 218//218 217//217
f 210//210 294//294 218//218
f 210//210 302//302 294//294
f 211//211 213//213 219//219
f 211//211 219//219 220//220
f 211//211 220//220 212//212
f 212//212 220//220 214//214
f 213//213 214//214 221//221
f 213//213 221//221 219//219
f 214//214 220//220 222//222
f 214//214 222//222 221//221
f 215//215 223//223 224//224
f 215//215 224//224 216//216
f 215//215 299//299 223//223
f 215//215 307//307 299//299
f 216//216 224//224 300//300
f 216//216 300//300 308//308
f 217//217 218//218 226//226
f 217//217 225//225 285//285
f 217//217 226//226 225//225
f 217//217 285//285 293//293
f 218//218 286//286 226//226
f 218//218 294//294 286//286
f 219//219 221//221 289//289
f 219//219 227//227 220//220
f 219//219 287//287 227//227
f 219//219 289//289 287//287
f 220//220 227//227 228//228
f 220//220 228//228 288//288
f 220//220 288//288 290//290
f 220//220 290//290 222//222
f 221//221 222//222 230//230
f 221//221 229//229 289//289
f 221//221 230//230 229//229
f 222//222 290//290 230//230
f 223//223 231//231 224//224
f 223//223 291//291 231//231
f 223//223 299//299 291//291
f 224//224 231//231 232//232
f 224//224 232//232 292//292
f 224//224 292//292 300//300
f 225//225 226//226 234//234
f 225//225 233//233 277//277
f 225//225 234//234 233//233
f 225//225 277//277 285//285
f 226//226 278//278 234//234
f 226//226 286//286 278//278
f 227//227 235//235 228//228
f 227//227 279//279 235//235
f 227//227 287//287 279//279
f 228//228 235//235 236//236
f 228//228 236//236 280//280
f 228//228 280//280 288//288
f 229//229 230//230 238//238
f 229//229 237//237 281//281
f 229//229 238//238 237//237
f 229//229 281//281 289//289
f 230//230 282//282 238//238
f 230//230 290//290 282//282
f 231//231 239//239 232//232
f 231//231 283//283 239//239
f 231//231 291//291 283//283
f 232//232 239//239 240//240
f 232//232 240//240 284//284
f 232//232 284//284 292//292
f 233//233 234//234 241//241
f 233//233 241//241 269//269
f 233//233 269//269 277//277
f 234//234 242//242 241//241
f 234//234 270//270 242//242
f 234//234 278//278 270//270
f 235//235 243//243 236//236
f 235//235 271//271 243//243
f 235//235 279//279 271//271
f 236//236 243//243 244//244
f 236//236 244//244 272//272
f 236//236 272//272 280//280
f 237//237 238//238 245//245
f 237//237 245//245 273//273
f 237//237 273//273 281//281
f 238//238 246//246 245//245
f 238//238 274//274 246//246
f 238//238 282//282 274//274
f 239//239 247//247 240//240
f 239//239 275//275 247//247
f 239//239 283//283 275//275
f 240//240 247//247 248//248
f 240//240 248//248 276//276
f 240//240 276//276 284//284
f 241//241 242//242 250//250
f 241//241 249//249 261//261
f 241//241 250//250 249//249
f 241//241 261//261 269//269
f 242//242 262//262 250//250
f 242//242 270//270 262//262
f 243//243 251//251 244//244
f 243//243 263//263 251//251
f 243//243 271//271 263//263
f 244//244 251//251 252//252
f 244//244 252//252 264//264
f 244//244 264//264 272//272
f 245//245 246//246 254//254
f 245//245 253//253 265//265
f 245//245 254//254 253//253
f 245//245 265//265 273//273
f 246//246 266//266 254//254
f 246//246 274//274 266//266
f 247//247 255//255 248//248
f 247//247 267//267 255//255
f 247//247 275//275 267//267
f 248//248 255//255 256//256
f 248//248 256//256 268//268
f 248//248 268//268 276//276
f 249//249 250//250 252//252
f 249//249 251//251 257//257
f 249//249 252//252 251//251
f 249//249 257//257 261//261
f 250//250 258//258 252//252
f 250//250 262//262 258//258
f 251//251 263//263 257//257
f 252//252 258//258 264//264
f 253//253 254//254 256//256
f 253//253 255//255 259//259
f 253//253 256//256 255//255
f 253//253 259//259 265//265
f 254//254 260//260 256//256
f 254//254 266//266 260//260
f 255//255 267//267 259//259
f 256//256 260//260 268//268
f 257//257 258//258 262//262
f 257//257 262//262 261//261
f 257//257 263//263 264//264
f 257//257 264//264 258//258
f 259//259 260//260 266//266
f 259//259 266//266 265//265
f 259//259 267//267 268//268
f 259//259 268//268 260//260
f 261//261 262//262 269//269
f 262//262 270//270 269//269
f 263//263 271//271 264//264
f 264//264 271//271 272//272
f 265//265 266//266 273//273
f 266//266 274//274 273//273
f 267//267 275//275 268//268
f 268//268 275//275 276//276
f 269//269 270//270 278//278
f 269//269 278//278 277//277
f 271//271 279//279 272//272
f 272//272 279//279 280//280
f 273//273 274//274 282//282
f 273//273 282//282 281//281
f 275//275 283//283 276//276
f 276//276 283//283 284//284
f 277//277 278//278 286//286
f 277//277 286//286 285//285
f 279//279 287//287 288//288
f 279//279 288//288 280//280
f 281//281 282//282 290//290
f 281//281 290//290 289//289
f 283//283 291//291 292//292
f 283//283 292//292 284//284
f 285//285 286//286 294//294
f 285//285 294//294 293//293
f 287//287 289//289 297//297
f 287//287 295//295 296//296
f 287//287 296//296 288//288
f 287//287 297//297 295//295
f 288//288 296//296 298//298
f 288//288 298//298 290//290
f 289//289 290//290 298//298
f 289//289 298//298 297//297
f 291//291 299//299 300//300
f 291//291 300//300 292//292
f 293//293 294//294 302//302
f 293//293 302//302 301//301
f 295//295 297//297 303//303
f 295//295 303//303 296//296
f 296//296 303//303 304//304
f 296//296 304//304 298//298
f 297//297 298//298 306//306
f 297//297 305//305 303//303
f 297//297 306//306 305//305
f 298//298 304//304 306//306
f 299//299 307//307 300//300
f 300//300 307//307 308//308
f 301//301 302//302 310//310
f 301//301 310//310 309//309
f 303//303 305//305 311//311
f 303//303 311//311 312//312
f 303//303 312//312 304//304
f 304//304 312//312 306//306
f 305//305 306//306 314//314
f 305//305 313//313 311//311
f 305//305 314//314 313//313
f 306//306 312//312 314//314
f 307//307 315//315 316//316
f 307//307 316//316 308//308
f 309//309 310//310 318//318
f 309//309 318//318 317//317
f 311//311 313//313 319//319
f 311//311 319//319 312//312
f 312//312 319//319 320//320
f 312//312 320//320 314//314
f 313//313 314//314 322//322
f 313//313 321//321 319//319
f 313//313 322//322 321//321
f 314//314 320//320 322//322
f 315//315 323//323 316//316
f 316//316 323//323 324//324
f 317//317 318//318 326//326
f 317//317 326//326 325//325
f 319//319 321//321 327//327
f 319//319 327//327 328//328
f 319//319 328//328 320//320
f 320//320 328//328 322//322
f 321//321 322//322 330//330
f 321//321 329//329 327//327
f 321//321 330//330 329//329
f 322//322 328//328 330//330
f 323//323 331//331 332//332
f 323//323 332//332 324//324
f 325//325 326//326 334//334
f 325//325 334//334 333//333
f 327//327 329//329 337//337
f 327//327 335//335 328//328
f 327//327 337//337 335//335
f 328//328 335//335 336//336
f 328//328 336//336 338//338
f 328//328 338//338 330//330
f 329//329 330//330 338//338
f 329//329 338//338 337//337
f 331//331 339//339 332//332
f 332//332 339//339 340//340
f 333//333 334//334 341//341
f 334//334 342//342 341//341
f 335//335 337//337 345//345
f 335//335 343//343 336//336
f 335//335 345//345 343//343
f 336//336 343//343 344//344
f 336//336 344//344 346//346
f 336//336 346//346 338//338
f 337//337 338//338 345//345
f 338//338 346//346 345//345
f 339//339 347//347 340//340
f 340//340 347//347 348//348
f 341//341 342//342 350//350
f 341//341 349//349 509//509
f 341//341 350//350 349//349
f 342//342 510//510 350//350
f 343//343 345//345 351//351
f 343//343 351//351 352//352
f 343//343 352//352 344//344
f 344//344 352//352 346//346
f 345//345 346//346 354//354
f 345//345 353//353 351//351
f 345//345 354//354 353//353
f 346//346 352//352 354//354
f 347//347 355//355 356//356
f 347//347 356//356 348//348
f 347//347 511//511 355//355
f 348//348 356//356 512//512
f 349//349 350//350 358//358
f 349//349 357//357 509//509
f 349//349 358//358 357//357
f 350//350 510//510 358//358
f 351//351 353//353 361//361
f 351//351 359//359 352//352
f 351//351 361//361 359//359
f 352//352 359//359 360//360
f 352//352 360//360 362//362
f 352//352 362//362 354//354
f 353//353 354//354 362//362
f 353//353 362//362 361//361
f 355//355 363//363 356//356
f 355//355 511//511 363//363
f 356//356 363//363 364//364
f 356//356 364//364 512//512
f 357//357 358//358 366//366
f 357//357 365//365 509//509
f 357//357 366//366 365//365
f 358//358 510//510 366//366
f 359//359 361//361 369//369
f 359//359 367//367 360//360
f 359//359 369//369 367//367
f 360//360 367//367 368//368
f 360//360 368//368 370//370
f 360//360 370//370 362//362
f 361//361 362//362 370//370
f 361//361 370//370 369//369
f 363//363 371//371 364//364
f 363//363 511//511 371//371
f 364//364 371//371 372//372
f 364//364 372//372 512//512
f 365//365 366//366 374//374
f 365//365 373//373 509//509
f 365//365 374//374 373//373
f 366//366 510//510 374//374
f 367//367 369//369 375//375
f 367//367 375//375 368//368
f 368//368 375//375 376//376
f 368//368 376//376 370//370
f 369//369 370//370 378//378
f 369//369 377//377 375//375
f 369//369 378//378 377//377
f 370//370 376//376 378//378
f 371//371 379//379 372//372
f 371//371 511//511 379//379
f 372//372 379//379 380//380
f 372//372 380//380 512//512
f 373//373 374//374 382//382
f 373//373 381//381 509//509
f 373//373 382//382 381//381
f 374//374 510//510 382//382
f 375//375 377//377 383//383
f 375//375 383//383 376//376
f 376//376 383//383 384//384
f 376//376 384//384 378//378
f 377//377 378//378 386//386
f 377//377 385//385 383//383
f 377//377 386//386 385//385
f 378//378 384//384 386//386
f 379//379 387//387 380//380
f 379//379 511//511 387//387
f 380//380 387//387 388//388
f 380//380 388//388 512//512
f 381//381 382//382 390//390
f 381//381 389//389 509//509
f 381//381 390//390 389//389
f 382//382 510//510 390//390
f 383//383 385//385 393//393
f 383//383 391//391 384//384
f 383//383 393//393 391//391
f 384//384 391//391 392//392
f 384//384 392//392 394//394
f 384//384 394//394 386//386
f 385//385 386//386 394//394
f 385//385 394//394 393//393
f 387//387 395//395 388//388
f 387//387 511//511 395//395
f 388//388 395//395 396//396
f 388//388 396//396 512//512
f 389//389 390//390 397//397
f 389//389 397//397 509//509
f 390//390 398//398 397//397
f 390//390 510//510 398//398
f 391//391 393//393 401//401
f 391//391 399//399 392//392
f 391//391 401//401 399//399
f 392//392 399//399 400//400
f 392//392 400//400 402//402
f 392//392 402//402 394//394
f 393//393 394//394 401//401
f 394//394 402//402 401//401
f 395//395 403//403 396//396
f 395//395 511//511 403//403
f 396//396 403//403 404//404
f 396//396 404//404 512//512
f 397//397 398//398 405//405
f 397//397 405//405 509//509
f 398//398 406//406 405//405
f 398//398 510//510 406//406
f 399//399 401//401 407//407
f 399//399 407//407 400//400
f 400//400 407//407 408//408
f 400//400 408//408 402//402
f 401//401 402//402 409//409
f 401//401 409//409 407//407
f 402//402 408//408 410//410
f 402//402 410//410 409//409
f 403//403 411//411 404//404
f 403//403 511//511 411//411
f 404//404 411//411 412//412
f 404//404 412//412 512//512
f 405//405 406//406 414//414
f 405//405 413//413 509//509
f 405//405 414//414 413//413
f 406//406 510//510 414//414
f 407//407 409//409 417//417
f 407//407 415//415 408//408
f 407//407 417//417 415//415
f 408//408 415//415 416//416
f 408//408 416//416 418//418
f 408//408 418//418 410//410
f 409//409 410//410 418//418
f 409//409 418//418 417//417
f 411//411 419//419 412//412
f 411//411 511//511 419//419
f 412//412 419//419 420//420
f 412//412 420//420 512//512
f 413//413 414//414 422//422
f 413//413 421//421 509//509
f 413//413 422//422 421//421
f 414//414 510//510 422//422
f 415//415 417//417 425//425
f 415//415 423//423 416//416
f 415//415 425//425 423//423
f 416//416 423//423 424//424
f 416//416 424//424 426//426
f 416//416 426//426 418//418
f 417//417 418//418 426//426
f 417//417 426//426 425//425
f 419//419 427//427 420//420
f 419//419 511//511 427//427
f 420//420 427//427 428//428
f 420//420 428//428 512//512
f 421//421 422//422 429//429
f 421//421 429//429 509//509
f 422//422 430//430 429//429
f 422//422 510//510 430//430
f 423//423 425//425 433//433
f 423//423 431//431 432//432
f 423//423 432//432 424//424
f 423//423 433//433 431//431
f 424//424 432//432 434//434
f 424//424 434//434 426//426
f 425//425 426//426 433//433
f 426//426 434//434 433//433
f 427//427 435//435 436//436
f 427//427 436//436 428//428
f 427//427 511//511 435//435
f 428//428 436//436 512//512
f 429//429 430//430 438//438
f 429//429 437//437 509//509
f 429//429 438//438 437//437
f 430//430 510//510 438//438
f 431//431 433//433 441//441
f 431//431 439//439 432//432
f 431//431 441//441 439//439
f 432//432 439//439 440//440
f 432//432 440//440 442//442
f 432//432 442//442 434//434
f 433//433 434//434 442//442
f 433//433 442//442 441//441
f 435//435 443//443 436//436
f 435//435 511//511 443//443
f 436//436 443//443 444//444
f 436//436 444//444 512//512
f 437//437 438//438 446//446
f 437//437 445//445 509//509
f 437//437 446//446 445//445
f 438//438 510//510 446//446
f 439//439 441//441 449//449
f 439//439 447//447 440//440
f 439//439 449//449 447//447
f 440//440 447//447 448//448
f 440//440 448//448 450//450
f 440//440 450//450 442//442
f 441//441 442//442 450//450
f 441//441 450//450 449//449
f 443//443 451//451 444//444
f 443//443 511//511 451//451
f 444//444 451//451 452//452
f 444//444 452//452 512//512
f 445//445 446//446 454//454
f 445//445 453//453 509//509
f 445//445 454//454 453//453
f 446//446 510//510 454//454
f 447//447 449//449 455//455
f 447//447 455//455 448//448
f 448//448 455//455 456//456
f 448//448 456//456 450//450
f 449//449 450//450 458//458
f 449//449 457//457 455//455
f 449//449 458//458 457//457
f 450//450 456//456 458//458
f 451//451 459//459 452//452
f 451//451 511//511 459//459
f 452//452 459//459 460//460
f 452//452 460//460 512//512
f 453//453 454//454 462//462
f 453//453 461//461 509//509
f 453//453 462//462 461//461
f 454//454 510//510 462//462
f 455//455 457//457 463//463
f 455//455 463//463 464//464
f 455//455 464//464 456//456
f 456//456 464//464 458//458
f 457//457 458//458 466//466
f 457//457 465//465 463//463
f 457//457 466//466 465//465
f 458//458 464//464 466//466
f 459//459 467//467 468//468
f 459//459 468//468 460//460
f 459//459 511//511 467//467
f 460//460 468//468 512//512
f 461//461 462//462 469//469
f 461//461 469//469 509//509
f 462//462 470//470 469//469
f 462//462 510//510 470//470
f 463//463 465//465 473//473
f 463//463 471//471 472//472
f 463//463 472//472 464//464
f 463//463 473//473 471//471
f 464//464 472//472 474//474
f 464//464 474//474 466//466
f 465//465 466//466 473//473
f 466//466 474//474 473//473
f 467//467 475//475 476//476
f 467//467 476//476 468//468
f 467//467 511//511 475//475
f 468//468 476//476 512//512
f 469//469 470//470 478//478
f 469//469 477//477 509//509
f 469//469 478//478 477//477
f 470//470 510//510 478//478
f 471//471 473//473 481//481
f 471//471 479//479 472//472
f 471//471 481//481 479//479
f 472//472 479//479 480//480
f 472//472 480//480 482//482
f 472//472 482//482 474//474
f 473//473 474//474 482//482
f 473//473 482//482 481//481
f 475//475 483//483 476//476
f 475//475 511//511 483//483
f 476//476 483//483 484//484
f 476//476 484//484 512//512
f 477//477 478//478 486//486
f 477//477 485//485 509//509
f 477//477 486//486 485//485
f 478//478 510//510 486//486
f 479//479 481//481 509//509
f 479//479 487//487 480//480
f 479//479 509//509 487//487
f 480//480 487//487 488//488
f 480//480 488//488 510//510
f 480//480 510//510 482//482
f 481//481 482//482 490//490
f 481//481 489//489 511//511
f 481//481 490//490 489//489
f 481//481 511//511 509//509
f 482//482 510//510 512//512
f 482//482 512//512 490//490
f 483//483 491//491 484//484
f 483//483 511//511 491//491
f 484//484 491//491 492//492
f 484//484 492//492 512//512
f 485//485 486//486 493//493
f 485//485 493//493 509//509
f 486//486 494//494 493//493
f 486//486 510//510 494//494
f 487//487 495//495 488//488
f 487//487 509//509 495//495
f 488//488 495//495 496//496
f 488//488 496//496 510//510
f 489//489 490//490 497//497
f 489//489 497//497 511//511
f 490//490 498//498 497//497
f 490//490 512//512 498//498
f 491//491 499//499 492//492
f 491//491 511//511 499//499
f 492//492 499//499 500//500
f 492//492 500//500 512//512
f 493//493 494//494 502//502
f 493//493 501//501 509//509
f 493//493 502//502 501//501
f 494//494 510//510 502//502
f 495//495 503//503 496//496
f 495//495 509//509 503//503
f 496//496 503//503 504//504
f 496//496 504//504 510//510
f 497//497 498//498 506//506
f 497//497 505//505 511//511
f 497//497 506//506 505//505
f 498//498 512//512 506//506
f 499//499 507//507 500//500
f 499//499 511//511 507//507
f 500//500 507//507 508//508
f 500//500 508//508 512//512
f 501//501 502//502 504//504
f 501//501 503//503 509//509
f 501//501 504//504 503//503
f 502//502 510//510 504//504
f 505//505 506//506 508//508
f 505//505 507//507 511//511
f 505//505 508//508 507//507
f 506//506 512//512 508//508
f 509//509 511//511 510//510
f 510//510 511//511 512//512
