ISO-10303-21;
HEADER;

/* File generated by Shapr3D Version 3.0 */

FILE_DESCRIPTION(('HOOPS Exchange Step'),'2;1');

FILE_NAME('/Users/userzero/Library/Containers/com.shapr3d.shapr/Data/tmp/export/temp_export',
'1970-01-01T00:00:00',
('userzero'),
('Shapr3D Limited'),
'HOOPS Exchange 2023.2',
'Shapr3D',
'Authorized');

FILE_SCHEMA( ('AUTOMOTIVE_DESIGN { 1 0 10303 214 1 1 1 1 }') );

ENDSEC;

DATA;
#3=(NAMED_UNIT(*)PLANE_ANGLE_UNIT()SI_UNIT($,.RADIAN.));
#4=PLANE_ANGLE_MEASURE_WITH_UNIT(PLANE_ANGLE_MEASURE(0.0174532925),#3);
#5=(CONVERSION_BASED_UNIT('DEGREE',#4)NAMED_UNIT(#6)PLANE_ANGLE_UNIT());
#6=DIMENSIONAL_EXPONENTS(0.,0.,0.,0.,0.,0.,0.);
#7=(NAMED_UNIT(*)SI_UNIT($,.STERADIAN.)SOLID_ANGLE_UNIT());
#8=(LENGTH_UNIT()NAMED_UNIT(*)SI_UNIT(.MILLI.,.METRE.));
#9=UNCERTAINTY_MEASURE_WITH_UNIT(LENGTH_MEASURE(1.000000E-05),#8,'DISTANCE_ACCURACY_VALUE','Maximum Tolerance applied to model');
#10=(GEOMETRIC_REPRESENTATION_CONTEXT(3)GLOBAL_UNCERTAINTY_ASSIGNED_CONTEXT((#9))GLOBAL_UNIT_ASSIGNED_CONTEXT((#8,#5,#7))REPRESENTATION_CONTEXT('','root'));
#12=CARTESIAN_POINT('',(0.,0.,0.));
#13=DIRECTION('',(0.,0.,1.));
#14=DIRECTION('',(1.,0.,0.));
#15=AXIS2_PLACEMENT_3D('TS3D_PRODUCT_CSYS',#12,#13,#14);
#27=CARTESIAN_POINT('',(12.,13.,14.1));
#28=DIRECTION('',(0.,0.,-1.));
#29=DIRECTION('',(-1.,0.,0.));
#30=AXIS2_PLACEMENT_3D('',#27,#28,#29);
#31=CYLINDRICAL_SURFACE('',#30,6.);
#32=CARTESIAN_POINT('',(12.,19.,14.1));
#33=VERTEX_POINT('',#32);
#34=CARTESIAN_POINT('',(12.,19.,10.9));
#35=VERTEX_POINT('',#34);
#36=CARTESIAN_POINT('',(12.,19.,14.1));
#37=DIRECTION('',(0.,0.,-1.));
#38=VECTOR('',#37,3.2);
#39=LINE('',#36,#38);
#40=EDGE_CURVE('',#33,#35,#39,.T.);
#41=ORIENTED_EDGE('',*,*,#40,.F.);
#42=CARTESIAN_POINT('',(18.,13.,14.1));
#43=VERTEX_POINT('',#42);
#44=CARTESIAN_POINT('',(12.,13.,14.1));
#45=DIRECTION('',(-0.,-0.,1.));
#46=DIRECTION('',(-1.,0.,0.));
#47=AXIS2_PLACEMENT_3D('',#44,#45,#46);
#48=CIRCLE('',#47,6.);
#49=EDGE_CURVE('',#43,#33,#48,.T.);
#50=ORIENTED_EDGE('',*,*,#49,.F.);
#51=CARTESIAN_POINT('',(18.,13.,10.9));
#52=VERTEX_POINT('',#51);
#53=CARTESIAN_POINT('',(18.,13.,10.9));
#54=DIRECTION('',(-0.,-0.,1.));
#55=VECTOR('',#54,3.2);
#56=LINE('',#53,#55);
#57=EDGE_CURVE('',#52,#43,#56,.T.);
#58=ORIENTED_EDGE('',*,*,#57,.F.);
#59=CARTESIAN_POINT('',(12.,13.,10.9));
#60=DIRECTION('',(-0.,-0.,-1.));
#61=DIRECTION('',(1.,0.,-0.));
#62=AXIS2_PLACEMENT_3D('',#59,#60,#61);
#63=CIRCLE('',#62,6.);
#64=EDGE_CURVE('',#35,#52,#63,.T.);
#65=ORIENTED_EDGE('',*,*,#64,.F.);
#66=EDGE_LOOP('',(#41,#50,#58,#65));
#67=FACE_BOUND('',#66,.T.);
#68=ADVANCED_FACE('',(#67),#31,.T.);
#69=CARTESIAN_POINT('',(18.,13.8,14.1));
#70=DIRECTION('',(0.,0.,-1.));
#71=DIRECTION('',(-1.,0.,0.));
#72=AXIS2_PLACEMENT_3D('',#69,#70,#71);
#73=PLANE('',#72);
#74=ORIENTED_EDGE('',*,*,#49,.T.);
#75=CARTESIAN_POINT('',(-17.192393401,19.,14.1));
#76=VERTEX_POINT('',#75);
#77=CARTESIAN_POINT('',(-17.192393401,19.,14.1));
#78=DIRECTION('',(1.,0.,-0.));
#79=VECTOR('',#78,29.192393401);
#80=LINE('',#77,#79);
#81=EDGE_CURVE('',#76,#33,#80,.T.);
#82=ORIENTED_EDGE('',*,*,#81,.F.);
#83=CARTESIAN_POINT('',(-17.192393401,23.,14.1));
#84=VERTEX_POINT('',#83);
#85=CARTESIAN_POINT('',(-17.192393401,19.,14.1));
#86=DIRECTION('',(0.,1.,0.));
#87=VECTOR('',#86,4.);
#88=LINE('',#85,#87);
#89=EDGE_CURVE('',#76,#84,#88,.T.);
#90=ORIENTED_EDGE('',*,*,#89,.T.);
#91=CARTESIAN_POINT('',(16.,23.,14.1));
#92=VERTEX_POINT('',#91);
#93=CARTESIAN_POINT('',(16.,23.,14.1));
#94=DIRECTION('',(-1.,0.,0.));
#95=VECTOR('',#94,33.192393401);
#96=LINE('',#93,#95);
#97=EDGE_CURVE('',#92,#84,#96,.T.);
#98=ORIENTED_EDGE('',*,*,#97,.F.);
#99=CARTESIAN_POINT('',(18.,21.,14.1));
#100=VERTEX_POINT('',#99);
#101=CARTESIAN_POINT('',(16.,21.,14.1));
#102=DIRECTION('',(0.,0.,-1.));
#103=DIRECTION('',(-1.,0.,0.));
#104=AXIS2_PLACEMENT_3D('',#101,#102,#103);
#105=CIRCLE('',#104,2.);
#106=EDGE_CURVE('',#92,#100,#105,.T.);
#107=ORIENTED_EDGE('',*,*,#106,.T.);
#108=CARTESIAN_POINT('',(18.,13.,14.1));
#109=DIRECTION('',(0.,1.,0.));
#110=VECTOR('',#109,8.);
#111=LINE('',#108,#110);
#112=EDGE_CURVE('',#43,#100,#111,.T.);
#113=ORIENTED_EDGE('',*,*,#112,.F.);
#114=EDGE_LOOP('',(#74,#82,#90,#98,#107,#113));
#115=FACE_BOUND('',#114,.T.);
#116=ADVANCED_FACE('',(#115),#73,.T.);
#117=CARTESIAN_POINT('',(-2.25,19.,14.1));
#118=DIRECTION('',(0.,1.,0.));
#119=DIRECTION('',(0.,0.,1.));
#120=AXIS2_PLACEMENT_3D('',#117,#118,#119);
#121=PLANE('',#120);
#122=CARTESIAN_POINT('',(-17.192393401,19.,10.9));
#123=VERTEX_POINT('',#122);
#124=CARTESIAN_POINT('',(-31.,19.,12.5));
#125=DIRECTION('',(0.,1.,0.));
#126=DIRECTION('',(0.,-0.,1.));
#127=AXIS2_PLACEMENT_3D('',#124,#125,#126);
#128=CIRCLE('',#127,13.9);
#129=EDGE_CURVE('',#76,#123,#128,.T.);
#130=ORIENTED_EDGE('',*,*,#129,.F.);
#131=ORIENTED_EDGE('',*,*,#81,.T.);
#132=ORIENTED_EDGE('',*,*,#40,.T.);
#133=CARTESIAN_POINT('',(-17.192393401,19.,10.9));
#134=DIRECTION('',(1.,0.,-0.));
#135=VECTOR('',#134,29.192393401);
#136=LINE('',#133,#135);
#137=EDGE_CURVE('',#123,#35,#136,.T.);
#138=ORIENTED_EDGE('',*,*,#137,.F.);
#139=EDGE_LOOP('',(#130,#131,#132,#138));
#140=FACE_BOUND('',#139,.T.);
#141=ADVANCED_FACE('',(#140),#121,.T.);
#142=CARTESIAN_POINT('',(-31.,11.3,12.5));
#143=DIRECTION('',(0.,1.,0.));
#144=DIRECTION('',(0.,-0.,1.));
#145=AXIS2_PLACEMENT_3D('',#142,#143,#144);
#146=CYLINDRICAL_SURFACE('',#145,13.9);
#147=CARTESIAN_POINT('',(-31.,23.,26.4));
#148=VERTEX_POINT('',#147);
#149=CARTESIAN_POINT('',(-31.,19.,26.4));
#150=VERTEX_POINT('',#149);
#151=CARTESIAN_POINT('',(-31.,23.,26.4));
#152=DIRECTION('',(-0.,-1.,-0.));
#153=VECTOR('',#152,4.);
#154=LINE('',#151,#153);
#155=EDGE_CURVE('',#148,#150,#154,.T.);
#156=ORIENTED_EDGE('',*,*,#155,.F.);
#157=CARTESIAN_POINT('',(-31.,23.,12.5));
#158=DIRECTION('',(0.,1.,0.));
#159=DIRECTION('',(0.,-0.,1.));
#160=AXIS2_PLACEMENT_3D('',#157,#158,#159);
#161=CIRCLE('',#160,13.9);
#162=EDGE_CURVE('',#148,#84,#161,.T.);
#163=ORIENTED_EDGE('',*,*,#162,.T.);
#164=ORIENTED_EDGE('',*,*,#89,.F.);
#165=CARTESIAN_POINT('',(-31.,19.,12.5));
#166=DIRECTION('',(0.,-1.,0.));
#167=DIRECTION('',(0.,0.,-1.));
#168=AXIS2_PLACEMENT_3D('',#165,#166,#167);
#169=CIRCLE('',#168,13.9);
#170=EDGE_CURVE('',#76,#150,#169,.T.);
#171=ORIENTED_EDGE('',*,*,#170,.T.);
#172=EDGE_LOOP('',(#156,#163,#164,#171));
#173=FACE_BOUND('',#172,.T.);
#174=ADVANCED_FACE('',(#173),#146,.F.);
#175=CARTESIAN_POINT('',(-6.5,14.,10.));
#176=DIRECTION('',(0.,-1.,0.));
#177=DIRECTION('',(0.,0.,-1.));
#178=AXIS2_PLACEMENT_3D('',#175,#176,#177);
#179=PLANE('',#178);
#180=CARTESIAN_POINT('',(13.,14.,-4.));
#181=VERTEX_POINT('',#180);
#182=CARTESIAN_POINT('',(13.,14.,17.));
#183=VERTEX_POINT('',#182);
#184=CARTESIAN_POINT('',(13.,14.,-4.));
#185=DIRECTION('',(-0.,-0.,1.));
#186=VECTOR('',#185,21.);
#187=LINE('',#184,#186);
#188=EDGE_CURVE('',#181,#183,#187,.T.);
#189=ORIENTED_EDGE('',*,*,#188,.T.);
#190=CARTESIAN_POINT('',(-15.125492134,14.,17.));
#191=VERTEX_POINT('',#190);
#192=CARTESIAN_POINT('',(13.,14.,17.));
#193=DIRECTION('',(-1.,0.,0.));
#194=VECTOR('',#193,28.125492134);
#195=LINE('',#192,#194);
#196=EDGE_CURVE('',#183,#191,#195,.T.);
#197=ORIENTED_EDGE('',*,*,#196,.T.);
#198=CARTESIAN_POINT('',(-31.,14.,29.));
#199=VERTEX_POINT('',#198);
#200=CARTESIAN_POINT('',(-31.,14.,12.5));
#201=DIRECTION('',(0.,-1.,0.));
#202=DIRECTION('',(0.,0.,-1.));
#203=AXIS2_PLACEMENT_3D('',#200,#201,#202);
#204=CIRCLE('',#203,16.5);
#205=EDGE_CURVE('',#191,#199,#204,.T.);
#206=ORIENTED_EDGE('',*,*,#205,.T.);
#207=CARTESIAN_POINT('',(-47.5,14.,12.5));
#208=VERTEX_POINT('',#207);
#209=CARTESIAN_POINT('',(-31.,14.,12.5));
#210=DIRECTION('',(0.,-1.,0.));
#211=DIRECTION('',(0.,0.,-1.));
#212=AXIS2_PLACEMENT_3D('',#209,#210,#211);
#213=CIRCLE('',#212,16.5);
#214=EDGE_CURVE('',#199,#208,#213,.T.);
#215=ORIENTED_EDGE('',*,*,#214,.T.);
#216=CARTESIAN_POINT('',(-47.5,14.,5.414213562));
#217=VERTEX_POINT('',#216);
#218=CARTESIAN_POINT('',(-47.5,14.,12.5));
#219=DIRECTION('',(0.,0.,-1.));
#220=VECTOR('',#219,7.085786438);
#221=LINE('',#218,#220);
#222=EDGE_CURVE('',#208,#217,#221,.T.);
#223=ORIENTED_EDGE('',*,*,#222,.T.);
#224=CARTESIAN_POINT('',(-38.085786438,14.,-4.));
#225=VERTEX_POINT('',#224);
#226=CARTESIAN_POINT('',(-47.5,14.,5.414213562));
#227=DIRECTION('',(0.707106781,0.,-0.707106781));
#228=VECTOR('',#227,13.313708499);
#229=LINE('',#226,#228);
#230=EDGE_CURVE('',#217,#225,#229,.T.);
#231=ORIENTED_EDGE('',*,*,#230,.T.);
#232=CARTESIAN_POINT('',(-38.085786438,14.,-4.));
#233=DIRECTION('',(1.,0.,-0.));
#234=VECTOR('',#233,51.085786438);
#235=LINE('',#232,#234);
#236=EDGE_CURVE('',#225,#181,#235,.T.);
#237=ORIENTED_EDGE('',*,*,#236,.T.);
#238=EDGE_LOOP('',(#189,#197,#206,#215,#223,#231,#237));
#239=FACE_BOUND('',#238,.T.);
#240=ADVANCED_FACE('',(#239),#179,.T.);
#241=CARTESIAN_POINT('',(14.,7.5,10.));
#242=DIRECTION('',(-1.,0.,0.));
#243=DIRECTION('',(0.,0.,1.));
#244=AXIS2_PLACEMENT_3D('',#241,#242,#243);
#245=PLANE('',#244);
#246=CARTESIAN_POINT('',(14.,0.082778356,-4.));
#247=VERTEX_POINT('',#246);
#248=CARTESIAN_POINT('',(14.,0.082778356,17.));
#249=VERTEX_POINT('',#248);
#250=CARTESIAN_POINT('',(14.,0.082778356,-4.));
#251=DIRECTION('',(0.,0.,1.));
#252=VECTOR('',#251,21.);
#253=LINE('',#250,#252);
#254=EDGE_CURVE('',#247,#249,#253,.T.);
#255=ORIENTED_EDGE('',*,*,#254,.T.);
#256=CARTESIAN_POINT('',(14.,13.,17.));
#257=VERTEX_POINT('',#256);
#258=CARTESIAN_POINT('',(14.,0.082778356,17.));
#259=DIRECTION('',(0.,1.,0.));
#260=VECTOR('',#259,12.917221644);
#261=LINE('',#258,#260);
#262=EDGE_CURVE('',#249,#257,#261,.T.);
#263=ORIENTED_EDGE('',*,*,#262,.T.);
#264=CARTESIAN_POINT('',(14.,13.,-4.));
#265=VERTEX_POINT('',#264);
#266=CARTESIAN_POINT('',(14.,13.,17.));
#267=DIRECTION('',(0.,0.,-1.));
#268=VECTOR('',#267,21.);
#269=LINE('',#266,#268);
#270=EDGE_CURVE('',#257,#265,#269,.T.);
#271=ORIENTED_EDGE('',*,*,#270,.T.);
#272=CARTESIAN_POINT('',(14.,13.,-4.));
#273=DIRECTION('',(0.,-1.,0.));
#274=VECTOR('',#273,12.917221644);
#275=LINE('',#272,#274);
#276=EDGE_CURVE('',#265,#247,#275,.T.);
#277=ORIENTED_EDGE('',*,*,#276,.T.);
#278=EDGE_LOOP('',(#255,#263,#271,#277));
#279=FACE_BOUND('',#278,.T.);
#280=ADVANCED_FACE('',(#279),#245,.T.);
#281=CARTESIAN_POINT('',(18.,13.8,10.9));
#282=DIRECTION('',(0.,0.,1.));
#283=DIRECTION('',(1.,0.,0.));
#284=AXIS2_PLACEMENT_3D('',#281,#282,#283);
#285=PLANE('',#284);
#286=CARTESIAN_POINT('',(-17.192393401,23.,10.9));
#287=VERTEX_POINT('',#286);
#288=CARTESIAN_POINT('',(-17.192393401,19.,10.9));
#289=DIRECTION('',(0.,1.,0.));
#290=VECTOR('',#289,4.);
#291=LINE('',#288,#290);
#292=EDGE_CURVE('',#123,#287,#291,.T.);
#293=ORIENTED_EDGE('',*,*,#292,.F.);
#294=ORIENTED_EDGE('',*,*,#137,.T.);
#295=ORIENTED_EDGE('',*,*,#64,.T.);
#296=CARTESIAN_POINT('',(18.,21.,10.9));
#297=VERTEX_POINT('',#296);
#298=CARTESIAN_POINT('',(18.,13.,10.9));
#299=DIRECTION('',(0.,1.,0.));
#300=VECTOR('',#299,8.);
#301=LINE('',#298,#300);
#302=EDGE_CURVE('',#52,#297,#301,.T.);
#303=ORIENTED_EDGE('',*,*,#302,.T.);
#304=CARTESIAN_POINT('',(16.,23.,10.9));
#305=VERTEX_POINT('',#304);
#306=CARTESIAN_POINT('',(16.,21.,10.9));
#307=DIRECTION('',(-0.,-0.,-1.));
#308=DIRECTION('',(1.,0.,-0.));
#309=AXIS2_PLACEMENT_3D('',#306,#307,#308);
#310=CIRCLE('',#309,2.);
#311=EDGE_CURVE('',#305,#297,#310,.T.);
#312=ORIENTED_EDGE('',*,*,#311,.F.);
#313=CARTESIAN_POINT('',(-17.192393401,23.,10.9));
#314=DIRECTION('',(1.,0.,-0.));
#315=VECTOR('',#314,33.192393401);
#316=LINE('',#313,#315);
#317=EDGE_CURVE('',#287,#305,#316,.T.);
#318=ORIENTED_EDGE('',*,*,#317,.F.);
#319=EDGE_LOOP('',(#293,#294,#295,#303,#312,#318));
#320=FACE_BOUND('',#319,.T.);
#321=ADVANCED_FACE('',(#320),#285,.T.);
#322=CARTESIAN_POINT('',(16.,21.,10.));
#323=DIRECTION('',(0.,0.,1.));
#324=DIRECTION('',(1.,0.,-0.));
#325=AXIS2_PLACEMENT_3D('',#322,#323,#324);
#326=CYLINDRICAL_SURFACE('',#325,2.);
#327=CARTESIAN_POINT('',(16.,23.,17.));
#328=VERTEX_POINT('',#327);
#329=CARTESIAN_POINT('',(16.,23.,17.));
#330=DIRECTION('',(-0.,-0.,-1.));
#331=VECTOR('',#330,2.9);
#332=LINE('',#329,#331);
#333=EDGE_CURVE('',#328,#92,#332,.T.);
#334=ORIENTED_EDGE('',*,*,#333,.F.);
#335=CARTESIAN_POINT('',(18.,21.,17.));
#336=VERTEX_POINT('',#335);
#337=CARTESIAN_POINT('',(16.,21.,17.));
#338=DIRECTION('',(-0.,-0.,-1.));
#339=DIRECTION('',(1.,0.,-0.));
#340=AXIS2_PLACEMENT_3D('',#337,#338,#339);
#341=CIRCLE('',#340,2.);
#342=EDGE_CURVE('',#328,#336,#341,.T.);
#343=ORIENTED_EDGE('',*,*,#342,.T.);
#344=CARTESIAN_POINT('',(18.,21.,14.1));
#345=DIRECTION('',(0.,0.,1.));
#346=VECTOR('',#345,2.9);
#347=LINE('',#344,#346);
#348=EDGE_CURVE('',#100,#336,#347,.T.);
#349=ORIENTED_EDGE('',*,*,#348,.F.);
#350=ORIENTED_EDGE('',*,*,#106,.F.);
#351=EDGE_LOOP('',(#334,#343,#349,#350));
#352=FACE_BOUND('',#351,.T.);
#353=ADVANCED_FACE('',(#352),#326,.T.);
#354=CARTESIAN_POINT('',(18.,8.5,10.));
#355=DIRECTION('',(1.,0.,0.));
#356=DIRECTION('',(0.,0.,-1.));
#357=AXIS2_PLACEMENT_3D('',#354,#355,#356);
#358=PLANE('',#357);
#359=ORIENTED_EDGE('',*,*,#348,.T.);
#360=CARTESIAN_POINT('',(18.,0.444168158,17.));
#361=VERTEX_POINT('',#360);
#362=CARTESIAN_POINT('',(18.,21.,17.));
#363=DIRECTION('',(0.,-1.,0.));
#364=VECTOR('',#363,20.555831842);
#365=LINE('',#362,#364);
#366=EDGE_CURVE('',#336,#361,#365,.T.);
#367=ORIENTED_EDGE('',*,*,#366,.T.);
#368=CARTESIAN_POINT('',(18.,0.444168158,-4.));
#369=VERTEX_POINT('',#368);
#370=CARTESIAN_POINT('',(18.,0.444168158,17.));
#371=DIRECTION('',(-0.,-0.,-1.));
#372=VECTOR('',#371,21.);
#373=LINE('',#370,#372);
#374=EDGE_CURVE('',#361,#369,#373,.T.);
#375=ORIENTED_EDGE('',*,*,#374,.T.);
#376=CARTESIAN_POINT('',(18.,21.,-4.));
#377=VERTEX_POINT('',#376);
#378=CARTESIAN_POINT('',(18.,0.444168158,-4.));
#379=DIRECTION('',(0.,1.,0.));
#380=VECTOR('',#379,20.555831842);
#381=LINE('',#378,#380);
#382=EDGE_CURVE('',#369,#377,#381,.T.);
#383=ORIENTED_EDGE('',*,*,#382,.T.);
#384=CARTESIAN_POINT('',(18.,21.,-4.));
#385=DIRECTION('',(0.,0.,1.));
#386=VECTOR('',#385,14.9);
#387=LINE('',#384,#386);
#388=EDGE_CURVE('',#377,#297,#387,.T.);
#389=ORIENTED_EDGE('',*,*,#388,.T.);
#390=ORIENTED_EDGE('',*,*,#302,.F.);
#391=ORIENTED_EDGE('',*,*,#57,.T.);
#392=ORIENTED_EDGE('',*,*,#112,.T.);
#393=EDGE_LOOP('',(#359,#367,#375,#383,#389,#390,#391,#392));
#394=FACE_BOUND('',#393,.T.);
#395=ADVANCED_FACE('',(#394),#358,.T.);
#396=CARTESIAN_POINT('',(-6.5,23.,10.));
#397=DIRECTION('',(0.,1.,0.));
#398=DIRECTION('',(0.,0.,1.));
#399=AXIS2_PLACEMENT_3D('',#396,#397,#398);
#400=PLANE('',#399);
#401=CARTESIAN_POINT('',(-47.5,23.,12.5));
#402=VERTEX_POINT('',#401);
#403=CARTESIAN_POINT('',(-15.125492134,23.,17.));
#404=VERTEX_POINT('',#403);
#405=CARTESIAN_POINT('',(-31.,23.,12.5));
#406=DIRECTION('',(0.,1.,0.));
#407=DIRECTION('',(0.,-0.,1.));
#408=AXIS2_PLACEMENT_3D('',#405,#406,#407);
#409=CIRCLE('',#408,16.5);
#410=EDGE_CURVE('',#402,#404,#409,.T.);
#411=ORIENTED_EDGE('',*,*,#410,.T.);
#412=CARTESIAN_POINT('',(-15.125492134,23.,17.));
#413=DIRECTION('',(1.,0.,-0.));
#414=VECTOR('',#413,31.125492134);
#415=LINE('',#412,#414);
#416=EDGE_CURVE('',#404,#328,#415,.T.);
#417=ORIENTED_EDGE('',*,*,#416,.T.);
#418=ORIENTED_EDGE('',*,*,#333,.T.);
#419=ORIENTED_EDGE('',*,*,#97,.T.);
#420=ORIENTED_EDGE('',*,*,#162,.F.);
#421=CARTESIAN_POINT('',(-31.,23.,12.5));
#422=DIRECTION('',(0.,1.,0.));
#423=DIRECTION('',(0.,-0.,1.));
#424=AXIS2_PLACEMENT_3D('',#421,#422,#423);
#425=CIRCLE('',#424,13.9);
#426=EDGE_CURVE('',#287,#148,#425,.T.);
#427=ORIENTED_EDGE('',*,*,#426,.F.);
#428=ORIENTED_EDGE('',*,*,#317,.T.);
#429=CARTESIAN_POINT('',(16.,23.,-4.));
#430=VERTEX_POINT('',#429);
#431=CARTESIAN_POINT('',(16.,23.,10.9));
#432=DIRECTION('',(-0.,-0.,-1.));
#433=VECTOR('',#432,14.9);
#434=LINE('',#431,#433);
#435=EDGE_CURVE('',#305,#430,#434,.T.);
#436=ORIENTED_EDGE('',*,*,#435,.T.);
#437=CARTESIAN_POINT('',(-38.085786438,23.,-4.));
#438=VERTEX_POINT('',#437);
#439=CARTESIAN_POINT('',(16.,23.,-4.));
#440=DIRECTION('',(-1.,0.,0.));
#441=VECTOR('',#440,54.085786438);
#442=LINE('',#439,#441);
#443=EDGE_CURVE('',#430,#438,#442,.T.);
#444=ORIENTED_EDGE('',*,*,#443,.T.);
#445=CARTESIAN_POINT('',(-47.5,23.,5.414213562));
#446=VERTEX_POINT('',#445);
#447=CARTESIAN_POINT('',(-38.085786438,23.,-4.));
#448=DIRECTION('',(-0.707106781,0.,0.707106781));
#449=VECTOR('',#448,13.313708499);
#450=LINE('',#447,#449);
#451=EDGE_CURVE('',#438,#446,#450,.T.);
#452=ORIENTED_EDGE('',*,*,#451,.T.);
#453=CARTESIAN_POINT('',(-47.5,23.,5.414213562));
#454=DIRECTION('',(0.,0.,1.));
#455=VECTOR('',#454,7.085786438);
#456=LINE('',#453,#455);
#457=EDGE_CURVE('',#446,#402,#456,.T.);
#458=ORIENTED_EDGE('',*,*,#457,.T.);
#459=EDGE_LOOP('',(#411,#417,#418,#419,#420,#427,#428,#436,#444,#452,#458));
#460=FACE_BOUND('',#459,.T.);
#461=ADVANCED_FACE('',(#460),#400,.T.);
#462=CARTESIAN_POINT('',(0.,0.,18.));
#463=DIRECTION('',(0.,0.,1.));
#464=DIRECTION('',(1.,0.,0.));
#465=AXIS2_PLACEMENT_3D('',#462,#463,#464);
#466=PLANE('',#465);
#467=CARTESIAN_POINT('',(-14.386752274,15.,18.));
#468=VERTEX_POINT('',#467);
#469=CARTESIAN_POINT('',(-14.386752274,22.,18.));
#470=VERTEX_POINT('',#469);
#471=CARTESIAN_POINT('',(-14.386752274,15.,18.));
#472=DIRECTION('',(0.,1.,0.));
#473=VECTOR('',#472,7.);
#474=LINE('',#471,#473);
#475=EDGE_CURVE('',#468,#470,#474,.T.);
#476=ORIENTED_EDGE('',*,*,#475,.F.);
#477=CARTESIAN_POINT('',(13.,15.,18.));
#478=VERTEX_POINT('',#477);
#479=CARTESIAN_POINT('',(-14.386752274,15.,18.));
#480=DIRECTION('',(1.,0.,-0.));
#481=VECTOR('',#480,27.386752274);
#482=LINE('',#479,#481);
#483=EDGE_CURVE('',#468,#478,#482,.T.);
#484=ORIENTED_EDGE('',*,*,#483,.T.);
#485=CARTESIAN_POINT('',(15.,13.,18.));
#486=VERTEX_POINT('',#485);
#487=CARTESIAN_POINT('',(13.,13.,18.));
#488=DIRECTION('',(-0.,-0.,-1.));
#489=DIRECTION('',(1.,0.,-0.));
#490=AXIS2_PLACEMENT_3D('',#487,#488,#489);
#491=CIRCLE('',#490,2.);
#492=EDGE_CURVE('',#478,#486,#491,.T.);
#493=ORIENTED_EDGE('',*,*,#492,.T.);
#494=CARTESIAN_POINT('',(15.,0.082778356,18.));
#495=VERTEX_POINT('',#494);
#496=CARTESIAN_POINT('',(15.,13.,18.));
#497=DIRECTION('',(0.,-1.,0.));
#498=VECTOR('',#497,12.917221644);
#499=LINE('',#496,#498);
#500=EDGE_CURVE('',#486,#495,#499,.T.);
#501=ORIENTED_EDGE('',*,*,#500,.T.);
#502=CARTESIAN_POINT('',(10.735686036,-5.660686973,18.));
#503=VERTEX_POINT('',#502);
#504=CARTESIAN_POINT('',(9.,0.082778356,18.));
#505=DIRECTION('',(-0.,-0.,-1.));
#506=DIRECTION('',(1.,0.,-0.));
#507=AXIS2_PLACEMENT_3D('',#504,#505,#506);
#508=CIRCLE('',#507,6.);
#509=EDGE_CURVE('',#495,#503,#508,.T.);
#510=ORIENTED_EDGE('',*,*,#509,.T.);
#511=CARTESIAN_POINT('',(4.73702949,-4.977825967,18.));
#512=VERTEX_POINT('',#511);
#513=CARTESIAN_POINT('',(8.528797872,1.642007981,18.));
#514=DIRECTION('',(-0.,-0.,-1.));
#515=DIRECTION('',(1.,0.,-0.));
#516=AXIS2_PLACEMENT_3D('',#513,#514,#515);
#517=CIRCLE('',#516,7.628873374);
#518=EDGE_CURVE('',#503,#512,#517,.T.);
#519=ORIENTED_EDGE('',*,*,#518,.T.);
#520=CARTESIAN_POINT('',(2.238901698,-2.214025717,18.));
#521=VERTEX_POINT('',#520);
#522=CARTESIAN_POINT('',(7.719201191,0.228578929,18.));
#523=DIRECTION('',(-0.,-0.,-1.));
#524=DIRECTION('',(1.,0.,-0.));
#525=AXIS2_PLACEMENT_3D('',#522,#523,#524);
#526=CIRCLE('',#525,6.);
#527=EDGE_CURVE('',#512,#521,#526,.T.);
#528=ORIENTED_EDGE('',*,*,#527,.T.);
#529=CARTESIAN_POINT('',(-9.625938895,1.103856875,18.));
#530=VERTEX_POINT('',#529);
#531=CARTESIAN_POINT('',(-5.068160202,-5.470841094,18.));
#532=DIRECTION('',(0.,0.,1.));
#533=DIRECTION('',(1.,0.,-0.));
#534=AXIS2_PLACEMENT_3D('',#531,#532,#533);
#535=CIRCLE('',#534,8.);
#536=EDGE_CURVE('',#521,#530,#535,.T.);
#537=ORIENTED_EDGE('',*,*,#536,.T.);
#538=CARTESIAN_POINT('',(-9.089552247,0.275626072,18.));
#539=VERTEX_POINT('',#538);
#540=CARTESIAN_POINT('',(-9.625938895,1.103856875,18.));
#541=DIRECTION('',(0.543588832,-0.839351644,0.));
#542=VECTOR('',#541,0.986750678);
#543=LINE('',#540,#542);
#544=EDGE_CURVE('',#530,#539,#543,.T.);
#545=ORIENTED_EDGE('',*,*,#544,.T.);
#546=CARTESIAN_POINT('',(1.591719683,-3.070534581,18.));
#547=VERTEX_POINT('',#546);
#548=CARTESIAN_POINT('',(-5.005861898,-5.409747543,18.));
#549=DIRECTION('',(-0.,-0.,-1.));
#550=DIRECTION('',(1.,0.,-0.));
#551=AXIS2_PLACEMENT_3D('',#548,#549,#550);
#552=CIRCLE('',#551,7.);
#553=EDGE_CURVE('',#539,#547,#552,.T.);
#554=ORIENTED_EDGE('',*,*,#553,.T.);
#555=CARTESIAN_POINT('',(2.625006947,-4.651060302,18.));
#556=VERTEX_POINT('',#555);
#557=CARTESIAN_POINT('',(5.361767897,-1.733845964,18.));
#558=DIRECTION('',(0.,0.,1.));
#559=DIRECTION('',(1.,0.,-0.));
#560=AXIS2_PLACEMENT_3D('',#557,#558,#559);
#561=CIRCLE('',#560,4.);
#562=EDGE_CURVE('',#547,#556,#561,.T.);
#563=ORIENTED_EDGE('',*,*,#562,.T.);
#564=CARTESIAN_POINT('',(16.863749787,-0.590934535,18.));
#565=VERTEX_POINT('',#564);
#566=CARTESIAN_POINT('',(8.528797872,1.642007981,18.));
#567=DIRECTION('',(0.,0.,1.));
#568=DIRECTION('',(1.,0.,-0.));
#569=AXIS2_PLACEMENT_3D('',#566,#567,#568);
#570=CIRCLE('',#569,8.628873374);
#571=EDGE_CURVE('',#556,#565,#570,.T.);
#572=ORIENTED_EDGE('',*,*,#571,.T.);
#573=CARTESIAN_POINT('',(17.,0.444168158,18.));
#574=VERTEX_POINT('',#573);
#575=CARTESIAN_POINT('',(13.,0.444168158,18.));
#576=DIRECTION('',(0.,0.,1.));
#577=DIRECTION('',(1.,0.,-0.));
#578=AXIS2_PLACEMENT_3D('',#575,#576,#577);
#579=CIRCLE('',#578,4.);
#580=EDGE_CURVE('',#565,#574,#579,.T.);
#581=ORIENTED_EDGE('',*,*,#580,.T.);
#582=CARTESIAN_POINT('',(17.,21.,18.));
#583=VERTEX_POINT('',#582);
#584=CARTESIAN_POINT('',(17.,0.444168158,18.));
#585=DIRECTION('',(0.,1.,0.));
#586=VECTOR('',#585,20.555831842);
#587=LINE('',#584,#586);
#588=EDGE_CURVE('',#574,#583,#587,.T.);
#589=ORIENTED_EDGE('',*,*,#588,.T.);
#590=CARTESIAN_POINT('',(16.,22.,18.));
#591=VERTEX_POINT('',#590);
#592=CARTESIAN_POINT('',(16.,21.,18.));
#593=DIRECTION('',(0.,0.,1.));
#594=DIRECTION('',(1.,0.,-0.));
#595=AXIS2_PLACEMENT_3D('',#592,#593,#594);
#596=CIRCLE('',#595,1.);
#597=EDGE_CURVE('',#583,#591,#596,.T.);
#598=ORIENTED_EDGE('',*,*,#597,.T.);
#599=CARTESIAN_POINT('',(16.,22.,18.));
#600=DIRECTION('',(-1.,0.,0.));
#601=VECTOR('',#600,30.386752274);
#602=LINE('',#599,#601);
#603=EDGE_CURVE('',#591,#470,#602,.T.);
#604=ORIENTED_EDGE('',*,*,#603,.T.);
#605=EDGE_LOOP('',(#476,#484,#493,#501,#510,#519,#528,#537,#545,#554,#563,#572,#581,#589,#598,#604));
#606=FACE_BOUND('',#605,.T.);
#607=ADVANCED_FACE('',(#606),#466,.T.);
#608=CARTESIAN_POINT('',(0.,0.,-5.));
#609=DIRECTION('',(0.,0.,1.));
#610=DIRECTION('',(1.,0.,0.));
#611=AXIS2_PLACEMENT_3D('',#608,#609,#610);
#612=PLANE('',#611);
#613=CARTESIAN_POINT('',(15.,13.,-5.));
#614=VERTEX_POINT('',#613);
#615=CARTESIAN_POINT('',(13.,15.,-5.));
#616=VERTEX_POINT('',#615);
#617=CARTESIAN_POINT('',(13.,13.,-5.));
#618=DIRECTION('',(0.,0.,1.));
#619=DIRECTION('',(1.,0.,-0.));
#620=AXIS2_PLACEMENT_3D('',#617,#618,#619);
#621=CIRCLE('',#620,2.);
#622=EDGE_CURVE('',#614,#616,#621,.T.);
#623=ORIENTED_EDGE('',*,*,#622,.T.);
#624=CARTESIAN_POINT('',(-38.5,15.,-5.));
#625=VERTEX_POINT('',#624);
#626=CARTESIAN_POINT('',(13.,15.,-5.));
#627=DIRECTION('',(-1.,0.,0.));
#628=VECTOR('',#627,51.5);
#629=LINE('',#626,#628);
#630=EDGE_CURVE('',#616,#625,#629,.T.);
#631=ORIENTED_EDGE('',*,*,#630,.T.);
#632=CARTESIAN_POINT('',(-38.5,22.,-5.));
#633=VERTEX_POINT('',#632);
#634=CARTESIAN_POINT('',(-38.5,15.,-5.));
#635=DIRECTION('',(0.,1.,0.));
#636=VECTOR('',#635,7.);
#637=LINE('',#634,#636);
#638=EDGE_CURVE('',#625,#633,#637,.T.);
#639=ORIENTED_EDGE('',*,*,#638,.T.);
#640=CARTESIAN_POINT('',(16.,22.,-5.));
#641=VERTEX_POINT('',#640);
#642=CARTESIAN_POINT('',(-38.5,22.,-5.));
#643=DIRECTION('',(1.,0.,-0.));
#644=VECTOR('',#643,54.5);
#645=LINE('',#642,#644);
#646=EDGE_CURVE('',#633,#641,#645,.T.);
#647=ORIENTED_EDGE('',*,*,#646,.T.);
#648=CARTESIAN_POINT('',(17.,21.,-5.));
#649=VERTEX_POINT('',#648);
#650=CARTESIAN_POINT('',(16.,21.,-5.));
#651=DIRECTION('',(-0.,-0.,-1.));
#652=DIRECTION('',(1.,0.,-0.));
#653=AXIS2_PLACEMENT_3D('',#650,#651,#652);
#654=CIRCLE('',#653,1.);
#655=EDGE_CURVE('',#641,#649,#654,.T.);
#656=ORIENTED_EDGE('',*,*,#655,.T.);
#657=CARTESIAN_POINT('',(17.,0.444168158,-5.));
#658=VERTEX_POINT('',#657);
#659=CARTESIAN_POINT('',(17.,21.,-5.));
#660=DIRECTION('',(0.,-1.,0.));
#661=VECTOR('',#660,20.555831842);
#662=LINE('',#659,#661);
#663=EDGE_CURVE('',#649,#658,#662,.T.);
#664=ORIENTED_EDGE('',*,*,#663,.T.);
#665=CARTESIAN_POINT('',(16.863749787,-0.590934535,-5.));
#666=VERTEX_POINT('',#665);
#667=CARTESIAN_POINT('',(13.,0.444168158,-5.));
#668=DIRECTION('',(-0.,-0.,-1.));
#669=DIRECTION('',(1.,0.,-0.));
#670=AXIS2_PLACEMENT_3D('',#667,#668,#669);
#671=CIRCLE('',#670,4.);
#672=EDGE_CURVE('',#658,#666,#671,.T.);
#673=ORIENTED_EDGE('',*,*,#672,.T.);
#674=CARTESIAN_POINT('',(2.625006947,-4.651060302,-5.));
#675=VERTEX_POINT('',#674);
#676=CARTESIAN_POINT('',(8.528797872,1.642007981,-5.));
#677=DIRECTION('',(-0.,-0.,-1.));
#678=DIRECTION('',(1.,0.,-0.));
#679=AXIS2_PLACEMENT_3D('',#676,#677,#678);
#680=CIRCLE('',#679,8.628873374);
#681=EDGE_CURVE('',#666,#675,#680,.T.);
#682=ORIENTED_EDGE('',*,*,#681,.T.);
#683=CARTESIAN_POINT('',(1.591720002,-3.070535482,-5.));
#684=VERTEX_POINT('',#683);
#685=CARTESIAN_POINT('',(5.361767897,-1.733845964,-5.));
#686=DIRECTION('',(-0.,-0.,-1.));
#687=DIRECTION('',(1.,0.,-0.));
#688=AXIS2_PLACEMENT_3D('',#685,#686,#687);
#689=CIRCLE('',#688,4.);
#690=EDGE_CURVE('',#675,#684,#689,.T.);
#691=ORIENTED_EDGE('',*,*,#690,.T.);
#692=CARTESIAN_POINT('',(-9.089552247,0.275626072,-5.));
#693=VERTEX_POINT('',#692);
#694=CARTESIAN_POINT('',(-5.005861898,-5.409747543,-5.));
#695=DIRECTION('',(0.,0.,1.));
#696=DIRECTION('',(1.,0.,-0.));
#697=AXIS2_PLACEMENT_3D('',#694,#695,#696);
#698=CIRCLE('',#697,7.);
#699=EDGE_CURVE('',#684,#693,#698,.T.);
#700=ORIENTED_EDGE('',*,*,#699,.T.);
#701=CARTESIAN_POINT('',(-9.625938895,1.103856875,-5.));
#702=VERTEX_POINT('',#701);
#703=CARTESIAN_POINT('',(-9.089552247,0.275626072,-5.));
#704=DIRECTION('',(-0.543588832,0.839351644,0.));
#705=VECTOR('',#704,0.986750678);
#706=LINE('',#703,#705);
#707=EDGE_CURVE('',#693,#702,#706,.T.);
#708=ORIENTED_EDGE('',*,*,#707,.T.);
#709=CARTESIAN_POINT('',(2.238901698,-2.214025717,-5.));
#710=VERTEX_POINT('',#709);
#711=CARTESIAN_POINT('',(-5.068160202,-5.470841094,-5.));
#712=DIRECTION('',(-0.,-0.,-1.));
#713=DIRECTION('',(1.,0.,-0.));
#714=AXIS2_PLACEMENT_3D('',#711,#712,#713);
#715=CIRCLE('',#714,8.);
#716=EDGE_CURVE('',#702,#710,#715,.T.);
#717=ORIENTED_EDGE('',*,*,#716,.T.);
#718=CARTESIAN_POINT('',(4.73702949,-4.977825967,-5.));
#719=VERTEX_POINT('',#718);
#720=CARTESIAN_POINT('',(7.719201191,0.228578929,-5.));
#721=DIRECTION('',(0.,0.,1.));
#722=DIRECTION('',(1.,0.,-0.));
#723=AXIS2_PLACEMENT_3D('',#720,#721,#722);
#724=CIRCLE('',#723,6.);
#725=EDGE_CURVE('',#710,#719,#724,.T.);
#726=ORIENTED_EDGE('',*,*,#725,.T.);
#727=CARTESIAN_POINT('',(10.735686036,-5.660686973,-5.));
#728=VERTEX_POINT('',#727);
#729=CARTESIAN_POINT('',(8.528797872,1.642007981,-5.));
#730=DIRECTION('',(0.,0.,1.));
#731=DIRECTION('',(1.,0.,-0.));
#732=AXIS2_PLACEMENT_3D('',#729,#730,#731);
#733=CIRCLE('',#732,7.628873374);
#734=EDGE_CURVE('',#719,#728,#733,.T.);
#735=ORIENTED_EDGE('',*,*,#734,.T.);
#736=CARTESIAN_POINT('',(15.,0.082778356,-5.));
#737=VERTEX_POINT('',#736);
#738=CARTESIAN_POINT('',(9.,0.082778356,-5.));
#739=DIRECTION('',(0.,0.,1.));
#740=DIRECTION('',(1.,0.,-0.));
#741=AXIS2_PLACEMENT_3D('',#738,#739,#740);
#742=CIRCLE('',#741,6.);
#743=EDGE_CURVE('',#728,#737,#742,.T.);
#744=ORIENTED_EDGE('',*,*,#743,.T.);
#745=CARTESIAN_POINT('',(15.,0.082778356,-5.));
#746=DIRECTION('',(0.,1.,0.));
#747=VECTOR('',#746,12.917221644);
#748=LINE('',#745,#747);
#749=EDGE_CURVE('',#737,#614,#748,.T.);
#750=ORIENTED_EDGE('',*,*,#749,.T.);
#751=EDGE_LOOP('',(#623,#631,#639,#647,#656,#664,#673,#682,#691,#700,#708,#717,#726,#735,#744,#750));
#752=FACE_BOUND('',#751,.T.);
#753=ADVANCED_FACE('',(#752),#612,.F.);
#754=CARTESIAN_POINT('',(8.528797872,1.642007981,10.));
#755=DIRECTION('',(0.,0.,-1.));
#756=DIRECTION('',(-1.,0.,0.));
#757=AXIS2_PLACEMENT_3D('',#754,#755,#756);
#758=CYLINDRICAL_SURFACE('',#757,6.628873374);
#759=CARTESIAN_POINT('',(5.234058107,-4.110091817,-4.));
#760=VERTEX_POINT('',#759);
#761=CARTESIAN_POINT('',(5.234058107,-4.110091817,17.));
#762=VERTEX_POINT('',#761);
#763=CARTESIAN_POINT('',(5.234058107,-4.110091817,-4.));
#764=DIRECTION('',(-0.,-0.,1.));
#765=VECTOR('',#764,21.);
#766=LINE('',#763,#765);
#767=EDGE_CURVE('',#760,#762,#766,.T.);
#768=ORIENTED_EDGE('',*,*,#767,.T.);
#769=CARTESIAN_POINT('',(10.44640503,-4.703442751,17.));
#770=VERTEX_POINT('',#769);
#771=CARTESIAN_POINT('',(8.528797872,1.642007981,17.));
#772=DIRECTION('',(0.,0.,1.));
#773=DIRECTION('',(1.,0.,-0.));
#774=AXIS2_PLACEMENT_3D('',#771,#772,#773);
#775=CIRCLE('',#774,6.628873374);
#776=EDGE_CURVE('',#762,#770,#775,.T.);
#777=ORIENTED_EDGE('',*,*,#776,.T.);
#778=CARTESIAN_POINT('',(10.44640503,-4.703442751,-4.));
#779=VERTEX_POINT('',#778);
#780=CARTESIAN_POINT('',(10.44640503,-4.703442751,17.));
#781=DIRECTION('',(0.,0.,-1.));
#782=VECTOR('',#781,21.);
#783=LINE('',#780,#782);
#784=EDGE_CURVE('',#770,#779,#783,.T.);
#785=ORIENTED_EDGE('',*,*,#784,.T.);
#786=CARTESIAN_POINT('',(8.528797872,1.642007981,-4.));
#787=DIRECTION('',(-0.,-0.,-1.));
#788=DIRECTION('',(1.,0.,-0.));
#789=AXIS2_PLACEMENT_3D('',#786,#787,#788);
#790=CIRCLE('',#789,6.628873374);
#791=EDGE_CURVE('',#779,#760,#790,.T.);
#792=ORIENTED_EDGE('',*,*,#791,.T.);
#793=EDGE_LOOP('',(#768,#777,#785,#792));
#794=FACE_BOUND('',#793,.T.);
#795=ADVANCED_FACE('',(#794),#758,.F.);
#796=CARTESIAN_POINT('',(-5.068160202,-5.470841094,10.));
#797=DIRECTION('',(0.,0.,-1.));
#798=DIRECTION('',(-1.,0.,0.));
#799=AXIS2_PLACEMENT_3D('',#796,#797,#798);
#800=CYLINDRICAL_SURFACE('',#799,9.);
#801=CARTESIAN_POINT('',(-10.609305306,1.621105814,-4.));
#802=VERTEX_POINT('',#801);
#803=CARTESIAN_POINT('',(-10.609305306,1.621105814,17.));
#804=VERTEX_POINT('',#803);
#805=CARTESIAN_POINT('',(-10.609305306,1.621105814,-4.));
#806=DIRECTION('',(-0.,-0.,1.));
#807=VECTOR('',#806,21.);
#808=LINE('',#805,#807);
#809=EDGE_CURVE('',#802,#804,#808,.T.);
#810=ORIENTED_EDGE('',*,*,#809,.T.);
#811=CARTESIAN_POINT('',(3.152284947,-1.806924943,17.));
#812=VERTEX_POINT('',#811);
#813=CARTESIAN_POINT('',(-5.068160202,-5.470841094,17.));
#814=DIRECTION('',(-0.,-0.,-1.));
#815=DIRECTION('',(1.,0.,-0.));
#816=AXIS2_PLACEMENT_3D('',#813,#814,#815);
#817=CIRCLE('',#816,9.);
#818=EDGE_CURVE('',#804,#812,#817,.T.);
#819=ORIENTED_EDGE('',*,*,#818,.T.);
#820=CARTESIAN_POINT('',(3.152284947,-1.806924943,-4.));
#821=VERTEX_POINT('',#820);
#822=CARTESIAN_POINT('',(3.152284947,-1.806924943,17.));
#823=DIRECTION('',(-0.,-0.,-1.));
#824=VECTOR('',#823,21.);
#825=LINE('',#822,#824);
#826=EDGE_CURVE('',#812,#821,#825,.T.);
#827=ORIENTED_EDGE('',*,*,#826,.T.);
#828=CARTESIAN_POINT('',(-5.068160202,-5.470841094,-4.));
#829=DIRECTION('',(0.,0.,1.));
#830=DIRECTION('',(1.,0.,-0.));
#831=AXIS2_PLACEMENT_3D('',#828,#829,#830);
#832=CIRCLE('',#831,9.);
#833=EDGE_CURVE('',#821,#802,#832,.T.);
#834=ORIENTED_EDGE('',*,*,#833,.T.);
#835=EDGE_LOOP('',(#810,#819,#827,#834));
#836=FACE_BOUND('',#835,.T.);
#837=ADVANCED_FACE('',(#836),#800,.T.);
#838=CARTESIAN_POINT('',(-9.926513961,-0.271653034,10.));
#839=DIRECTION('',(0.839351644,0.543588832,0.));
#840=DIRECTION('',(-0.543588832,0.839351644,0.));
#841=AXIS2_PLACEMENT_3D('',#838,#839,#840);
#842=PLANE('',#841);
#843=CARTESIAN_POINT('',(-9.632098745,-0.726257472,-4.));
#844=VERTEX_POINT('',#843);
#845=CARTESIAN_POINT('',(-9.632098745,-0.726257472,17.));
#846=VERTEX_POINT('',#845);
#847=CARTESIAN_POINT('',(-9.632098745,-0.726257472,-4.));
#848=DIRECTION('',(-0.,-0.,1.));
#849=VECTOR('',#848,21.);
#850=LINE('',#847,#849);
#851=EDGE_CURVE('',#844,#846,#850,.T.);
#852=ORIENTED_EDGE('',*,*,#851,.T.);
#853=CARTESIAN_POINT('',(-10.721136028,0.955317242,17.));
#854=VERTEX_POINT('',#853);
#855=CARTESIAN_POINT('',(-9.632098745,-0.726257472,17.));
#856=DIRECTION('',(-0.543588832,0.839351644,0.));
#857=VECTOR('',#856,2.003421005);
#858=LINE('',#855,#857);
#859=EDGE_CURVE('',#846,#854,#858,.T.);
#860=ORIENTED_EDGE('',*,*,#859,.T.);
#861=CARTESIAN_POINT('',(-10.721136028,0.955317242,-4.));
#862=VERTEX_POINT('',#861);
#863=CARTESIAN_POINT('',(-10.721136028,0.955317242,17.));
#864=DIRECTION('',(0.,0.,-1.));
#865=VECTOR('',#864,21.);
#866=LINE('',#863,#865);
#867=EDGE_CURVE('',#854,#862,#866,.T.);
#868=ORIENTED_EDGE('',*,*,#867,.T.);
#869=CARTESIAN_POINT('',(-10.721136028,0.955317242,-4.));
#870=DIRECTION('',(0.543588832,-0.839351644,0.));
#871=VECTOR('',#870,2.003421005);
#872=LINE('',#869,#871);
#873=EDGE_CURVE('',#862,#844,#872,.T.);
#874=ORIENTED_EDGE('',*,*,#873,.T.);
#875=EDGE_LOOP('',(#852,#860,#868,#874));
#876=FACE_BOUND('',#875,.T.);
#877=ADVANCED_FACE('',(#876),#842,.F.);
#878=CARTESIAN_POINT('',(-5.005861898,-5.409747543,10.));
#879=DIRECTION('',(0.,0.,1.));
#880=DIRECTION('',(1.,0.,-0.));
#881=AXIS2_PLACEMENT_3D('',#878,#879,#880);
#882=CYLINDRICAL_SURFACE('',#881,6.);
#883=CARTESIAN_POINT('',(0.649208028,-3.404707862,-4.));
#884=VERTEX_POINT('',#883);
#885=CARTESIAN_POINT('',(0.649208028,-3.404707862,17.));
#886=VERTEX_POINT('',#885);
#887=CARTESIAN_POINT('',(0.649208028,-3.404707862,-4.));
#888=DIRECTION('',(-0.,-0.,1.));
#889=VECTOR('',#888,21.);
#890=LINE('',#887,#889);
#891=EDGE_CURVE('',#884,#886,#890,.T.);
#892=ORIENTED_EDGE('',*,*,#891,.T.);
#893=CARTESIAN_POINT('',(-8.888838398,-0.835636317,17.));
#894=VERTEX_POINT('',#893);
#895=CARTESIAN_POINT('',(-5.005861898,-5.409747543,17.));
#896=DIRECTION('',(0.,0.,1.));
#897=DIRECTION('',(1.,0.,-0.));
#898=AXIS2_PLACEMENT_3D('',#895,#896,#897);
#899=CIRCLE('',#898,6.);
#900=EDGE_CURVE('',#886,#894,#899,.T.);
#901=ORIENTED_EDGE('',*,*,#900,.T.);
#902=CARTESIAN_POINT('',(-8.888838398,-0.835636317,-4.));
#903=VERTEX_POINT('',#902);
#904=CARTESIAN_POINT('',(-8.888838398,-0.835636317,17.));
#905=DIRECTION('',(-0.,-0.,-1.));
#906=VECTOR('',#905,21.);
#907=LINE('',#904,#906);
#908=EDGE_CURVE('',#894,#903,#907,.T.);
#909=ORIENTED_EDGE('',*,*,#908,.T.);
#910=CARTESIAN_POINT('',(-5.005861898,-5.409747543,-4.));
#911=DIRECTION('',(-0.,-0.,-1.));
#912=DIRECTION('',(1.,0.,-0.));
#913=AXIS2_PLACEMENT_3D('',#910,#911,#912);
#914=CIRCLE('',#913,6.);
#915=EDGE_CURVE('',#903,#884,#914,.T.);
#916=ORIENTED_EDGE('',*,*,#915,.T.);
#917=EDGE_LOOP('',(#892,#901,#909,#916));
#918=FACE_BOUND('',#917,.T.);
#919=ADVANCED_FACE('',(#918),#882,.F.);
#920=CARTESIAN_POINT('',(8.528797872,1.642007981,10.));
#921=DIRECTION('',(0.,0.,-1.));
#922=DIRECTION('',(-1.,0.,0.));
#923=AXIS2_PLACEMENT_3D('',#920,#921,#922);
#924=CYLINDRICAL_SURFACE('',#923,9.628873374);
#925=CARTESIAN_POINT('',(17.829687234,-0.849710208,-4.));
#926=VERTEX_POINT('',#925);
#927=CARTESIAN_POINT('',(17.829687234,-0.849710208,17.));
#928=VERTEX_POINT('',#927);
#929=CARTESIAN_POINT('',(17.829687234,-0.849710208,-4.));
#930=DIRECTION('',(-0.,-0.,1.));
#931=VECTOR('',#930,21.);
#932=LINE('',#929,#931);
#933=EDGE_CURVE('',#926,#928,#932,.T.);
#934=ORIENTED_EDGE('',*,*,#933,.T.);
#935=CARTESIAN_POINT('',(1.940816709,-5.380363887,17.));
#936=VERTEX_POINT('',#935);
#937=CARTESIAN_POINT('',(8.528797872,1.642007981,17.));
#938=DIRECTION('',(-0.,-0.,-1.));
#939=DIRECTION('',(1.,0.,-0.));
#940=AXIS2_PLACEMENT_3D('',#937,#938,#939);
#941=CIRCLE('',#940,9.628873374);
#942=EDGE_CURVE('',#928,#936,#941,.T.);
#943=ORIENTED_EDGE('',*,*,#942,.T.);
#944=CARTESIAN_POINT('',(1.940816709,-5.380363887,-4.));
#945=VERTEX_POINT('',#944);
#946=CARTESIAN_POINT('',(1.940816709,-5.380363887,17.));
#947=DIRECTION('',(0.,0.,-1.));
#948=VECTOR('',#947,21.);
#949=LINE('',#946,#948);
#950=EDGE_CURVE('',#936,#945,#949,.T.);
#951=ORIENTED_EDGE('',*,*,#950,.T.);
#952=CARTESIAN_POINT('',(8.528797872,1.642007981,-4.));
#953=DIRECTION('',(0.,0.,1.));
#954=DIRECTION('',(1.,0.,-0.));
#955=AXIS2_PLACEMENT_3D('',#952,#953,#954);
#956=CIRCLE('',#955,9.628873374);
#957=EDGE_CURVE('',#945,#926,#956,.T.);
#958=ORIENTED_EDGE('',*,*,#957,.T.);
#959=EDGE_LOOP('',(#934,#943,#951,#958));
#960=FACE_BOUND('',#959,.T.);
#961=ADVANCED_FACE('',(#960),#924,.T.);
#962=CARTESIAN_POINT('',(9.,0.082778356,10.));
#963=DIRECTION('',(0.,0.,-1.));
#964=DIRECTION('',(-1.,0.,0.));
#965=AXIS2_PLACEMENT_3D('',#962,#963,#964);
#966=CYLINDRICAL_SURFACE('',#965,5.);
#967=ORIENTED_EDGE('',*,*,#784,.F.);
#968=CARTESIAN_POINT('',(9.,0.082778356,17.));
#969=DIRECTION('',(0.,0.,1.));
#970=DIRECTION('',(1.,0.,-0.));
#971=AXIS2_PLACEMENT_3D('',#968,#969,#970);
#972=CIRCLE('',#971,5.);
#973=EDGE_CURVE('',#770,#249,#972,.T.);
#974=ORIENTED_EDGE('',*,*,#973,.T.);
#975=ORIENTED_EDGE('',*,*,#254,.F.);
#976=CARTESIAN_POINT('',(9.,0.082778356,-4.));
#977=DIRECTION('',(-0.,-0.,-1.));
#978=DIRECTION('',(1.,0.,-0.));
#979=AXIS2_PLACEMENT_3D('',#976,#977,#978);
#980=CIRCLE('',#979,5.);
#981=EDGE_CURVE('',#247,#779,#980,.T.);
#982=ORIENTED_EDGE('',*,*,#981,.T.);
#983=EDGE_LOOP('',(#967,#974,#975,#982));
#984=FACE_BOUND('',#983,.T.);
#985=ADVANCED_FACE('',(#984),#966,.F.);
#986=CARTESIAN_POINT('',(7.719201191,0.228578929,10.));
#987=DIRECTION('',(0.,0.,1.));
#988=DIRECTION('',(1.,0.,-0.));
#989=AXIS2_PLACEMENT_3D('',#986,#987,#988);
#990=CYLINDRICAL_SURFACE('',#989,5.);
#991=ORIENTED_EDGE('',*,*,#826,.F.);
#992=CARTESIAN_POINT('',(7.719201191,0.228578929,17.));
#993=DIRECTION('',(0.,0.,1.));
#994=DIRECTION('',(1.,0.,-0.));
#995=AXIS2_PLACEMENT_3D('',#992,#993,#994);
#996=CIRCLE('',#995,5.);
#997=EDGE_CURVE('',#812,#762,#996,.T.);
#998=ORIENTED_EDGE('',*,*,#997,.T.);
#999=ORIENTED_EDGE('',*,*,#767,.F.);
#1000=CARTESIAN_POINT('',(7.719201191,0.228578929,-4.));
#1001=DIRECTION('',(-0.,-0.,-1.));
#1002=DIRECTION('',(1.,0.,-0.));
#1003=AXIS2_PLACEMENT_3D('',#1000,#1001,#1002);
#1004=CIRCLE('',#1003,5.);
#1005=EDGE_CURVE('',#760,#821,#1004,.T.);
#1006=ORIENTED_EDGE('',*,*,#1005,.T.);
#1007=EDGE_LOOP('',(#991,#998,#999,#1006));
#1008=FACE_BOUND('',#1007,.T.);
#1009=ADVANCED_FACE('',(#1008),#990,.F.);
#1010=CARTESIAN_POINT('',(-10.301460206,1.227111658,10.));
#1011=DIRECTION('',(0.,0.,-1.));
#1012=DIRECTION('',(-1.,0.,0.));
#1013=AXIS2_PLACEMENT_3D('',#1010,#1011,#1012);
#1014=CYLINDRICAL_SURFACE('',#1013,0.5);
#1015=CARTESIAN_POINT('',(-10.801460206,1.227111658,-4.080324178));
#1016=VERTEX_POINT('',#1015);
#1017=CARTESIAN_POINT('',(-10.801460206,1.227111658,17.080324178));
#1018=VERTEX_POINT('',#1017);
#1019=CARTESIAN_POINT('',(-10.801460206,1.227111658,-4.080324178));
#1020=DIRECTION('',(-0.,-0.,1.));
#1021=VECTOR('',#1020,21.160648356);
#1022=LINE('',#1019,#1021);
#1023=EDGE_CURVE('',#1016,#1018,#1022,.T.);
#1024=ORIENTED_EDGE('',*,*,#1023,.T.);
#1025=CARTESIAN_POINT('',(-10.795333944,1.305141984,17.12788268));
#1026=VERTEX_POINT('',#1025);
#1027=CARTESIAN_POINT('',(-10.301460206,1.227111658,17.5));
#1028=DIRECTION('',(0.593511239,0.384375349,-0.707106781));
#1029=DIRECTION('',(-0.593511239,-0.384375349,-0.707106781));
#1030=AXIS2_PLACEMENT_3D('',#1027,#1028,#1029);
#1031=ELLIPSE('',#1030,0.707106781,0.5);
#1032=EDGE_CURVE('',#1018,#1026,#1031,.T.);
#1033=ORIENTED_EDGE('',*,*,#1032,.T.);
#1034=CARTESIAN_POINT('',(-10.795333944,1.305141984,17.12788268));
#1035=CARTESIAN_POINT('',(-10.786598247,1.360432837,17.091294015));
#1036=CARTESIAN_POINT('',(-10.768171897,1.417379862,17.059405326));
#1037=CARTESIAN_POINT('',(-10.737032073,1.472625708,17.03630436));
#1038=CARTESIAN_POINT('',(-10.705892249,1.527871554,17.013203395));
#1039=CARTESIAN_POINT('',(-10.662641912,1.579431559,17.000000636));
#1040=CARTESIAN_POINT('',(-10.609305306,1.621105813,17.));
#1041=B_SPLINE_CURVE_WITH_KNOTS('',3,(#1034,#1035,#1036,#1037,#1038,#1039,#1040),.UNSPECIFIED.,.F.,.F.,(4,3,4),(0.000479466,0.000677965,0.000876464),.UNSPECIFIED.);
#1042=EDGE_CURVE('',#1026,#804,#1041,.T.);
#1043=ORIENTED_EDGE('',*,*,#1042,.T.);
#1044=ORIENTED_EDGE('',*,*,#809,.F.);
#1045=CARTESIAN_POINT('',(-10.795333944,1.305141984,-4.12788268));
#1046=VERTEX_POINT('',#1045);
#1047=CARTESIAN_POINT('',(-10.609305306,1.621105814,-4.));
#1048=CARTESIAN_POINT('',(-10.662772,1.579329915,-4.000000638));
#1049=CARTESIAN_POINT('',(-10.706079022,1.52750831,-4.013365902));
#1050=CARTESIAN_POINT('',(-10.73697085,1.472734295,-4.036258966));
#1051=CARTESIAN_POINT('',(-10.767862677,1.417960279,-4.059152029));
#1052=CARTESIAN_POINT('',(-10.78660337,1.360400221,-4.091315622));
#1053=CARTESIAN_POINT('',(-10.795333944,1.305141984,-4.12788268));
#1054=B_SPLINE_CURVE_WITH_KNOTS('',3,(#1047,#1048,#1049,#1050,#1051,#1052,#1053),.UNSPECIFIED.,.F.,.F.,(4,3,4),(0.,0.000200121,0.000400243),.UNSPECIFIED.);
#1055=EDGE_CURVE('',#802,#1046,#1054,.T.);
#1056=ORIENTED_EDGE('',*,*,#1055,.T.);
#1057=CARTESIAN_POINT('',(-10.301460206,1.227111658,-4.5));
#1058=DIRECTION('',(0.593511239,0.384375349,0.707106781));
#1059=DIRECTION('',(0.593511239,0.384375349,-0.707106781));
#1060=AXIS2_PLACEMENT_3D('',#1057,#1058,#1059);
#1061=ELLIPSE('',#1060,0.707106781,0.5);
#1062=EDGE_CURVE('',#1046,#1016,#1061,.T.);
#1063=ORIENTED_EDGE('',*,*,#1062,.T.);
#1064=EDGE_LOOP('',(#1024,#1033,#1043,#1044,#1056,#1063));
#1065=FACE_BOUND('',#1064,.T.);
#1066=ADVANCED_FACE('',(#1065),#1014,.T.);
#1067=CARTESIAN_POINT('',(-9.212422923,-0.454463056,10.));
#1068=DIRECTION('',(0.,0.,1.));
#1069=DIRECTION('',(1.,0.,-0.));
#1070=AXIS2_PLACEMENT_3D('',#1067,#1068,#1069);
#1071=CYLINDRICAL_SURFACE('',#1070,0.5);
#1072=ORIENTED_EDGE('',*,*,#908,.F.);
#1073=CARTESIAN_POINT('',(-9.277880762,-0.95015981,17.175602636));
#1074=VERTEX_POINT('',#1073);
#1075=CARTESIAN_POINT('',(-8.888838398,-0.835636317,17.));
#1076=CARTESIAN_POINT('',(-8.948209586,-0.886037538,16.999999356));
#1077=CARTESIAN_POINT('',(-9.017237892,-0.920071807,17.020339301));
#1078=CARTESIAN_POINT('',(-9.084842489,-0.937912364,17.052717781));
#1079=CARTESIAN_POINT('',(-9.152447087,-0.955752921,17.085096261));
#1080=CARTESIAN_POINT('',(-9.217546807,-0.958127065,17.128112781));
#1081=CARTESIAN_POINT('',(-9.277880762,-0.95015981,17.175602636));
#1082=B_SPLINE_CURVE_WITH_KNOTS('',3,(#1075,#1076,#1077,#1078,#1079,#1080,#1081),.UNSPECIFIED.,.F.,.F.,(4,3,4),(0.,0.000229449,0.000458897),.UNSPECIFIED.);
#1083=EDGE_CURVE('',#894,#1074,#1082,.T.);
#1084=ORIENTED_EDGE('',*,*,#1083,.T.);
#1085=CARTESIAN_POINT('',(-9.212422923,-0.454463056,17.5));
#1086=DIRECTION('',(0.593511239,0.384375349,-0.707106781));
#1087=DIRECTION('',(0.593511239,0.384375349,0.707106781));
#1088=AXIS2_PLACEMENT_3D('',#1085,#1086,#1087);
#1089=ELLIPSE('',#1088,0.707106781,0.5);
#1090=EDGE_CURVE('',#1074,#846,#1089,.T.);
#1091=ORIENTED_EDGE('',*,*,#1090,.T.);
#1092=ORIENTED_EDGE('',*,*,#851,.F.);
#1093=CARTESIAN_POINT('',(-9.277880762,-0.95015981,-4.175602636));
#1094=VERTEX_POINT('',#1093);
#1095=CARTESIAN_POINT('',(-9.212422923,-0.454463056,-4.5));
#1096=DIRECTION('',(0.593511239,0.384375349,0.707106781));
#1097=DIRECTION('',(-0.593511239,-0.384375349,0.707106781));
#1098=AXIS2_PLACEMENT_3D('',#1095,#1096,#1097);
#1099=ELLIPSE('',#1098,0.707106781,0.5);
#1100=EDGE_CURVE('',#844,#1094,#1099,.T.);
#1101=ORIENTED_EDGE('',*,*,#1100,.T.);
#1102=CARTESIAN_POINT('',(-9.277880762,-0.95015981,-4.175602636));
#1103=CARTESIAN_POINT('',(-9.217507515,-0.958132243,-4.128081862));
#1104=CARTESIAN_POINT('',(-9.152161514,-0.955694018,-4.084946292));
#1105=CARTESIAN_POINT('',(-9.084731846,-0.937883152,-4.0526648));
#1106=CARTESIAN_POINT('',(-9.017302178,-0.920072285,-4.020383308));
#1107=CARTESIAN_POINT('',(-8.94821428,-0.886041523,-3.999999356));
#1108=CARTESIAN_POINT('',(-8.888838398,-0.835636317,-4.));
#1109=B_SPLINE_CURVE_WITH_KNOTS('',3,(#1102,#1103,#1104,#1105,#1106,#1107,#1108),.UNSPECIFIED.,.F.,.F.,(4,3,4),(0.000591135,0.000819321,0.001047507),.UNSPECIFIED.);
#1110=EDGE_CURVE('',#1094,#903,#1109,.T.);
#1111=ORIENTED_EDGE('',*,*,#1110,.T.);
#1112=EDGE_LOOP('',(#1072,#1084,#1091,#1092,#1101,#1111));
#1113=FACE_BOUND('',#1112,.T.);
#1114=ADVANCED_FACE('',(#1113),#1071,.T.);
#1115=CARTESIAN_POINT('',(5.361767897,-1.733845964,10.));
#1116=DIRECTION('',(0.,0.,-1.));
#1117=DIRECTION('',(-1.,0.,0.));
#1118=AXIS2_PLACEMENT_3D('',#1115,#1116,#1117);
#1119=CYLINDRICAL_SURFACE('',#1118,5.);
#1120=ORIENTED_EDGE('',*,*,#950,.F.);
#1121=CARTESIAN_POINT('',(5.361767897,-1.733845964,17.));
#1122=DIRECTION('',(-0.,-0.,-1.));
#1123=DIRECTION('',(1.,0.,-0.));
#1124=AXIS2_PLACEMENT_3D('',#1121,#1122,#1123);
#1125=CIRCLE('',#1124,5.);
#1126=EDGE_CURVE('',#936,#886,#1125,.T.);
#1127=ORIENTED_EDGE('',*,*,#1126,.T.);
#1128=ORIENTED_EDGE('',*,*,#891,.F.);
#1129=CARTESIAN_POINT('',(5.361767897,-1.733845964,-4.));
#1130=DIRECTION('',(0.,0.,1.));
#1131=DIRECTION('',(1.,0.,-0.));
#1132=AXIS2_PLACEMENT_3D('',#1129,#1130,#1131);
#1133=CIRCLE('',#1132,5.);
#1134=EDGE_CURVE('',#884,#945,#1133,.T.);
#1135=ORIENTED_EDGE('',*,*,#1134,.T.);
#1136=EDGE_LOOP('',(#1120,#1127,#1128,#1135));
#1137=FACE_BOUND('',#1136,.T.);
#1138=ADVANCED_FACE('',(#1137),#1119,.T.);
#1139=CARTESIAN_POINT('',(13.,0.444168158,10.));
#1140=DIRECTION('',(0.,0.,-1.));
#1141=DIRECTION('',(-1.,0.,0.));
#1142=AXIS2_PLACEMENT_3D('',#1139,#1140,#1141);
#1143=CYLINDRICAL_SURFACE('',#1142,5.);
#1144=ORIENTED_EDGE('',*,*,#374,.F.);
#1145=CARTESIAN_POINT('',(13.,0.444168158,17.));
#1146=DIRECTION('',(-0.,-0.,-1.));
#1147=DIRECTION('',(1.,0.,-0.));
#1148=AXIS2_PLACEMENT_3D('',#1145,#1146,#1147);
#1149=CIRCLE('',#1148,5.);
#1150=EDGE_CURVE('',#361,#928,#1149,.T.);
#1151=ORIENTED_EDGE('',*,*,#1150,.T.);
#1152=ORIENTED_EDGE('',*,*,#933,.F.);
#1153=CARTESIAN_POINT('',(13.,0.444168158,-4.));
#1154=DIRECTION('',(0.,0.,1.));
#1155=DIRECTION('',(1.,0.,-0.));
#1156=AXIS2_PLACEMENT_3D('',#1153,#1154,#1155);
#1157=CIRCLE('',#1156,5.);
#1158=EDGE_CURVE('',#926,#369,#1157,.T.);
#1159=ORIENTED_EDGE('',*,*,#1158,.T.);
#1160=EDGE_LOOP('',(#1144,#1151,#1152,#1159));
#1161=FACE_BOUND('',#1160,.T.);
#1162=ADVANCED_FACE('',(#1161),#1143,.T.);
#1163=CARTESIAN_POINT('',(16.,21.,10.));
#1164=DIRECTION('',(0.,0.,1.));
#1165=DIRECTION('',(1.,0.,-0.));
#1166=AXIS2_PLACEMENT_3D('',#1163,#1164,#1165);
#1167=CYLINDRICAL_SURFACE('',#1166,2.);
#1168=ORIENTED_EDGE('',*,*,#388,.F.);
#1169=CARTESIAN_POINT('',(16.,21.,-4.));
#1170=DIRECTION('',(0.,0.,1.));
#1171=DIRECTION('',(1.,0.,-0.));
#1172=AXIS2_PLACEMENT_3D('',#1169,#1170,#1171);
#1173=CIRCLE('',#1172,2.);
#1174=EDGE_CURVE('',#377,#430,#1173,.T.);
#1175=ORIENTED_EDGE('',*,*,#1174,.T.);
#1176=ORIENTED_EDGE('',*,*,#435,.F.);
#1177=ORIENTED_EDGE('',*,*,#311,.T.);
#1178=EDGE_LOOP('',(#1168,#1175,#1176,#1177));
#1179=FACE_BOUND('',#1178,.T.);
#1180=ADVANCED_FACE('',(#1179),#1167,.T.);
#1181=CARTESIAN_POINT('',(-31.,15.,12.5));
#1182=DIRECTION('',(0.,1.,0.));
#1183=DIRECTION('',(0.,-0.,1.));
#1184=AXIS2_PLACEMENT_3D('',#1181,#1182,#1183);
#1185=CYLINDRICAL_SURFACE('',#1184,17.5);
#1186=CARTESIAN_POINT('',(-31.,22.,30.));
#1187=VERTEX_POINT('',#1186);
#1188=CARTESIAN_POINT('',(-31.,15.,30.));
#1189=VERTEX_POINT('',#1188);
#1190=CARTESIAN_POINT('',(-31.,22.,30.));
#1191=DIRECTION('',(-0.,-1.,-0.));
#1192=VECTOR('',#1191,7.);
#1193=LINE('',#1190,#1192);
#1194=EDGE_CURVE('',#1187,#1189,#1193,.T.);
#1195=ORIENTED_EDGE('',*,*,#1194,.T.);
#1196=CARTESIAN_POINT('',(-31.,15.,12.5));
#1197=DIRECTION('',(-0.,1.,-0.));
#1198=DIRECTION('',(0.,0.,-1.));
#1199=AXIS2_PLACEMENT_3D('',#1196,#1197,#1198);
#1200=CIRCLE('',#1199,17.5);
#1201=EDGE_CURVE('',#1189,#468,#1200,.T.);
#1202=ORIENTED_EDGE('',*,*,#1201,.T.);
#1203=ORIENTED_EDGE('',*,*,#475,.T.);
#1204=CARTESIAN_POINT('',(-31.,22.,12.5));
#1205=DIRECTION('',(-0.,-1.,-0.));
#1206=DIRECTION('',(0.,-0.,1.));
#1207=AXIS2_PLACEMENT_3D('',#1204,#1205,#1206);
#1208=CIRCLE('',#1207,17.5);
#1209=EDGE_CURVE('',#470,#1187,#1208,.T.);
#1210=ORIENTED_EDGE('',*,*,#1209,.T.);
#1211=EDGE_LOOP('',(#1195,#1202,#1203,#1210));
#1212=FACE_BOUND('',#1211,.T.);
#1213=ADVANCED_FACE('',(#1212),#1185,.T.);
#1214=CARTESIAN_POINT('',(-48.5,15.,3.75));
#1215=DIRECTION('',(1.,0.,0.));
#1216=DIRECTION('',(0.,0.,-1.));
#1217=AXIS2_PLACEMENT_3D('',#1214,#1215,#1216);
#1218=PLANE('',#1217);
#1219=CARTESIAN_POINT('',(-48.5,22.,5.));
#1220=VERTEX_POINT('',#1219);
#1221=CARTESIAN_POINT('',(-48.5,15.,5.));
#1222=VERTEX_POINT('',#1221);
#1223=CARTESIAN_POINT('',(-48.5,22.,5.));
#1224=DIRECTION('',(0.,-1.,0.));
#1225=VECTOR('',#1224,7.);
#1226=LINE('',#1223,#1225);
#1227=EDGE_CURVE('',#1220,#1222,#1226,.T.);
#1228=ORIENTED_EDGE('',*,*,#1227,.T.);
#1229=CARTESIAN_POINT('',(-48.5,15.,12.5));
#1230=VERTEX_POINT('',#1229);
#1231=CARTESIAN_POINT('',(-48.5,15.,5.));
#1232=DIRECTION('',(0.,0.,1.));
#1233=VECTOR('',#1232,7.5);
#1234=LINE('',#1231,#1233);
#1235=EDGE_CURVE('',#1222,#1230,#1234,.T.);
#1236=ORIENTED_EDGE('',*,*,#1235,.T.);
#1237=CARTESIAN_POINT('',(-48.5,22.,12.5));
#1238=VERTEX_POINT('',#1237);
#1239=CARTESIAN_POINT('',(-48.5,15.,12.5));
#1240=DIRECTION('',(0.,1.,0.));
#1241=VECTOR('',#1240,7.);
#1242=LINE('',#1239,#1241);
#1243=EDGE_CURVE('',#1230,#1238,#1242,.T.);
#1244=ORIENTED_EDGE('',*,*,#1243,.T.);
#1245=CARTESIAN_POINT('',(-48.5,22.,12.5));
#1246=DIRECTION('',(0.,0.,-1.));
#1247=VECTOR('',#1246,7.5);
#1248=LINE('',#1245,#1247);
#1249=EDGE_CURVE('',#1238,#1220,#1248,.T.);
#1250=ORIENTED_EDGE('',*,*,#1249,.T.);
#1251=EDGE_LOOP('',(#1228,#1236,#1244,#1250));
#1252=FACE_BOUND('',#1251,.T.);
#1253=ADVANCED_FACE('',(#1252),#1218,.F.);
#1254=CARTESIAN_POINT('',(-38.5,0.,-5.));
#1255=DIRECTION('',(0.707106781,0.,0.707106781));
#1256=DIRECTION('',(0.,1.,0.));
#1257=AXIS2_PLACEMENT_3D('',#1254,#1255,#1256);
#1258=PLANE('',#1257);
#1259=ORIENTED_EDGE('',*,*,#638,.F.);
#1260=CARTESIAN_POINT('',(-38.5,15.,-5.));
#1261=DIRECTION('',(-0.707106781,-0.,0.707106781));
#1262=VECTOR('',#1261,14.142135624);
#1263=LINE('',#1260,#1262);
#1264=EDGE_CURVE('',#625,#1222,#1263,.T.);
#1265=ORIENTED_EDGE('',*,*,#1264,.T.);
#1266=ORIENTED_EDGE('',*,*,#1227,.F.);
#1267=CARTESIAN_POINT('',(-48.5,22.,5.));
#1268=DIRECTION('',(0.707106781,-0.,-0.707106781));
#1269=VECTOR('',#1268,14.142135624);
#1270=LINE('',#1267,#1269);
#1271=EDGE_CURVE('',#1220,#633,#1270,.T.);
#1272=ORIENTED_EDGE('',*,*,#1271,.T.);
#1273=EDGE_LOOP('',(#1259,#1265,#1266,#1272));
#1274=FACE_BOUND('',#1273,.T.);
#1275=ADVANCED_FACE('',(#1274),#1258,.F.);
#1276=CARTESIAN_POINT('',(0.,18.,0.));
#1277=DIRECTION('',(0.,-1.,0.));
#1278=DIRECTION('',(1.,0.,0.));
#1279=AXIS2_PLACEMENT_3D('',#1276,#1277,#1278);
#1280=PLANE('',#1279);
#1281=CARTESIAN_POINT('',(-31.,18.,-0.4));
#1282=VERTEX_POINT('',#1281);
#1283=CARTESIAN_POINT('',(-31.,18.,25.4));
#1284=VERTEX_POINT('',#1283);
#1285=CARTESIAN_POINT('',(-31.,18.,12.5));
#1286=DIRECTION('',(-0.,1.,-0.));
#1287=DIRECTION('',(0.,0.,-1.));
#1288=AXIS2_PLACEMENT_3D('',#1285,#1286,#1287);
#1289=CIRCLE('',#1288,12.9);
#1290=EDGE_CURVE('',#1282,#1284,#1289,.T.);
#1291=ORIENTED_EDGE('',*,*,#1290,.T.);
#1292=CARTESIAN_POINT('',(-31.,18.,12.5));
#1293=DIRECTION('',(-0.,1.,-0.));
#1294=DIRECTION('',(0.,0.,-1.));
#1295=AXIS2_PLACEMENT_3D('',#1292,#1293,#1294);
#1296=CIRCLE('',#1295,12.9);
#1297=EDGE_CURVE('',#1284,#1282,#1296,.T.);
#1298=ORIENTED_EDGE('',*,*,#1297,.T.);
#1299=EDGE_LOOP('',(#1291,#1298));
#1300=FACE_BOUND('',#1299,.T.);
#1301=ADVANCED_FACE('',(#1300),#1280,.F.);
#1302=CARTESIAN_POINT('',(-31.,18.,12.5));
#1303=DIRECTION('',(0.,1.,0.));
#1304=DIRECTION('',(0.,-0.,1.));
#1305=AXIS2_PLACEMENT_3D('',#1302,#1303,#1304);
#1306=CONICAL_SURFACE('',#1305,12.9,45.);
#1307=CARTESIAN_POINT('',(-31.,19.,26.4));
#1308=DIRECTION('',(-0.,-0.707106781,-0.707106781));
#1309=VECTOR('',#1308,1.414213562);
#1310=LINE('',#1307,#1309);
#1311=EDGE_CURVE('',#150,#1284,#1310,.T.);
#1312=ORIENTED_EDGE('',*,*,#1311,.F.);
#1313=ORIENTED_EDGE('',*,*,#170,.F.);
#1314=ORIENTED_EDGE('',*,*,#129,.T.);
#1315=CARTESIAN_POINT('',(-31.,19.,12.5));
#1316=DIRECTION('',(0.,-1.,0.));
#1317=DIRECTION('',(0.,0.,-1.));
#1318=AXIS2_PLACEMENT_3D('',#1315,#1316,#1317);
#1319=CIRCLE('',#1318,13.9);
#1320=EDGE_CURVE('',#150,#123,#1319,.T.);
#1321=ORIENTED_EDGE('',*,*,#1320,.F.);
#1322=ORIENTED_EDGE('',*,*,#1311,.T.);
#1323=ORIENTED_EDGE('',*,*,#1290,.F.);
#1324=ORIENTED_EDGE('',*,*,#1297,.F.);
#1325=EDGE_LOOP('',(#1312,#1313,#1314,#1321,#1322,#1323,#1324));
#1326=FACE_BOUND('',#1325,.T.);
#1327=ADVANCED_FACE('',(#1326),#1306,.F.);
#1328=CARTESIAN_POINT('',(13.,13.,10.));
#1329=DIRECTION('',(0.,0.,1.));
#1330=DIRECTION('',(1.,0.,-0.));
#1331=AXIS2_PLACEMENT_3D('',#1328,#1329,#1330);
#1332=CYLINDRICAL_SURFACE('',#1331,1.);
#1333=ORIENTED_EDGE('',*,*,#270,.F.);
#1334=CARTESIAN_POINT('',(13.,13.,17.));
#1335=DIRECTION('',(0.,0.,1.));
#1336=DIRECTION('',(1.,0.,-0.));
#1337=AXIS2_PLACEMENT_3D('',#1334,#1335,#1336);
#1338=CIRCLE('',#1337,1.);
#1339=EDGE_CURVE('',#257,#183,#1338,.T.);
#1340=ORIENTED_EDGE('',*,*,#1339,.T.);
#1341=ORIENTED_EDGE('',*,*,#188,.F.);
#1342=CARTESIAN_POINT('',(13.,13.,-4.));
#1343=DIRECTION('',(-0.,-0.,-1.));
#1344=DIRECTION('',(1.,0.,-0.));
#1345=AXIS2_PLACEMENT_3D('',#1342,#1343,#1344);
#1346=CIRCLE('',#1345,1.);
#1347=EDGE_CURVE('',#181,#265,#1346,.T.);
#1348=ORIENTED_EDGE('',*,*,#1347,.T.);
#1349=EDGE_LOOP('',(#1333,#1340,#1341,#1348));
#1350=FACE_BOUND('',#1349,.T.);
#1351=ADVANCED_FACE('',(#1350),#1332,.F.);
#1352=CARTESIAN_POINT('',(-31.,23.,12.5));
#1353=DIRECTION('',(0.,-1.,0.));
#1354=DIRECTION('',(0.,0.,-1.));
#1355=AXIS2_PLACEMENT_3D('',#1352,#1353,#1354);
#1356=CONICAL_SURFACE('',#1355,16.5,45.);
#1357=CARTESIAN_POINT('',(-31.,22.,12.5));
#1358=DIRECTION('',(-0.,-1.,-0.));
#1359=DIRECTION('',(0.,-0.,1.));
#1360=AXIS2_PLACEMENT_3D('',#1357,#1358,#1359);
#1361=CIRCLE('',#1360,17.5);
#1362=EDGE_CURVE('',#1187,#1238,#1361,.T.);
#1363=ORIENTED_EDGE('',*,*,#1362,.F.);
#1364=ORIENTED_EDGE('',*,*,#1209,.F.);
#1365=CARTESIAN_POINT('',(-14.386752274,22.,18.));
#1366=CARTESIAN_POINT('',(-14.628677054,22.334929691,17.665070309));
#1367=CARTESIAN_POINT('',(-14.874766451,22.668321098,17.331678902));
#1368=CARTESIAN_POINT('',(-15.125492134,23.,17.));
#1369=B_SPLINE_CURVE_WITH_KNOTS('',3,(#1365,#1366,#1367,#1368),.UNSPECIFIED.,.F.,.F.,(4,4),(0.,0.001595536),.UNSPECIFIED.);
#1370=EDGE_CURVE('',#470,#404,#1369,.T.);
#1371=ORIENTED_EDGE('',*,*,#1370,.T.);
#1372=ORIENTED_EDGE('',*,*,#410,.F.);
#1373=CARTESIAN_POINT('',(-48.5,22.,12.5));
#1374=DIRECTION('',(0.707106781,0.707106781,0.));
#1375=VECTOR('',#1374,1.414213562);
#1376=LINE('',#1373,#1375);
#1377=EDGE_CURVE('',#1238,#402,#1376,.T.);
#1378=ORIENTED_EDGE('',*,*,#1377,.F.);
#1379=EDGE_LOOP('',(#1363,#1364,#1371,#1372,#1378));
#1380=FACE_BOUND('',#1379,.T.);
#1381=ADVANCED_FACE('',(#1380),#1356,.T.);
#1382=CARTESIAN_POINT('',(-48.5,22.,3.75));
#1383=DIRECTION('',(-0.707106781,0.707106781,0.));
#1384=DIRECTION('',(0.,0.,1.));
#1385=AXIS2_PLACEMENT_3D('',#1382,#1383,#1384);
#1386=PLANE('',#1385);
#1387=ORIENTED_EDGE('',*,*,#457,.F.);
#1388=CARTESIAN_POINT('',(-47.5,23.,5.414213562));
#1389=DIRECTION('',(-0.678598345,-0.678598345,-0.281084638));
#1390=VECTOR('',#1389,1.473625758);
#1391=LINE('',#1388,#1390);
#1392=EDGE_CURVE('',#446,#1220,#1391,.T.);
#1393=ORIENTED_EDGE('',*,*,#1392,.T.);
#1394=ORIENTED_EDGE('',*,*,#1249,.F.);
#1395=ORIENTED_EDGE('',*,*,#1377,.T.);
#1396=EDGE_LOOP('',(#1387,#1393,#1394,#1395));
#1397=FACE_BOUND('',#1396,.T.);
#1398=ADVANCED_FACE('',(#1397),#1386,.T.);
#1399=CARTESIAN_POINT('',(-29.292893219,23.,-12.792893219));
#1400=DIRECTION('',(-0.5,0.707106781,-0.5));
#1401=DIRECTION('',(0.707106781,-0.,-0.707106781));
#1402=AXIS2_PLACEMENT_3D('',#1399,#1400,#1401);
#1403=PLANE('',#1402);
#1404=ORIENTED_EDGE('',*,*,#451,.F.);
#1405=CARTESIAN_POINT('',(-38.085786438,23.,-4.));
#1406=DIRECTION('',(-0.281084638,-0.678598345,-0.678598345));
#1407=VECTOR('',#1406,1.473625758);
#1408=LINE('',#1405,#1407);
#1409=EDGE_CURVE('',#438,#633,#1408,.T.);
#1410=ORIENTED_EDGE('',*,*,#1409,.T.);
#1411=ORIENTED_EDGE('',*,*,#1271,.F.);
#1412=ORIENTED_EDGE('',*,*,#1392,.F.);
#1413=EDGE_LOOP('',(#1404,#1410,#1411,#1412));
#1414=FACE_BOUND('',#1413,.T.);
#1415=ADVANCED_FACE('',(#1414),#1403,.T.);
#1416=CARTESIAN_POINT('',(0.,15.,-5.));
#1417=DIRECTION('',(0.,-0.707106781,-0.707106781));
#1418=DIRECTION('',(1.,0.,0.));
#1419=AXIS2_PLACEMENT_3D('',#1416,#1417,#1418);
#1420=PLANE('',#1419);
#1421=ORIENTED_EDGE('',*,*,#236,.F.);
#1422=CARTESIAN_POINT('',(-38.085786438,14.,-4.));
#1423=DIRECTION('',(-0.281084638,0.678598345,-0.678598345));
#1424=VECTOR('',#1423,1.473625758);
#1425=LINE('',#1422,#1424);
#1426=EDGE_CURVE('',#225,#625,#1425,.T.);
#1427=ORIENTED_EDGE('',*,*,#1426,.T.);
#1428=ORIENTED_EDGE('',*,*,#630,.F.);
#1429=CARTESIAN_POINT('',(13.,14.,-4.));
#1430=DIRECTION('',(0.,0.707106781,-0.707106781));
#1431=VECTOR('',#1430,1.414213562);
#1432=LINE('',#1429,#1431);
#1433=EDGE_CURVE('',#181,#616,#1432,.T.);
#1434=ORIENTED_EDGE('',*,*,#1433,.F.);
#1435=EDGE_LOOP('',(#1421,#1427,#1428,#1434));
#1436=FACE_BOUND('',#1435,.T.);
#1437=ADVANCED_FACE('',(#1436),#1420,.T.);
#1438=CARTESIAN_POINT('',(13.,13.,-5.));
#1439=DIRECTION('',(0.,0.,-1.));
#1440=DIRECTION('',(-1.,0.,0.));
#1441=AXIS2_PLACEMENT_3D('',#1438,#1439,#1440);
#1442=CONICAL_SURFACE('',#1441,2.,45.);
#1443=ORIENTED_EDGE('',*,*,#1433,.T.);
#1444=ORIENTED_EDGE('',*,*,#622,.F.);
#1445=CARTESIAN_POINT('',(14.,13.,-4.));
#1446=DIRECTION('',(0.707106781,0.,-0.707106781));
#1447=VECTOR('',#1446,1.414213562);
#1448=LINE('',#1445,#1447);
#1449=EDGE_CURVE('',#265,#614,#1448,.T.);
#1450=ORIENTED_EDGE('',*,*,#1449,.F.);
#1451=ORIENTED_EDGE('',*,*,#1347,.F.);
#1452=EDGE_LOOP('',(#1443,#1444,#1450,#1451));
#1453=FACE_BOUND('',#1452,.T.);
#1454=ADVANCED_FACE('',(#1453),#1442,.F.);
#1455=CARTESIAN_POINT('',(15.,0.,-5.));
#1456=DIRECTION('',(-0.707106781,0.,-0.707106781));
#1457=DIRECTION('',(0.,-1.,0.));
#1458=AXIS2_PLACEMENT_3D('',#1455,#1456,#1457);
#1459=PLANE('',#1458);
#1460=ORIENTED_EDGE('',*,*,#1449,.T.);
#1461=ORIENTED_EDGE('',*,*,#749,.F.);
#1462=CARTESIAN_POINT('',(14.,0.082778356,-4.));
#1463=DIRECTION('',(0.707106781,0.,-0.707106781));
#1464=VECTOR('',#1463,1.414213562);
#1465=LINE('',#1462,#1464);
#1466=EDGE_CURVE('',#247,#737,#1465,.T.);
#1467=ORIENTED_EDGE('',*,*,#1466,.F.);
#1468=ORIENTED_EDGE('',*,*,#276,.F.);
#1469=EDGE_LOOP('',(#1460,#1461,#1467,#1468));
#1470=FACE_BOUND('',#1469,.T.);
#1471=ADVANCED_FACE('',(#1470),#1459,.T.);
#1472=CARTESIAN_POINT('',(9.,0.082778356,-5.));
#1473=DIRECTION('',(0.,0.,-1.));
#1474=DIRECTION('',(-1.,0.,0.));
#1475=AXIS2_PLACEMENT_3D('',#1472,#1473,#1474);
#1476=CONICAL_SURFACE('',#1475,6.,45.);
#1477=ORIENTED_EDGE('',*,*,#1466,.T.);
#1478=ORIENTED_EDGE('',*,*,#743,.F.);
#1479=CARTESIAN_POINT('',(10.44640503,-4.703442751,-4.));
#1480=DIRECTION('',(0.204552561,-0.67687388,-0.707106781));
#1481=VECTOR('',#1480,1.414213562);
#1482=LINE('',#1479,#1481);
#1483=EDGE_CURVE('',#779,#728,#1482,.T.);
#1484=ORIENTED_EDGE('',*,*,#1483,.F.);
#1485=ORIENTED_EDGE('',*,*,#981,.F.);
#1486=EDGE_LOOP('',(#1477,#1478,#1484,#1485));
#1487=FACE_BOUND('',#1486,.T.);
#1488=ADVANCED_FACE('',(#1487),#1476,.F.);
#1489=CARTESIAN_POINT('',(8.528797872,1.642007981,-5.));
#1490=DIRECTION('',(0.,0.,-1.));
#1491=DIRECTION('',(-1.,0.,0.));
#1492=AXIS2_PLACEMENT_3D('',#1489,#1490,#1491);
#1493=CONICAL_SURFACE('',#1492,7.628873374,45.);
#1494=ORIENTED_EDGE('',*,*,#1483,.T.);
#1495=ORIENTED_EDGE('',*,*,#734,.F.);
#1496=CARTESIAN_POINT('',(5.234058107,-4.110091817,-4.));
#1497=DIRECTION('',(-0.351452305,-0.613580701,-0.707106781));
#1498=VECTOR('',#1497,1.414213562);
#1499=LINE('',#1496,#1498);
#1500=EDGE_CURVE('',#760,#719,#1499,.T.);
#1501=ORIENTED_EDGE('',*,*,#1500,.F.);
#1502=ORIENTED_EDGE('',*,*,#791,.F.);
#1503=EDGE_LOOP('',(#1494,#1495,#1501,#1502));
#1504=FACE_BOUND('',#1503,.T.);
#1505=ADVANCED_FACE('',(#1504),#1493,.F.);
#1506=CARTESIAN_POINT('',(7.719201191,0.228578929,-5.));
#1507=DIRECTION('',(0.,0.,-1.));
#1508=DIRECTION('',(-1.,0.,0.));
#1509=AXIS2_PLACEMENT_3D('',#1506,#1507,#1508);
#1510=CONICAL_SURFACE('',#1509,6.,45.);
#1511=ORIENTED_EDGE('',*,*,#1500,.T.);
#1512=ORIENTED_EDGE('',*,*,#725,.F.);
#1513=CARTESIAN_POINT('',(3.152284947,-1.806924943,-4.));
#1514=DIRECTION('',(-0.645859489,-0.287863718,-0.707106781));
#1515=VECTOR('',#1514,1.414213562);
#1516=LINE('',#1513,#1515);
#1517=EDGE_CURVE('',#821,#710,#1516,.T.);
#1518=ORIENTED_EDGE('',*,*,#1517,.F.);
#1519=ORIENTED_EDGE('',*,*,#1005,.F.);
#1520=EDGE_LOOP('',(#1511,#1512,#1518,#1519));
#1521=FACE_BOUND('',#1520,.T.);
#1522=ADVANCED_FACE('',(#1521),#1510,.F.);
#1523=CARTESIAN_POINT('',(-5.068160202,-5.470841094,-4.));
#1524=DIRECTION('',(0.,0.,1.));
#1525=DIRECTION('',(1.,0.,-0.));
#1526=AXIS2_PLACEMENT_3D('',#1523,#1524,#1525);
#1527=CONICAL_SURFACE('',#1526,9.,45.);
#1528=ORIENTED_EDGE('',*,*,#1517,.T.);
#1529=ORIENTED_EDGE('',*,*,#716,.F.);
#1530=CARTESIAN_POINT('',(-10.795333944,1.305141984,-4.12788268));
#1531=CARTESIAN_POINT('',(-10.40696577,1.247561871,-4.42256024));
#1532=CARTESIAN_POINT('',(-10.016562033,1.18099283,-4.714060071));
#1533=CARTESIAN_POINT('',(-9.625938895,1.103856875,-5.));
#1534=B_SPLINE_CURVE_WITH_KNOTS('',3,(#1530,#1531,#1532,#1533),.UNSPECIFIED.,.F.,.F.,(4,4),(0.004405211,0.005871587),.UNSPECIFIED.);
#1535=EDGE_CURVE('',#1046,#702,#1534,.T.);
#1536=ORIENTED_EDGE('',*,*,#1535,.F.);
#1537=ORIENTED_EDGE('',*,*,#1055,.F.);
#1538=ORIENTED_EDGE('',*,*,#833,.F.);
#1539=EDGE_LOOP('',(#1528,#1529,#1536,#1537,#1538));
#1540=FACE_BOUND('',#1539,.T.);
#1541=ADVANCED_FACE('',(#1540),#1527,.T.);
#1542=CARTESIAN_POINT('',(-9.926513961,-0.271653034,-4.));
#1543=DIRECTION('',(0.593511239,0.384375349,0.707106781));
#1544=DIRECTION('',(0.543588832,-0.839351644,0.));
#1545=AXIS2_PLACEMENT_3D('',#1542,#1543,#1544);
#1546=PLANE('',#1545);
#1547=ORIENTED_EDGE('',*,*,#1535,.T.);
#1548=ORIENTED_EDGE('',*,*,#707,.F.);
#1549=CARTESIAN_POINT('',(-9.277880762,-0.95015981,-4.175602636));
#1550=CARTESIAN_POINT('',(-9.229354182,-0.534004506,-4.442550876));
#1551=CARTESIAN_POINT('',(-9.16522482,-0.125189735,-4.718605105));
#1552=CARTESIAN_POINT('',(-9.089552247,0.275626072,-5.));
#1553=B_SPLINE_CURVE_WITH_KNOTS('',3,(#1549,#1550,#1551,#1552),.UNSPECIFIED.,.F.,.F.,(4,4),(0.004145982,0.005623772),.UNSPECIFIED.);
#1554=EDGE_CURVE('',#1094,#693,#1553,.T.);
#1555=ORIENTED_EDGE('',*,*,#1554,.F.);
#1556=ORIENTED_EDGE('',*,*,#1100,.F.);
#1557=ORIENTED_EDGE('',*,*,#873,.F.);
#1558=CARTESIAN_POINT('',(-10.301460206,1.227111658,-4.5));
#1559=DIRECTION('',(0.593511239,0.384375349,0.707106781));
#1560=DIRECTION('',(0.593511239,0.384375349,-0.707106781));
#1561=AXIS2_PLACEMENT_3D('',#1558,#1559,#1560);
#1562=ELLIPSE('',#1561,0.707106781,0.5);
#1563=EDGE_CURVE('',#1016,#862,#1562,.T.);
#1564=ORIENTED_EDGE('',*,*,#1563,.F.);
#1565=ORIENTED_EDGE('',*,*,#1062,.F.);
#1566=EDGE_LOOP('',(#1547,#1548,#1555,#1556,#1557,#1564,#1565));
#1567=FACE_BOUND('',#1566,.T.);
#1568=ADVANCED_FACE('',(#1567),#1546,.F.);
#1569=CARTESIAN_POINT('',(-5.005861898,-5.409747543,-5.));
#1570=DIRECTION('',(0.,0.,-1.));
#1571=DIRECTION('',(-1.,0.,0.));
#1572=AXIS2_PLACEMENT_3D('',#1569,#1570,#1571);
#1573=CONICAL_SURFACE('',#1572,7.,45.);
#1574=ORIENTED_EDGE('',*,*,#1554,.T.);
#1575=ORIENTED_EDGE('',*,*,#699,.F.);
#1576=CARTESIAN_POINT('',(0.649208028,-3.404707862,-4.));
#1577=DIRECTION('',(0.666456608,0.236295556,-0.707106781));
#1578=VECTOR('',#1577,1.414213562);
#1579=LINE('',#1576,#1578);
#1580=EDGE_CURVE('',#884,#684,#1579,.T.);
#1581=ORIENTED_EDGE('',*,*,#1580,.F.);
#1582=ORIENTED_EDGE('',*,*,#915,.F.);
#1583=ORIENTED_EDGE('',*,*,#1110,.F.);
#1584=EDGE_LOOP('',(#1574,#1575,#1581,#1582,#1583));
#1585=FACE_BOUND('',#1584,.T.);
#1586=ADVANCED_FACE('',(#1585),#1573,.F.);
#1587=CARTESIAN_POINT('',(5.361767897,-1.733845964,-5.));
#1588=DIRECTION('',(0.,0.,1.));
#1589=DIRECTION('',(1.,0.,-0.));
#1590=AXIS2_PLACEMENT_3D('',#1587,#1588,#1589);
#1591=CONICAL_SURFACE('',#1590,4.,45.);
#1592=ORIENTED_EDGE('',*,*,#1580,.T.);
#1593=ORIENTED_EDGE('',*,*,#690,.F.);
#1594=CARTESIAN_POINT('',(1.940816709,-5.380363887,-4.));
#1595=DIRECTION('',(0.483795557,0.51569551,-0.707106781));
#1596=VECTOR('',#1595,1.414213562);
#1597=LINE('',#1594,#1596);
#1598=EDGE_CURVE('',#945,#675,#1597,.T.);
#1599=ORIENTED_EDGE('',*,*,#1598,.F.);
#1600=ORIENTED_EDGE('',*,*,#1134,.F.);
#1601=EDGE_LOOP('',(#1592,#1593,#1599,#1600));
#1602=FACE_BOUND('',#1601,.T.);
#1603=ADVANCED_FACE('',(#1602),#1591,.T.);
#1604=CARTESIAN_POINT('',(8.528797872,1.642007981,-4.));
#1605=DIRECTION('',(0.,0.,1.));
#1606=DIRECTION('',(1.,0.,-0.));
#1607=AXIS2_PLACEMENT_3D('',#1604,#1605,#1606);
#1608=CONICAL_SURFACE('',#1607,9.628873374,45.);
#1609=ORIENTED_EDGE('',*,*,#1598,.T.);
#1610=ORIENTED_EDGE('',*,*,#681,.F.);
#1611=CARTESIAN_POINT('',(17.829687234,-0.849710208,-4.));
#1612=DIRECTION('',(-0.683020919,0.182982033,-0.707106781));
#1613=VECTOR('',#1612,1.414213562);
#1614=LINE('',#1611,#1613);
#1615=EDGE_CURVE('',#926,#666,#1614,.T.);
#1616=ORIENTED_EDGE('',*,*,#1615,.F.);
#1617=ORIENTED_EDGE('',*,*,#957,.F.);
#1618=EDGE_LOOP('',(#1609,#1610,#1616,#1617));
#1619=FACE_BOUND('',#1618,.T.);
#1620=ADVANCED_FACE('',(#1619),#1608,.T.);
#1621=CARTESIAN_POINT('',(13.,0.444168158,-5.));
#1622=DIRECTION('',(0.,0.,1.));
#1623=DIRECTION('',(1.,0.,-0.));
#1624=AXIS2_PLACEMENT_3D('',#1621,#1622,#1623);
#1625=CONICAL_SURFACE('',#1624,4.,45.);
#1626=ORIENTED_EDGE('',*,*,#1615,.T.);
#1627=ORIENTED_EDGE('',*,*,#672,.F.);
#1628=CARTESIAN_POINT('',(18.,0.444168158,-4.));
#1629=DIRECTION('',(-0.707106781,0.,-0.707106781));
#1630=VECTOR('',#1629,1.414213562);
#1631=LINE('',#1628,#1630);
#1632=EDGE_CURVE('',#369,#658,#1631,.T.);
#1633=ORIENTED_EDGE('',*,*,#1632,.F.);
#1634=ORIENTED_EDGE('',*,*,#1158,.F.);
#1635=EDGE_LOOP('',(#1626,#1627,#1633,#1634));
#1636=FACE_BOUND('',#1635,.T.);
#1637=ADVANCED_FACE('',(#1636),#1625,.T.);
#1638=CARTESIAN_POINT('',(17.,0.,-5.));
#1639=DIRECTION('',(0.707106781,0.,-0.707106781));
#1640=DIRECTION('',(0.,1.,0.));
#1641=AXIS2_PLACEMENT_3D('',#1638,#1639,#1640);
#1642=PLANE('',#1641);
#1643=ORIENTED_EDGE('',*,*,#1632,.T.);
#1644=ORIENTED_EDGE('',*,*,#663,.F.);
#1645=CARTESIAN_POINT('',(18.,21.,-4.));
#1646=DIRECTION('',(-0.707106781,0.,-0.707106781));
#1647=VECTOR('',#1646,1.414213562);
#1648=LINE('',#1645,#1647);
#1649=EDGE_CURVE('',#377,#649,#1648,.T.);
#1650=ORIENTED_EDGE('',*,*,#1649,.F.);
#1651=ORIENTED_EDGE('',*,*,#382,.F.);
#1652=EDGE_LOOP('',(#1643,#1644,#1650,#1651));
#1653=FACE_BOUND('',#1652,.T.);
#1654=ADVANCED_FACE('',(#1653),#1642,.T.);
#1655=CARTESIAN_POINT('',(16.,21.,-5.));
#1656=DIRECTION('',(0.,0.,1.));
#1657=DIRECTION('',(1.,0.,-0.));
#1658=AXIS2_PLACEMENT_3D('',#1655,#1656,#1657);
#1659=CONICAL_SURFACE('',#1658,1.,45.);
#1660=ORIENTED_EDGE('',*,*,#1649,.T.);
#1661=ORIENTED_EDGE('',*,*,#655,.F.);
#1662=CARTESIAN_POINT('',(16.,23.,-4.));
#1663=DIRECTION('',(0.,-0.707106781,-0.707106781));
#1664=VECTOR('',#1663,1.414213562);
#1665=LINE('',#1662,#1664);
#1666=EDGE_CURVE('',#430,#641,#1665,.T.);
#1667=ORIENTED_EDGE('',*,*,#1666,.F.);
#1668=ORIENTED_EDGE('',*,*,#1174,.F.);
#1669=EDGE_LOOP('',(#1660,#1661,#1667,#1668));
#1670=FACE_BOUND('',#1669,.T.);
#1671=ADVANCED_FACE('',(#1670),#1659,.T.);
#1672=CARTESIAN_POINT('',(0.,22.,-5.));
#1673=DIRECTION('',(0.,0.707106781,-0.707106781));
#1674=DIRECTION('',(-1.,0.,0.));
#1675=AXIS2_PLACEMENT_3D('',#1672,#1673,#1674);
#1676=PLANE('',#1675);
#1677=ORIENTED_EDGE('',*,*,#1409,.F.);
#1678=ORIENTED_EDGE('',*,*,#443,.F.);
#1679=ORIENTED_EDGE('',*,*,#1666,.T.);
#1680=ORIENTED_EDGE('',*,*,#646,.F.);
#1681=EDGE_LOOP('',(#1677,#1678,#1679,#1680));
#1682=FACE_BOUND('',#1681,.T.);
#1683=ADVANCED_FACE('',(#1682),#1676,.T.);
#1684=CARTESIAN_POINT('',(-29.292893219,14.,-12.792893219));
#1685=DIRECTION('',(-0.5,-0.707106781,-0.5));
#1686=DIRECTION('',(-0.707106781,-0.,0.707106781));
#1687=AXIS2_PLACEMENT_3D('',#1684,#1685,#1686);
#1688=PLANE('',#1687);
#1689=ORIENTED_EDGE('',*,*,#230,.F.);
#1690=CARTESIAN_POINT('',(-47.5,14.,5.414213562));
#1691=DIRECTION('',(-0.678598345,0.678598345,-0.281084638));
#1692=VECTOR('',#1691,1.473625758);
#1693=LINE('',#1690,#1692);
#1694=EDGE_CURVE('',#217,#1222,#1693,.T.);
#1695=ORIENTED_EDGE('',*,*,#1694,.T.);
#1696=ORIENTED_EDGE('',*,*,#1264,.F.);
#1697=ORIENTED_EDGE('',*,*,#1426,.F.);
#1698=EDGE_LOOP('',(#1689,#1695,#1696,#1697));
#1699=FACE_BOUND('',#1698,.T.);
#1700=ADVANCED_FACE('',(#1699),#1688,.T.);
#1701=CARTESIAN_POINT('',(-31.,15.,12.5));
#1702=DIRECTION('',(0.,1.,0.));
#1703=DIRECTION('',(0.,-0.,1.));
#1704=AXIS2_PLACEMENT_3D('',#1701,#1702,#1703);
#1705=CONICAL_SURFACE('',#1704,17.5,45.);
#1706=CARTESIAN_POINT('',(-31.,15.,30.));
#1707=DIRECTION('',(-0.,-0.707106781,-0.707106781));
#1708=VECTOR('',#1707,1.414213562);
#1709=LINE('',#1706,#1708);
#1710=EDGE_CURVE('',#1189,#199,#1709,.T.);
#1711=ORIENTED_EDGE('',*,*,#1710,.T.);
#1712=ORIENTED_EDGE('',*,*,#205,.F.);
#1713=CARTESIAN_POINT('',(-15.125492134,14.,17.));
#1714=CARTESIAN_POINT('',(-14.874766451,14.331678902,17.331678902));
#1715=CARTESIAN_POINT('',(-14.628677054,14.665070309,17.665070309));
#1716=CARTESIAN_POINT('',(-14.386752274,15.,18.));
#1717=B_SPLINE_CURVE_WITH_KNOTS('',3,(#1713,#1714,#1715,#1716),.UNSPECIFIED.,.F.,.F.,(4,4),(0.,0.001595536),.UNSPECIFIED.);
#1718=EDGE_CURVE('',#191,#468,#1717,.T.);
#1719=ORIENTED_EDGE('',*,*,#1718,.T.);
#1720=ORIENTED_EDGE('',*,*,#1201,.F.);
#1721=EDGE_LOOP('',(#1711,#1712,#1719,#1720));
#1722=FACE_BOUND('',#1721,.T.);
#1723=ADVANCED_FACE('',(#1722),#1705,.T.);
#1724=CARTESIAN_POINT('',(-47.5,14.,10.));
#1725=DIRECTION('',(-0.707106781,-0.707106781,0.));
#1726=DIRECTION('',(0.,0.,1.));
#1727=AXIS2_PLACEMENT_3D('',#1724,#1725,#1726);
#1728=PLANE('',#1727);
#1729=CARTESIAN_POINT('',(-47.5,14.,12.5));
#1730=DIRECTION('',(-0.707106781,0.707106781,0.));
#1731=VECTOR('',#1730,1.414213562);
#1732=LINE('',#1729,#1731);
#1733=EDGE_CURVE('',#208,#1230,#1732,.T.);
#1734=ORIENTED_EDGE('',*,*,#1733,.T.);
#1735=ORIENTED_EDGE('',*,*,#1235,.F.);
#1736=ORIENTED_EDGE('',*,*,#1694,.F.);
#1737=ORIENTED_EDGE('',*,*,#222,.F.);
#1738=EDGE_LOOP('',(#1734,#1735,#1736,#1737));
#1739=FACE_BOUND('',#1738,.T.);
#1740=ADVANCED_FACE('',(#1739),#1728,.T.);
#1741=CARTESIAN_POINT('',(-6.5,23.,17.));
#1742=DIRECTION('',(0.,-0.707106781,-0.707106781));
#1743=DIRECTION('',(1.,0.,0.));
#1744=AXIS2_PLACEMENT_3D('',#1741,#1742,#1743);
#1745=PLANE('',#1744);
#1746=ORIENTED_EDGE('',*,*,#1370,.F.);
#1747=ORIENTED_EDGE('',*,*,#603,.F.);
#1748=CARTESIAN_POINT('',(16.,23.,17.));
#1749=DIRECTION('',(0.,-0.707106781,0.707106781));
#1750=VECTOR('',#1749,1.414213562);
#1751=LINE('',#1748,#1750);
#1752=EDGE_CURVE('',#328,#591,#1751,.T.);
#1753=ORIENTED_EDGE('',*,*,#1752,.F.);
#1754=ORIENTED_EDGE('',*,*,#416,.F.);
#1755=EDGE_LOOP('',(#1746,#1747,#1753,#1754));
#1756=FACE_BOUND('',#1755,.T.);
#1757=ADVANCED_FACE('',(#1756),#1745,.F.);
#1758=CARTESIAN_POINT('',(16.,21.,18.));
#1759=DIRECTION('',(0.,0.,-1.));
#1760=DIRECTION('',(-1.,0.,0.));
#1761=AXIS2_PLACEMENT_3D('',#1758,#1759,#1760);
#1762=CONICAL_SURFACE('',#1761,1.,45.);
#1763=ORIENTED_EDGE('',*,*,#1752,.T.);
#1764=ORIENTED_EDGE('',*,*,#597,.F.);
#1765=CARTESIAN_POINT('',(18.,21.,17.));
#1766=DIRECTION('',(-0.707106781,0.,0.707106781));
#1767=VECTOR('',#1766,1.414213562);
#1768=LINE('',#1765,#1767);
#1769=EDGE_CURVE('',#336,#583,#1768,.T.);
#1770=ORIENTED_EDGE('',*,*,#1769,.F.);
#1771=ORIENTED_EDGE('',*,*,#342,.F.);
#1772=EDGE_LOOP('',(#1763,#1764,#1770,#1771));
#1773=FACE_BOUND('',#1772,.T.);
#1774=ADVANCED_FACE('',(#1773),#1762,.T.);
#1775=CARTESIAN_POINT('',(18.,8.5,17.));
#1776=DIRECTION('',(-0.707106781,0.,-0.707106781));
#1777=DIRECTION('',(0.,-1.,0.));
#1778=AXIS2_PLACEMENT_3D('',#1775,#1776,#1777);
#1779=PLANE('',#1778);
#1780=ORIENTED_EDGE('',*,*,#1769,.T.);
#1781=ORIENTED_EDGE('',*,*,#588,.F.);
#1782=CARTESIAN_POINT('',(18.,0.444168158,17.));
#1783=DIRECTION('',(-0.707106781,0.,0.707106781));
#1784=VECTOR('',#1783,1.414213562);
#1785=LINE('',#1782,#1784);
#1786=EDGE_CURVE('',#361,#574,#1785,.T.);
#1787=ORIENTED_EDGE('',*,*,#1786,.F.);
#1788=ORIENTED_EDGE('',*,*,#366,.F.);
#1789=EDGE_LOOP('',(#1780,#1781,#1787,#1788));
#1790=FACE_BOUND('',#1789,.T.);
#1791=ADVANCED_FACE('',(#1790),#1779,.F.);
#1792=CARTESIAN_POINT('',(13.,0.444168158,18.));
#1793=DIRECTION('',(0.,0.,-1.));
#1794=DIRECTION('',(-1.,0.,0.));
#1795=AXIS2_PLACEMENT_3D('',#1792,#1793,#1794);
#1796=CONICAL_SURFACE('',#1795,4.,45.);
#1797=ORIENTED_EDGE('',*,*,#1786,.T.);
#1798=ORIENTED_EDGE('',*,*,#580,.F.);
#1799=CARTESIAN_POINT('',(17.829687234,-0.849710208,17.));
#1800=DIRECTION('',(-0.683020919,0.182982033,0.707106781));
#1801=VECTOR('',#1800,1.414213562);
#1802=LINE('',#1799,#1801);
#1803=EDGE_CURVE('',#928,#565,#1802,.T.);
#1804=ORIENTED_EDGE('',*,*,#1803,.F.);
#1805=ORIENTED_EDGE('',*,*,#1150,.F.);
#1806=EDGE_LOOP('',(#1797,#1798,#1804,#1805));
#1807=FACE_BOUND('',#1806,.T.);
#1808=ADVANCED_FACE('',(#1807),#1796,.T.);
#1809=CARTESIAN_POINT('',(8.528797872,1.642007981,18.));
#1810=DIRECTION('',(0.,0.,-1.));
#1811=DIRECTION('',(-1.,0.,0.));
#1812=AXIS2_PLACEMENT_3D('',#1809,#1810,#1811);
#1813=CONICAL_SURFACE('',#1812,8.628873374,45.);
#1814=ORIENTED_EDGE('',*,*,#1803,.T.);
#1815=ORIENTED_EDGE('',*,*,#571,.F.);
#1816=CARTESIAN_POINT('',(1.940816709,-5.380363887,17.));
#1817=DIRECTION('',(0.483795557,0.51569551,0.707106781));
#1818=VECTOR('',#1817,1.414213562);
#1819=LINE('',#1816,#1818);
#1820=EDGE_CURVE('',#936,#556,#1819,.T.);
#1821=ORIENTED_EDGE('',*,*,#1820,.F.);
#1822=ORIENTED_EDGE('',*,*,#942,.F.);
#1823=EDGE_LOOP('',(#1814,#1815,#1821,#1822));
#1824=FACE_BOUND('',#1823,.T.);
#1825=ADVANCED_FACE('',(#1824),#1813,.T.);
#1826=CARTESIAN_POINT('',(5.361767897,-1.733845964,18.));
#1827=DIRECTION('',(0.,0.,-1.));
#1828=DIRECTION('',(-1.,0.,0.));
#1829=AXIS2_PLACEMENT_3D('',#1826,#1827,#1828);
#1830=CONICAL_SURFACE('',#1829,4.,45.);
#1831=ORIENTED_EDGE('',*,*,#1820,.T.);
#1832=ORIENTED_EDGE('',*,*,#562,.F.);
#1833=CARTESIAN_POINT('',(0.649208028,-3.404707862,17.));
#1834=DIRECTION('',(0.666456382,0.236296193,0.707106781));
#1835=VECTOR('',#1834,1.414213562);
#1836=LINE('',#1833,#1835);
#1837=EDGE_CURVE('',#886,#547,#1836,.T.);
#1838=ORIENTED_EDGE('',*,*,#1837,.F.);
#1839=ORIENTED_EDGE('',*,*,#1126,.F.);
#1840=EDGE_LOOP('',(#1831,#1832,#1838,#1839));
#1841=FACE_BOUND('',#1840,.T.);
#1842=ADVANCED_FACE('',(#1841),#1830,.T.);
#1843=CARTESIAN_POINT('',(-5.005861898,-5.409747543,17.));
#1844=DIRECTION('',(0.,0.,1.));
#1845=DIRECTION('',(1.,0.,-0.));
#1846=AXIS2_PLACEMENT_3D('',#1843,#1844,#1845);
#1847=CONICAL_SURFACE('',#1846,6.,45.);
#1848=ORIENTED_EDGE('',*,*,#1837,.T.);
#1849=ORIENTED_EDGE('',*,*,#553,.F.);
#1850=CARTESIAN_POINT('',(-9.277880762,-0.95015981,17.175602636));
#1851=CARTESIAN_POINT('',(-9.229354182,-0.534004506,17.442550876));
#1852=CARTESIAN_POINT('',(-9.16522482,-0.125189735,17.718605105));
#1853=CARTESIAN_POINT('',(-9.089552247,0.275626072,18.));
#1854=B_SPLINE_CURVE_WITH_KNOTS('',3,(#1850,#1851,#1852,#1853),.UNSPECIFIED.,.F.,.F.,(4,4),(0.004145982,0.005623772),.UNSPECIFIED.);
#1855=EDGE_CURVE('',#1074,#539,#1854,.T.);
#1856=ORIENTED_EDGE('',*,*,#1855,.F.);
#1857=ORIENTED_EDGE('',*,*,#1083,.F.);
#1858=ORIENTED_EDGE('',*,*,#900,.F.);
#1859=EDGE_LOOP('',(#1848,#1849,#1856,#1857,#1858));
#1860=FACE_BOUND('',#1859,.T.);
#1861=ADVANCED_FACE('',(#1860),#1847,.F.);
#1862=CARTESIAN_POINT('',(-6.277933446,-4.065774496,18.));
#1863=DIRECTION('',(-0.593511239,-0.384375349,0.707106781));
#1864=DIRECTION('',(-0.543588832,0.839351644,0.));
#1865=AXIS2_PLACEMENT_3D('',#1862,#1863,#1864);
#1866=PLANE('',#1865);
#1867=ORIENTED_EDGE('',*,*,#1855,.T.);
#1868=ORIENTED_EDGE('',*,*,#544,.F.);
#1869=CARTESIAN_POINT('',(-10.795333944,1.305141984,17.12788268));
#1870=CARTESIAN_POINT('',(-10.40696577,1.247561871,17.42256024));
#1871=CARTESIAN_POINT('',(-10.016562033,1.18099283,17.714060071));
#1872=CARTESIAN_POINT('',(-9.625938895,1.103856875,18.));
#1873=B_SPLINE_CURVE_WITH_KNOTS('',3,(#1869,#1870,#1871,#1872),.UNSPECIFIED.,.F.,.F.,(4,4),(0.0046116,0.006082813),.UNSPECIFIED.);
#1874=EDGE_CURVE('',#1026,#530,#1873,.T.);
#1875=ORIENTED_EDGE('',*,*,#1874,.F.);
#1876=ORIENTED_EDGE('',*,*,#1032,.F.);
#1877=CARTESIAN_POINT('',(-10.301460206,1.227111658,17.5));
#1878=DIRECTION('',(0.593511239,0.384375349,-0.707106781));
#1879=DIRECTION('',(-0.593511239,-0.384375349,-0.707106781));
#1880=AXIS2_PLACEMENT_3D('',#1877,#1878,#1879);
#1881=ELLIPSE('',#1880,0.707106781,0.5);
#1882=EDGE_CURVE('',#854,#1018,#1881,.T.);
#1883=ORIENTED_EDGE('',*,*,#1882,.F.);
#1884=ORIENTED_EDGE('',*,*,#859,.F.);
#1885=ORIENTED_EDGE('',*,*,#1090,.F.);
#1886=EDGE_LOOP('',(#1867,#1868,#1875,#1876,#1883,#1884,#1885));
#1887=FACE_BOUND('',#1886,.T.);
#1888=ADVANCED_FACE('',(#1887),#1866,.T.);
#1889=CARTESIAN_POINT('',(-5.068160202,-5.470841094,18.));
#1890=DIRECTION('',(0.,0.,-1.));
#1891=DIRECTION('',(-1.,0.,0.));
#1892=AXIS2_PLACEMENT_3D('',#1889,#1890,#1891);
#1893=CONICAL_SURFACE('',#1892,8.,45.);
#1894=ORIENTED_EDGE('',*,*,#1874,.T.);
#1895=ORIENTED_EDGE('',*,*,#536,.F.);
#1896=CARTESIAN_POINT('',(3.152284947,-1.806924943,17.));
#1897=DIRECTION('',(-0.645859489,-0.287863718,0.707106781));
#1898=VECTOR('',#1897,1.414213562);
#1899=LINE('',#1896,#1898);
#1900=EDGE_CURVE('',#812,#521,#1899,.T.);
#1901=ORIENTED_EDGE('',*,*,#1900,.F.);
#1902=ORIENTED_EDGE('',*,*,#818,.F.);
#1903=ORIENTED_EDGE('',*,*,#1042,.F.);
#1904=EDGE_LOOP('',(#1894,#1895,#1901,#1902,#1903));
#1905=FACE_BOUND('',#1904,.T.);
#1906=ADVANCED_FACE('',(#1905),#1893,.T.);
#1907=CARTESIAN_POINT('',(7.719201191,0.228578929,18.));
#1908=DIRECTION('',(0.,0.,1.));
#1909=DIRECTION('',(1.,0.,-0.));
#1910=AXIS2_PLACEMENT_3D('',#1907,#1908,#1909);
#1911=CONICAL_SURFACE('',#1910,6.,45.);
#1912=ORIENTED_EDGE('',*,*,#1900,.T.);
#1913=ORIENTED_EDGE('',*,*,#527,.F.);
#1914=CARTESIAN_POINT('',(5.234058107,-4.110091817,17.));
#1915=DIRECTION('',(-0.351452305,-0.613580701,0.707106781));
#1916=VECTOR('',#1915,1.414213562);
#1917=LINE('',#1914,#1916);
#1918=EDGE_CURVE('',#762,#512,#1917,.T.);
#1919=ORIENTED_EDGE('',*,*,#1918,.F.);
#1920=ORIENTED_EDGE('',*,*,#997,.F.);
#1921=EDGE_LOOP('',(#1912,#1913,#1919,#1920));
#1922=FACE_BOUND('',#1921,.T.);
#1923=ADVANCED_FACE('',(#1922),#1911,.F.);
#1924=CARTESIAN_POINT('',(8.528797872,1.642007981,17.));
#1925=DIRECTION('',(0.,0.,1.));
#1926=DIRECTION('',(1.,0.,-0.));
#1927=AXIS2_PLACEMENT_3D('',#1924,#1925,#1926);
#1928=CONICAL_SURFACE('',#1927,6.628873374,45.);
#1929=ORIENTED_EDGE('',*,*,#1918,.T.);
#1930=ORIENTED_EDGE('',*,*,#518,.F.);
#1931=CARTESIAN_POINT('',(10.44640503,-4.703442751,17.));
#1932=DIRECTION('',(0.204552561,-0.67687388,0.707106781));
#1933=VECTOR('',#1932,1.414213562);
#1934=LINE('',#1931,#1933);
#1935=EDGE_CURVE('',#770,#503,#1934,.T.);
#1936=ORIENTED_EDGE('',*,*,#1935,.F.);
#1937=ORIENTED_EDGE('',*,*,#776,.F.);
#1938=EDGE_LOOP('',(#1929,#1930,#1936,#1937));
#1939=FACE_BOUND('',#1938,.T.);
#1940=ADVANCED_FACE('',(#1939),#1928,.F.);
#1941=CARTESIAN_POINT('',(9.,0.082778356,18.));
#1942=DIRECTION('',(0.,0.,1.));
#1943=DIRECTION('',(1.,0.,-0.));
#1944=AXIS2_PLACEMENT_3D('',#1941,#1942,#1943);
#1945=CONICAL_SURFACE('',#1944,6.,45.);
#1946=ORIENTED_EDGE('',*,*,#1935,.T.);
#1947=ORIENTED_EDGE('',*,*,#509,.F.);
#1948=CARTESIAN_POINT('',(14.,0.082778356,17.));
#1949=DIRECTION('',(0.707106781,0.,0.707106781));
#1950=VECTOR('',#1949,1.414213562);
#1951=LINE('',#1948,#1950);
#1952=EDGE_CURVE('',#249,#495,#1951,.T.);
#1953=ORIENTED_EDGE('',*,*,#1952,.F.);
#1954=ORIENTED_EDGE('',*,*,#973,.F.);
#1955=EDGE_LOOP('',(#1946,#1947,#1953,#1954));
#1956=FACE_BOUND('',#1955,.T.);
#1957=ADVANCED_FACE('',(#1956),#1945,.F.);
#1958=CARTESIAN_POINT('',(-6.5,14.,17.));
#1959=DIRECTION('',(0.,0.707106781,-0.707106781));
#1960=DIRECTION('',(-1.,0.,0.));
#1961=AXIS2_PLACEMENT_3D('',#1958,#1959,#1960);
#1962=PLANE('',#1961);
#1963=ORIENTED_EDGE('',*,*,#1718,.F.);
#1964=ORIENTED_EDGE('',*,*,#196,.F.);
#1965=CARTESIAN_POINT('',(13.,15.,18.));
#1966=DIRECTION('',(0.,-0.707106781,-0.707106781));
#1967=VECTOR('',#1966,1.414213562);
#1968=LINE('',#1965,#1967);
#1969=EDGE_CURVE('',#478,#183,#1968,.T.);
#1970=ORIENTED_EDGE('',*,*,#1969,.F.);
#1971=ORIENTED_EDGE('',*,*,#483,.F.);
#1972=EDGE_LOOP('',(#1963,#1964,#1970,#1971));
#1973=FACE_BOUND('',#1972,.T.);
#1974=ADVANCED_FACE('',(#1973),#1962,.F.);
#1975=CARTESIAN_POINT('',(14.,7.5,17.));
#1976=DIRECTION('',(0.707106781,0.,-0.707106781));
#1977=DIRECTION('',(0.,1.,0.));
#1978=AXIS2_PLACEMENT_3D('',#1975,#1976,#1977);
#1979=PLANE('',#1978);
#1980=ORIENTED_EDGE('',*,*,#1952,.T.);
#1981=ORIENTED_EDGE('',*,*,#500,.F.);
#1982=CARTESIAN_POINT('',(14.,13.,17.));
#1983=DIRECTION('',(0.707106781,0.,0.707106781));
#1984=VECTOR('',#1983,1.414213562);
#1985=LINE('',#1982,#1984);
#1986=EDGE_CURVE('',#257,#486,#1985,.T.);
#1987=ORIENTED_EDGE('',*,*,#1986,.F.);
#1988=ORIENTED_EDGE('',*,*,#262,.F.);
#1989=EDGE_LOOP('',(#1980,#1981,#1987,#1988));
#1990=FACE_BOUND('',#1989,.T.);
#1991=ADVANCED_FACE('',(#1990),#1979,.F.);
#1992=CARTESIAN_POINT('',(13.,13.,18.));
#1993=DIRECTION('',(0.,0.,1.));
#1994=DIRECTION('',(1.,0.,-0.));
#1995=AXIS2_PLACEMENT_3D('',#1992,#1993,#1994);
#1996=CONICAL_SURFACE('',#1995,2.,45.);
#1997=ORIENTED_EDGE('',*,*,#1969,.T.);
#1998=ORIENTED_EDGE('',*,*,#1339,.F.);
#1999=ORIENTED_EDGE('',*,*,#1986,.T.);
#2000=ORIENTED_EDGE('',*,*,#492,.F.);
#2001=EDGE_LOOP('',(#1997,#1998,#1999,#2000));
#2002=FACE_BOUND('',#2001,.T.);
#2003=ADVANCED_FACE('',(#2002),#1996,.F.);
#2004=CARTESIAN_POINT('',(-31.,11.3,12.5));
#2005=DIRECTION('',(0.,1.,0.));
#2006=DIRECTION('',(0.,-0.,1.));
#2007=AXIS2_PLACEMENT_3D('',#2004,#2005,#2006);
#2008=CYLINDRICAL_SURFACE('',#2007,13.9);
#2009=ORIENTED_EDGE('',*,*,#155,.T.);
#2010=ORIENTED_EDGE('',*,*,#1320,.T.);
#2011=ORIENTED_EDGE('',*,*,#292,.T.);
#2012=ORIENTED_EDGE('',*,*,#426,.T.);
#2013=EDGE_LOOP('',(#2009,#2010,#2011,#2012));
#2014=FACE_BOUND('',#2013,.T.);
#2015=ADVANCED_FACE('',(#2014),#2008,.F.);
#2016=CARTESIAN_POINT('',(-10.301460206,1.227111658,10.));
#2017=DIRECTION('',(0.,0.,-1.));
#2018=DIRECTION('',(-1.,0.,0.));
#2019=AXIS2_PLACEMENT_3D('',#2016,#2017,#2018);
#2020=CYLINDRICAL_SURFACE('',#2019,0.5);
#2021=ORIENTED_EDGE('',*,*,#1023,.F.);
#2022=ORIENTED_EDGE('',*,*,#1563,.T.);
#2023=ORIENTED_EDGE('',*,*,#867,.F.);
#2024=ORIENTED_EDGE('',*,*,#1882,.T.);
#2025=EDGE_LOOP('',(#2021,#2022,#2023,#2024));
#2026=FACE_BOUND('',#2025,.T.);
#2027=ADVANCED_FACE('',(#2026),#2020,.T.);
#2028=CARTESIAN_POINT('',(-31.,15.,12.5));
#2029=DIRECTION('',(0.,1.,0.));
#2030=DIRECTION('',(0.,-0.,1.));
#2031=AXIS2_PLACEMENT_3D('',#2028,#2029,#2030);
#2032=CYLINDRICAL_SURFACE('',#2031,17.5);
#2033=ORIENTED_EDGE('',*,*,#1194,.F.);
#2034=ORIENTED_EDGE('',*,*,#1362,.T.);
#2035=ORIENTED_EDGE('',*,*,#1243,.F.);
#2036=CARTESIAN_POINT('',(-31.,15.,12.5));
#2037=DIRECTION('',(-0.,1.,-0.));
#2038=DIRECTION('',(0.,0.,-1.));
#2039=AXIS2_PLACEMENT_3D('',#2036,#2037,#2038);
#2040=CIRCLE('',#2039,17.5);
#2041=EDGE_CURVE('',#1230,#1189,#2040,.T.);
#2042=ORIENTED_EDGE('',*,*,#2041,.T.);
#2043=EDGE_LOOP('',(#2033,#2034,#2035,#2042));
#2044=FACE_BOUND('',#2043,.T.);
#2045=ADVANCED_FACE('',(#2044),#2032,.T.);
#2046=CARTESIAN_POINT('',(-31.,15.,12.5));
#2047=DIRECTION('',(0.,1.,0.));
#2048=DIRECTION('',(0.,-0.,1.));
#2049=AXIS2_PLACEMENT_3D('',#2046,#2047,#2048);
#2050=CONICAL_SURFACE('',#2049,17.5,45.);
#2051=ORIENTED_EDGE('',*,*,#1710,.F.);
#2052=ORIENTED_EDGE('',*,*,#2041,.F.);
#2053=ORIENTED_EDGE('',*,*,#1733,.F.);
#2054=ORIENTED_EDGE('',*,*,#214,.F.);
#2055=EDGE_LOOP('',(#2051,#2052,#2053,#2054));
#2056=FACE_BOUND('',#2055,.T.);
#2057=ADVANCED_FACE('',(#2056),#2050,.T.);
#2058=CLOSED_SHELL('',(#68,#116,#141,#174,#240,#280,#321,#353,#395,#461,#607,#753,#795,#837,#877,#919,#961,#985,#1009,#1066,#1114,#1138,#1162,#1180,#1213,#1253,
#1275,#1301,#1327,#1351,#1381,#1398,#1415,#1437,#1454,#1471,#1488,#1505,#1522,#1541,#1568,#1586,#1603,#1620,#1637,#1654,#1671,#1683,#1700,#1723,#1740,
#1757,#1774,#1791,#1808,#1825,#1842,#1861,#1888,#1906,#1923,#1940,#1957,#1974,#1991,#2003,#2015,#2027,#2045,#2057));
#2059=MANIFOLD_SOLID_BREP('Body 03',#2058);
#2060=COLOUR_RGB('',0.690196097,0.,1.);
#2061=FILL_AREA_STYLE_COLOUR('',#2060);
#2062=FILL_AREA_STYLE('',(#2061));
#2063=SURFACE_STYLE_FILL_AREA(#2062);
#2064=SURFACE_SIDE_STYLE('',(#2063));
#2065=SURFACE_STYLE_USAGE(.BOTH.,#2064);
#2066=PRESENTATION_STYLE_ASSIGNMENT((#2065));
#26=STYLED_ITEM('',(#2066),#2059);
#16=SHAPE_REPRESENTATION('root',(#15),#10);
#17=ADVANCED_BREP_SHAPE_REPRESENTATION('root',(#2059),#10);
#2074=SHAPE_REPRESENTATION_RELATIONSHIP('','',#16,#17);
#2075=APPLICATION_CONTEXT('data for automotive mechanical design processes');
#2076=APPLICATION_PROTOCOL_DEFINITION('international standard','automotive_design',1994,#2075);
#2077=PRODUCT_CONTEXT('',#2075,'mechanical');
#2078=PRODUCT_DEFINITION_CONTEXT('part definition',#2075,'design');
#24=PRODUCT('root','root','',(#2077));
#2079=PRODUCT_RELATED_PRODUCT_CATEGORY('part','',(#24));
#2080=PRODUCT_DEFINITION_FORMATION_WITH_SPECIFIED_SOURCE('','',#24,.NOT_KNOWN.);
#25=PRODUCT_DEFINITION('design','',#2080,#2078);
#23=PRODUCT_DEFINITION_SHAPE('','',#25);
#2081=SHAPE_DEFINITION_REPRESENTATION(#23,#16);
#11=DRAUGHTING_MODEL('',(),#10);
#1=MECHANICAL_DESIGN_GEOMETRIC_PRESENTATION_REPRESENTATION('',(#26),#10);
ENDSEC;
END-ISO-10303-21;
