ISO-10303-21;
HEADER;
FILE_DESCRIPTION(('Open CASCADE Model'),'2;1');
FILE_NAME('Open CASCADE Shape Model','1970-01-01T00:00:00',('Author'),(
    'Open CASCADE'),'Open CASCADE STEP processor 7.9','Open CASCADE 7.9'
  ,'Unknown');
FILE_SCHEMA(('AUTOMOTIVE_DESIGN { 1 0 10303 214 1 1 1 1 }'));
ENDSEC;
DATA;
#1 = APPLICATION_PROTOCOL_DEFINITION('international standard',
  'automotive_design',2000,#2);
#2 = APPLICATION_CONTEXT(
  'core data for automotive mechanical design processes');
#3 = SHAPE_DEFINITION_REPRESENTATION(#4,#10);
#4 = PRODUCT_DEFINITION_SHAPE('','',#5);
#5 = PRODUCT_DEFINITION('design','',#6,#9);
#6 = PRODUCT_DEFINITION_FORMATION('','',#7);
#7 = PRODUCT('Open CASCADE STEP translator 7.9 1',
  'Open CASCADE STEP translator 7.9 1','',(#8));
#8 = PRODUCT_CONTEXT('',#2,'mechanical');
#9 = PRODUCT_DEFINITION_CONTEXT('part definition',#2,'design');
#10 = ADVANCED_BREP_SHAPE_REPRESENTATION('',(#11,#15),#945);
#11 = AXIS2_PLACEMENT_3D('',#12,#13,#14);
#12 = CARTESIAN_POINT('',(0.,0.,0.));
#13 = DIRECTION('',(0.,0.,1.));
#14 = DIRECTION('',(1.,0.,-0.));
#15 = MANIFOLD_SOLID_BREP('',#16);
#16 = CLOSED_SHELL('',(#17,#192,#694,#698,#753,#827,#882,#937,#941));
#17 = ADVANCED_FACE('',(#18),#42,.T.);
#18 = FACE_BOUND('',#19,.T.);
#19 = EDGE_LOOP('',(#20,#118,#141,#191));
#20 = ORIENTED_EDGE('',*,*,#21,.T.);
#21 = EDGE_CURVE('',#22,#22,#24,.T.);
#22 = VERTEX_POINT('',#23);
#23 = CARTESIAN_POINT('',(52.,0.,0.));
#24 = SURFACE_CURVE('',#25,(#41,#94),.PCURVE_S1.);
#25 = B_SPLINE_CURVE_WITH_KNOTS('',14,(#26,#27,#28,#29,#30,#31,#32,#33,
    #34,#35,#36,#37,#38,#39,#40),.UNSPECIFIED.,.T.,.F.,(15,15),(0.,1.),
  .PIECEWISE_BEZIER_KNOTS.);
#26 = CARTESIAN_POINT('',(52.,-3.725873739088E-14,0.));
#27 = CARTESIAN_POINT('',(52.000000000013,15.259164317447,0.));
#28 = CARTESIAN_POINT('',(40.720453217574,30.518334267376,0.));
#29 = CARTESIAN_POINT('',(18.161345233183,41.915857783489,0.));
#30 = CARTESIAN_POINT('',(-12.30375196658,45.590518258085,0.));
#31 = CARTESIAN_POINT('',(-43.92833434068,39.065213274341,0.));
#32 = CARTESIAN_POINT('',(-68.07016848662,22.640098339001,0.));
#33 = CARTESIAN_POINT('',(-77.1590873061,4.300264933349E-10,0.));
#34 = CARTESIAN_POINT('',(-68.07016848664,-22.64009833978,0.));
#35 = CARTESIAN_POINT('',(-43.92833434065,-39.06521327373,0.));
#36 = CARTESIAN_POINT('',(-12.30375196661,-45.59051825846,0.));
#37 = CARTESIAN_POINT('',(18.1613452332,-41.91585778329,0.));
#38 = CARTESIAN_POINT('',(40.720453217567,-30.51833426744,0.));
#39 = CARTESIAN_POINT('',(52.000000000015,-15.25916431743,0.));
#40 = CARTESIAN_POINT('',(52.,4.800639058695E-14,0.));
#41 = PCURVE('',#42,#88);
#42 = B_SPLINE_SURFACE_WITH_KNOTS('',14,2,(
    (#43,#44,#45)
    ,(#46,#47,#48)
    ,(#49,#50,#51)
    ,(#52,#53,#54)
    ,(#55,#56,#57)
    ,(#58,#59,#60)
    ,(#61,#62,#63)
    ,(#64,#65,#66)
    ,(#67,#68,#69)
    ,(#70,#71,#72)
    ,(#73,#74,#75)
    ,(#76,#77,#78)
    ,(#79,#80,#81)
    ,(#82,#83,#84)
    ,(#85,#86,#87
    )),.UNSPECIFIED.,.T.,.F.,.F.,(15,15),(3,3),(0.,1.),(0.,1.),
  .PIECEWISE_BEZIER_KNOTS.);
#43 = CARTESIAN_POINT('',(52.,-3.725873739088E-14,0.));
#44 = CARTESIAN_POINT('',(49.,-3.227066721248E-14,18.));
#45 = CARTESIAN_POINT('',(26.,1.984540710143E-15,28.));
#46 = CARTESIAN_POINT('',(52.000000000013,15.259164317447,0.));
#47 = CARTESIAN_POINT('',(48.999999999997,13.239569040137,18.));
#48 = CARTESIAN_POINT('',(26.000000000007,6.731984257698,28.));
#49 = CARTESIAN_POINT('',(40.720453217574,30.518334267376,0.));
#50 = CARTESIAN_POINT('',(38.37119630125,26.479142967286,18.));
#51 = CARTESIAN_POINT('',(20.360226608787,13.46397100031,28.));
#52 = CARTESIAN_POINT('',(18.161345233183,41.915857783489,0.));
#53 = CARTESIAN_POINT('',(17.113575315668,36.368170723902,18.));
#54 = CARTESIAN_POINT('',(9.080672616591,18.492290198606,28.));
#55 = CARTESIAN_POINT('',(-12.30375196658,45.590518258085,0.));
#56 = CARTESIAN_POINT('',(-11.59392012189,39.55647907688,18.));
#57 = CARTESIAN_POINT('',(-6.151875983294,20.113463937373,28.));
#58 = CARTESIAN_POINT('',(-43.92833434068,39.065213274341,0.));
#59 = CARTESIAN_POINT('',(-41.39400736027,33.894817399786,18.));
#60 = CARTESIAN_POINT('',(-21.96416717034,17.234652915179,28.));
#61 = CARTESIAN_POINT('',(-68.07016848662,22.640098339001,0.));
#62 = CARTESIAN_POINT('',(-64.14304338054,19.643614735307,18.));
#63 = CARTESIAN_POINT('',(-34.03508424331,9.988278678931,28.));
#64 = CARTESIAN_POINT('',(-77.1590873061,4.300264933349E-10,0.));
#65 = CARTESIAN_POINT('',(-72.70760150119,3.935226270508E-10,18.));
#66 = CARTESIAN_POINT('',(-38.57954365305,2.345583227555E-10,28.));
#67 = CARTESIAN_POINT('',(-68.07016848664,-22.64009833978,0.));
#68 = CARTESIAN_POINT('',(-64.14304338053,-19.64361473602,18.));
#69 = CARTESIAN_POINT('',(-34.03508424332,-9.988278679361,28.));
#70 = CARTESIAN_POINT('',(-43.92833434065,-39.06521327373,0.));
#71 = CARTESIAN_POINT('',(-41.39400736029,-33.89481739923,18.));
#72 = CARTESIAN_POINT('',(-21.96416717032,-17.23465291485,28.));
#73 = CARTESIAN_POINT('',(-12.30375196661,-45.59051825846,0.));
#74 = CARTESIAN_POINT('',(-11.59392012188,-39.55647907722,18.));
#75 = CARTESIAN_POINT('',(-6.151875983308,-20.11346393758,28.));
#76 = CARTESIAN_POINT('',(18.1613452332,-41.91585778329,0.));
#77 = CARTESIAN_POINT('',(17.113575315657,-36.36817072372,18.));
#78 = CARTESIAN_POINT('',(9.0806726166,-18.4922901985,28.));
#79 = CARTESIAN_POINT('',(40.720453217567,-30.51833426744,0.));
#80 = CARTESIAN_POINT('',(38.371196301255,-26.47914296734,18.));
#81 = CARTESIAN_POINT('',(20.360226608783,-13.46397100034,28.));
#82 = CARTESIAN_POINT('',(52.000000000015,-15.25916431743,0.));
#83 = CARTESIAN_POINT('',(48.999999999996,-13.23956904012,18.));
#84 = CARTESIAN_POINT('',(26.000000000008,-6.731984257689,28.));
#85 = CARTESIAN_POINT('',(52.,4.800639058695E-14,0.));
#86 = CARTESIAN_POINT('',(49.,-1.450709909037E-14,18.));
#87 = CARTESIAN_POINT('',(26.,-5.120886785709E-15,28.));
#88 = DEFINITIONAL_REPRESENTATION('',(#89),#93);
#89 = LINE('',#90,#91);
#90 = CARTESIAN_POINT('',(0.,0.));
#91 = VECTOR('',#92,1.);
#92 = DIRECTION('',(1.,0.));
#93 = ( GEOMETRIC_REPRESENTATION_CONTEXT(2) 
PARAMETRIC_REPRESENTATION_CONTEXT() REPRESENTATION_CONTEXT('2D SPACE',''
  ) );
#94 = PCURVE('',#95,#100);
#95 = PLANE('',#96);
#96 = AXIS2_PLACEMENT_3D('',#97,#98,#99);
#97 = CARTESIAN_POINT('',(52.,-3.725873739088E-14,0.));
#98 = DIRECTION('',(0.,0.,-1.));
#99 = DIRECTION('',(-1.,4.180383301122E-16,0.));
#100 = DEFINITIONAL_REPRESENTATION('',(#101),#117);
#101 = B_SPLINE_CURVE_WITH_KNOTS('',14,(#102,#103,#104,#105,#106,#107,
    #108,#109,#110,#111,#112,#113,#114,#115,#116),.UNSPECIFIED.,.F.,.F.,
  (15,15),(0.,1.),.PIECEWISE_BEZIER_KNOTS.);
#102 = CARTESIAN_POINT('',(0.,0.));
#103 = CARTESIAN_POINT('',(-1.344346856058E-11,15.259164317447));
#104 = CARTESIAN_POINT('',(11.279546782426,30.518334267376));
#105 = CARTESIAN_POINT('',(33.838654766817,41.915857783489));
#106 = CARTESIAN_POINT('',(64.303751966587,45.590518258085));
#107 = CARTESIAN_POINT('',(95.928334340688,39.065213274341));
#108 = CARTESIAN_POINT('',(120.07016848662,22.640098339001));
#109 = CARTESIAN_POINT('',(129.1590873061,4.300097586231E-10));
#110 = CARTESIAN_POINT('',(120.07016848664,-22.64009833978));
#111 = CARTESIAN_POINT('',(95.928334340656,-39.06521327373));
#112 = CARTESIAN_POINT('',(64.303751966616,-45.59051825846));
#113 = CARTESIAN_POINT('',(33.8386547668,-41.91585778329));
#114 = CARTESIAN_POINT('',(11.279546782433,-30.51833426744));
#115 = CARTESIAN_POINT('',(-1.514166569905E-11,-15.25916431743));
#116 = CARTESIAN_POINT('',(2.13162820728E-14,8.526512797784E-14));
#117 = ( GEOMETRIC_REPRESENTATION_CONTEXT(2) 
PARAMETRIC_REPRESENTATION_CONTEXT() REPRESENTATION_CONTEXT('2D SPACE',''
  ) );
#118 = ORIENTED_EDGE('',*,*,#119,.T.);
#119 = EDGE_CURVE('',#22,#120,#122,.T.);
#120 = VERTEX_POINT('',#121);
#121 = CARTESIAN_POINT('',(26.,0.,28.));
#122 = SEAM_CURVE('',#123,(#127,#134),.PCURVE_S1.);
#123 = B_SPLINE_CURVE_WITH_KNOTS('',2,(#124,#125,#126),.UNSPECIFIED.,.F.
  ,.F.,(3,3),(0.,1.),.PIECEWISE_BEZIER_KNOTS.);
#124 = CARTESIAN_POINT('',(52.,-3.725873739088E-14,0.));
#125 = CARTESIAN_POINT('',(49.,-3.227066721248E-14,18.));
#126 = CARTESIAN_POINT('',(26.,1.984540710143E-15,28.));
#127 = PCURVE('',#42,#128);
#128 = DEFINITIONAL_REPRESENTATION('',(#129),#133);
#129 = LINE('',#130,#131);
#130 = CARTESIAN_POINT('',(1.,0.));
#131 = VECTOR('',#132,1.);
#132 = DIRECTION('',(0.,1.));
#133 = ( GEOMETRIC_REPRESENTATION_CONTEXT(2) 
PARAMETRIC_REPRESENTATION_CONTEXT() REPRESENTATION_CONTEXT('2D SPACE',''
  ) );
#134 = PCURVE('',#42,#135);
#135 = DEFINITIONAL_REPRESENTATION('',(#136),#140);
#136 = LINE('',#137,#138);
#137 = CARTESIAN_POINT('',(0.,0.));
#138 = VECTOR('',#139,1.);
#139 = DIRECTION('',(0.,1.));
#140 = ( GEOMETRIC_REPRESENTATION_CONTEXT(2) 
PARAMETRIC_REPRESENTATION_CONTEXT() REPRESENTATION_CONTEXT('2D SPACE',''
  ) );
#141 = ORIENTED_EDGE('',*,*,#142,.F.);
#142 = EDGE_CURVE('',#120,#120,#143,.T.);
#143 = SURFACE_CURVE('',#144,(#160,#167),.PCURVE_S1.);
#144 = B_SPLINE_CURVE_WITH_KNOTS('',14,(#145,#146,#147,#148,#149,#150,
    #151,#152,#153,#154,#155,#156,#157,#158,#159),.UNSPECIFIED.,.T.,.F.,
  (15,15),(0.,1.),.PIECEWISE_BEZIER_KNOTS.);
#145 = CARTESIAN_POINT('',(26.,1.984540710143E-15,28.));
#146 = CARTESIAN_POINT('',(26.000000000007,6.731984257698,28.));
#147 = CARTESIAN_POINT('',(20.360226608787,13.46397100031,28.));
#148 = CARTESIAN_POINT('',(9.080672616591,18.492290198606,28.));
#149 = CARTESIAN_POINT('',(-6.151875983294,20.113463937373,28.));
#150 = CARTESIAN_POINT('',(-21.96416717034,17.234652915179,28.));
#151 = CARTESIAN_POINT('',(-34.03508424331,9.988278678931,28.));
#152 = CARTESIAN_POINT('',(-38.57954365305,2.345583227555E-10,28.));
#153 = CARTESIAN_POINT('',(-34.03508424332,-9.988278679361,28.));
#154 = CARTESIAN_POINT('',(-21.96416717032,-17.23465291485,28.));
#155 = CARTESIAN_POINT('',(-6.151875983308,-20.11346393758,28.));
#156 = CARTESIAN_POINT('',(9.0806726166,-18.4922901985,28.));
#157 = CARTESIAN_POINT('',(20.360226608783,-13.46397100034,28.));
#158 = CARTESIAN_POINT('',(26.000000000008,-6.731984257689,28.));
#159 = CARTESIAN_POINT('',(26.,-5.120886785709E-15,28.));
#160 = PCURVE('',#42,#161);
#161 = DEFINITIONAL_REPRESENTATION('',(#162),#166);
#162 = LINE('',#163,#164);
#163 = CARTESIAN_POINT('',(0.,1.));
#164 = VECTOR('',#165,1.);
#165 = DIRECTION('',(1.,0.));
#166 = ( GEOMETRIC_REPRESENTATION_CONTEXT(2) 
PARAMETRIC_REPRESENTATION_CONTEXT() REPRESENTATION_CONTEXT('2D SPACE',''
  ) );
#167 = PCURVE('',#168,#173);
#168 = PLANE('',#169);
#169 = AXIS2_PLACEMENT_3D('',#170,#171,#172);
#170 = CARTESIAN_POINT('',(26.,1.984540710143E-15,28.));
#171 = DIRECTION('',(0.,0.,1.));
#172 = DIRECTION('',(-1.,-4.003535976094E-18,0.));
#173 = DEFINITIONAL_REPRESENTATION('',(#174),#190);
#174 = B_SPLINE_CURVE_WITH_KNOTS('',14,(#175,#176,#177,#178,#179,#180,
    #181,#182,#183,#184,#185,#186,#187,#188,#189),.UNSPECIFIED.,.F.,.F.,
  (15,15),(0.,1.),.PIECEWISE_BEZIER_KNOTS.);
#175 = CARTESIAN_POINT('',(0.,0.));
#176 = CARTESIAN_POINT('',(-6.725286993969E-12,-6.731984257698));
#177 = CARTESIAN_POINT('',(5.639773391213,-13.46397100031));
#178 = CARTESIAN_POINT('',(16.919327383409,-18.4922901986));
#179 = CARTESIAN_POINT('',(32.151875983294,-20.11346393737));
#180 = CARTESIAN_POINT('',(47.964167170344,-17.23465291517));
#181 = CARTESIAN_POINT('',(60.035084243311,-9.988278678931));
#182 = CARTESIAN_POINT('',(64.579543653054,-2.345565967613E-10));
#183 = CARTESIAN_POINT('',(60.035084243321,9.988278679361));
#184 = CARTESIAN_POINT('',(47.964167170328,17.23465291485));
#185 = CARTESIAN_POINT('',(32.151875983308,20.11346393758));
#186 = CARTESIAN_POINT('',(16.9193273834,18.492290198504));
#187 = CARTESIAN_POINT('',(5.639773391217,13.463971000348));
#188 = CARTESIAN_POINT('',(-7.567280135845E-12,6.731984257689));
#189 = CARTESIAN_POINT('',(1.06581410364E-14,7.105427495852E-15));
#190 = ( GEOMETRIC_REPRESENTATION_CONTEXT(2) 
PARAMETRIC_REPRESENTATION_CONTEXT() REPRESENTATION_CONTEXT('2D SPACE',''
  ) );
#191 = ORIENTED_EDGE('',*,*,#119,.F.);
#192 = ADVANCED_FACE('',(#193,#196),#95,.T.);
#193 = FACE_BOUND('',#194,.T.);
#194 = EDGE_LOOP('',(#195));
#195 = ORIENTED_EDGE('',*,*,#21,.F.);
#196 = FACE_BOUND('',#197,.T.);
#197 = EDGE_LOOP('',(#198));
#198 = ORIENTED_EDGE('',*,*,#199,.F.);
#199 = EDGE_CURVE('',#200,#200,#202,.T.);
#200 = VERTEX_POINT('',#201);
#201 = CARTESIAN_POINT('',(44.,0.,0.));
#202 = SURFACE_CURVE('',#203,(#362,#524),.PCURVE_S1.);
#203 = B_SPLINE_CURVE_WITH_KNOTS('',7,(#204,#205,#206,#207,#208,#209,
    #210,#211,#212,#213,#214,#215,#216,#217,#218,#219,#220,#221,#222,
    #223,#224,#225,#226,#227,#228,#229,#230,#231,#232,#233,#234,#235,
    #236,#237,#238,#239,#240,#241,#242,#243,#244,#245,#246,#247,#248,
    #249,#250,#251,#252,#253,#254,#255,#256,#257,#258,#259,#260,#261,
    #262,#263,#264,#265,#266,#267,#268,#269,#270,#271,#272,#273,#274,
    #275,#276,#277,#278,#279,#280,#281,#282,#283,#284,#285,#286,#287,
    #288,#289,#290,#291,#292,#293,#294,#295,#296,#297,#298,#299,#300,
    #301,#302,#303,#304,#305,#306,#307,#308,#309,#310,#311,#312,#313,
    #314,#315,#316,#317,#318,#319,#320,#321,#322,#323,#324,#325,#326,
    #327,#328,#329,#330,#331,#332,#333,#334,#335,#336,#337,#338,#339,
    #340,#341,#342,#343,#344,#345,#346,#347,#348,#349,#350,#351,#352,
    #353,#354,#355,#356,#357,#358,#359,#360,#361),.UNSPECIFIED.,.T.,.F.,
  (8,6,6,6,6,6,6,6,6,6,6,6,6,6,6,6,6,6,6,6,6,6,6,6,6,6,8),(0.,
    3.766213323948E-02,6.375656918197E-02,0.101369682993,0.134785919649,
    0.163856961201,0.249996947118,0.336136933035,0.365207974587,
    0.398624211242,0.436237325053,0.462331760995,0.482653800203,
    0.500001155587,0.525036264505,0.537669389206,0.56376376023,
    0.601376780466,0.634792933988,0.663863903216,0.750003674831,
    0.836143446446,0.865214415674,0.898630569196,0.936243589433,
    0.962337960457,1.),.UNSPECIFIED.);
#204 = CARTESIAN_POINT('',(44.,-5.492721319583E-15,0.));
#205 = CARTESIAN_POINT('',(44.000000039372,-1.217005060271,0.));
#206 = CARTESIAN_POINT('',(43.895706419224,-2.43498702188,0.));
#207 = CARTESIAN_POINT('',(43.686819063007,-3.641286614719,0.));
#208 = CARTESIAN_POINT('',(43.377984770679,-4.825950560657,0.));
#209 = CARTESIAN_POINT('',(42.976491442106,-5.981224230779,0.));
#210 = CARTESIAN_POINT('',(42.491099649716,-7.101274881473,0.));
#211 = CARTESIAN_POINT('',(41.543085850044,-8.930706088889,0.));
#212 = CARTESIAN_POINT('',(41.119132590249,-9.660805468247,0.));
#213 = CARTESIAN_POINT('',(40.662108281679,-10.37117729905,0.));
#214 = CARTESIAN_POINT('',(40.174867133449,-11.0611822542,0.));
#215 = CARTESIAN_POINT('',(39.660106995618,-11.73052273759,0.));
#216 = CARTESIAN_POINT('',(39.120272363756,-12.37917553846,0.));
#217 = CARTESIAN_POINT('',(37.746291963786,-13.91281304224,0.));
#218 = CARTESIAN_POINT('',(36.887630336097,-14.775491209,0.));
#219 = CARTESIAN_POINT('',(35.987817443834,-15.59616790121,0.));
#220 = CARTESIAN_POINT('',(35.052362405073,-16.37588485023,0.));
#221 = CARTESIAN_POINT('',(34.085951721774,-17.11591158816,0.));
#222 = CARTESIAN_POINT('',(33.092406412427,-17.81769267165,0.));
#223 = CARTESIAN_POINT('',(31.170397633719,-19.07364138884,0.));
#224 = CARTESIAN_POINT('',(30.247216664934,-19.6354291281,0.));
#225 = CARTESIAN_POINT('',(29.307236463051,-20.16916012172,0.));
#226 = CARTESIAN_POINT('',(28.352340382129,-20.67575930818,0.));
#227 = CARTESIAN_POINT('',(27.384156230404,-21.15608961271,0.));
#228 = CARTESIAN_POINT('',(26.404065212462,-21.61096804029,0.));
#229 = CARTESIAN_POINT('',(24.551177270607,-22.41541253891,0.));
#230 = CARTESIAN_POINT('',(23.681041837009,-22.77096447838,0.));
#231 = CARTESIAN_POINT('',(22.803564328315,-23.1083099567,0.));
#232 = CARTESIAN_POINT('',(21.919441433181,-23.42789445673,0.));
#233 = CARTESIAN_POINT('',(21.029297291585,-23.73012115467,0.));
#234 = CARTESIAN_POINT('',(20.133685936013,-24.01535749949,0.));
#235 = CARTESIAN_POINT('',(16.564560255743,-25.0797792718,0.));
#236 = CARTESIAN_POINT('',(13.85327343212,-25.72912128523,0.));
#237 = CARTESIAN_POINT('',(11.110640917175,-26.24127002393,0.));
#238 = CARTESIAN_POINT('',(8.346344909902,-26.62158843647,0.));
#239 = CARTESIAN_POINT('',(5.56872114527,-26.87382747976,0.));
#240 = CARTESIAN_POINT('',(2.784745119307,-26.99999940038,0.));
#241 = CARTESIAN_POINT('',(-2.784745119296,-26.99999940038,0.));
#242 = CARTESIAN_POINT('',(-5.568721145273,-26.87382747976,0.));
#243 = CARTESIAN_POINT('',(-8.346344909866,-26.62158843648,0.));
#244 = CARTESIAN_POINT('',(-11.11064091719,-26.24127002392,0.));
#245 = CARTESIAN_POINT('',(-13.85327343209,-25.72912128523,0.));
#246 = CARTESIAN_POINT('',(-16.56456025574,-25.0797792718,0.));
#247 = CARTESIAN_POINT('',(-20.133685936,-24.01535749949,0.));
#248 = CARTESIAN_POINT('',(-21.02929729157,-23.73012115467,0.));
#249 = CARTESIAN_POINT('',(-21.91944143317,-23.42789445673,0.));
#250 = CARTESIAN_POINT('',(-22.8035643283,-23.1083099567,0.));
#251 = CARTESIAN_POINT('',(-23.681041837,-22.77096447839,0.));
#252 = CARTESIAN_POINT('',(-24.55117727059,-22.41541253892,0.));
#253 = CARTESIAN_POINT('',(-26.40406521245,-21.61096804029,0.));
#254 = CARTESIAN_POINT('',(-27.3841562304,-21.15608961272,0.));
#255 = CARTESIAN_POINT('',(-28.35234038212,-20.67575930818,0.));
#256 = CARTESIAN_POINT('',(-29.30723646304,-20.16916012172,0.));
#257 = CARTESIAN_POINT('',(-30.24721666493,-19.6354291281,0.));
#258 = CARTESIAN_POINT('',(-31.17039763371,-19.07364138884,0.));
#259 = CARTESIAN_POINT('',(-33.09240641242,-17.81769267165,0.));
#260 = CARTESIAN_POINT('',(-34.08595172177,-17.11591158816,0.));
#261 = CARTESIAN_POINT('',(-35.05236240506,-16.37588485024,0.));
#262 = CARTESIAN_POINT('',(-35.98781744382,-15.59616790122,0.));
#263 = CARTESIAN_POINT('',(-36.88763033609,-14.775491209,0.));
#264 = CARTESIAN_POINT('',(-37.74629196378,-13.91281304224,0.));
#265 = CARTESIAN_POINT('',(-39.12027236375,-12.37917553846,0.));
#266 = CARTESIAN_POINT('',(-39.6601069956,-11.7305227376,0.));
#267 = CARTESIAN_POINT('',(-40.17486713345,-11.0611822542,0.));
#268 = CARTESIAN_POINT('',(-40.66210828168,-10.37117729906,0.));
#269 = CARTESIAN_POINT('',(-41.11913259023,-9.660805468251,0.));
#270 = CARTESIAN_POINT('',(-41.54308585004,-8.930706088893,0.));
#271 = CARTESIAN_POINT('',(-42.23326494384,-7.598831636052,0.));
#272 = CARTESIAN_POINT('',(-42.51363222228,-7.004405237051,0.));
#273 = CARTESIAN_POINT('',(-42.77081460213,-6.399220981745,0.));
#274 = CARTESIAN_POINT('',(-43.00343568038,-5.783998143115,0.));
#275 = CARTESIAN_POINT('',(-43.21016924454,-5.159645445457,0.));
#276 = CARTESIAN_POINT('',(-43.38980750391,-4.527286289971,0.));
#277 = CARTESIAN_POINT('',(-43.6707088635,-3.342830226998,0.));
#278 = CARTESIAN_POINT('',(-43.77960444604,-2.792493481659,0.));
#279 = CARTESIAN_POINT('',(-43.86740569623,-2.238149045517,0.));
#280 = CARTESIAN_POINT('',(-43.93361204912,-1.680719329687,0.));
#281 = CARTESIAN_POINT('',(-43.97787161378,-1.121183075562,0.));
#282 = CARTESIAN_POINT('',(-44.00000014251,-0.56057742658,0.));
#283 = CARTESIAN_POINT('',(-44.00000005649,0.809006215775,0.));
#284 = CARTESIAN_POINT('',(-43.95391307698,1.618172646982,0.));
#285 = CARTESIAN_POINT('',(-43.86170741459,2.42405624887,0.));
#286 = CARTESIAN_POINT('',(-43.7242207082,3.223585309363,0.));
#287 = CARTESIAN_POINT('',(-43.54295643662,4.014028165588,0.));
#288 = CARTESIAN_POINT('',(-43.3199293517,4.792968960095,0.));
#289 = CARTESIAN_POINT('',(-42.92516383488,5.944484150962,0.));
#290 = CARTESIAN_POINT('',(-42.78273805211,6.327243388091,0.));
#291 = CARTESIAN_POINT('',(-42.63058214797,6.706319676447,0.));
#292 = CARTESIAN_POINT('',(-42.46901194041,7.081498243546,0.));
#293 = CARTESIAN_POINT('',(-42.29835343892,7.452595487529,0.));
#294 = CARTESIAN_POINT('',(-42.11893692401,7.819456448534,0.));
#295 = CARTESIAN_POINT('',(-41.54308585004,8.930706088886,0.));
#296 = CARTESIAN_POINT('',(-41.11913259024,9.660805468246,0.));
#297 = CARTESIAN_POINT('',(-40.66210828168,10.371177299054,0.));
#298 = CARTESIAN_POINT('',(-40.17486713345,11.061182254198,0.));
#299 = CARTESIAN_POINT('',(-39.66010699561,11.730522737596,0.));
#300 = CARTESIAN_POINT('',(-39.12027236375,12.379175538456,0.));
#301 = CARTESIAN_POINT('',(-37.74629196378,13.912813042237,0.));
#302 = CARTESIAN_POINT('',(-36.88763033609,14.775491209004,0.));
#303 = CARTESIAN_POINT('',(-35.98781744383,15.596167901213,0.));
#304 = CARTESIAN_POINT('',(-35.05236240507,16.375884850237,0.));
#305 = CARTESIAN_POINT('',(-34.08595172177,17.115911588165,0.));
#306 = CARTESIAN_POINT('',(-33.09240641242,17.81769267165,0.));
#307 = CARTESIAN_POINT('',(-31.17039763372,19.073641388846,0.));
#308 = CARTESIAN_POINT('',(-30.24721666493,19.6354291281,0.));
#309 = CARTESIAN_POINT('',(-29.30723646305,20.169160121723,0.));
#310 = CARTESIAN_POINT('',(-28.35234038213,20.675759308182,0.));
#311 = CARTESIAN_POINT('',(-27.3841562304,21.156089612715,0.));
#312 = CARTESIAN_POINT('',(-26.40406521246,21.610968040293,0.));
#313 = CARTESIAN_POINT('',(-24.5511772706,22.415412538917,0.));
#314 = CARTESIAN_POINT('',(-23.68104183701,22.770964478387,0.));
#315 = CARTESIAN_POINT('',(-22.80356432831,23.108309956703,0.));
#316 = CARTESIAN_POINT('',(-21.91944143318,23.427894456731,0.));
#317 = CARTESIAN_POINT('',(-21.02929729158,23.730121154675,0.));
#318 = CARTESIAN_POINT('',(-20.13368593601,24.015357499491,0.));
#319 = CARTESIAN_POINT('',(-16.56456025576,25.079779271799,0.));
#320 = CARTESIAN_POINT('',(-13.85327343206,25.729121285251,0.));
#321 = CARTESIAN_POINT('',(-11.11064091728,26.241270023902,0.));
#322 = CARTESIAN_POINT('',(-8.346344909796,26.621588436501,0.));
#323 = CARTESIAN_POINT('',(-5.568721145332,26.873827479752,0.));
#324 = CARTESIAN_POINT('',(-2.784745119292,26.999999400385,0.));
#325 = CARTESIAN_POINT('',(2.7847451193,26.999999400378,0.));
#326 = CARTESIAN_POINT('',(5.568721145252,26.873827479779,0.));
#327 = CARTESIAN_POINT('',(8.346344909905,26.621588436454,0.));
#328 = CARTESIAN_POINT('',(11.110640917156,26.241270023953,0.));
#329 = CARTESIAN_POINT('',(13.853273432118,25.729121285225,0.));
#330 = CARTESIAN_POINT('',(16.564560255734,25.079779271808,0.));
#331 = CARTESIAN_POINT('',(20.133685936007,24.015357499494,0.));
#332 = CARTESIAN_POINT('',(21.029297291578,23.730121154678,0.));
#333 = CARTESIAN_POINT('',(21.919441433173,23.427894456734,0.));
#334 = CARTESIAN_POINT('',(22.803564328308,23.108309956707,0.));
#335 = CARTESIAN_POINT('',(23.681041837003,22.770964478391,0.));
#336 = CARTESIAN_POINT('',(24.5511772706,22.415412538921,0.));
#337 = CARTESIAN_POINT('',(26.404065212456,21.610968040296,0.));
#338 = CARTESIAN_POINT('',(27.384156230398,21.156089612721,0.));
#339 = CARTESIAN_POINT('',(28.352340382123,20.675759308184,0.));
#340 = CARTESIAN_POINT('',(29.307236463046,20.169160121725,0.));
#341 = CARTESIAN_POINT('',(30.247216664929,19.635429128107,0.));
#342 = CARTESIAN_POINT('',(31.170397633713,19.07364138885,0.));
#343 = CARTESIAN_POINT('',(33.092406412421,17.817692671656,0.));
#344 = CARTESIAN_POINT('',(34.085951721771,17.115911588169,0.));
#345 = CARTESIAN_POINT('',(35.052362405068,16.375884850243,0.));
#346 = CARTESIAN_POINT('',(35.987817443829,15.596167901219,0.));
#347 = CARTESIAN_POINT('',(36.887630336094,14.775491209008,0.));
#348 = CARTESIAN_POINT('',(37.746291963782,13.912813042243,0.));
#349 = CARTESIAN_POINT('',(39.120272363753,12.379175538463,0.));
#350 = CARTESIAN_POINT('',(39.660106995615,11.7305227376,0.));
#351 = CARTESIAN_POINT('',(40.174867133446,11.061182254204,0.));
#352 = CARTESIAN_POINT('',(40.662108281677,10.371177299061,0.));
#353 = CARTESIAN_POINT('',(41.119132590247,9.660805468251,0.));
#354 = CARTESIAN_POINT('',(41.543085850042,8.930706088892,0.));
#355 = CARTESIAN_POINT('',(42.491099649715,7.101274881471,0.));
#356 = CARTESIAN_POINT('',(42.976491442102,5.981224230797,0.));
#357 = CARTESIAN_POINT('',(43.377984770683,4.825950560631,0.));
#358 = CARTESIAN_POINT('',(43.686819063003,3.641286614747,0.));
#359 = CARTESIAN_POINT('',(43.895706419225,2.434987021868,0.));
#360 = CARTESIAN_POINT('',(44.000000039372,1.217005060274,0.));
#361 = CARTESIAN_POINT('',(44.,1.612706038018E-15,0.));
#362 = PCURVE('',#95,#363);
#363 = DEFINITIONAL_REPRESENTATION('',(#364),#523);
#364 = B_SPLINE_CURVE_WITH_KNOTS('',7,(#365,#366,#367,#368,#369,#370,
    #371,#372,#373,#374,#375,#376,#377,#378,#379,#380,#381,#382,#383,
    #384,#385,#386,#387,#388,#389,#390,#391,#392,#393,#394,#395,#396,
    #397,#398,#399,#400,#401,#402,#403,#404,#405,#406,#407,#408,#409,
    #410,#411,#412,#413,#414,#415,#416,#417,#418,#419,#420,#421,#422,
    #423,#424,#425,#426,#427,#428,#429,#430,#431,#432,#433,#434,#435,
    #436,#437,#438,#439,#440,#441,#442,#443,#444,#445,#446,#447,#448,
    #449,#450,#451,#452,#453,#454,#455,#456,#457,#458,#459,#460,#461,
    #462,#463,#464,#465,#466,#467,#468,#469,#470,#471,#472,#473,#474,
    #475,#476,#477,#478,#479,#480,#481,#482,#483,#484,#485,#486,#487,
    #488,#489,#490,#491,#492,#493,#494,#495,#496,#497,#498,#499,#500,
    #501,#502,#503,#504,#505,#506,#507,#508,#509,#510,#511,#512,#513,
    #514,#515,#516,#517,#518,#519,#520,#521,#522),.UNSPECIFIED.,.F.,.F.,
  (8,6,6,6,6,6,6,6,6,6,6,6,6,6,6,6,6,6,6,6,6,6,6,6,6,6,8),(0.,
    3.766213323948E-02,6.375656918197E-02,0.101369682993,0.134785919649,
    0.163856961201,0.249996947118,0.336136933035,0.365207974587,
    0.398624211242,0.436237325053,0.462331760995,0.482653800203,
    0.500001155587,0.525036264505,0.537669389206,0.56376376023,
    0.601376780466,0.634792933988,0.663863903216,0.750003674831,
    0.836143446446,0.865214415674,0.898630569196,0.936243589433,
    0.962337960457,1.),.UNSPECIFIED.);
#365 = CARTESIAN_POINT('',(8.,2.84217094304E-14));
#366 = CARTESIAN_POINT('',(7.999999960628,-1.217005060271));
#367 = CARTESIAN_POINT('',(8.104293580776,-2.43498702188));
#368 = CARTESIAN_POINT('',(8.313180936993,-3.641286614719));
#369 = CARTESIAN_POINT('',(8.622015229321,-4.825950560657));
#370 = CARTESIAN_POINT('',(9.023508557894,-5.981224230779));
#371 = CARTESIAN_POINT('',(9.508900350284,-7.101274881473));
#372 = CARTESIAN_POINT('',(10.456914149956,-8.930706088889));
#373 = CARTESIAN_POINT('',(10.880867409751,-9.660805468247));
#374 = CARTESIAN_POINT('',(11.337891718321,-10.37117729905));
#375 = CARTESIAN_POINT('',(11.825132866551,-11.0611822542));
#376 = CARTESIAN_POINT('',(12.339893004382,-11.73052273759));
#377 = CARTESIAN_POINT('',(12.879727636244,-12.37917553846));
#378 = CARTESIAN_POINT('',(14.253708036214,-13.91281304224));
#379 = CARTESIAN_POINT('',(15.112369663903,-14.775491209));
#380 = CARTESIAN_POINT('',(16.012182556166,-15.59616790121));
#381 = CARTESIAN_POINT('',(16.947637594927,-16.37588485023));
#382 = CARTESIAN_POINT('',(17.914048278226,-17.11591158816));
#383 = CARTESIAN_POINT('',(18.907593587573,-17.81769267165));
#384 = CARTESIAN_POINT('',(20.829602366281,-19.07364138884));
#385 = CARTESIAN_POINT('',(21.752783335066,-19.6354291281));
#386 = CARTESIAN_POINT('',(22.692763536949,-20.16916012172));
#387 = CARTESIAN_POINT('',(23.647659617871,-20.67575930818));
#388 = CARTESIAN_POINT('',(24.615843769596,-21.15608961271));
#389 = CARTESIAN_POINT('',(25.595934787538,-21.61096804029));
#390 = CARTESIAN_POINT('',(27.448822729393,-22.41541253891));
#391 = CARTESIAN_POINT('',(28.318958162991,-22.77096447838));
#392 = CARTESIAN_POINT('',(29.196435671685,-23.1083099567));
#393 = CARTESIAN_POINT('',(30.080558566819,-23.42789445673));
#394 = CARTESIAN_POINT('',(30.970702708415,-23.73012115467));
#395 = CARTESIAN_POINT('',(31.866314063987,-24.01535749949));
#396 = CARTESIAN_POINT('',(35.435439744257,-25.0797792718));
#397 = CARTESIAN_POINT('',(38.14672656788,-25.72912128523));
#398 = CARTESIAN_POINT('',(40.889359082825,-26.24127002392));
#399 = CARTESIAN_POINT('',(43.653655090098,-26.62158843647));
#400 = CARTESIAN_POINT('',(46.43127885473,-26.87382747976));
#401 = CARTESIAN_POINT('',(49.215254880693,-26.99999940038));
#402 = CARTESIAN_POINT('',(54.784745119296,-26.99999940038));
#403 = CARTESIAN_POINT('',(57.568721145273,-26.87382747976));
#404 = CARTESIAN_POINT('',(60.346344909866,-26.62158843648));
#405 = CARTESIAN_POINT('',(63.110640917198,-26.24127002392));
#406 = CARTESIAN_POINT('',(65.853273432093,-25.72912128523));
#407 = CARTESIAN_POINT('',(68.56456025574,-25.0797792718));
#408 = CARTESIAN_POINT('',(72.133685936006,-24.01535749949));
#409 = CARTESIAN_POINT('',(73.029297291577,-23.73012115467));
#410 = CARTESIAN_POINT('',(73.919441433173,-23.42789445673));
#411 = CARTESIAN_POINT('',(74.803564328308,-23.1083099567));
#412 = CARTESIAN_POINT('',(75.681041837003,-22.77096447839));
#413 = CARTESIAN_POINT('',(76.551177270599,-22.41541253892));
#414 = CARTESIAN_POINT('',(78.404065212453,-21.61096804029));
#415 = CARTESIAN_POINT('',(79.384156230402,-21.15608961272));
#416 = CARTESIAN_POINT('',(80.35234038212,-20.67575930818));
#417 = CARTESIAN_POINT('',(81.307236463043,-20.16916012172));
#418 = CARTESIAN_POINT('',(82.247216664931,-19.6354291281));
#419 = CARTESIAN_POINT('',(83.170397633711,-19.07364138884));
#420 = CARTESIAN_POINT('',(85.092406412421,-17.81769267165));
#421 = CARTESIAN_POINT('',(86.08595172177,-17.11591158816));
#422 = CARTESIAN_POINT('',(87.052362405067,-16.37588485024));
#423 = CARTESIAN_POINT('',(87.987817443829,-15.59616790122));
#424 = CARTESIAN_POINT('',(88.887630336094,-14.775491209));
#425 = CARTESIAN_POINT('',(89.746291963782,-13.91281304224));
#426 = CARTESIAN_POINT('',(91.120272363758,-12.37917553846));
#427 = CARTESIAN_POINT('',(91.660106995603,-11.7305227376));
#428 = CARTESIAN_POINT('',(92.174867133452,-11.0611822542));
#429 = CARTESIAN_POINT('',(92.662108281683,-10.37117729906));
#430 = CARTESIAN_POINT('',(93.119132590235,-9.660805468251));
#431 = CARTESIAN_POINT('',(93.543085850047,-8.930706088893));
#432 = CARTESIAN_POINT('',(94.23326494384,-7.598831636052));
#433 = CARTESIAN_POINT('',(94.513632222282,-7.004405237051));
#434 = CARTESIAN_POINT('',(94.770814602134,-6.399220981745));
#435 = CARTESIAN_POINT('',(95.003435680386,-5.783998143115));
#436 = CARTESIAN_POINT('',(95.210169244549,-5.159645445457));
#437 = CARTESIAN_POINT('',(95.389807503919,-4.527286289971));
#438 = CARTESIAN_POINT('',(95.670708863509,-3.342830226998));
#439 = CARTESIAN_POINT('',(95.779604446041,-2.792493481659));
#440 = CARTESIAN_POINT('',(95.867405696239,-2.238149045517));
#441 = CARTESIAN_POINT('',(95.933612049127,-1.680719329687));
#442 = CARTESIAN_POINT('',(95.977871613784,-1.121183075562));
#443 = CARTESIAN_POINT('',(96.000000142511,-0.56057742658));
#444 = CARTESIAN_POINT('',(96.000000056494,0.809006215775));
#445 = CARTESIAN_POINT('',(95.953913076984,1.618172646982));
#446 = CARTESIAN_POINT('',(95.861707414595,2.42405624887));
#447 = CARTESIAN_POINT('',(95.7242207082,3.223585309363));
#448 = CARTESIAN_POINT('',(95.54295643662,4.014028165588));
#449 = CARTESIAN_POINT('',(95.319929351708,4.792968960095));
#450 = CARTESIAN_POINT('',(94.925163834888,5.944484150962));
#451 = CARTESIAN_POINT('',(94.782738052119,6.327243388091));
#452 = CARTESIAN_POINT('',(94.630582147975,6.706319676447));
#453 = CARTESIAN_POINT('',(94.469011940416,7.081498243546));
#454 = CARTESIAN_POINT('',(94.298353438923,7.452595487529));
#455 = CARTESIAN_POINT('',(94.118936924011,7.819456448534));
#456 = CARTESIAN_POINT('',(93.543085850046,8.930706088886));
#457 = CARTESIAN_POINT('',(93.119132590249,9.660805468246));
#458 = CARTESIAN_POINT('',(92.662108281682,10.371177299054));
#459 = CARTESIAN_POINT('',(92.174867133451,11.061182254198));
#460 = CARTESIAN_POINT('',(91.660106995618,11.730522737596));
#461 = CARTESIAN_POINT('',(91.120272363759,12.379175538456));
#462 = CARTESIAN_POINT('',(89.746291963789,13.912813042237));
#463 = CARTESIAN_POINT('',(88.887630336097,14.775491209004));
#464 = CARTESIAN_POINT('',(87.987817443837,15.596167901213));
#465 = CARTESIAN_POINT('',(87.052362405076,16.375884850237));
#466 = CARTESIAN_POINT('',(86.085951721776,17.115911588165));
#467 = CARTESIAN_POINT('',(85.092406412429,17.81769267165));
#468 = CARTESIAN_POINT('',(83.170397633721,19.073641388846));
#469 = CARTESIAN_POINT('',(82.247216664937,19.6354291281));
#470 = CARTESIAN_POINT('',(81.307236463053,20.169160121723));
#471 = CARTESIAN_POINT('',(80.352340382131,20.675759308182));
#472 = CARTESIAN_POINT('',(79.384156230407,21.156089612715));
#473 = CARTESIAN_POINT('',(78.404065212464,21.610968040293));
#474 = CARTESIAN_POINT('',(76.551177270608,22.415412538917));
#475 = CARTESIAN_POINT('',(75.681041837012,22.770964478387));
#476 = CARTESIAN_POINT('',(74.803564328318,23.108309956703));
#477 = CARTESIAN_POINT('',(73.919441433182,23.427894456731));
#478 = CARTESIAN_POINT('',(73.029297291587,23.730121154675));
#479 = CARTESIAN_POINT('',(72.133685936016,24.015357499491));
#480 = CARTESIAN_POINT('',(68.56456025576,25.079779271799));
#481 = CARTESIAN_POINT('',(65.853273432065,25.729121285251));
#482 = CARTESIAN_POINT('',(63.110640917282,26.241270023902));
#483 = CARTESIAN_POINT('',(60.346344909796,26.621588436501));
#484 = CARTESIAN_POINT('',(57.568721145332,26.873827479752));
#485 = CARTESIAN_POINT('',(54.784745119292,26.999999400385));
#486 = CARTESIAN_POINT('',(49.2152548807,26.999999400378));
#487 = CARTESIAN_POINT('',(46.431278854748,26.873827479779));
#488 = CARTESIAN_POINT('',(43.653655090095,26.621588436454));
#489 = CARTESIAN_POINT('',(40.889359082844,26.241270023953));
#490 = CARTESIAN_POINT('',(38.146726567882,25.729121285225));
#491 = CARTESIAN_POINT('',(35.435439744266,25.079779271808));
#492 = CARTESIAN_POINT('',(31.866314063993,24.015357499494));
#493 = CARTESIAN_POINT('',(30.970702708422,23.730121154678));
#494 = CARTESIAN_POINT('',(30.080558566827,23.427894456734));
#495 = CARTESIAN_POINT('',(29.196435671692,23.108309956707));
#496 = CARTESIAN_POINT('',(28.318958162997,22.770964478391));
#497 = CARTESIAN_POINT('',(27.4488227294,22.415412538921));
#498 = CARTESIAN_POINT('',(25.595934787544,21.610968040296));
#499 = CARTESIAN_POINT('',(24.615843769602,21.156089612721));
#500 = CARTESIAN_POINT('',(23.647659617877,20.675759308184));
#501 = CARTESIAN_POINT('',(22.692763536954,20.169160121726));
#502 = CARTESIAN_POINT('',(21.752783335071,19.635429128107));
#503 = CARTESIAN_POINT('',(20.829602366287,19.07364138885));
#504 = CARTESIAN_POINT('',(18.907593587579,17.817692671656));
#505 = CARTESIAN_POINT('',(17.914048278229,17.115911588169));
#506 = CARTESIAN_POINT('',(16.947637594932,16.375884850243));
#507 = CARTESIAN_POINT('',(16.012182556171,15.596167901219));
#508 = CARTESIAN_POINT('',(15.112369663906,14.775491209008));
#509 = CARTESIAN_POINT('',(14.253708036218,13.912813042243));
#510 = CARTESIAN_POINT('',(12.879727636247,12.379175538463));
#511 = CARTESIAN_POINT('',(12.339893004385,11.7305227376));
#512 = CARTESIAN_POINT('',(11.825132866554,11.061182254204));
#513 = CARTESIAN_POINT('',(11.337891718323,10.371177299061));
#514 = CARTESIAN_POINT('',(10.880867409753,9.660805468251));
#515 = CARTESIAN_POINT('',(10.456914149958,8.930706088892));
#516 = CARTESIAN_POINT('',(9.508900350285,7.101274881471));
#517 = CARTESIAN_POINT('',(9.023508557898,5.981224230797));
#518 = CARTESIAN_POINT('',(8.622015229317,4.825950560631));
#519 = CARTESIAN_POINT('',(8.313180936997,3.641286614747));
#520 = CARTESIAN_POINT('',(8.104293580775,2.434987021868));
#521 = CARTESIAN_POINT('',(7.999999960628,1.217005060275));
#522 = CARTESIAN_POINT('',(8.,3.552713678801E-14));
#523 = ( GEOMETRIC_REPRESENTATION_CONTEXT(2) 
PARAMETRIC_REPRESENTATION_CONTEXT() REPRESENTATION_CONTEXT('2D SPACE',''
  ) );
#524 = PCURVE('',#525,#533);
#525 = SURFACE_OF_LINEAR_EXTRUSION('',#526,#531);
#526 = ELLIPSE('',#527,44.,27.);
#527 = AXIS2_PLACEMENT_3D('',#528,#529,#530);
#528 = CARTESIAN_POINT('',(0.,0.,-1.));
#529 = DIRECTION('',(0.,0.,1.));
#530 = DIRECTION('',(1.,0.,0.));
#531 = VECTOR('',#532,1.);
#532 = DIRECTION('',(-0.,-0.,-1.));
#533 = DEFINITIONAL_REPRESENTATION('',(#534),#693);
#534 = B_SPLINE_CURVE_WITH_KNOTS('',7,(#535,#536,#537,#538,#539,#540,
    #541,#542,#543,#544,#545,#546,#547,#548,#549,#550,#551,#552,#553,
    #554,#555,#556,#557,#558,#559,#560,#561,#562,#563,#564,#565,#566,
    #567,#568,#569,#570,#571,#572,#573,#574,#575,#576,#577,#578,#579,
    #580,#581,#582,#583,#584,#585,#586,#587,#588,#589,#590,#591,#592,
    #593,#594,#595,#596,#597,#598,#599,#600,#601,#602,#603,#604,#605,
    #606,#607,#608,#609,#610,#611,#612,#613,#614,#615,#616,#617,#618,
    #619,#620,#621,#622,#623,#624,#625,#626,#627,#628,#629,#630,#631,
    #632,#633,#634,#635,#636,#637,#638,#639,#640,#641,#642,#643,#644,
    #645,#646,#647,#648,#649,#650,#651,#652,#653,#654,#655,#656,#657,
    #658,#659,#660,#661,#662,#663,#664,#665,#666,#667,#668,#669,#670,
    #671,#672,#673,#674,#675,#676,#677,#678,#679,#680,#681,#682,#683,
    #684,#685,#686,#687,#688,#689,#690,#691,#692),.UNSPECIFIED.,.F.,.F.,
  (8,6,6,6,6,6,6,6,6,6,6,6,6,6,6,6,6,6,6,6,6,6,6,6,6,6,8),(0.,
    3.766213323948E-02,6.375656918197E-02,0.101369682993,0.134785919649,
    0.163856961201,0.249996947118,0.336136933035,0.365207974587,
    0.398624211242,0.436237325053,0.462331760995,0.482653800203,
    0.500001155587,0.525036264505,0.537669389206,0.56376376023,
    0.601376780466,0.634792933988,0.663863903216,0.750003674831,
    0.836143446446,0.865214415674,0.898630569196,0.936243589433,
    0.962337960457,1.),.UNSPECIFIED.);
#535 = CARTESIAN_POINT('',(6.28318530718,-1.));
#536 = CARTESIAN_POINT('',(6.238111044305,-1.));
#537 = CARTESIAN_POINT('',(6.193000610477,-1.));
#538 = CARTESIAN_POINT('',(6.148173240716,-1.));
#539 = CARTESIAN_POINT('',(6.103847066508,-1.));
#540 = CARTESIAN_POINT('',(6.060184947887,-1.));
#541 = CARTESIAN_POINT('',(6.017309180079,-1.));
#542 = CARTESIAN_POINT('',(5.946209306661,-1.));
#543 = CARTESIAN_POINT('',(5.917520231747,-1.));
#544 = CARTESIAN_POINT('',(5.889259414476,-1.));
#545 = CARTESIAN_POINT('',(5.861434004637,-1.));
#546 = CARTESIAN_POINT('',(5.834043356858,-1.));
#547 = CARTESIAN_POINT('',(5.80708019626,-1.));
#548 = CARTESIAN_POINT('',(5.742261121139,-1.));
#549 = CARTESIAN_POINT('',(5.704860758067,-1.));
#550 = CARTESIAN_POINT('',(5.668281512455,-1.));
#551 = CARTESIAN_POINT('',(5.632476968615,-1.));
#552 = CARTESIAN_POINT('',(5.597398799075,-1.));
#553 = CARTESIAN_POINT('',(5.562994047322,-1.));
#554 = CARTESIAN_POINT('',(5.499182495843,-1.));
#555 = CARTESIAN_POINT('',(5.469652127179,-1.));
#556 = CARTESIAN_POINT('',(5.440573725623,-1.));
#557 = CARTESIAN_POINT('',(5.411913871472,-1.));
#558 = CARTESIAN_POINT('',(5.383641691151,-1.));
#559 = CARTESIAN_POINT('',(5.355727325683,-1.));
#560 = CARTESIAN_POINT('',(5.304142054525,-1.));
#561 = CARTESIAN_POINT('',(5.280392459767,-1.));
#562 = CARTESIAN_POINT('',(5.256873557993,-1.));
#563 = CARTESIAN_POINT('',(5.233568241097,-1.));
#564 = CARTESIAN_POINT('',(5.210460626904,-1.));
#565 = CARTESIAN_POINT('',(5.187535594989,-1.));
#566 = CARTESIAN_POINT('',(5.097346575067,-1.));
#567 = CARTESIAN_POINT('',(5.031412503489,-1.));
#568 = CARTESIAN_POINT('',(4.966558346413,-1.));
#569 = CARTESIAN_POINT('',(4.902492947945,-1.));
#570 = CARTESIAN_POINT('',(4.838950737294,-1.));
#571 = CARTESIAN_POINT('',(4.77567865855,-1.));
#572 = CARTESIAN_POINT('',(4.649099302219,-1.));
#573 = CARTESIAN_POINT('',(4.585827223476,-1.));
#574 = CARTESIAN_POINT('',(4.522285012824,-1.));
#575 = CARTESIAN_POINT('',(4.458219614356,-1.));
#576 = CARTESIAN_POINT('',(4.39336545728,-1.));
#577 = CARTESIAN_POINT('',(4.327431385703,-1.));
#578 = CARTESIAN_POINT('',(4.23724236578,-1.));
#579 = CARTESIAN_POINT('',(4.214317333866,-1.));
#580 = CARTESIAN_POINT('',(4.191209719673,-1.));
#581 = CARTESIAN_POINT('',(4.167904402777,-1.));
#582 = CARTESIAN_POINT('',(4.144385501003,-1.));
#583 = CARTESIAN_POINT('',(4.120635906244,-1.));
#584 = CARTESIAN_POINT('',(4.069050635086,-1.));
#585 = CARTESIAN_POINT('',(4.041136269618,-1.));
#586 = CARTESIAN_POINT('',(4.012864089298,-1.));
#587 = CARTESIAN_POINT('',(3.984204235147,-1.));
#588 = CARTESIAN_POINT('',(3.955125833591,-1.));
#589 = CARTESIAN_POINT('',(3.925595464926,-1.));
#590 = CARTESIAN_POINT('',(3.861783913448,-1.));
#591 = CARTESIAN_POINT('',(3.827379161694,-1.));
#592 = CARTESIAN_POINT('',(3.792300992155,-1.));
#593 = CARTESIAN_POINT('',(3.756496448315,-1.));
#594 = CARTESIAN_POINT('',(3.719917202702,-1.));
#595 = CARTESIAN_POINT('',(3.682516839631,-1.));
#596 = CARTESIAN_POINT('',(3.61769776451,-1.));
#597 = CARTESIAN_POINT('',(3.590734603912,-1.));
#598 = CARTESIAN_POINT('',(3.563343956133,-1.));
#599 = CARTESIAN_POINT('',(3.535518546293,-1.));
#600 = CARTESIAN_POINT('',(3.507257729023,-1.));
#601 = CARTESIAN_POINT('',(3.478568654108,-1.));
#602 = CARTESIAN_POINT('',(3.426806058505,-1.));
#603 = CARTESIAN_POINT('',(3.403894530023,-1.));
#604 = CARTESIAN_POINT('',(3.380743955606,-1.));
#605 = CARTESIAN_POINT('',(3.357368333727,-1.));
#606 = CARTESIAN_POINT('',(3.333786222125,-1.));
#607 = CARTESIAN_POINT('',(3.31002169878,-1.));
#608 = CARTESIAN_POINT('',(3.265690858637,-1.));
#609 = CARTESIAN_POINT('',(3.245164061698,-1.));
#610 = CARTESIAN_POINT('',(3.224545545065,-1.));
#611 = CARTESIAN_POINT('',(3.203856140223,-1.));
#612 = CARTESIAN_POINT('',(3.183117945792,-1.));
#613 = CARTESIAN_POINT('',(3.162354783405,-1.));
#614 = CARTESIAN_POINT('',(3.111629459214,-1.));
#615 = CARTESIAN_POINT('',(3.081660338052,-1.));
#616 = CARTESIAN_POINT('',(3.051768845927,-1.));
#617 = CARTESIAN_POINT('',(3.022024784534,-1.));
#618 = CARTESIAN_POINT('',(2.992488392127,-1.));
#619 = CARTESIAN_POINT('',(2.96321319767,-1.));
#620 = CARTESIAN_POINT('',(2.919630993898,-1.));
#621 = CARTESIAN_POINT('',(2.905092004136,-1.));
#622 = CARTESIAN_POINT('',(2.890635868423,-1.));
#623 = CARTESIAN_POINT('',(2.876266999683,-1.));
#624 = CARTESIAN_POINT('',(2.861989007556,-1.));
#625 = CARTESIAN_POINT('',(2.84780478144,-1.));
#626 = CARTESIAN_POINT('',(2.804616653072,-1.));
#627 = CARTESIAN_POINT('',(2.775927578157,-1.));
#628 = CARTESIAN_POINT('',(2.747666760887,-1.));
#629 = CARTESIAN_POINT('',(2.719841351047,-1.));
#630 = CARTESIAN_POINT('',(2.692450703268,-1.));
#631 = CARTESIAN_POINT('',(2.66548754267,-1.));
#632 = CARTESIAN_POINT('',(2.600668467549,-1.));
#633 = CARTESIAN_POINT('',(2.563268104477,-1.));
#634 = CARTESIAN_POINT('',(2.526688858865,-1.));
#635 = CARTESIAN_POINT('',(2.490884315025,-1.));
#636 = CARTESIAN_POINT('',(2.455806145486,-1.));
#637 = CARTESIAN_POINT('',(2.421401393732,-1.));
#638 = CARTESIAN_POINT('',(2.357589842253,-1.));
#639 = CARTESIAN_POINT('',(2.328059473589,-1.));
#640 = CARTESIAN_POINT('',(2.298981072033,-1.));
#641 = CARTESIAN_POINT('',(2.270321217882,-1.));
#642 = CARTESIAN_POINT('',(2.242049037562,-1.));
#643 = CARTESIAN_POINT('',(2.214134672094,-1.));
#644 = CARTESIAN_POINT('',(2.162549400936,-1.));
#645 = CARTESIAN_POINT('',(2.138799806177,-1.));
#646 = CARTESIAN_POINT('',(2.115280904403,-1.));
#647 = CARTESIAN_POINT('',(2.091975587507,-1.));
#648 = CARTESIAN_POINT('',(2.068867973314,-1.));
#649 = CARTESIAN_POINT('',(2.045942941399,-1.));
#650 = CARTESIAN_POINT('',(1.955753921478,-1.));
#651 = CARTESIAN_POINT('',(1.889819849894,-1.));
#652 = CARTESIAN_POINT('',(1.824965692833,-1.));
#653 = CARTESIAN_POINT('',(1.760900294346,-1.));
#654 = CARTESIAN_POINT('',(1.697358083709,-1.));
#655 = CARTESIAN_POINT('',(1.634086004959,-1.));
#656 = CARTESIAN_POINT('',(1.50750664863,-1.));
#657 = CARTESIAN_POINT('',(1.444234569882,-1.));
#658 = CARTESIAN_POINT('',(1.380692359242,-1.));
#659 = CARTESIAN_POINT('',(1.316626960758,-1.));
#660 = CARTESIAN_POINT('',(1.251772803695,-1.));
#661 = CARTESIAN_POINT('',(1.185838732112,-1.));
#662 = CARTESIAN_POINT('',(1.095649712191,-1.));
#663 = CARTESIAN_POINT('',(1.072724680276,-1.));
#664 = CARTESIAN_POINT('',(1.049617066083,-1.));
#665 = CARTESIAN_POINT('',(1.026311749187,-1.));
#666 = CARTESIAN_POINT('',(1.002792847413,-1.));
#667 = CARTESIAN_POINT('',(0.979043252654,-1.));
#668 = CARTESIAN_POINT('',(0.927457981496,-1.));
#669 = CARTESIAN_POINT('',(0.899543616028,-1.));
#670 = CARTESIAN_POINT('',(0.871271435708,-1.));
#671 = CARTESIAN_POINT('',(0.842611581557,-1.));
#672 = CARTESIAN_POINT('',(0.813533180001,-1.));
#673 = CARTESIAN_POINT('',(0.784002811337,-1.));
#674 = CARTESIAN_POINT('',(0.720191259858,-1.));
#675 = CARTESIAN_POINT('',(0.685786508104,-1.));
#676 = CARTESIAN_POINT('',(0.650708338565,-1.));
#677 = CARTESIAN_POINT('',(0.614903794725,-1.));
#678 = CARTESIAN_POINT('',(0.578324549113,-1.));
#679 = CARTESIAN_POINT('',(0.540924186041,-1.));
#680 = CARTESIAN_POINT('',(0.47610511092,-1.));
#681 = CARTESIAN_POINT('',(0.449141950322,-1.));
#682 = CARTESIAN_POINT('',(0.421751302543,-1.));
#683 = CARTESIAN_POINT('',(0.393925892703,-1.));
#684 = CARTESIAN_POINT('',(0.365665075433,-1.));
#685 = CARTESIAN_POINT('',(0.336976000518,-1.));
#686 = CARTESIAN_POINT('',(0.2658761271,-1.));
#687 = CARTESIAN_POINT('',(0.223000359296,-1.));
#688 = CARTESIAN_POINT('',(0.179338240665,-1.));
#689 = CARTESIAN_POINT('',(0.135012066469,-1.));
#690 = CARTESIAN_POINT('',(9.018469669933E-02,-1.));
#691 = CARTESIAN_POINT('',(4.507426287596E-02,-1.));
#692 = CARTESIAN_POINT('',(0.,-1.));
#693 = ( GEOMETRIC_REPRESENTATION_CONTEXT(2) 
PARAMETRIC_REPRESENTATION_CONTEXT() REPRESENTATION_CONTEXT('2D SPACE',''
  ) );
#694 = ADVANCED_FACE('',(#695),#168,.T.);
#695 = FACE_BOUND('',#696,.T.);
#696 = EDGE_LOOP('',(#697));
#697 = ORIENTED_EDGE('',*,*,#142,.T.);
#698 = ADVANCED_FACE('',(#699),#525,.T.);
#699 = FACE_BOUND('',#700,.T.);
#700 = EDGE_LOOP('',(#701,#702,#725,#752));
#701 = ORIENTED_EDGE('',*,*,#199,.T.);
#702 = ORIENTED_EDGE('',*,*,#703,.T.);
#703 = EDGE_CURVE('',#200,#704,#706,.T.);
#704 = VERTEX_POINT('',#705);
#705 = CARTESIAN_POINT('',(44.,0.,8.));
#706 = SEAM_CURVE('',#707,(#711,#718),.PCURVE_S1.);
#707 = LINE('',#708,#709);
#708 = CARTESIAN_POINT('',(44.,0.,-1.));
#709 = VECTOR('',#710,1.);
#710 = DIRECTION('',(0.,0.,1.));
#711 = PCURVE('',#525,#712);
#712 = DEFINITIONAL_REPRESENTATION('',(#713),#717);
#713 = LINE('',#714,#715);
#714 = CARTESIAN_POINT('',(6.28318530718,0.));
#715 = VECTOR('',#716,1.);
#716 = DIRECTION('',(0.,-1.));
#717 = ( GEOMETRIC_REPRESENTATION_CONTEXT(2) 
PARAMETRIC_REPRESENTATION_CONTEXT() REPRESENTATION_CONTEXT('2D SPACE',''
  ) );
#718 = PCURVE('',#525,#719);
#719 = DEFINITIONAL_REPRESENTATION('',(#720),#724);
#720 = LINE('',#721,#722);
#721 = CARTESIAN_POINT('',(0.,0.));
#722 = VECTOR('',#723,1.);
#723 = DIRECTION('',(0.,-1.));
#724 = ( GEOMETRIC_REPRESENTATION_CONTEXT(2) 
PARAMETRIC_REPRESENTATION_CONTEXT() REPRESENTATION_CONTEXT('2D SPACE',''
  ) );
#725 = ORIENTED_EDGE('',*,*,#726,.T.);
#726 = EDGE_CURVE('',#704,#704,#727,.T.);
#727 = SURFACE_CURVE('',#728,(#733,#740),.PCURVE_S1.);
#728 = ELLIPSE('',#729,44.,27.);
#729 = AXIS2_PLACEMENT_3D('',#730,#731,#732);
#730 = CARTESIAN_POINT('',(0.,0.,8.));
#731 = DIRECTION('',(0.,0.,1.));
#732 = DIRECTION('',(1.,0.,0.));
#733 = PCURVE('',#525,#734);
#734 = DEFINITIONAL_REPRESENTATION('',(#735),#739);
#735 = LINE('',#736,#737);
#736 = CARTESIAN_POINT('',(0.,-9.));
#737 = VECTOR('',#738,1.);
#738 = DIRECTION('',(1.,0.));
#739 = ( GEOMETRIC_REPRESENTATION_CONTEXT(2) 
PARAMETRIC_REPRESENTATION_CONTEXT() REPRESENTATION_CONTEXT('2D SPACE',''
  ) );
#740 = PCURVE('',#741,#746);
#741 = PLANE('',#742);
#742 = AXIS2_PLACEMENT_3D('',#743,#744,#745);
#743 = CARTESIAN_POINT('',(2.738657185709,1.194960417423E-15,8.));
#744 = DIRECTION('',(0.,0.,1.));
#745 = DIRECTION('',(1.,0.,-0.));
#746 = DEFINITIONAL_REPRESENTATION('',(#747),#751);
#747 = ELLIPSE('',#748,44.,27.);
#748 = AXIS2_PLACEMENT_2D('',#749,#750);
#749 = CARTESIAN_POINT('',(-2.738657185709,-1.194960417423E-15));
#750 = DIRECTION('',(1.,0.));
#751 = ( GEOMETRIC_REPRESENTATION_CONTEXT(2) 
PARAMETRIC_REPRESENTATION_CONTEXT() REPRESENTATION_CONTEXT('2D SPACE',''
  ) );
#752 = ORIENTED_EDGE('',*,*,#703,.F.);
#753 = ADVANCED_FACE('',(#754,#757,#792),#741,.F.);
#754 = FACE_BOUND('',#755,.F.);
#755 = EDGE_LOOP('',(#756));
#756 = ORIENTED_EDGE('',*,*,#726,.T.);
#757 = FACE_BOUND('',#758,.F.);
#758 = EDGE_LOOP('',(#759));
#759 = ORIENTED_EDGE('',*,*,#760,.T.);
#760 = EDGE_CURVE('',#761,#761,#763,.T.);
#761 = VERTEX_POINT('',#762);
#762 = CARTESIAN_POINT('',(-26.8,0.,8.));
#763 = SURFACE_CURVE('',#764,(#769,#780),.PCURVE_S1.);
#764 = CIRCLE('',#765,3.2);
#765 = AXIS2_PLACEMENT_3D('',#766,#767,#768);
#766 = CARTESIAN_POINT('',(-30.,0.,8.));
#767 = DIRECTION('',(0.,0.,-1.));
#768 = DIRECTION('',(1.,0.,0.));
#769 = PCURVE('',#741,#770);
#770 = DEFINITIONAL_REPRESENTATION('',(#771),#779);
#771 = ( BOUNDED_CURVE() B_SPLINE_CURVE(2,(#772,#773,#774,#775,#776,#777
,#778),.UNSPECIFIED.,.T.,.F.) B_SPLINE_CURVE_WITH_KNOTS((1,2,2,2,2,1),(
    -2.094395102393,0.,2.094395102393,4.188790204786,6.28318530718,
8.377580409573),.UNSPECIFIED.) CURVE() GEOMETRIC_REPRESENTATION_ITEM() 
RATIONAL_B_SPLINE_CURVE((1.,0.5,1.,0.5,1.,0.5,1.)) REPRESENTATION_ITEM(
  '') );
#772 = CARTESIAN_POINT('',(-29.5386571857,-1.194960417423E-15));
#773 = CARTESIAN_POINT('',(-29.5386571857,-5.54256258422));
#774 = CARTESIAN_POINT('',(-34.3386571857,-2.77128129211));
#775 = CARTESIAN_POINT('',(-39.1386571857,-1.978734368877E-15));
#776 = CARTESIAN_POINT('',(-34.3386571857,2.77128129211));
#777 = CARTESIAN_POINT('',(-29.5386571857,5.54256258422));
#778 = CARTESIAN_POINT('',(-29.5386571857,-1.194960417423E-15));
#779 = ( GEOMETRIC_REPRESENTATION_CONTEXT(2) 
PARAMETRIC_REPRESENTATION_CONTEXT() REPRESENTATION_CONTEXT('2D SPACE',''
  ) );
#780 = PCURVE('',#781,#786);
#781 = CYLINDRICAL_SURFACE('',#782,3.2);
#782 = AXIS2_PLACEMENT_3D('',#783,#784,#785);
#783 = CARTESIAN_POINT('',(-30.,0.,-1.));
#784 = DIRECTION('',(-0.,-0.,-1.));
#785 = DIRECTION('',(1.,0.,0.));
#786 = DEFINITIONAL_REPRESENTATION('',(#787),#791);
#787 = LINE('',#788,#789);
#788 = CARTESIAN_POINT('',(-6.28318530718,-9.));
#789 = VECTOR('',#790,1.);
#790 = DIRECTION('',(1.,-0.));
#791 = ( GEOMETRIC_REPRESENTATION_CONTEXT(2) 
PARAMETRIC_REPRESENTATION_CONTEXT() REPRESENTATION_CONTEXT('2D SPACE',''
  ) );
#792 = FACE_BOUND('',#793,.F.);
#793 = EDGE_LOOP('',(#794));
#794 = ORIENTED_EDGE('',*,*,#795,.T.);
#795 = EDGE_CURVE('',#796,#796,#798,.T.);
#796 = VERTEX_POINT('',#797);
#797 = CARTESIAN_POINT('',(33.2,0.,8.));
#798 = SURFACE_CURVE('',#799,(#804,#815),.PCURVE_S1.);
#799 = CIRCLE('',#800,3.2);
#800 = AXIS2_PLACEMENT_3D('',#801,#802,#803);
#801 = CARTESIAN_POINT('',(30.,0.,8.));
#802 = DIRECTION('',(0.,0.,-1.));
#803 = DIRECTION('',(1.,0.,0.));
#804 = PCURVE('',#741,#805);
#805 = DEFINITIONAL_REPRESENTATION('',(#806),#814);
#806 = ( BOUNDED_CURVE() B_SPLINE_CURVE(2,(#807,#808,#809,#810,#811,#812
,#813),.UNSPECIFIED.,.T.,.F.) B_SPLINE_CURVE_WITH_KNOTS((1,2,2,2,2,1),(
    -2.094395102393,0.,2.094395102393,4.188790204786,6.28318530718,
8.377580409573),.UNSPECIFIED.) CURVE() GEOMETRIC_REPRESENTATION_ITEM() 
RATIONAL_B_SPLINE_CURVE((1.,0.5,1.,0.5,1.,0.5,1.)) REPRESENTATION_ITEM(
  '') );
#807 = CARTESIAN_POINT('',(30.461342814291,-1.194960417423E-15));
#808 = CARTESIAN_POINT('',(30.461342814291,-5.54256258422));
#809 = CARTESIAN_POINT('',(25.661342814291,-2.77128129211));
#810 = CARTESIAN_POINT('',(20.861342814291,-1.978734368877E-15));
#811 = CARTESIAN_POINT('',(25.661342814291,2.77128129211));
#812 = CARTESIAN_POINT('',(30.461342814291,5.54256258422));
#813 = CARTESIAN_POINT('',(30.461342814291,-1.194960417423E-15));
#814 = ( GEOMETRIC_REPRESENTATION_CONTEXT(2) 
PARAMETRIC_REPRESENTATION_CONTEXT() REPRESENTATION_CONTEXT('2D SPACE',''
  ) );
#815 = PCURVE('',#816,#821);
#816 = CYLINDRICAL_SURFACE('',#817,3.2);
#817 = AXIS2_PLACEMENT_3D('',#818,#819,#820);
#818 = CARTESIAN_POINT('',(30.,0.,-1.));
#819 = DIRECTION('',(-0.,-0.,-1.));
#820 = DIRECTION('',(1.,0.,0.));
#821 = DEFINITIONAL_REPRESENTATION('',(#822),#826);
#822 = LINE('',#823,#824);
#823 = CARTESIAN_POINT('',(-6.28318530718,-9.));
#824 = VECTOR('',#825,1.);
#825 = DIRECTION('',(1.,-0.));
#826 = ( GEOMETRIC_REPRESENTATION_CONTEXT(2) 
PARAMETRIC_REPRESENTATION_CONTEXT() REPRESENTATION_CONTEXT('2D SPACE',''
  ) );
#827 = ADVANCED_FACE('',(#828),#781,.F.);
#828 = FACE_BOUND('',#829,.T.);
#829 = EDGE_LOOP('',(#830,#831,#854,#881));
#830 = ORIENTED_EDGE('',*,*,#760,.T.);
#831 = ORIENTED_EDGE('',*,*,#832,.T.);
#832 = EDGE_CURVE('',#761,#833,#835,.T.);
#833 = VERTEX_POINT('',#834);
#834 = CARTESIAN_POINT('',(-26.8,0.,11.));
#835 = SEAM_CURVE('',#836,(#840,#847),.PCURVE_S1.);
#836 = LINE('',#837,#838);
#837 = CARTESIAN_POINT('',(-26.8,0.,-1.));
#838 = VECTOR('',#839,1.);
#839 = DIRECTION('',(0.,0.,1.));
#840 = PCURVE('',#781,#841);
#841 = DEFINITIONAL_REPRESENTATION('',(#842),#846);
#842 = LINE('',#843,#844);
#843 = CARTESIAN_POINT('',(-6.28318530718,0.));
#844 = VECTOR('',#845,1.);
#845 = DIRECTION('',(-0.,-1.));
#846 = ( GEOMETRIC_REPRESENTATION_CONTEXT(2) 
PARAMETRIC_REPRESENTATION_CONTEXT() REPRESENTATION_CONTEXT('2D SPACE',''
  ) );
#847 = PCURVE('',#781,#848);
#848 = DEFINITIONAL_REPRESENTATION('',(#849),#853);
#849 = LINE('',#850,#851);
#850 = CARTESIAN_POINT('',(-0.,0.));
#851 = VECTOR('',#852,1.);
#852 = DIRECTION('',(-0.,-1.));
#853 = ( GEOMETRIC_REPRESENTATION_CONTEXT(2) 
PARAMETRIC_REPRESENTATION_CONTEXT() REPRESENTATION_CONTEXT('2D SPACE',''
  ) );
#854 = ORIENTED_EDGE('',*,*,#855,.T.);
#855 = EDGE_CURVE('',#833,#833,#856,.T.);
#856 = SURFACE_CURVE('',#857,(#862,#869),.PCURVE_S1.);
#857 = CIRCLE('',#858,3.2);
#858 = AXIS2_PLACEMENT_3D('',#859,#860,#861);
#859 = CARTESIAN_POINT('',(-30.,0.,11.));
#860 = DIRECTION('',(0.,0.,1.));
#861 = DIRECTION('',(1.,0.,0.));
#862 = PCURVE('',#781,#863);
#863 = DEFINITIONAL_REPRESENTATION('',(#864),#868);
#864 = LINE('',#865,#866);
#865 = CARTESIAN_POINT('',(-0.,-12.));
#866 = VECTOR('',#867,1.);
#867 = DIRECTION('',(-1.,0.));
#868 = ( GEOMETRIC_REPRESENTATION_CONTEXT(2) 
PARAMETRIC_REPRESENTATION_CONTEXT() REPRESENTATION_CONTEXT('2D SPACE',''
  ) );
#869 = PCURVE('',#870,#875);
#870 = PLANE('',#871);
#871 = AXIS2_PLACEMENT_3D('',#872,#873,#874);
#872 = CARTESIAN_POINT('',(-30.,2.966960495095E-16,11.));
#873 = DIRECTION('',(0.,0.,1.));
#874 = DIRECTION('',(1.,0.,-0.));
#875 = DEFINITIONAL_REPRESENTATION('',(#876),#880);
#876 = CIRCLE('',#877,3.2);
#877 = AXIS2_PLACEMENT_2D('',#878,#879);
#878 = CARTESIAN_POINT('',(-3.552713678801E-15,-2.966960495095E-16));
#879 = DIRECTION('',(1.,0.));
#880 = ( GEOMETRIC_REPRESENTATION_CONTEXT(2) 
PARAMETRIC_REPRESENTATION_CONTEXT() REPRESENTATION_CONTEXT('2D SPACE',''
  ) );
#881 = ORIENTED_EDGE('',*,*,#832,.F.);
#882 = ADVANCED_FACE('',(#883),#816,.F.);
#883 = FACE_BOUND('',#884,.T.);
#884 = EDGE_LOOP('',(#885,#886,#909,#936));
#885 = ORIENTED_EDGE('',*,*,#795,.T.);
#886 = ORIENTED_EDGE('',*,*,#887,.T.);
#887 = EDGE_CURVE('',#796,#888,#890,.T.);
#888 = VERTEX_POINT('',#889);
#889 = CARTESIAN_POINT('',(33.2,0.,11.));
#890 = SEAM_CURVE('',#891,(#895,#902),.PCURVE_S1.);
#891 = LINE('',#892,#893);
#892 = CARTESIAN_POINT('',(33.2,0.,-1.));
#893 = VECTOR('',#894,1.);
#894 = DIRECTION('',(0.,0.,1.));
#895 = PCURVE('',#816,#896);
#896 = DEFINITIONAL_REPRESENTATION('',(#897),#901);
#897 = LINE('',#898,#899);
#898 = CARTESIAN_POINT('',(-6.28318530718,0.));
#899 = VECTOR('',#900,1.);
#900 = DIRECTION('',(-0.,-1.));
#901 = ( GEOMETRIC_REPRESENTATION_CONTEXT(2) 
PARAMETRIC_REPRESENTATION_CONTEXT() REPRESENTATION_CONTEXT('2D SPACE',''
  ) );
#902 = PCURVE('',#816,#903);
#903 = DEFINITIONAL_REPRESENTATION('',(#904),#908);
#904 = LINE('',#905,#906);
#905 = CARTESIAN_POINT('',(-0.,0.));
#906 = VECTOR('',#907,1.);
#907 = DIRECTION('',(-0.,-1.));
#908 = ( GEOMETRIC_REPRESENTATION_CONTEXT(2) 
PARAMETRIC_REPRESENTATION_CONTEXT() REPRESENTATION_CONTEXT('2D SPACE',''
  ) );
#909 = ORIENTED_EDGE('',*,*,#910,.T.);
#910 = EDGE_CURVE('',#888,#888,#911,.T.);
#911 = SURFACE_CURVE('',#912,(#917,#924),.PCURVE_S1.);
#912 = CIRCLE('',#913,3.2);
#913 = AXIS2_PLACEMENT_3D('',#914,#915,#916);
#914 = CARTESIAN_POINT('',(30.,0.,11.));
#915 = DIRECTION('',(0.,0.,1.));
#916 = DIRECTION('',(1.,0.,0.));
#917 = PCURVE('',#816,#918);
#918 = DEFINITIONAL_REPRESENTATION('',(#919),#923);
#919 = LINE('',#920,#921);
#920 = CARTESIAN_POINT('',(-0.,-12.));
#921 = VECTOR('',#922,1.);
#922 = DIRECTION('',(-1.,0.));
#923 = ( GEOMETRIC_REPRESENTATION_CONTEXT(2) 
PARAMETRIC_REPRESENTATION_CONTEXT() REPRESENTATION_CONTEXT('2D SPACE',''
  ) );
#924 = PCURVE('',#925,#930);
#925 = PLANE('',#926);
#926 = AXIS2_PLACEMENT_3D('',#927,#928,#929);
#927 = CARTESIAN_POINT('',(-30.,2.966960495095E-16,11.));
#928 = DIRECTION('',(0.,0.,1.));
#929 = DIRECTION('',(1.,0.,-0.));
#930 = DEFINITIONAL_REPRESENTATION('',(#931),#935);
#931 = CIRCLE('',#932,3.2);
#932 = AXIS2_PLACEMENT_2D('',#933,#934);
#933 = CARTESIAN_POINT('',(60.,-2.966960495095E-16));
#934 = DIRECTION('',(1.,0.));
#935 = ( GEOMETRIC_REPRESENTATION_CONTEXT(2) 
PARAMETRIC_REPRESENTATION_CONTEXT() REPRESENTATION_CONTEXT('2D SPACE',''
  ) );
#936 = ORIENTED_EDGE('',*,*,#887,.F.);
#937 = ADVANCED_FACE('',(#938),#870,.F.);
#938 = FACE_BOUND('',#939,.F.);
#939 = EDGE_LOOP('',(#940));
#940 = ORIENTED_EDGE('',*,*,#855,.T.);
#941 = ADVANCED_FACE('',(#942),#925,.F.);
#942 = FACE_BOUND('',#943,.F.);
#943 = EDGE_LOOP('',(#944));
#944 = ORIENTED_EDGE('',*,*,#910,.T.);
#945 = ( GEOMETRIC_REPRESENTATION_CONTEXT(3) 
GLOBAL_UNCERTAINTY_ASSIGNED_CONTEXT((#949)) GLOBAL_UNIT_ASSIGNED_CONTEXT
((#946,#947,#948)) REPRESENTATION_CONTEXT('Context #1',
  '3D Context with UNIT and UNCERTAINTY') );
#946 = ( LENGTH_UNIT() NAMED_UNIT(*) SI_UNIT(.MILLI.,.METRE.) );
#947 = ( NAMED_UNIT(*) PLANE_ANGLE_UNIT() SI_UNIT($,.RADIAN.) );
#948 = ( NAMED_UNIT(*) SI_UNIT($,.STERADIAN.) SOLID_ANGLE_UNIT() );
#949 = UNCERTAINTY_MEASURE_WITH_UNIT(LENGTH_MEASURE(5.E-07),#946,
  'distance_accuracy_value','confusion accuracy');
#950 = PRODUCT_RELATED_PRODUCT_CATEGORY('part',$,(#7));
ENDSEC;
END-ISO-10303-21;
