# Mesh2Param deterministic OBJ
o Mesh2Param_result
v 0 0 0
v 0 0 12
v 0 30 0
v 0 30 12
v 40 0 0
v 40 0 12
v 40 30 0
v 40 30 12
vn -0.26832815729997472 -0.35777087639996635 -0.89442719099991586
vn -0.14552137502179979 -0.19402850002906638 0.97014250014533188
vn -0.26832815729997472 0.35777087639996635 -0.89442719099991586
vn -0.42426406871192851 0.56568542494923801 0.70710678118654746
vn 0.26832815729997472 -0.35777087639996635 -0.89442719099991586
vn 0.42426406871192851 -0.56568542494923801 0.70710678118654746
vn 0.26832815729997472 0.35777087639996635 -0.89442719099991586
vn 0.14552137502179979 0.19402850002906638 0.97014250014533188
f 1//1 2//2 4//4
f 1//1 3//3 7//7
f 1//1 4//4 3//3
f 1//1 5//5 6//6
f 1//1 6//6 2//2
f 1//1 7//7 5//5
f 2//2 6//6 8//8
f 2//2 8//8 4//4
f 3//3 4//4 7//7
f 4//4 8//8 7//7
f 5//5 7//7 6//6
f 6//6 7//7 8//8
