ISO-10303-21;
HEADER;
FILE_DESCRIPTION(('Open CASCADE Model'),'2;1');
FILE_NAME('Open CASCADE Shape Model','1970-01-01T00:00:00',('Author'),(
    'Open CASCADE'),'Open CASCADE STEP processor 7.9','Open CASCADE 7.9'
  ,'Unknown');
FILE_SCHEMA(('AUTOMOTIVE_DESIGN { 1 0 10303 214 1 1 1 1 }'));
ENDSEC;
DATA;
#1 = APPLICATION_PROTOCOL_DEFINITION('international standard',
  'automotive_design',2000,#2);
#2 = APPLICATION_CONTEXT(
  'core data for automotive mechanical design processes');
#3 = SHAPE_DEFINITION_REPRESENTATION(#4,#10);
#4 = PRODUCT_DEFINITION_SHAPE('','',#5);
#5 = PRODUCT_DEFINITION('design','',#6,#9);
#6 = PRODUCT_DEFINITION_FORMATION('','',#7);
#7 = PRODUCT('Open CASCADE STEP translator 7.9 1',
  'Open CASCADE STEP translator 7.9 1','',(#8));
#8 = PRODUCT_CONTEXT('',#2,'mechanical');
#9 = PRODUCT_DEFINITION_CONTEXT('part definition',#2,'design');
#10 = ADVANCED_BREP_SHAPE_REPRESENTATION('',(#11,#15),#1115);
#11 = AXIS2_PLACEMENT_3D('',#12,#13,#14);
#12 = CARTESIAN_POINT('',(0.,0.,0.));
#13 = DIRECTION('',(0.,0.,1.));
#14 = DIRECTION('',(1.,0.,-0.));
#15 = MANIFOLD_SOLID_BREP('',#16);
#16 = CLOSED_SHELL('',(#17,#163,#467,#706,#753,#800,#825,#971,#1000,
    #1038,#1088));
#17 = ADVANCED_FACE('',(#18,#54),#31,.F.);
#18 = FACE_BOUND('',#19,.T.);
#19 = EDGE_LOOP('',(#20));
#20 = ORIENTED_EDGE('',*,*,#21,.F.);
#21 = EDGE_CURVE('',#22,#22,#24,.T.);
#22 = VERTEX_POINT('',#23);
#23 = CARTESIAN_POINT('',(38.,0.,0.));
#24 = SURFACE_CURVE('',#25,(#30,#42),.PCURVE_S1.);
#25 = CIRCLE('',#26,38.);
#26 = AXIS2_PLACEMENT_3D('',#27,#28,#29);
#27 = CARTESIAN_POINT('',(0.,0.,0.));
#28 = DIRECTION('',(0.,0.,1.));
#29 = DIRECTION('',(1.,0.,-0.));
#30 = PCURVE('',#31,#36);
#31 = PLANE('',#32);
#32 = AXIS2_PLACEMENT_3D('',#33,#34,#35);
#33 = CARTESIAN_POINT('',(0.,0.,0.));
#34 = DIRECTION('',(0.,0.,1.));
#35 = DIRECTION('',(1.,0.,-0.));
#36 = DEFINITIONAL_REPRESENTATION('',(#37),#41);
#37 = CIRCLE('',#38,38.);
#38 = AXIS2_PLACEMENT_2D('',#39,#40);
#39 = CARTESIAN_POINT('',(0.,0.));
#40 = DIRECTION('',(1.,-0.));
#41 = ( GEOMETRIC_REPRESENTATION_CONTEXT(2) 
PARAMETRIC_REPRESENTATION_CONTEXT() REPRESENTATION_CONTEXT('2D SPACE',''
  ) );
#42 = PCURVE('',#43,#48);
#43 = CYLINDRICAL_SURFACE('',#44,38.);
#44 = AXIS2_PLACEMENT_3D('',#45,#46,#47);
#45 = CARTESIAN_POINT('',(0.,0.,0.));
#46 = DIRECTION('',(0.,0.,1.));
#47 = DIRECTION('',(1.,0.,-0.));
#48 = DEFINITIONAL_REPRESENTATION('',(#49),#53);
#49 = LINE('',#50,#51);
#50 = CARTESIAN_POINT('',(0.,0.));
#51 = VECTOR('',#52,1.);
#52 = DIRECTION('',(1.,0.));
#53 = ( GEOMETRIC_REPRESENTATION_CONTEXT(2) 
PARAMETRIC_REPRESENTATION_CONTEXT() REPRESENTATION_CONTEXT('2D SPACE',''
  ) );
#54 = FACE_BOUND('',#55,.T.);
#55 = EDGE_LOOP('',(#56,#87,#113,#139));
#56 = ORIENTED_EDGE('',*,*,#57,.T.);
#57 = EDGE_CURVE('',#58,#60,#62,.T.);
#58 = VERTEX_POINT('',#59);
#59 = CARTESIAN_POINT('',(-2.,7.745966692415,0.));
#60 = VERTEX_POINT('',#61);
#61 = CARTESIAN_POINT('',(2.,7.745966692415,0.));
#62 = SURFACE_CURVE('',#63,(#68,#75),.PCURVE_S1.);
#63 = CIRCLE('',#64,8.);
#64 = AXIS2_PLACEMENT_3D('',#65,#66,#67);
#65 = CARTESIAN_POINT('',(0.,0.,0.));
#66 = DIRECTION('',(0.,0.,1.));
#67 = DIRECTION('',(-0.25,0.968245836552,0.));
#68 = PCURVE('',#31,#69);
#69 = DEFINITIONAL_REPRESENTATION('',(#70),#74);
#70 = CIRCLE('',#71,8.);
#71 = AXIS2_PLACEMENT_2D('',#72,#73);
#72 = CARTESIAN_POINT('',(0.,0.));
#73 = DIRECTION('',(-0.25,0.968245836552));
#74 = ( GEOMETRIC_REPRESENTATION_CONTEXT(2) 
PARAMETRIC_REPRESENTATION_CONTEXT() REPRESENTATION_CONTEXT('2D SPACE',''
  ) );
#75 = PCURVE('',#76,#81);
#76 = CYLINDRICAL_SURFACE('',#77,8.);
#77 = AXIS2_PLACEMENT_3D('',#78,#79,#80);
#78 = CARTESIAN_POINT('',(0.,0.,24.));
#79 = DIRECTION('',(-0.,-0.,-1.));
#80 = DIRECTION('',(1.,0.,0.));
#81 = DEFINITIONAL_REPRESENTATION('',(#82),#86);
#82 = LINE('',#83,#84);
#83 = CARTESIAN_POINT('',(-1.823476581937,24.));
#84 = VECTOR('',#85,1.);
#85 = DIRECTION('',(-1.,0.));
#86 = ( GEOMETRIC_REPRESENTATION_CONTEXT(2) 
PARAMETRIC_REPRESENTATION_CONTEXT() REPRESENTATION_CONTEXT('2D SPACE',''
  ) );
#87 = ORIENTED_EDGE('',*,*,#88,.F.);
#88 = EDGE_CURVE('',#89,#60,#91,.T.);
#89 = VERTEX_POINT('',#90);
#90 = CARTESIAN_POINT('',(2.,8.4,0.));
#91 = SURFACE_CURVE('',#92,(#96,#102),.PCURVE_S1.);
#92 = LINE('',#93,#94);
#93 = CARTESIAN_POINT('',(2.,2.,0.));
#94 = VECTOR('',#95,1.);
#95 = DIRECTION('',(0.,-1.,0.));
#96 = PCURVE('',#31,#97);
#97 = DEFINITIONAL_REPRESENTATION('',(#98),#101);
#98 = B_SPLINE_CURVE_WITH_KNOTS('',1,(#99,#100),.UNSPECIFIED.,.F.,.F.,(2
    ,2),(-6.4,-2.),.PIECEWISE_BEZIER_KNOTS.);
#99 = CARTESIAN_POINT('',(2.,8.4));
#100 = CARTESIAN_POINT('',(2.,4.));
#101 = ( GEOMETRIC_REPRESENTATION_CONTEXT(2) 
PARAMETRIC_REPRESENTATION_CONTEXT() REPRESENTATION_CONTEXT('2D SPACE',''
  ) );
#102 = PCURVE('',#103,#108);
#103 = PLANE('',#104);
#104 = AXIS2_PLACEMENT_3D('',#105,#106,#107);
#105 = CARTESIAN_POINT('',(2.,4.,-1.));
#106 = DIRECTION('',(1.,0.,0.));
#107 = DIRECTION('',(0.,0.,1.));
#108 = DEFINITIONAL_REPRESENTATION('',(#109),#112);
#109 = B_SPLINE_CURVE_WITH_KNOTS('',1,(#110,#111),.UNSPECIFIED.,.F.,.F.,
  (2,2),(-6.4,-2.),.PIECEWISE_BEZIER_KNOTS.);
#110 = CARTESIAN_POINT('',(1.,-4.4));
#111 = CARTESIAN_POINT('',(1.,0.));
#112 = ( GEOMETRIC_REPRESENTATION_CONTEXT(2) 
PARAMETRIC_REPRESENTATION_CONTEXT() REPRESENTATION_CONTEXT('2D SPACE',''
  ) );
#113 = ORIENTED_EDGE('',*,*,#114,.F.);
#114 = EDGE_CURVE('',#115,#89,#117,.T.);
#115 = VERTEX_POINT('',#116);
#116 = CARTESIAN_POINT('',(-2.,8.4,0.));
#117 = SURFACE_CURVE('',#118,(#122,#128),.PCURVE_S1.);
#118 = LINE('',#119,#120);
#119 = CARTESIAN_POINT('',(-1.,8.4,0.));
#120 = VECTOR('',#121,1.);
#121 = DIRECTION('',(1.,0.,0.));
#122 = PCURVE('',#31,#123);
#123 = DEFINITIONAL_REPRESENTATION('',(#124),#127);
#124 = B_SPLINE_CURVE_WITH_KNOTS('',1,(#125,#126),.UNSPECIFIED.,.F.,.F.,
  (2,2),(-1.,3.),.PIECEWISE_BEZIER_KNOTS.);
#125 = CARTESIAN_POINT('',(-2.,8.4));
#126 = CARTESIAN_POINT('',(2.,8.4));
#127 = ( GEOMETRIC_REPRESENTATION_CONTEXT(2) 
PARAMETRIC_REPRESENTATION_CONTEXT() REPRESENTATION_CONTEXT('2D SPACE',''
  ) );
#128 = PCURVE('',#129,#134);
#129 = PLANE('',#130);
#130 = AXIS2_PLACEMENT_3D('',#131,#132,#133);
#131 = CARTESIAN_POINT('',(-2.,8.4,-1.));
#132 = DIRECTION('',(0.,1.,0.));
#133 = DIRECTION('',(0.,0.,1.));
#134 = DEFINITIONAL_REPRESENTATION('',(#135),#138);
#135 = B_SPLINE_CURVE_WITH_KNOTS('',1,(#136,#137),.UNSPECIFIED.,.F.,.F.,
  (2,2),(-1.,3.),.PIECEWISE_BEZIER_KNOTS.);
#136 = CARTESIAN_POINT('',(1.,0.));
#137 = CARTESIAN_POINT('',(1.,4.));
#138 = ( GEOMETRIC_REPRESENTATION_CONTEXT(2) 
PARAMETRIC_REPRESENTATION_CONTEXT() REPRESENTATION_CONTEXT('2D SPACE',''
  ) );
#139 = ORIENTED_EDGE('',*,*,#140,.T.);
#140 = EDGE_CURVE('',#115,#58,#141,.T.);
#141 = SURFACE_CURVE('',#142,(#146,#152),.PCURVE_S1.);
#142 = LINE('',#143,#144);
#143 = CARTESIAN_POINT('',(-2.,2.,0.));
#144 = VECTOR('',#145,1.);
#145 = DIRECTION('',(0.,-1.,0.));
#146 = PCURVE('',#31,#147);
#147 = DEFINITIONAL_REPRESENTATION('',(#148),#151);
#148 = B_SPLINE_CURVE_WITH_KNOTS('',1,(#149,#150),.UNSPECIFIED.,.F.,.F.,
  (2,2),(-6.4,-2.),.PIECEWISE_BEZIER_KNOTS.);
#149 = CARTESIAN_POINT('',(-2.,8.4));
#150 = CARTESIAN_POINT('',(-2.,4.));
#151 = ( GEOMETRIC_REPRESENTATION_CONTEXT(2) 
PARAMETRIC_REPRESENTATION_CONTEXT() REPRESENTATION_CONTEXT('2D SPACE',''
  ) );
#152 = PCURVE('',#153,#158);
#153 = PLANE('',#154);
#154 = AXIS2_PLACEMENT_3D('',#155,#156,#157);
#155 = CARTESIAN_POINT('',(-2.,4.,-1.));
#156 = DIRECTION('',(1.,0.,0.));
#157 = DIRECTION('',(0.,0.,1.));
#158 = DEFINITIONAL_REPRESENTATION('',(#159),#162);
#159 = B_SPLINE_CURVE_WITH_KNOTS('',1,(#160,#161),.UNSPECIFIED.,.F.,.F.,
  (2,2),(-6.4,-2.),.PIECEWISE_BEZIER_KNOTS.);
#160 = CARTESIAN_POINT('',(1.,-4.4));
#161 = CARTESIAN_POINT('',(1.,0.));
#162 = ( GEOMETRIC_REPRESENTATION_CONTEXT(2) 
PARAMETRIC_REPRESENTATION_CONTEXT() REPRESENTATION_CONTEXT('2D SPACE',''
  ) );
#163 = ADVANCED_FACE('',(#164),#43,.T.);
#164 = FACE_BOUND('',#165,.T.);
#165 = EDGE_LOOP('',(#166,#189,#190,#191,#220,#371,#445));
#166 = ORIENTED_EDGE('',*,*,#167,.F.);
#167 = EDGE_CURVE('',#22,#168,#170,.T.);
#168 = VERTEX_POINT('',#169);
#169 = CARTESIAN_POINT('',(38.,0.,6.));
#170 = SEAM_CURVE('',#171,(#175,#182),.PCURVE_S1.);
#171 = LINE('',#172,#173);
#172 = CARTESIAN_POINT('',(38.,0.,0.));
#173 = VECTOR('',#174,1.);
#174 = DIRECTION('',(0.,0.,1.));
#175 = PCURVE('',#43,#176);
#176 = DEFINITIONAL_REPRESENTATION('',(#177),#181);
#177 = LINE('',#178,#179);
#178 = CARTESIAN_POINT('',(0.,0.));
#179 = VECTOR('',#180,1.);
#180 = DIRECTION('',(0.,1.));
#181 = ( GEOMETRIC_REPRESENTATION_CONTEXT(2) 
PARAMETRIC_REPRESENTATION_CONTEXT() REPRESENTATION_CONTEXT('2D SPACE',''
  ) );
#182 = PCURVE('',#43,#183);
#183 = DEFINITIONAL_REPRESENTATION('',(#184),#188);
#184 = LINE('',#185,#186);
#185 = CARTESIAN_POINT('',(6.28318530718,0.));
#186 = VECTOR('',#187,1.);
#187 = DIRECTION('',(0.,1.));
#188 = ( GEOMETRIC_REPRESENTATION_CONTEXT(2) 
PARAMETRIC_REPRESENTATION_CONTEXT() REPRESENTATION_CONTEXT('2D SPACE',''
  ) );
#189 = ORIENTED_EDGE('',*,*,#21,.T.);
#190 = ORIENTED_EDGE('',*,*,#167,.T.);
#191 = ORIENTED_EDGE('',*,*,#192,.F.);
#192 = EDGE_CURVE('',#193,#168,#195,.T.);
#193 = VERTEX_POINT('',#194);
#194 = CARTESIAN_POINT('',(-37.99460488016,-0.640312423743,6.));
#195 = SURFACE_CURVE('',#196,(#201,#208),.PCURVE_S1.);
#196 = CIRCLE('',#197,38.);
#197 = AXIS2_PLACEMENT_3D('',#198,#199,#200);
#198 = CARTESIAN_POINT('',(0.,0.,6.));
#199 = DIRECTION('',(0.,0.,1.));
#200 = DIRECTION('',(1.,0.,-0.));
#201 = PCURVE('',#43,#202);
#202 = DEFINITIONAL_REPRESENTATION('',(#203),#207);
#203 = LINE('',#204,#205);
#204 = CARTESIAN_POINT('',(0.,6.));
#205 = VECTOR('',#206,1.);
#206 = DIRECTION('',(1.,0.));
#207 = ( GEOMETRIC_REPRESENTATION_CONTEXT(2) 
PARAMETRIC_REPRESENTATION_CONTEXT() REPRESENTATION_CONTEXT('2D SPACE',''
  ) );
#208 = PCURVE('',#209,#214);
#209 = CONICAL_SURFACE('',#210,38.,0.927295218002);
#210 = AXIS2_PLACEMENT_3D('',#211,#212,#213);
#211 = CARTESIAN_POINT('',(0.,0.,6.));
#212 = DIRECTION('',(-0.,-0.,-1.));
#213 = DIRECTION('',(1.,0.,-0.));
#214 = DEFINITIONAL_REPRESENTATION('',(#215),#219);
#215 = LINE('',#216,#217);
#216 = CARTESIAN_POINT('',(-0.,-0.));
#217 = VECTOR('',#218,1.);
#218 = DIRECTION('',(-1.,-0.));
#219 = ( GEOMETRIC_REPRESENTATION_CONTEXT(2) 
PARAMETRIC_REPRESENTATION_CONTEXT() REPRESENTATION_CONTEXT('2D SPACE',''
  ) );
#220 = ORIENTED_EDGE('',*,*,#221,.T.);
#221 = EDGE_CURVE('',#193,#222,#224,.T.);
#222 = VERTEX_POINT('',#223);
#223 = CARTESIAN_POINT('',(-37.94192931309,2.1,4.));
#224 = SURFACE_CURVE('',#225,(#270,#318),.PCURVE_S1.);
#225 = B_SPLINE_CURVE_WITH_KNOTS('',7,(#226,#227,#228,#229,#230,#231,
    #232,#233,#234,#235,#236,#237,#238,#239,#240,#241,#242,#243,#244,
    #245,#246,#247,#248,#249,#250,#251,#252,#253,#254,#255,#256,#257,
    #258,#259,#260,#261,#262,#263,#264,#265,#266,#267,#268,#269),
  .UNSPECIFIED.,.F.,.F.,(8,6,6,6,6,6,6,8),(0.,7.978691754736E-02,
    0.175554314197,0.295420148146,0.468174911944,0.648582967565,
    0.806882876347,1.),.UNSPECIFIED.);
#226 = CARTESIAN_POINT('',(-37.99460491175,-0.640310549655,6.0000006));
#227 = CARTESIAN_POINT('',(-37.99266973586,-0.755139585904,
    5.963237489371));
#228 = CARTESIAN_POINT('',(-37.99040433993,-0.865527782645,
    5.919416110188));
#229 = CARTESIAN_POINT('',(-37.98787241973,-0.971050326113,
    5.869198264816));
#230 = CARTESIAN_POINT('',(-37.98514163617,-1.071356617485,
    5.813259438384));
#231 = CARTESIAN_POINT('',(-37.98227998939,-1.166170518762,
    5.752288829468));
#232 = CARTESIAN_POINT('',(-37.97935219283,-1.255290598656,
    5.686989380777));
#233 = CARTESIAN_POINT('',(-37.97289182277,-1.438574226698,
    5.535363977141));
#234 = CARTESIAN_POINT('',(-37.96934906645,-1.53035993131,5.447291560807
    ));
#235 = CARTESIAN_POINT('',(-37.96587473545,-1.614053539297,
    5.354749339759));
#236 = CARTESIAN_POINT('',(-37.96254106205,-1.689803891319,
    5.258491696574));
#237 = CARTESIAN_POINT('',(-37.95940619163,-1.757782354005,
    5.159159343088));
#238 = CARTESIAN_POINT('',(-37.95651575555,-1.818164495002,
    5.057298717002));
#239 = CARTESIAN_POINT('',(-37.95063814013,-1.937386784657,
    4.823311798834));
#240 = CARTESIAN_POINT('',(-37.94780818697,-1.992044582864,
    4.689962841095));
#241 = CARTESIAN_POINT('',(-37.94548488759,-2.035411778515,4.55420579917
    ));
#242 = CARTESIAN_POINT('',(-37.94371421391,-2.067750873644,
    4.416753650423));
#243 = CARTESIAN_POINT('',(-37.94252441067,-2.089248132278,
    4.278209699638));
#244 = CARTESIAN_POINT('',(-37.94192931309,-2.1,4.139115968276));
#245 = CARTESIAN_POINT('',(-37.94192931309,-2.1,3.799501280321));
#246 = CARTESIAN_POINT('',(-37.94316537708,-2.077667168187,
    3.599137254522));
#247 = CARTESIAN_POINT('',(-37.9456347135,-2.033052945202,3.400385498493
    ));
#248 = CARTESIAN_POINT('',(-37.94927873462,-1.965711602436,3.20485693635
    ));
#249 = CARTESIAN_POINT('',(-37.95397824505,-1.874821665264,
    3.014548283071));
#250 = CARTESIAN_POINT('',(-37.95951524431,-1.759314173315,2.83213505731
    ));
#251 = CARTESIAN_POINT('',(-37.97182080344,-1.470584466321,
    2.483120796158));
#252 = CARTESIAN_POINT('',(-37.97880647032,-1.290963898004,
    2.312660086627));
#253 = CARTESIAN_POINT('',(-37.98596784501,-1.079192630373,
    2.160497937759));
#254 = CARTESIAN_POINT('',(-37.9924878315,-0.838127332037,2.035937779783
    ));
#255 = CARTESIAN_POINT('',(-37.99740552604,-0.572956446191,
    1.946946918446));
#256 = CARTESIAN_POINT('',(-38.,-0.290698166689,1.9));
#257 = CARTESIAN_POINT('',(-38.,0.255074492719,1.9));
#258 = CARTESIAN_POINT('',(-37.99800243136,0.50482694809,1.936145890054)
  );
#259 = CARTESIAN_POINT('',(-37.99415749943,0.742830824232,2.005724132371
    ));
#260 = CARTESIAN_POINT('',(-37.9889111699,0.963474160632,2.10455552842)
  );
#261 = CARTESIAN_POINT('',(-37.98291388748,1.162303894007,2.227102752968
    ));
#262 = CARTESIAN_POINT('',(-37.97678280272,1.33643238092,2.366583899936)
  );
#263 = CARTESIAN_POINT('',(-37.96389148454,1.666076087179,2.696227606195
    ));
#264 = CARTESIAN_POINT('',(-37.95710358668,1.813826124533,2.895541384057
    ));
#265 = CARTESIAN_POINT('',(-37.95122479112,1.929634793427,3.106681659906
    ));
#266 = CARTESIAN_POINT('',(-37.94662612067,2.015142358206,3.325399048835
    ));
#267 = CARTESIAN_POINT('',(-37.94349669137,2.07168070085,3.548677607887)
  );
#268 = CARTESIAN_POINT('',(-37.94192931309,2.1,3.774220481411));
#269 = CARTESIAN_POINT('',(-37.94192931309,2.1,4.));
#270 = PCURVE('',#43,#271);
#271 = DEFINITIONAL_REPRESENTATION('',(#272),#317);
#272 = B_SPLINE_CURVE_WITH_KNOTS('',7,(#273,#274,#275,#276,#277,#278,
    #279,#280,#281,#282,#283,#284,#285,#286,#287,#288,#289,#290,#291,
    #292,#293,#294,#295,#296,#297,#298,#299,#300,#301,#302,#303,#304,
    #305,#306,#307,#308,#309,#310,#311,#312,#313,#314,#315,#316),
  .UNSPECIFIED.,.F.,.F.,(8,6,6,6,6,6,6,8),(0.,7.978691754736E-02,
    0.175554314197,0.295420148146,0.468174911944,0.648582967565,
    0.806882876347,1.),.UNSPECIFIED.);
#273 = CARTESIAN_POINT('',(3.158443728703,6.0000006));
#274 = CARTESIAN_POINT('',(3.161465974532,5.963237489371));
#275 = CARTESIAN_POINT('',(3.164371518956,5.919416110188));
#276 = CARTESIAN_POINT('',(3.167149202009,5.869198264816));
#277 = CARTESIAN_POINT('',(3.169789796898,5.813259438384));
#278 = CARTESIAN_POINT('',(3.172286020631,5.752288829468));
#279 = CARTESIAN_POINT('',(3.174632544648,5.686989380777));
#280 = CARTESIAN_POINT('',(3.179458793334,5.535363977141));
#281 = CARTESIAN_POINT('',(3.181875991674,5.447291560807));
#282 = CARTESIAN_POINT('',(3.184080338651,5.354749339759));
#283 = CARTESIAN_POINT('',(3.186075689537,5.258491696574));
#284 = CARTESIAN_POINT('',(3.187866493033,5.159159343088));
#285 = CARTESIAN_POINT('',(3.189457314639,5.057298717002));
#286 = CARTESIAN_POINT('',(3.192598553688,4.823311798834));
#287 = CARTESIAN_POINT('',(3.194038839081,4.689962841095));
#288 = CARTESIAN_POINT('',(3.195181715813,4.55420579917));
#289 = CARTESIAN_POINT('',(3.196034019282,4.416753650423));
#290 = CARTESIAN_POINT('',(3.196600602344,4.278209699638));
#291 = CARTESIAN_POINT('',(3.196883979313,4.139115968276));
#292 = CARTESIAN_POINT('',(3.196883979313,3.799501280321));
#293 = CARTESIAN_POINT('',(3.19629537376,3.599137254522));
#294 = CARTESIAN_POINT('',(3.195119518125,3.400385498493));
#295 = CARTESIAN_POINT('',(3.1933447867,3.20485693635));
#296 = CARTESIAN_POINT('',(3.190949765579,3.014548283071));
#297 = CARTESIAN_POINT('',(3.187906647144,2.83213505731));
#298 = CARTESIAN_POINT('',(3.180301599319,2.483120796158));
#299 = CARTESIAN_POINT('',(3.175571202356,2.312660086627));
#300 = CARTESIAN_POINT('',(3.169995204631,2.160497937759));
#301 = CARTESIAN_POINT('',(3.163649363141,2.035937779783));
#302 = CARTESIAN_POINT('',(3.15667045568,1.946946918446));
#303 = CARTESIAN_POINT('',(3.149242605345,1.9));
#304 = CARTESIAN_POINT('',(3.134880166939,1.9));
#305 = CARTESIAN_POINT('',(3.128307733366,1.936145890054));
#306 = CARTESIAN_POINT('',(3.122043982459,2.005724132371));
#307 = CARTESIAN_POINT('',(3.116236180793,2.10455552842));
#308 = CARTESIAN_POINT('',(3.111001548381,2.227102752968));
#309 = CARTESIAN_POINT('',(3.10641641538,2.366583899936));
#310 = CARTESIAN_POINT('',(3.097734950138,2.696227606195));
#311 = CARTESIAN_POINT('',(3.093842780731,2.895541384057));
#312 = CARTESIAN_POINT('',(3.090791289201,3.106681659906));
#313 = CARTESIAN_POINT('',(3.08853784188,3.325399048835));
#314 = CARTESIAN_POINT('',(3.087047713106,3.548677607887));
#315 = CARTESIAN_POINT('',(3.086301327866,3.774220481411));
#316 = CARTESIAN_POINT('',(3.086301327866,4.));
#317 = ( GEOMETRIC_REPRESENTATION_CONTEXT(2) 
PARAMETRIC_REPRESENTATION_CONTEXT() REPRESENTATION_CONTEXT('2D SPACE',''
  ) );
#318 = PCURVE('',#319,#324);
#319 = CYLINDRICAL_SURFACE('',#320,2.1);
#320 = AXIS2_PLACEMENT_3D('',#321,#322,#323);
#321 = CARTESIAN_POINT('',(-40.,0.,4.));
#322 = DIRECTION('',(-1.,-0.,-0.));
#323 = DIRECTION('',(0.,1.,0.));
#324 = DEFINITIONAL_REPRESENTATION('',(#325),#370);
#325 = B_SPLINE_CURVE_WITH_KNOTS('',7,(#326,#327,#328,#329,#330,#331,
    #332,#333,#334,#335,#336,#337,#338,#339,#340,#341,#342,#343,#344,
    #345,#346,#347,#348,#349,#350,#351,#352,#353,#354,#355,#356,#357,
    #358,#359,#360,#361,#362,#363,#364,#365,#366,#367,#368,#369),
  .UNSPECIFIED.,.F.,.F.,(8,6,6,6,6,6,6,8),(0.,7.978691754736E-02,
    0.175554314197,0.295420148146,0.468174911944,0.648582967565,
    0.806882876347,1.),.UNSPECIFIED.);
#326 = CARTESIAN_POINT('',(-1.880640029493,-2.00539508825));
#327 = CARTESIAN_POINT('',(-1.938054530393,-2.007330264138));
#328 = CARTESIAN_POINT('',(-1.994480080613,-2.009595660066));
#329 = CARTESIAN_POINT('',(-2.049936234911,-2.012127580267));
#330 = CARTESIAN_POINT('',(-2.104428191859,-2.014858363828));
#331 = CARTESIAN_POINT('',(-2.157946374274,-2.017720010609));
#332 = CARTESIAN_POINT('',(-2.21046600965,-2.020647807168));
#333 = CARTESIAN_POINT('',(-2.323738453614,-2.027108177223));
#334 = CARTESIAN_POINT('',(-2.384148768326,-2.030650933542));
#335 = CARTESIAN_POINT('',(-2.443331901254,-2.034125264549));
#336 = CARTESIAN_POINT('',(-2.501421959732,-2.03745893795));
#337 = CARTESIAN_POINT('',(-2.558543210776,-2.040593808366));
#338 = CARTESIAN_POINT('',(-2.614815352137,-2.043484244447));
#339 = CARTESIAN_POINT('',(-2.739867570005,-2.049361859869));
#340 = CARTESIAN_POINT('',(-2.80826238888,-2.052191813028));
#341 = CARTESIAN_POINT('',(-2.875786238597,-2.054515112405));
#342 = CARTESIAN_POINT('',(-2.942663941277,-2.056285786085));
#343 = CARTESIAN_POINT('',(-3.009111740623,-2.057475589321));
#344 = CARTESIAN_POINT('',(-3.075346954411,-2.058070686904));
#345 = CARTESIAN_POINT('',(-3.237068234389,-2.058070686904));
#346 = CARTESIAN_POINT('',(-3.332479556375,-2.056834622917));
#347 = CARTESIAN_POINT('',(-3.428545313379,-2.054365286492));
#348 = CARTESIAN_POINT('',(-3.525909041769,-2.050721265374));
#349 = CARTESIAN_POINT('',(-3.625241663564,-2.046021754945));
#350 = CARTESIAN_POINT('',(-3.727231772875,-2.040484755681));
#351 = CARTESIAN_POINT('',(-3.942928607126,-2.028179196554));
#352 = CARTESIAN_POINT('',(-4.059993729865,-2.021193529679));
#353 = CARTESIAN_POINT('',(-4.182288293307,-2.01403215499));
#354 = CARTESIAN_POINT('',(-4.308948210906,-2.007512168499));
#355 = CARTESIAN_POINT('',(-4.439552626883,-2.002594473959));
#356 = CARTESIAN_POINT('',(-4.573961281961,-2.));
#357 = CARTESIAN_POINT('',(-4.833853024537,-2.));
#358 = CARTESIAN_POINT('',(-4.952782641171,-2.001997568634));
#359 = CARTESIAN_POINT('',(-5.069045370481,-2.005842500563));
#360 = CARTESIAN_POINT('',(-5.182343702504,-2.011088830095));
#361 = CARTESIAN_POINT('',(-5.292189556958,-2.017086112518));
#362 = CARTESIAN_POINT('',(-5.397787523921,-2.023217197275));
#363 = CARTESIAN_POINT('',(-5.619781143036,-2.036108515456));
#364 = CARTESIAN_POINT('',(-5.736643860269,-2.042896413319));
#365 = CARTESIAN_POINT('',(-5.849697022489,-2.048775208872));
#366 = CARTESIAN_POINT('',(-5.959915638634,-2.053373879325));
#367 = CARTESIAN_POINT('',(-6.068270230035,-2.056503308623));
#368 = CARTESIAN_POINT('',(-6.175671250709,-2.058070686904));
#369 = CARTESIAN_POINT('',(-6.28318530718,-2.058070686904));
#370 = ( GEOMETRIC_REPRESENTATION_CONTEXT(2) 
PARAMETRIC_REPRESENTATION_CONTEXT() REPRESENTATION_CONTEXT('2D SPACE',''
  ) );
#371 = ORIENTED_EDGE('',*,*,#372,.T.);
#372 = EDGE_CURVE('',#222,#373,#375,.T.);
#373 = VERTEX_POINT('',#374);
#374 = CARTESIAN_POINT('',(-37.99460488016,0.640312423743,6.));
#375 = SURFACE_CURVE('',#376,(#397,#421),.PCURVE_S1.);
#376 = B_SPLINE_CURVE_WITH_KNOTS('',7,(#377,#378,#379,#380,#381,#382,
    #383,#384,#385,#386,#387,#388,#389,#390,#391,#392,#393,#394,#395,
    #396),.UNSPECIFIED.,.F.,.F.,(8,6,6,8),(0.,0.54704636659,
    0.729864732732,1.),.UNSPECIFIED.);
#377 = CARTESIAN_POINT('',(-37.94192931309,2.1,4.));
#378 = CARTESIAN_POINT('',(-37.94192931309,2.1,4.187616391258));
#379 = CARTESIAN_POINT('',(-37.94301165112,2.080444702678,4.375134467983
    ));
#380 = CARTESIAN_POINT('',(-37.94517439385,2.041369485279,4.561323860765
    ));
#381 = CARTESIAN_POINT('',(-37.94837233802,1.982438809979,4.744862508881
    ));
#382 = CARTESIAN_POINT('',(-37.95251361712,1.903025770899,4.924154137711
    ));
#383 = CARTESIAN_POINT('',(-37.95743505387,1.802296466772,5.097116881963
    ));
#384 = CARTESIAN_POINT('',(-37.96469204211,1.638246008751,5.315611577783
    ));
#385 = CARTESIAN_POINT('',(-37.96656778476,1.594667827647,5.369318542805
    ));
#386 = CARTESIAN_POINT('',(-37.96849148936,1.548574438184,5.421887354491
    ));
#387 = CARTESIAN_POINT('',(-37.97045172233,1.499940202794,5.473191165542
    ));
#388 = CARTESIAN_POINT('',(-37.97243563967,1.448742975131,5.523092113737
    ));
#389 = CARTESIAN_POINT('',(-37.97442897829,1.394964427531,5.571441140562
    ));
#390 = CARTESIAN_POINT('',(-37.97935217146,1.255291204922,5.68698887923)
  );
#391 = CARTESIAN_POINT('',(-37.9822799756,1.166170994848,5.752288556443)
  );
#392 = CARTESIAN_POINT('',(-37.98514164378,1.071356482414,5.813259633946
    ));
#393 = CARTESIAN_POINT('',(-37.98787244699,0.971049427609,5.869198828242
    ));
#394 = CARTESIAN_POINT('',(-37.99040437322,0.865526356885,5.919416754276
    ));
#395 = CARTESIAN_POINT('',(-37.99266975746,0.7551383038,5.963237899843)
  );
#396 = CARTESIAN_POINT('',(-37.99460491175,0.640310549655,6.0000006));
#397 = PCURVE('',#43,#398);
#398 = DEFINITIONAL_REPRESENTATION('',(#399),#420);
#399 = B_SPLINE_CURVE_WITH_KNOTS('',7,(#400,#401,#402,#403,#404,#405,
    #406,#407,#408,#409,#410,#411,#412,#413,#414,#415,#416,#417,#418,
    #419),.UNSPECIFIED.,.F.,.F.,(8,6,6,8),(0.,0.54704636659,
    0.729864732732,1.),.UNSPECIFIED.);
#400 = CARTESIAN_POINT('',(3.086301327866,4.));
#401 = CARTESIAN_POINT('',(3.086301327866,4.187616391258));
#402 = CARTESIAN_POINT('',(3.086816728552,4.375134467983));
#403 = CARTESIAN_POINT('',(3.087846597704,4.561323860765));
#404 = CARTESIAN_POINT('',(3.089399685457,4.744862508881));
#405 = CARTESIAN_POINT('',(3.09149233216,4.924154137711));
#406 = CARTESIAN_POINT('',(3.09414623707,5.097116881963));
#407 = CARTESIAN_POINT('',(3.098467576301,5.315611577783));
#408 = CARTESIAN_POINT('',(3.099615431569,5.369318542805));
#409 = CARTESIAN_POINT('',(3.100829469732,5.421887354491));
#410 = CARTESIAN_POINT('',(3.102110354676,5.473191165542));
#411 = CARTESIAN_POINT('',(3.103458658394,5.523092113737));
#412 = CARTESIAN_POINT('',(3.104874852834,5.571441140562));
#413 = CARTESIAN_POINT('',(3.108552746567,5.68698887923));
#414 = CARTESIAN_POINT('',(3.110899274015,5.752288556443));
#415 = CARTESIAN_POINT('',(3.113395513841,5.813259633946));
#416 = CARTESIAN_POINT('',(3.116036128825,5.869198828242));
#417 = CARTESIAN_POINT('',(3.118813825752,5.919416754276));
#418 = CARTESIAN_POINT('',(3.121719366392,5.963237899843));
#419 = CARTESIAN_POINT('',(3.124741578477,6.0000006));
#420 = ( GEOMETRIC_REPRESENTATION_CONTEXT(2) 
PARAMETRIC_REPRESENTATION_CONTEXT() REPRESENTATION_CONTEXT('2D SPACE',''
  ) );
#421 = PCURVE('',#319,#422);
#422 = DEFINITIONAL_REPRESENTATION('',(#423),#444);
#423 = B_SPLINE_CURVE_WITH_KNOTS('',7,(#424,#425,#426,#427,#428,#429,
    #430,#431,#432,#433,#434,#435,#436,#437,#438,#439,#440,#441,#442,
    #443),.UNSPECIFIED.,.F.,.F.,(8,6,6,8),(0.,0.54704636659,
    0.729864732732,1.),.UNSPECIFIED.);
#424 = CARTESIAN_POINT('',(0.,-2.058070686904));
#425 = CARTESIAN_POINT('',(-8.934113869441E-02,-2.058070686904));
#426 = CARTESIAN_POINT('',(-0.178635396331,-2.056988348871));
#427 = CARTESIAN_POINT('',(-0.268462051294,-2.05482560615));
#428 = CARTESIAN_POINT('',(-0.359349553084,-2.051627661977));
#429 = CARTESIAN_POINT('',(-0.451843936276,-2.04748638288));
#430 = CARTESIAN_POINT('',(-0.546508536076,-2.042564946125));
#431 = CARTESIAN_POINT('',(-0.676616188066,-2.035307957881));
#432 = CARTESIAN_POINT('',(-0.709527529414,-2.033432215233));
#433 = CARTESIAN_POINT('',(-0.742781179055,-2.031508510631));
#434 = CARTESIAN_POINT('',(-0.77639764994,-2.029548277669));
#435 = CARTESIAN_POINT('',(-0.81039821383,-2.02756436033));
#436 = CARTESIAN_POINT('',(-0.844805808176,-2.025571021702));
#437 = CARTESIAN_POINT('',(-0.931126269257,-2.020647828537));
#438 = CARTESIAN_POINT('',(-0.983646021657,-2.017720024393));
#439 = CARTESIAN_POINT('',(-1.037164565459,-2.014858356216));
#440 = CARTESIAN_POINT('',(-1.091656918384,-2.012127553006));
#441 = CARTESIAN_POINT('',(-1.147113313858,-2.009595626776));
#442 = CARTESIAN_POINT('',(-1.203538764249,-2.007330242531));
#443 = CARTESIAN_POINT('',(-1.260952624097,-2.00539508825));
#444 = ( GEOMETRIC_REPRESENTATION_CONTEXT(2) 
PARAMETRIC_REPRESENTATION_CONTEXT() REPRESENTATION_CONTEXT('2D SPACE',''
  ) );
#445 = ORIENTED_EDGE('',*,*,#446,.F.);
#446 = EDGE_CURVE('',#168,#373,#447,.T.);
#447 = SURFACE_CURVE('',#448,(#453,#460),.PCURVE_S1.);
#448 = CIRCLE('',#449,38.);
#449 = AXIS2_PLACEMENT_3D('',#450,#451,#452);
#450 = CARTESIAN_POINT('',(0.,0.,6.));
#451 = DIRECTION('',(0.,0.,1.));
#452 = DIRECTION('',(1.,0.,-0.));
#453 = PCURVE('',#43,#454);
#454 = DEFINITIONAL_REPRESENTATION('',(#455),#459);
#455 = LINE('',#456,#457);
#456 = CARTESIAN_POINT('',(0.,6.));
#457 = VECTOR('',#458,1.);
#458 = DIRECTION('',(1.,0.));
#459 = ( GEOMETRIC_REPRESENTATION_CONTEXT(2) 
PARAMETRIC_REPRESENTATION_CONTEXT() REPRESENTATION_CONTEXT('2D SPACE',''
  ) );
#460 = PCURVE('',#209,#461);
#461 = DEFINITIONAL_REPRESENTATION('',(#462),#466);
#462 = LINE('',#463,#464);
#463 = CARTESIAN_POINT('',(-0.,-0.));
#464 = VECTOR('',#465,1.);
#465 = DIRECTION('',(-1.,-0.));
#466 = ( GEOMETRIC_REPRESENTATION_CONTEXT(2) 
PARAMETRIC_REPRESENTATION_CONTEXT() REPRESENTATION_CONTEXT('2D SPACE',''
  ) );
#467 = ADVANCED_FACE('',(#468,#540),#76,.F.);
#468 = FACE_BOUND('',#469,.T.);
#469 = EDGE_LOOP('',(#470,#501,#520,#521));
#470 = ORIENTED_EDGE('',*,*,#471,.T.);
#471 = EDGE_CURVE('',#472,#474,#476,.T.);
#472 = VERTEX_POINT('',#473);
#473 = CARTESIAN_POINT('',(-2.,7.745966692415,24.));
#474 = VERTEX_POINT('',#475);
#475 = CARTESIAN_POINT('',(2.,7.745966692415,24.));
#476 = SURFACE_CURVE('',#477,(#482,#489),.PCURVE_S1.);
#477 = CIRCLE('',#478,8.);
#478 = AXIS2_PLACEMENT_3D('',#479,#480,#481);
#479 = CARTESIAN_POINT('',(0.,0.,24.));
#480 = DIRECTION('',(0.,0.,1.));
#481 = DIRECTION('',(-0.25,0.968245836552,0.));
#482 = PCURVE('',#76,#483);
#483 = DEFINITIONAL_REPRESENTATION('',(#484),#488);
#484 = LINE('',#485,#486);
#485 = CARTESIAN_POINT('',(-1.823476581937,0.));
#486 = VECTOR('',#487,1.);
#487 = DIRECTION('',(-1.,0.));
#488 = ( GEOMETRIC_REPRESENTATION_CONTEXT(2) 
PARAMETRIC_REPRESENTATION_CONTEXT() REPRESENTATION_CONTEXT('2D SPACE',''
  ) );
#489 = PCURVE('',#490,#495);
#490 = PLANE('',#491);
#491 = AXIS2_PLACEMENT_3D('',#492,#493,#494);
#492 = CARTESIAN_POINT('',(0.,0.,24.));
#493 = DIRECTION('',(0.,0.,1.));
#494 = DIRECTION('',(1.,0.,-0.));
#495 = DEFINITIONAL_REPRESENTATION('',(#496),#500);
#496 = CIRCLE('',#497,8.);
#497 = AXIS2_PLACEMENT_2D('',#498,#499);
#498 = CARTESIAN_POINT('',(0.,0.));
#499 = DIRECTION('',(-0.25,0.968245836552));
#500 = ( GEOMETRIC_REPRESENTATION_CONTEXT(2) 
PARAMETRIC_REPRESENTATION_CONTEXT() REPRESENTATION_CONTEXT('2D SPACE',''
  ) );
#501 = ORIENTED_EDGE('',*,*,#502,.T.);
#502 = EDGE_CURVE('',#474,#60,#503,.T.);
#503 = SURFACE_CURVE('',#504,(#508,#514),.PCURVE_S1.);
#504 = LINE('',#505,#506);
#505 = CARTESIAN_POINT('',(2.,7.745966692415,24.));
#506 = VECTOR('',#507,1.);
#507 = DIRECTION('',(-0.,-0.,-1.));
#508 = PCURVE('',#76,#509);
#509 = DEFINITIONAL_REPRESENTATION('',(#510),#513);
#510 = B_SPLINE_CURVE_WITH_KNOTS('',1,(#511,#512),.UNSPECIFIED.,.F.,.F.,
  (2,2),(-0.,24.),.PIECEWISE_BEZIER_KNOTS.);
#511 = CARTESIAN_POINT('',(-7.601301378832,0.));
#512 = CARTESIAN_POINT('',(-7.601301378832,24.));
#513 = ( GEOMETRIC_REPRESENTATION_CONTEXT(2) 
PARAMETRIC_REPRESENTATION_CONTEXT() REPRESENTATION_CONTEXT('2D SPACE',''
  ) );
#514 = PCURVE('',#103,#515);
#515 = DEFINITIONAL_REPRESENTATION('',(#516),#519);
#516 = B_SPLINE_CURVE_WITH_KNOTS('',1,(#517,#518),.UNSPECIFIED.,.F.,.F.,
  (2,2),(-5.999999999062E-07,24.0000006),.PIECEWISE_BEZIER_KNOTS.);
#517 = CARTESIAN_POINT('',(25.0000006,-3.745966692415));
#518 = CARTESIAN_POINT('',(0.9999994,-3.745966692415));
#519 = ( GEOMETRIC_REPRESENTATION_CONTEXT(2) 
PARAMETRIC_REPRESENTATION_CONTEXT() REPRESENTATION_CONTEXT('2D SPACE',''
  ) );
#520 = ORIENTED_EDGE('',*,*,#57,.F.);
#521 = ORIENTED_EDGE('',*,*,#522,.F.);
#522 = EDGE_CURVE('',#472,#58,#523,.T.);
#523 = SURFACE_CURVE('',#524,(#528,#534),.PCURVE_S1.);
#524 = LINE('',#525,#526);
#525 = CARTESIAN_POINT('',(-2.,7.745966692415,24.));
#526 = VECTOR('',#527,1.);
#527 = DIRECTION('',(-0.,-0.,-1.));
#528 = PCURVE('',#76,#529);
#529 = DEFINITIONAL_REPRESENTATION('',(#530),#533);
#530 = B_SPLINE_CURVE_WITH_KNOTS('',1,(#531,#532),.UNSPECIFIED.,.F.,.F.,
  (2,2),(-0.,24.),.PIECEWISE_BEZIER_KNOTS.);
#531 = CARTESIAN_POINT('',(-1.823476581937,0.));
#532 = CARTESIAN_POINT('',(-1.823476581937,24.));
#533 = ( GEOMETRIC_REPRESENTATION_CONTEXT(2) 
PARAMETRIC_REPRESENTATION_CONTEXT() REPRESENTATION_CONTEXT('2D SPACE',''
  ) );
#534 = PCURVE('',#153,#535);
#535 = DEFINITIONAL_REPRESENTATION('',(#536),#539);
#536 = B_SPLINE_CURVE_WITH_KNOTS('',1,(#537,#538),.UNSPECIFIED.,.F.,.F.,
  (2,2),(-5.999999999062E-07,24.0000006),.PIECEWISE_BEZIER_KNOTS.);
#537 = CARTESIAN_POINT('',(25.0000006,-3.745966692415));
#538 = CARTESIAN_POINT('',(0.9999994,-3.745966692415));
#539 = ( GEOMETRIC_REPRESENTATION_CONTEXT(2) 
PARAMETRIC_REPRESENTATION_CONTEXT() REPRESENTATION_CONTEXT('2D SPACE',''
  ) );
#540 = FACE_BOUND('',#541,.T.);
#541 = EDGE_LOOP('',(#542));
#542 = ORIENTED_EDGE('',*,*,#543,.F.);
#543 = EDGE_CURVE('',#544,#544,#546,.T.);
#544 = VERTEX_POINT('',#545);
#545 = CARTESIAN_POINT('',(-7.719455939378,2.1,4.));
#546 = SURFACE_CURVE('',#547,(#598,#652),.PCURVE_S1.);
#547 = B_SPLINE_CURVE_WITH_KNOTS('',7,(#548,#549,#550,#551,#552,#553,
    #554,#555,#556,#557,#558,#559,#560,#561,#562,#563,#564,#565,#566,
    #567,#568,#569,#570,#571,#572,#573,#574,#575,#576,#577,#578,#579,
    #580,#581,#582,#583,#584,#585,#586,#587,#588,#589,#590,#591,#592,
    #593,#594,#595,#596,#597),.UNSPECIFIED.,.T.,.F.,(8,6,6,6,6,6,6,6,8),
  (0.,0.137102327851,0.249859395197,0.362787872064,0.499916689327,
    0.637045890903,0.749930112788,0.86286143588,1.),.UNSPECIFIED.);
#548 = CARTESIAN_POINT('',(-7.719455939378,2.1,4.));
#549 = CARTESIAN_POINT('',(-7.719455939378,2.1,4.227002062818));
#550 = CARTESIAN_POINT('',(-7.727243562756,2.071373045708,4.453648369147
    ));
#551 = CARTESIAN_POINT('',(-7.742776779333,2.014274959543,4.677624240333
    ));
#552 = CARTESIAN_POINT('',(-7.765479146932,1.928179841931,4.896418930874
    ));
#553 = CARTESIAN_POINT('',(-7.794208654541,1.812093353658,5.10695655066)
  );
#554 = CARTESIAN_POINT('',(-7.827015254275,1.664726606968,5.305121874016
    ));
#555 = CARTESIAN_POINT('',(-7.888912865333,1.337049380425,5.632799100559
    ));
#556 = CARTESIAN_POINT('',(-7.918352034935,1.163406928151,5.772081822975
    ));
#557 = CARTESIAN_POINT('',(-7.947064979567,0.964933697447,5.894644873737
    ));
#558 = CARTESIAN_POINT('',(-7.972083819953,0.744505556639,5.993645412662
    ));
#559 = CARTESIAN_POINT('',(-7.990426676774,0.506462489892,6.063531786942
    ));
#560 = CARTESIAN_POINT('',(-8.,0.256209555142,6.1));
#561 = CARTESIAN_POINT('',(-8.,-0.256599036334,6.1));
#562 = CARTESIAN_POINT('',(-7.990397523287,-0.506901097953,
    6.063420865745));
#563 = CARTESIAN_POINT('',(-7.972043515931,-0.744765184227,5.99349173359
    ));
#564 = CARTESIAN_POINT('',(-7.947051818881,-0.964940599997,5.89457197194
    ));
#565 = CARTESIAN_POINT('',(-7.918376675441,-1.163231075714,
    5.772169489823));
#566 = CARTESIAN_POINT('',(-7.888948641422,-1.336859986856,
    5.632988494128));
#567 = CARTESIAN_POINT('',(-7.827016812255,-1.664718359241,
    5.305130121742));
#568 = CARTESIAN_POINT('',(-7.794209125813,-1.81209325262,5.106961315379
    ));
#569 = CARTESIAN_POINT('',(-7.765477918342,-1.928184311624,
    4.896413843622));
#570 = CARTESIAN_POINT('',(-7.74277596067,-2.014277989393,4.677614370041
    ));
#571 = CARTESIAN_POINT('',(-7.727243527242,-2.071373175131,
    4.453641625421));
#572 = CARTESIAN_POINT('',(-7.719455939378,-2.1,4.227001426631));
#573 = CARTESIAN_POINT('',(-7.719455939378,-2.1,3.772997937182));
#574 = CARTESIAN_POINT('',(-7.727243562756,-2.071373045708,
    3.546351630853));
#575 = CARTESIAN_POINT('',(-7.742776779333,-2.014274959543,
    3.322375759667));
#576 = CARTESIAN_POINT('',(-7.765479146932,-1.928179841931,
    3.103581069126));
#577 = CARTESIAN_POINT('',(-7.794208654541,-1.812093353658,2.89304344934
    ));
#578 = CARTESIAN_POINT('',(-7.827015254275,-1.664726606968,
    2.694878125984));
#579 = CARTESIAN_POINT('',(-7.888938884935,-1.336911636323,2.36706315534
    ));
#580 = CARTESIAN_POINT('',(-7.918370654229,-1.163275371635,
    2.227850744313));
#581 = CARTESIAN_POINT('',(-7.947056524284,-0.964931130096,
    2.105403668819));
#582 = CARTESIAN_POINT('',(-7.972055188366,-0.744686163953,
    2.006463911774));
#583 = CARTESIAN_POINT('',(-7.990405525533,-0.50677631325,1.936548618018
    ));
#584 = CARTESIAN_POINT('',(-8.,-0.25649201444,1.9));
#585 = CARTESIAN_POINT('',(-8.,0.256599036335,1.9));
#586 = CARTESIAN_POINT('',(-7.990397523287,0.506901097953,1.936579134254
    ));
#587 = CARTESIAN_POINT('',(-7.972043515931,0.744765184228,2.00650826641)
  );
#588 = CARTESIAN_POINT('',(-7.947051818881,0.964940599996,2.10542802806)
  );
#589 = CARTESIAN_POINT('',(-7.918376675441,1.163231075714,2.227830510177
    ));
#590 = CARTESIAN_POINT('',(-7.888948641422,1.336859986856,2.367011505872
    ));
#591 = CARTESIAN_POINT('',(-7.827015254275,1.664726606968,2.694878125985
    ));
#592 = CARTESIAN_POINT('',(-7.794208654541,1.812093353658,2.893043449339
    ));
#593 = CARTESIAN_POINT('',(-7.765479146932,1.928179841932,3.103581069127
    ));
#594 = CARTESIAN_POINT('',(-7.742776779333,2.014274959543,3.322375759666
    ));
#595 = CARTESIAN_POINT('',(-7.727243562756,2.071373045708,3.546351630853
    ));
#596 = CARTESIAN_POINT('',(-7.719455939378,2.1,3.772997937181));
#597 = CARTESIAN_POINT('',(-7.719455939378,2.1,4.));
#598 = PCURVE('',#76,#599);
#599 = DEFINITIONAL_REPRESENTATION('',(#600),#651);
#600 = B_SPLINE_CURVE_WITH_KNOTS('',7,(#601,#602,#603,#604,#605,#606,
    #607,#608,#609,#610,#611,#612,#613,#614,#615,#616,#617,#618,#619,
    #620,#621,#622,#623,#624,#625,#626,#627,#628,#629,#630,#631,#632,
    #633,#634,#635,#636,#637,#638,#639,#640,#641,#642,#643,#644,#645,
    #646,#647,#648,#649,#650),.UNSPECIFIED.,.T.,.F.,(8,6,6,6,6,6,6,6,8),
  (0.,0.137102327851,0.249859395197,0.362787872064,0.499916689327,
    0.637045890903,0.749930112788,0.86286143588,1.),.UNSPECIFIED.);
#601 = CARTESIAN_POINT('',(-2.87598050402,20.));
#602 = CARTESIAN_POINT('',(-2.87598050402,19.772997937182));
#603 = CARTESIAN_POINT('',(-2.879688917121,19.546351630853));
#604 = CARTESIAN_POINT('',(-2.887085581418,19.322375759667));
#605 = CARTESIAN_POINT('',(-2.898214955122,19.103581069126));
#606 = CARTESIAN_POINT('',(-2.913159733465,18.89304344934));
#607 = CARTESIAN_POINT('',(-2.932021644105,18.694878125984));
#608 = CARTESIAN_POINT('',(-2.973705663647,18.367200899441));
#609 = CARTESIAN_POINT('',(-2.995716792459,18.227918177025));
#610 = CARTESIAN_POINT('',(-3.020772096238,18.105355126263));
#611 = CARTESIAN_POINT('',(-3.048475987624,18.006354587338));
#612 = CARTESIAN_POINT('',(-3.078284803983,17.936468213058));
#613 = CARTESIAN_POINT('',(-3.109566459197,17.9));
#614 = CARTESIAN_POINT('',(-3.173667533132,17.9));
#615 = CARTESIAN_POINT('',(-3.204955330243,17.936579134255));
#616 = CARTESIAN_POINT('',(-3.234742025137,18.00650826641));
#617 = CARTESIAN_POINT('',(-3.262414343734,18.105428028061));
#618 = CARTESIAN_POINT('',(-3.287446337871,18.227830510177));
#619 = CARTESIAN_POINT('',(-3.309455550661,18.367011505872));
#620 = CARTESIAN_POINT('',(-3.351162613876,18.694869878258));
#621 = CARTESIAN_POINT('',(-3.370025549989,18.893038684621));
#622 = CARTESIAN_POINT('',(-3.384970928753,19.103586156378));
#623 = CARTESIAN_POINT('',(-3.396100119415,19.322385629959));
#624 = CARTESIAN_POINT('',(-3.403496406492,19.546358374579));
#625 = CARTESIAN_POINT('',(-3.40720480316,19.772998573369));
#626 = CARTESIAN_POINT('',(-3.40720480316,20.227002062818));
#627 = CARTESIAN_POINT('',(-3.403496390058,20.453648369147));
#628 = CARTESIAN_POINT('',(-3.396099725761,20.677624240333));
#629 = CARTESIAN_POINT('',(-3.384970352058,20.896418930874));
#630 = CARTESIAN_POINT('',(-3.370025573714,21.10695655066));
#631 = CARTESIAN_POINT('',(-3.351163663074,21.305121874016));
#632 = CARTESIAN_POINT('',(-3.309462121021,21.63293684466));
#633 = CARTESIAN_POINT('',(-3.287451919221,21.772149255688));
#634 = CARTESIAN_POINT('',(-3.262413078959,21.89459633118));
#635 = CARTESIAN_POINT('',(-3.234732075842,21.993536088226));
#636 = CARTESIAN_POINT('',(-3.20493973326,22.063451381982));
#637 = CARTESIAN_POINT('',(-3.173654155395,22.1));
#638 = CARTESIAN_POINT('',(-3.109517774048,22.1));
#639 = CARTESIAN_POINT('',(-3.078229976936,22.063420865746));
#640 = CARTESIAN_POINT('',(-3.048443282043,21.99349173359));
#641 = CARTESIAN_POINT('',(-3.020770963445,21.89457197194));
#642 = CARTESIAN_POINT('',(-2.995738969308,21.772169489823));
#643 = CARTESIAN_POINT('',(-2.973729756518,21.632988494128));
#644 = CARTESIAN_POINT('',(-2.932021644105,21.305121874015));
#645 = CARTESIAN_POINT('',(-2.913159733465,21.106956550661));
#646 = CARTESIAN_POINT('',(-2.898214955122,20.896418930874));
#647 = CARTESIAN_POINT('',(-2.887085581418,20.677624240333));
#648 = CARTESIAN_POINT('',(-2.879688917121,20.453648369147));
#649 = CARTESIAN_POINT('',(-2.87598050402,20.227002062819));
#650 = CARTESIAN_POINT('',(-2.87598050402,20.));
#651 = ( GEOMETRIC_REPRESENTATION_CONTEXT(2) 
PARAMETRIC_REPRESENTATION_CONTEXT() REPRESENTATION_CONTEXT('2D SPACE',''
  ) );
#652 = PCURVE('',#319,#653);
#653 = DEFINITIONAL_REPRESENTATION('',(#654),#705);
#654 = B_SPLINE_CURVE_WITH_KNOTS('',7,(#655,#656,#657,#658,#659,#660,
    #661,#662,#663,#664,#665,#666,#667,#668,#669,#670,#671,#672,#673,
    #674,#675,#676,#677,#678,#679,#680,#681,#682,#683,#684,#685,#686,
    #687,#688,#689,#690,#691,#692,#693,#694,#695,#696,#697,#698,#699,
    #700,#701,#702,#703,#704),.UNSPECIFIED.,.F.,.F.,(8,6,6,6,6,6,6,6,8),
  (0.,0.137102327851,0.249859395197,0.362787872064,0.499916689327,
    0.637045890903,0.749930112788,0.86286143588,1.),.UNSPECIFIED.);
#655 = CARTESIAN_POINT('',(0.,-32.28054406062));
#656 = CARTESIAN_POINT('',(-0.10809622039,-32.28054406062));
#657 = CARTESIAN_POINT('',(-0.216022742553,-32.27275643724));
#658 = CARTESIAN_POINT('',(-0.324742269541,-32.25722322066));
#659 = CARTESIAN_POINT('',(-0.435087784629,-32.23452085306));
#660 = CARTESIAN_POINT('',(-0.547966036752,-32.20579134545));
#661 = CARTESIAN_POINT('',(-0.664312951389,-32.17298474572));
#662 = CARTESIAN_POINT('',(-0.884982274179,-32.11108713466));
#663 = CARTESIAN_POINT('',(-0.990349780905,-32.08164796506));
#664 = CARTESIAN_POINT('',(-1.100060562433,-32.05293502043));
#665 = CARTESIAN_POINT('',(-1.213303171503,-32.02791618004));
#666 = CARTESIAN_POINT('',(-1.329623838712,-32.00957332322));
#667 = CARTESIAN_POINT('',(-1.448791776727,-32.));
#668 = CARTESIAN_POINT('',(-1.692986344097,-32.));
#669 = CARTESIAN_POINT('',(-1.812177697836,-32.00960247671));
#670 = CARTESIAN_POINT('',(-1.928426511684,-32.02795648406));
#671 = CARTESIAN_POINT('',(-2.04155256123,-32.05294818111));
#672 = CARTESIAN_POINT('',(-2.151154184529,-32.08162332455));
#673 = CARTESIAN_POINT('',(-2.256482835147,-32.11105135857));
#674 = CARTESIAN_POINT('',(-2.477274147892,-32.17298318774));
#675 = CARTESIAN_POINT('',(-2.593624971265,-32.20579087418));
#676 = CARTESIAN_POINT('',(-2.70650772387,-32.23452208165));
#677 = CARTESIAN_POINT('',(-2.816855152922,-32.25722403933));
#678 = CARTESIAN_POINT('',(-2.925573104523,-32.27275647275));
#679 = CARTESIAN_POINT('',(-3.033496736146,-32.28054406062));
#680 = CARTESIAN_POINT('',(-3.24968887398,-32.28054406062));
#681 = CARTESIAN_POINT('',(-3.357615396143,-32.27275643724));
#682 = CARTESIAN_POINT('',(-3.46633492313,-32.25722322066));
#683 = CARTESIAN_POINT('',(-3.576680438219,-32.23452085306));
#684 = CARTESIAN_POINT('',(-3.689558690342,-32.20579134545));
#685 = CARTESIAN_POINT('',(-3.805905604979,-32.17298474572));
#686 = CARTESIAN_POINT('',(-4.026667689471,-32.11106111506));
#687 = CARTESIAN_POINT('',(-4.132009403225,-32.08162934577));
#688 = CARTESIAN_POINT('',(-4.241642399616,-32.05294347571));
#689 = CARTESIAN_POINT('',(-4.354800106213,-32.02794481163));
#690 = CARTESIAN_POINT('',(-4.471067040743,-32.00959447446));
#691 = CARTESIAN_POINT('',(-4.59024992589,-32.));
#692 = CARTESIAN_POINT('',(-4.834578997687,-32.));
#693 = CARTESIAN_POINT('',(-4.953770351425,-32.00960247671));
#694 = CARTESIAN_POINT('',(-5.070019165275,-32.02795648406));
#695 = CARTESIAN_POINT('',(-5.183145214819,-32.05294818111));
#696 = CARTESIAN_POINT('',(-5.292746838119,-32.08162332455));
#697 = CARTESIAN_POINT('',(-5.398075488737,-32.11105135857));
#698 = CARTESIAN_POINT('',(-5.618872355791,-32.17298474572));
#699 = CARTESIAN_POINT('',(-5.735219270427,-32.20579134545));
#700 = CARTESIAN_POINT('',(-5.848097522551,-32.23452085306));
#701 = CARTESIAN_POINT('',(-5.958443037638,-32.25722322066));
#702 = CARTESIAN_POINT('',(-6.067162564627,-32.27275643724));
#703 = CARTESIAN_POINT('',(-6.17508908679,-32.28054406062));
#704 = CARTESIAN_POINT('',(-6.28318530718,-32.28054406062));
#705 = ( GEOMETRIC_REPRESENTATION_CONTEXT(2) 
PARAMETRIC_REPRESENTATION_CONTEXT() REPRESENTATION_CONTEXT('2D SPACE',''
  ) );
#706 = ADVANCED_FACE('',(#707),#103,.F.);
#707 = FACE_BOUND('',#708,.F.);
#708 = EDGE_LOOP('',(#709,#732,#751,#752));
#709 = ORIENTED_EDGE('',*,*,#710,.T.);
#710 = EDGE_CURVE('',#89,#711,#713,.T.);
#711 = VERTEX_POINT('',#712);
#712 = CARTESIAN_POINT('',(2.,8.4,24.));
#713 = SURFACE_CURVE('',#714,(#718,#725),.PCURVE_S1.);
#714 = LINE('',#715,#716);
#715 = CARTESIAN_POINT('',(2.,8.4,-1.));
#716 = VECTOR('',#717,1.);
#717 = DIRECTION('',(0.,0.,1.));
#718 = PCURVE('',#103,#719);
#719 = DEFINITIONAL_REPRESENTATION('',(#720),#724);
#720 = LINE('',#721,#722);
#721 = CARTESIAN_POINT('',(0.,-4.4));
#722 = VECTOR('',#723,1.);
#723 = DIRECTION('',(1.,0.));
#724 = ( GEOMETRIC_REPRESENTATION_CONTEXT(2) 
PARAMETRIC_REPRESENTATION_CONTEXT() REPRESENTATION_CONTEXT('2D SPACE',''
  ) );
#725 = PCURVE('',#129,#726);
#726 = DEFINITIONAL_REPRESENTATION('',(#727),#731);
#727 = LINE('',#728,#729);
#728 = CARTESIAN_POINT('',(0.,4.));
#729 = VECTOR('',#730,1.);
#730 = DIRECTION('',(1.,0.));
#731 = ( GEOMETRIC_REPRESENTATION_CONTEXT(2) 
PARAMETRIC_REPRESENTATION_CONTEXT() REPRESENTATION_CONTEXT('2D SPACE',''
  ) );
#732 = ORIENTED_EDGE('',*,*,#733,.F.);
#733 = EDGE_CURVE('',#474,#711,#734,.T.);
#734 = SURFACE_CURVE('',#735,(#739,#745),.PCURVE_S1.);
#735 = LINE('',#736,#737);
#736 = CARTESIAN_POINT('',(2.,2.,24.));
#737 = VECTOR('',#738,1.);
#738 = DIRECTION('',(0.,1.,0.));
#739 = PCURVE('',#103,#740);
#740 = DEFINITIONAL_REPRESENTATION('',(#741),#744);
#741 = B_SPLINE_CURVE_WITH_KNOTS('',1,(#742,#743),.UNSPECIFIED.,.F.,.F.,
  (2,2),(2.,6.4),.PIECEWISE_BEZIER_KNOTS.);
#742 = CARTESIAN_POINT('',(25.,0.));
#743 = CARTESIAN_POINT('',(25.,-4.4));
#744 = ( GEOMETRIC_REPRESENTATION_CONTEXT(2) 
PARAMETRIC_REPRESENTATION_CONTEXT() REPRESENTATION_CONTEXT('2D SPACE',''
  ) );
#745 = PCURVE('',#490,#746);
#746 = DEFINITIONAL_REPRESENTATION('',(#747),#750);
#747 = B_SPLINE_CURVE_WITH_KNOTS('',1,(#748,#749),.UNSPECIFIED.,.F.,.F.,
  (2,2),(2.,6.4),.PIECEWISE_BEZIER_KNOTS.);
#748 = CARTESIAN_POINT('',(2.,4.));
#749 = CARTESIAN_POINT('',(2.,8.4));
#750 = ( GEOMETRIC_REPRESENTATION_CONTEXT(2) 
PARAMETRIC_REPRESENTATION_CONTEXT() REPRESENTATION_CONTEXT('2D SPACE',''
  ) );
#751 = ORIENTED_EDGE('',*,*,#502,.T.);
#752 = ORIENTED_EDGE('',*,*,#88,.F.);
#753 = ADVANCED_FACE('',(#754),#129,.F.);
#754 = FACE_BOUND('',#755,.F.);
#755 = EDGE_LOOP('',(#756,#757,#758,#781));
#756 = ORIENTED_EDGE('',*,*,#710,.F.);
#757 = ORIENTED_EDGE('',*,*,#114,.F.);
#758 = ORIENTED_EDGE('',*,*,#759,.T.);
#759 = EDGE_CURVE('',#115,#760,#762,.T.);
#760 = VERTEX_POINT('',#761);
#761 = CARTESIAN_POINT('',(-2.,8.4,24.));
#762 = SURFACE_CURVE('',#763,(#767,#774),.PCURVE_S1.);
#763 = LINE('',#764,#765);
#764 = CARTESIAN_POINT('',(-2.,8.4,-1.));
#765 = VECTOR('',#766,1.);
#766 = DIRECTION('',(0.,0.,1.));
#767 = PCURVE('',#129,#768);
#768 = DEFINITIONAL_REPRESENTATION('',(#769),#773);
#769 = LINE('',#770,#771);
#770 = CARTESIAN_POINT('',(0.,0.));
#771 = VECTOR('',#772,1.);
#772 = DIRECTION('',(1.,0.));
#773 = ( GEOMETRIC_REPRESENTATION_CONTEXT(2) 
PARAMETRIC_REPRESENTATION_CONTEXT() REPRESENTATION_CONTEXT('2D SPACE',''
  ) );
#774 = PCURVE('',#153,#775);
#775 = DEFINITIONAL_REPRESENTATION('',(#776),#780);
#776 = LINE('',#777,#778);
#777 = CARTESIAN_POINT('',(0.,-4.4));
#778 = VECTOR('',#779,1.);
#779 = DIRECTION('',(1.,0.));
#780 = ( GEOMETRIC_REPRESENTATION_CONTEXT(2) 
PARAMETRIC_REPRESENTATION_CONTEXT() REPRESENTATION_CONTEXT('2D SPACE',''
  ) );
#781 = ORIENTED_EDGE('',*,*,#782,.F.);
#782 = EDGE_CURVE('',#711,#760,#783,.T.);
#783 = SURFACE_CURVE('',#784,(#788,#794),.PCURVE_S1.);
#784 = LINE('',#785,#786);
#785 = CARTESIAN_POINT('',(-1.,8.4,24.));
#786 = VECTOR('',#787,1.);
#787 = DIRECTION('',(-1.,0.,0.));
#788 = PCURVE('',#129,#789);
#789 = DEFINITIONAL_REPRESENTATION('',(#790),#793);
#790 = B_SPLINE_CURVE_WITH_KNOTS('',1,(#791,#792),.UNSPECIFIED.,.F.,.F.,
  (2,2),(-3.,1.),.PIECEWISE_BEZIER_KNOTS.);
#791 = CARTESIAN_POINT('',(25.,4.));
#792 = CARTESIAN_POINT('',(25.,0.));
#793 = ( GEOMETRIC_REPRESENTATION_CONTEXT(2) 
PARAMETRIC_REPRESENTATION_CONTEXT() REPRESENTATION_CONTEXT('2D SPACE',''
  ) );
#794 = PCURVE('',#490,#795);
#795 = DEFINITIONAL_REPRESENTATION('',(#796),#799);
#796 = B_SPLINE_CURVE_WITH_KNOTS('',1,(#797,#798),.UNSPECIFIED.,.F.,.F.,
  (2,2),(-3.,1.),.PIECEWISE_BEZIER_KNOTS.);
#797 = CARTESIAN_POINT('',(2.,8.4));
#798 = CARTESIAN_POINT('',(-2.,8.4));
#799 = ( GEOMETRIC_REPRESENTATION_CONTEXT(2) 
PARAMETRIC_REPRESENTATION_CONTEXT() REPRESENTATION_CONTEXT('2D SPACE',''
  ) );
#800 = ADVANCED_FACE('',(#801),#153,.T.);
#801 = FACE_BOUND('',#802,.T.);
#802 = EDGE_LOOP('',(#803,#804,#823,#824));
#803 = ORIENTED_EDGE('',*,*,#759,.T.);
#804 = ORIENTED_EDGE('',*,*,#805,.F.);
#805 = EDGE_CURVE('',#472,#760,#806,.T.);
#806 = SURFACE_CURVE('',#807,(#811,#817),.PCURVE_S1.);
#807 = LINE('',#808,#809);
#808 = CARTESIAN_POINT('',(-2.,2.,24.));
#809 = VECTOR('',#810,1.);
#810 = DIRECTION('',(0.,1.,0.));
#811 = PCURVE('',#153,#812);
#812 = DEFINITIONAL_REPRESENTATION('',(#813),#816);
#813 = B_SPLINE_CURVE_WITH_KNOTS('',1,(#814,#815),.UNSPECIFIED.,.F.,.F.,
  (2,2),(2.,6.4),.PIECEWISE_BEZIER_KNOTS.);
#814 = CARTESIAN_POINT('',(25.,0.));
#815 = CARTESIAN_POINT('',(25.,-4.4));
#816 = ( GEOMETRIC_REPRESENTATION_CONTEXT(2) 
PARAMETRIC_REPRESENTATION_CONTEXT() REPRESENTATION_CONTEXT('2D SPACE',''
  ) );
#817 = PCURVE('',#490,#818);
#818 = DEFINITIONAL_REPRESENTATION('',(#819),#822);
#819 = B_SPLINE_CURVE_WITH_KNOTS('',1,(#820,#821),.UNSPECIFIED.,.F.,.F.,
  (2,2),(2.,6.4),.PIECEWISE_BEZIER_KNOTS.);
#820 = CARTESIAN_POINT('',(-2.,4.));
#821 = CARTESIAN_POINT('',(-2.,8.4));
#822 = ( GEOMETRIC_REPRESENTATION_CONTEXT(2) 
PARAMETRIC_REPRESENTATION_CONTEXT() REPRESENTATION_CONTEXT('2D SPACE',''
  ) );
#823 = ORIENTED_EDGE('',*,*,#522,.T.);
#824 = ORIENTED_EDGE('',*,*,#140,.F.);
#825 = ADVANCED_FACE('',(#826),#209,.T.);
#826 = FACE_BOUND('',#827,.T.);
#827 = EDGE_LOOP('',(#828,#851,#852,#942,#943,#944));
#828 = ORIENTED_EDGE('',*,*,#829,.F.);
#829 = EDGE_CURVE('',#168,#830,#832,.T.);
#830 = VERTEX_POINT('',#831);
#831 = CARTESIAN_POINT('',(30.,0.,12.));
#832 = SEAM_CURVE('',#833,(#837,#844),.PCURVE_S1.);
#833 = LINE('',#834,#835);
#834 = CARTESIAN_POINT('',(38.,0.,6.));
#835 = VECTOR('',#836,1.);
#836 = DIRECTION('',(-0.8,0.,0.6));
#837 = PCURVE('',#209,#838);
#838 = DEFINITIONAL_REPRESENTATION('',(#839),#843);
#839 = LINE('',#840,#841);
#840 = CARTESIAN_POINT('',(-0.,-0.));
#841 = VECTOR('',#842,1.);
#842 = DIRECTION('',(-0.,-1.));
#843 = ( GEOMETRIC_REPRESENTATION_CONTEXT(2) 
PARAMETRIC_REPRESENTATION_CONTEXT() REPRESENTATION_CONTEXT('2D SPACE',''
  ) );
#844 = PCURVE('',#209,#845);
#845 = DEFINITIONAL_REPRESENTATION('',(#846),#850);
#846 = LINE('',#847,#848);
#847 = CARTESIAN_POINT('',(-6.28318530718,-0.));
#848 = VECTOR('',#849,1.);
#849 = DIRECTION('',(-0.,-1.));
#850 = ( GEOMETRIC_REPRESENTATION_CONTEXT(2) 
PARAMETRIC_REPRESENTATION_CONTEXT() REPRESENTATION_CONTEXT('2D SPACE',''
  ) );
#851 = ORIENTED_EDGE('',*,*,#446,.T.);
#852 = ORIENTED_EDGE('',*,*,#853,.T.);
#853 = EDGE_CURVE('',#373,#193,#854,.T.);
#854 = SURFACE_CURVE('',#855,(#882,#912),.PCURVE_S1.);
#855 = B_SPLINE_CURVE_WITH_KNOTS('',5,(#856,#857,#858,#859,#860,#861,
    #862,#863,#864,#865,#866,#867,#868,#869,#870,#871,#872,#873,#874,
    #875,#876,#877,#878,#879,#880,#881),.UNSPECIFIED.,.F.,.F.,(6,4,4,4,4
    ,4,6),(0.,0.208110231406,0.308646208891,0.50086471422,0.693149533955
    ,0.793764159269,1.),.UNSPECIFIED.);
#856 = CARTESIAN_POINT('',(-37.99460488016,0.640312423743,6.));
#857 = CARTESIAN_POINT('',(-37.9758169865,0.594497550197,6.014667916362)
  );
#858 = CARTESIAN_POINT('',(-37.95818893366,0.546973157578,6.028436612724
    ));
#859 = CARTESIAN_POINT('',(-37.94190102412,0.497678736366,6.041163820047
    ));
#860 = CARTESIAN_POINT('',(-37.92719559261,0.446621301768,6.052658438961
    ));
#861 = CARTESIAN_POINT('',(-37.90810888797,0.368480520052,6.067581579613
    ));
#862 = CARTESIAN_POINT('',(-37.90232027468,0.342648447597,6.072108164399
    ));
#863 = CARTESIAN_POINT('',(-37.89698965579,0.316453863545,6.076277162899
    ));
#864 = CARTESIAN_POINT('',(-37.89214522269,0.289923047269,6.080066348355
    ));
#865 = CARTESIAN_POINT('',(-37.87953268973,0.211792590853,6.089932412046
    ));
#866 = CARTESIAN_POINT('',(-37.87312444103,0.159382643281,6.094946459546
    ));
#867 = CARTESIAN_POINT('',(-37.8687793065,0.106149177023,6.098346759215)
  );
#868 = CARTESIAN_POINT('',(-37.86662768655,5.246271416888E-02,
    6.10003050384));
#869 = CARTESIAN_POINT('',(-37.86670654708,-5.489549578775E-02,
    6.099968791626));
#870 = CARTESIAN_POINT('',(-37.8689385584,-0.108588665765,6.098222136787
    ));
#871 = CARTESIAN_POINT('',(-37.87336331537,-0.161816858877,
    6.094759541385));
#872 = CARTESIAN_POINT('',(-37.87984826855,-0.214211121834,
    6.089685506988));
#873 = CARTESIAN_POINT('',(-37.89257365646,-0.29231757003,6.079731234722
    ));
#874 = CARTESIAN_POINT('',(-37.89745749135,-0.318845420271,
    6.075911261177));
#875 = CARTESIAN_POINT('',(-37.90282673255,-0.345034919976,
    6.071712094585));
#876 = CARTESIAN_POINT('',(-37.90865307916,-0.37086008949,6.067156048139
    ));
#877 = CARTESIAN_POINT('',(-37.92772612243,-0.448459826059,
    6.052243748283));
#878 = CARTESIAN_POINT('',(-37.94234143829,-0.499010137919,
    6.040819686075));
#879 = CARTESIAN_POINT('',(-37.9585065224,-0.547829000155,6.028188555186
    ));
#880 = CARTESIAN_POINT('',(-37.97598619436,-0.594910168925,
    6.014535813913));
#881 = CARTESIAN_POINT('',(-37.99460488016,-0.640312423743,6.));
#882 = PCURVE('',#209,#883);
#883 = DEFINITIONAL_REPRESENTATION('',(#884),#911);
#884 = B_SPLINE_CURVE_WITH_KNOTS('',5,(#885,#886,#887,#888,#889,#890,
    #891,#892,#893,#894,#895,#896,#897,#898,#899,#900,#901,#902,#903,
    #904,#905,#906,#907,#908,#909,#910),.UNSPECIFIED.,.F.,.F.,(6,4,4,4,4
    ,4,6),(0.,0.208110231406,0.308646208891,0.50086471422,0.693149533955
    ,0.793764159269,1.),.UNSPECIFIED.);
#885 = CARTESIAN_POINT('',(-3.124741529152,2.13162820728E-14));
#886 = CARTESIAN_POINT('',(-3.125938681435,-1.466791636186E-02));
#887 = CARTESIAN_POINT('',(-3.127182869132,-2.843661272417E-02));
#888 = CARTESIAN_POINT('',(-3.128475701151,-4.1163820047E-02));
#889 = CARTESIAN_POINT('',(-3.129816953346,-5.265843896086E-02));
#890 = CARTESIAN_POINT('',(-3.131872483903,-6.758157961272E-02));
#891 = CARTESIAN_POINT('',(-3.132552437808,-7.210816439938E-02));
#892 = CARTESIAN_POINT('',(-3.133242333848,-7.62771628992E-02));
#893 = CARTESIAN_POINT('',(-3.133941448095,-8.006634835534E-02));
#894 = CARTESIAN_POINT('',(-3.136001189852,-8.993241204625E-02));
#895 = CARTESIAN_POINT('',(-3.137384011863,-9.494645954646E-02));
#896 = CARTESIAN_POINT('',(-3.138789412105,-9.83467592146E-02));
#897 = CARTESIAN_POINT('',(-3.14020719464,-0.10003050384));
#898 = CARTESIAN_POINT('',(-3.143042358533,-9.996879162632E-02));
#899 = CARTESIAN_POINT('',(-3.144460306809,-9.822213678733E-02));
#900 = CARTESIAN_POINT('',(-3.145865544529,-9.475954138546E-02));
#901 = CARTESIAN_POINT('',(-3.147247918717,-8.968550698798E-02));
#902 = CARTESIAN_POINT('',(-3.149306962026,-7.973123472193E-02));
#903 = CARTESIAN_POINT('',(-3.150005972912,-7.591126117654E-02));
#904 = CARTESIAN_POINT('',(-3.150695707343,-7.171209458456E-02));
#905 = CARTESIAN_POINT('',(-3.151375449555,-6.715604813897E-02));
#906 = CARTESIAN_POINT('',(-3.153416649883,-5.224374828292E-02));
#907 = CARTESIAN_POINT('',(-3.154744523814,-4.081968607522E-02));
#908 = CARTESIAN_POINT('',(-3.156024843803,-2.818855518561E-02));
#909 = CARTESIAN_POINT('',(-3.157257407559,-1.453581391295E-02));
#910 = CARTESIAN_POINT('',(-3.158443778028,0.));
#911 = ( GEOMETRIC_REPRESENTATION_CONTEXT(2) 
PARAMETRIC_REPRESENTATION_CONTEXT() REPRESENTATION_CONTEXT('2D SPACE',''
  ) );
#912 = PCURVE('',#319,#913);
#913 = DEFINITIONAL_REPRESENTATION('',(#914),#941);
#914 = B_SPLINE_CURVE_WITH_KNOTS('',5,(#915,#916,#917,#918,#919,#920,
    #921,#922,#923,#924,#925,#926,#927,#928,#929,#930,#931,#932,#933,
    #934,#935,#936,#937,#938,#939,#940),.UNSPECIFIED.,.F.,.F.,(6,4,4,4,4
    ,4,6),(0.,0.208110231406,0.308646208891,0.50086471422,0.693149533955
    ,0.793764159269,1.),.UNSPECIFIED.);
#915 = CARTESIAN_POINT('',(-1.260951687053,-2.005395119833));
#916 = CARTESIAN_POINT('',(-1.283859123826,-2.024183013497));
#917 = CARTESIAN_POINT('',(-1.307411325182,-2.041811066334));
#918 = CARTESIAN_POINT('',(-1.33163990266,-2.05809897588));
#919 = CARTESIAN_POINT('',(-1.356548112757,-2.072804407385));
#920 = CARTESIAN_POINT('',(-1.394430499951,-2.091891112024));
#921 = CARTESIAN_POINT('',(-1.406917457916,-2.09767972532));
#922 = CARTESIAN_POINT('',(-1.419545970973,-2.103010344203));
#923 = CARTESIAN_POINT('',(-1.432306203502,-2.107854777307));
#924 = CARTESIAN_POINT('',(-1.469806641693,-2.120467310262));
#925 = CARTESIAN_POINT('',(-1.494866300945,-2.126875558966));
#926 = CARTESIAN_POINT('',(-1.520249603708,-2.131220693497));
#927 = CARTESIAN_POINT('',(-1.545814077762,-2.133372313446));
#928 = CARTESIAN_POINT('',(-1.59693704333,-2.133293452914));
#929 = CARTESIAN_POINT('',(-1.622505649612,-2.131061441598));
#930 = CARTESIAN_POINT('',(-1.647888358821,-2.126636684622));
#931 = CARTESIAN_POINT('',(-1.672943333292,-2.120151731448));
#932 = CARTESIAN_POINT('',(-1.710437716201,-2.107426343536));
#933 = CARTESIAN_POINT('',(-1.723198631282,-2.102542508645));
#934 = CARTESIAN_POINT('',(-1.735827019585,-2.097173267446));
#935 = CARTESIAN_POINT('',(-1.748313170245,-2.091346920837));
#936 = CARTESIAN_POINT('',(-1.785941547035,-2.072273877564));
#937 = CARTESIAN_POINT('',(-1.810607191713,-2.057658561704));
#938 = CARTESIAN_POINT('',(-1.834605484637,-2.041493477595));
#939 = CARTESIAN_POINT('',(-1.857939839128,-2.024013805635));
#940 = CARTESIAN_POINT('',(-1.880640966537,-2.005395119833));
#941 = ( GEOMETRIC_REPRESENTATION_CONTEXT(2) 
PARAMETRIC_REPRESENTATION_CONTEXT() REPRESENTATION_CONTEXT('2D SPACE',''
  ) );
#942 = ORIENTED_EDGE('',*,*,#192,.T.);
#943 = ORIENTED_EDGE('',*,*,#829,.T.);
#944 = ORIENTED_EDGE('',*,*,#945,.F.);
#945 = EDGE_CURVE('',#830,#830,#946,.T.);
#946 = SURFACE_CURVE('',#947,(#952,#959),.PCURVE_S1.);
#947 = CIRCLE('',#948,30.);
#948 = AXIS2_PLACEMENT_3D('',#949,#950,#951);
#949 = CARTESIAN_POINT('',(0.,0.,12.));
#950 = DIRECTION('',(0.,0.,1.));
#951 = DIRECTION('',(1.,0.,-0.));
#952 = PCURVE('',#209,#953);
#953 = DEFINITIONAL_REPRESENTATION('',(#954),#958);
#954 = LINE('',#955,#956);
#955 = CARTESIAN_POINT('',(-0.,-6.));
#956 = VECTOR('',#957,1.);
#957 = DIRECTION('',(-1.,-0.));
#958 = ( GEOMETRIC_REPRESENTATION_CONTEXT(2) 
PARAMETRIC_REPRESENTATION_CONTEXT() REPRESENTATION_CONTEXT('2D SPACE',''
  ) );
#959 = PCURVE('',#960,#965);
#960 = CONICAL_SURFACE('',#961,30.,0.927295218002);
#961 = AXIS2_PLACEMENT_3D('',#962,#963,#964);
#962 = CARTESIAN_POINT('',(0.,0.,12.));
#963 = DIRECTION('',(0.,0.,1.));
#964 = DIRECTION('',(1.,0.,-0.));
#965 = DEFINITIONAL_REPRESENTATION('',(#966),#970);
#966 = LINE('',#967,#968);
#967 = CARTESIAN_POINT('',(0.,0.));
#968 = VECTOR('',#969,1.);
#969 = DIRECTION('',(1.,0.));
#970 = ( GEOMETRIC_REPRESENTATION_CONTEXT(2) 
PARAMETRIC_REPRESENTATION_CONTEXT() REPRESENTATION_CONTEXT('2D SPACE',''
  ) );
#971 = ADVANCED_FACE('',(#972),#319,.F.);
#972 = FACE_BOUND('',#973,.T.);
#973 = EDGE_LOOP('',(#974,#975,#996,#997,#998,#999));
#974 = ORIENTED_EDGE('',*,*,#372,.F.);
#975 = ORIENTED_EDGE('',*,*,#976,.T.);
#976 = EDGE_CURVE('',#222,#544,#977,.T.);
#977 = SEAM_CURVE('',#978,(#982,#989),.PCURVE_S1.);
#978 = LINE('',#979,#980);
#979 = CARTESIAN_POINT('',(-40.,2.1,4.));
#980 = VECTOR('',#981,1.);
#981 = DIRECTION('',(1.,0.,0.));
#982 = PCURVE('',#319,#983);
#983 = DEFINITIONAL_REPRESENTATION('',(#984),#988);
#984 = LINE('',#985,#986);
#985 = CARTESIAN_POINT('',(-6.28318530718,0.));
#986 = VECTOR('',#987,1.);
#987 = DIRECTION('',(-0.,-1.));
#988 = ( GEOMETRIC_REPRESENTATION_CONTEXT(2) 
PARAMETRIC_REPRESENTATION_CONTEXT() REPRESENTATION_CONTEXT('2D SPACE',''
  ) );
#989 = PCURVE('',#319,#990);
#990 = DEFINITIONAL_REPRESENTATION('',(#991),#995);
#991 = LINE('',#992,#993);
#992 = CARTESIAN_POINT('',(-0.,0.));
#993 = VECTOR('',#994,1.);
#994 = DIRECTION('',(-0.,-1.));
#995 = ( GEOMETRIC_REPRESENTATION_CONTEXT(2) 
PARAMETRIC_REPRESENTATION_CONTEXT() REPRESENTATION_CONTEXT('2D SPACE',''
  ) );
#996 = ORIENTED_EDGE('',*,*,#543,.T.);
#997 = ORIENTED_EDGE('',*,*,#976,.F.);
#998 = ORIENTED_EDGE('',*,*,#221,.F.);
#999 = ORIENTED_EDGE('',*,*,#853,.F.);
#1000 = ADVANCED_FACE('',(#1001,#1032),#490,.T.);
#1001 = FACE_BOUND('',#1002,.T.);
#1002 = EDGE_LOOP('',(#1003));
#1003 = ORIENTED_EDGE('',*,*,#1004,.T.);
#1004 = EDGE_CURVE('',#1005,#1005,#1007,.T.);
#1005 = VERTEX_POINT('',#1006);
#1006 = CARTESIAN_POINT('',(38.,0.,24.));
#1007 = SURFACE_CURVE('',#1008,(#1013,#1020),.PCURVE_S1.);
#1008 = CIRCLE('',#1009,38.);
#1009 = AXIS2_PLACEMENT_3D('',#1010,#1011,#1012);
#1010 = CARTESIAN_POINT('',(0.,0.,24.));
#1011 = DIRECTION('',(0.,0.,1.));
#1012 = DIRECTION('',(1.,0.,-0.));
#1013 = PCURVE('',#490,#1014);
#1014 = DEFINITIONAL_REPRESENTATION('',(#1015),#1019);
#1015 = CIRCLE('',#1016,38.);
#1016 = AXIS2_PLACEMENT_2D('',#1017,#1018);
#1017 = CARTESIAN_POINT('',(0.,0.));
#1018 = DIRECTION('',(1.,0.));
#1019 = ( GEOMETRIC_REPRESENTATION_CONTEXT(2) 
PARAMETRIC_REPRESENTATION_CONTEXT() REPRESENTATION_CONTEXT('2D SPACE',''
  ) );
#1020 = PCURVE('',#1021,#1026);
#1021 = CYLINDRICAL_SURFACE('',#1022,38.);
#1022 = AXIS2_PLACEMENT_3D('',#1023,#1024,#1025);
#1023 = CARTESIAN_POINT('',(0.,0.,18.));
#1024 = DIRECTION('',(0.,0.,1.));
#1025 = DIRECTION('',(1.,0.,-0.));
#1026 = DEFINITIONAL_REPRESENTATION('',(#1027),#1031);
#1027 = LINE('',#1028,#1029);
#1028 = CARTESIAN_POINT('',(0.,6.));
#1029 = VECTOR('',#1030,1.);
#1030 = DIRECTION('',(1.,0.));
#1031 = ( GEOMETRIC_REPRESENTATION_CONTEXT(2) 
PARAMETRIC_REPRESENTATION_CONTEXT() REPRESENTATION_CONTEXT('2D SPACE',''
  ) );
#1032 = FACE_BOUND('',#1033,.T.);
#1033 = EDGE_LOOP('',(#1034,#1035,#1036,#1037));
#1034 = ORIENTED_EDGE('',*,*,#733,.F.);
#1035 = ORIENTED_EDGE('',*,*,#471,.F.);
#1036 = ORIENTED_EDGE('',*,*,#805,.T.);
#1037 = ORIENTED_EDGE('',*,*,#782,.F.);
#1038 = ADVANCED_FACE('',(#1039),#960,.T.);
#1039 = FACE_BOUND('',#1040,.T.);
#1040 = EDGE_LOOP('',(#1041,#1042,#1065,#1087));
#1041 = ORIENTED_EDGE('',*,*,#945,.T.);
#1042 = ORIENTED_EDGE('',*,*,#1043,.T.);
#1043 = EDGE_CURVE('',#830,#1044,#1046,.T.);
#1044 = VERTEX_POINT('',#1045);
#1045 = CARTESIAN_POINT('',(38.,0.,18.));
#1046 = SEAM_CURVE('',#1047,(#1051,#1058),.PCURVE_S1.);
#1047 = LINE('',#1048,#1049);
#1048 = CARTESIAN_POINT('',(30.,0.,12.));
#1049 = VECTOR('',#1050,1.);
#1050 = DIRECTION('',(0.8,0.,0.6));
#1051 = PCURVE('',#960,#1052);
#1052 = DEFINITIONAL_REPRESENTATION('',(#1053),#1057);
#1053 = LINE('',#1054,#1055);
#1054 = CARTESIAN_POINT('',(0.,0.));
#1055 = VECTOR('',#1056,1.);
#1056 = DIRECTION('',(0.,1.));
#1057 = ( GEOMETRIC_REPRESENTATION_CONTEXT(2) 
PARAMETRIC_REPRESENTATION_CONTEXT() REPRESENTATION_CONTEXT('2D SPACE',''
  ) );
#1058 = PCURVE('',#960,#1059);
#1059 = DEFINITIONAL_REPRESENTATION('',(#1060),#1064);
#1060 = LINE('',#1061,#1062);
#1061 = CARTESIAN_POINT('',(6.28318530718,0.));
#1062 = VECTOR('',#1063,1.);
#1063 = DIRECTION('',(0.,1.));
#1064 = ( GEOMETRIC_REPRESENTATION_CONTEXT(2) 
PARAMETRIC_REPRESENTATION_CONTEXT() REPRESENTATION_CONTEXT('2D SPACE',''
  ) );
#1065 = ORIENTED_EDGE('',*,*,#1066,.F.);
#1066 = EDGE_CURVE('',#1044,#1044,#1067,.T.);
#1067 = SURFACE_CURVE('',#1068,(#1073,#1080),.PCURVE_S1.);
#1068 = CIRCLE('',#1069,38.);
#1069 = AXIS2_PLACEMENT_3D('',#1070,#1071,#1072);
#1070 = CARTESIAN_POINT('',(0.,0.,18.));
#1071 = DIRECTION('',(0.,0.,1.));
#1072 = DIRECTION('',(1.,0.,-0.));
#1073 = PCURVE('',#960,#1074);
#1074 = DEFINITIONAL_REPRESENTATION('',(#1075),#1079);
#1075 = LINE('',#1076,#1077);
#1076 = CARTESIAN_POINT('',(0.,6.));
#1077 = VECTOR('',#1078,1.);
#1078 = DIRECTION('',(1.,0.));
#1079 = ( GEOMETRIC_REPRESENTATION_CONTEXT(2) 
PARAMETRIC_REPRESENTATION_CONTEXT() REPRESENTATION_CONTEXT('2D SPACE',''
  ) );
#1080 = PCURVE('',#1021,#1081);
#1081 = DEFINITIONAL_REPRESENTATION('',(#1082),#1086);
#1082 = LINE('',#1083,#1084);
#1083 = CARTESIAN_POINT('',(0.,0.));
#1084 = VECTOR('',#1085,1.);
#1085 = DIRECTION('',(1.,0.));
#1086 = ( GEOMETRIC_REPRESENTATION_CONTEXT(2) 
PARAMETRIC_REPRESENTATION_CONTEXT() REPRESENTATION_CONTEXT('2D SPACE',''
  ) );
#1087 = ORIENTED_EDGE('',*,*,#1043,.F.);
#1088 = ADVANCED_FACE('',(#1089),#1021,.T.);
#1089 = FACE_BOUND('',#1090,.T.);
#1090 = EDGE_LOOP('',(#1091,#1092,#1113,#1114));
#1091 = ORIENTED_EDGE('',*,*,#1066,.T.);
#1092 = ORIENTED_EDGE('',*,*,#1093,.T.);
#1093 = EDGE_CURVE('',#1044,#1005,#1094,.T.);
#1094 = SEAM_CURVE('',#1095,(#1099,#1106),.PCURVE_S1.);
#1095 = LINE('',#1096,#1097);
#1096 = CARTESIAN_POINT('',(38.,0.,18.));
#1097 = VECTOR('',#1098,1.);
#1098 = DIRECTION('',(0.,0.,1.));
#1099 = PCURVE('',#1021,#1100);
#1100 = DEFINITIONAL_REPRESENTATION('',(#1101),#1105);
#1101 = LINE('',#1102,#1103);
#1102 = CARTESIAN_POINT('',(0.,0.));
#1103 = VECTOR('',#1104,1.);
#1104 = DIRECTION('',(0.,1.));
#1105 = ( GEOMETRIC_REPRESENTATION_CONTEXT(2) 
PARAMETRIC_REPRESENTATION_CONTEXT() REPRESENTATION_CONTEXT('2D SPACE',''
  ) );
#1106 = PCURVE('',#1021,#1107);
#1107 = DEFINITIONAL_REPRESENTATION('',(#1108),#1112);
#1108 = LINE('',#1109,#1110);
#1109 = CARTESIAN_POINT('',(6.28318530718,0.));
#1110 = VECTOR('',#1111,1.);
#1111 = DIRECTION('',(0.,1.));
#1112 = ( GEOMETRIC_REPRESENTATION_CONTEXT(2) 
PARAMETRIC_REPRESENTATION_CONTEXT() REPRESENTATION_CONTEXT('2D SPACE',''
  ) );
#1113 = ORIENTED_EDGE('',*,*,#1004,.F.);
#1114 = ORIENTED_EDGE('',*,*,#1093,.F.);
#1115 = ( GEOMETRIC_REPRESENTATION_CONTEXT(3) 
GLOBAL_UNCERTAINTY_ASSIGNED_CONTEXT((#1119)) 
GLOBAL_UNIT_ASSIGNED_CONTEXT((#1116,#1117,#1118)) REPRESENTATION_CONTEXT
('Context #1','3D Context with UNIT and UNCERTAINTY') );
#1116 = ( LENGTH_UNIT() NAMED_UNIT(*) SI_UNIT(.MILLI.,.METRE.) );
#1117 = ( NAMED_UNIT(*) PLANE_ANGLE_UNIT() SI_UNIT($,.RADIAN.) );
#1118 = ( NAMED_UNIT(*) SI_UNIT($,.STERADIAN.) SOLID_ANGLE_UNIT() );
#1119 = UNCERTAINTY_MEASURE_WITH_UNIT(LENGTH_MEASURE(1.E-07),#1116,
  'distance_accuracy_value','confusion accuracy');
#1120 = PRODUCT_RELATED_PRODUCT_CATEGORY('part',$,(#7));
ENDSEC;
END-ISO-10303-21;
