# Mesh2Param deterministic OBJ
o Mesh2Param_result
v -11.985082999999999 -0.59815099999999999 0
v -11.985082999999999 -0.59815099999999999 18
v -11.985082999999999 0.59815099999999999 0
v -11.985082999999999 0.59815099999999999 18
v -11.865969999999999 -1.7885069999999998 0
v -11.865969999999999 -1.7885069999999998 18
v -11.865969999999999 1.7885069999999998 0
v -11.865969999999999 1.7885069999999998 18
v -11.628926999999999 -2.9610889999999999 0
v -11.628926999999999 -2.9610889999999999 18
v -11.628926999999999 2.9610889999999999 0
v -11.628926999999999 2.9610889999999999 18
v -11.276311 -4.1042420000000002 0
v -11.276311 -4.1042420000000002 18
v -11.276311 4.1042420000000002 0
v -11.276311 4.1042420000000002 18
v -10.811625999999999 -5.2066049999999997 0
v -10.811625999999999 -5.2066049999999997 18
v -10.811625999999999 5.2066049999999997 0
v -10.811625999999999 5.2066049999999997 18
v -10.239490999999999 -6.2572219999999996 0
v -10.239490999999999 -6.2572219999999996 18
v -10.239490999999999 6.2572219999999996 0
v -10.239490999999999 6.2572219999999996 18
v -9.5655900000000003 -7.2456529999999999 0
v -9.5655900000000003 -7.2456529999999999 18
v -9.5655900000000003 7.2456529999999999 0
v -9.5655900000000003 7.2456529999999999 18
v -8.7966219999999993 -8.1620729999999995 0
v -8.7966219999999993 -8.1620729999999995 18
v -8.7966219999999993 8.1620729999999995 0
v -8.7966219999999993 8.1620729999999995 18
v -7.9402299999999997 -8.9973739999999989 0
v -7.9402299999999997 -8.9973739999999989 18
v -7.9402299999999997 8.9973739999999989 0
v -7.9402299999999997 8.9973739999999989 18
v -7.0049239999999999 -9.7432559999999988 0
v -7.0049239999999999 -9.7432559999999988 18
v -7.0049239999999999 9.7432559999999988 0
v -7.0049239999999999 9.7432559999999988 18
v -6 -10.392305 0
v -6 -10.392305 18
v -6 0 0
v -6 0 18
v -6 10.392305 0
v -6 10.392305 18
v -5.9701849999999999 -0.59740700000000002 0
v -5.9701849999999999 -0.59740700000000002 18
v -5.9701849999999999 0.59740700000000002 0
v -5.9701849999999999 0.59740700000000002 18
v -5.8810349999999998 -1.188877 0
v -5.8810349999999998 -1.188877 18
v -5.8810349999999998 1.188877 0
v -5.8810349999999998 1.188877 18
v -5.7334369999999995 -1.7685309999999999 0
v -5.7334369999999995 -1.7685309999999999 18
v -5.7334369999999995 1.7685309999999999 0
v -5.7334369999999995 1.7685309999999999 18
v -5.5288569999999995 -2.3306089999999999 0
v -5.5288569999999995 -2.3306089999999999 18
v -5.5288569999999995 2.3306089999999999 0
v -5.5288569999999995 2.3306089999999999 18
v -5.2693289999999999 -2.8695239999999997 0
v -5.2693289999999999 -2.8695239999999997 18
v -5.2693289999999999 2.8695239999999997 0
v -5.2693289999999999 2.8695239999999997 18
v -4.957433 -3.3799199999999998 0
v -4.957433 -3.3799199999999998 18
v -4.957433 3.3799199999999998 0
v -4.957433 3.3799199999999998 18
v -4.9354449999999996 -10.93807 0
v -4.9354449999999996 -10.93807 18
v -4.9354449999999996 10.93807 0
v -4.9354449999999996 10.93807 18
v -4.5962670000000001 -3.8567259999999997 0
v -4.5962670000000001 -3.8567259999999997 18
v -4.5962670000000001 3.8567259999999997 0
v -4.5962670000000001 3.8567259999999997 18
v -4.1894209999999994 -4.2952009999999996 0
v -4.1894209999999994 -4.2952009999999996 18
v -4.1894209999999994 4.2952009999999996 0
v -4.1894209999999994 4.2952009999999996 18
v -3.8218399999999999 -11.375128 0
v -3.8218399999999999 -11.375128 18
v -3.8218399999999999 11.375128 0
v -3.8218399999999999 11.375128 18
v -3.740939 -4.6909890000000001 0
v -3.740939 -4.6909890000000001 18
v -3.740939 4.6909890000000001 0
v -3.740939 4.6909890000000001 18
v -3.2552779999999997 -5.0401559999999996 0
v -3.2552779999999997 -5.0401559999999996 18
v -3.2552779999999997 5.0401559999999996 0
v -3.2552779999999997 5.0401559999999996 18
v -2.7372639999999997 -5.3392309999999998 0
v -2.7372639999999997 -5.3392309999999998 18
v -2.7372639999999997 5.3392309999999998 0
v -2.7372639999999997 5.3392309999999998 18
v -2.6702509999999999 -11.699135 0
v -2.6702509999999999 -11.699135 18
v -2.6702509999999999 11.699135 0
v -2.6702509999999999 11.699135 18
v -2.1920459999999999 -5.585242 0
v -2.1920459999999999 -5.585242 18
v -2.1920459999999999 5.585242 0
v -2.1920459999999999 5.585242 18
v -1.625043 -5.7757449999999997 0
v -1.625043 -5.7757449999999997 18
v -1.625043 5.7757449999999997 0
v -1.625043 5.7757449999999997 18
v -1.492124 -11.90687 0
v -1.492124 -11.90687 18
v -1.492124 11.90687 0
v -1.492124 11.90687 18
v -1.0418889999999998 -5.9088469999999997 0
v -1.0418889999999998 -5.9088469999999997 18
v -1.0418889999999998 5.9088469999999997 0
v -1.0418889999999998 5.9088469999999997 18
v -0.44838099999999997 -5.9832229999999997 0
v -0.44838099999999997 -5.9832229999999997 18
v -0.44838099999999997 5.9832229999999997 0
v -0.44838099999999997 5.9832229999999997 18
v -0.29916799999999999 -11.996269999999999 0
v -0.29916799999999999 -11.996269999999999 18
v -0.29916799999999999 11.996269999999999 0
v -0.29916799999999999 11.996269999999999 18
v 0.14958399999999999 -5.9981349999999996 0
v 0.14958399999999999 -5.9981349999999996 18
v 0.14958399999999999 5.9981349999999996 0
v 0.14958399999999999 5.9981349999999996 18
v 0.746062 -5.9534349999999998 0
v 0.746062 -5.9534349999999998 18
v 0.746062 5.9534349999999998 0
v 0.746062 5.9534349999999998 18
v 0.89676099999999992 -11.966445999999999 0
v 0.89676099999999992 -11.966445999999999 18
v 0.89676099999999992 11.966445999999999 0
v 0.89676099999999992 11.966445999999999 18
v 1.335126 -5.8495669999999995 0
v 1.335126 -5.8495669999999995 18
v 1.335126 5.8495669999999995 0
v 1.335126 5.8495669999999995 18
v 1.91092 -5.6875640000000001 0
v 1.91092 -5.6875640000000001 18
v 1.91092 5.6875640000000001 0
v 1.91092 5.6875640000000001 18
v 2.0837779999999997 -11.817693 0
v 2.0837779999999997 -11.817693 18
v 2.0837779999999997 11.817693 0
v 2.0837779999999997 11.817693 18
v 2.4677229999999999 -5.4690349999999999 0
v 2.4677229999999999 -5.4690349999999999 18
v 2.4677229999999999 5.4690349999999999 0
v 2.4677229999999999 5.4690349999999999 18
v 3 -5.1961519999999997 0
v 3 -5.1961519999999997 18
v 3 5.1961519999999997 0
v 3 5.1961519999999997 18
v 3.250086 -11.551490999999999 0
v 3.250086 -11.551490999999999 18
v 3.250086 11.551490999999999 0
v 3.250086 11.551490999999999 18
v 3.502462 -4.8716279999999994 0
v 3.502462 -4.8716279999999994 18
v 3.502462 4.8716279999999994 0
v 3.502462 4.8716279999999994 18
v 3.9701149999999998 -4.4986869999999994 0
v 3.9701149999999998 -4.4986869999999994 18
v 3.9701149999999998 4.4986869999999994 0
v 3.9701149999999998 4.4986869999999994 18
v 4.3840919999999999 -11.170484999999999 0
v 4.3840919999999999 -11.170484999999999 18
v 4.3840919999999999 11.170484999999999 0
v 4.3840919999999999 11.170484999999999 18
v 4.3983109999999996 -4.0810360000000001 0
v 4.3983109999999996 -4.0810360000000001 18
v 4.3983109999999996 4.0810360000000001 0
v 4.3983109999999996 4.0810360000000001 18
v 4.7827950000000001 -3.6228259999999999 0
v 4.7827950000000001 -3.6228259999999999 18
v 4.7827950000000001 3.6228259999999999 0
v 4.7827950000000001 3.6228259999999999 18
v 5.119745 -3.1286109999999998 0
v 5.119745 -3.1286109999999998 18
v 5.119745 3.1286109999999998 0
v 5.119745 3.1286109999999998 18
v 5.4058129999999993 -2.6033019999999998 0
v 5.4058129999999993 -2.6033019999999998 18
v 5.4058129999999993 2.6033019999999998 0
v 5.4058129999999993 2.6033019999999998 18
v 5.4745279999999994 -10.678462 0
v 5.4745279999999994 -10.678462 18
v 5.4745279999999994 10.678462 0
v 5.4745279999999994 10.678462 18
v 5.6381559999999995 -2.0521210000000001 0
v 5.6381559999999995 -2.0521210000000001 18
v 5.6381559999999995 2.0521210000000001 0
v 5.6381559999999995 2.0521210000000001 18
v 5.8144640000000001 -1.4805439999999999 0
v 5.8144640000000001 -1.4805439999999999 18
v 5.8144640000000001 1.4805439999999999 0
v 5.8144640000000001 1.4805439999999999 18
v 5.9329849999999995 -0.89425399999999999 0
v 5.9329849999999995 -0.89425399999999999 18
v 5.9329849999999995 0.89425399999999999 0
v 5.9329849999999995 0.89425399999999999 18
v 5.9925419999999994 -0.29907499999999998 0
v 5.9925419999999994 -0.29907499999999998 18
v 5.9925419999999994 0.29907499999999998 0
v 5.9925419999999994 0.29907499999999998 18
v 6.5105550000000001 -10.080311 0
v 6.5105550000000001 -10.080311 18
v 6.5105550000000001 10.080311 0
v 6.5105550000000001 10.080311 18
v 7.481878 -9.3819780000000002 0
v 7.481878 -9.3819780000000002 18
v 7.481878 9.3819780000000002 0
v 7.481878 9.3819780000000002 18
v 8.3788419999999988 -8.5904019999999992 0
v 8.3788419999999988 -8.5904019999999992 18
v 8.3788419999999988 8.5904019999999992 0
v 8.3788419999999988 8.5904019999999992 18
v 9.1925329999999992 -7.7134510000000001 0
v 9.1925329999999992 -7.7134510000000001 18
v 9.1925329999999992 7.7134510000000001 0
v 9.1925329999999992 7.7134510000000001 18
v 9.9148649999999989 -6.7598409999999998 0
v 9.9148649999999989 -6.7598409999999998 18
v 9.9148649999999989 6.7598409999999998 0
v 9.9148649999999989 6.7598409999999998 18
v 10.538658999999999 -5.7390479999999995 0
v 10.538658999999999 -5.7390479999999995 18
v 10.538658999999999 5.7390479999999995 0
v 10.538658999999999 5.7390479999999995 18
v 11.057715 -4.6612179999999999 0
v 11.057715 -4.6612179999999999 18
v 11.057715 4.6612179999999999 0
v 11.057715 4.6612179999999999 18
v 11.466873999999999 -3.5370619999999997 0
v 11.466873999999999 -3.5370619999999997 18
v 11.466873999999999 3.5370619999999997 0
v 11.466873999999999 3.5370619999999997 18
v 11.76207 -2.3777539999999999 0
v 11.76207 -2.3777539999999999 18
v 11.76207 2.3777539999999999 0
v 11.76207 2.3777539999999999 18
v 11.940368999999999 -1.194814 0
v 11.940368999999999 -1.194814 18
v 11.940368999999999 1.194814 0
v 11.940368999999999 1.194814 18
v 12 0 0
v 12 0 18
vn -0.92199736694926882 -0.046014918086055352 -0.38445218513119256
vn -0.97778372056279628 -0.048799095767972124 0.20385692054625909
vn -0.97778372056279628 0.048799095767972124 -0.20385692054625909
vn -0.92199736694926882 0.046014918086055352 0.38445218513119256
vn -0.9680660338297542 -0.14591264195026291 -0.20385694754955902
vn -0.91283409853076758 -0.13758775778134019 0.38445223041130139
vn -0.95027897945250184 0.1594403483312907 -0.26748576884520059
vn -0.95505655564533642 0.12774309532084996 0.26748584470344378
vn -0.89459873689290847 -0.22779298866128239 -0.38445214821401824
vn -0.94872729820503177 -0.24157582362933583 0.20385689853028971
vn -0.89459873689290847 0.22779298866128239 -0.38445214821401824
vn -0.94872729820503177 0.24157582362933583 0.20385689853028971
vn -0.91080839651622625 -0.31445096196384886 -0.26748580776473158
vn -0.89984488489460313 -0.34457295039829527 0.26748582202208798
vn -0.91080839651622625 0.31445096196384886 -0.26748580776473158
vn -0.89984488489460313 0.34457295039829527 0.26748582202208798
vn -0.88204922354247484 -0.42477230441216801 -0.2038569514451096
vn -0.83172488031758429 -0.40053739022697765 0.38445223694350117
vn -0.88204922354247484 0.42477230441216801 -0.2038569514451096
vn -0.83172488031758429 0.40053739022697765 0.38445223694350117
vn -0.78771119847311366 -0.48136017930948322 -0.38445213691068642
vn -0.83537242289150881 -0.51048534037945303 0.2038568917894216
vn -0.78771119847311366 0.48136017930948322 -0.38445213691068642
vn -0.83537242289150881 0.51048534037945303 0.2038568917894216
vn -0.78039318613293329 -0.59112504656922737 -0.20385694581205152
vn -0.73586871798204856 -0.5573990623130316 0.38445222749778607
vn -0.78039318613293329 0.59112504656922737 -0.20385694581205152
vn -0.73586871798204856 0.5573990623130316 0.38445222749778607
vn -0.67671301816985985 -0.62789809062776802 -0.38445218015436206
vn -0.71765820089149324 -0.66588967843680502 0.20385691757827057
vn -0.67671301816985985 0.62789809062776802 -0.38445218015436206
vn -0.71765820089149324 0.66588967843680502 0.20385691757827057
vn -0.64950414945571766 -0.71175536156340857 -0.26748582228885792
vn -0.62546989944660591 -0.7329657391050497 0.26748575697491034
vn -0.64779092214787826 0.73403628778611285 -0.20385693364706647
vn -0.61083193321665263 0.69215666566134992 0.38445220709909989
vn -0.57540885896502847 -0.7728880984340345 -0.267485760973526
vn -0.54938205870976808 -0.79160009771979445 0.26748577318771366
vn -0.53888015887662111 0.74953632162249273 -0.38445217769929557
vn -0.57148562924579382 0.79488774887902347 0.2038569161141642
vn -0.49559453385420388 -0.82633976692680744 -0.26748578954625601
vn -0.46783380565561877 -0.84236742674368792 0.26748579148619944
vn 0.91361214006507474 -0.015198653489742801 -0.40630266853395502
vn 0.91361214006507474 0.015198653489742801 0.40630266853395502
vn -0.48950026557794535 0.84783951318613604 -0.20385693483278108
vn -0.46157237330349432 0.7994669743840811 0.38445220908734895
vn 0.94391035802961842 0.094452408233142507 -0.31640477016530189
vn 0.82775720468016145 0.082829540696620074 0.55493898519393303
vn 0.90755898475529462 -0.10608978930082079 -0.40630240683024071
vn 0.91058561191719745 -0.075842882397782752 0.40630247422207383
vn 0.89248589090258257 0.19592625805490174 -0.40630264082876399
vn 0.89850908375639427 0.1661314593026198 0.40630255307741636
vn 0.89248589090258257 -0.19592625805490174 -0.40630264082876399
vn 0.89850908375639427 -0.1661314593026198 0.40630255307741636
vn 0.86854297050773765 0.28381582874495825 -0.40630245351881383
vn 0.87750285092719937 0.25476846263708003 0.40630256836522211
vn 0.79493235373063953 -0.24520437937462511 -0.55493906451769115
vn 0.90647947319502109 -0.27961214007391966 0.31640482897604416
vn 0.83596802551800065 0.36888444846524515 -0.40630250305902299
vn 0.84777555338613142 0.34087380469184125 0.4063024247475604
vn 0.84777555338613142 -0.34087380469184125 -0.4063024247475604
vn 0.83596802551800065 -0.36888444846524515 0.40630250305902299
vn 0.73058469357715849 0.39785500003586538 -0.55493909977332734
vn 0.83310238624260946 0.45368312917361631 0.31640485511462324
vn 0.83310238624260946 -0.45368312917361631 -0.31640485511462324
vn 0.73058469357715849 -0.39785500003586538 0.55493909977332734
vn 0.78379044671094433 0.53437854222759018 -0.31640497665393003
vn 0.68734079026929662 0.4686203704816575 0.55493926370514901
vn 0.68734079026929662 -0.4686203704816575 -0.55493926370514901
vn 0.78379044671094433 -0.53437854222759018 0.31640497665393003
vn -0.41085478724953678 -0.87157885671998114 -0.26748577590748385
vn -0.38163649647662196 -0.88476263984402015 0.26748580465753674
vn -0.37967751973584524 0.84145200752101734 -0.38445220775290984
vn -0.40265028284533783 0.89236489182935397 0.20385693403697333
vn 0.69009774009901759 0.59890175979811178 -0.40630258579161593
vn 0.70963731664548979 0.57561549381261468 0.40630245151493816
vn 0.72668832042273968 -0.609763941723372 -0.31640483614375087
vn 0.63726545502859544 -0.53472924342078776 0.5549390741854725
vn 0.62703734740738759 0.664637127991624 -0.40630241575869652
vn 0.6487977635338964 0.64341260211499351 0.40630245565714634
vn 0.58085682737433142 -0.59552336426814079 -0.55493897745912713
vn 0.66236424219050016 -0.67908882755715638 0.31640476443070653
vn -0.3220322114697311 -0.90815560178856014 -0.26748580843845293
vn -0.29164623430526188 -0.91836476785709631 0.26748575134825747
vn -0.3220322114697311 0.90815560178856014 -0.26748580843845293
vn -0.29164623430526188 0.91836476785709631 0.26748575134825747
vn 0.55774538814353603 0.72376675824793346 -0.4063025494134806
vn 0.58151114435258666 0.70481418335286239 0.40630254237253172
vn 0.58151114435258666 -0.70481418335286239 -0.40630254237253172
vn 0.55774538814353603 -0.72376675824793346 0.4063025494134806
vn 0.48290926661804989 0.77570414023051837 -0.40630250681438024
vn 0.50844445793953963 0.75921175286150722 0.40630253199743366
vn 0.50844445793953963 -0.75921175286150722 -0.40630253199743366
vn 0.48290926661804989 -0.77570414023051837 0.40630250681438024
vn 0.40327379806313379 0.81993199379424631 -0.40630255887494354
vn 0.43032393684795739 0.80606425059329279 0.40630251450261573
vn 0.43277171278482951 -0.84415437880928756 -0.31640485039011457
vn 0.37951684629086513 -0.74027668205664554 0.55493909340092451
vn -0.23000864006695149 -0.93570688216787756 -0.26748580552661394
vn -0.19875700945125865 -0.94283985073847121 0.26748582589260667
vn -0.21784796221501626 0.95445513640020785 -0.20385695464718742
vn -0.20541888723345028 0.89999975230462392 0.38445224231286074
vn 0.30392355022062933 0.77438559805627905 -0.55493911480837943
vn 0.34657095776902996 0.8830495636355955 0.31640486626163283
vn 0.31963161937960699 -0.85601042144168582 -0.40630257970630396
vn 0.34792764281297661 -0.84490508681190724 0.40630253462902416
vn 0.25692656475537479 0.91316848299423037 -0.31640490196742899
vn 0.22531037272667051 0.80079820263651502 0.55493916296824441
vn 0.22531037272667051 -0.80079820263651502 -0.55493916296824441
vn 0.25692656475537479 -0.91316848299423037 0.31640490196742899
vn -0.13569924172770062 -0.95395865417310122 -0.26748570414654438
vn -0.10389310172659384 -0.95794447174136677 0.26748572386910896
vn -0.11478716667077089 0.91598061322709334 -0.38445210697798848
vn -0.12173247351783324 0.97140289264504531 0.20385687393872351
vn 0.1436794341895177 0.90237152575183788 -0.40630265776054209
vn 0.17361583979203188 0.89709299641627316 0.40630246855536079
vn 0.17361583979203188 -0.89709299641627316 -0.40630246855536079
vn 0.1436794341895177 -0.90237152575183788 0.40630265776054209
vn 0.053117545555851214 0.91219342115519797 -0.40630245969634182
vn 0.083430261754082594 0.90992174244833479 0.40630261387718314
vn 0.07089033877486553 -0.94597173876786955 -0.31640485034347776
vn 0.062166904653078371 -0.82956487308168403 0.55493909333802094
vn -0.024407544026574992 -0.97869638465027453 -0.20385695589572803
vn -0.02301499853226948 -0.9228579422713965 0.38445224440645864
vn -0.024407544026574992 0.97869638465027453 -0.20385695589572803
vn -0.02301499853226948 0.9228579422713965 0.38445224440645864
vn -0.037971394900840741 0.91294931434873949 -0.40630250134530405
vn -0.0075832668253187803 0.9137071876738293 0.40630243570207381
vn -0.020739932873228489 -0.83163245739551894 -0.55493901556000225
vn -0.023650217328125257 -0.94832941238277124 0.31640479267874605
vn -0.12868303016707097 0.90463197575886511 -0.40630243191695581
vn -0.0985212895180827 0.90841167884499241 0.40630256859847275
vn -0.11795569937274393 -0.94126215433849536 -0.31640481948848609
vn -0.10344062404107632 -0.82543484671602019 0.55493905172090119
vn 0.068986659062941699 -0.92056358471360644 -0.38445224328981142
vn 0.073160765809064984 -0.97626320434126024 0.20385695522980291
vn 0.068986659062941699 0.92056358471360644 -0.38445224328981142
vn 0.073160765809064984 0.97626320434126024 0.20385695522980291
vn -0.21811531333680795 0.88732397011817066 -0.40630269767959176
vn -0.18848001604352829 0.89408811810249178 0.40630249890958814
vn -0.18511299073507226 -0.8110337274906817 -0.55493916201119531
vn -0.21108857173752021 -0.92484028531515117 0.31640490125787124
vn -0.30538050194166755 0.86119747401392066 -0.40630242404629813
vn -0.27656559587033613 0.8708786988756857 0.406302551093983
vn -0.27656559587033613 -0.8708786988756857 -0.406302551093983
vn -0.30538050194166755 -0.86119747401392066 0.40630242404629813
vn 0.15151372859397913 -0.95157495887563259 -0.2674858644646258
vn 0.18308171104600893 -0.9460086762581833 0.26748583425053701
vn 0.17000180644937685 0.96412743830651271 -0.20385698052426368
vn 0.16030253880752829 0.90912019891126938 0.38445228570447465
vn -0.38961108426839197 0.82651156785815272 -0.40630263500482788
vn -0.36190321997631603 0.83901388623037476 0.40630254501218382
vn -0.36190321997631603 -0.83901388623037476 -0.40630254501218382
vn -0.38961108426839197 -0.82651156785815272 0.40630263500482788
vn -0.46996857671016889 0.78361196888644347 -0.40630262012806345
vn -0.44364377042218101 0.79881061089048933 0.40630261246311766
vn -0.47431221001179502 -0.82153262662706394 -0.31640491592414333
vn -0.41594554397107886 -0.72043862261923586 0.55493918179301571
vn 0.26515300297165628 -0.94240980469608193 -0.20385692293323177
vn 0.25002499542590878 -0.8886416690278135 0.38445218913375462
vn 0.25002499542590878 0.8886416690278135 -0.38445218913375462
vn 0.26515300297165628 0.94240980469608193 0.20385692293323177
vn -0.54565582840076443 0.73292422603022589 -0.40630259146388648
vn -0.52097460949558594 0.75066877190183146 0.40630265954374195
vn -0.48561097064450753 -0.67544391014143534 -0.55493919436506534
vn -0.55375329198279111 -0.77022413289826008 0.31640492524508057
vn -0.61592030201351067 0.67495213817045019 -0.40630258766924338
vn -0.59312866374580575 0.69506590640294164 0.40630256459856634
vn -0.59312866374580575 -0.69506590640294164 -0.40630256459856634
vn -0.61592030201351067 -0.67495213817045019 0.40630258766924338
vn 0.3372626450660457 -0.85933135407415506 -0.38445224950328183
vn 0.357669059158643 -0.91132605823285473 0.20385695893527572
vn 0.357669059158643 0.91132605823285473 -0.20385695893527572
vn 0.3372626450660457 0.85933135407415506 0.38445224950328183
vn -0.6800629967851658 0.61027256981323841 -0.40630248699352767
vn -0.65938747501382 0.63255547103177212 0.40630251520593863
vn -0.69539088748284228 -0.64522825704028008 -0.31640481968925072
vn -0.60981934510730851 -0.56582949278687811 0.5549390519916918
vn -0.73744708523066305 0.53952759211329004 -0.40630256439411577
vn -0.71909281730788899 0.5637586550252236 0.40630247227940153
vn -0.66312732102964778 -0.50229949415408348 -0.55493907258058017
vn -0.75617919490910879 -0.57278355912545131 0.3164048349538815
vn -0.70984497511005407 0.43377713197836937 -0.55493919584367712
vn -0.80945245441529323 0.49464598110972036 0.31640492634132561
vn -0.80945245441529323 -0.49464598110972036 -0.31640492634132561
vn -0.70984497511005407 -0.43377713197836937 0.55493919584367712
vn -0.81654147134161337 0.41009544039135309 -0.40630254164784063
vn -0.82973033842342547 0.38270840390517513 0.40630264960999379
vn -0.74950763431888945 -0.36094436754163023 -0.55493915850088871
vn -0.85468067425153782 -0.4115931063172103 0.31640489865532462
vn 0.42526376842291763 -0.86463985924377074 -0.26748577732965761
vn 0.4537889462103013 -0.85001584677157371 0.26748579875303424
vn 0.4537889462103013 0.85001584677157371 -0.26748579875303424
vn 0.42526376842291763 0.86463985924377074 0.26748577732965761
vn -0.85331605958139967 0.32675651519877408 -0.40630269779516182
vn -0.86371289199182577 0.29819169738372137 0.40630253730260146
vn -0.8914150580140856 -0.32444895059533291 -0.31640491905678653
vn -0.78172164354060314 -0.28452376322815037 0.55493918601831471
vn -0.9192902456521882 0.23407992786338064 -0.31640485397701162
vn -0.80616667780186102 0.2052751442520124 0.55493909823892029
vn -0.88911122015610156 -0.21071160615215492 -0.40630266701722167
vn -0.88161049394115587 -0.24016928173676322 0.40630241579749232
vn -0.82259938150348033 0.12398704719241571 -0.55493915853776021
vn -0.93802886300847832 0.14138526179427743 0.3164048986826612
vn -0.82259938150348033 -0.12398704719241571 -0.55493915853776021
vn -0.93802886300847832 -0.14138526179427743 0.3164048986826612
vn -0.91171895826124894 0.060720160040844177 -0.4063023545484783
vn -0.91323405978331063 0.030360099615186389 0.40630261678095153
vn -0.94744503426394899 -0.047285353750439206 -0.31640480775310659
vn -0.83085689754374303 -0.041466640169653624 0.55493903589225602
vn 0.5092410457654768 -0.81800055743644584 -0.26748578530708422
vn 0.53616797362089963 -0.80060931227741039 0.2674857625331678
vn 0.50084879558809636 0.77546566700689412 -0.38445218591068792
vn 0.53115314258838053 0.82238597682253411 0.20385692101111988
vn 0.58815683361951188 -0.76323186663737408 -0.26748580675598393
vn 0.61321876057718394 -0.74324564522879422 0.26748581742704758
vn 0.61039690232505339 0.76541359066504444 -0.2038569519472492
vn 0.57557138178179956 0.72174376432048648 0.38445223778550697
vn 0.66122789088839518 -0.70087732570973826 -0.26748579516910825
vn 0.68417509753269679 -0.67849522594823963 0.26748582071125243
vn 0.68417509753269679 0.67849522594823963 -0.26748582071125243
vn 0.66122789088839518 0.70087732570973826 0.26748579516910825
vn 0.72772680393712685 -0.6315576290654753 -0.26748581270910454
vn 0.74833130346418453 -0.60700213486702448 0.26748582863858256
vn 0.74833130346418453 0.60700213486702448 -0.26748582863858256
vn 0.72772680393712685 0.6315576290654753 0.26748581270910454
vn 0.78699315883957088 -0.55596143027608835 -0.26748580520296811
vn 0.80505049452072708 -0.52947622464982935 0.26748575439169897
vn 0.76273796358555113 0.52002625804841418 -0.38445219448655843
vn 0.80888817348738895 0.55149095773450729 0.20385692612543618
vn 0.83843829257790192 -0.47483951449662237 -0.26748582207598315
vn 0.85376878915458487 -0.44668801122155477 0.26748584130089231
vn 0.83843829257790192 0.47483951449662237 -0.26748582207598315
vn 0.85376878915458487 0.44668801122155477 0.26748584130089231
vn 0.88155072635780996 -0.388998285661938 -0.26748579515572624
vn 0.89400214146811219 -0.35946006512763856 0.26748576154416803
vn 0.90212583931133961 0.38027795632505162 -0.20385692526880964
vn 0.85065605907945019 0.35858162307954355 0.38445219305013606
vn 0.91590191099680029 -0.29929088352624111 -0.26748580611032624
vn 0.92535029300791438 -0.26865990856389976 0.26748586646887329
vn 0.88213217400702892 0.27210159977241621 -0.38445226879669275
vn 0.93550647046282698 0.28856538136920229 0.20385697044111797
vn 0.94115035769265409 -0.20660923589544891 -0.26748575262560764
vn 0.94750199012064773 -0.17518955362060024 0.26748569871981365
vn 0.95958960349462019 0.19398495774430594 -0.20385688370515562
vn 0.90484131295309222 0.18291736719456023 0.38445212335469614
vn 0.97413581608609556 -0.097476919278178115 -0.2038569646254749
vn 0.91855756755430862 -0.091915480763862467 0.38445225904481301
vn 0.96023681630329427 0.079978611266748795 -0.26748584701915695
vn 0.95704518879826428 0.11187424751700437 0.26748581147529826
vn 0.92314493203396109 0 -0.38445212245481686
vn 0.97900070029843367 0 0.20385688316850256
f 1//1 2//2 3//3
f 1//1 3//3 43//43
f 1//1 5//5 2//2
f 1//1 43//43 47//47
f 1//1 47//47 5//5
f 2//2 4//4 3//3
f 2//2 5//5 6//6
f 2//2 6//6 48//48
f 2//2 44//44 4//4
f 2//2 48//48 44//44
f 3//3 4//4 8//8
f 3//3 7//7 49//49
f 3//3 8//8 7//7
f 3//3 49//49 43//43
f 4//4 44//44 50//50
f 4//4 50//50 8//8
f 5//5 9//9 10//10
f 5//5 10//10 6//6
f 5//5 47//47 51//51
f 5//5 51//51 9//9
f 6//6 10//10 52//52
f 6//6 52//52 48//48
f 7//7 8//8 12//12
f 7//7 11//11 53//53
f 7//7 12//12 11//11
f 7//7 53//53 49//49
f 8//8 50//50 54//54
f 8//8 54//54 12//12
f 9//9 13//13 10//10
f 9//9 51//51 55//55
f 9//9 55//55 13//13
f 10//10 13//13 14//14
f 10//10 14//14 56//56
f 10//10 56//56 52//52
f 11//11 12//12 15//15
f 11//11 15//15 57//57
f 11//11 57//57 53//53
f 12//12 16//16 15//15
f 12//12 54//54 58//58
f 12//12 58//58 16//16
f 13//13 17//17 14//14
f 13//13 55//55 59//59
f 13//13 59//59 17//17
f 14//14 17//17 18//18
f 14//14 18//18 60//60
f 14//14 60//60 56//56
f 15//15 16//16 19//19
f 15//15 19//19 61//61
f 15//15 61//61 57//57
f 16//16 20//20 19//19
f 16//16 58//58 62//62
f 16//16 62//62 20//20
f 17//17 21//21 22//22
f 17//17 22//22 18//18
f 17//17 59//59 63//63
f 17//17 63//63 21//21
f 18//18 22//22 64//64
f 18//18 64//64 60//60
f 19//19 20//20 24//24
f 19//19 23//23 65//65
f 19//19 24//24 23//23
f 19//19 65//65 61//61
f 20//20 62//62 66//66
f 20//20 66//66 24//24
f 21//21 25//25 22//22
f 21//21 63//63 67//67
f 21//21 67//67 25//25
f 22//22 25//25 26//26
f 22//22 26//26 68//68
f 22//22 68//68 64//64
f 23//23 24//24 27//27
f 23//23 27//27 69//69
f 23//23 69//69 65//65
f 24//24 28//28 27//27
f 24//24 66//66 70//70
f 24//24 70//70 28//28
f 25//25 29//29 30//30
f 25//25 30//30 26//26
f 25//25 67//67 75//75
f 25//25 75//75 29//29
f 26//26 30//30 76//76
f 26//26 76//76 68//68
f 27//27 28//28 32//32
f 27//27 31//31 77//77
f 27//27 32//32 31//31
f 27//27 77//77 69//69
f 28//28 70//70 78//78
f 28//28 78//78 32//32
f 29//29 33//33 30//30
f 29//29 75//75 79//79
f 29//29 79//79 33//33
f 30//30 33//33 34//34
f 30//30 34//34 80//80
f 30//30 80//80 76//76
f 31//31 32//32 35//35
f 31//31 35//35 81//81
f 31//31 81//81 77//77
f 32//32 36//36 35//35
f 32//32 78//78 82//82
f 32//32 82//82 36//36
f 33//33 37//37 34//34
f 33//33 79//79 87//87
f 33//33 87//87 37//37
f 34//34 37//37 38//38
f 34//34 38//38 88//88
f 34//34 88//88 80//80
f 35//35 36//36 40//40
f 35//35 39//39 89//89
f 35//35 40//40 39//39
f 35//35 89//89 81//81
f 36//36 82//82 90//90
f 36//36 90//90 40//40
f 37//37 41//41 38//38
f 37//37 87//87 91//91
f 37//37 91//91 41//41
f 38//38 41//41 42//42
f 38//38 42//42 92//92
f 38//38 92//92 88//88
f 39//39 40//40 45//45
f 39//39 45//45 93//93
f 39//39 93//93 89//89
f 40//40 46//46 45//45
f 40//40 90//90 94//94
f 40//40 94//94 46//46
f 41//41 71//71 42//42
f 41//41 91//91 95//95
f 41//41 95//95 71//71
f 42//42 71//71 72//72
f 42//42 72//72 96//96
f 42//42 96//96 92//92
f 43//43 44//44 47//47
f 43//43 49//49 50//50
f 43//43 50//50 44//44
f 44//44 48//48 47//47
f 45//45 46//46 74//74
f 45//45 73//73 97//97
f 45//45 74//74 73//73
f 45//45 97//97 93//93
f 46//46 94//94 98//98
f 46//46 98//98 74//74
f 47//47 48//48 52//52
f 47//47 52//52 51//51
f 49//49 53//53 54//54
f 49//49 54//54 50//50
f 51//51 52//52 56//56
f 51//51 56//56 55//55
f 53//53 57//57 58//58
f 53//53 58//58 54//54
f 55//55 56//56 60//60
f 55//55 60//60 59//59
f 57//57 61//61 58//58
f 58//58 61//61 62//62
f 59//59 60//60 64//64
f 59//59 64//64 63//63
f 61//61 65//65 62//62
f 62//62 65//65 66//66
f 63//63 64//64 67//67
f 64//64 68//68 67//67
f 65//65 69//69 70//70
f 65//65 70//70 66//66
f 67//67 68//68 76//76
f 67//67 76//76 75//75
f 69//69 77//77 70//70
f 70//70 77//77 78//78
f 71//71 83//83 72//72
f 71//71 95//95 103//103
f 71//71 103//103 83//83
f 72//72 83//83 84//84
f 72//72 84//84 104//104
f 72//72 104//104 96//96
f 73//73 74//74 85//85
f 73//73 85//85 105//105
f 73//73 105//105 97//97
f 74//74 86//86 85//85
f 74//74 98//98 106//106
f 74//74 106//106 86//86
f 75//75 76//76 80//80
f 75//75 80//80 79//79
f 77//77 81//81 82//82
f 77//77 82//82 78//78
f 79//79 80//80 88//88
f 79//79 88//88 87//87
f 81//81 89//89 82//82
f 82//82 89//89 90//90
f 83//83 99//99 84//84
f 83//83 103//103 107//107
f 83//83 107//107 99//99
f 84//84 99//99 100//100
f 84//84 100//100 108//108
f 84//84 108//108 104//104
f 85//85 86//86 101//101
f 85//85 101//101 109//109
f 85//85 109//109 105//105
f 86//86 102//102 101//101
f 86//86 106//106 110//110
f 86//86 110//110 102//102
f 87//87 88//88 92//92
f 87//87 92//92 91//91
f 89//89 93//93 90//90
f 90//90 93//93 94//94
f 91//91 92//92 96//96
f 91//91 96//96 95//95
f 93//93 97//97 94//94
f 94//94 97//97 98//98
f 95//95 96//96 104//104
f 95//95 104//104 103//103
f 97//97 105//105 106//106
f 97//97 106//106 98//98
f 99//99 107//107 115//115
f 99//99 111//111 100//100
f 99//99 115//115 111//111
f 100//100 111//111 112//112
f 100//100 112//112 116//116
f 100//100 116//116 108//108
f 101//101 102//102 114//114
f 101//101 113//113 117//117
f 101//101 114//114 113//113
f 101//101 117//117 109//109
f 102//102 110//110 118//118
f 102//102 118//118 114//114
f 103//103 104//104 107//107
f 104//104 108//108 107//107
f 105//105 109//109 110//110
f 105//105 110//110 106//106
f 107//107 108//108 116//116
f 107//107 116//116 115//115
f 109//109 117//117 110//110
f 110//110 117//117 118//118
f 111//111 115//115 119//119
f 111//111 119//119 123//123
f 111//111 123//123 112//112
f 112//112 120//120 116//116
f 112//112 123//123 124//124
f 112//112 124//124 120//120
f 113//113 114//114 125//125
f 113//113 121//121 117//117
f 113//113 125//125 121//121
f 114//114 118//118 122//122
f 114//114 122//122 126//126
f 114//114 126//126 125//125
f 115//115 116//116 120//120
f 115//115 120//120 119//119
f 117//117 121//121 118//118
f 118//118 121//121 122//122
f 119//119 120//120 128//128
f 119//119 127//127 123//123
f 119//119 128//128 127//127
f 120//120 124//124 128//128
f 121//121 125//125 129//129
f 121//121 129//129 130//130
f 121//121 130//130 122//122
f 122//122 130//130 126//126
f 123//123 127//127 135//135
f 123//123 135//135 136//136
f 123//123 136//136 124//124
f 124//124 136//136 128//128
f 125//125 126//126 138//138
f 125//125 137//137 129//129
f 125//125 138//138 137//137
f 126//126 130//130 138//138
f 127//127 128//128 132//132
f 127//127 131//131 135//135
f 127//127 132//132 131//131
f 128//128 136//136 132//132
f 129//129 133//133 130//130
f 129//129 137//137 133//133
f 130//130 133//133 134//134
f 130//130 134//134 138//138
f 131//131 132//132 140//140
f 131//131 139//139 147//147
f 131//131 140//140 139//139
f 131//131 147//147 135//135
f 132//132 136//136 148//148
f 132//132 148//148 140//140
f 133//133 137//137 149//149
f 133//133 141//141 142//142
f 133//133 142//142 134//134
f 133//133 149//149 141//141
f 134//134 142//142 150//150
f 134//134 150//150 138//138
f 135//135 147//147 136//136
f 136//136 147//147 148//148
f 137//137 138//138 149//149
f 138//138 150//150 149//149
f 139//139 140//140 144//144
f 139//139 143//143 159//159
f 139//139 144//144 143//143
f 139//139 159//159 147//147
f 140//140 148//148 160//160
f 140//140 160//160 144//144
f 141//141 145//145 142//142
f 141//141 149//149 161//161
f 141//141 161//161 145//145
f 142//142 145//145 146//146
f 142//142 146//146 162//162
f 142//142 162//162 150//150
f 143//143 144//144 152//152
f 143//143 151//151 171//171
f 143//143 152//152 151//151
f 143//143 171//171 159//159
f 144//144 160//160 172//172
f 144//144 172//172 152//152
f 145//145 153//153 146//146
f 145//145 161//161 173//173
f 145//145 173//173 153//153
f 146//146 153//153 154//154
f 146//146 154//154 174//174
f 146//146 174//174 162//162
f 147//147 159//159 148//148
f 148//148 159//159 160//160
f 149//149 150//150 162//162
f 149//149 162//162 161//161
f 151//151 152//152 156//156
f 151//151 155//155 191//191
f 151//151 156//156 155//155
f 151//151 191//191 171//171
f 152//152 172//172 192//192
f 152//152 192//192 156//156
f 153//153 157//157 154//154
f 153//153 173//173 193//193
f 153//153 193//193 157//157
f 154//154 157//157 158//158
f 154//154 158//158 194//194
f 154//154 194//194 174//174
f 155//155 156//156 164//164
f 155//155 163//163 211//211
f 155//155 164//164 163//163
f 155//155 211//211 191//191
f 156//156 192//192 212//212
f 156//156 212//212 164//164
f 157//157 165//165 166//166
f 157//157 166//166 158//158
f 157//157 193//193 213//213
f 157//157 213//213 165//165
f 158//158 166//166 214//214
f 158//158 214//214 194//194
f 159//159 171//171 172//172
f 159//159 172//172 160//160
f 161//161 162//162 173//173
f 162//162 174//174 173//173
f 163//163 164//164 168//168
f 163//163 167//167 215//215
f 163//163 168//168 167//167
f 163//163 215//215 211//211
f 164//164 212//212 216//216
f 164//164 216//216 168//168
f 165//165 169//169 166//166
f 165//165 213//213 217//217
f 165//165 217//217 169//169
f 166//166 169//169 170//170
f 166//166 170//170 218//218
f 166//166 218//218 214//214
f 167//167 168//168 176//176
f 167//167 175//175 219//219
f 167//167 176//176 175//175
f 167//167 219//219 215//215
f 168//168 216//216 220//220
f 168//168 220//220 176//176
f 169//169 177//177 170//170
f 169//169 217//217 221//221
f 169//169 221//221 177//177
f 170//170 177//177 178//178
f 170//170 178//178 222//222
f 170//170 222//222 218//218
f 171//171 191//191 172//172
f 172//172 191//191 192//192
f 173//173 174//174 194//194
f 173//173 194//194 193//193
f 175//175 176//176 180//180
f 175//175 179//179 223//223
f 175//175 180//180 179//179
f 175//175 223//223 219//219
f 176//176 220//220 224//224
f 176//176 224//224 180//180
f 177//177 181//181 182//182
f 177//177 182//182 178//178
f 177//177 221//221 225//225
f 177//177 225//225 181//181
f 178//178 182//182 226//226
f 178//178 226//226 222//222
f 179//179 180//180 184//184
f 179//179 183//183 227//227
f 179//179 184//184 183//183
f 179//179 227//227 223//223
f 180//180 224//224 228//228
f 180//180 228//228 184//184
f 181//181 185//185 182//182
f 181//181 225//225 229//229
f 181//181 229//229 185//185
f 182//182 185//185 186//186
f 182//182 186//186 230//230
f 182//182 230//230 226//226
f 183//183 184//184 187//187
f 183//183 187//187 231//231
f 183//183 231//231 227//227
f 184//184 188//188 187//187
f 184//184 228//228 232//232
f 184//184 232//232 188//188
f 185//185 189//189 190//190
f 185//185 190//190 186//186
f 185//185 229//229 233//233
f 185//185 233//233 189//189
f 186//186 190//190 234//234
f 186//186 234//234 230//230
f 187//187 188//188 195//195
f 187//187 195//195 235//235
f 187//187 235//235 231//231
f 188//188 196//196 195//195
f 188//188 232//232 236//236
f 188//188 236//236 196//196
f 189//189 197//197 190//190
f 189//189 233//233 237//237
f 189//189 237//237 197//197
f 190//190 197//197 198//198
f 190//190 198//198 238//238
f 190//190 238//238 234//234
f 191//191 211//211 192//192
f 192//192 211//211 212//212
f 193//193 194//194 214//214
f 193//193 214//214 213//213
f 195//195 196//196 199//199
f 195//195 199//199 239//239
f 195//195 239//239 235//235
f 196//196 200//200 199//199
f 196//196 236//236 240//240
f 196//196 240//240 200//200
f 197//197 201//201 202//202
f 197//197 202//202 198//198
f 197//197 237//237 241//241
f 197//197 241//241 201//201
f 198//198 202//202 242//242
f 198//198 242//242 238//238
f 199//199 200//200 204//204
f 199//199 203//203 243//243
f 199//199 204//204 203//203
f 199//199 243//243 239//239
f 200//200 240//240 244//244
f 200//200 244//244 204//204
f 201//201 205//205 206//206
f 201//201 206//206 202//202
f 201//201 241//241 245//245
f 201//201 245//245 205//205
f 202//202 206//206 246//246
f 202//202 246//246 242//242
f 203//203 204//204 207//207
f 203//203 207//207 247//247
f 203//203 247//247 243//243
f 204//204 208//208 207//207
f 204//204 244//244 248//248
f 204//204 248//248 208//208
f 205//205 209//209 206//206
f 205//205 245//245 249//249
f 205//205 249//249 209//209
f 206//206 209//209 210//210
f 206//206 210//210 250//250
f 206//206 250//250 246//246
f 207//207 208//208 209//209
f 207//207 209//209 251//251
f 207//207 251//251 247//247
f 208//208 210//210 209//209
f 208//208 248//248 252//252
f 208//208 252//252 210//210
f 209//209 249//249 251//251
f 210//210 252//252 250//250
f 211//211 215//215 212//212
f 212//212 215//215 216//216
f 213//213 214//214 217//217
f 214//214 218//218 217//217
f 215//215 219//219 216//216
f 216//216 219//219 220//220
f 217//217 218//218 222//222
f 217//217 222//222 221//221
f 219//219 223//223 220//220
f 220//220 223//223 224//224
f 221//221 222//222 226//226
f 221//221 226//226 225//225
f 223//223 227//227 224//224
f 224//224 227//227 228//228
f 225//225 226//226 230//230
f 225//225 230//230 229//229
f 227//227 231//231 228//228
f 228//228 231//231 232//232
f 229//229 230//230 233//233
f 230//230 234//234 233//233
f 231//231 235//235 232//232
f 232//232 235//235 236//236
f 233//233 234//234 237//237
f 234//234 238//238 237//237
f 235//235 239//239 236//236
f 236//236 239//239 240//240
f 237//237 238//238 242//242
f 237//237 242//242 241//241
f 239//239 243//243 240//240
f 240//240 243//243 244//244
f 241//241 242//242 245//245
f 242//242 246//246 245//245
f 243//243 247//247 244//244
f 244//244 247//247 248//248
f 245//245 246//246 250//250
f 245//245 250//250 249//249
f 247//247 251//251 252//252
f 247//247 252//252 248//248
f 249//249 250//250 252//252
f 249//249 252//252 251//251
