# Mesh2Param deterministic OBJ
o Mesh2Param_result
v 0 0 0
v 0 0 45
v 0 6 6
v 0 6 45
v 0 40 0
v 0 40 6
v 11 25 0
v 11 25 6
v 11.001242999999999 0 27.099722999999997
v 11.001242999999999 6 27.099722999999997
v 11.011184999999999 0 26.701079999999997
v 11.011184999999999 6 26.701079999999997
v 11.019876999999999 24.601728999999999 0
v 11.019876999999999 24.601728999999999 6
v 11.019876999999999 25.398270999999998 0
v 11.019876999999999 25.398270999999998 6
v 11.031043 0 27.497374999999998
v 11.031043 6 27.497374999999998
v 11.060768999999999 0 26.305406999999999
v 11.060768999999999 6 26.305406999999999
v 11.07931 24.207414999999997 0
v 11.07931 24.207414999999997 6
v 11.07931 25.792584999999999 0
v 11.07931 25.792584999999999 6
v 11.100287999999999 0 27.890083999999998
v 11.100287999999999 6 27.890083999999998
v 11.149502999999999 0 25.916637999999999
v 11.149502999999999 6 25.916637999999999
v 11.177709 23.820978999999998 0
v 11.177709 23.820978999999998 6
v 11.177709 26.179020999999999 0
v 11.177709 26.179020999999999 6
v 11.208290999999999 0 28.273947
v 11.208290999999999 6 28.273947
v 11.276505 0 25.538636
v 11.276505 6 25.538636
v 11.314095 23.446261 0
v 11.314095 23.446261 6
v 11.314095 26.553739 0
v 11.314095 26.553739 6
v 11.353976999999999 0 28.645147999999999
v 11.353976999999999 6 28.645147999999999
v 11.440512999999999 0 25.175156999999999
v 11.440512999999999 6 25.175156999999999
v 11.487114 23.086983999999998 0
v 11.487114 23.086983999999998 6
v 11.487114 26.913015999999999 0
v 11.487114 26.913015999999999 6
v 11.535898 0 29
v 11.535898 6 29
v 11.639896 0 24.829815
v 11.639896 6 24.829815
v 11.695045 22.74672 0
v 11.695045 22.74672 6
v 11.695045 27.25328 0
v 11.695045 27.25328 6
v 11.752248 0 29.334975
v 11.752248 6 29.334975
v 11.872674 0 24.506041
v 11.872674 6 24.506041
v 11.935822 22.428850000000001 0
v 11.935822 22.428850000000001 6
v 11.935822 27.571149999999999 0
v 11.935822 27.571149999999999 6
v 12.000874999999999 0 29.646742999999997
v 12.000874999999999 6 29.646742999999997
v 12.136533 0 24.207052999999998
v 12.136533 6 24.207052999999998
v 12.207053 22.136533 0
v 12.207053 22.136533 6
v 12.207053 27.863467 0
v 12.207053 27.863467 6
v 12.279309 0 29.932206999999998
v 12.279309 6 29.932206999999998
v 12.428849999999999 0 23.935821999999998
v 12.428849999999999 6 23.935821999999998
v 12.506041 21.872674 0
v 12.506041 21.872674 6
v 12.506041 28.127326 0
v 12.506041 28.127326 6
v 12.584781999999999 0 30.18853
v 12.584781999999999 6 30.18853
v 12.74672 0 23.695045
v 12.74672 6 23.695045
v 12.829815 21.639896 0
v 12.829815 21.639896 6
v 12.829815 28.360104 0
v 12.829815 28.360104 6
v 12.914258999999999 0 30.413163999999998
v 12.914258999999999 6 30.413163999999998
v 13.086983999999999 0 23.487113999999998
v 13.086983999999999 6 23.487113999999998
v 13.175156999999999 21.440512999999999 0
v 13.175156999999999 21.440512999999999 6
v 13.175156999999999 28.559486999999997 0
v 13.175156999999999 28.559486999999997 6
v 13.264465 0 30.603874999999999
v 13.264465 6 30.603874999999999
v 13.446261 0 23.314094999999998
v 13.446261 6 23.314094999999998
v 13.538635999999999 21.276505 0
v 13.538635999999999 21.276505 6
v 13.538635999999999 28.723495 0
v 13.538635999999999 28.723495 6
v 13.631919 0 30.758769999999998
v 13.631919 6 30.758769999999998
v 13.820978999999999 0 23.177709
v 13.820978999999999 6 23.177709
v 13.916637999999999 21.149502999999999 0
v 13.916637999999999 21.149502999999999 6
v 13.916637999999999 28.850496999999997 0
v 13.916637999999999 28.850496999999997 6
v 14.012969999999999 0 30.876308999999999
v 14.012969999999999 6 30.876308999999999
v 14.207414999999999 0 23.07931
v 14.207414999999999 6 23.07931
v 14.305406999999999 21.060769000000001 0
v 14.305406999999999 21.060769000000001 6
v 14.305406999999999 28.939230999999999 0
v 14.305406999999999 28.939230999999999 6
v 14.403830999999998 0 30.955323
v 14.403830999999998 6 30.955323
v 14.601728999999999 0 23.019876999999997
v 14.601728999999999 6 23.019876999999997
v 14.701079999999999 21.011184999999998 0
v 14.701079999999999 21.011184999999998 6
v 14.701079999999999 28.988814999999999 0
v 14.701079999999999 28.988814999999999 6
v 14.800616 0 30.995027999999998
v 14.800616 6 30.995027999999998
v 15 0 23
v 15 6 23
v 15.099722999999999 21.001242999999999 0
v 15.099722999999999 21.001242999999999 6
v 15.099722999999999 28.998756999999998 0
v 15.099722999999999 28.998756999999998 6
v 15.199383999999998 0 30.995027999999998
v 15.199383999999998 6 30.995027999999998
v 15.398270999999999 0 23.019876999999997
v 15.398270999999999 6 23.019876999999997
v 15.497375 21.031043 0
v 15.497375 21.031043 6
v 15.497375 28.968957 0
v 15.497375 28.968957 6
v 15.596169 0 30.955323
v 15.596169 6 30.955323
v 15.792584999999999 0 23.07931
v 15.792584999999999 6 23.07931
v 15.890084 21.100287999999999 0
v 15.890084 21.100287999999999 6
v 15.890084 28.899711999999997 0
v 15.890084 28.899711999999997 6
v 15.987029999999999 0 30.876308999999999
v 15.987029999999999 6 30.876308999999999
v 16.179020999999999 0 23.177709
v 16.179020999999999 6 23.177709
v 16.273947 21.208290999999999 0
v 16.273947 21.208290999999999 6
v 16.273947 28.791708999999997 0
v 16.273947 28.791708999999997 6
v 16.368081 0 30.758769999999998
v 16.368081 6 30.758769999999998
v 16.553739 0 23.314094999999998
v 16.553739 6 23.314094999999998
v 16.645147999999999 21.353977 0
v 16.645147999999999 21.353977 6
v 16.645147999999999 28.646023 0
v 16.645147999999999 28.646023 6
v 16.735534999999999 0 30.603874999999999
v 16.735534999999999 6 30.603874999999999
v 16.913015999999999 0 23.487113999999998
v 16.913015999999999 6 23.487113999999998
v 17 21.535898 0
v 17 21.535898 6
v 17 28.464102 0
v 17 28.464102 6
v 17.085740999999999 0 30.413163999999998
v 17.085740999999999 6 30.413163999999998
v 17.25328 0 23.695045
v 17.25328 6 23.695045
v 17.334975 21.752247999999998 0
v 17.334975 21.752247999999998 6
v 17.334975 28.247751999999998 0
v 17.334975 28.247751999999998 6
v 17.415217999999999 0 30.18853
v 17.415217999999999 6 30.18853
v 17.571149999999999 0 23.935821999999998
v 17.571149999999999 6 23.935821999999998
v 17.646743000000001 22.000875000000001 0
v 17.646743000000001 22.000875000000001 6
v 17.646743000000001 27.999124999999999 0
v 17.646743000000001 27.999124999999999 6
v 17.720690999999999 0 29.932206999999998
v 17.720690999999999 6 29.932206999999998
v 17.863467 0 24.207052999999998
v 17.863467 6 24.207052999999998
v 17.932206999999998 22.279308999999998 0
v 17.932206999999998 22.279308999999998 6
v 17.932206999999998 27.720690999999999 0
v 17.932206999999998 27.720690999999999 6
v 17.999124999999999 0 29.646742999999997
v 17.999124999999999 6 29.646742999999997
v 18.127326 0 24.506041
v 18.127326 6 24.506041
v 18.18853 22.584782000000001 0
v 18.18853 22.584782000000001 6
v 18.18853 27.415217999999999 0
v 18.18853 27.415217999999999 6
v 18.247751999999998 0 29.334975
v 18.247751999999998 6 29.334975
v 18.360104 0 24.829815
v 18.360104 6 24.829815
v 18.413163999999998 22.914258999999998 0
v 18.413163999999998 22.914258999999998 6
v 18.413163999999998 27.085740999999999 0
v 18.413163999999998 27.085740999999999 6
v 18.464102 0 29
v 18.464102 6 29
v 18.559487000000001 0 25.175156999999999
v 18.559487000000001 6 25.175156999999999
v 18.603874999999999 23.264464999999998 0
v 18.603874999999999 23.264464999999998 6
v 18.603874999999999 26.735534999999999 0
v 18.603874999999999 26.735534999999999 6
v 18.646023 0 28.645147999999999
v 18.646023 6 28.645147999999999
v 18.723495 0 25.538636
v 18.723495 6 25.538636
v 18.758769999999998 23.631919 0
v 18.758769999999998 23.631919 6
v 18.758769999999998 26.368081 0
v 18.758769999999998 26.368081 6
v 18.791709000000001 0 28.273947
v 18.791709000000001 6 28.273947
v 18.850497000000001 0 25.916637999999999
v 18.850497000000001 6 25.916637999999999
v 18.876308999999999 24.012969999999999 0
v 18.876308999999999 24.012969999999999 6
v 18.876308999999999 25.987029999999997 0
v 18.876308999999999 25.987029999999997 6
v 18.899711999999997 0 27.890083999999998
v 18.899711999999997 6 27.890083999999998
v 18.939230999999999 0 26.305406999999999
v 18.939230999999999 6 26.305406999999999
v 18.955323 24.403831 0
v 18.955323 24.403831 6
v 18.955323 25.596169 0
v 18.955323 25.596169 6
v 18.968957 0 27.497374999999998
v 18.968957 6 27.497374999999998
v 18.988814999999999 0 26.701079999999997
v 18.988814999999999 6 26.701079999999997
v 18.995027999999998 24.800615999999998 0
v 18.995027999999998 24.800615999999998 6
v 18.995027999999998 25.199383999999998 0
v 18.995027999999998 25.199383999999998 6
v 18.998756999999998 0 27.099722999999997
v 18.998756999999998 6 27.099722999999997
v 41 25 0
v 41 25 6
v 41.001242999999995 0 27.099722999999997
v 41.001242999999995 6 27.099722999999997
v 41.011184999999998 0 26.701079999999997
v 41.011184999999998 6 26.701079999999997
v 41.019877000000001 24.601728999999999 0
v 41.019877000000001 24.601728999999999 6
v 41.019877000000001 25.398270999999998 0
v 41.019877000000001 25.398270999999998 6
v 41.031042999999997 0 27.497374999999998
v 41.031042999999997 6 27.497374999999998
v 41.060769000000001 0 26.305406999999999
v 41.060769000000001 6 26.305406999999999
v 41.07931 24.207414999999997 0
v 41.07931 24.207414999999997 6
v 41.07931 25.792584999999999 0
v 41.07931 25.792584999999999 6
v 41.100287999999999 0 27.890083999999998
v 41.100287999999999 6 27.890083999999998
v 41.149502999999996 0 25.916637999999999
v 41.149502999999996 6 25.916637999999999
v 41.177709 23.820978999999998 0
v 41.177709 23.820978999999998 6
v 41.177709 26.179020999999999 0
v 41.177709 26.179020999999999 6
v 41.208290999999996 0 28.273947
v 41.208290999999996 6 28.273947
v 41.276505 0 25.538636
v 41.276505 6 25.538636
v 41.314094999999995 23.446261 0
v 41.314094999999995 23.446261 6
v 41.314094999999995 26.553739 0
v 41.314094999999995 26.553739 6
v 41.353977 0 28.645147999999999
v 41.353977 6 28.645147999999999
v 41.440512999999996 0 25.175156999999999
v 41.440512999999996 6 25.175156999999999
v 41.487113999999998 23.086983999999998 0
v 41.487113999999998 23.086983999999998 6
v 41.487113999999998 26.913015999999999 0
v 41.487113999999998 26.913015999999999 6
v 41.535897999999996 0 29
v 41.535897999999996 6 29
v 41.639896 0 24.829815
v 41.639896 6 24.829815
v 41.695045 22.74672 0
v 41.695045 22.74672 6
v 41.695045 27.25328 0
v 41.695045 27.25328 6
v 41.752248000000002 0 29.334975
v 41.752248000000002 6 29.334975
v 41.872673999999996 0 24.506041
v 41.872673999999996 6 24.506041
v 41.935821999999995 22.428850000000001 0
v 41.935821999999995 22.428850000000001 6
v 41.935821999999995 27.571149999999999 0
v 41.935821999999995 27.571149999999999 6
v 42.000875000000001 0 29.646742999999997
v 42.000875000000001 6 29.646742999999997
v 42.136533 0 24.207052999999998
v 42.136533 6 24.207052999999998
v 42.207052999999995 22.136533 0
v 42.207052999999995 22.136533 6
v 42.207052999999995 27.863467 0
v 42.207052999999995 27.863467 6
v 42.279308999999998 0 29.932206999999998
v 42.279308999999998 6 29.932206999999998
v 42.428849999999997 0 23.935821999999998
v 42.428849999999997 6 23.935821999999998
v 42.506040999999996 21.872674 0
v 42.506040999999996 21.872674 6
v 42.506040999999996 28.127326 0
v 42.506040999999996 28.127326 6
v 42.584781999999997 0 30.18853
v 42.584781999999997 6 30.18853
v 42.746719999999996 0 23.695045
v 42.746719999999996 6 23.695045
v 42.829814999999996 21.639896 0
v 42.829814999999996 21.639896 6
v 42.829814999999996 28.360104 0
v 42.829814999999996 28.360104 6
v 42.914259000000001 0 30.413163999999998
v 42.914259000000001 6 30.413163999999998
v 43.086984000000001 0 23.487113999999998
v 43.086984000000001 6 23.487113999999998
v 43.175156999999999 21.440512999999999 0
v 43.175156999999999 21.440512999999999 6
v 43.175156999999999 28.559486999999997 0
v 43.175156999999999 28.559486999999997 6
v 43.264465000000001 0 30.603874999999999
v 43.264465000000001 6 30.603874999999999
v 43.446261 0 23.314094999999998
v 43.446261 6 23.314094999999998
v 43.538635999999997 21.276505 0
v 43.538635999999997 21.276505 6
v 43.538635999999997 28.723495 0
v 43.538635999999997 28.723495 6
v 43.631918999999996 0 30.758769999999998
v 43.631918999999996 6 30.758769999999998
v 43.820979000000001 0 23.177709
v 43.820979000000001 6 23.177709
v 43.916637999999999 21.149502999999999 0
v 43.916637999999999 21.149502999999999 6
v 43.916637999999999 28.850496999999997 0
v 43.916637999999999 28.850496999999997 6
v 44.012969999999996 0 30.876308999999999
v 44.012969999999996 6 30.876308999999999
v 44.207414999999997 0 23.07931
v 44.207414999999997 6 23.07931
v 44.305406999999995 21.060769000000001 0
v 44.305406999999995 21.060769000000001 6
v 44.305406999999995 28.939230999999999 0
v 44.305406999999995 28.939230999999999 6
v 44.403830999999997 0 30.955323
v 44.403830999999997 6 30.955323
v 44.601728999999999 0 23.019876999999997
v 44.601728999999999 6 23.019876999999997
v 44.701079999999997 21.011184999999998 0
v 44.701079999999997 21.011184999999998 6
v 44.701079999999997 28.988814999999999 0
v 44.701079999999997 28.988814999999999 6
v 44.800615999999998 0 30.995027999999998
v 44.800615999999998 6 30.995027999999998
v 45 0 23
v 45 6 23
v 45.099722999999997 21.001242999999999 0
v 45.099722999999997 21.001242999999999 6
v 45.099722999999997 28.998756999999998 0
v 45.099722999999997 28.998756999999998 6
v 45.199383999999995 0 30.995027999999998
v 45.199383999999995 6 30.995027999999998
v 45.398271000000001 0 23.019876999999997
v 45.398271000000001 6 23.019876999999997
v 45.497374999999998 21.031043 0
v 45.497374999999998 21.031043 6
v 45.497374999999998 28.968957 0
v 45.497374999999998 28.968957 6
v 45.596168999999996 0 30.955323
v 45.596168999999996 6 30.955323
v 45.792584999999995 0 23.07931
v 45.792584999999995 6 23.07931
v 45.890083999999995 21.100287999999999 0
v 45.890083999999995 21.100287999999999 6
v 45.890083999999995 28.899711999999997 0
v 45.890083999999995 28.899711999999997 6
v 45.987029999999997 0 30.876308999999999
v 45.987029999999997 6 30.876308999999999
v 46.179020999999999 0 23.177709
v 46.179020999999999 6 23.177709
v 46.273947 21.208290999999999 0
v 46.273947 21.208290999999999 6
v 46.273947 28.791708999999997 0
v 46.273947 28.791708999999997 6
v 46.368080999999997 0 30.758769999999998
v 46.368080999999997 6 30.758769999999998
v 46.553739 0 23.314094999999998
v 46.553739 6 23.314094999999998
v 46.645147999999999 21.353977 0
v 46.645147999999999 21.353977 6
v 46.645147999999999 28.646023 0
v 46.645147999999999 28.646023 6
v 46.735534999999999 0 30.603874999999999
v 46.735534999999999 6 30.603874999999999
v 46.913015999999999 0 23.487113999999998
v 46.913015999999999 6 23.487113999999998
v 47 21.535898 0
v 47 21.535898 6
v 47 28.464102 0
v 47 28.464102 6
v 47.085740999999999 0 30.413163999999998
v 47.085740999999999 6 30.413163999999998
v 47.253279999999997 0 23.695045
v 47.253279999999997 6 23.695045
v 47.334975 21.752247999999998 0
v 47.334975 21.752247999999998 6
v 47.334975 28.247751999999998 0
v 47.334975 28.247751999999998 6
v 47.415217999999996 0 30.18853
v 47.415217999999996 6 30.18853
v 47.571149999999996 0 23.935821999999998
v 47.571149999999996 6 23.935821999999998
v 47.646743000000001 22.000875000000001 0
v 47.646743000000001 22.000875000000001 6
v 47.646743000000001 27.999124999999999 0
v 47.646743000000001 27.999124999999999 6
v 47.720690999999995 0 29.932206999999998
v 47.720690999999995 6 29.932206999999998
v 47.863467 0 24.207052999999998
v 47.863467 6 24.207052999999998
v 47.932206999999998 22.279308999999998 0
v 47.932206999999998 22.279308999999998 6
v 47.932206999999998 27.720690999999999 0
v 47.932206999999998 27.720690999999999 6
v 47.999124999999999 0 29.646742999999997
v 47.999124999999999 6 29.646742999999997
v 48.127325999999996 0 24.506041
v 48.127325999999996 6 24.506041
v 48.18853 22.584782000000001 0
v 48.18853 22.584782000000001 6
v 48.18853 27.415217999999999 0
v 48.18853 27.415217999999999 6
v 48.247751999999998 0 29.334975
v 48.247751999999998 6 29.334975
v 48.360104 0 24.829815
v 48.360104 6 24.829815
v 48.413163999999995 22.914258999999998 0
v 48.413163999999995 22.914258999999998 6
v 48.413163999999995 27.085740999999999 0
v 48.413163999999995 27.085740999999999 6
v 48.464101999999997 0 29
v 48.464101999999997 6 29
v 48.559486999999997 0 25.175156999999999
v 48.559486999999997 6 25.175156999999999
v 48.603874999999995 23.264464999999998 0
v 48.603874999999995 23.264464999999998 6
v 48.603874999999995 26.735534999999999 0
v 48.603874999999995 26.735534999999999 6
v 48.646023 0 28.645147999999999
v 48.646023 6 28.645147999999999
v 48.723495 0 25.538636
v 48.723495 6 25.538636
v 48.758769999999998 23.631919 0
v 48.758769999999998 23.631919 6
v 48.758769999999998 26.368081 0
v 48.758769999999998 26.368081 6
v 48.791708999999997 0 28.273947
v 48.791708999999997 6 28.273947
v 48.850496999999997 0 25.916637999999999
v 48.850496999999997 6 25.916637999999999
v 48.876308999999999 24.012969999999999 0
v 48.876308999999999 24.012969999999999 6
v 48.876308999999999 25.987029999999997 0
v 48.876308999999999 25.987029999999997 6
v 48.899712000000001 0 27.890083999999998
v 48.899712000000001 6 27.890083999999998
v 48.939230999999999 0 26.305406999999999
v 48.939230999999999 6 26.305406999999999
v 48.955323 24.403831 0
v 48.955323 24.403831 6
v 48.955323 25.596169 0
v 48.955323 25.596169 6
v 48.968956999999996 0 27.497374999999998
v 48.968956999999996 6 27.497374999999998
v 48.988814999999995 0 26.701079999999997
v 48.988814999999995 6 26.701079999999997
v 48.995027999999998 24.800615999999998 0
v 48.995027999999998 24.800615999999998 6
v 48.995027999999998 25.199383999999998 0
v 48.995027999999998 25.199383999999998 6
v 48.998756999999998 0 27.099722999999997
v 48.998756999999998 6 27.099722999999997
v 60 0 0
v 60 0 45
v 60 6 6
v 60 6 45
v 60 40 0
v 60 40 6
vn -0.15355318969427428 -0.81043833624239459 -0.56534159680972862
vn -0.25592961402546494 -0.94925322332006867 0.18280686716104638
vn -0.4043999826495196 0.68475483462674802 0.60627672764865637
vn -0.11996763679174702 0.92160182866406881 0.36913119012845236
vn -0.2530188861559079 0.41030089646903983 -0.87614760035345984
vn -0.13396028182262451 0.23640049733404325 0.96237697798431354
vn 0.6332026555669783 0.010534007568300946 -0.77391435680408316
vn 0.63320265556697708 -0.010534007568300958 0.77391435680408394
vn 0.46419548195073196 -0.88565712798377383 -0.011576104183221183
vn 0.72344570996879598 0.69014550405636022 -0.018041284836098546
vn 0.68234617776970485 -0.72994855310426077 0.039734160417337294
vn 0.016260914652992346 0.99986667095514115 0.0014909620154371084
vn 0.68572744802176311 0.080158365051182151 -0.72343106343443786
vn 0.018593742038119133 0.0015486822013198022 0.99982592201865772
vn 0.58483487129282496 -0.048711192939298202 -0.80968845428493996
vn 0.5828913747610559 -0.068137304023740061 0.80968818259225106
vn 0.56237838387936856 -0.82462748737556901 -0.060992297955441734
vn 0.56003846566384496 0.82462746642010976 -0.079664663448965667
vn 0.013941961925141544 -0.99990034193273136 0.0022198874937255637
vn 0.51990955435806818 0.8482747265236189 0.10061830662694816
vn 0.01033441747635969 0.0020891473315770848 -0.99994441609464035
vn 0.62576188225777007 0.12650047953955654 0.76968805069942137
vn 0.64650223851952437 -0.1306932325456471 -0.75163430905994
vn 0.39382359762399421 -0.079613148972386166 0.91573179504983615
vn 0.5127683296880774 -0.85169480558378208 -0.10809532002127956
vn 0.50888903398195162 0.8516947510238746 -0.12509197484769477
vn 0.43731373494699605 -0.89189659398255206 0.11522657188787316
vn 0.46689469577036458 0.87319492920639319 0.13978540220545449
vn 0.43527204323788188 0.12637412355821434 -0.8913853427504923
vn 0.46752619606193258 0.1527744021496299 0.87067745924864881
vn 0.49503101410903033 -0.16176220255263152 -0.85368453476416362
vn 0.5001378436396382 -0.14520684852188465 0.85368443145101069
vn 0.56985689833972042 -0.79912779567469927 -0.19146248090612841
vn 0.33372272013435672 0.93597919928503681 -0.11212530745495029
vn 0.38726116285794382 -0.91055970010514498 0.1446022969608072
vn 0.42036981793368494 0.89068700010049962 0.17310656839754265
vn 0.48235077342898319 0.20332800775590362 -0.8520536676961592
vn 0.30347073068148117 0.12792370714583021 0.94421450993390044
vn 0.45616937061709845 -0.20129213265370677 -0.8668281159737049
vn 0.46261224951925684 -0.18600699849775248 0.86682830082121209
vn 0.30217000400621113 -0.94345301312223306 -0.13634405271028824
vn 0.52409047823070298 0.81817310500691742 -0.2364782037974171
vn 0.34427731692104746 -0.92347214934273658 0.16932902421602428
vn 0.37884736178525408 0.90308872129320694 0.20225092815943563
vn 0.23989607701226418 0.13064053506202228 -0.961968254586831
vn 0.48231301886797062 0.26265386094275189 0.83569557924062876
vn 0.41970843757082837 -0.23769680317477507 -0.87598233840206285
vn 0.42738280564526654 -0.22360483620461977 0.87598219997023086
vn 0.48056261475711382 -0.83191330192646351 -0.27745239479163725
vn 0.27399329120289778 0.94863252608822513 -0.15818978103302631
vn 0.30650696439929348 -0.93254681185192045 0.19081384771433452
vn 0.34109223203860761 0.91185304654658828 0.22842966258046715
vn 0.31061058976930422 0.20428629369803158 -0.92832546648806669
vn 0.34823340981572071 0.24600484482316975 0.90455243552358244
vn 0.3849578679164174 -0.27194834812188368 -0.88195891961191986
vn 0.39379056471522245 -0.25899314964977754 0.88195892170540124
vn 0.34809763368482594 -0.90092519782598357 -0.25915598651244215
vn 0.35652553987729568 0.90092503702927251 -0.24743406610450128
vn 0.27255610481303588 -0.9389345576291811 0.21003586888633929
vn 0.30609145656403902 0.91789441279677564 0.25254280265920759
vn 0.34767093446376718 0.29173073141991634 -0.89107693364506491
vn 0.22315304030318955 0.18724774841082401 0.95663002321614377
vn 0.25319956302242763 -0.21245978997256107 -0.94379596255232345
vn 0.43947603159576476 -0.36876440170846692 0.81906876004730811
vn 0.31412831511247441 -0.90507049170520315 -0.2866545075331971
vn 0.32348924937375501 0.90507058054410994 -0.27604700645569874
vn 0.24135610632010332 -0.94334451883469328 0.22770232481584365
vn 0.27300208035296802 0.92178460666148243 0.27528712836761515
vn 0.23776325818826569 0.25202032640076039 -0.93805884044475285
vn 0.29050551120762103 0.28809414150223084 0.91247373309596769
vn 0.39933781571789151 -0.40942077677001526 -0.8203072207939538
vn 0.22984211599224474 -0.23564544593614539 0.94426893707553605
vn 0.28113228196806594 -0.90709375588239571 -0.31328191469441152
vn 0.29139712996834738 0.90709376371693573 -0.30375749615779696
vn 0.26661497595827732 -0.90992212863216226 0.31773916098001193
vn 0.17109128035764137 0.96392591313114628 0.20389852324102065
vn 0.20752789477152225 0.26930159566975964 -0.94043012683634353
vn 0.25895758093919491 0.3138664111720546 0.91347076976337616
vn 0.20664714179336544 -0.25912686190823453 -0.9434777306466875
vn 0.35843232809869807 -0.44945912912529967 0.81823759227969606
vn 0.24845901264698081 -0.90715938656161021 -0.33960265960037822
vn 0.25961764087360911 0.90715943606995553 -0.3311501745378706
vn 0.1751995145524067 -0.94781016517346051 0.26638509885963702
vn 0.22019813303388189 0.92431286860660478 0.31170258763222097
vn 0.17815840067941244 0.28617834202594672 -0.94146775878021138
vn 0.22743774884840437 0.33961110185158622 0.91265347744799696
vn 0.26354140937426335 -0.39352125526343523 -0.88073091645571133
vn 0.25030569171161249 -0.40206954923549365 0.88073102493005095
vn 0.21546090953051911 -0.90527273736278968 -0.36613913673897686
vn 0.2275209580428886 0.90527263446843098 -0.3587696627835647
vn 0.10416775550158672 -0.9759915645681263 0.19128393713436165
vn 0.23212558013474169 0.87431428457458227 0.4262537352750661
vn 0.14903587192812753 0.30301757392132178 -0.94125908164195626
vn 0.19530506627092506 0.36583668501984151 0.90995574122184797
vn 0.22883173026430476 -0.42863732736517812 -0.87401720853395193
vn 0.21444771414264741 -0.43601198310038386 0.87401700698090778
vn 0.18145525262461545 -0.90128044237980087 -0.39340507810475339
vn 0.19444024336759866 0.90128043797006929 -0.38715186153708353
vn 0.15920279826368416 -0.91214978164000438 0.37767346329746959
vn 0.10588349883131838 0.96213028060698702 0.25118520620123791
vn 0.11955026619083266 0.32016901583234858 -0.93978696264347406
vn 0.16186194457464337 0.39306351458007888 0.90515290664311032
vn 0.22416513116493203 -0.57116314085875064 -0.78963451070363921
vn 0.13230740176602729 -0.33711358568047739 0.93212079785163815
vn 0.10791480851475452 -0.94891848729038164 -0.29649299921205191
vn 0.18939265049619203 0.83268547610030152 -0.52035115242463092
vn 0.090526355467933764 -0.94582506215269035 0.31180110771059311
vn 0.12493567120276745 0.91553947871696661 0.38233302364794391
vn 0.08905675201323042 0.33799270608391246 -0.93692573107740396
vn 0.12629958797861995 0.42185097138061295 0.89782524581438683
vn 0.10354435677607743 -0.36801836499031132 -0.92403519911834864
vn 0.17266526972335816 -0.61368858943824534 0.77043690190998559
vn 0.14149561037514549 -0.8192617089095785 -0.5556880820740373
vn 0.081508402155872295 0.9438697449859379 -0.32010355336699559
vn 0.045489995419409859 -0.97329026004287789 0.22502606520669843
vn 0.10363264064476067 0.8523258102781851 0.51264118926070423
vn 0.056823861291572068 0.35688119907239912 -0.93241989389789559
vn 0.087635426182574985 0.45282510608620397 0.88728206077651361
vn 0.10607480451822371 -0.54810407961007868 -0.82965658784897811
vn 0.087784576908485082 -0.55132939499503097 0.82965641459064943
vn 0.052233403678764209 -0.93657807662503323 -0.34654462616737336
vn 0.089302075262299704 0.80062144142630587 -0.59247822481700596
vn 0.040243349754299045 -0.938008494263604 0.34426811860798195
vn 0.036491734947200614 0.89817257780029625 0.43812597933484132
vn 0.021970062027657427 0.37728714266211749 -0.92583569187861614
vn 0.044625186871336597 0.48669674181864814 0.87243044089475152
vn 0.054558851392247316 -0.59503650453130286 -0.80184467947971538
vn 0.034736460061308046 -0.59652174610295094 0.8018448632801084
vn 0.031489277851767451 -0.77519403194905767 -0.630937903609331
vn 0.018809116679150192 0.92607490489606836 -0.37687065108799317
vn 0.0060620639065199107 -0.93122566860558553 0.36439265293262074
vn -0.0077835799344102017 0.88376114418647889 0.46787354692225364
vn -0.0069658471450165221 0.27932668205963085 -0.9601708606613254
vn -0.015816807931635112 0.63424539590691942 0.77296999059324989
vn -0.0053648961890627135 -0.64650245284045105 -0.76289304385356738
vn -0.026866680815665553 -0.64596626847281835 0.76289302097820511
vn -0.020587997371467211 -0.9107188698032026 -0.41251336287277995
vn -0.033488889546039236 0.74069767661330388 -0.67100331305935212
vn -0.03221714125886261 -0.92159880097472036 0.38680448013313423
vn -0.058582793092807159 0.86337183470466172 0.50115579552884715
vn -0.046279994427593445 0.42672385439798088 -0.90319705170218123
vn -0.080222417432974924 0.56395944733751446 0.82189665134977574
vn -0.076168860239403599 -0.70231360285300848 -0.70778097458002998
vn -0.099487422730183281 -0.69939143864398512 0.70778094652936396
vn -0.10732390767408882 -0.69388311837254235 -0.71204479976976176
vn -0.068644926322382546 0.88762246118863397 -0.45542753593038993
vn -0.10387698345414492 -0.85156788890267499 0.5138498836219666
vn -0.079923508809908825 0.91504295254419998 0.39535885944127441
vn -0.096366749862938902 0.45713188466401977 -0.88416281845844158
vn -0.14965219959154266 0.60880294979864213 0.77907842190236865
vn -0.16033070434258315 -0.7605556600162946 -0.629165441884875
vn -0.18554071433662764 -0.75480169689579579 0.62916535321541767
vn -0.17837310596520362 -0.73448013206599039 -0.65476863903874605
vn -0.15649470756919645 0.73448004238570608 -0.6603396655055056
vn -0.14285155185602705 -0.88796658405221451 0.43715990179677544
vn -0.17051104727849517 0.79120946334896192 0.58729342569369747
vn -0.19959920706440809 0.59407453883644634 -0.77925323152716108
vn -0.17353872287983158 0.51650975112258024 0.83851177013595191
vn -0.0069767541138976942 -0.021969005763686222 -0.99973430854792078
vn -0.0077036295399726864 -0.021724765756087439 0.99973430902653038
vn -0.004085140369373773 -0.99992866629218324 -0.011223811977132478
vn -0.008168532912867274 0.99971475672686283 -0.022442821850230537
vn -0.20718587647090153 -0.85826541925098621 0.46952580622252638
vn -0.0017621427758390189 0.99998884390093912 0.0043825707639428011
vn -0.0010557665376264662 0.0023398232087327438 -0.99999670528675744
vn -0.0029266117530646518 0.006486049575094085 0.99997468273179602
vn -0.1898780166967356 -0.44020176366978209 -0.87759258545029173
vn -0.20441492288489282 -0.43364272860548797 0.87759245850767786
vn -0.31312209400932178 -0.69223284278555985 -0.65020631003723717
vn -0.13933294635054219 0.94703501581313398 -0.28932854834097183
vn -0.005646513094863078 -0.99993435365652827 0.0099702190232051433
vn -0.19701140339636028 0.90520363614065968 0.37655395901454114
vn -0.26201833371007821 0.45382998282130382 -0.85169521513990509
vn -0.14702151365649177 0.25464924561697316 0.95579204653986349
vn -0.20345972078913474 -0.36634441297755371 -0.90796250643764953
vn -0.21553314810112309 -0.35937399021563898 0.90796244262970982
vn -0.16984515970113118 -0.94837945548527336 -0.26782275881551526
vn -0.28181739234796394 0.83140428980777537 -0.47890068308514888
vn -0.17262756046406327 -0.9541939258192107 0.24436382158156902
vn -0.2091010469598488 0.92476832974808798 0.3179312637272822
vn -0.2245045619434837 0.30155393211502418 -0.9266406680545225
vn -0.21434997447798021 0.30885496721042033 0.92664054393855411
vn -0.27771244966778763 -0.38627412288240875 -0.87958404788339717
vn -0.15239146035949225 -0.21196340947461698 0.96532292827498778
vn -0.15179358578962029 -0.96788459292368856 -0.20039491533987316
vn -0.22179641469533512 0.93009026782171578 -0.29281127732999623
vn -0.22596744082218384 -0.93617180895426644 0.26929734459806565
vn -0.28514710831996382 0.89621993710118442 0.33982488278392986
vn -0.23218463225342748 0.25443788745004153 -0.93880331165548236
vn -0.22359275305445833 0.26202005513363846 0.93880337211222942
vn -0.15719613975239782 -0.17812466666401766 -0.97137066909227665
vn -0.29074063042425452 -0.329448789019749 0.89829470733937211
vn -0.39684094380397472 -0.81215542880344005 -0.42769244181522664
vn -0.15691835311716748 0.97302408142945918 -0.16911761414280041
vn -0.23364457558031096 -0.94523865894359604 0.22789052183100672
vn -0.15928646528951368 0.97493074424069237 0.15536365697891585
vn -0.23893879725932102 0.21441840774543661 -0.9470654663665975
vn -0.23167456250715329 0.22224736329202133 0.94706547112481265
vn -0.30188288469717556 -0.2801066307672771 -0.91126670043797608
vn -0.16156594339412478 -0.14991142043796801 0.97540915105274528
vn -0.16382182386492353 -0.97583852608926536 -0.14457379093563419
vn -0.30268124144587188 0.91489452184628939 -0.26711810116956741
vn -0.24043580891746508 -0.95153865906778512 0.19174149808970803
vn -0.42441777204351977 0.83982897454650396 0.33846247692437381
vn -0.24490547644517138 0.17917696210332668 -0.95284674730965346
vn -0.23880993523811697 0.18722403540997917 0.95284677435376219
vn -0.16552901843841017 -0.12538363669750763 -0.97820196672431803
vn -0.31152105742051794 -0.23596855376612347 0.92047459085904515
vn -0.31528005173337353 -0.92153062000570496 -0.22667113925443308
vn -0.16567141026006474 0.97896161922179326 -0.11910974734708321
vn -0.18627826739508899 -0.97454485756901932 0.12475066205060305
vn -0.25002286539886309 0.95564722993041618 0.15565005205287982
vn -0.25010908831810469 0.14718102011936954 -0.95696561654915702
vn -0.24507502670730433 0.15541923036695274 0.95696556579458913
vn -0.24507502670730433 -0.15541923036695163 -0.95696556579458936
vn -0.25010908831810386 -0.14718102011936854 0.95696561654915746
vn -0.25227731812659182 -0.95745784686702784 -0.14010933670390935
vn -0.35224636921436037 0.91175237320691205 -0.21125838522260912
vn -0.24855436866481095 -0.95948596781890849 0.13269289120465305
vn -0.25434614405375211 0.95898836742132632 0.12509736270428456
vn -0.25451679253200299 0.11739403341866336 -0.95991658139492464
vn -0.25047122110431308 0.125794785009544 0.95991657942912778
vn -0.32682786806285347 -0.1573916230105214 -0.93188594884975262
vn -0.17212832237188652 -0.082892429537188006 0.98158070771733397
vn -0.19497882242624406 -0.97719495557230374 -0.084102780033232696
vn -0.19207364755454787 0.97719492784120288 -0.090541630847459725
vn -0.33068922992277205 -0.93477281759196251 0.12978602661406813
vn -0.17452478454884338 0.98226747995928199 0.06849596625073183
vn -0.17466679924081796 0.063573623134612317 -0.98257310348111304
vn -0.33252524100691783 0.12102949413628317 0.93529611655475542
vn -0.17466679924081749 -0.063573623134612137 -0.98257310348111315
vn -0.33252524100691694 -0.12102949413628285 0.93529611655475575
vn -0.25846822764619948 -0.96252618186934158 -0.0820824251192636
vn -0.25559472881071749 0.96252624565203126 -0.090634215587610437
vn -0.17600598127279427 -0.98314272717105389 0.049520425754061598
vn -0.33644924021703115 0.93693168412369265 0.094662178521959586
vn -0.33686563475877512 0.085776553685837253 -0.93763741763879505
vn -0.17662643304516426 0.044974628318158578 0.98324991022495667
vn -0.25850218534470332 -0.07042157328490932 -0.96344040925637464
vn -0.26070164943661084 -0.061784003782594944 0.96344039092079936
vn -0.37573668572821911 -0.92333527415320327 -0.079208045692358078
vn -0.37289409979767596 0.92333524239368669 -0.091662535912295659
vn -0.26037783658482661 -0.96419091807339286 0.050391028171622429
vn -0.19963523461075611 0.97935457536029968 0.031786613892569711
vn -0.1779610355486628 0.026823415822973137 -0.98367188339915235
vn -0.33979593571882305 0.051216198257342221 0.93910362745813847
vn -0.33979593571882299 -0.051216198257342214 -0.93910362745813847
vn -0.1779610355486628 -0.026823415822973134 0.98367188339915235
vn -0.26283177742475672 -0.96442050463659468 -0.028505210264780177
vn -0.19920639121183553 0.97954777231114587 -0.028336821639497474
vn -0.37767252526932943 -0.92529147424094793 0.034628764830713338
vn -0.26291164604402018 0.96469843829396029 0.015309785355058492
vn -0.34127368656381502 0.017032519172218045 -0.93980964250734889
vn -0.17863750479691967 0.0089155620404439851 0.98387456244860483
vn -0.17863750479692042 -0.0089155620404439816 -0.98387456244860461
vn -0.34127368656381635 -0.017032519172218038 0.93980964250734855
vn -0.20028050425776525 -0.9797371879159672 -0.00166199541751965
vn -0.37841476353460951 0.9255023264121387 -0.015738822851936143
vn 0.26288399759247955 0.0043733581909018299 -0.96481753588330432
vn 0.26288399759247882 -0.0043733581909018307 0.96481753588330454
vn 0.26308407244309184 -0.96475060345868568 -0.0065607890424713468
vn 0.26286324585312093 0.96481083236898879 -0.0065552820702768173
vn 0.20025468552924552 -0.97967447559871856 0.011661165634650627
vn 0.26242671175543131 0.96465187847504941 0.024061885042330092
vn 0.26191763043683536 0.030616958814269131 -0.96460445608514522
vn 0.26279085486075004 0.021887983535434415 0.96460452143783193
vn 0.2627908548607486 -0.021887983535434422 -0.96460452143783237
vn 0.26191763043683458 -0.030616958814269138 0.96460445608514533
vn 0.2625426543973422 -0.96450017847580483 -0.028473853658021367
vn 0.37650299637459284 0.92486601225943388 -0.053557007835447153
vn 0.26232633216633289 -0.96407483486320122 0.041768507701977091
vn 0.37490881943410703 0.92421802994410418 0.072556255669398342
vn 0.17737430053003744 0.035856984439649908 -0.983490027493098
vn 0.33851011320698038 0.068431288104622151 0.9384711301179911
vn 0.33851011320698127 -0.068431288104622318 -0.93847113011799077
vn 0.17737430053003797 -0.035856984439650012 0.98349002749309788
vn 0.19904809534820023 -0.97909098008816497 -0.04196079656358398
vn 0.19754222834007473 0.97909097063697759 -0.048558616532794655
vn 0.2605742353617298 -0.96300942374134479 0.068657975873258087
vn 0.2574465744893647 0.96321350448262988 0.077077922039860455
vn 0.25950501165053702 0.075343038717461466 -0.96279830465423744
vn 0.2568552237274368 0.083933057814731038 0.96279833602359188
vn 0.25685522372743685 -0.083933057814730525 -0.96279833602359199
vn 0.2595050116505363 -0.075343038717461022 0.96279830465423766
vn 0.3343821786971749 -0.93571723203904023 -0.11234687461130179
vn 0.1755849523623518 0.982695108048799 -0.058993636274346097
vn 0.25788889370828655 -0.96136391920766884 0.096295032829252017
vn 0.25349241439178233 0.96168857816758535 0.10438713746354499
vn 0.32984293872416365 0.13904053087003213 -0.93374052420851228
vn 0.17346671552024284 0.073122390636912254 0.98212138485737188
vn 0.25283352825190991 -0.11156689463683324 -0.96105568777921735
vn 0.25640447937209504 -0.10309503835867677 0.96105575073652605
vn 0.25377735559815784 -0.96046075286076837 -0.11450849750010779
vn 0.45717386569157442 0.86512359267720429 -0.20628433271072466
vn 0.25434614405375211 -0.95898836742132632 0.1250973627042837
vn 0.24855436866481087 0.95948596781890838 0.13269289120465386
vn 0.17065869579937093 0.092935839593063632 -0.98093758173860901
vn 0.32348590313627495 0.17616116110387495 0.9296903332780454
vn 0.24788319839083564 -0.14038565476372536 -0.95856444117862505
vn 0.25241576823135886 -0.13206283866666427 0.95856438833887192
vn 0.32074028724758052 -0.92888877841013096 -0.18517911728938025
vn 0.12852504829756276 0.98892623832545623 -0.074203821408148254
vn 0.35495843110156167 -0.9083907119331468 0.22097698220291725
vn 0.24267115409577728 0.95639893991743097 0.16251701047778849
vn 0.24760357910624642 0.16284704755092361 -0.95507764433983278
vn 0.24204984725052459 0.17099288418031722 0.95507764344355506
vn 0.24204984725052384 -0.17099288418031608 -0.95507764344355528
vn 0.24760357910624642 -0.16284704755092247 0.95507764433983278
vn 0.23938168532949017 -0.95442905555181334 -0.17821780676264268
vn 0.24759101953659296 0.95350537130705104 -0.17183187694206614
vn 0.18657739789510761 -0.97186231867944128 0.14377937308846034
vn 0.18169167844500628 0.97186230759655323 0.14990593402843902
vn 0.30687604434221366 0.25749973321550029 -0.91625377532800489
vn 0.1635988796545679 0.13727584359249725 0.97692924479807564
vn 0.16359887965456854 -0.13727584359249778 -0.97692924479807552
vn 0.30687604434221466 -0.25749973321550113 0.91625377532800434
vn 0.23210237501543979 -0.94935143580406656 -0.21180259405623261
vn 0.24221462308820491 0.94795069328220027 -0.20669194340378802
vn 0.33457205421001168 -0.88793570157655066 0.31564494357973122
vn 0.23163245200631261 0.94434680400853721 0.23357123310974062
vn 0.22776118776231266 0.24141849888275135 -0.94331434301949391
vn 0.23566527224331976 0.23370910936111619 0.94331433343298443
vn 0.29651713019211418 -0.30400395101733518 -0.90535031301065039
vn 0.15943215465436114 -0.16345768928334789 0.97358254497316066
vn 0.17376803955857317 -0.96556114075990185 -0.19363974768215175
vn 0.23615689286499772 0.94001501796225462 -0.246174100907817
vn 0.22601023382032243 -0.93614680696079478 0.26934834327612217
vn 0.15785232212483699 0.96937771275678264 0.18812095686080627
vn 0.21913847922414509 0.28436823971388847 -0.93333436193325359
vn 0.22847615209623826 0.27692176315813405 0.93333433720863757
vn 0.15485315890790471 -0.19417937638114929 -0.96866654167699595
vn 0.28449899674988333 -0.35674982776948028 0.88982575891842763
vn 0.21947445562655638 -0.92835318952823487 -0.29998553101804737
vn 0.3144171268247376 0.86040798821793352 -0.40104858081041161
vn 0.29183131809495444 -0.84731759965135378 0.44371991965656626
vn 0.22555549466181324 0.92042437133389798 0.31928622814406382
vn 0.20915751821228701 0.33597266003730653 -0.91835478127068804
vn 0.22021740217972427 0.32882964670477577 0.91835470229384997
vn 0.22021740217972319 -0.32882964670477588 -0.91835470229385019
vn 0.20915751821228479 -0.33597266003730669 0.91835478127068848
vn 0.28181739234796371 -0.83140428980777481 -0.47890068308515021
vn 0.16984515970113112 0.94837945548527292 -0.26782275881551704
vn 0.0011203100504878249 -0.99999725634565428 0.0020572327419039324
vn 0.26166180744194811 0.83705507874340901 0.48049130447499078
vn 0.005406150203201278 0.010991706208947556 -0.99992497515293444
vn 0.21032792816351406 0.39397683570426961 0.89473147679228016
vn 0.21032792816351278 -0.39397683570426972 -0.89473147679228038
vn 0.19710704008162885 -0.40075517602333199 0.89473130248179389
vn 0.1526645559791443 -0.93120475716362527 -0.3309852467762337
vn 0.21184086745511505 0.88159488723179658 -0.42179841356105191
vn 0.24212812025822486 -0.78194873250700758 0.57439546752294524
vn 0.0039121704464342528 0.99994927992187621 0.0092807599968666547
vn 0.19118712416574282 0.51202055281292946 -0.83742607855880324
vn 0.0065361865291575505 0.015872393327863801 0.99985266184358468
vn 0.0035216380441292472 -0.0089729827105563369 -0.99995354074414988
vn 0.0017608803786023101 -0.0044866476891049101 0.99998838457894401
vn 0.0013071819742154519 -0.99999269636556898 -0.0035914468957990841
vn 0.0026143066674470471 0.99997078642241366 -0.0071827364136540731
vn 0.12823158857120814 -0.88796650024707335 0.44166973422623024
vn 0.1899513976981641 0.79120959538138635 0.5812966907603524
vn 0.12490956066708833 0.47406310550545983 -0.87158578100636452
vn 0.18949305481366585 0.63292232795372683 0.75066750892457046
vn 0.18559747946978059 -0.65965237573016577 -0.72829411559342738
vn 0.23916907831707246 -0.85005707601077185 0.46925592111445869
vn 0.19157418343394489 -0.63028194036435736 -0.75235896212656217
vn 0.12940167351054949 0.8514668981454494 -0.50819221585462726
vn 0.058292546005107276 -0.95574705174691788 0.28835664056393256
vn 0.13103582807714612 0.75011353228976685 0.64819696114368319
vn 0.070280538366974663 0.44139560800279021 -0.89455607044091723
vn 0.11336732399443653 0.58578559779625816 0.8024980269538492
vn 0.14071314517993308 -0.72708546839354349 -0.6719721217613962
vn 0.11645029195590686 -0.73136388272367658 0.67197187482121024
vn 0.068644926322382477 -0.88762246118863375 -0.45542753593039048
vn 0.10732390767408864 0.6938831183725418 -0.71204479976976232
vn 0.045065403465893064 -0.92159866569942195 0.38551914192618414
vn 0.041880692646105451 0.86337204885966601 0.50282672247141458
vn 0.024049240177286317 0.41299242115297879 -0.91041687930150772
vn 0.049817228749495339 0.54332283220952116 0.83804447597937481
vn 0.061638419840443499 -0.67224857105225366 -0.73775508396606537
vn 0.039243873175948581 -0.67392658058542854 0.73775529981056853
vn 0.033488889546039353 -0.74069767661330299 -0.6710033130593529
vn 0.020587997371467302 0.91071886980320227 -0.41251336287278079
vn 0.0060620639065198968 -0.93122566860558564 0.36439265293262046
vn -0.0077835799344101774 0.88376114418647889 0.46787354692225352
vn -0.0067401346127502273 0.27027573227209112 -0.96275936719939892
vn -0.015343162973814359 0.61525249069552734 0.78818079147040176
vn -0.0051508214139878153 -0.62070514711450953 -0.78402716112665138
vn -0.025794623104688434 -0.62019035949847245 0.78402713945630897
vn -0.018809116679150226 -0.92607490489606858 -0.37687065108799311
vn -0.031489277851767514 0.77519403194905778 -0.63093790360933077
vn -0.028769866582860151 -0.93800860405925368 0.3454159137729686
vn -0.051044711790167216 0.89817240865832748 0.43667008338464969
vn -0.039787827258757576 0.36686294404251307 -0.92942375109015118
vn -0.066764480524303921 0.46935084659747051 0.88048412077592719
vn -0.062188933865529726 -0.57341194371834681 -0.81690347000475905
vn -0.081227640992940803 -0.57102611699754313 0.81690344842302509
vn -0.089302075262299468 -0.8006214414263062 -0.59247822481700585
vn -0.052233403678764063 0.93657807662503345 -0.34654462616737319
vn -0.084541401611466296 -0.90441120075057413 0.41820226131678628
vn -0.058119984742004985 0.95601468379816867 0.28750302908991521
vn -0.073208551463714355 0.34727707587657314 -0.93490060464372438
vn -0.107426126146794 0.43702226002768141 0.89301241405782861
vn -0.11177105215389681 -0.53020478323343057 -0.84047017777955813
vn -0.12934566991460447 -0.52619357151194457 0.84047012021477963
vn -0.12218092424613637 -0.88539261197808117 -0.44849943634857647
vn -0.10719479904899704 0.88539256125554899 -0.45231547345871792
vn -0.10084745805875063 -0.9458251066408967 0.30861733238887412
vn -0.11214928878872819 0.9155394126241716 0.38627725917528388
vn -0.14020550917012589 0.41729886820489642 -0.89788867338510203
vn -0.096889532392375063 0.28837591652108019 0.95260261876787522
vn -0.15577043803948992 -0.49050340534212716 -0.85740421038198911
vn -0.17199947341546848 -0.48505035850084594 0.85740441500088072
vn -0.10791480851475423 -0.94891848729038164 -0.29649299921205186
vn -0.18939265049619153 0.83268547610030152 -0.52035115242463081
vn -0.12894118373835003 -0.94762286785971961 0.29220724057674119
vn -0.14592729079100078 0.92031849618093475 0.36293124884702571
vn -0.096139666716869729 0.21306777156404885 -0.9722958856255125
vn -0.21565112491685906 0.47793284697598071 0.85151323307599114
vn -0.19566426424836705 -0.45361625167407943 -0.86945258175089879
vn -0.21064415894737606 -0.44685733586184784 0.86945244820392809
vn -0.23410144846225767 -0.84195364967419206 -0.48611784952640957
vn -0.1323926641768402 0.95230924478240853 -0.27491686884241417
vn -0.15645059698824618 -0.94826652117798071 0.27624955296802112
vn -0.17820538719996051 0.92316198382288994 0.34060944143857541
vn -0.21531022177400042 0.37292899647650601 -0.90253280936853308
vn -0.14397433058571349 0.24937135906192451 0.95764571602028503
vn -0.23262374910972436 -0.41885642269489776 -0.87775024267576773
vn -0.24642778281480948 -0.4108868468278522 0.87775016203976997
vn -0.22752095804288963 -0.90527263446843109 -0.35876966278356376
vn -0.21546090953051997 0.90527273736278935 -0.36613913673897708
vn -0.18396323879628748 -0.9478101641439487 0.26041009872315085
vn -0.20970823455514437 0.9243128700450528 0.31885447249308257
vn -0.20190696001068639 0.27120089313793405 -0.94110767453061928
vn -0.23223148284077635 0.33462027318964549 0.91328955493209352
vn -0.33749310424373702 -0.4694238698213179 -0.81592869481953167
vn -0.19494211428947392 -0.27114770799828181 0.94259031000940607
vn -0.17836042138659855 -0.95537553542112508 -0.23546793072856842
vn -0.31756886137445672 0.85051806507868855 -0.41924818337129954
vn -0.14284112703955448 -0.97499626121819016 0.17023132213732098
vn -0.31074900374522479 0.87537779997779086 0.37033601496126872
vn -0.23104667842422222 0.25319086879291247 -0.93942100058973788
vn -0.26452429652022486 0.30998621293211109 0.91320065940760686
vn -0.21825769464884329 -0.2473157366804177 -0.94403310594321566
vn -0.37901951235755177 -0.42948080279953321 0.81968923945536343
vn -0.3578399325090626 -0.85042190770616877 -0.38565938546249601
vn -0.20099395392647107 0.95534145972502049 -0.21661977244810973
vn -0.3039315782430777 -0.90539772741335134 0.2964465397696705
vn -0.19324986599745811 0.96287370532493455 0.18849062811130826
vn -0.26135918588523066 0.23453797009923893 -0.93631368490220079
vn -0.29716793600433949 0.28507570929310533 0.91127551145740426
vn -0.41946535802049145 -0.38920731884674742 -0.82010150370357648
vn -0.24146717969158915 -0.22404899904191397 0.94419047186471139
vn -0.2240973583765048 -0.95428950392628042 -0.19776732961944454
vn -0.39802286916862034 0.84746435460450342 -0.35125768787821843
vn -0.18553225033486923 -0.9714352388570322 0.14795729381297859
vn -0.39040603268529422 0.86640127780540965 0.31133897195834986
vn -0.2935525084381832 0.21476794820282322 -0.93150504733704997
vn -0.33081588862449773 0.25935556485227229 0.90735634610319582
vn -0.26510658649877278 -0.2008108804200163 -0.94307660775777213
vn -0.45943896291255076 -0.3480122612576268 0.81719233071058206
vn -0.43873229057513369 -0.84143898784704707 -0.31542734018729812
vn -0.24822184881547954 0.95212294930478369 -0.17845952812272436
vn -0.29999041665610976 -0.93254674510477065 0.2009037533471969
vn -0.3485016220806148 0.91185313092199427 0.216957339205053
vn -0.32846823188257751 0.19329281382928296 -0.92452501792319908
vn -0.36617063487488588 0.23221443253457541 0.90110794219003976
vn -0.40216105483052078 -0.25503847725769685 -0.87933034810341792
vn -0.41042184168079704 -0.24151983338174796 0.87933047368699524
vn -0.3911749992554921 -0.8943067253572462 -0.21725008846549371
vn -0.38373212198831474 0.89430665370062434 -0.23014184256917883
vn -0.33845422122318408 -0.92347228211678378 0.18068670205144319
vn -0.38536540635679178 0.90308855860787896 0.1895377505802166
vn -0.36715080149031121 0.1693456570431347 -0.91461595077149793
vn -0.40402040977054715 0.20291217634694958 0.89196084957748201
vn -0.54008925149189013 -0.26009264254815445 -0.8004095312496271
vn -0.3159569671556306 -0.15215648578824267 0.93649324543126744
vn -0.42817980675059303 -0.88461899152665879 -0.18469242789400425
vn -0.42179990291755903 0.88461887046139209 -0.19883233117968652
vn -0.48198699453970545 -0.85551431367750586 0.1891660545327522
vn -0.29983031438153224 0.94670714941292089 0.11767478841422729
vn -0.28784469324311207 0.10476707725265029 -0.95192924742110729
vn -0.5506515115743793 0.20042109792754409 0.8103174046670657
vn -0.34451964261646628 -0.12539510666805911 -0.9303667465441402
vn -0.58166906958615028 -0.21171058483728941 0.78539144492070656
vn -0.46838799961819538 -0.87091156548230964 -0.14874719131068656
vn -0.46318080543167212 0.87091175500517981 -0.16424450211031477
vn -0.30822695019747104 -0.94735183638740039 0.08672165395900687
vn -0.57465080235920307 0.80226895239072038 0.16168173483056231
vn -0.56537754850166055 0.1439628523596572 -0.81217173355807204
vn -0.35531615571646841 0.090474634873586007 0.93035733453945624
vn -0.51559068852488132 -0.14045802904356666 -0.84524421558720841
vn -0.51997755893212783 -0.12323011970715793 0.84524415159404997
vn -0.51276832968807684 -0.85169480558378263 -0.10809532002127786
vn -0.50888903398195084 0.85169475102387493 -0.12509197484769613
vn -0.013860397583575832 -0.99990034206626111 0.0026824083580413672
vn -0.52296897016397481 0.84827456713334137 0.083268931783553546
vn -0.010459628133232458 0.0015765414822765716 -0.99994405378314499
vn -0.65249614695489644 0.098348357092320177 0.75138297749300631
vn -0.66881014548137052 -0.10080730640592611 -0.73656695301674369
vn -0.41259488062485161 -0.062188916890203588 0.90878930621909726
vn -0.56237838387937111 -0.82462748737556735 -0.060992297955440339
vn -0.56003846566384763 0.8246274664201082 -0.079664663448962683
vn -0.68064719927790318 -0.72994833417427318 0.062408489417303981
vn -0.016301498994393905 0.99986667112630068 0.00094926358084608607
vn -0.75993944746367925 0.037927574607278011 -0.64888638086571626
vn -0.012440223838644626 0.00062087514912690885 0.99992242466348036
vn -0.45485488514319078 -0.022701206851849454 -0.89027618673580411
vn -0.7142451875928153 -0.035647034419292185 0.69898719654770058
vn -0.61820218110937708 -0.78600238285186486 -0.005130050954843415
vn -0.61768946948900683 0.78600236130178414 -0.025690607435577627
vn 0.15674759982326678 -0.63835548691610022 -0.75361293929560003
vn 0.29264608044392382 -0.85998792668934476 0.41806582920560542
vn 0.32439000355152653 0.70860442891995623 0.62661861519656714
vn 0.15882799748561136 0.95659101536732061 0.24435076536247902
vn 0.32714181099284151 0.26525011702122281 -0.90698434987630938
vn 0.14781610108585014 0.52170388618535346 0.84022345563479583
f 1//1 2//2 3//3
f 1//1 3//3 5//5
f 1//1 5//5 21//21
f 1//1 19//19 2//2
f 1//1 21//21 29//29
f 1//1 27//27 19//19
f 1//1 29//29 37//37
f 1//1 35//35 27//27
f 1//1 37//37 45//45
f 1//1 43//43 35//35
f 1//1 45//45 53//53
f 1//1 51//51 43//43
f 1//1 53//53 61//61
f 1//1 59//59 51//51
f 1//1 61//61 69//69
f 1//1 67//67 59//59
f 1//1 69//69 77//77
f 1//1 75//75 67//67
f 1//1 77//77 85//85
f 1//1 83//83 75//75
f 1//1 85//85 93//93
f 1//1 91//91 83//83
f 1//1 93//93 101//101
f 1//1 99//99 91//91
f 1//1 101//101 109//109
f 1//1 107//107 99//99
f 1//1 109//109 117//117
f 1//1 115//115 107//107
f 1//1 117//117 125//125
f 1//1 123//123 115//115
f 1//1 125//125 133//133
f 1//1 131//131 123//123
f 1//1 133//133 141//141
f 1//1 139//139 131//131
f 1//1 141//141 149//149
f 1//1 147//147 139//139
f 1//1 149//149 157//157
f 1//1 155//155 147//147
f 1//1 157//157 165//165
f 1//1 163//163 155//155
f 1//1 165//165 511//511
f 1//1 171//171 163//163
f 1//1 343//343 171//171
f 1//1 511//511 343//343
f 2//2 4//4 3//3
f 2//2 9//9 17//17
f 2//2 11//11 9//9
f 2//2 17//17 25//25
f 2//2 19//19 11//11
f 2//2 25//25 33//33
f 2//2 33//33 41//41
f 2//2 41//41 49//49
f 2//2 49//49 57//57
f 2//2 57//57 65//65
f 2//2 65//65 73//73
f 2//2 73//73 81//81
f 2//2 81//81 89//89
f 2//2 89//89 97//97
f 2//2 97//97 105//105
f 2//2 105//105 113//113
f 2//2 113//113 121//121
f 2//2 121//121 129//129
f 2//2 129//129 137//137
f 2//2 137//137 145//145
f 2//2 145//145 153//153
f 2//2 153//153 161//161
f 2//2 161//161 357//357
f 2//2 357//357 512//512
f 2//2 512//512 4//4
f 3//3 4//4 12//12
f 3//3 6//6 5//5
f 3//3 12//12 20//20
f 3//3 14//14 6//6
f 3//3 20//20 28//28
f 3//3 22//22 14//14
f 3//3 28//28 36//36
f 3//3 30//30 22//22
f 3//3 36//36 44//44
f 3//3 38//38 30//30
f 3//3 44//44 52//52
f 3//3 46//46 38//38
f 3//3 52//52 60//60
f 3//3 54//54 46//46
f 3//3 60//60 68//68
f 3//3 62//62 54//54
f 3//3 68//68 76//76
f 3//3 70//70 62//62
f 3//3 76//76 84//84
f 3//3 78//78 70//70
f 3//3 84//84 92//92
f 3//3 86//86 78//78
f 3//3 92//92 100//100
f 3//3 94//94 86//86
f 3//3 100//100 108//108
f 3//3 102//102 94//94
f 3//3 108//108 116//116
f 3//3 110//110 102//102
f 3//3 116//116 124//124
f 3//3 118//118 110//110
f 3//3 124//124 132//132
f 3//3 126//126 118//118
f 3//3 132//132 140//140
f 3//3 134//134 126//126
f 3//3 140//140 148//148
f 3//3 142//142 134//134
f 3//3 148//148 156//156
f 3//3 150//150 142//142
f 3//3 156//156 164//164
f 3//3 158//158 150//150
f 3//3 164//164 513//513
f 3//3 166//166 158//158
f 3//3 513//513 166//166
f 4//4 10//10 12//12
f 4//4 18//18 10//10
f 4//4 26//26 18//18
f 4//4 34//34 26//26
f 4//4 42//42 34//34
f 4//4 50//50 42//42
f 4//4 58//58 50//50
f 4//4 66//66 58//58
f 4//4 74//74 66//66
f 4//4 82//82 74//74
f 4//4 90//90 82//82
f 4//4 98//98 90//90
f 4//4 106//106 98//98
f 4//4 114//114 106//106
f 4//4 122//122 114//114
f 4//4 130//130 122//122
f 4//4 138//138 130//130
f 4//4 146//146 138//138
f 4//4 154//154 146//146
f 4//4 162//162 154//154
f 4//4 358//358 162//162
f 4//4 512//512 514//514
f 4//4 514//514 358//358
f 5//5 6//6 516//516
f 5//5 7//7 13//13
f 5//5 13//13 21//21
f 5//5 15//15 7//7
f 5//5 23//23 15//15
f 5//5 31//31 23//23
f 5//5 39//39 31//31
f 5//5 47//47 39//39
f 5//5 55//55 47//47
f 5//5 63//63 55//55
f 5//5 71//71 63//63
f 5//5 79//79 71//71
f 5//5 87//87 79//79
f 5//5 95//95 87//87
f 5//5 103//103 95//95
f 5//5 111//111 103//103
f 5//5 119//119 111//111
f 5//5 127//127 119//119
f 5//5 135//135 127//127
f 5//5 143//143 135//135
f 5//5 151//151 143//143
f 5//5 159//159 151//151
f 5//5 355//355 159//159
f 5//5 515//515 355//355
f 5//5 516//516 515//515
f 6//6 8//8 16//16
f 6//6 14//14 8//8
f 6//6 16//16 24//24
f 6//6 24//24 32//32
f 6//6 32//32 40//40
f 6//6 40//40 48//48
f 6//6 48//48 56//56
f 6//6 56//56 64//64
f 6//6 64//64 72//72
f 6//6 72//72 80//80
f 6//6 80//80 88//88
f 6//6 88//88 96//96
f 6//6 96//96 104//104
f 6//6 104//104 112//112
f 6//6 112//112 120//120
f 6//6 120//120 128//128
f 6//6 128//128 136//136
f 6//6 136//136 144//144
f 6//6 144//144 152//152
f 6//6 152//152 160//160
f 6//6 160//160 356//356
f 6//6 356//356 516//516
f 7//7 8//8 14//14
f 7//7 14//14 13//13
f 7//7 15//15 8//8
f 8//8 15//15 16//16
f 9//9 10//10 17//17
f 9//9 11//11 10//10
f 10//10 11//11 12//12
f 10//10 18//18 17//17
f 11//11 19//19 12//12
f 12//12 19//19 20//20
f 13//13 14//14 22//22
f 13//13 22//22 21//21
f 15//15 23//23 16//16
f 16//16 23//23 24//24
f 17//17 18//18 25//25
f 18//18 26//26 25//25
f 19//19 27//27 20//20
f 20//20 27//27 28//28
f 21//21 22//22 29//29
f 22//22 30//30 29//29
f 23//23 31//31 32//32
f 23//23 32//32 24//24
f 25//25 26//26 33//33
f 26//26 34//34 33//33
f 27//27 35//35 28//28
f 28//28 35//35 36//36
f 29//29 30//30 37//37
f 30//30 38//38 37//37
f 31//31 39//39 40//40
f 31//31 40//40 32//32
f 33//33 34//34 42//42
f 33//33 42//42 41//41
f 35//35 43//43 36//36
f 36//36 43//43 44//44
f 37//37 38//38 46//46
f 37//37 46//46 45//45
f 39//39 47//47 48//48
f 39//39 48//48 40//40
f 41//41 42//42 49//49
f 42//42 50//50 49//49
f 43//43 51//51 44//44
f 44//44 51//51 52//52
f 45//45 46//46 53//53
f 46//46 54//54 53//53
f 47//47 55//55 56//56
f 47//47 56//56 48//48
f 49//49 50//50 58//58
f 49//49 58//58 57//57
f 51//51 59//59 52//52
f 52//52 59//59 60//60
f 53//53 54//54 61//61
f 54//54 62//62 61//61
f 55//55 63//63 64//64
f 55//55 64//64 56//56
f 57//57 58//58 66//66
f 57//57 66//66 65//65
f 59//59 67//67 60//60
f 60//60 67//67 68//68
f 61//61 62//62 70//70
f 61//61 70//70 69//69
f 63//63 71//71 64//64
f 64//64 71//71 72//72
f 65//65 66//66 74//74
f 65//65 74//74 73//73
f 67//67 75//75 68//68
f 68//68 75//75 76//76
f 69//69 70//70 78//78
f 69//69 78//78 77//77
f 71//71 79//79 80//80
f 71//71 80//80 72//72
f 73//73 74//74 82//82
f 73//73 82//82 81//81
f 75//75 83//83 84//84
f 75//75 84//84 76//76
f 77//77 78//78 86//86
f 77//77 86//86 85//85
f 79//79 87//87 80//80
f 80//80 87//87 88//88
f 81//81 82//82 90//90
f 81//81 90//90 89//89
f 83//83 91//91 92//92
f 83//83 92//92 84//84
f 85//85 86//86 94//94
f 85//85 94//94 93//93
f 87//87 95//95 88//88
f 88//88 95//95 96//96
f 89//89 90//90 98//98
f 89//89 98//98 97//97
f 91//91 99//99 92//92
f 92//92 99//99 100//100
f 93//93 94//94 102//102
f 93//93 102//102 101//101
f 95//95 103//103 96//96
f 96//96 103//103 104//104
f 97//97 98//98 106//106
f 97//97 106//106 105//105
f 99//99 107//107 108//108
f 99//99 108//108 100//100
f 101//101 102//102 110//110
f 101//101 110//110 109//109
f 103//103 111//111 112//112
f 103//103 112//112 104//104
f 105//105 106//106 113//113
f 106//106 114//114 113//113
f 107//107 115//115 116//116
f 107//107 116//116 108//108
f 109//109 110//110 118//118
f 109//109 118//118 117//117
f 111//111 119//119 112//112
f 112//112 119//119 120//120
f 113//113 114//114 122//122
f 113//113 122//122 121//121
f 115//115 123//123 116//116
f 116//116 123//123 124//124
f 117//117 118//118 126//126
f 117//117 126//126 125//125
f 119//119 127//127 120//120
f 120//120 127//127 128//128
f 121//121 122//122 129//129
f 122//122 130//130 129//129
f 123//123 131//131 124//124
f 124//124 131//131 132//132
f 125//125 126//126 134//134
f 125//125 134//134 133//133
f 127//127 135//135 128//128
f 128//128 135//135 136//136
f 129//129 130//130 138//138
f 129//129 138//138 137//137
f 131//131 139//139 132//132
f 132//132 139//139 140//140
f 133//133 134//134 141//141
f 134//134 142//142 141//141
f 135//135 143//143 136//136
f 136//136 143//143 144//144
f 137//137 138//138 145//145
f 138//138 146//146 145//145
f 139//139 147//147 140//140
f 140//140 147//147 148//148
f 141//141 142//142 149//149
f 142//142 150//150 149//149
f 143//143 151//151 144//144
f 144//144 151//151 152//152
f 145//145 146//146 154//154
f 145//145 154//154 153//153
f 147//147 155//155 156//156
f 147//147 156//156 148//148
f 149//149 150//150 157//157
f 150//150 158//158 157//157
f 151//151 159//159 152//152
f 152//152 159//159 160//160
f 153//153 154//154 162//162
f 153//153 162//162 161//161
f 155//155 163//163 164//164
f 155//155 164//164 156//156
f 157//157 158//158 166//166
f 157//157 166//166 165//165
f 159//159 167//167 160//160
f 159//159 355//355 167//167
f 160//160 167//167 168//168
f 160//160 168//168 356//356
f 161//161 162//162 169//169
f 161//161 169//169 349//349
f 161//161 349//349 357//357
f 162//162 170//170 169//169
f 162//162 350//350 170//170
f 162//162 358//358 350//350
f 163//163 171//171 172//172
f 163//163 172//172 164//164
f 164//164 172//172 344//344
f 164//164 344//344 352//352
f 164//164 352//352 513//513
f 165//165 166//166 173//173
f 165//165 173//173 345//345
f 165//165 345//345 511//511
f 166//166 174//174 173//173
f 166//166 346//346 174//174
f 166//166 354//354 346//346
f 166//166 513//513 354//354
f 167//167 175//175 168//168
f 167//167 347//347 175//175
f 167//167 355//355 347//347
f 168//168 175//175 176//176
f 168//168 176//176 348//348
f 168//168 348//348 356//356
f 169//169 170//170 178//178
f 169//169 177//177 349//349
f 169//169 178//178 177//177
f 170//170 342//342 178//178
f 170//170 350//350 342//342
f 171//171 179//179 180//180
f 171//171 180//180 172//172
f 171//171 343//343 179//179
f 172//172 180//180 336//336
f 172//172 336//336 344//344
f 173//173 174//174 182//182
f 173//173 181//181 337//337
f 173//173 182//182 181//181
f 173//173 337//337 345//345
f 174//174 338//338 182//182
f 174//174 346//346 338//338
f 175//175 183//183 176//176
f 175//175 339//339 183//183
f 175//175 347//347 339//339
f 176//176 183//183 184//184
f 176//176 184//184 340//340
f 176//176 340//340 348//348
f 177//177 178//178 186//186
f 177//177 185//185 333//333
f 177//177 186//186 185//185
f 177//177 333//333 341//341
f 177//177 341//341 349//349
f 178//178 342//342 186//186
f 179//179 187//187 188//188
f 179//179 188//188 180//180
f 179//179 327//327 187//187
f 179//179 335//335 327//327
f 179//179 343//343 335//335
f 180//180 188//188 328//328
f 180//180 328//328 336//336
f 181//181 182//182 190//190
f 181//181 189//189 329//329
f 181//181 190//190 189//189
f 181//181 329//329 337//337
f 182//182 330//330 190//190
f 182//182 338//338 330//330
f 183//183 191//191 192//192
f 183//183 192//192 184//184
f 183//183 331//331 191//191
f 183//183 339//339 331//331
f 184//184 192//192 332//332
f 184//184 332//332 340//340
f 185//185 186//186 193//193
f 185//185 193//193 325//325
f 185//185 325//325 333//333
f 186//186 194//194 193//193
f 186//186 326//326 194//194
f 186//186 334//334 326//326
f 186//186 342//342 334//334
f 187//187 195//195 188//188
f 187//187 327//327 195//195
f 188//188 195//195 196//196
f 188//188 196//196 320//320
f 188//188 320//320 328//328
f 189//189 190//190 198//198
f 189//189 197//197 321//321
f 189//189 198//198 197//197
f 189//189 321//321 329//329
f 190//190 322//322 198//198
f 190//190 330//330 322//322
f 191//191 199//199 192//192
f 191//191 323//323 199//199
f 191//191 331//331 323//323
f 192//192 199//199 200//200
f 192//192 200//200 324//324
f 192//192 324//324 332//332
f 193//193 194//194 202//202
f 193//193 201//201 325//325
f 193//193 202//202 201//201
f 194//194 318//318 202//202
f 194//194 326//326 318//318
f 195//195 203//203 204//204
f 195//195 204//204 196//196
f 195//195 311//311 203//203
f 195//195 319//319 311//311
f 195//195 327//327 319//319
f 196//196 204//204 312//312
f 196//196 312//312 320//320
f 197//197 198//198 206//206
f 197//197 205//205 313//313
f 197//197 206//206 205//205
f 197//197 313//313 321//321
f 198//198 314//314 206//206
f 198//198 322//322 314//314
f 199//199 207//207 208//208
f 199//199 208//208 200//200
f 199//199 315//315 207//207
f 199//199 323//323 315//315
f 200//200 208//208 316//316
f 200//200 316//316 324//324
f 201//201 202//202 209//209
f 201//201 209//209 317//317
f 201//201 317//317 325//325
f 202//202 210//210 209//209
f 202//202 310//310 210//210
f 202//202 318//318 310//310
f 203//203 211//211 204//204
f 203//203 311//311 211//211
f 204//204 211//211 212//212
f 204//204 212//212 312//312
f 205//205 206//206 214//214
f 205//205 213//213 305//305
f 205//205 214//214 213//213
f 205//205 305//305 313//313
f 206//206 306//306 214//214
f 206//206 314//314 306//306
f 207//207 215//215 208//208
f 207//207 307//307 215//215
f 207//207 315//315 307//307
f 208//208 215//215 216//216
f 208//208 216//216 308//308
f 208//208 308//308 316//316
f 209//209 210//210 218//218
f 209//209 217//217 309//309
f 209//209 218//218 217//217
f 209//209 309//309 317//317
f 210//210 302//302 218//218
f 210//210 310//310 302//302
f 211//211 219//219 212//212
f 211//211 295//295 219//219
f 211//211 303//303 295//295
f 211//211 311//311 303//303
f 212//212 219//219 220//220
f 212//212 220//220 304//304
f 212//212 304//304 312//312
f 213//213 214//214 222//222
f 213//213 221//221 297//297
f 213//213 222//222 221//221
f 213//213 297//297 305//305
f 214//214 298//298 222//222
f 214//214 306//306 298//298
f 215//215 223//223 216//216
f 215//215 299//299 223//223
f 215//215 307//307 299//299
f 216//216 223//223 224//224
f 216//216 224//224 300//300
f 216//216 300//300 308//308
f 217//217 218//218 226//226
f 217//217 225//225 301//301
f 217//217 226//226 225//225
f 217//217 301//301 309//309
f 218//218 302//302 226//226
f 219//219 227//227 220//220
f 219//219 287//287 227//227
f 219//219 295//295 287//287
f 220//220 227//227 228//228
f 220//220 228//228 296//296
f 220//220 296//296 304//304
f 221//221 222//222 230//230
f 221//221 229//229 289//289
f 221//221 230//230 229//229
f 221//221 289//289 297//297
f 222//222 290//290 230//230
f 222//222 298//298 290//290
f 223//223 231//231 232//232
f 223//223 232//232 224//224
f 223//223 291//291 231//231
f 223//223 299//299 291//291
f 224//224 232//232 292//292
f 224//224 292//292 300//300
f 225//225 226//226 234//234
f 225//225 233//233 285//285
f 225//225 234//234 233//233
f 225//225 285//285 293//293
f 225//225 293//293 301//301
f 226//226 286//286 234//234
f 226//226 294//294 286//286
f 226//226 302//302 294//294
f 227//227 235//235 236//236
f 227//227 236//236 228//228
f 227//227 279//279 235//235
f 227//227 287//287 279//279
f 228//228 236//236 288//288
f 228//228 288//288 296//296
f 229//229 230//230 237//237
f 229//229 237//237 281//281
f 229//229 281//281 289//289
f 230//230 238//238 237//237
f 230//230 282//282 238//238
f 230//230 290//290 282//282
f 231//231 239//239 232//232
f 231//231 283//283 239//239
f 231//231 291//291 283//283
f 232//232 239//239 240//240
f 232//232 240//240 284//284
f 232//232 284//284 292//292
f 233//233 234//234 242//242
f 233//233 241//241 277//277
f 233//233 242//242 241//241
f 233//233 277//277 285//285
f 234//234 278//278 242//242
f 234//234 286//286 278//278
f 235//235 243//243 236//236
f 235//235 271//271 243//243
f 235//235 279//279 271//271
f 236//236 243//243 244//244
f 236//236 244//244 280//280
f 236//236 280//280 288//288
f 237//237 238//238 246//246
f 237//237 245//245 273//273
f 237//237 246//246 245//245
f 237//237 273//273 281//281
f 238//238 274//274 246//246
f 238//238 282//282 274//274
f 239//239 247//247 240//240
f 239//239 275//275 247//247
f 239//239 283//283 275//275
f 240//240 247//247 248//248
f 240//240 248//248 276//276
f 240//240 276//276 284//284
f 241//241 242//242 250//250
f 241//241 249//249 277//277
f 241//241 250//250 249//249
f 242//242 278//278 250//250
f 243//243 251//251 244//244
f 243//243 263//263 251//251
f 243//243 271//271 263//263
f 244//244 251//251 252//252
f 244//244 252//252 264//264
f 244//244 264//264 272//272
f 244//244 272//272 280//280
f 245//245 246//246 253//253
f 245//245 253//253 265//265
f 245//245 265//265 273//273
f 246//246 254//254 253//253
f 246//246 266//266 254//254
f 246//246 274//274 266//266
f 247//247 255//255 256//256
f 247//247 256//256 248//248
f 247//247 267//267 255//255
f 247//247 275//275 267//267
f 248//248 256//256 268//268
f 248//248 268//268 276//276
f 249//249 250//250 258//258
f 249//249 257//257 269//269
f 249//249 258//258 257//257
f 249//249 269//269 277//277
f 250//250 262//262 258//258
f 250//250 270//270 262//262
f 250//250 278//278 270//270
f 251//251 257//257 252//252
f 251//251 263//263 257//257
f 252//252 257//257 258//258
f 252//252 258//258 262//262
f 252//252 262//262 264//264
f 253//253 254//254 256//256
f 253//253 255//255 259//259
f 253//253 256//256 255//255
f 253//253 259//259 265//265
f 254//254 260//260 256//256
f 254//254 266//266 260//260
f 255//255 267//267 259//259
f 256//256 260//260 268//268
f 257//257 261//261 269//269
f 257//257 263//263 261//261
f 259//259 260//260 266//266
f 259//259 266//266 265//265
f 259//259 267//267 260//260
f 260//260 267//267 268//268
f 261//261 262//262 269//269
f 261//261 263//263 262//262
f 262//262 263//263 264//264
f 262//262 270//270 269//269
f 263//263 271//271 264//264
f 264//264 271//271 272//272
f 265//265 266//266 274//274
f 265//265 274//274 273//273
f 267//267 275//275 268//268
f 268//268 275//275 276//276
f 269//269 270//270 277//277
f 270//270 278//278 277//277
f 271//271 279//279 272//272
f 272//272 279//279 280//280
f 273//273 274//274 281//281
f 274//274 282//282 281//281
f 275//275 283//283 284//284
f 275//275 284//284 276//276
f 277//277 278//278 285//285
f 278//278 286//286 285//285
f 279//279 287//287 280//280
f 280//280 287//287 288//288
f 281//281 282//282 289//289
f 282//282 290//290 289//289
f 283//283 291//291 292//292
f 283//283 292//292 284//284
f 285//285 286//286 294//294
f 285//285 294//294 293//293
f 287//287 295//295 288//288
f 288//288 295//295 296//296
f 289//289 290//290 298//298
f 289//289 298//298 297//297
f 291//291 299//299 300//300
f 291//291 300//300 292//292
f 293//293 294//294 301//301
f 294//294 302//302 301//301
f 295//295 303//303 296//296
f 296//296 303//303 304//304
f 297//297 298//298 305//305
f 298//298 306//306 305//305
f 299//299 307//307 308//308
f 299//299 308//308 300//300
f 301//301 302//302 310//310
f 301//301 310//310 309//309
f 303//303 311//311 304//304
f 304//304 311//311 312//312
f 305//305 306//306 313//313
f 306//306 314//314 313//313
f 307//307 315//315 316//316
f 307//307 316//316 308//308
f 309//309 310//310 318//318
f 309//309 318//318 317//317
f 311//311 319//319 312//312
f 312//312 319//319 320//320
f 313//313 314//314 322//322
f 313//313 322//322 321//321
f 315//315 323//323 316//316
f 316//316 323//323 324//324
f 317//317 318//318 326//326
f 317//317 326//326 325//325
f 319//319 327//327 320//320
f 320//320 327//327 328//328
f 321//321 322//322 330//330
f 321//321 330//330 329//329
f 323//323 331//331 332//332
f 323//323 332//332 324//324
f 325//325 326//326 334//334
f 325//325 334//334 333//333
f 327//327 335//335 336//336
f 327//327 336//336 328//328
f 329//329 330//330 338//338
f 329//329 338//338 337//337
f 331//331 339//339 332//332
f 332//332 339//339 340//340
f 333//333 334//334 342//342
f 333//333 342//342 341//341
f 335//335 343//343 344//344
f 335//335 344//344 336//336
f 337//337 338//338 346//346
f 337//337 346//346 345//345
f 339//339 347//347 340//340
f 340//340 347//347 348//348
f 341//341 342//342 350//350
f 341//341 350//350 349//349
f 343//343 351//351 344//344
f 343//343 511//511 351//351
f 344//344 351//351 352//352
f 345//345 346//346 354//354
f 345//345 353//353 511//511
f 345//345 354//354 353//353
f 347//347 355//355 348//348
f 348//348 355//355 356//356
f 349//349 350//350 358//358
f 349//349 358//358 357//357
f 351//351 359//359 360//360
f 351//351 360//360 352//352
f 351//351 511//511 359//359
f 352//352 360//360 513//513
f 353//353 354//354 362//362
f 353//353 361//361 511//511
f 353//353 362//362 361//361
f 354//354 513//513 362//362
f 355//355 363//363 364//364
f 355//355 364//364 356//356
f 355//355 515//515 363//363
f 356//356 364//364 516//516
f 357//357 358//358 365//365
f 357//357 365//365 512//512
f 358//358 366//366 365//365
f 358//358 514//514 366//366
f 359//359 367//367 368//368
f 359//359 368//368 360//360
f 359//359 511//511 367//367
f 360//360 368//368 513//513
f 361//361 362//362 370//370
f 361//361 369//369 511//511
f 361//361 370//370 369//369
f 362//362 513//513 370//370
f 363//363 371//371 364//364
f 363//363 515//515 371//371
f 364//364 371//371 372//372
f 364//364 372//372 516//516
f 365//365 366//366 374//374
f 365//365 373//373 512//512
f 365//365 374//374 373//373
f 366//366 514//514 374//374
f 367//367 375//375 368//368
f 367//367 511//511 375//375
f 368//368 375//375 376//376
f 368//368 376//376 513//513
f 369//369 370//370 378//378
f 369//369 377//377 511//511
f 369//369 378//378 377//377
f 370//370 513//513 378//378
f 371//371 379//379 372//372
f 371//371 515//515 379//379
f 372//372 379//379 380//380
f 372//372 380//380 516//516
f 373//373 374//374 381//381
f 373//373 381//381 512//512
f 374//374 382//382 381//381
f 374//374 514//514 382//382
f 375//375 383//383 376//376
f 375//375 511//511 383//383
f 376//376 383//383 384//384
f 376//376 384//384 513//513
f 377//377 378//378 386//386
f 377//377 385//385 511//511
f 377//377 386//386 385//385
f 378//378 513//513 386//386
f 379//379 387//387 380//380
f 379//379 515//515 387//387
f 380//380 387//387 388//388
f 380//380 388//388 516//516
f 381//381 382//382 390//390
f 381//381 389//389 512//512
f 381//381 390//390 389//389
f 382//382 514//514 390//390
f 383//383 391//391 384//384
f 383//383 511//511 391//391
f 384//384 391//391 392//392
f 384//384 392//392 513//513
f 385//385 386//386 393//393
f 385//385 393//393 511//511
f 386//386 394//394 393//393
f 386//386 513//513 394//394
f 387//387 395//395 388//388
f 387//387 515//515 395//395
f 388//388 395//395 396//396
f 388//388 396//396 516//516
f 389//389 390//390 397//397
f 389//389 397//397 512//512
f 390//390 398//398 397//397
f 390//390 514//514 398//398
f 391//391 399//399 392//392
f 391//391 511//511 399//399
f 392//392 399//399 400//400
f 392//392 400//400 513//513
f 393//393 394//394 401//401
f 393//393 401//401 511//511
f 394//394 402//402 401//401
f 394//394 513//513 402//402
f 395//395 403//403 396//396
f 395//395 515//515 403//403
f 396//396 403//403 404//404
f 396//396 404//404 516//516
f 397//397 398//398 406//406
f 397//397 405//405 512//512
f 397//397 406//406 405//405
f 398//398 514//514 406//406
f 399//399 407//407 408//408
f 399//399 408//408 400//400
f 399//399 511//511 407//407
f 400//400 408//408 513//513
f 401//401 402//402 409//409
f 401//401 409//409 511//511
f 402//402 410//410 409//409
f 402//402 513//513 410//410
f 403//403 411//411 404//404
f 403//403 515//515 411//411
f 404//404 411//411 412//412
f 404//404 412//412 516//516
f 405//405 406//406 414//414
f 405//405 413//413 512//512
f 405//405 414//414 413//413
f 406//406 514//514 414//414
f 407//407 415//415 416//416
f 407//407 416//416 408//408
f 407//407 511//511 415//415
f 408//408 416//416 513//513
f 409//409 410//410 418//418
f 409//409 417//417 511//511
f 409//409 418//418 417//417
f 410//410 513//513 418//418
f 411//411 419//419 412//412
f 411//411 515//515 419//419
f 412//412 419//419 420//420
f 412//412 420//420 516//516
f 413//413 414//414 421//421
f 413//413 421//421 512//512
f 414//414 422//422 421//421
f 414//414 514//514 422//422
f 415//415 423//423 424//424
f 415//415 424//424 416//416
f 415//415 511//511 423//423
f 416//416 424//424 513//513
f 417//417 418//418 425//425
f 417//417 425//425 511//511
f 418//418 426//426 425//425
f 418//418 513//513 426//426
f 419//419 427//427 420//420
f 419//419 515//515 427//427
f 420//420 427//427 428//428
f 420//420 428//428 516//516
f 421//421 422//422 430//430
f 421//421 429//429 512//512
f 421//421 430//430 429//429
f 422//422 514//514 430//430
f 423//423 431//431 432//432
f 423//423 432//432 424//424
f 423//423 511//511 431//431
f 424//424 432//432 513//513
f 425//425 426//426 434//434
f 425//425 433//433 511//511
f 425//425 434//434 433//433
f 426//426 513//513 434//434
f 427//427 435//435 428//428
f 427//427 515//515 435//435
f 428//428 435//435 436//436
f 428//428 436//436 516//516
f 429//429 430//430 438//438
f 429//429 437//437 512//512
f 429//429 438//438 437//437
f 430//430 514//514 438//438
f 431//431 439//439 440//440
f 431//431 440//440 432//432
f 431//431 511//511 439//439
f 432//432 440//440 513//513
f 433//433 434//434 442//442
f 433//433 441//441 511//511
f 433//433 442//442 441//441
f 434//434 513//513 442//442
f 435//435 443//443 444//444
f 435//435 444//444 436//436
f 435//435 515//515 443//443
f 436//436 444//444 516//516
f 437//437 438//438 445//445
f 437//437 445//445 512//512
f 438//438 446//446 445//445
f 438//438 514//514 446//446
f 439//439 447//447 440//440
f 439//439 511//511 447//447
f 440//440 447//447 448//448
f 440//440 448//448 513//513
f 441//441 442//442 450//450
f 441//441 449//449 511//511
f 441//441 450//450 449//449
f 442//442 513//513 450//450
f 443//443 451//451 444//444
f 443//443 515//515 451//451
f 444//444 451//451 452//452
f 444//444 452//452 516//516
f 445//445 446//446 454//454
f 445//445 453//453 512//512
f 445//445 454//454 453//453
f 446//446 514//514 454//454
f 447//447 455//455 456//456
f 447//447 456//456 448//448
f 447//447 511//511 455//455
f 448//448 456//456 513//513
f 449//449 450//450 458//458
f 449//449 457//457 511//511
f 449//449 458//458 457//457
f 450//450 513//513 458//458
f 451//451 459//459 460//460
f 451//451 460//460 452//452
f 451//451 515//515 459//459
f 452//452 460//460 516//516
f 453//453 454//454 461//461
f 453//453 461//461 512//512
f 454//454 462//462 461//461
f 454//454 514//514 462//462
f 455//455 463//463 456//456
f 455//455 511//511 463//463
f 456//456 463//463 464//464
f 456//456 464//464 513//513
f 457//457 458//458 466//466
f 457//457 465//465 511//511
f 457//457 466//466 465//465
f 458//458 513//513 466//466
f 459//459 467//467 460//460
f 459//459 515//515 467//467
f 460//460 467//467 468//468
f 460//460 468//468 516//516
f 461//461 462//462 470//470
f 461//461 469//469 512//512
f 461//461 470//470 469//469
f 462//462 514//514 470//470
f 463//463 471//471 464//464
f 463//463 511//511 471//471
f 464//464 471//471 472//472
f 464//464 472//472 513//513
f 465//465 466//466 474//474
f 465//465 473//473 511//511
f 465//465 474//474 473//473
f 466//466 513//513 474//474
f 467//467 475//475 468//468
f 467//467 515//515 475//475
f 468//468 475//475 476//476
f 468//468 476//476 516//516
f 469//469 470//470 478//478
f 469//469 477//477 512//512
f 469//469 478//478 477//477
f 470//470 514//514 478//478
f 471//471 479//479 472//472
f 471//471 511//511 479//479
f 472//472 479//479 480//480
f 472//472 480//480 513//513
f 473//473 474//474 482//482
f 473//473 481//481 511//511
f 473//473 482//482 481//481
f 474//474 513//513 482//482
f 475//475 483//483 484//484
f 475//475 484//484 476//476
f 475//475 515//515 483//483
f 476//476 484//484 516//516
f 477//477 478//478 486//486
f 477//477 485//485 512//512
f 477//477 486//486 485//485
f 478//478 514//514 486//486
f 479//479 487//487 488//488
f 479//479 488//488 480//480
f 479//479 511//511 487//487
f 480//480 488//488 513//513
f 481//481 482//482 489//489
f 481//481 489//489 511//511
f 482//482 490//490 489//489
f 482//482 513//513 490//490
f 483//483 491//491 484//484
f 483//483 515//515 491//491
f 484//484 491//491 492//492
f 484//484 492//492 516//516
f 485//485 486//486 494//494
f 485//485 493//493 512//512
f 485//485 494//494 493//493
f 486//486 514//514 494//494
f 487//487 495//495 488//488
f 487//487 511//511 495//495
f 488//488 495//495 496//496
f 488//488 496//496 513//513
f 489//489 490//490 498//498
f 489//489 497//497 511//511
f 489//489 498//498 497//497
f 490//490 513//513 498//498
f 491//491 499//499 492//492
f 491//491 515//515 499//499
f 492//492 499//499 500//500
f 492//492 500//500 516//516
f 493//493 494//494 502//502
f 493//493 501//501 512//512
f 493//493 502//502 501//501
f 494//494 514//514 502//502
f 495//495 503//503 496//496
f 495//495 511//511 512//512
f 495//495 512//512 503//503
f 496//496 503//503 504//504
f 496//496 504//504 513//513
f 497//497 498//498 505//505
f 497//497 505//505 515//515
f 497//497 515//515 511//511
f 498//498 506//506 505//505
f 498//498 513//513 506//506
f 499//499 507//507 508//508
f 499//499 508//508 500//500
f 499//499 515//515 507//507
f 500//500 508//508 516//516
f 501//501 502//502 510//510
f 501//501 509//509 512//512
f 501//501 510//510 509//509
f 502//502 514//514 510//510
f 503//503 509//509 504//504
f 503//503 512//512 509//509
f 504//504 509//509 510//510
f 504//504 510//510 514//514
f 504//504 514//514 513//513
f 505//505 506//506 508//508
f 505//505 507//507 515//515
f 505//505 508//508 507//507
f 506//506 513//513 516//516
f 506//506 516//516 508//508
f 511//511 513//513 512//512
f 511//511 515//515 513//513
f 512//512 513//513 514//514
f 513//513 515//515 516//516
